<svg width="14" height="14" viewBox="0 0 14 14" fill="none" xmlns="http://www.w3.org/2000/svg">
<path fill-rule="evenodd" clip-rule="evenodd" d="M11.9942 0.272023C11.7409 0.0187001 11.3302 0.018701 11.0768 0.272023L9.44071 1.90816L5.11944 6.22942C5.03631 6.31256 4.97733 6.41672 4.94882 6.53078L4.39428 8.74893C4.27551 9.224 4.70584 9.65433 5.18091 9.53556L7.39906 8.98102C7.51312 8.95251 7.61728 8.89353 7.70042 8.8104L12.0217 4.48914L13.6578 2.853C13.9111 2.59968 13.9111 2.18896 13.6578 1.93564L11.9942 0.272023ZM10.5874 2.29039L11.5355 1.34228L12.5876 2.39432L11.6394 3.34243L10.5874 2.29039ZM9.82294 3.05486L10.875 4.1069L7.02065 7.96123L5.61793 8.31191L5.96861 6.90919L9.82294 3.05486ZM1.5136 4.21006C1.63739 4.08626 1.8053 4.01671 1.98037 4.01671H5.94112C6.3057 4.01671 6.60125 3.72116 6.60125 3.35659C6.60125 2.99201 6.3057 2.69646 5.94112 2.69646H1.98037C1.45515 2.69646 0.95143 2.90511 0.580038 3.2765C0.208646 3.64789 0 4.15161 0 4.67684L0 11.9382C0 12.4634 0.208646 12.9672 0.580038 13.3385C0.95143 13.7099 1.45515 13.9186 1.98037 13.9186H9.24174C9.76697 13.9186 10.2707 13.7099 10.6421 13.3385C11.0135 12.9672 11.2221 12.4634 11.2221 11.9382V7.97746C11.2221 7.61288 10.9266 7.31734 10.562 7.31734C10.1974 7.31734 9.90187 7.61288 9.90187 7.97746V11.9382C9.90187 12.1133 9.83232 12.2812 9.70852 12.405C9.58473 12.5288 9.41682 12.5983 9.24174 12.5983H1.98037C1.8053 12.5983 1.63739 12.5288 1.5136 12.405C1.3898 12.2812 1.32025 12.1133 1.32025 11.9382V4.67684C1.32025 4.50176 1.3898 4.33386 1.5136 4.21006Z" fill="white"/>
</svg>
