<svg width="20" height="20" viewBox="0 0 20 20" fill="none" xmlns="http://www.w3.org/2000/svg">
<g filter="url(#filter0_f_1125_28600)">
<path fill-rule="evenodd" clip-rule="evenodd" d="M3.65385 10C3.65385 6.49512 6.49512 3.65385 10 3.65385C13.5049 3.65385 16.3462 6.49512 16.3462 10C16.3462 13.5049 13.5049 16.3462 10 16.3462C6.49512 16.3462 3.65385 13.5049 3.65385 10ZM10 2.5C5.85786 2.5 2.5 5.85786 2.5 10C2.5 14.1421 5.85786 17.5 10 17.5C14.1421 17.5 17.5 14.1421 17.5 10C17.5 5.85786 14.1421 2.5 10 2.5ZM9.9988 5.96094C9.68017 5.96094 9.42188 6.21923 9.42188 6.53786C9.42188 6.85649 9.68017 7.11478 9.9988 7.11478H10.0057C10.3243 7.11478 10.5826 6.85649 10.5826 6.53786C10.5826 6.21923 10.3243 5.96094 10.0057 5.96094H9.9988ZM8.03711 9.30642C8.03711 8.98779 8.29541 8.72949 8.61403 8.72949H9.99865C10.3173 8.72949 10.5756 8.98779 10.5756 9.30642V12.1934H11.3833C11.7019 12.1934 11.9602 12.4517 11.9602 12.7703C11.9602 13.0889 11.7019 13.3472 11.3833 13.3472H8.61403C8.29541 13.3472 8.03711 13.0889 8.03711 12.7703C8.03711 12.4517 8.29541 12.1934 8.61403 12.1934H9.42172V9.88334H8.61403C8.29541 9.88334 8.03711 9.62504 8.03711 9.30642Z" fill="#C4C4C4"/>
</g>
<path fill-rule="evenodd" clip-rule="evenodd" d="M3.65385 10C3.65385 6.49512 6.49512 3.65385 10 3.65385C13.5049 3.65385 16.3462 6.49512 16.3462 10C16.3462 13.5049 13.5049 16.3462 10 16.3462C6.49512 16.3462 3.65385 13.5049 3.65385 10ZM10 2.5C5.85786 2.5 2.5 5.85786 2.5 10C2.5 14.1421 5.85786 17.5 10 17.5C14.1421 17.5 17.5 14.1421 17.5 10C17.5 5.85786 14.1421 2.5 10 2.5ZM9.9988 5.96094C9.68017 5.96094 9.42188 6.21923 9.42188 6.53786C9.42188 6.85649 9.68017 7.11478 9.9988 7.11478H10.0057C10.3243 7.11478 10.5826 6.85649 10.5826 6.53786C10.5826 6.21923 10.3243 5.96094 10.0057 5.96094H9.9988ZM8.03711 9.30642C8.03711 8.98779 8.29541 8.72949 8.61403 8.72949H9.99865C10.3173 8.72949 10.5756 8.98779 10.5756 9.30642V12.1934H11.3833C11.7019 12.1934 11.9602 12.4517 11.9602 12.7703C11.9602 13.0889 11.7019 13.3472 11.3833 13.3472H8.61403C8.29541 13.3472 8.03711 13.0889 8.03711 12.7703C8.03711 12.4517 8.29541 12.1934 8.61403 12.1934H9.42172V9.88334H8.61403C8.29541 9.88334 8.03711 9.62504 8.03711 9.30642Z" fill="#C4C4C4"/>
<defs>
<filter id="filter0_f_1125_28600" x="0.5" y="0.5" width="19" height="19" filterUnits="userSpaceOnUse" color-interpolation-filters="sRGB">
<feFlood flood-opacity="0" result="BackgroundImageFix"/>
<feBlend mode="normal" in="SourceGraphic" in2="BackgroundImageFix" result="shape"/>
<feGaussianBlur stdDeviation="1" result="effect1_foregroundBlur_1125_28600"/>
</filter>
</defs>
</svg>
