<svg width="19" height="19" viewBox="0 0 19 19" fill="none" xmlns="http://www.w3.org/2000/svg">
<path fill-rule="evenodd" clip-rule="evenodd" d="M2.3021 9.49982C2.3021 5.27168 5.71162 1.8441 9.91748 1.8441C14.1233 1.8441 17.5329 5.27168 17.5329 9.49982C17.5329 13.728 14.1233 17.1555 9.91748 17.1555C5.71162 17.1555 2.3021 13.728 2.3021 9.49982ZM9.91748 0.452148C4.94692 0.452148 0.91748 4.50293 0.91748 9.49982C0.91748 14.4967 4.94692 18.5475 9.91748 18.5475C14.888 18.5475 18.9175 14.4967 18.9175 9.49982C18.9175 4.50293 14.888 0.452148 9.91748 0.452148ZM9.91838 4.62793C9.53603 4.62793 9.22607 4.93953 9.22607 5.3239C9.22607 5.70828 9.53603 6.01988 9.91838 6.01988H9.92669C10.309 6.01988 10.619 5.70828 10.619 5.3239C10.619 4.93953 10.309 4.62793 9.92669 4.62793H9.91838ZM7.56191 8.66353C7.56191 8.27916 7.87187 7.96756 8.25422 7.96756H9.91576C10.2981 7.96756 10.6081 8.27916 10.6081 8.66353V12.1396H11.5774C11.9597 12.1396 12.2697 12.4512 12.2697 12.8356C12.2697 13.22 11.9597 13.5316 11.5774 13.5316H9.98815C9.96436 13.5341 9.94021 13.5354 9.91576 13.5354C9.89131 13.5354 9.86716 13.5341 9.84337 13.5316H8.25432C7.87197 13.5316 7.56201 13.22 7.56201 12.8356C7.56201 12.4512 7.87197 12.1396 8.25432 12.1396H9.22345V9.35951H8.25422C7.87187 9.35951 7.56191 9.04791 7.56191 8.66353Z" fill="#26DBDB"/>
</svg>
