<svg width="18" height="19" viewBox="0 0 18 19" fill="none" xmlns="http://www.w3.org/2000/svg">
<path fill-rule="evenodd" clip-rule="evenodd" d="M1.38462 9.49982C1.38462 5.27168 4.79414 1.8441 9 1.8441C13.2059 1.8441 16.6154 5.27168 16.6154 9.49982C16.6154 13.728 13.2059 17.1555 9 17.1555C4.79414 17.1555 1.38462 13.728 1.38462 9.49982ZM9 0.452148C4.02944 0.452148 0 4.50293 0 9.49982C0 14.4967 4.02944 18.5475 9 18.5475C13.9706 18.5475 18 14.4967 18 9.49982C18 4.50293 13.9706 0.452148 9 0.452148ZM9.0009 4.62793C8.61855 4.62793 8.30859 4.93953 8.30859 5.3239C8.30859 5.70828 8.61855 6.01988 9.0009 6.01988H9.00921C9.39156 6.01988 9.70152 5.70828 9.70152 5.3239C9.70152 4.93953 9.39156 4.62793 9.00921 4.62793H9.0009ZM6.64453 8.66375C6.64453 8.27937 6.95449 7.96777 7.33684 7.96777H8.99838C9.38073 7.96777 9.69069 8.27937 9.69069 8.66375V12.1475H10.6599C11.0423 12.1475 11.3522 12.4591 11.3522 12.8434C11.3522 13.2278 11.0423 13.5394 10.6599 13.5394H7.33684C6.95449 13.5394 6.64453 13.2278 6.64453 12.8434C6.64453 12.4591 6.95449 12.1475 7.33684 12.1475H8.30607V9.35972H7.33684C6.95449 9.35972 6.64453 9.04812 6.64453 8.66375Z" fill="#C4C4C4"/>
</svg>
