<svg width="766" height="169" viewBox="0 0 766 169" fill="none" xmlns="http://www.w3.org/2000/svg">
<path d="M237.36 99.64H44.64C25.44 99.64 9.84 84.28 9.84 65.08V0.759992H0V65.08C0 89.56 19.92 109.48 44.64 109.48H237.36V169H247.2V0.759992H237.36V99.64ZM461.492 0.759992H303.332C278.852 0.759992 259.172 20.68 259.172 45.4V124.36C259.172 149.08 278.852 169 303.332 169H461.492C485.972 169 505.892 149.08 506.132 124.36V45.4C505.892 20.68 485.972 0.759992 461.492 0.759992ZM496.052 124.36C496.052 143.56 480.692 158.92 461.492 159.16H303.332C284.372 158.92 268.772 143.56 268.772 124.36V45.4C268.772 26.2 284.372 10.6 303.332 10.6H461.492C480.692 10.6 496.052 26.2 496.052 45.4V124.36ZM755.469 99.64H562.749C543.549 99.64 527.949 84.28 527.949 65.08V0.759992H518.109V65.08C518.109 89.56 538.029 109.48 562.749 109.48H755.469V169H765.309V0.759992H755.469V99.64Z" fill="url(#paint0_linear)"/>
<defs>
<linearGradient id="paint0_linear" x1="394.904" y1="229.049" x2="394.904" y2="-10.9756" gradientUnits="userSpaceOnUse">
<stop stop-color="#FFBF00"/>
<stop offset="1" stop-color="#E843C4"/>
</linearGradient>
</defs>
</svg>
