<svg width="1440" height="236" viewBox="0 0 1440 236" fill="none" xmlns="http://www.w3.org/2000/svg">
<g filter="url(#filter0_f_5582_16560)">
<path d="M-76.0312 222.768C217.843 222.768 270.236 89.3877 546.437 89.3882C743.501 89.3885 841.865 180.469 1117.86 179.854C1417.2 179.188 1413.72 126.503 1528 126.502" stroke="url(#paint0_linear_5582_16560)" stroke-width="2"/>
</g>
<path d="M-76.0312 222.768C217.843 222.768 270.236 89.3877 546.437 89.3882C743.501 89.3885 841.865 180.469 1117.86 179.854C1417.2 179.188 1413.72 126.503 1528 126.502" stroke="url(#paint1_linear_5582_16560)" stroke-width="2"/>
<g filter="url(#filter1_f_5582_16560)">
<path d="M1493.2 13.9999C1199.44 13.9999 1147.06 214.649 870.961 214.649C673.968 214.648 528.667 47.9711 252.777 48.8954C-46.4571 49.8979 -0.0642599 154.453 -114.307 154.454" stroke="url(#paint2_linear_5582_16560)" stroke-width="2"/>
</g>
<path d="M1493.2 13.9999C1199.44 13.9999 1147.06 214.649 870.961 214.649C673.968 214.648 528.667 47.9711 252.777 48.8954C-46.4571 49.8979 -0.0642599 154.453 -114.307 154.454" stroke="url(#paint3_linear_5582_16560)" stroke-width="2"/>
<defs>
<filter id="filter0_f_5582_16560" x="-88.0977" y="76.3217" width="1628.16" height="159.512" filterUnits="userSpaceOnUse" color-interpolation-filters="sRGB">
<feFlood flood-opacity="0" result="BackgroundImageFix"/>
<feBlend mode="normal" in="SourceGraphic" in2="BackgroundImageFix" result="shape"/>
<feGaussianBlur stdDeviation="6.03324" result="effect1_foregroundBlur_5582_16560"/>
</filter>
<filter id="filter1_f_5582_16560" x="-126.373" y="0.933519" width="1631.64" height="226.781" filterUnits="userSpaceOnUse" color-interpolation-filters="sRGB">
<feFlood flood-opacity="0" result="BackgroundImageFix"/>
<feBlend mode="normal" in="SourceGraphic" in2="BackgroundImageFix" result="shape"/>
<feGaussianBlur stdDeviation="6.03324" result="effect1_foregroundBlur_5582_16560"/>
</filter>
<linearGradient id="paint0_linear_5582_16560" x1="725.79" y1="222.795" x2="725.79" y2="89.4017" gradientUnits="userSpaceOnUse">
<stop stop-color="#FFBF00"/>
<stop offset="1" stop-color="#E843C4"/>
</linearGradient>
<linearGradient id="paint1_linear_5582_16560" x1="725.79" y1="222.795" x2="725.79" y2="89.4017" gradientUnits="userSpaceOnUse">
<stop stop-color="#FFBF00"/>
<stop offset="1" stop-color="#E843C4"/>
</linearGradient>
<linearGradient id="paint2_linear_5582_16560" x1="689.644" y1="13.9593" x2="689.644" y2="214.628" gradientUnits="userSpaceOnUse">
<stop stop-color="#FFBF00"/>
<stop offset="1" stop-color="#E843C4"/>
</linearGradient>
<linearGradient id="paint3_linear_5582_16560" x1="689.644" y1="13.9593" x2="689.644" y2="214.628" gradientUnits="userSpaceOnUse">
<stop stop-color="#FFBF00"/>
<stop offset="1" stop-color="#E843C4"/>
</linearGradient>
</defs>
</svg>
