<svg width="18" height="18" viewBox="0 0 18 18" fill="none" xmlns="http://www.w3.org/2000/svg">
<path d="M0.25 12.9449C0.25 12.6134 0.381696 12.2956 0.616116 12.0612C0.850537 11.8269 1.16848 11.6952 1.5 11.6952H4C4.33152 11.6952 4.64946 11.8269 4.88388 12.0612C5.1183 12.2956 5.25 12.6134 5.25 12.9449V16.6937C5.25 17.0251 5.1183 17.3429 4.88388 17.5773C4.64946 17.8116 4.33152 17.9433 4 17.9433H1.5C1.16848 17.9433 0.850537 17.8116 0.616116 17.5773C0.381696 17.3429 0.25 17.0251 0.25 16.6937V12.9449ZM6.5 7.9464C6.5 7.61499 6.6317 7.29714 6.86612 7.06279C7.10054 6.82845 7.41848 6.69679 7.75 6.69679H10.25C10.5815 6.69679 10.8995 6.82845 11.1339 7.06279C11.3683 7.29714 11.5 7.61499 11.5 7.9464V16.6937C11.5 17.0251 11.3683 17.3429 11.1339 17.5773C10.8995 17.8116 10.5815 17.9433 10.25 17.9433H7.75C7.41848 17.9433 7.10054 17.8116 6.86612 17.5773C6.6317 17.3429 6.5 17.0251 6.5 16.6937V7.9464ZM12.75 1.69834C12.75 1.36692 12.8817 1.04908 13.1161 0.814733C13.3505 0.580386 13.6685 0.44873 14 0.44873H16.5C16.8315 0.44873 17.1495 0.580386 17.3839 0.814733C17.6183 1.04908 17.75 1.36692 17.75 1.69834V16.6937C17.75 17.0251 17.6183 17.3429 17.3839 17.5773C17.1495 17.8116 16.8315 17.9433 16.5 17.9433H14C13.6685 17.9433 13.3505 17.8116 13.1161 17.5773C12.8817 17.3429 12.75 17.0251 12.75 16.6937V1.69834Z" fill="url(#paint0_linear_5582_16288)"/>
<defs>
<linearGradient id="paint0_linear_5582_16288" x1="9" y1="0.44873" x2="9" y2="17.9433" gradientUnits="userSpaceOnUse">
<stop stop-color="#FFBF00"/>
<stop offset="1" stop-color="#E843C4"/>
</linearGradient>
</defs>
</svg>
