<svg width="17" height="20" viewBox="0 0 17 20" fill="none" xmlns="http://www.w3.org/2000/svg">
<path d="M9.03882 11.7891L14.1889 17.0178C14.5981 17.4332 15.2277 17.4002 15.5383 16.9052C16.4947 15.375 17.0016 13.601 17 11.7902C17.0017 9.61612 16.2719 7.50631 14.9307 5.80833L9.03882 11.7891ZM6.29591 12.2311V4.41777C4.54655 4.67518 2.94732 5.56195 1.7911 6.91568C0.63487 8.26942 -0.00097554 9.99951 1.12345e-06 11.7891C1.12345e-06 15.9066 3.28856 19.2465 7.34522 19.2465C8.93051 19.2466 10.4726 18.7233 11.7377 17.7561L6.29591 12.2311ZM13.9885 3.53818C14.3977 3.12282 14.3715 2.47693 13.8951 2.14337C12.5566 1.20477 11.0359 0.565592 9.43441 0.268391C8.86359 0.16216 8.39454 0.599831 8.39454 1.18729V9.21835L13.9885 3.53818Z" fill="url(#paint0_linear_5582_16175)"/>
<defs>
<linearGradient id="paint0_linear_5582_16175" x1="8.5" y1="0.252441" x2="8.5" y2="19.2465" gradientUnits="userSpaceOnUse">
<stop stop-color="#FFBF00"/>
<stop offset="1" stop-color="#E843C4"/>
</linearGradient>
</defs>
</svg>
