<svg width="17" height="18" viewBox="0 0 17 18" fill="none" xmlns="http://www.w3.org/2000/svg">
<path fill-rule="evenodd" clip-rule="evenodd" d="M10 0.833333C10 0.373096 10.3731 0 10.8333 0L15.8333 0C16.2936 0 16.6667 0.373096 16.6667 0.833333V5.83333C16.6667 6.29357 16.2936 6.66667 15.8333 6.66667C15.3731 6.66667 15 6.29357 15 5.83333V3.01184L6.42259 11.5893C6.09715 11.9147 5.56951 11.9147 5.24408 11.5893C4.91864 11.2638 4.91864 10.7362 5.24408 10.4107L13.9882 1.66667L10.8333 1.66667C10.3731 1.66667 10 1.29357 10 0.833333ZM2.5 4.66667C2.27899 4.66667 2.06702 4.75446 1.91074 4.91074C1.75446 5.06702 1.66667 5.27899 1.66667 5.5L1.66667 14.6667C1.66667 14.8877 1.75446 15.0996 1.91074 15.2559C2.06702 15.4122 2.27899 15.5 2.5 15.5H11.6667C11.8877 15.5 12.0996 15.4122 12.2559 15.2559C12.4122 15.0996 12.5 14.8877 12.5 14.6667V9.66667C12.5 9.20643 12.8731 8.83333 13.3333 8.83333C13.7936 8.83333 14.1667 9.20643 14.1667 9.66667V14.6667C14.1667 15.3297 13.9033 15.9656 13.4344 16.4344C12.9656 16.9033 12.3297 17.1667 11.6667 17.1667H2.5C1.83696 17.1667 1.20107 16.9033 0.732233 16.4344C0.263392 15.9656 0 15.3297 0 14.6667L0 5.5C0 4.83696 0.263392 4.20107 0.732233 3.73223C1.20107 3.26339 1.83696 3 2.5 3H7.5C7.96024 3 8.33333 3.3731 8.33333 3.83333C8.33333 4.29357 7.96024 4.66667 7.5 4.66667H2.5Z" fill="url(#paint0_linear_5582_16480)"/>
<defs>
<linearGradient id="paint0_linear_5582_16480" x1="10.4167" y1="1" x2="10.4167" y2="11.8333" gradientUnits="userSpaceOnUse">
<stop stop-color="#FFBF00"/>
<stop offset="1" stop-color="#E843C4"/>
</linearGradient>
</defs>
</svg>
