<svg width="24" height="25" viewBox="0 0 24 25" fill="none" xmlns="http://www.w3.org/2000/svg">
<path d="M17.8289 2.09773C17.8289 1.7997 17.9498 1.51387 18.1649 1.30313C18.3801 1.09239 18.6719 0.973999 18.9762 0.973999H22.8004C23.1047 0.973999 23.3965 1.09239 23.6116 1.30313C23.8268 1.51387 23.9477 1.7997 23.9477 2.09773V5.8435C23.9477 6.14153 23.8268 6.42735 23.6116 6.63809C23.3965 6.84883 23.1047 6.96723 22.8004 6.96723C22.4961 6.96723 22.2043 6.84883 21.9892 6.63809C21.774 6.42735 21.6531 6.14153 21.6531 5.8435V4.80966L14.8154 11.5071C14.6003 11.7175 14.3087 11.8357 14.0047 11.8357C13.7006 11.8357 13.409 11.7175 13.1939 11.5071L9.41557 7.80628L2.96026 14.1291C2.85523 14.2395 2.72857 14.3281 2.58784 14.3895C2.44711 14.4509 2.29519 14.484 2.14114 14.4866C1.9871 14.4893 1.83408 14.4615 1.69123 14.405C1.54837 14.3485 1.4186 14.2644 1.30966 14.1577C1.20072 14.0509 1.11483 13.9238 1.05713 13.7839C0.99943 13.644 0.971093 13.4941 0.973811 13.3432C0.976529 13.1924 1.01025 13.0435 1.07295 12.9057C1.13566 12.7679 1.22607 12.6438 1.33878 12.5409L8.60483 5.42397C8.81995 5.21353 9.11154 5.09533 9.41557 5.09533C9.7196 5.09533 10.0112 5.21353 10.2263 5.42397L14.0047 9.12479L20.0316 3.22146H18.9762C18.6719 3.22146 18.3801 3.10307 18.1649 2.89233C17.9498 2.68159 17.8289 2.39576 17.8289 2.09773ZM2.14952 18.9537C2.4538 18.9537 2.74561 19.0721 2.96076 19.2828C3.17592 19.4936 3.29679 19.7794 3.29679 20.0774V23.8232C3.29679 24.1212 3.17592 24.407 2.96076 24.6178C2.74561 24.8285 2.4538 24.9469 2.14952 24.9469C1.84525 24.9469 1.55343 24.8285 1.33828 24.6178C1.12312 24.407 1.00225 24.1212 1.00225 23.8232V20.0774C1.00225 19.7794 1.12312 19.4936 1.33828 19.2828C1.55343 19.0721 1.84525 18.9537 2.14952 18.9537ZM9.41557 15.5825C9.41557 15.2845 9.2947 14.9986 9.07954 14.7879C8.86439 14.5772 8.57257 14.4588 8.2683 14.4588C7.96402 14.4588 7.67221 14.5772 7.45706 14.7879C7.2419 14.9986 7.12103 15.2845 7.12103 15.5825V23.8232C7.12103 24.1212 7.2419 24.407 7.45706 24.6178C7.67221 24.8285 7.96402 24.9469 8.2683 24.9469C8.57257 24.9469 8.86439 24.8285 9.07954 24.6178C9.2947 24.407 9.41557 24.1212 9.41557 23.8232V15.5825ZM14.3871 17.4554C14.6914 17.4554 14.9832 17.5738 15.1983 17.7845C15.4135 17.9952 15.5343 18.2811 15.5343 18.5791V23.8232C15.5343 24.1212 15.4135 24.407 15.1983 24.6178C14.9832 24.8285 14.6914 24.9469 14.3871 24.9469C14.0828 24.9469 13.791 24.8285 13.5758 24.6178C13.3607 24.407 13.2398 24.1212 13.2398 23.8232V18.5791C13.2398 18.2811 13.3607 17.9952 13.5758 17.7845C13.791 17.5738 14.0828 17.4554 14.3871 17.4554ZM21.6531 12.5859C21.6531 12.2878 21.5323 12.002 21.3171 11.7913C21.1019 11.5805 20.8101 11.4621 20.5059 11.4621C20.2016 11.4621 19.9098 11.5805 19.6946 11.7913C19.4795 12.002 19.3586 12.2878 19.3586 12.5859V23.8232C19.3586 24.1212 19.4795 24.407 19.6946 24.6178C19.9098 24.8285 20.2016 24.9469 20.5059 24.9469C20.8101 24.9469 21.1019 24.8285 21.3171 24.6178C21.5323 24.407 21.6531 24.1212 21.6531 23.8232V12.5859Z" fill="url(#paint0_linear_5582_16095)"/>
<defs>
<linearGradient id="paint0_linear_5582_16095" x1="12.4606" y1="0.973999" x2="12.4606" y2="24.9469" gradientUnits="userSpaceOnUse">
<stop stop-color="#FFBF00"/>
<stop offset="1" stop-color="#E843C4"/>
</linearGradient>
</defs>
</svg>
