<svg width="96" height="97" viewBox="0 0 96 97" fill="none" xmlns="http://www.w3.org/2000/svg">
<circle cx="48" cy="48.0303" r="48" fill="#211426"/>
<path fill-rule="evenodd" clip-rule="evenodd" d="M25.4922 66.2759H30.8891C31.3429 66.2759 31.7947 66.2778 32.245 66.2798C33.5904 66.2855 34.9229 66.2912 36.2554 66.2453C38.9232 66.2146 41.0084 65.0493 42.327 62.7495C45.3627 57.5672 48.3679 52.4156 51.3116 47.172C52.0016 45.9454 52.7068 44.7342 53.4121 43.523C54.1174 42.3117 54.8227 41.1005 55.5127 39.8739C56.8926 37.4514 56.8926 34.9676 55.5433 32.5144C55.0527 31.6404 54.5544 30.7741 54.056 29.9078C53.5578 29.0416 53.0595 28.1754 52.5689 27.3015C52.4789 27.1415 52.3881 26.9816 52.2972 26.8214C51.8302 25.9987 51.3593 25.169 50.9743 24.2964C50.637 23.4991 50.2384 22.7325 49.6864 22.0579C48.6132 20.7393 47.1413 20.7086 46.068 22.0272C45.884 22.2725 45.7001 22.5485 45.5467 22.8245C43.3306 26.6721 41.1446 30.5318 38.9593 34.3903C36.2159 39.2341 33.4737 44.0759 30.6745 48.8892C28.6631 52.3373 26.7078 55.8042 24.7501 59.2751C24.2008 60.249 23.6514 61.2233 23.1004 62.1976C22.8551 62.5962 22.6711 62.9948 22.5484 63.4241C22.2111 64.6814 22.7937 65.724 24.051 66.1226C24.511 66.2759 25.0016 66.2759 25.4922 66.2759ZM55.1753 66.276H62.6881C64.1293 66.276 65.5705 66.276 67.0424 66.2453C67.4279 66.2453 67.8134 66.2503 68.1989 66.2553C69.1627 66.2678 70.1264 66.2803 71.0901 66.2146C72.8993 66.1226 73.7579 64.7121 73.114 63.0255C72.9913 62.7496 72.8687 62.4736 72.7154 62.2283C70.2009 57.8126 67.6864 53.3969 65.1412 48.9812C63.976 46.9574 62.1975 46.6507 60.8176 48.368L60.8175 48.368C60.6642 48.5826 60.5109 48.7973 60.3576 49.0426C59.085 51.2198 57.8201 53.4047 56.5551 55.5895C55.2903 57.7743 54.0254 59.9591 52.7528 62.1363C52.5075 62.5349 52.3235 62.9335 52.2009 63.3628C51.8636 64.6507 52.4462 65.724 53.7341 66.1226C54.1941 66.276 54.6847 66.276 55.1753 66.276Z" fill="url(#paint0_linear_6456_12479)"/>
<defs>
<linearGradient id="paint0_linear_6456_12479" x1="47.8842" y1="66.2928" x2="47.8842" y2="21.0581" gradientUnits="userSpaceOnUse">
<stop stop-color="#FFBF00"/>
<stop offset="1" stop-color="#E843C4"/>
</linearGradient>
</defs>
</svg>
