<svg width="139" height="28" viewBox="0 0 139 28" fill="none" xmlns="http://www.w3.org/2000/svg">
<g clip-path="url(#clip0_8235_27644)">
<path d="M37.3877 9.11865H38.8904L43.095 18.8791H41.1099L40.2 16.6457H35.9677L35.0854 18.8791H33.1416L37.3877 9.11865ZM39.5934 15.1569L38.0908 11.1865L36.5605 15.1569H39.5934Z" fill="#E84142"/>
<path d="M44.958 9.11865H46.957L49.6176 16.4941L52.3609 9.11865H54.2361L50.2932 18.8791H48.7906L44.958 9.11865Z" fill="#E84142"/>
<path d="M60.4441 9.11865H61.9471L66.1514 18.8791H64.1663L63.2567 16.6457H59.0242L58.1418 18.8791H56.1982L60.4441 9.11865ZM62.6499 15.1569L61.1474 11.1865L59.6171 15.1569H62.6499Z" fill="#E84142"/>
<path d="M69.9932 9.11865H71.7303V17.3075H75.8797V18.8791H69.9932V9.11865Z" fill="#E84142"/>
<path d="M83.0564 9.11865H84.5594L88.7637 18.8791H86.7786L85.869 16.6457H81.6365L80.7541 18.8791H78.8105L83.0564 9.11865ZM85.2622 15.1569L83.7597 11.1865L82.2294 15.1569H85.2622Z" fill="#E84142"/>
<path d="M92.6055 9.11865H94.9078L99.6362 16.37H99.6639V9.11865H101.401V18.8791H99.1952L94.3699 11.3933H94.3426V18.8791H92.6055V9.11865Z" fill="#E84142"/>
<path d="M113.034 11.4072C112.676 11.0212 112.327 10.7639 111.987 10.6352C111.655 10.5065 111.32 10.4422 110.98 10.4422C110.475 10.4422 110.015 10.5341 109.602 10.7179C109.197 10.8925 108.848 11.1407 108.554 11.4624C108.26 11.7748 108.03 12.1425 107.864 12.5652C107.708 12.988 107.63 13.4429 107.63 13.93C107.63 14.4539 107.708 14.9364 107.864 15.3775C108.03 15.8187 108.26 16.2001 108.554 16.5217C108.848 16.8434 109.197 17.0962 109.602 17.28C110.015 17.4638 110.475 17.5557 110.98 17.5557C111.375 17.5557 111.757 17.4638 112.125 17.28C112.501 17.087 112.85 16.7837 113.172 16.3701L114.606 17.3903C114.165 17.9968 113.627 18.438 112.993 18.7137C112.359 18.9894 111.683 19.1273 110.967 19.1273C110.213 19.1273 109.519 19.0078 108.885 18.7688C108.26 18.5207 107.717 18.1761 107.258 17.7349C106.808 17.2846 106.454 16.7469 106.197 16.122C105.939 15.497 105.811 14.8031 105.811 14.0403C105.811 13.2591 105.939 12.5514 106.197 11.9173C106.454 11.2739 106.808 10.7271 107.258 10.2768C107.717 9.82641 108.26 9.48176 108.885 9.24283C109.519 8.99468 110.213 8.87061 110.967 8.87061C111.628 8.87061 112.239 8.99009 112.8 9.22902C113.37 9.45878 113.898 9.85398 114.385 10.4146L113.034 11.4072Z" fill="#E84142"/>
<path d="M118.529 9.11865H120.266V13.0062H124.829V9.11865H126.566V18.8791H124.829V14.5778H120.266V18.8791H118.529V9.11865Z" fill="#E84142"/>
<path d="M131.505 9.11865H137.97V10.6902H133.242V13.089H137.722V14.6606H133.242V17.3075H138.219V18.8791H131.505V9.11865Z" fill="#E84142"/>
<path d="M13.9999 24.9706C20.0588 24.9706 24.9706 20.0588 24.9706 13.9999C24.9706 7.94102 20.0588 3.0293 13.9999 3.0293C7.94102 3.0293 3.0293 7.94102 3.0293 13.9999C3.0293 20.0588 7.94102 24.9706 13.9999 24.9706Z" fill="white"/>
<path fill-rule="evenodd" clip-rule="evenodd" d="M28 14C28 21.732 21.732 28 14 28C6.26802 28 0 21.732 0 14C0 6.26802 6.26802 0 14 0C21.732 0 28 6.26802 28 14ZM10.0328 19.571H7.31583C6.74493 19.571 6.46289 19.571 6.29091 19.461C6.10521 19.3406 5.9917 19.1411 5.97793 18.921C5.96763 18.7181 6.10863 18.4704 6.39066 17.9752L13.0993 6.15031C13.3847 5.64817 13.5292 5.39712 13.7115 5.30425C13.9075 5.20454 14.1414 5.20454 14.3374 5.30425C14.5197 5.39712 14.6642 5.64817 14.9496 6.15031L16.3288 8.55779L16.3358 8.57008C16.6441 9.10878 16.8005 9.38195 16.8687 9.66865C16.9444 9.98163 16.9444 10.3118 16.8687 10.6248C16.8 10.9137 16.6452 11.1888 16.3322 11.7357L12.8083 17.9649L12.7992 17.9808C12.4888 18.524 12.3316 18.7992 12.1136 19.007C11.8763 19.234 11.5908 19.399 11.2779 19.4919C10.9924 19.571 10.6725 19.571 10.0328 19.571ZM16.8942 19.5713H20.7874C21.3618 19.5713 21.6507 19.5713 21.8226 19.4578C22.0083 19.3374 22.1253 19.1345 22.1356 18.9144C22.1456 18.7182 22.0076 18.4801 21.7373 18.0137C21.728 17.9978 21.7187 17.9816 21.7091 17.9652L19.7591 14.6291L19.7369 14.5916C19.4629 14.1281 19.3245 13.8941 19.1469 13.8037C18.9508 13.7039 18.7204 13.7039 18.5244 13.8037C18.3455 13.8965 18.2011 14.1407 17.9156 14.6325L15.9725 17.9686L15.9658 17.9801C15.6813 18.4711 15.5392 18.7165 15.5494 18.9179C15.5632 19.138 15.6767 19.3409 15.8624 19.4613C16.0309 19.5713 16.3198 19.5713 16.8942 19.5713Z" fill="#E84142"/>
</g>
<defs>
<clipPath id="clip0_8235_27644">
<rect width="138.226" height="28" fill="white"/>
</clipPath>
</defs>
</svg>
