<svg width="48" height="48" viewBox="0 0 48 48" fill="none" xmlns="http://www.w3.org/2000/svg">
<circle cx="24" cy="24" r="24" fill="#211426"/>
<path fill-rule="evenodd" clip-rule="evenodd" d="M12.7456 33.1229H15.4441C15.671 33.1229 15.8969 33.1239 16.122 33.1249C16.7947 33.1277 17.461 33.1306 18.1272 33.1076C19.4611 33.0923 20.5037 32.5097 21.163 31.3597C22.6809 28.7686 24.1834 26.1928 25.6553 23.571C26.0003 22.9577 26.3529 22.3521 26.7056 21.7465C27.0582 21.1408 27.4109 20.5352 27.7558 19.9219C28.4458 18.7107 28.4458 17.4688 27.7712 16.2422C27.5258 15.8052 27.2767 15.3721 27.0275 14.9389C26.7784 14.5058 26.5293 14.0727 26.2839 13.6357C26.239 13.5557 26.1936 13.4758 26.1481 13.3957C25.9146 12.9843 25.6792 12.5695 25.4867 12.1332C25.318 11.7345 25.1187 11.3512 24.8427 11.0139C24.3061 10.3546 23.5701 10.3393 23.0335 10.9986C22.9415 11.1212 22.8495 11.2592 22.7729 11.3972C21.6648 13.321 20.5718 15.2509 19.4792 17.1801C18.1075 19.602 16.7364 22.0229 15.3368 24.4296C14.331 26.1537 13.3534 27.8872 12.3745 29.6227C12.0999 30.1096 11.8252 30.5967 11.5497 31.0838C11.427 31.2831 11.3351 31.4824 11.2737 31.6971C11.1051 32.3257 11.3964 32.847 12.025 33.0463C12.255 33.1229 12.5003 33.1229 12.7456 33.1229ZM27.5874 33.123H31.3438C32.0644 33.123 32.7851 33.123 33.521 33.1077C33.7137 33.1077 33.9065 33.1102 34.0992 33.1127C34.5811 33.1189 35.063 33.1252 35.5448 33.0923C36.4494 33.0463 36.8787 32.3411 36.5568 31.4978C36.4954 31.3598 36.4341 31.2218 36.3575 31.0992C35.1002 28.8913 33.843 26.6835 32.5704 24.4756C31.9878 23.4637 31.0985 23.3104 30.4086 24.169C30.3319 24.2763 30.2552 24.3837 30.1786 24.5063C29.5423 25.5949 28.9099 26.6873 28.2774 27.7797C27.645 28.8721 27.0125 29.9645 26.3762 31.0532C26.2535 31.2525 26.1615 31.4518 26.1002 31.6664C25.9316 32.3104 26.2229 32.847 26.8668 33.0463C27.0968 33.123 27.3421 33.123 27.5874 33.123Z" fill="url(#paint0_linear_6381_11729)"/>
<defs>
<linearGradient id="paint0_linear_6381_11729" x1="23.9418" y1="33.1314" x2="23.9418" y2="10.514" gradientUnits="userSpaceOnUse">
<stop stop-color="#FFBF00"/>
<stop offset="1" stop-color="#E843C4"/>
</linearGradient>
</defs>
</svg>
