<svg width="151" height="100" viewBox="0 0 151 100" fill="none" xmlns="http://www.w3.org/2000/svg">
<path fill-rule="evenodd" clip-rule="evenodd" d="M-6.46884e-06 100H64.5796C71.9608 87.3442 79.272 74.6869 86.4717 61.8624C88.7427 57.8251 91.0641 53.8383 93.3856 49.8514L93.386 49.8508C95.7075 45.8638 98.029 41.8768 100.3 37.8394C104.842 29.8654 104.842 21.6895 100.401 13.6145C98.7861 10.738 97.146 7.88667 95.5058 5.03536L95.5057 5.03512L95.5056 5.03488C94.5412 3.3583 93.5768 1.68171 92.6175 0L57.0369 0C53.2858 6.59306 49.5489 13.1911 45.8127 19.788L45.8121 19.7891C36.7817 35.7335 27.7553 51.6711 18.5411 67.5149C12.249 78.3014 6.12362 89.1435 -6.46884e-06 100ZM150.419 100C144.306 89.2726 138.177 78.5452 131.994 67.8178C128.159 61.156 122.304 60.1466 117.762 65.7991C117.257 66.5056 116.753 67.2122 116.248 68.0197C112.059 75.1862 107.895 82.378 103.732 89.5697C101.718 93.0474 99.705 96.5252 97.6888 100H150.419Z" fill="url(#paint0_linear_6456_12455)"/>
<defs>
<linearGradient id="paint0_linear_6456_12455" x1="136.371" y1="9.99999" x2="-46.792" y2="82.9051" gradientUnits="userSpaceOnUse">
<stop stop-opacity="0.5"/>
<stop offset="1" stop-opacity="0"/>
</linearGradient>
</defs>
</svg>
