<svg width="163" height="90" viewBox="0 0 163 90" fill="none" xmlns="http://www.w3.org/2000/svg">
<mask id="path-1-inside-1_1394_30808" fill="white">
<path fill-rule="evenodd" clip-rule="evenodd" d="M106.554 90H55.2772C51.5554 82.9398 48.0344 76.8672 47.0324 75.8398C45.0049 73.7604 44.5909 73.699 29.3824 73.2518C14.5043 72.8131 13.638 72.6921 9.97661 70.5462C7.37158 69.0205 5.41737 66.9666 3.87803 64.1384C1.19036 59.2009 -0.60795 49.4265 0.19111 44.0997C0.860685 39.6333 4.97184 30.7645 9.89228 23.17C14.7148 15.728 15.3238 9.76741 12.1165 1.4105C11.7587 0.476847 12.0399 0.0227953 12.9752 0.0227953C15.2557 0.0227953 21.9651 7.43157 24.2967 12.5249C26.785 17.9599 26.6794 21.7831 23.7106 33.6719C22.7752 37.4202 22.0043 41.9249 21.9991 43.6815L21.9889 46.876H42.9161C54.4258 46.876 64.4882 47.2253 65.2779 47.6521C66.0667 48.0788 69.7698 54.5957 73.5061 62.1339C77.2425 69.6722 80.512 75.8398 80.7718 75.8398C81.0308 75.8398 83.9152 70.4082 87.1822 63.7704C90.4483 57.1326 94.0176 50.6157 95.1131 49.2885L97.1057 46.876H118.353C136.784 46.876 139.669 46.7005 140.109 45.5522C140.389 44.8238 139.607 39.9358 138.371 34.6908C134.519 18.3322 135.567 11.9422 143.426 3.85624C148.2 -1.05568 150.26 -1.28228 149.226 3.21733C148.823 4.97475 148.502 8.91383 148.514 11.9721C148.534 17.1651 148.802 17.9343 152.567 23.5976C157.538 31.0737 160.608 37.6672 161.605 43.0042C163.29 52.0222 159.401 66.056 154.19 69.7591C150.267 72.5473 145.549 73.2748 131.341 73.279L117.598 73.2842L114.525 76.6857C113.16 78.1961 109.869 83.7321 106.554 90Z"/>
</mask>
<path fill-rule="evenodd" clip-rule="evenodd" d="M106.554 90H55.2772C51.5554 82.9398 48.0344 76.8672 47.0324 75.8398C45.0049 73.7604 44.5909 73.699 29.3824 73.2518C14.5043 72.8131 13.638 72.6921 9.97661 70.5462C7.37158 69.0205 5.41737 66.9666 3.87803 64.1384C1.19036 59.2009 -0.60795 49.4265 0.19111 44.0997C0.860685 39.6333 4.97184 30.7645 9.89228 23.17C14.7148 15.728 15.3238 9.76741 12.1165 1.4105C11.7587 0.476847 12.0399 0.0227953 12.9752 0.0227953C15.2557 0.0227953 21.9651 7.43157 24.2967 12.5249C26.785 17.9599 26.6794 21.7831 23.7106 33.6719C22.7752 37.4202 22.0043 41.9249 21.9991 43.6815L21.9889 46.876H42.9161C54.4258 46.876 64.4882 47.2253 65.2779 47.6521C66.0667 48.0788 69.7698 54.5957 73.5061 62.1339C77.2425 69.6722 80.512 75.8398 80.7718 75.8398C81.0308 75.8398 83.9152 70.4082 87.1822 63.7704C90.4483 57.1326 94.0176 50.6157 95.1131 49.2885L97.1057 46.876H118.353C136.784 46.876 139.669 46.7005 140.109 45.5522C140.389 44.8238 139.607 39.9358 138.371 34.6908C134.519 18.3322 135.567 11.9422 143.426 3.85624C148.2 -1.05568 150.26 -1.28228 149.226 3.21733C148.823 4.97475 148.502 8.91383 148.514 11.9721C148.534 17.1651 148.802 17.9343 152.567 23.5976C157.538 31.0737 160.608 37.6672 161.605 43.0042C163.29 52.0222 159.401 66.056 154.19 69.7591C150.267 72.5473 145.549 73.2748 131.341 73.279L117.598 73.2842L114.525 76.6857C113.16 78.1961 109.869 83.7321 106.554 90Z" fill="url(#paint0_linear_1394_30808)"/>
<path d="M106.554 90V91H107.156L107.438 90.4676L106.554 90ZM55.2772 90L54.3925 90.4663L54.6739 91H55.2772V90ZM47.0324 75.8398L46.3164 76.5379L46.3165 76.538L47.0324 75.8398ZM29.3824 73.2518L29.3529 74.2514H29.353L29.3824 73.2518ZM9.97661 70.5462L10.4823 69.6835L10.482 69.6833L9.97661 70.5462ZM3.87803 64.1384L4.75636 63.6604L4.75634 63.6603L3.87803 64.1384ZM0.19111 44.0997L1.18005 44.2481L1.18006 44.248L0.19111 44.0997ZM9.89228 23.17L9.05307 22.6262L9.05303 22.6262L9.89228 23.17ZM12.1165 1.4105L11.1827 1.76834L11.1829 1.76881L12.1165 1.4105ZM24.2967 12.5249L23.3874 12.9412L23.3874 12.9412L24.2967 12.5249ZM23.7106 33.6719L22.7404 33.4296L22.7403 33.4298L23.7106 33.6719ZM21.9991 43.6815L22.9991 43.6847L22.9991 43.6844L21.9991 43.6815ZM21.9889 46.876L20.9889 46.8728L20.9857 47.876H21.9889V46.876ZM65.2779 47.6521L65.7537 46.7725L65.7533 46.7723L65.2779 47.6521ZM73.5061 62.1339L74.4021 61.6898L73.5061 62.1339ZM87.1822 63.7704L88.0794 64.212L88.0794 64.2119L87.1822 63.7704ZM95.1131 49.2885L94.3421 48.6517L94.3419 48.6519L95.1131 49.2885ZM97.1057 46.876V45.876H96.6346L96.3346 46.2392L97.1057 46.876ZM140.109 45.5522L139.176 45.194L139.176 45.1941L140.109 45.5522ZM138.371 34.6908L137.398 34.92V34.92L138.371 34.6908ZM143.426 3.85624L142.708 3.15928L142.708 3.15929L143.426 3.85624ZM149.226 3.21733L148.251 2.99333L148.251 2.99386L149.226 3.21733ZM148.514 11.9721L147.514 11.976L147.514 11.976L148.514 11.9721ZM152.567 23.5976L151.734 24.1513L151.734 24.1513L152.567 23.5976ZM161.605 43.0042L162.589 42.8206L162.588 42.8205L161.605 43.0042ZM154.19 69.7591L153.611 68.944L153.611 68.944L154.19 69.7591ZM131.341 73.279L131.341 72.279H131.341L131.341 73.279ZM117.598 73.2842L117.597 72.2842L117.153 72.2843L116.855 72.6138L117.598 73.2842ZM114.525 76.6857L115.267 77.3561L115.267 77.356L114.525 76.6857ZM106.554 89H55.2772V91H106.554V89ZM46.3165 76.538C46.4848 76.7106 46.8409 77.1959 47.3785 78.0332C47.8967 78.8402 48.5389 79.9024 49.2704 81.1603C50.7326 83.6747 52.5365 86.9453 54.3925 90.4663L56.1618 89.5337C54.2961 85.9945 52.4786 82.6987 50.9994 80.1549C50.2601 78.8837 49.6016 77.7938 49.0615 76.9526C48.5408 76.1417 48.081 75.4827 47.7483 75.1416L46.3165 76.538ZM29.353 74.2514C36.9943 74.4761 40.8209 74.6028 43.0052 74.9231C44.0775 75.0804 44.6646 75.2737 45.0805 75.4997C45.4963 75.7257 45.8107 76.0192 46.3164 76.5379L47.7484 75.1417C47.2403 74.6206 46.7427 74.1267 46.0354 73.7424C45.3281 73.358 44.481 73.1182 43.2954 72.9443C40.9637 72.6023 36.979 72.4748 29.4118 72.2522L29.353 74.2514ZM9.47097 71.409C11.3711 72.5226 12.6294 73.1523 15.3351 73.5296C17.9372 73.8924 21.942 74.0328 29.3529 74.2514L29.4118 72.2522C21.9447 72.032 18.0773 71.8926 15.6113 71.5488C13.2491 71.2194 12.2435 70.7157 10.4823 69.6835L9.47097 71.409ZM2.9997 64.6165C4.61994 67.5933 6.69853 69.7852 9.47124 71.4091L10.482 69.6833C8.04462 68.2558 6.21481 66.34 4.75636 63.6604L2.9997 64.6165ZM-0.797825 43.9514C-1.22078 46.7709 -0.951214 50.6698 -0.256444 54.446C0.438914 58.2254 1.58533 62.0182 2.99973 64.6165L4.75634 63.6603C3.48307 61.3212 2.38649 57.758 1.71054 54.0841C1.034 50.407 0.803938 46.7553 1.18005 44.2481L-0.797825 43.9514ZM9.05303 22.6262C6.56743 26.4626 4.28677 30.6196 2.54035 34.3873C0.805144 38.1309 -0.44101 41.5713 -0.797839 43.9515L1.18006 44.248C1.49281 42.1618 2.63702 38.9346 4.35489 35.2284C6.06156 31.5465 8.29669 27.4718 10.7315 23.7137L9.05303 22.6262ZM11.1829 1.76881C12.7507 5.85365 13.3541 9.27057 13.0208 12.5316C12.6875 15.7919 11.4083 18.9916 9.05307 22.6262L10.7315 23.7138C13.1987 19.9063 14.6353 16.4048 15.0104 12.735C15.3854 9.06608 14.6897 5.32426 13.0501 1.05219L11.1829 1.76881ZM12.9752 -0.977205C12.4187 -0.977205 11.6388 -0.851587 11.2106 -0.159717C10.8057 0.494511 10.9823 1.24516 11.1827 1.76834L13.0503 1.05267C13.018 0.968221 12.997 0.90003 12.9841 0.846705C12.971 0.793041 12.9676 0.76054 12.9668 0.746121C12.966 0.731923 12.9682 0.742291 12.9622 0.770312C12.9559 0.800117 12.9413 0.844233 12.9113 0.892773C12.8809 0.941911 12.8438 0.980628 12.8083 1.00797C12.7744 1.03407 12.7502 1.04356 12.7475 1.04457C12.7455 1.04531 12.7611 1.03931 12.8011 1.03342C12.8407 1.02756 12.8977 1.0228 12.9752 1.0228V-0.977205ZM25.2059 12.1087C23.9821 9.43522 21.6503 6.22389 19.358 3.69261C18.2076 2.42221 17.0406 1.29359 15.9959 0.473426C15.4744 0.064027 14.9633 -0.284424 14.4843 -0.534987C14.0263 -0.774593 13.5003 -0.977205 12.9752 -0.977205V1.0228C13.0203 1.0228 13.2028 1.05171 13.5573 1.23716C13.8908 1.41167 14.2963 1.68182 14.7609 2.04657C15.6884 2.77472 16.7721 3.81663 17.8755 5.0351C20.091 7.48154 22.2796 10.5213 23.3874 12.9412L25.2059 12.1087ZM24.6808 33.9142C26.1649 27.971 26.9598 23.9478 27.0496 20.7059C27.1411 17.4056 26.5019 14.9394 25.2059 12.1087L23.3874 12.9412C24.5797 15.5454 25.1319 17.7083 25.0504 20.6506C24.9673 23.6512 24.225 27.484 22.7404 33.4296L24.6808 33.9142ZM22.9991 43.6844C23.0039 42.0582 23.7473 37.6547 24.6808 33.914L22.7403 33.4298C21.8031 37.1856 21.0046 41.7916 20.9991 43.6785L22.9991 43.6844ZM22.9889 46.8792L22.9991 43.6847L20.9992 43.6783L20.9889 46.8728L22.9889 46.8792ZM42.9161 45.876H21.9889V47.876H42.9161V45.876ZM65.7533 46.7723C65.5692 46.6728 65.362 46.6233 65.235 46.5957C65.0791 46.5619 64.8961 46.5322 64.6962 46.5052C64.2946 46.4509 63.7694 46.4006 63.1442 46.3536C61.8906 46.2593 60.1839 46.1751 58.1517 46.1046C54.0846 45.9634 48.6797 45.876 42.9161 45.876V47.876C48.6623 47.876 54.0434 47.9632 58.0823 48.1034C60.1031 48.1735 61.7795 48.2566 62.9943 48.3479C63.6033 48.3937 64.0837 48.4406 64.4285 48.4872C64.6018 48.5106 64.7272 48.5321 64.8111 48.5503C64.9239 48.5748 64.8878 48.5779 64.8024 48.5318L65.7533 46.7723ZM74.4021 61.6898C72.5275 57.9077 70.6588 54.3768 69.1561 51.7322C68.4058 50.4115 67.7404 49.3009 67.2075 48.487C66.942 48.0816 66.7001 47.7354 66.4904 47.4691C66.3858 47.3363 66.2795 47.2108 66.1744 47.1032C66.0823 47.0091 65.9374 46.8719 65.7537 46.7725L64.802 48.5316C64.7169 48.4855 64.6934 48.4493 64.7441 48.5012C64.7817 48.5396 64.8395 48.6053 64.919 48.7063C65.0773 48.9074 65.2833 49.1994 65.5343 49.5826C66.0343 50.3463 66.6762 51.416 67.4172 52.7202C68.8974 55.3253 70.7485 58.8219 72.6102 62.578L74.4021 61.6898ZM80.7718 74.8398C81.0018 74.8398 81.1672 74.9199 81.2341 74.9562C81.3116 74.9983 81.3644 75.0411 81.3885 75.0617C81.4158 75.0851 81.4342 75.104 81.4425 75.1128C81.4517 75.1225 81.4567 75.1285 81.457 75.1289C81.4572 75.1292 81.4497 75.12 81.4332 75.097C81.4174 75.0751 81.397 75.0456 81.3717 75.0075C81.2676 74.8504 81.1163 74.6015 80.9186 74.2587C80.526 73.5781 79.9827 72.5838 79.3262 71.3453C78.0147 68.8713 76.2675 65.4533 74.4021 61.6898L72.6102 62.578C74.4811 66.3528 76.2368 69.7877 77.5591 72.2821C78.2195 73.5278 78.7758 74.5466 79.1861 75.2579C79.3898 75.6111 79.5658 75.9029 79.7048 76.1126C79.772 76.214 79.8458 76.3195 79.9198 76.4084C79.9545 76.4501 80.0128 76.5169 80.0889 76.582C80.1269 76.6145 80.1922 76.6663 80.2807 76.7143C80.3587 76.7566 80.5337 76.8398 80.7718 76.8398V74.8398ZM86.285 63.3288C84.6546 66.6413 83.1216 69.6491 81.9658 71.8252C81.3871 72.9149 80.9075 73.7875 80.5597 74.3832C80.3842 74.6837 80.2514 74.898 80.1612 75.0303C80.1137 75.1 80.0942 75.123 80.0973 75.1195C80.0996 75.1168 80.1068 75.1087 80.1184 75.0971C80.1292 75.0863 80.1502 75.066 80.1805 75.0419C80.1841 75.0391 80.4101 74.8398 80.7718 74.8398V76.8398C81.1497 76.8398 81.397 76.6299 81.4268 76.6061C81.5074 76.5419 81.5682 76.4757 81.6038 76.4349C81.6793 76.3485 81.7514 76.2483 81.814 76.1565C81.9439 75.9659 82.1044 75.704 82.2868 75.3916C82.6548 74.7614 83.149 73.8613 83.7322 72.7633C84.9001 70.5642 86.4428 67.5373 88.0794 64.212L86.285 63.3288ZM94.3419 48.6519C93.7204 49.4049 92.5057 51.4627 91.0845 54.0576C89.6393 56.6965 87.9238 59.9982 86.2849 63.3289L88.0794 64.2119C89.7067 60.9048 91.4088 57.6292 92.8387 55.0183C94.2926 52.3636 95.4103 50.4993 95.8844 49.9251L94.3419 48.6519ZM96.3346 46.2392L94.3421 48.6517L95.8842 49.9253L97.8767 47.5128L96.3346 46.2392ZM118.353 45.876H97.1057V47.876H118.353V45.876ZM139.176 45.1941C139.23 45.0509 139.335 45.1403 138.84 45.2822C138.334 45.4276 137.451 45.5532 135.917 45.6466C132.874 45.8317 127.58 45.876 118.353 45.876V47.876C127.557 47.876 132.921 47.8325 136.038 47.6429C137.585 47.5488 138.658 47.4153 139.392 47.2047C140.137 46.9908 140.768 46.6276 141.043 45.9103L139.176 45.1941ZM137.398 34.92C138.011 37.5235 138.51 40.0327 138.821 41.9732C138.976 42.9453 139.082 43.7609 139.133 44.3681C139.158 44.673 139.168 44.9089 139.166 45.0777C139.163 45.2864 139.141 45.2838 139.176 45.194L141.043 45.9104C141.147 45.6385 141.162 45.3238 141.165 45.1053C141.169 44.8469 141.154 44.5404 141.126 44.2027C141.07 43.5246 140.955 42.6538 140.796 41.6572C140.476 39.6604 139.967 37.103 139.345 34.4615L137.398 34.92ZM142.708 3.15929C138.694 7.2899 136.327 11.0864 135.52 16.0095C134.723 20.8709 135.468 26.7235 137.398 34.92L139.345 34.4615C137.423 26.2995 136.765 20.7778 137.494 16.333C138.212 11.9501 140.299 8.50858 144.143 4.55319L142.708 3.15929ZM150.201 3.44133C150.464 2.29378 150.578 1.27463 150.402 0.505122C150.31 0.101258 150.115 -0.33332 149.718 -0.641912C149.308 -0.961726 148.827 -1.03412 148.394 -0.986532C147.612 -0.90036 146.751 -0.398563 145.888 0.253881C144.983 0.938434 143.92 1.91323 142.708 3.15928L144.143 4.5532C145.319 3.34328 146.303 2.44779 147.095 1.84899C147.929 1.21808 148.413 1.02347 148.613 1.00145C148.672 0.994949 148.592 1.01552 148.489 0.935878C148.402 0.867461 148.423 0.820274 148.453 0.951176C148.521 1.25119 148.505 1.89107 148.251 2.99333L150.201 3.44133ZM149.514 11.9682C149.502 8.94176 149.823 5.08999 150.201 3.4408L148.251 2.99386C147.824 4.85951 147.502 8.8859 147.514 11.976L149.514 11.9682ZM153.4 23.044C151.5 20.1862 150.571 18.6866 150.08 17.2793C149.602 15.907 149.524 14.5732 149.514 11.9681L147.514 11.976C147.524 14.564 147.59 16.2113 148.192 17.9377C148.781 19.6291 149.869 21.3458 151.734 24.1513L153.4 23.044ZM162.588 42.8205C161.555 37.2926 158.403 30.5683 153.4 23.044L151.734 24.1513C156.673 31.5791 159.661 38.0418 160.623 43.1879L162.588 42.8205ZM154.769 70.5742C156.248 69.5232 157.557 67.8026 158.663 65.7608C159.777 63.704 160.725 61.2478 161.447 58.6418C162.887 53.4478 163.467 47.5242 162.589 42.8206L160.622 43.1878C161.428 47.5022 160.906 53.1045 159.52 58.1076C158.829 60.6003 157.932 62.9105 156.904 64.8083C155.868 66.7211 154.737 68.1435 153.611 68.944L154.769 70.5742ZM131.341 74.279C145.486 74.2748 150.543 73.5778 154.769 70.5742L153.611 68.944C149.991 71.5168 145.613 72.2748 131.341 72.279L131.341 74.279ZM117.598 74.2842L131.341 74.279L131.341 72.279L117.597 72.2842L117.598 74.2842ZM115.267 77.356L118.34 73.9545L116.855 72.6138L113.783 76.0154L115.267 77.356ZM107.438 90.4676C109.089 87.3455 110.732 84.4101 112.129 82.0717C113.546 79.7009 114.662 78.0261 115.267 77.3561L113.783 76.0153C113.024 76.8557 111.812 78.7041 110.412 81.0459C108.994 83.4201 107.334 86.3866 105.67 89.5324L107.438 90.4676Z" fill="url(#paint1_linear_1394_30808)" mask="url(#path-1-inside-1_1394_30808)"/>
<defs>
<linearGradient id="paint0_linear_1394_30808" x1="386" y1="-32" x2="-61.799" y2="39.4746" gradientUnits="userSpaceOnUse">
<stop stop-color="#9E9E9E" stop-opacity="0.8"/>
<stop offset="1" stop-opacity="0"/>
</linearGradient>
<linearGradient id="paint1_linear_1394_30808" x1="49.5" y1="-57" x2="-22" y2="95.5" gradientUnits="userSpaceOnUse">
<stop offset="0.170591" stop-color="#636363" stop-opacity="0.7"/>
<stop offset="1" stop-opacity="0"/>
</linearGradient>
</defs>
</svg>
