<svg width="220" height="219" viewBox="0 0 220 219" fill="none" xmlns="http://www.w3.org/2000/svg">
<g filter="url(#filter0_f)">
<path d="M147.482 83.4056C146.428 81.6013 145.823 79.4912 145.823 77.2365C145.823 70.5853 151.09 65.1934 157.586 65.1934C164.082 65.1934 169.349 70.5853 169.349 77.2365C169.349 79.4912 168.744 81.6013 167.69 83.4056" stroke="#26DBDB" stroke-width="2"/>
</g>
<g filter="url(#filter1_f)">
<path d="M55.9648 108.302C54.6438 106.392 53.8701 104.075 53.8701 101.578C53.8701 95.0357 59.1795 89.7324 65.729 89.7324C72.2784 89.7324 77.5878 95.0357 77.5878 101.578C77.5878 104.075 76.8141 106.392 75.4931 108.302" stroke="#26DBDB" stroke-width="2"/>
</g>
<g filter="url(#filter2_f)">
<path d="M51.0791 144.945L170.918 144.945" stroke="#FFBF00" stroke-width="4" stroke-linecap="round"/>
</g>
<g filter="url(#filter3_f)">
<path d="M105.351 118.858L90.8909 144.945H131.339L117.412 118.911M157.221 91.4399V99.8776L119.858 110.211M67.0046 124.58L67.0046 116.006M67.0083 124.652L103.204 115.464M120.129 112.429C120.129 117.364 116.224 121.366 111.408 121.366C106.592 121.366 102.688 117.364 102.688 112.429C102.688 107.493 106.592 103.491 111.408 103.491C116.224 103.491 120.129 107.493 120.129 112.429ZM58.0572 115.645H74.7004C78.0028 115.645 80.6799 112.901 80.6799 109.517C80.6799 108.953 80.2337 108.495 79.6833 108.495H53.0742C52.5238 108.495 52.0776 108.953 52.0776 109.517C52.0776 112.901 54.7548 115.645 58.0572 115.645ZM142.961 84.8754V84.6212C142.961 84.0559 143.408 83.5977 143.959 83.5977H170.918C171.47 83.5977 171.917 84.0559 171.917 84.6212V84.8754C171.917 88.2673 169.234 91.0169 165.924 91.0169H148.953C145.643 91.0169 142.961 88.2673 142.961 84.8754Z" stroke="url(#paint0_linear)" stroke-width="2" stroke-linecap="round"/>
</g>
<path d="M147.482 83.4056C146.428 81.6013 145.823 79.4912 145.823 77.2365C145.823 70.5853 151.09 65.1934 157.586 65.1934C164.082 65.1934 169.349 70.5853 169.349 77.2365C169.349 79.4912 168.744 81.6013 167.69 83.4056" stroke="#26DBDB"/>
<path d="M55.9648 108.302C54.6438 106.392 53.8701 104.075 53.8701 101.578C53.8701 95.0357 59.1795 89.7324 65.729 89.7324C72.2784 89.7324 77.5878 95.0357 77.5878 101.578C77.5878 104.075 76.8141 106.392 75.4931 108.302" stroke="#26DBDB"/>
<path d="M51.0791 144.945L170.918 144.945" stroke="#FFBF00" stroke-width="2" stroke-linecap="round"/>
<path d="M105.351 118.858L90.8909 144.945H131.339L117.412 118.911M157.221 91.4399V99.8776L119.858 110.211M67.0046 124.58L67.0046 116.006M67.0083 124.652L103.204 115.464M120.129 112.429C120.129 117.364 116.224 121.366 111.408 121.366C106.592 121.366 102.688 117.364 102.688 112.429C102.688 107.493 106.592 103.491 111.408 103.491C116.224 103.491 120.129 107.493 120.129 112.429ZM58.0572 115.645H74.7004C78.0028 115.645 80.6799 112.901 80.6799 109.517C80.6799 108.953 80.2337 108.495 79.6833 108.495H53.0742C52.5238 108.495 52.0776 108.953 52.0776 109.517C52.0776 112.901 54.7548 115.645 58.0572 115.645ZM142.961 84.8754V84.6212C142.961 84.0559 143.408 83.5977 143.959 83.5977H170.918C171.47 83.5977 171.917 84.0559 171.917 84.6212V84.8754C171.917 88.2673 169.234 91.0169 165.924 91.0169H148.953C145.643 91.0169 142.961 88.2673 142.961 84.8754Z" stroke="url(#paint1_linear)" stroke-linecap="round"/>
<g filter="url(#filter4_f)">
<path d="M15.6828 142.776C13.7522 137.157 12.3637 131.46 11.4664 125.595C5.40604 85.9525 23.5836 44.7573 60.2191 23.463C101.434 -0.493101 152.64 8.53327 183.512 42.5054" stroke="#26DBDB" stroke-width="4" stroke-miterlimit="10" stroke-linecap="round"/>
</g>
<path d="M15.3645 143.026C13.4339 137.408 12.0454 131.71 11.148 125.846C5.08768 86.2033 23.2652 45.0081 59.9007 23.7138C101.116 -0.242335 153.347 9.26086 184.219 43.233" stroke="#26DBDB" stroke-width="2" stroke-miterlimit="10" stroke-linecap="round"/>
<g filter="url(#filter5_f)">
<path d="M184.947 24.5742V44.6822L163.493 44.1795" stroke="#26DBDB" stroke-width="4" stroke-linecap="round"/>
</g>
<path d="M184.947 24.5742V44.6822L163.493 44.1795" stroke="#26DBDB" stroke-width="2" stroke-linecap="round"/>
<g filter="url(#filter6_f)">
<path d="M204.317 75.2246C206.248 80.8433 207.637 86.5406 208.534 92.4051C214.594 132.048 196.417 173.243 159.781 194.537C118.566 218.493 67.3605 209.467 36.4883 175.495" stroke="#26DBDB" stroke-width="4" stroke-miterlimit="10" stroke-linecap="round"/>
</g>
<path d="M204.635 74.9707C206.566 80.5894 207.954 86.2867 208.852 92.1512C214.912 131.794 196.735 172.989 160.099 194.283C118.884 218.239 67.6784 209.213 36.8062 175.241" stroke="#26DBDB" stroke-width="2" stroke-miterlimit="10" stroke-linecap="round"/>
<g filter="url(#filter7_f)">
<path d="M35.0531 193.43L35.0531 173.322L56.5073 173.824" stroke="#26DBDB" stroke-width="4" stroke-linecap="round"/>
</g>
<path d="M35.0531 193.43L35.0531 173.322L56.5073 173.824" stroke="#26DBDB" stroke-width="2" stroke-linecap="round"/>
<defs>
<filter id="filter0_f" x="140.823" y="60.1934" width="33.5256" height="27.7163" filterUnits="userSpaceOnUse" color-interpolation-filters="sRGB">
<feFlood flood-opacity="0" result="BackgroundImageFix"/>
<feBlend mode="normal" in="SourceGraphic" in2="BackgroundImageFix" result="shape"/>
<feGaussianBlur stdDeviation="2" result="effect1_foregroundBlur"/>
</filter>
<filter id="filter1_f" x="48.8701" y="84.7324" width="33.7177" height="28.1381" filterUnits="userSpaceOnUse" color-interpolation-filters="sRGB">
<feFlood flood-opacity="0" result="BackgroundImageFix"/>
<feBlend mode="normal" in="SourceGraphic" in2="BackgroundImageFix" result="shape"/>
<feGaussianBlur stdDeviation="2" result="effect1_foregroundBlur"/>
</filter>
<filter id="filter2_f" x="41.0791" y="134.945" width="139.839" height="20" filterUnits="userSpaceOnUse" color-interpolation-filters="sRGB">
<feFlood flood-opacity="0" result="BackgroundImageFix"/>
<feBlend mode="normal" in="SourceGraphic" in2="BackgroundImageFix" result="shape"/>
<feGaussianBlur stdDeviation="4" result="effect1_foregroundBlur"/>
</filter>
<filter id="filter3_f" x="47.0776" y="78.5977" width="129.839" height="71.3476" filterUnits="userSpaceOnUse" color-interpolation-filters="sRGB">
<feFlood flood-opacity="0" result="BackgroundImageFix"/>
<feBlend mode="normal" in="SourceGraphic" in2="BackgroundImageFix" result="shape"/>
<feGaussianBlur stdDeviation="2" result="effect1_foregroundBlur"/>
</filter>
<filter id="filter4_f" x="0.318359" y="0" width="193.194" height="152.777" filterUnits="userSpaceOnUse" color-interpolation-filters="sRGB">
<feFlood flood-opacity="0" result="BackgroundImageFix"/>
<feBlend mode="normal" in="SourceGraphic" in2="BackgroundImageFix" result="shape"/>
<feGaussianBlur stdDeviation="4" result="effect1_foregroundBlur"/>
</filter>
<filter id="filter5_f" x="153.493" y="14.5742" width="41.4543" height="40.1554" filterUnits="userSpaceOnUse" color-interpolation-filters="sRGB">
<feFlood flood-opacity="0" result="BackgroundImageFix"/>
<feBlend mode="normal" in="SourceGraphic" in2="BackgroundImageFix" result="shape"/>
<feGaussianBlur stdDeviation="4" result="effect1_foregroundBlur"/>
</filter>
<filter id="filter6_f" x="26.4883" y="65.2246" width="193.194" height="152.777" filterUnits="userSpaceOnUse" color-interpolation-filters="sRGB">
<feFlood flood-opacity="0" result="BackgroundImageFix"/>
<feBlend mode="normal" in="SourceGraphic" in2="BackgroundImageFix" result="shape"/>
<feGaussianBlur stdDeviation="4" result="effect1_foregroundBlur"/>
</filter>
<filter id="filter7_f" x="25.0532" y="163.273" width="41.4543" height="40.1554" filterUnits="userSpaceOnUse" color-interpolation-filters="sRGB">
<feFlood flood-opacity="0" result="BackgroundImageFix"/>
<feBlend mode="normal" in="SourceGraphic" in2="BackgroundImageFix" result="shape"/>
<feGaussianBlur stdDeviation="4" result="effect1_foregroundBlur"/>
</filter>
<linearGradient id="paint0_linear" x1="111.983" y1="144.958" x2="111.983" y2="83.6039" gradientUnits="userSpaceOnUse">
<stop stop-color="#FFBF00"/>
<stop offset="1" stop-color="#E843C4"/>
</linearGradient>
<linearGradient id="paint1_linear" x1="111.983" y1="144.958" x2="111.983" y2="83.6039" gradientUnits="userSpaceOnUse">
<stop stop-color="#FFBF00"/>
<stop offset="1" stop-color="#E843C4"/>
</linearGradient>
</defs>
</svg>
