<svg width="84" height="20" viewBox="0 0 84 20" fill="none" xmlns="http://www.w3.org/2000/svg">
<g clip-path="url(#clip0_6749_12921)">
<path fill-rule="evenodd" clip-rule="evenodd" d="M17.2973 3.07097L17.4025 3.7072C17.4855 4.29908 17.5239 4.89634 17.5175 5.49396C17.5168 6.81464 17.3575 8.13045 17.0429 9.41313C16.6176 11.1557 15.8767 12.8057 14.8569 14.2814C13.6785 15.9762 11.9747 17.6431 9.49103 18.9825L9.1872 19.1462L8.88336 18.9825C6.39974 17.6431 4.6966 15.9762 3.51751 14.2814C2.49776 12.8057 1.75685 11.1557 1.33145 9.41313C1.01697 8.13068 0.857639 6.8151 0.856883 5.49466C0.850462 4.89704 0.888897 4.29977 0.971865 3.7079L1.07709 3.07166C1.08607 3.01978 1.0847 2.96662 1.07305 2.91527C1.06139 2.86392 1.03969 2.81538 1.0092 2.77245C0.978698 2.72952 0.940007 2.69305 0.895351 2.66515C0.850695 2.63724 0.800958 2.61844 0.749005 2.60985C0.697053 2.60125 0.643913 2.60302 0.592647 2.61505C0.541382 2.62709 0.493005 2.64915 0.450304 2.67996C0.407602 2.71078 0.371422 2.74974 0.343847 2.7946C0.316272 2.83946 0.297847 2.88934 0.289635 2.94135L0.184409 3.57759C0.0938995 4.2125 0.0517342 4.85336 0.0582763 5.49466C0.0587781 6.88015 0.22583 8.26055 0.555837 9.60616C1.00505 11.4437 1.78706 13.1835 2.86315 14.7393C4.10706 16.5295 5.91124 18.2898 8.50775 19.687L9.00113 19.9525C9.05925 19.9839 9.12427 20.0004 9.19033 20.0004C9.25639 20.0004 9.32142 19.9839 9.37953 19.9525L9.87221 19.687C12.4659 18.2891 14.2708 16.5295 15.5168 14.7393C16.5923 13.1836 17.3739 11.4441 17.8227 9.60686C18.1528 8.26125 18.3198 6.88084 18.3203 5.49536C18.3268 4.85406 18.2847 4.2132 18.1942 3.57828L18.0889 2.94205C18.0807 2.89003 18.0623 2.84016 18.0347 2.7953C18.0072 2.75043 17.971 2.71147 17.9283 2.68066C17.8856 2.64984 17.8372 2.62778 17.7859 2.61575C17.7347 2.60372 17.6815 2.60195 17.6296 2.61054C17.5776 2.61914 17.5279 2.63794 17.4832 2.66584C17.4386 2.69375 17.3999 2.73022 17.3694 2.77315C17.3389 2.81608 17.3172 2.86461 17.3055 2.91597C17.2939 2.96732 17.2925 3.02047 17.3015 3.07236L17.2973 3.07097Z" fill="white"/>
<path fill-rule="evenodd" clip-rule="evenodd" d="M3.25755 2.63723L9.18786 0.825381L15.2506 2.67625C15.3521 2.7066 15.4615 2.6955 15.5548 2.64538C15.6481 2.59527 15.7178 2.51022 15.7486 2.40886C15.7794 2.30749 15.7687 2.19806 15.719 2.10451C15.6693 2.01096 15.5846 1.94091 15.4833 1.9097L9.30424 0.0232899C9.22839 4.91915e-05 9.14733 4.91915e-05 9.07149 0.0232899L3.0241 1.86928C2.97357 1.88439 2.92651 1.90933 2.88564 1.94267C2.84477 1.97602 2.81088 2.0171 2.78593 2.06357C2.76098 2.11004 2.74545 2.16099 2.74024 2.21347C2.73503 2.26596 2.74024 2.31896 2.75556 2.36943C2.77088 2.4199 2.79603 2.46685 2.82954 2.50758C2.86306 2.54831 2.90429 2.58202 2.95087 2.60677C2.99744 2.63152 3.04845 2.64683 3.10096 2.65182C3.15347 2.65681 3.20645 2.65137 3.25685 2.63583L3.25755 2.63723Z" fill="white"/>
<path fill-rule="evenodd" clip-rule="evenodd" d="M0.329237 3.18795L8.83099 19.7817C8.86413 19.8465 8.9144 19.9011 8.97635 19.9394C9.03831 19.9777 9.10957 19.9983 9.18239 19.9989C9.25522 19.9995 9.32684 19.9802 9.38946 19.943C9.45208 19.9058 9.50332 19.8522 9.53761 19.788L14.7223 10.0911L14.7299 10.0758L18.0484 3.1768C18.0934 3.0816 18.099 2.97248 18.0639 2.87318C18.0289 2.77388 17.9561 2.69242 17.8613 2.64651C17.7666 2.6006 17.6575 2.59395 17.5579 2.628C17.4583 2.66206 17.3761 2.73406 17.3292 2.82837L14.0164 9.72175L9.19823 18.7392L1.03934 2.8228C1.01583 2.77554 0.98317 2.73342 0.943259 2.69887C0.903349 2.66432 0.85698 2.63804 0.806839 2.62155C0.756698 2.60505 0.703782 2.59867 0.651157 2.60277C0.598532 2.60687 0.547243 2.62137 0.500264 2.64544C0.453285 2.66951 0.411548 2.70266 0.377472 2.74297C0.343396 2.78328 0.317659 2.82995 0.301751 2.88029C0.285844 2.93062 0.280082 2.9836 0.2848 3.03618C0.289518 3.08875 0.304622 3.13987 0.329237 3.18656V3.18795Z" fill="white"/>
<path fill-rule="evenodd" clip-rule="evenodd" d="M4.39895 10.5777H13.8533C13.9591 10.5777 14.0606 10.5357 14.1354 10.4609C14.2102 10.386 14.2523 10.2846 14.2523 10.1788C14.2523 10.0729 14.2102 9.97147 14.1354 9.89666C14.0606 9.82184 13.9591 9.7798 13.8533 9.7798H4.39895C4.29315 9.7798 4.19167 9.82184 4.11685 9.89666C4.04203 9.97147 4 10.0729 4 10.1788C4 10.2846 4.04203 10.386 4.11685 10.4609C4.19167 10.5357 4.29315 10.5777 4.39895 10.5777ZM30.7697 7.13521H24.6192C24.5129 7.13576 24.4111 7.17822 24.3359 7.25338C24.2608 7.32854 24.2183 7.43031 24.2178 7.5366V12.4732C24.2185 12.5794 24.261 12.6811 24.3361 12.7562C24.4113 12.8313 24.5129 12.8738 24.6192 12.8746H30.7697V13.7108H24.6192C24.4569 13.7115 24.2961 13.6801 24.146 13.6184C23.9959 13.5566 23.8596 13.4657 23.7448 13.351C23.6301 13.2362 23.5392 13.0999 23.4775 12.9498C23.4157 12.7998 23.3843 12.6389 23.385 12.4767V7.54008C23.3843 7.37781 23.4157 7.21699 23.4775 7.06693C23.5392 6.91686 23.6301 6.78051 23.7448 6.66577C23.8596 6.55102 23.9959 6.46014 24.146 6.39838C24.2961 6.33662 24.4569 6.3052 24.6192 6.30594H30.7697V7.13521ZM42.3188 6.30176V7.13799H36.3955V9.58189H41.1564V10.4251H36.3948V12.8732H42.3181V13.7094H35.5585V6.30176H42.3188Z" fill="white"/>
<path d="M54.5166 7.54666V9.71669C54.5173 9.87894 54.4858 10.0397 54.424 10.1897C54.3622 10.3398 54.2713 10.4761 54.1566 10.5908C54.0418 10.7055 53.9055 10.7964 53.7555 10.8582C53.6055 10.92 53.4447 10.9515 53.2825 10.9508H52.1515L54.4755 13.7069H53.3751L51.0609 10.9508H48.3431C48.2087 10.944 48.0747 10.9303 47.9417 10.9097V13.7069H47.1055V6.31251H53.2762C53.4384 6.31186 53.5992 6.34335 53.7492 6.40514C53.8993 6.46693 54.0356 6.55781 54.1503 6.67254C54.265 6.78727 54.3559 6.92358 54.4177 7.07361C54.4795 7.22363 54.511 7.3844 54.5103 7.54666H54.5166V7.54666ZM48.3459 10.1076H53.2825C53.334 10.1083 53.3851 10.0986 53.4328 10.0792C53.4806 10.0598 53.5239 10.031 53.5604 9.99458C53.5968 9.95815 53.6256 9.91479 53.645 9.86707C53.6644 9.81934 53.6741 9.76821 53.6734 9.71669V7.54666C53.6742 7.49438 53.6646 7.44246 53.6453 7.3939C53.6259 7.34534 53.5971 7.30109 53.5605 7.26373C53.525 7.22547 53.4818 7.19515 53.4338 7.17473C53.3858 7.15432 53.334 7.14427 53.2818 7.14526H48.3452C48.2389 7.14581 48.1371 7.18828 48.062 7.26343C47.9868 7.33859 47.9443 7.44037 47.9438 7.54666V9.71669C47.9427 9.76888 47.9527 9.82072 47.9731 9.86876C47.9936 9.91681 48.0239 9.95998 48.0623 9.99543C48.0997 10.0321 48.1441 10.0608 48.1928 10.0801C48.2415 10.0994 48.2935 10.1087 48.3459 10.1076V10.1076Z" fill="white"/>
<path fill-rule="evenodd" clip-rule="evenodd" d="M58.9395 6.30176H66.3415V7.13799H63.0663V13.7101H62.23V7.13799H58.9395V6.30176ZM70.828 13.7066V6.30176H71.6642V13.7066H70.828ZM82.7785 6.30176H83.8482L80.7527 10.0042L83.8586 13.7066H82.7785L80.0224 10.4258H77.6363V13.7066H76.7945V6.30176H77.6377V9.5819H80.0238L82.7785 6.30176Z" fill="white"/>
</g>
<defs>
<clipPath id="clip0_6749_12921">
<rect width="83.9024" height="20" fill="white"/>
</clipPath>
</defs>
</svg>
