<svg width="254" height="218" viewBox="0 0 254 218" fill="none" xmlns="http://www.w3.org/2000/svg">
<g filter="url(#filter0_f)">
<path d="M194.693 100.607L160.107 114.236" stroke="#F17672" stroke-width="4" stroke-linecap="square"/>
<path d="M118 80C118 81.1046 118.895 82 120 82C121.105 82 122 81.1046 122 80L118 80ZM122 48L122 46L118 46L118 48L122 48ZM122 80L122 48L118 48L118 80L122 80Z" fill="#E843C3"/>
<path d="M34.3524 146.81L78.877 134.383" stroke="#F79345" stroke-width="4" stroke-linecap="square"/>
<path d="M59.655 64.475C58.8726 63.6952 57.6042 63.6952 56.8219 64.475C56.0396 65.2547 56.0396 66.519 56.8219 67.2988L59.655 64.475ZM85.5346 95.9178L86.9512 97.3297L89.7842 94.5059L88.3677 93.094L85.5346 95.9178ZM56.8219 67.2988L85.5346 95.9178L88.3677 93.094L59.655 64.475L56.8219 67.2988Z" fill="#EC5AA0"/>
<path d="M166 175L144.746 153.727" stroke="#FCB018" stroke-width="4" stroke-linecap="square"/>
</g>
<path d="M194.341 100.121L159.755 113.75" stroke="#F17672" stroke-width="2" stroke-linecap="square"/>
<path d="M119 80C119 80.5523 119.448 81 120 81C120.552 81 121 80.5523 121 80L119 80ZM121 49L121 48L119 48L119 49L121 49ZM121 80L121 49L119 49L119 80L121 80Z" fill="#E843C3"/>
<path d="M33.9999 146.324L78.5244 133.896" stroke="#F79345" stroke-width="2" stroke-linecap="square"/>
<path d="M58.5942 64.6946C58.203 64.3047 57.5688 64.3047 57.1776 64.6946C56.7865 65.0845 56.7865 65.7166 57.1776 66.1065L58.5942 64.6946ZM85.8904 94.7255L86.5986 95.4314L88.0152 94.0195L87.3069 93.3136L85.8904 94.7255ZM57.1776 66.1065L85.8904 94.7255L87.3069 93.3136L58.5942 64.6946L57.1776 66.1065Z" fill="#EC5AA0"/>
<path d="M166 175L145 154" stroke="#FCB018" stroke-width="2" stroke-linecap="square"/>
<g filter="url(#filter1_f)">
<path d="M139.894 28.3402C139.894 32.1653 138.756 35.9045 136.624 39.085C134.492 42.2655 131.461 44.7443 127.916 46.2082C124.37 47.672 120.469 48.055 116.705 47.3087C112.941 46.5625 109.483 44.7205 106.77 42.0157C104.056 39.311 102.208 35.8649 101.459 32.1133C100.711 28.3616 101.095 24.473 102.563 20.939C104.032 17.4051 106.519 14.3846 109.71 12.2595C112.901 10.1343 116.653 9.00005 120.49 9.00005C123.04 8.99411 125.566 9.4903 127.923 10.4601C130.28 11.43 132.421 12.8543 134.224 14.6514C136.027 16.4485 137.456 18.5829 138.429 20.932C139.402 23.2812 139.9 25.7987 139.894 28.3402V28.3402Z" stroke="#E343BD" stroke-width="2"/>
<path d="M124.092 35.9706H117.646C115.516 35.9467 113.424 36.5354 111.617 37.6671C109.81 38.7987 108.364 40.426 107.45 42.3563C111.058 45.8156 115.87 47.725 120.86 47.6784C125.851 47.6317 130.626 45.6326 134.17 42.1064C133.229 40.2412 131.786 38.6777 130.005 37.5933C128.224 36.5088 126.175 35.9466 124.092 35.9706V35.9706ZM120.869 19.1445C116.962 19.1445 113.806 22.1658 113.806 25.8585C113.806 29.5512 116.966 32.5725 120.869 32.5725C124.772 32.5725 127.932 29.5512 127.932 25.8585C127.932 22.1658 124.772 19.1445 120.869 19.1445Z" stroke="#E343BD" stroke-width="2"/>
</g>
<g filter="url(#filter2_d)">
<path d="M139.894 28.3402C139.894 32.1653 138.756 35.9045 136.624 39.085C134.492 42.2655 131.461 44.7443 127.916 46.2082C124.37 47.672 120.469 48.055 116.705 47.3087C112.941 46.5625 109.483 44.7205 106.77 42.0157C104.056 39.311 102.208 35.8649 101.459 32.1133C100.711 28.3616 101.095 24.473 102.563 20.939C104.032 17.4051 106.519 14.3846 109.71 12.2595C112.901 10.1343 116.653 9.00005 120.49 9.00005C123.04 8.99411 125.566 9.4903 127.923 10.4601C130.28 11.43 132.421 12.8543 134.224 14.6514C136.027 16.4485 137.456 18.5829 138.429 20.932C139.402 23.2812 139.9 25.7987 139.894 28.3402Z" stroke="#E343BD"/>
<path d="M124.092 35.9706H117.646C115.516 35.9467 113.424 36.5354 111.617 37.6671C109.81 38.7987 108.364 40.426 107.45 42.3563C111.058 45.8156 115.87 47.725 120.86 47.6784C125.851 47.6317 130.626 45.6326 134.17 42.1064C133.229 40.2412 131.786 38.6777 130.005 37.5933C128.224 36.5088 126.175 35.9466 124.092 35.9706V35.9706ZM120.869 19.1445C116.962 19.1445 113.806 22.1658 113.806 25.8585C113.806 29.5512 116.966 32.5725 120.869 32.5725C124.772 32.5725 127.932 29.5512 127.932 25.8585C127.932 22.1658 124.772 19.1445 120.869 19.1445Z" stroke="#E343BD"/>
</g>
<g filter="url(#filter3_f)">
<path d="M62.2796 54.6048C62.2796 57.4736 61.4261 60.278 59.827 62.6634C58.2279 65.0487 55.9551 66.9079 53.2959 68.0057C50.6367 69.1036 47.7106 69.3908 44.8876 68.8311C42.0646 68.2715 39.4715 66.89 37.4363 64.8614C35.401 62.8328 34.015 60.2483 33.4535 57.4346C32.8919 54.6208 33.1801 51.7044 34.2816 49.0539C35.3831 46.4034 37.2484 44.138 39.6416 42.5442C42.0348 40.9504 44.8484 40.0996 47.7267 40.0996C49.6391 40.0952 51.5335 40.4673 53.3012 41.1947C55.0688 41.9221 56.6749 42.9903 58.0272 44.3382C59.3794 45.686 60.4512 47.2868 61.181 49.0486C61.9107 50.8105 62.2841 52.6987 62.2796 54.6048V54.6048Z" stroke="#EC58A2" stroke-width="2"/>
<path d="M50.4272 60.3266H45.5928C43.9953 60.3087 42.4262 60.7502 41.071 61.599C39.7157 62.4477 38.6311 63.6681 37.9453 65.1159C40.6518 67.7103 44.2605 69.1424 48.0033 69.1074C51.7462 69.0724 55.3276 67.573 57.9854 64.9285C57.2797 63.5295 56.1976 62.3569 54.8618 61.5436C53.5259 60.7302 51.9896 60.3086 50.4272 60.3266V60.3266ZM48.01 47.707C45.0798 47.707 42.7128 49.973 42.7128 52.7425C42.7128 55.5121 45.0826 57.778 48.01 57.778C50.9374 57.778 53.3072 55.5121 53.3072 52.7425C53.3072 49.973 50.9374 47.707 48.01 47.707Z" stroke="#EC58A2" stroke-width="2"/>
</g>
<path d="M62.2796 54.6048C62.2796 57.4736 61.4261 60.278 59.827 62.6634C58.2279 65.0487 55.9551 66.9079 53.2959 68.0057C50.6367 69.1036 47.7106 69.3908 44.8876 68.8311C42.0646 68.2715 39.4715 66.89 37.4363 64.8614C35.401 62.8328 34.015 60.2483 33.4535 57.4346C32.8919 54.6208 33.1801 51.7044 34.2816 49.0539C35.3831 46.4034 37.2484 44.138 39.6416 42.5442C42.0348 40.9504 44.8484 40.0996 47.7267 40.0996C49.6391 40.0952 51.5335 40.4673 53.3012 41.1947C55.0688 41.9221 56.6749 42.9903 58.0272 44.3382C59.3794 45.686 60.4512 47.2868 61.181 49.0486C61.9107 50.8105 62.2841 52.6987 62.2796 54.6048Z" stroke="#EC58A2"/>
<path d="M50.4272 60.3266H45.5928C43.9953 60.3087 42.4262 60.7502 41.071 61.599C39.7157 62.4477 38.6311 63.6681 37.9453 65.1159C40.6518 67.7103 44.2605 69.1424 48.0033 69.1074C51.7462 69.0724 55.3276 67.573 57.9854 64.9285C57.2797 63.5295 56.1976 62.3569 54.8618 61.5436C53.5259 60.7302 51.9896 60.3086 50.4272 60.3266V60.3266ZM48.01 47.707C45.0798 47.707 42.7128 49.973 42.7128 52.7425C42.7128 55.5121 45.0826 57.778 48.01 57.778C50.9374 57.778 53.3072 55.5121 53.3072 52.7425C53.3072 49.973 50.9374 47.707 48.01 47.707Z" stroke="#EC58A2"/>
<g filter="url(#filter4_f)">
<path d="M34.1058 151.005C34.1058 153.874 33.2523 156.678 31.6532 159.064C30.0541 161.449 27.7813 163.308 25.1221 164.406C22.4629 165.504 19.5368 165.791 16.7138 165.232C13.8908 164.672 11.2977 163.29 9.26245 161.262C7.22719 159.233 5.84116 156.649 5.27964 153.835C4.71811 151.021 5.00631 148.105 6.10778 145.454C7.20926 142.804 9.07454 140.538 11.4678 138.945C13.861 137.351 16.6746 136.5 19.5529 136.5C21.4653 136.496 23.3597 136.868 25.1274 137.595C26.895 138.322 28.5011 139.391 29.8533 140.739C31.2056 142.086 32.2774 143.687 33.0072 145.449C33.7369 147.211 34.1103 149.099 34.1058 151.005V151.005Z" stroke="#F79245" stroke-width="2"/>
<path d="M22.2533 156.725H17.419C15.8215 156.707 14.2524 157.149 12.8971 157.997C11.5419 158.846 10.4573 160.067 9.77148 161.514C12.4779 164.109 16.0866 165.541 19.8295 165.506C23.5723 165.471 27.1538 163.971 29.8116 161.327C29.1059 159.928 28.0238 158.755 26.6879 157.942C25.3521 157.129 23.8158 156.707 22.2533 156.725V156.725ZM19.8361 144.105C16.906 144.105 14.539 146.371 14.539 149.141C14.539 151.911 16.9087 154.176 19.8361 154.176C22.7635 154.176 25.1333 151.911 25.1333 149.141C25.1333 146.371 22.7635 144.105 19.8361 144.105Z" stroke="#F79245" stroke-width="2"/>
</g>
<g filter="url(#filter5_d)">
<path d="M34.1058 151.005C34.1058 153.874 33.2523 156.678 31.6532 159.064C30.0541 161.449 27.7813 163.308 25.1221 164.406C22.4629 165.504 19.5368 165.791 16.7138 165.232C13.8908 164.672 11.2977 163.29 9.26245 161.262C7.22719 159.233 5.84116 156.649 5.27964 153.835C4.71811 151.021 5.00631 148.105 6.10778 145.454C7.20926 142.804 9.07454 140.538 11.4678 138.945C13.861 137.351 16.6746 136.5 19.5529 136.5C21.4653 136.496 23.3597 136.868 25.1274 137.595C26.895 138.322 28.5011 139.391 29.8533 140.739C31.2056 142.086 32.2774 143.687 33.0072 145.449C33.7369 147.211 34.1103 149.099 34.1058 151.005Z" stroke="#F79245"/>
<path d="M22.2533 156.725H17.419C15.8215 156.707 14.2524 157.149 12.8971 157.997C11.5419 158.846 10.4573 160.067 9.77148 161.514C12.4779 164.109 16.0866 165.541 19.8295 165.506C23.5723 165.471 27.1538 163.971 29.8116 161.327C29.1059 159.928 28.0238 158.755 26.6879 157.942C25.3521 157.129 23.8158 156.707 22.2533 156.725V156.725ZM19.8361 144.105C16.906 144.105 14.539 146.371 14.539 149.141C14.539 151.911 16.9087 154.176 19.8361 154.176C22.7635 154.176 25.1333 151.911 25.1333 149.141C25.1333 146.371 22.7635 144.105 19.8361 144.105Z" stroke="#F79245"/>
</g>
<g filter="url(#filter6_f)">
<path d="M199.808 189.34C199.808 193.165 198.67 196.905 196.538 200.085C194.405 203.265 191.375 205.744 187.829 207.208C184.284 208.672 180.382 209.055 176.618 208.309C172.854 207.562 169.397 205.721 166.683 203.016C163.97 200.311 162.122 196.865 161.373 193.113C160.624 189.362 161.008 185.473 162.477 181.939C163.946 178.405 166.433 175.385 169.624 173.259C172.815 171.134 176.566 170 180.404 170C182.954 169.994 185.48 170.49 187.836 171.46C190.193 172.43 192.335 173.854 194.138 175.651C195.941 177.448 197.37 179.583 198.343 181.932C199.316 184.281 199.814 186.799 199.808 189.34V189.34Z" stroke="#FDAE1B" stroke-width="2"/>
<path d="M184.004 196.969H177.558C175.428 196.945 173.336 197.533 171.529 198.665C169.722 199.797 168.276 201.424 167.361 203.354C170.97 206.814 175.782 208.723 180.772 208.676C185.762 208.63 190.538 206.631 194.081 203.104C193.141 201.239 191.698 199.676 189.917 198.591C188.135 197.507 186.087 196.945 184.004 196.969V196.969ZM180.781 180.143C176.874 180.143 173.718 183.164 173.718 186.857C173.718 190.549 176.878 193.571 180.781 193.571C184.684 193.571 187.844 190.549 187.844 186.857C187.844 183.164 184.684 180.143 180.781 180.143Z" stroke="#FDAE1B" stroke-width="2"/>
</g>
<g filter="url(#filter7_d)">
<path d="M199.808 189.34C199.808 193.165 198.67 196.905 196.538 200.085C194.405 203.265 191.375 205.744 187.829 207.208C184.284 208.672 180.382 209.055 176.618 208.309C172.854 207.562 169.397 205.721 166.683 203.016C163.97 200.311 162.122 196.865 161.373 193.113C160.624 189.362 161.008 185.473 162.477 181.939C163.946 178.405 166.433 175.385 169.624 173.259C172.815 171.134 176.566 170 180.404 170C182.954 169.994 185.48 170.49 187.836 171.46C190.193 172.43 192.335 173.854 194.138 175.651C195.941 177.448 197.37 179.583 198.343 181.932C199.316 184.281 199.814 186.799 199.808 189.34Z" stroke="#FDAE1B"/>
<path d="M184.004 196.969H177.558C175.428 196.945 173.336 197.533 171.529 198.665C169.722 199.797 168.276 201.424 167.361 203.354C170.97 206.814 175.782 208.723 180.772 208.676C185.762 208.63 190.538 206.631 194.081 203.104C193.141 201.239 191.698 199.676 189.917 198.591C188.135 197.507 186.087 196.945 184.004 196.969V196.969ZM180.781 180.143C176.874 180.143 173.718 183.164 173.718 186.857C173.718 190.549 176.878 193.571 180.781 193.571C184.684 193.571 187.844 190.549 187.844 186.857C187.844 183.164 184.684 180.143 180.781 180.143Z" stroke="#FDAE1B"/>
</g>
<g filter="url(#filter8_f)">
<path d="M245 92.8801C245 97.9006 243.506 102.808 240.708 106.983C237.909 111.157 233.932 114.411 229.278 116.332C224.624 118.253 219.504 118.756 214.564 117.776C209.623 116.797 205.085 114.379 201.524 110.829C197.962 107.279 195.536 102.756 194.554 97.8323C193.571 92.9083 194.075 87.8044 196.003 83.1661C197.931 78.5278 201.195 74.5633 205.383 71.7741C209.571 68.9849 214.495 67.4962 219.532 67.4962C222.879 67.4884 226.194 68.1396 229.287 69.4125C232.381 70.6854 235.191 72.5549 237.558 74.9136C239.924 77.2722 241.8 80.0736 243.077 83.1569C244.354 86.2401 245.007 89.5444 245 92.8801V92.8801Z" stroke="#F2776E" stroke-width="2"/>
<path d="M224.259 102.897H215.799C213.004 102.865 210.258 103.638 207.886 105.123C205.514 106.609 203.616 108.744 202.416 111.278C207.152 115.818 213.468 118.324 220.018 118.263C226.568 118.202 232.835 115.578 237.486 110.95C236.251 108.502 234.358 106.45 232.02 105.026C229.682 103.603 226.994 102.865 224.259 102.897V102.897ZM220.029 80.8125C214.901 80.8125 210.759 84.778 210.759 89.6246C210.759 94.4713 214.906 98.4368 220.029 98.4368C225.152 98.4368 229.299 94.4713 229.299 89.6246C229.299 84.778 225.152 80.8125 220.029 80.8125Z" stroke="#F2776E" stroke-width="2"/>
</g>
<g filter="url(#filter9_d)">
<path d="M245 92.8801C245 97.9006 243.506 102.808 240.708 106.983C237.909 111.157 233.932 114.411 229.278 116.332C224.624 118.253 219.504 118.756 214.564 117.776C209.623 116.797 205.085 114.379 201.524 110.829C197.962 107.279 195.536 102.756 194.554 97.8323C193.571 92.9083 194.075 87.8044 196.003 83.1661C197.931 78.5278 201.195 74.5633 205.383 71.7741C209.571 68.9849 214.495 67.4962 219.532 67.4962C222.879 67.4884 226.194 68.1396 229.287 69.4125C232.381 70.6854 235.191 72.5549 237.558 74.9136C239.924 77.2722 241.8 80.0736 243.077 83.1569C244.354 86.2401 245.007 89.5444 245 92.8801Z" stroke="#F2776E"/>
<path d="M224.259 102.897H215.799C213.004 102.865 210.258 103.638 207.886 105.123C205.514 106.609 203.616 108.744 202.416 111.278C207.152 115.818 213.468 118.324 220.018 118.263C226.568 118.202 232.835 115.578 237.486 110.95C236.251 108.502 234.358 106.45 232.02 105.026C229.682 103.603 226.994 102.865 224.259 102.897V102.897ZM220.029 80.8125C214.901 80.8125 210.759 84.778 210.759 89.6246C210.759 94.4713 214.906 98.4368 220.029 98.4368C225.152 98.4368 229.299 94.4713 229.299 89.6246C229.299 84.778 225.152 80.8125 220.029 80.8125Z" stroke="#F2776E"/>
</g>
<path d="M136.735 104.059C136.508 105.039 136.246 106.012 135.952 106.974C140.404 108.86 144.155 111.78 146.76 115.389C143.099 113.551 138.936 112.13 134.493 111.2C134.028 112.328 133.516 113.435 132.958 114.52C136.95 116.608 140.253 119.551 142.523 123.042C139.04 121.075 135.061 119.48 130.787 118.337C130.18 119.265 129.539 120.168 128.864 121.045C132.091 123.106 134.752 125.752 136.644 128.78C133.539 126.942 130.022 125.398 126.236 124.21C125.685 124.789 125.118 125.353 124.535 125.9C126.864 128.21 128.685 130.861 129.892 133.698C127.503 131.737 124.78 129.94 121.807 128.362C121.132 128.899 120.442 129.416 119.736 129.911C121.199 132.316 122.23 134.877 122.787 137.483C121.137 135.472 119.233 133.526 117.115 131.689C116.497 132.055 115.87 132.405 115.235 132.739C116.246 134.857 116.94 137.056 117.297 139.267C115.97 137.477 114.453 135.726 112.77 134.041C111.802 134.487 110.818 134.897 109.82 135.269C110.437 137.073 110.837 138.907 111.009 140.734C109.992 139.154 108.838 137.592 107.562 136.066C106.72 136.324 105.871 136.555 105.015 136.76C105.223 138.265 105.289 139.763 105.21 141.233C104.608 139.9 103.921 138.565 103.156 137.237C102.412 137.377 101.665 137.497 100.914 137.597C101.019 138.782 101.034 139.958 100.961 141.116C100.489 140.026 99.9612 138.933 99.3812 137.844C98.1979 137.981 97.0094 138.069 95.819 138.106C95.7709 138.868 95.6862 139.621 95.5652 140.362C95.3159 139.626 95.0435 138.887 94.7486 138.146C91.0799 138.108 87.4313 137.591 83.8926 136.608C85.5718 138.583 87.4257 140.403 89.4317 142.047C94.9846 144.173 100.905 145.274 106.882 145.293C117.895 145.283 128.563 141.6 137.067 134.873C145.571 128.146 151.384 118.791 153.514 108.404C148.358 106.042 142.646 104.563 136.735 104.059Z" fill="url(#paint0_linear)"/>
<g filter="url(#filter10_f)">
<path d="M158.918 121.49C158.918 143.523 140.996 161.395 118.876 161.395C96.7551 161.395 78.834 143.523 78.834 121.49C78.834 99.458 96.7551 81.5859 118.876 81.5859C140.996 81.5859 158.918 99.458 158.918 121.49Z" stroke="url(#paint1_linear)" stroke-width="4"/>
</g>
<path d="M159.918 121.49C159.918 144.078 141.546 162.395 118.876 162.395C96.2059 162.395 77.834 144.078 77.834 121.49C77.834 98.9026 96.2059 80.5859 118.876 80.5859C141.546 80.5859 159.918 98.9026 159.918 121.49Z" stroke="url(#paint2_linear)" stroke-width="2"/>
<path d="M136.737 104.059C136.51 105.039 136.248 106.012 135.954 106.974C140.406 108.86 144.156 111.78 146.762 115.389C143.101 113.551 138.938 112.13 134.495 111.2C134.03 112.328 133.518 113.435 132.96 114.52C136.952 116.608 140.255 119.551 142.525 123.042C139.042 121.075 135.063 119.48 130.789 118.337C130.182 119.265 129.541 120.168 128.866 121.045C132.093 123.106 134.754 125.752 136.645 128.78C133.541 126.942 130.024 125.398 126.238 124.21C125.687 124.789 125.12 125.353 124.537 125.9C126.866 128.21 128.687 130.861 129.894 133.698C127.505 131.737 124.782 129.94 121.809 128.362C121.134 128.899 120.444 129.416 119.738 129.911C121.201 132.316 122.232 134.877 122.788 137.483C121.139 135.472 119.235 133.526 117.117 131.689C116.499 132.055 115.872 132.405 115.237 132.739C116.248 134.857 116.942 137.056 117.299 139.267C115.971 137.477 114.455 135.726 112.772 134.041C111.804 134.487 110.82 134.897 109.822 135.269C110.439 137.073 110.838 138.907 111.011 140.734C109.994 139.154 108.84 137.592 107.564 136.066C106.722 136.324 105.873 136.555 105.017 136.76C105.225 138.265 105.29 139.763 105.212 141.233C104.609 139.9 103.923 138.565 103.158 137.237C102.414 137.377 101.667 137.497 100.916 137.597C101.02 138.782 101.036 139.958 100.963 141.116C100.491 140.026 99.9632 138.933 99.3831 137.844C98.1999 137.981 97.0114 138.069 95.8209 138.106C95.7729 138.868 95.6882 139.621 95.5672 140.362C95.3178 139.626 95.0455 138.887 94.7506 138.146C91.0819 138.108 87.4333 137.591 83.8945 136.608C85.5738 138.583 87.4276 140.403 89.4336 142.047C94.9865 144.173 100.906 145.274 106.884 145.293C117.897 145.283 128.565 141.6 137.069 134.873C145.573 128.146 151.386 118.791 153.516 108.404C148.36 106.042 142.648 104.563 136.737 104.059Z" fill="url(#paint3_linear)"/>
<defs>
<filter id="filter0_f" x="23.8838" y="38" width="181.408" height="147.829" filterUnits="userSpaceOnUse" color-interpolation-filters="sRGB">
<feFlood flood-opacity="0" result="BackgroundImageFix"/>
<feBlend mode="normal" in="SourceGraphic" in2="BackgroundImageFix" result="shape"/>
<feGaussianBlur stdDeviation="4" result="effect1_foregroundBlur"/>
</filter>
<filter id="filter1_f" x="92.0864" y="0" width="56.8078" height="56.6803" filterUnits="userSpaceOnUse" color-interpolation-filters="sRGB">
<feFlood flood-opacity="0" result="BackgroundImageFix"/>
<feBlend mode="normal" in="SourceGraphic" in2="BackgroundImageFix" result="shape"/>
<feGaussianBlur stdDeviation="4" result="effect1_foregroundBlur"/>
</filter>
<filter id="filter2_d" x="97.4197" y="8.5" width="46.1413" height="46.0138" filterUnits="userSpaceOnUse" color-interpolation-filters="sRGB">
<feFlood flood-opacity="0" result="BackgroundImageFix"/>
<feColorMatrix in="SourceAlpha" type="matrix" values="0 0 0 0 0 0 0 0 0 0 0 0 0 0 0 0 0 0 127 0" result="hardAlpha"/>
<feOffset dy="3.16673"/>
<feGaussianBlur stdDeviation="1.58337"/>
<feComposite in2="hardAlpha" operator="out"/>
<feColorMatrix type="matrix" values="0 0 0 0 0 0 0 0 0 0 0 0 0 0 0 0 0 0 0.25 0"/>
<feBlend mode="normal" in2="BackgroundImageFix" result="effect1_dropShadow"/>
<feBlend mode="normal" in="SourceGraphic" in2="effect1_dropShadow" result="shape"/>
</filter>
<filter id="filter3_f" x="28.1738" y="35.0996" width="39.1059" height="39.0103" filterUnits="userSpaceOnUse" color-interpolation-filters="sRGB">
<feFlood flood-opacity="0" result="BackgroundImageFix"/>
<feBlend mode="normal" in="SourceGraphic" in2="BackgroundImageFix" result="shape"/>
<feGaussianBlur stdDeviation="2" result="effect1_foregroundBlur"/>
</filter>
<filter id="filter4_f" x="0" y="131.5" width="39.1059" height="39.0103" filterUnits="userSpaceOnUse" color-interpolation-filters="sRGB">
<feFlood flood-opacity="0" result="BackgroundImageFix"/>
<feBlend mode="normal" in="SourceGraphic" in2="BackgroundImageFix" result="shape"/>
<feGaussianBlur stdDeviation="2" result="effect1_foregroundBlur"/>
</filter>
<filter id="filter5_d" x="1.33327" y="136" width="36.4393" height="36.3437" filterUnits="userSpaceOnUse" color-interpolation-filters="sRGB">
<feFlood flood-opacity="0" result="BackgroundImageFix"/>
<feColorMatrix in="SourceAlpha" type="matrix" values="0 0 0 0 0 0 0 0 0 0 0 0 0 0 0 0 0 0 127 0" result="hardAlpha"/>
<feOffset dy="3.16673"/>
<feGaussianBlur stdDeviation="1.58337"/>
<feComposite in2="hardAlpha" operator="out"/>
<feColorMatrix type="matrix" values="0 0 0 0 0 0 0 0 0 0 0 0 0 0 0 0 0 0 0.25 0"/>
<feBlend mode="normal" in2="BackgroundImageFix" result="effect1_dropShadow"/>
<feBlend mode="normal" in="SourceGraphic" in2="effect1_dropShadow" result="shape"/>
</filter>
<filter id="filter6_f" x="152" y="161" width="56.8078" height="56.6803" filterUnits="userSpaceOnUse" color-interpolation-filters="sRGB">
<feFlood flood-opacity="0" result="BackgroundImageFix"/>
<feBlend mode="normal" in="SourceGraphic" in2="BackgroundImageFix" result="shape"/>
<feGaussianBlur stdDeviation="4" result="effect1_foregroundBlur"/>
</filter>
<filter id="filter7_d" x="157.333" y="169.5" width="46.1413" height="46.0138" filterUnits="userSpaceOnUse" color-interpolation-filters="sRGB">
<feFlood flood-opacity="0" result="BackgroundImageFix"/>
<feColorMatrix in="SourceAlpha" type="matrix" values="0 0 0 0 0 0 0 0 0 0 0 0 0 0 0 0 0 0 127 0" result="hardAlpha"/>
<feOffset dy="3.16673"/>
<feGaussianBlur stdDeviation="1.58337"/>
<feComposite in2="hardAlpha" operator="out"/>
<feColorMatrix type="matrix" values="0 0 0 0 0 0 0 0 0 0 0 0 0 0 0 0 0 0 0.25 0"/>
<feBlend mode="normal" in2="BackgroundImageFix" result="effect1_dropShadow"/>
<feBlend mode="normal" in="SourceGraphic" in2="effect1_dropShadow" result="shape"/>
</filter>
<filter id="filter8_f" x="185.064" y="58.4961" width="68.9352" height="68.7682" filterUnits="userSpaceOnUse" color-interpolation-filters="sRGB">
<feFlood flood-opacity="0" result="BackgroundImageFix"/>
<feBlend mode="normal" in="SourceGraphic" in2="BackgroundImageFix" result="shape"/>
<feGaussianBlur stdDeviation="4" result="effect1_foregroundBlur"/>
</filter>
<filter id="filter9_d" x="190.398" y="66.9961" width="58.2687" height="58.1016" filterUnits="userSpaceOnUse" color-interpolation-filters="sRGB">
<feFlood flood-opacity="0" result="BackgroundImageFix"/>
<feColorMatrix in="SourceAlpha" type="matrix" values="0 0 0 0 0 0 0 0 0 0 0 0 0 0 0 0 0 0 127 0" result="hardAlpha"/>
<feOffset dy="3.16673"/>
<feGaussianBlur stdDeviation="1.58337"/>
<feComposite in2="hardAlpha" operator="out"/>
<feColorMatrix type="matrix" values="0 0 0 0 0 0 0 0 0 0 0 0 0 0 0 0 0 0 0.25 0"/>
<feBlend mode="normal" in2="BackgroundImageFix" result="effect1_dropShadow"/>
<feBlend mode="normal" in="SourceGraphic" in2="effect1_dropShadow" result="shape"/>
</filter>
<filter id="filter10_f" x="68.834" y="71.5859" width="100.084" height="99.8091" filterUnits="userSpaceOnUse" color-interpolation-filters="sRGB">
<feFlood flood-opacity="0" result="BackgroundImageFix"/>
<feBlend mode="normal" in="SourceGraphic" in2="BackgroundImageFix" result="shape"/>
<feGaussianBlur stdDeviation="4" result="effect1_foregroundBlur"/>
</filter>
<linearGradient id="paint0_linear" x1="118.695" y1="145.301" x2="118.695" y2="104.063" gradientUnits="userSpaceOnUse">
<stop stop-color="#FFBF00"/>
<stop offset="1" stop-color="#E843C4"/>
</linearGradient>
<linearGradient id="paint1_linear" x1="118.866" y1="163.412" x2="118.866" y2="79.5945" gradientUnits="userSpaceOnUse">
<stop stop-color="#FFBF00"/>
<stop offset="1" stop-color="#E843C4"/>
</linearGradient>
<linearGradient id="paint2_linear" x1="118.866" y1="163.412" x2="118.866" y2="79.5945" gradientUnits="userSpaceOnUse">
<stop stop-color="#FFBF00"/>
<stop offset="1" stop-color="#E843C4"/>
</linearGradient>
<linearGradient id="paint3_linear" x1="118.697" y1="145.301" x2="118.697" y2="104.063" gradientUnits="userSpaceOnUse">
<stop stop-color="#FFBF00"/>
<stop offset="1" stop-color="#E843C4"/>
</linearGradient>
</defs>
</svg>
