<svg width="40" height="25" viewBox="0 0 40 25" fill="none" xmlns="http://www.w3.org/2000/svg">
<path d="M8.19361 4.78784C14.7148 -1.59595 25.2852 -1.59595 31.8148 4.78784L32.5994 5.55525C32.9284 5.8757 32.9284 6.39011 32.5994 6.71057L29.9167 9.34167C29.7564 9.50189 29.4864 9.50189 29.3262 9.34167L28.2463 8.28754C23.6992 3.83491 16.3176 3.83491 11.7705 8.28754L10.6148 9.41756C10.4545 9.57779 10.1845 9.57779 10.0243 9.41756L7.33312 6.78646C7.00411 6.46601 7.00411 5.9516 7.33312 5.63114L8.19361 4.78784ZM37.3658 10.2187L39.7532 12.5546C40.0823 12.8751 40.0823 13.3895 39.7532 13.71L28.9803 24.2597C28.6513 24.5801 28.1282 24.5801 27.7992 24.2597L20.1476 16.7711C20.0633 16.6953 19.9367 16.6953 19.8524 16.7711L12.2092 24.2597C11.8802 24.5801 11.3572 24.5801 11.0282 24.2597L0.246757 13.7184C-0.0822524 13.3979 -0.0822524 12.8835 0.246757 12.5631L2.63419 10.2271C2.9632 9.90668 3.48624 9.90668 3.81525 10.2271L11.4668 17.7156C11.5512 17.7915 11.6777 17.7915 11.7621 17.7156L19.4053 10.2271C19.7343 9.90668 20.2573 9.90668 20.5863 10.2271L28.2379 17.7156C28.3223 17.7915 28.4488 17.7915 28.5332 17.7156L36.1847 10.2271C36.5053 9.89824 37.0368 9.89824 37.3658 10.2187Z" fill="#3A99FB"/>
</svg>
