<svg width="554" height="317" viewBox="0 0 554 317" fill="none" xmlns="http://www.w3.org/2000/svg">
<path d="M295 317C258.665 317 223.819 302.566 198.126 276.874C172.434 251.181 158 216.335 158 180C158 143.665 172.434 108.819 198.126 83.1265C223.819 57.434 258.665 43.0001 295 43L295 84.1C269.566 84.1 245.173 94.2038 227.188 112.189C209.204 130.173 199.1 154.566 199.1 180C199.1 205.434 209.204 229.827 227.188 247.812C245.173 265.796 269.566 275.9 295 275.9L295 317Z" fill="#85A7D7"/>
<path d="M295 43C309.376 43 323.663 45.2628 337.335 49.7053L324.635 88.7937C315.064 85.6839 305.063 84.1 295 84.1L295 43Z" fill="#557CBF"/>
<path d="M337.332 49.7043C364.848 58.6439 388.827 76.0651 405.833 99.4708L372.583 123.63C360.679 107.246 343.894 95.0508 324.633 88.793L337.332 49.7043Z" fill="#EB4434"/>
<path d="M405.837 99.4758C409.211 104.12 412.29 108.972 415.055 114.002L379.039 133.802C377.103 130.28 374.948 126.884 372.586 123.633L405.837 99.4758Z" fill="#FBBE10"/>
<path d="M415.011 113.921C416.118 115.932 417.174 117.97 418.179 120.034L381.225 138.024C380.522 136.579 379.782 135.152 379.007 133.744L415.011 113.921Z" fill="#28AB4F"/>
<path d="M418.173 120.022C434.08 152.69 436.359 190.339 424.507 224.686L385.655 211.28C393.951 187.237 392.356 160.883 381.221 138.016L418.173 120.022Z" fill="#F16E1E"/>
<path d="M424.52 224.65C415.09 252.002 397.244 275.667 373.539 292.253C349.833 308.838 321.486 317.494 292.559 316.978L293.291 275.885C313.54 276.246 333.383 270.187 349.977 258.577C366.571 246.967 379.063 230.402 385.664 211.255L424.52 224.65Z" fill="#40BFC8"/>
<path d="M177 161L152.462 132H1" stroke="#FCFCFC" stroke-opacity="0.5" stroke-linecap="round"/>
<path d="M319 63L281.962 18H166" stroke="#FCFCFC" stroke-opacity="0.5" stroke-linecap="round"/>
<path d="M351 88L389.548 43H505" stroke="#FCFCFC" stroke-opacity="0.5" stroke-linecap="round"/>
<path d="M400 114L435.548 75H551.5" stroke="#FCFCFC" stroke-opacity="0.5" stroke-linecap="round"/>
<path d="M408 121L447.534 108H510.5" stroke="#FCFCFC" stroke-opacity="0.5" stroke-linecap="round"/>
<path d="M408 178L447.534 208H528.5" stroke="#FCFCFC" stroke-opacity="0.5" stroke-linecap="round"/>
<path d="M374 265L413.534 295H539" stroke="#FCFCFC" stroke-opacity="0.5" stroke-linecap="round"/>
<path d="M3.624 126C3.53067 126 3.456 125.972 3.4 125.916C3.344 125.86 3.316 125.785 3.316 125.692V116.522C3.316 116.429 3.344 116.354 3.4 116.298C3.456 116.233 3.53067 116.2 3.624 116.2H6.606C7.57667 116.2 8.342 116.345 8.902 116.634C9.47133 116.914 9.87267 117.329 10.106 117.88C10.3487 118.431 10.4793 119.131 10.498 119.98C10.5073 120.26 10.512 120.629 10.512 121.086C10.512 121.553 10.5073 121.926 10.498 122.206C10.4793 123.102 10.3487 123.825 10.106 124.376C9.87267 124.917 9.48067 125.323 8.93 125.594C8.37933 125.865 7.628 126 6.676 126H3.624ZM6.606 125.16C7.35267 125.16 7.94067 125.062 8.37 124.866C8.79933 124.661 9.10733 124.343 9.294 123.914C9.49 123.475 9.59733 122.883 9.616 122.136C9.62533 121.856 9.63 121.506 9.63 121.086C9.63 120.675 9.62533 120.33 9.616 120.05C9.59733 119.005 9.35 118.244 8.874 117.768C8.40733 117.283 7.628 117.04 6.536 117.04H4.198V125.16H6.606ZM12.6402 126C12.5656 126 12.5002 125.972 12.4442 125.916C12.3882 125.86 12.3602 125.795 12.3602 125.72L12.3882 125.566L15.9302 116.48C16.0049 116.293 16.1402 116.2 16.3362 116.2H16.8122C17.0082 116.2 17.1436 116.293 17.2182 116.48L20.7602 125.566L20.7882 125.72C20.7882 125.795 20.7602 125.86 20.7042 125.916C20.6482 125.972 20.5829 126 20.5082 126H20.2282C20.1442 126 20.0742 125.977 20.0182 125.93C19.9716 125.883 19.9389 125.837 19.9202 125.79L19.0522 123.55H14.0962L13.2282 125.79C13.2096 125.837 13.1722 125.883 13.1162 125.93C13.0696 125.977 13.0042 126 12.9202 126H12.6402ZM18.7162 122.71L16.5742 117.194L14.4322 122.71H18.7162ZM26.2996 126.14C23.901 126.14 22.669 124.852 22.6036 122.276C22.5943 121.996 22.5896 121.604 22.5896 121.1C22.5896 120.596 22.5943 120.204 22.6036 119.924C22.641 118.655 22.9863 117.693 23.6396 117.04C24.293 116.387 25.1796 116.06 26.2996 116.06C27.4196 116.06 28.3063 116.387 28.9596 117.04C29.613 117.693 29.9583 118.655 29.9956 119.924C30.0143 120.484 30.0236 120.876 30.0236 121.1C30.0236 121.324 30.0143 121.716 29.9956 122.276C29.9303 124.852 28.6983 126.14 26.2996 126.14ZM26.2996 125.3C27.1396 125.3 27.807 125.048 28.3016 124.544C28.8056 124.031 29.0763 123.251 29.1136 122.206C29.1323 121.646 29.1416 121.277 29.1416 121.1C29.1416 120.923 29.1323 120.554 29.1136 119.994C29.0763 118.949 28.8056 118.174 28.3016 117.67C27.7976 117.157 27.1303 116.9 26.2996 116.9C25.469 116.9 24.8016 117.157 24.2976 117.67C23.7936 118.174 23.523 118.949 23.4856 119.994C23.4763 120.274 23.4716 120.643 23.4716 121.1C23.4716 121.557 23.4763 121.926 23.4856 122.206C23.523 123.251 23.789 124.031 24.2836 124.544C24.7876 125.048 25.4596 125.3 26.2996 125.3ZM39.8785 126.14C39.2812 126.14 38.7492 126.023 38.2825 125.79C37.8159 125.557 37.4519 125.235 37.1905 124.824C36.9292 124.404 36.7985 123.937 36.7985 123.424C36.7985 122.827 36.9759 122.327 37.3305 121.926C37.6852 121.515 38.1799 121.123 38.8145 120.75C38.3292 120.237 37.9885 119.803 37.7925 119.448C37.6059 119.093 37.5125 118.711 37.5125 118.3C37.5125 117.899 37.6152 117.525 37.8205 117.18C38.0352 116.835 38.3292 116.564 38.7025 116.368C39.0759 116.163 39.4912 116.06 39.9485 116.06C40.4152 116.06 40.8305 116.158 41.1945 116.354C41.5679 116.55 41.8572 116.821 42.0625 117.166C42.2772 117.502 42.3845 117.88 42.3845 118.3C42.3845 118.711 42.2865 119.075 42.0905 119.392C41.8945 119.7 41.6425 119.966 41.3345 120.19C41.0359 120.414 40.6532 120.657 40.1865 120.918L42.8605 123.536C43.2712 122.845 43.5279 122.061 43.6305 121.184C43.6399 121.091 43.6679 121.016 43.7145 120.96C43.7705 120.904 43.8452 120.876 43.9385 120.876H44.2045C44.2979 120.876 44.3725 120.904 44.4285 120.96C44.4845 121.016 44.5125 121.091 44.5125 121.184C44.4752 122.229 44.1392 123.223 43.5045 124.166L44.8765 125.51C44.9605 125.594 45.0025 125.669 45.0025 125.734C45.0025 125.911 44.9092 126 44.7225 126H44.4145C44.2465 126 44.1159 125.953 44.0225 125.86L42.9865 124.824C42.1559 125.701 41.1199 126.14 39.8785 126.14ZM39.5845 120.302C40.2285 119.947 40.7092 119.63 41.0265 119.35C41.3439 119.061 41.5025 118.711 41.5025 118.3C41.5025 117.88 41.3532 117.544 41.0545 117.292C40.7652 117.031 40.3965 116.9 39.9485 116.9C39.5192 116.9 39.1505 117.031 38.8425 117.292C38.5439 117.544 38.3945 117.88 38.3945 118.3C38.3945 118.589 38.4739 118.874 38.6325 119.154C38.8005 119.434 39.1179 119.817 39.5845 120.302ZM39.8785 125.3C40.3172 125.3 40.7465 125.207 41.1665 125.02C41.5959 124.833 41.9879 124.558 42.3425 124.194L39.4025 121.352C38.8425 121.669 38.4132 121.987 38.1145 122.304C37.8252 122.612 37.6805 122.985 37.6805 123.424C37.6805 124.003 37.8952 124.46 38.3245 124.796C38.7539 125.132 39.2719 125.3 39.8785 125.3ZM52.0115 126C51.9182 126 51.8435 125.972 51.7875 125.916C51.7315 125.86 51.7035 125.785 51.7035 125.692V116.522C51.7035 116.429 51.7315 116.354 51.7875 116.298C51.8435 116.233 51.9182 116.2 52.0115 116.2H55.2735C56.2815 116.2 57.0702 116.438 57.6395 116.914C58.2088 117.39 58.4935 118.095 58.4935 119.028C58.4935 119.765 58.3115 120.363 57.9475 120.82C57.5835 121.268 57.0608 121.571 56.3795 121.73L58.6335 125.566C58.6615 125.622 58.6755 125.673 58.6755 125.72C58.6755 125.795 58.6475 125.86 58.5915 125.916C58.5355 125.972 58.4702 126 58.3955 126H58.2275C58.0875 126 57.9802 125.972 57.9055 125.916C57.8402 125.851 57.7702 125.753 57.6955 125.622L55.4695 121.856H52.5855V125.692C52.5855 125.785 52.5528 125.86 52.4875 125.916C52.4315 125.972 52.3568 126 52.2635 126H52.0115ZM55.2035 121.016C56.0155 121.016 56.6175 120.853 57.0095 120.526C57.4108 120.19 57.6115 119.691 57.6115 119.028C57.6115 118.365 57.4108 117.871 57.0095 117.544C56.6175 117.208 56.0155 117.04 55.2035 117.04H52.5855V121.016H55.2035ZM63.7965 126.14C62.9099 126.14 62.1959 125.851 61.6545 125.272C61.1132 124.684 60.8052 123.9 60.7305 122.92L60.7165 122.36L60.7305 121.8C60.8052 120.829 61.1085 120.05 61.6405 119.462C62.1819 118.874 62.9005 118.58 63.7965 118.58C64.7672 118.58 65.5232 118.902 66.0645 119.546C66.6152 120.19 66.8905 121.072 66.8905 122.192V122.402C66.8905 122.495 66.8579 122.57 66.7925 122.626C66.7365 122.682 66.6619 122.71 66.5685 122.71H61.5845V122.85C61.6032 123.289 61.7012 123.699 61.8785 124.082C62.0652 124.455 62.3219 124.759 62.6485 124.992C62.9752 125.216 63.3579 125.328 63.7965 125.328C64.3099 125.328 64.7252 125.23 65.0425 125.034C65.3692 124.829 65.6025 124.623 65.7425 124.418C65.8265 124.306 65.8872 124.236 65.9245 124.208C65.9712 124.18 66.0505 124.166 66.1625 124.166H66.3865C66.4705 124.166 66.5405 124.189 66.5965 124.236C66.6525 124.283 66.6805 124.343 66.6805 124.418C66.6805 124.614 66.5545 124.852 66.3025 125.132C66.0599 125.403 65.7192 125.641 65.2805 125.846C64.8419 126.042 64.3472 126.14 63.7965 126.14ZM66.0365 121.926V121.87C66.0365 121.151 65.8312 120.559 65.4205 120.092C65.0192 119.625 64.4779 119.392 63.7965 119.392C63.1152 119.392 62.5739 119.625 62.1725 120.092C61.7805 120.559 61.5845 121.151 61.5845 121.87V121.926H66.0365ZM71.1494 126C71.0281 126 70.9347 125.972 70.8694 125.916C70.8041 125.86 70.7481 125.771 70.7014 125.65L68.7274 119.154L68.6994 119C68.6994 118.925 68.7274 118.86 68.7834 118.804C68.8394 118.748 68.9047 118.72 68.9794 118.72H69.2454C69.3294 118.72 69.3994 118.743 69.4554 118.79C69.5114 118.837 69.5441 118.883 69.5534 118.93L71.2754 124.754L73.1094 119C73.1281 118.925 73.1701 118.86 73.2354 118.804C73.3007 118.748 73.3847 118.72 73.4874 118.72H73.7674C73.8701 118.72 73.9541 118.748 74.0194 118.804C74.0847 118.86 74.1267 118.925 74.1454 119L75.9794 124.754L77.7014 118.93C77.7107 118.883 77.7434 118.837 77.7994 118.79C77.8554 118.743 77.9254 118.72 78.0094 118.72H78.2754C78.3501 118.72 78.4154 118.748 78.4714 118.804C78.5274 118.86 78.5554 118.925 78.5554 119L78.5274 119.154L76.5534 125.65C76.5067 125.771 76.4507 125.86 76.3854 125.916C76.3201 125.972 76.2267 126 76.1054 126H75.8674C75.6154 126 75.4567 125.883 75.3914 125.65L73.6274 120.134L71.8634 125.65C71.7981 125.883 71.6394 126 71.3874 126H71.1494ZM82.7338 126.14C82.2858 126.14 81.8705 126.047 81.4878 125.86C81.1052 125.673 80.7972 125.421 80.5638 125.104C80.3398 124.787 80.2278 124.437 80.2278 124.054C80.2278 123.438 80.4752 122.934 80.9698 122.542C81.4738 122.15 82.1505 121.898 82.9998 121.786L85.2118 121.478V120.988C85.2118 120.475 85.0532 120.083 84.7358 119.812C84.4278 119.532 83.9518 119.392 83.3078 119.392C82.8318 119.392 82.4398 119.485 82.1318 119.672C81.8332 119.859 81.6418 120.083 81.5578 120.344C81.5205 120.456 81.4738 120.535 81.4178 120.582C81.3712 120.619 81.3058 120.638 81.2218 120.638H81.0258C80.9418 120.638 80.8672 120.61 80.8018 120.554C80.7458 120.489 80.7178 120.414 80.7178 120.33C80.7178 120.125 80.8112 119.887 80.9978 119.616C81.1845 119.336 81.4738 119.093 81.8658 118.888C82.2578 118.683 82.7385 118.58 83.3078 118.58C84.3065 118.58 85.0158 118.818 85.4358 119.294C85.8558 119.77 86.0658 120.349 86.0658 121.03V125.692C86.0658 125.785 86.0378 125.86 85.9818 125.916C85.9258 125.972 85.8512 126 85.7578 126H85.5198C85.4265 126 85.3518 125.972 85.2958 125.916C85.2398 125.86 85.2118 125.785 85.2118 125.692V125.034C85.0065 125.342 84.7032 125.603 84.3018 125.818C83.9098 126.033 83.3872 126.14 82.7338 126.14ZM82.8738 125.328C83.5552 125.328 84.1152 125.104 84.5538 124.656C84.9925 124.208 85.2118 123.564 85.2118 122.724V122.248L83.4058 122.5C82.6405 122.603 82.0618 122.78 81.6698 123.032C81.2778 123.284 81.0818 123.601 81.0818 123.984C81.0818 124.413 81.2592 124.745 81.6138 124.978C81.9778 125.211 82.3978 125.328 82.8738 125.328ZM89.2877 126C89.1944 126 89.1197 125.972 89.0637 125.916C89.0077 125.86 88.9797 125.785 88.9797 125.692V119.042C88.9797 118.949 89.0077 118.874 89.0637 118.818C89.1197 118.753 89.1944 118.72 89.2877 118.72H89.5117C89.605 118.72 89.6797 118.753 89.7357 118.818C89.801 118.874 89.8337 118.949 89.8337 119.042V119.686C90.1697 119.042 90.8044 118.72 91.7377 118.72H92.2557C92.349 118.72 92.4237 118.748 92.4797 118.804C92.5357 118.86 92.5637 118.935 92.5637 119.028V119.224C92.5637 119.317 92.5357 119.392 92.4797 119.448C92.4237 119.504 92.349 119.532 92.2557 119.532H91.6537C91.0937 119.532 90.6504 119.695 90.3237 120.022C89.997 120.349 89.8337 120.792 89.8337 121.352V125.692C89.8337 125.785 89.801 125.86 89.7357 125.916C89.6797 125.972 89.605 126 89.5117 126H89.2877ZM97.0012 126.14C95.9932 126.14 95.2465 125.813 94.7612 125.16C94.2852 124.497 94.0332 123.695 94.0052 122.752L93.9912 122.36L94.0052 121.968C94.0332 121.025 94.2852 120.227 94.7612 119.574C95.2465 118.911 95.9932 118.58 97.0012 118.58C98.0185 118.58 98.8025 118.949 99.3532 119.686V116.368C99.3532 116.275 99.3812 116.2 99.4372 116.144C99.4932 116.088 99.5678 116.06 99.6612 116.06H99.8992C99.9925 116.06 100.067 116.088 100.123 116.144C100.179 116.2 100.207 116.275 100.207 116.368V125.692C100.207 125.785 100.179 125.86 100.123 125.916C100.067 125.972 99.9925 126 99.8992 126H99.6612C99.5678 126 99.4932 125.972 99.4372 125.916C99.3812 125.86 99.3532 125.785 99.3532 125.692V125.034C98.8118 125.771 98.0278 126.14 97.0012 126.14ZM97.0852 125.328C97.8225 125.328 98.3778 125.085 98.7512 124.6C99.1245 124.105 99.3252 123.527 99.3532 122.864C99.3625 122.771 99.3672 122.589 99.3672 122.318C99.3672 122.047 99.3625 121.865 99.3532 121.772C99.3438 121.371 99.2552 120.993 99.0872 120.638C98.9192 120.274 98.6672 119.975 98.3312 119.742C97.9952 119.509 97.5798 119.392 97.0852 119.392C96.3292 119.392 95.7738 119.635 95.4192 120.12C95.0738 120.596 94.8872 121.212 94.8592 121.968L94.8452 122.36C94.8452 123.228 95.0132 123.942 95.3492 124.502C95.6852 125.053 96.2638 125.328 97.0852 125.328ZM105.5 126.14C104.894 126.14 104.38 126.037 103.96 125.832C103.55 125.627 103.237 125.393 103.022 125.132C102.817 124.871 102.714 124.661 102.714 124.502C102.714 124.418 102.747 124.353 102.812 124.306C102.878 124.25 102.948 124.222 103.022 124.222H103.232C103.298 124.222 103.349 124.236 103.386 124.264C103.433 124.283 103.484 124.329 103.54 124.404C103.746 124.693 103.993 124.922 104.282 125.09C104.581 125.249 104.987 125.328 105.5 125.328C106.079 125.328 106.546 125.221 106.9 125.006C107.255 124.782 107.432 124.465 107.432 124.054C107.432 123.802 107.358 123.597 107.208 123.438C107.068 123.279 106.835 123.144 106.508 123.032C106.191 122.911 105.715 122.775 105.08 122.626C104.25 122.439 103.68 122.183 103.372 121.856C103.074 121.529 102.924 121.114 102.924 120.61C102.924 120.265 103.018 119.938 103.204 119.63C103.4 119.322 103.685 119.07 104.058 118.874C104.441 118.678 104.898 118.58 105.43 118.58C105.99 118.58 106.462 118.678 106.844 118.874C107.236 119.061 107.526 119.28 107.712 119.532C107.908 119.784 108.006 119.989 108.006 120.148C108.006 120.232 107.974 120.302 107.908 120.358C107.852 120.405 107.782 120.428 107.698 120.428H107.488C107.358 120.428 107.255 120.367 107.18 120.246C106.994 119.966 106.779 119.756 106.536 119.616C106.303 119.467 105.934 119.392 105.43 119.392C104.889 119.392 104.478 119.504 104.198 119.728C103.918 119.952 103.778 120.246 103.778 120.61C103.778 120.834 103.834 121.021 103.946 121.17C104.058 121.319 104.268 121.459 104.576 121.59C104.884 121.711 105.332 121.837 105.92 121.968C106.788 122.164 107.4 122.425 107.754 122.752C108.109 123.079 108.286 123.513 108.286 124.054C108.286 124.437 108.179 124.787 107.964 125.104C107.75 125.421 107.432 125.673 107.012 125.86C106.592 126.047 106.088 126.14 105.5 126.14Z" fill="#FCFCFC"/>
<path d="M122.684 126C122.591 126 122.516 125.972 122.46 125.916C122.404 125.86 122.376 125.785 122.376 125.692V123.48H117.756C117.663 123.48 117.588 123.452 117.532 123.396C117.476 123.34 117.448 123.265 117.448 123.172V122.948C117.448 122.808 117.499 122.668 117.602 122.528L121.858 116.438C121.905 116.363 121.975 116.307 122.068 116.27C122.161 116.223 122.264 116.2 122.376 116.2H122.95C123.043 116.2 123.118 116.228 123.174 116.284C123.23 116.34 123.258 116.415 123.258 116.508V122.64H124.532C124.625 122.64 124.7 122.668 124.756 122.724C124.812 122.78 124.84 122.855 124.84 122.948V123.172C124.84 123.265 124.812 123.34 124.756 123.396C124.7 123.452 124.625 123.48 124.532 123.48H123.258V125.692C123.258 125.785 123.23 125.86 123.174 125.916C123.118 125.972 123.043 126 122.95 126H122.684ZM122.376 122.64V117.194L118.554 122.64H122.376ZM130.338 126.14C129.162 126.14 128.313 125.785 127.79 125.076C127.277 124.367 127.006 123.433 126.978 122.276L126.964 121.114L126.978 119.924C127.006 118.767 127.277 117.833 127.79 117.124C128.313 116.415 129.162 116.06 130.338 116.06C131.514 116.06 132.359 116.415 132.872 117.124C133.395 117.833 133.67 118.767 133.698 119.924C133.708 120.185 133.712 120.582 133.712 121.114C133.712 121.637 133.708 122.024 133.698 122.276C133.67 123.433 133.395 124.367 132.872 125.076C132.359 125.785 131.514 126.14 130.338 126.14ZM130.338 125.3C131.141 125.3 131.748 125.034 132.158 124.502C132.578 123.961 132.798 123.195 132.816 122.206C132.826 121.935 132.83 121.562 132.83 121.086C132.83 120.61 132.826 120.246 132.816 119.994C132.798 119.023 132.578 118.267 132.158 117.726C131.748 117.175 131.141 116.9 130.338 116.9C129.536 116.9 128.924 117.175 128.504 117.726C128.094 118.267 127.879 119.023 127.86 119.994L127.846 121.086L127.86 122.206C127.879 123.195 128.094 123.961 128.504 124.502C128.924 125.034 129.536 125.3 130.338 125.3ZM138.069 121.1C137.472 121.1 137 120.941 136.655 120.624C136.319 120.297 136.137 119.849 136.109 119.28C136.1 119.121 136.095 118.921 136.095 118.678C136.095 118.417 136.1 118.202 136.109 118.034C136.137 117.446 136.314 116.984 136.641 116.648C136.968 116.303 137.444 116.13 138.069 116.13C138.694 116.13 139.17 116.303 139.497 116.648C139.824 116.984 140.001 117.446 140.029 118.034C140.048 118.37 140.057 118.585 140.057 118.678C140.057 118.762 140.048 118.963 140.029 119.28C140.001 119.849 139.814 120.297 139.469 120.624C139.133 120.941 138.666 121.1 138.069 121.1ZM136.865 126C136.781 126 136.711 125.977 136.655 125.93C136.608 125.874 136.585 125.804 136.585 125.72C136.585 125.664 136.604 125.613 136.641 125.566L143.543 116.466C143.618 116.363 143.683 116.293 143.739 116.256C143.804 116.219 143.893 116.2 144.005 116.2H144.243C144.327 116.2 144.392 116.228 144.439 116.284C144.495 116.331 144.523 116.396 144.523 116.48C144.523 116.536 144.504 116.587 144.467 116.634L137.565 125.734C137.49 125.827 137.42 125.897 137.355 125.944C137.299 125.981 137.215 126 137.103 126H136.865ZM138.069 120.386C138.452 120.386 138.732 120.274 138.909 120.05C139.086 119.826 139.189 119.555 139.217 119.238C139.236 118.883 139.245 118.687 139.245 118.65C139.245 118.585 139.236 118.393 139.217 118.076C139.198 117.749 139.096 117.474 138.909 117.25C138.732 117.026 138.452 116.914 138.069 116.914C137.686 116.914 137.402 117.026 137.215 117.25C137.038 117.474 136.94 117.749 136.921 118.076C136.912 118.235 136.907 118.426 136.907 118.65C136.907 118.865 136.912 119.061 136.921 119.238C136.949 119.555 137.052 119.826 137.229 120.05C137.406 120.274 137.686 120.386 138.069 120.386ZM143.011 126.084C142.414 126.084 141.942 125.916 141.597 125.58C141.261 125.235 141.079 124.773 141.051 124.194C141.042 124.035 141.037 123.835 141.037 123.592C141.037 123.331 141.042 123.116 141.051 122.948C141.079 122.36 141.256 121.898 141.583 121.562C141.91 121.217 142.386 121.044 143.011 121.044C143.636 121.044 144.112 121.217 144.439 121.562C144.766 121.898 144.943 122.36 144.971 122.948C144.99 123.284 144.999 123.499 144.999 123.592C144.999 123.676 144.99 123.877 144.971 124.194C144.943 124.773 144.756 125.235 144.411 125.58C144.075 125.916 143.608 126.084 143.011 126.084ZM143.011 125.3C143.394 125.3 143.674 125.188 143.851 124.964C144.028 124.74 144.131 124.469 144.159 124.152C144.178 123.797 144.187 123.601 144.187 123.564C144.187 123.499 144.178 123.307 144.159 122.99C144.14 122.663 144.038 122.388 143.851 122.164C143.674 121.94 143.394 121.828 143.011 121.828C142.628 121.828 142.344 121.94 142.157 122.164C141.98 122.388 141.882 122.663 141.863 122.99C141.854 123.149 141.849 123.34 141.849 123.564C141.849 123.779 141.854 123.975 141.863 124.152C141.891 124.469 141.994 124.74 142.171 124.964C142.348 125.188 142.628 125.3 143.011 125.3Z" fill="#FCFCFC"/>
<path d="M170.756 12.14C170.028 12.14 169.393 12.0233 168.852 11.79C168.32 11.5473 167.909 11.2347 167.62 10.852C167.34 10.4693 167.191 10.0587 167.172 9.62C167.172 9.54533 167.2 9.48 167.256 9.424C167.312 9.368 167.382 9.34 167.466 9.34H167.746C167.914 9.34 168.017 9.43333 168.054 9.62C168.119 10.068 168.376 10.46 168.824 10.796C169.272 11.132 169.916 11.3 170.756 11.3C171.643 11.3 172.301 11.1413 172.73 10.824C173.169 10.4973 173.388 10.0447 173.388 9.466C173.388 9.11133 173.281 8.822 173.066 8.598C172.861 8.36467 172.557 8.164 172.156 7.996C171.755 7.81867 171.148 7.59933 170.336 7.338C169.617 7.10467 169.053 6.876 168.642 6.652C168.241 6.428 167.942 6.15267 167.746 5.826C167.55 5.49933 167.452 5.084 167.452 4.58C167.452 4.104 167.578 3.67467 167.83 3.292C168.091 2.90933 168.465 2.61067 168.95 2.396C169.435 2.172 170.014 2.06 170.686 2.06C171.377 2.06 171.969 2.186 172.464 2.438C172.959 2.68067 173.332 2.99333 173.584 3.376C173.836 3.74933 173.971 4.12733 173.99 4.51C173.99 4.58467 173.962 4.65 173.906 4.706C173.859 4.762 173.789 4.79 173.696 4.79H173.416C173.351 4.79 173.285 4.77133 173.22 4.734C173.155 4.68733 173.117 4.61267 173.108 4.51C173.052 4.04333 172.8 3.66067 172.352 3.362C171.913 3.054 171.358 2.9 170.686 2.9C169.967 2.9 169.393 3.04 168.964 3.32C168.544 3.6 168.334 4.02 168.334 4.58C168.334 4.944 168.427 5.24733 168.614 5.49C168.81 5.72333 169.099 5.92867 169.482 6.106C169.865 6.274 170.429 6.47933 171.176 6.722C171.941 6.96467 172.539 7.198 172.968 7.422C173.397 7.646 173.719 7.91667 173.934 8.234C174.158 8.55133 174.27 8.962 174.27 9.466C174.27 10.306 173.957 10.964 173.332 11.44C172.707 11.9067 171.848 12.14 170.756 12.14ZM179.513 12.14C178.626 12.14 177.912 11.8507 177.371 11.272C176.829 10.684 176.521 9.9 176.447 8.92L176.433 8.36L176.447 7.8C176.521 6.82933 176.825 6.05 177.357 5.462C177.898 4.874 178.617 4.58 179.513 4.58C180.483 4.58 181.239 4.902 181.781 5.546C182.331 6.19 182.607 7.072 182.607 8.192V8.402C182.607 8.49533 182.574 8.57 182.509 8.626C182.453 8.682 182.378 8.71 182.285 8.71H177.301V8.85C177.319 9.28867 177.417 9.69933 177.595 10.082C177.781 10.4553 178.038 10.7587 178.365 10.992C178.691 11.216 179.074 11.328 179.513 11.328C180.026 11.328 180.441 11.23 180.759 11.034C181.085 10.8287 181.319 10.6233 181.459 10.418C181.543 10.306 181.603 10.236 181.641 10.208C181.687 10.18 181.767 10.166 181.879 10.166H182.103C182.187 10.166 182.257 10.1893 182.313 10.236C182.369 10.2827 182.397 10.3433 182.397 10.418C182.397 10.614 182.271 10.852 182.019 11.132C181.776 11.4027 181.435 11.6407 180.997 11.846C180.558 12.042 180.063 12.14 179.513 12.14ZM181.753 7.926V7.87C181.753 7.15133 181.547 6.55867 181.137 6.092C180.735 5.62533 180.194 5.392 179.513 5.392C178.831 5.392 178.29 5.62533 177.889 6.092C177.497 6.55867 177.301 7.15133 177.301 7.87V7.926H181.753ZM187.855 12.14C186.968 12.14 186.254 11.8507 185.713 11.272C185.172 10.684 184.864 9.9 184.789 8.92L184.775 8.36L184.789 7.8C184.864 6.82933 185.167 6.05 185.699 5.462C186.24 4.874 186.959 4.58 187.855 4.58C188.826 4.58 189.582 4.902 190.123 5.546C190.674 6.19 190.949 7.072 190.949 8.192V8.402C190.949 8.49533 190.916 8.57 190.851 8.626C190.795 8.682 190.72 8.71 190.627 8.71H185.643V8.85C185.662 9.28867 185.76 9.69933 185.937 10.082C186.124 10.4553 186.38 10.7587 186.707 10.992C187.034 11.216 187.416 11.328 187.855 11.328C188.368 11.328 188.784 11.23 189.101 11.034C189.428 10.8287 189.661 10.6233 189.801 10.418C189.885 10.306 189.946 10.236 189.983 10.208C190.03 10.18 190.109 10.166 190.221 10.166H190.445C190.529 10.166 190.599 10.1893 190.655 10.236C190.711 10.2827 190.739 10.3433 190.739 10.418C190.739 10.614 190.613 10.852 190.361 11.132C190.118 11.4027 189.778 11.6407 189.339 11.846C188.9 12.042 188.406 12.14 187.855 12.14ZM190.095 7.926V7.87C190.095 7.15133 189.89 6.55867 189.479 6.092C189.078 5.62533 188.536 5.392 187.855 5.392C187.174 5.392 186.632 5.62533 186.231 6.092C185.839 6.55867 185.643 7.15133 185.643 7.87V7.926H190.095ZM196.128 12.14C195.12 12.14 194.373 11.8133 193.888 11.16C193.412 10.4973 193.16 9.69467 193.132 8.752L193.118 8.36L193.132 7.968C193.16 7.02533 193.412 6.22733 193.888 5.574C194.373 4.91133 195.12 4.58 196.128 4.58C197.145 4.58 197.929 4.94867 198.48 5.686V2.368C198.48 2.27467 198.508 2.2 198.564 2.144C198.62 2.088 198.694 2.06 198.788 2.06H199.026C199.119 2.06 199.194 2.088 199.25 2.144C199.306 2.2 199.334 2.27467 199.334 2.368V11.692C199.334 11.7853 199.306 11.86 199.25 11.916C199.194 11.972 199.119 12 199.026 12H198.788C198.694 12 198.62 11.972 198.564 11.916C198.508 11.86 198.48 11.7853 198.48 11.692V11.034C197.938 11.7713 197.154 12.14 196.128 12.14ZM196.212 11.328C196.949 11.328 197.504 11.0853 197.878 10.6C198.251 10.1053 198.452 9.52667 198.48 8.864C198.489 8.77067 198.494 8.58867 198.494 8.318C198.494 8.04733 198.489 7.86533 198.48 7.772C198.47 7.37067 198.382 6.99267 198.214 6.638C198.046 6.274 197.794 5.97533 197.458 5.742C197.122 5.50867 196.706 5.392 196.212 5.392C195.456 5.392 194.9 5.63467 194.546 6.12C194.2 6.596 194.014 7.212 193.986 7.968L193.972 8.36C193.972 9.228 194.14 9.942 194.476 10.502C194.812 11.0527 195.39 11.328 196.212 11.328ZM209.748 12.14C209.02 12.14 208.386 12.0233 207.844 11.79C207.312 11.5473 206.902 11.2347 206.612 10.852C206.332 10.4693 206.183 10.0587 206.164 9.62C206.164 9.54533 206.192 9.48 206.248 9.424C206.304 9.368 206.374 9.34 206.458 9.34H206.738C206.906 9.34 207.009 9.43333 207.046 9.62C207.112 10.068 207.368 10.46 207.816 10.796C208.264 11.132 208.908 11.3 209.748 11.3C210.635 11.3 211.293 11.1413 211.722 10.824C212.161 10.4973 212.38 10.0447 212.38 9.466C212.38 9.11133 212.273 8.822 212.058 8.598C211.853 8.36467 211.55 8.164 211.148 7.996C210.747 7.81867 210.14 7.59933 209.328 7.338C208.61 7.10467 208.045 6.876 207.634 6.652C207.233 6.428 206.934 6.15267 206.738 5.826C206.542 5.49933 206.444 5.084 206.444 4.58C206.444 4.104 206.57 3.67467 206.822 3.292C207.084 2.90933 207.457 2.61067 207.942 2.396C208.428 2.172 209.006 2.06 209.678 2.06C210.369 2.06 210.962 2.186 211.456 2.438C211.951 2.68067 212.324 2.99333 212.576 3.376C212.828 3.74933 212.964 4.12733 212.982 4.51C212.982 4.58467 212.954 4.65 212.898 4.706C212.852 4.762 212.782 4.79 212.688 4.79H212.408C212.343 4.79 212.278 4.77133 212.212 4.734C212.147 4.68733 212.11 4.61267 212.1 4.51C212.044 4.04333 211.792 3.66067 211.344 3.362C210.906 3.054 210.35 2.9 209.678 2.9C208.96 2.9 208.386 3.04 207.956 3.32C207.536 3.6 207.326 4.02 207.326 4.58C207.326 4.944 207.42 5.24733 207.606 5.49C207.802 5.72333 208.092 5.92867 208.474 6.106C208.857 6.274 209.422 6.47933 210.168 6.722C210.934 6.96467 211.531 7.198 211.96 7.422C212.39 7.646 212.712 7.91667 212.926 8.234C213.15 8.55133 213.262 8.962 213.262 9.466C213.262 10.306 212.95 10.964 212.324 11.44C211.699 11.9067 210.84 12.14 209.748 12.14ZM217.763 12.14C217.315 12.14 216.899 12.0467 216.517 11.86C216.134 11.6733 215.826 11.4213 215.593 11.104C215.369 10.7867 215.257 10.4367 215.257 10.054C215.257 9.438 215.504 8.934 215.999 8.542C216.503 8.15 217.179 7.898 218.029 7.786L220.241 7.478V6.988C220.241 6.47467 220.082 6.08267 219.765 5.812C219.457 5.532 218.981 5.392 218.337 5.392C217.861 5.392 217.469 5.48533 217.161 5.672C216.862 5.85867 216.671 6.08267 216.587 6.344C216.549 6.456 216.503 6.53533 216.447 6.582C216.4 6.61933 216.335 6.638 216.251 6.638H216.055C215.971 6.638 215.896 6.61 215.831 6.554C215.775 6.48867 215.747 6.414 215.747 6.33C215.747 6.12467 215.84 5.88667 216.027 5.616C216.213 5.336 216.503 5.09333 216.895 4.888C217.287 4.68267 217.767 4.58 218.337 4.58C219.335 4.58 220.045 4.818 220.465 5.294C220.885 5.77 221.095 6.34867 221.095 7.03V11.692C221.095 11.7853 221.067 11.86 221.011 11.916C220.955 11.972 220.88 12 220.787 12H220.549C220.455 12 220.381 11.972 220.325 11.916C220.269 11.86 220.241 11.7853 220.241 11.692V11.034C220.035 11.342 219.732 11.6033 219.331 11.818C218.939 12.0327 218.416 12.14 217.763 12.14ZM217.903 11.328C218.584 11.328 219.144 11.104 219.583 10.656C220.021 10.208 220.241 9.564 220.241 8.724V8.248L218.435 8.5C217.669 8.60267 217.091 8.78 216.699 9.032C216.307 9.284 216.111 9.60133 216.111 9.984C216.111 10.4133 216.288 10.7447 216.643 10.978C217.007 11.2113 217.427 11.328 217.903 11.328ZM224.331 12C224.237 12 224.163 11.972 224.107 11.916C224.051 11.86 224.023 11.7853 224.023 11.692V2.368C224.023 2.27467 224.051 2.2 224.107 2.144C224.163 2.088 224.237 2.06 224.331 2.06H224.569C224.662 2.06 224.737 2.088 224.793 2.144C224.849 2.2 224.877 2.27467 224.877 2.368V11.692C224.877 11.7853 224.849 11.86 224.793 11.916C224.737 11.972 224.662 12 224.569 12H224.331ZM230.555 12.14C229.668 12.14 228.954 11.8507 228.413 11.272C227.872 10.684 227.564 9.9 227.489 8.92L227.475 8.36L227.489 7.8C227.564 6.82933 227.867 6.05 228.399 5.462C228.94 4.874 229.659 4.58 230.555 4.58C231.526 4.58 232.282 4.902 232.823 5.546C233.374 6.19 233.649 7.072 233.649 8.192V8.402C233.649 8.49533 233.616 8.57 233.551 8.626C233.495 8.682 233.42 8.71 233.327 8.71H228.343V8.85C228.362 9.28867 228.46 9.69933 228.637 10.082C228.824 10.4553 229.08 10.7587 229.407 10.992C229.734 11.216 230.116 11.328 230.555 11.328C231.068 11.328 231.484 11.23 231.801 11.034C232.128 10.8287 232.361 10.6233 232.501 10.418C232.585 10.306 232.646 10.236 232.683 10.208C232.73 10.18 232.809 10.166 232.921 10.166H233.145C233.229 10.166 233.299 10.1893 233.355 10.236C233.411 10.2827 233.439 10.3433 233.439 10.418C233.439 10.614 233.313 10.852 233.061 11.132C232.818 11.4027 232.478 11.6407 232.039 11.846C231.6 12.042 231.106 12.14 230.555 12.14ZM232.795 7.926V7.87C232.795 7.15133 232.59 6.55867 232.179 6.092C231.778 5.62533 231.236 5.392 230.555 5.392C229.874 5.392 229.332 5.62533 228.931 6.092C228.539 6.55867 228.343 7.15133 228.343 7.87V7.926H232.795Z" fill="#FCFCFC"/>
<path d="M246.42 12.14C245.767 12.14 245.197 12.0187 244.712 11.776C244.236 11.524 243.867 11.202 243.606 10.81C243.354 10.418 243.219 9.998 243.2 9.55V9.522C243.2 9.44733 243.223 9.39133 243.27 9.354C243.326 9.30733 243.396 9.284 243.48 9.284H243.746C243.839 9.284 243.914 9.30733 243.97 9.354C244.026 9.39133 244.068 9.47533 244.096 9.606C244.236 10.1753 244.521 10.6 244.95 10.88C245.379 11.16 245.869 11.3 246.42 11.3C247.139 11.3 247.731 11.0853 248.198 10.656C248.674 10.2267 248.912 9.62933 248.912 8.864C248.912 8.39733 248.8 7.99133 248.576 7.646C248.361 7.30067 248.063 7.03467 247.68 6.848C247.297 6.66133 246.877 6.568 246.42 6.568C246.047 6.568 245.743 6.61933 245.51 6.722C245.286 6.81533 245.057 6.946 244.824 7.114C244.684 7.21667 244.567 7.29133 244.474 7.338C244.39 7.38467 244.297 7.408 244.194 7.408H243.942C243.858 7.408 243.783 7.38 243.718 7.324C243.653 7.25867 243.625 7.184 243.634 7.1L244.054 2.522C244.063 2.41933 244.091 2.34 244.138 2.284C244.194 2.228 244.269 2.2 244.362 2.2H248.926C249.019 2.2 249.094 2.228 249.15 2.284C249.206 2.34 249.234 2.41467 249.234 2.508V2.732C249.234 2.82533 249.206 2.9 249.15 2.956C249.094 3.012 249.019 3.04 248.926 3.04H244.908L244.614 6.204C245.109 5.88667 245.711 5.728 246.42 5.728C247.055 5.728 247.624 5.84933 248.128 6.092C248.641 6.33467 249.047 6.694 249.346 7.17C249.645 7.63667 249.794 8.20133 249.794 8.864C249.794 9.564 249.645 10.1613 249.346 10.656C249.047 11.1507 248.641 11.524 248.128 11.776C247.624 12.0187 247.055 12.14 246.42 12.14ZM253.928 7.1C253.33 7.1 252.859 6.94133 252.514 6.624C252.178 6.29733 251.996 5.84933 251.968 5.28C251.958 5.12133 251.954 4.92067 251.954 4.678C251.954 4.41667 251.958 4.202 251.968 4.034C251.996 3.446 252.173 2.984 252.5 2.648C252.826 2.30267 253.302 2.13 253.928 2.13C254.553 2.13 255.029 2.30267 255.356 2.648C255.682 2.984 255.86 3.446 255.888 4.034C255.906 4.37 255.916 4.58467 255.916 4.678C255.916 4.762 255.906 4.96267 255.888 5.28C255.86 5.84933 255.673 6.29733 255.328 6.624C254.992 6.94133 254.525 7.1 253.928 7.1ZM252.724 12C252.64 12 252.57 11.9767 252.514 11.93C252.467 11.874 252.444 11.804 252.444 11.72C252.444 11.664 252.462 11.6127 252.5 11.566L259.402 2.466C259.476 2.36333 259.542 2.29333 259.598 2.256C259.663 2.21867 259.752 2.2 259.864 2.2H260.102C260.186 2.2 260.251 2.228 260.298 2.284C260.354 2.33067 260.382 2.396 260.382 2.48C260.382 2.536 260.363 2.58733 260.326 2.634L253.424 11.734C253.349 11.8273 253.279 11.8973 253.214 11.944C253.158 11.9813 253.074 12 252.962 12H252.724ZM253.928 6.386C254.31 6.386 254.59 6.274 254.768 6.05C254.945 5.826 255.048 5.55533 255.076 5.238C255.094 4.88333 255.104 4.68733 255.104 4.65C255.104 4.58467 255.094 4.39333 255.076 4.076C255.057 3.74933 254.954 3.474 254.768 3.25C254.59 3.026 254.31 2.914 253.928 2.914C253.545 2.914 253.26 3.026 253.074 3.25C252.896 3.474 252.798 3.74933 252.78 4.076C252.77 4.23467 252.766 4.426 252.766 4.65C252.766 4.86467 252.77 5.06067 252.78 5.238C252.808 5.55533 252.91 5.826 253.088 6.05C253.265 6.274 253.545 6.386 253.928 6.386ZM258.87 12.084C258.272 12.084 257.801 11.916 257.456 11.58C257.12 11.2347 256.938 10.7727 256.91 10.194C256.9 10.0353 256.896 9.83467 256.896 9.592C256.896 9.33067 256.9 9.116 256.91 8.948C256.938 8.36 257.115 7.898 257.442 7.562C257.768 7.21667 258.244 7.044 258.87 7.044C259.495 7.044 259.971 7.21667 260.298 7.562C260.624 7.898 260.802 8.36 260.83 8.948C260.848 9.284 260.858 9.49867 260.858 9.592C260.858 9.676 260.848 9.87667 260.83 10.194C260.802 10.7727 260.615 11.2347 260.27 11.58C259.934 11.916 259.467 12.084 258.87 12.084ZM258.87 11.3C259.252 11.3 259.532 11.188 259.71 10.964C259.887 10.74 259.99 10.4693 260.018 10.152C260.036 9.79733 260.046 9.60133 260.046 9.564C260.046 9.49867 260.036 9.30733 260.018 8.99C259.999 8.66333 259.896 8.388 259.71 8.164C259.532 7.94 259.252 7.828 258.87 7.828C258.487 7.828 258.202 7.94 258.016 8.164C257.838 8.388 257.74 8.66333 257.722 8.99C257.712 9.14867 257.708 9.34 257.708 9.564C257.708 9.77867 257.712 9.97467 257.722 10.152C257.75 10.4693 257.852 10.74 258.03 10.964C258.207 11.188 258.487 11.3 258.87 11.3Z" fill="#FCFCFC"/>
<path d="M396.624 37C396.531 37 396.456 36.972 396.4 36.916C396.344 36.86 396.316 36.7853 396.316 36.692V27.522C396.316 27.4287 396.344 27.354 396.4 27.298C396.456 27.2327 396.531 27.2 396.624 27.2H400.026C401.025 27.2 401.809 27.452 402.378 27.956C402.957 28.4507 403.246 29.1647 403.246 30.098C403.246 31.0313 402.957 31.75 402.378 32.254C401.809 32.7487 401.025 32.996 400.026 32.996H397.198V36.692C397.198 36.7853 397.165 36.86 397.1 36.916C397.044 36.972 396.969 37 396.876 37H396.624ZM399.956 32.156C400.759 32.156 401.361 31.9833 401.762 31.638C402.163 31.2833 402.364 30.77 402.364 30.098C402.364 29.426 402.163 28.9173 401.762 28.572C401.361 28.2173 400.759 28.04 399.956 28.04H397.198V32.156H399.956ZM405.933 37C405.84 37 405.765 36.972 405.709 36.916C405.653 36.86 405.625 36.7853 405.625 36.692V30.042C405.625 29.9487 405.653 29.874 405.709 29.818C405.765 29.7527 405.84 29.72 405.933 29.72H406.157C406.25 29.72 406.325 29.7527 406.381 29.818C406.446 29.874 406.479 29.9487 406.479 30.042V30.686C406.815 30.042 407.45 29.72 408.383 29.72H408.901C408.994 29.72 409.069 29.748 409.125 29.804C409.181 29.86 409.209 29.9347 409.209 30.028V30.224C409.209 30.3173 409.181 30.392 409.125 30.448C409.069 30.504 408.994 30.532 408.901 30.532H408.299C407.739 30.532 407.296 30.6953 406.969 31.022C406.642 31.3487 406.479 31.792 406.479 32.352V36.692C406.479 36.7853 406.446 36.86 406.381 36.916C406.325 36.972 406.25 37 406.157 37H405.933ZM411.346 28.222C411.253 28.222 411.178 28.194 411.122 28.138C411.066 28.082 411.038 28.0073 411.038 27.914V27.382C411.038 27.2887 411.066 27.214 411.122 27.158C411.178 27.0927 411.253 27.06 411.346 27.06H411.878C411.972 27.06 412.046 27.0927 412.102 27.158C412.168 27.214 412.2 27.2887 412.2 27.382V27.914C412.2 28.0073 412.168 28.082 412.102 28.138C412.046 28.194 411.972 28.222 411.878 28.222H411.346ZM411.5 37C411.407 37 411.332 36.972 411.276 36.916C411.22 36.86 411.192 36.7853 411.192 36.692V30.028C411.192 29.9347 411.22 29.86 411.276 29.804C411.332 29.748 411.407 29.72 411.5 29.72H411.738C411.832 29.72 411.906 29.748 411.962 29.804C412.018 29.86 412.046 29.9347 412.046 30.028V36.692C412.046 36.7853 412.018 36.86 411.962 36.916C411.906 36.972 411.832 37 411.738 37H411.5ZM417.515 37C417.254 37 417.077 36.8833 416.983 36.65L414.407 30.154L414.379 30C414.379 29.9253 414.407 29.86 414.463 29.804C414.519 29.748 414.585 29.72 414.659 29.72H414.953C415.037 29.72 415.103 29.7433 415.149 29.79C415.205 29.8367 415.243 29.8833 415.261 29.93L417.627 35.978L419.993 29.93C420.012 29.8833 420.045 29.8367 420.091 29.79C420.147 29.7433 420.217 29.72 420.301 29.72H420.595C420.67 29.72 420.735 29.748 420.791 29.804C420.847 29.86 420.875 29.9253 420.875 30L420.847 30.154L418.271 36.65C418.178 36.8833 418.001 37 417.739 37H417.515ZM424.915 37.14C424.467 37.14 424.052 37.0467 423.669 36.86C423.287 36.6733 422.979 36.4213 422.745 36.104C422.521 35.7867 422.409 35.4367 422.409 35.054C422.409 34.438 422.657 33.934 423.151 33.542C423.655 33.15 424.332 32.898 425.181 32.786L427.393 32.478V31.988C427.393 31.4747 427.235 31.0827 426.917 30.812C426.609 30.532 426.133 30.392 425.489 30.392C425.013 30.392 424.621 30.4853 424.313 30.672C424.015 30.8587 423.823 31.0827 423.739 31.344C423.702 31.456 423.655 31.5353 423.599 31.582C423.553 31.6193 423.487 31.638 423.403 31.638H423.207C423.123 31.638 423.049 31.61 422.983 31.554C422.927 31.4887 422.899 31.414 422.899 31.33C422.899 31.1247 422.993 30.8867 423.179 30.616C423.366 30.336 423.655 30.0933 424.047 29.888C424.439 29.6827 424.92 29.58 425.489 29.58C426.488 29.58 427.197 29.818 427.617 30.294C428.037 30.77 428.247 31.3487 428.247 32.03V36.692C428.247 36.7853 428.219 36.86 428.163 36.916C428.107 36.972 428.033 37 427.939 37H427.701C427.608 37 427.533 36.972 427.477 36.916C427.421 36.86 427.393 36.7853 427.393 36.692V36.034C427.188 36.342 426.885 36.6033 426.483 36.818C426.091 37.0327 425.569 37.14 424.915 37.14ZM425.055 36.328C425.737 36.328 426.297 36.104 426.735 35.656C427.174 35.208 427.393 34.564 427.393 33.724V33.248L425.587 33.5C424.822 33.6027 424.243 33.78 423.851 34.032C423.459 34.284 423.263 34.6013 423.263 34.984C423.263 35.4133 423.441 35.7447 423.795 35.978C424.159 36.2113 424.579 36.328 425.055 36.328ZM433.543 37C432.852 37 432.362 36.7947 432.073 36.384C431.784 35.964 431.639 35.39 431.639 34.662V30.532H430.547C430.454 30.532 430.379 30.504 430.323 30.448C430.267 30.392 430.239 30.3173 430.239 30.224V30.028C430.239 29.9347 430.267 29.86 430.323 29.804C430.379 29.748 430.454 29.72 430.547 29.72H431.639V27.368C431.639 27.2747 431.667 27.2 431.723 27.144C431.779 27.088 431.854 27.06 431.947 27.06H432.185C432.278 27.06 432.353 27.088 432.409 27.144C432.465 27.2 432.493 27.2747 432.493 27.368V29.72H434.229C434.322 29.72 434.397 29.748 434.453 29.804C434.509 29.86 434.537 29.9347 434.537 30.028V30.224C434.537 30.3173 434.509 30.392 434.453 30.448C434.397 30.504 434.322 30.532 434.229 30.532H432.493V34.606C432.493 35.1287 432.577 35.5253 432.745 35.796C432.922 36.0573 433.212 36.188 433.613 36.188H434.369C434.462 36.188 434.537 36.216 434.593 36.272C434.649 36.328 434.677 36.4027 434.677 36.496V36.692C434.677 36.7853 434.649 36.86 434.593 36.916C434.537 36.972 434.462 37 434.369 37H433.543ZM439.526 37.14C438.64 37.14 437.926 36.8507 437.384 36.272C436.843 35.684 436.535 34.9 436.46 33.92L436.446 33.36L436.46 32.8C436.535 31.8293 436.838 31.05 437.37 30.462C437.912 29.874 438.63 29.58 439.526 29.58C440.497 29.58 441.253 29.902 441.794 30.546C442.345 31.19 442.62 32.072 442.62 33.192V33.402C442.62 33.4953 442.588 33.57 442.522 33.626C442.466 33.682 442.392 33.71 442.298 33.71H437.314V33.85C437.333 34.2887 437.431 34.6993 437.608 35.082C437.795 35.4553 438.052 35.7587 438.378 35.992C438.705 36.216 439.088 36.328 439.526 36.328C440.04 36.328 440.455 36.23 440.772 36.034C441.099 35.8287 441.332 35.6233 441.472 35.418C441.556 35.306 441.617 35.236 441.654 35.208C441.701 35.18 441.78 35.166 441.892 35.166H442.116C442.2 35.166 442.27 35.1893 442.326 35.236C442.382 35.2827 442.41 35.3433 442.41 35.418C442.41 35.614 442.284 35.852 442.032 36.132C441.79 36.4027 441.449 36.6407 441.01 36.846C440.572 37.042 440.077 37.14 439.526 37.14ZM441.766 32.926V32.87C441.766 32.1513 441.561 31.5587 441.15 31.092C440.749 30.6253 440.208 30.392 439.526 30.392C438.845 30.392 438.304 30.6253 437.902 31.092C437.51 31.5587 437.314 32.1513 437.314 32.87V32.926H441.766ZM452.598 37.14C451.87 37.14 451.236 37.0233 450.694 36.79C450.162 36.5473 449.752 36.2347 449.462 35.852C449.182 35.4693 449.033 35.0587 449.014 34.62C449.014 34.5453 449.042 34.48 449.098 34.424C449.154 34.368 449.224 34.34 449.308 34.34H449.588C449.756 34.34 449.859 34.4333 449.896 34.62C449.962 35.068 450.218 35.46 450.666 35.796C451.114 36.132 451.758 36.3 452.598 36.3C453.485 36.3 454.143 36.1413 454.572 35.824C455.011 35.4973 455.23 35.0447 455.23 34.466C455.23 34.1113 455.123 33.822 454.908 33.598C454.703 33.3647 454.4 33.164 453.998 32.996C453.597 32.8187 452.99 32.5993 452.178 32.338C451.46 32.1047 450.895 31.876 450.484 31.652C450.083 31.428 449.784 31.1527 449.588 30.826C449.392 30.4993 449.294 30.084 449.294 29.58C449.294 29.104 449.42 28.6747 449.672 28.292C449.934 27.9093 450.307 27.6107 450.792 27.396C451.278 27.172 451.856 27.06 452.528 27.06C453.219 27.06 453.812 27.186 454.306 27.438C454.801 27.6807 455.174 27.9933 455.426 28.376C455.678 28.7493 455.814 29.1273 455.832 29.51C455.832 29.5847 455.804 29.65 455.748 29.706C455.702 29.762 455.632 29.79 455.538 29.79H455.258C455.193 29.79 455.128 29.7713 455.062 29.734C454.997 29.6873 454.96 29.6127 454.95 29.51C454.894 29.0433 454.642 28.6607 454.194 28.362C453.756 28.054 453.2 27.9 452.528 27.9C451.81 27.9 451.236 28.04 450.806 28.32C450.386 28.6 450.176 29.02 450.176 29.58C450.176 29.944 450.27 30.2473 450.456 30.49C450.652 30.7233 450.942 30.9287 451.324 31.106C451.707 31.274 452.272 31.4793 453.018 31.722C453.784 31.9647 454.381 32.198 454.81 32.422C455.24 32.646 455.562 32.9167 455.776 33.234C456 33.5513 456.112 33.962 456.112 34.466C456.112 35.306 455.8 35.964 455.174 36.44C454.549 36.9067 453.69 37.14 452.598 37.14ZM460.613 37.14C460.165 37.14 459.749 37.0467 459.367 36.86C458.984 36.6733 458.676 36.4213 458.443 36.104C458.219 35.7867 458.107 35.4367 458.107 35.054C458.107 34.438 458.354 33.934 458.849 33.542C459.353 33.15 460.029 32.898 460.879 32.786L463.091 32.478V31.988C463.091 31.4747 462.932 31.0827 462.615 30.812C462.307 30.532 461.831 30.392 461.187 30.392C460.711 30.392 460.319 30.4853 460.011 30.672C459.712 30.8587 459.521 31.0827 459.437 31.344C459.399 31.456 459.353 31.5353 459.297 31.582C459.25 31.6193 459.185 31.638 459.101 31.638H458.905C458.821 31.638 458.746 31.61 458.681 31.554C458.625 31.4887 458.597 31.414 458.597 31.33C458.597 31.1247 458.69 30.8867 458.877 30.616C459.063 30.336 459.353 30.0933 459.745 29.888C460.137 29.6827 460.617 29.58 461.187 29.58C462.185 29.58 462.895 29.818 463.315 30.294C463.735 30.77 463.945 31.3487 463.945 32.03V36.692C463.945 36.7853 463.917 36.86 463.861 36.916C463.805 36.972 463.73 37 463.637 37H463.399C463.305 37 463.231 36.972 463.175 36.916C463.119 36.86 463.091 36.7853 463.091 36.692V36.034C462.885 36.342 462.582 36.6033 462.181 36.818C461.789 37.0327 461.266 37.14 460.613 37.14ZM460.753 36.328C461.434 36.328 461.994 36.104 462.433 35.656C462.871 35.208 463.091 34.564 463.091 33.724V33.248L461.285 33.5C460.519 33.6027 459.941 33.78 459.549 34.032C459.157 34.284 458.961 34.6013 458.961 34.984C458.961 35.4133 459.138 35.7447 459.493 35.978C459.857 36.2113 460.277 36.328 460.753 36.328ZM467.181 37C467.087 37 467.013 36.972 466.957 36.916C466.901 36.86 466.873 36.7853 466.873 36.692V27.368C466.873 27.2747 466.901 27.2 466.957 27.144C467.013 27.088 467.087 27.06 467.181 27.06H467.419C467.512 27.06 467.587 27.088 467.643 27.144C467.699 27.2 467.727 27.2747 467.727 27.368V36.692C467.727 36.7853 467.699 36.86 467.643 36.916C467.587 36.972 467.512 37 467.419 37H467.181ZM473.405 37.14C472.518 37.14 471.804 36.8507 471.263 36.272C470.722 35.684 470.414 34.9 470.339 33.92L470.325 33.36L470.339 32.8C470.414 31.8293 470.717 31.05 471.249 30.462C471.79 29.874 472.509 29.58 473.405 29.58C474.376 29.58 475.132 29.902 475.673 30.546C476.224 31.19 476.499 32.072 476.499 33.192V33.402C476.499 33.4953 476.466 33.57 476.401 33.626C476.345 33.682 476.27 33.71 476.177 33.71H471.193V33.85C471.212 34.2887 471.31 34.6993 471.487 35.082C471.674 35.4553 471.93 35.7587 472.257 35.992C472.584 36.216 472.966 36.328 473.405 36.328C473.918 36.328 474.334 36.23 474.651 36.034C474.978 35.8287 475.211 35.6233 475.351 35.418C475.435 35.306 475.496 35.236 475.533 35.208C475.58 35.18 475.659 35.166 475.771 35.166H475.995C476.079 35.166 476.149 35.1893 476.205 35.236C476.261 35.2827 476.289 35.3433 476.289 35.418C476.289 35.614 476.163 35.852 475.911 36.132C475.668 36.4027 475.328 36.6407 474.889 36.846C474.45 37.042 473.956 37.14 473.405 37.14ZM475.645 32.926V32.87C475.645 32.1513 475.44 31.5587 475.029 31.092C474.628 30.6253 474.086 30.392 473.405 30.392C472.724 30.392 472.182 30.6253 471.781 31.092C471.389 31.5587 471.193 32.1513 471.193 32.87V32.926H475.645Z" fill="#FCFCFC"/>
<path d="M489.92 37.14C489.267 37.14 488.697 37.0187 488.212 36.776C487.736 36.524 487.367 36.202 487.106 35.81C486.854 35.418 486.719 34.998 486.7 34.55V34.522C486.7 34.4473 486.723 34.3913 486.77 34.354C486.826 34.3073 486.896 34.284 486.98 34.284H487.246C487.339 34.284 487.414 34.3073 487.47 34.354C487.526 34.3913 487.568 34.4753 487.596 34.606C487.736 35.1753 488.021 35.6 488.45 35.88C488.879 36.16 489.369 36.3 489.92 36.3C490.639 36.3 491.231 36.0853 491.698 35.656C492.174 35.2267 492.412 34.6293 492.412 33.864C492.412 33.3973 492.3 32.9913 492.076 32.646C491.861 32.3007 491.563 32.0347 491.18 31.848C490.797 31.6613 490.377 31.568 489.92 31.568C489.547 31.568 489.243 31.6193 489.01 31.722C488.786 31.8153 488.557 31.946 488.324 32.114C488.184 32.2167 488.067 32.2913 487.974 32.338C487.89 32.3847 487.797 32.408 487.694 32.408H487.442C487.358 32.408 487.283 32.38 487.218 32.324C487.153 32.2587 487.125 32.184 487.134 32.1L487.554 27.522C487.563 27.4193 487.591 27.34 487.638 27.284C487.694 27.228 487.769 27.2 487.862 27.2H492.426C492.519 27.2 492.594 27.228 492.65 27.284C492.706 27.34 492.734 27.4147 492.734 27.508V27.732C492.734 27.8253 492.706 27.9 492.65 27.956C492.594 28.012 492.519 28.04 492.426 28.04H488.408L488.114 31.204C488.609 30.8867 489.211 30.728 489.92 30.728C490.555 30.728 491.124 30.8493 491.628 31.092C492.141 31.3347 492.547 31.694 492.846 32.17C493.145 32.6367 493.294 33.2013 493.294 33.864C493.294 34.564 493.145 35.1613 492.846 35.656C492.547 36.1507 492.141 36.524 491.628 36.776C491.124 37.0187 490.555 37.14 489.92 37.14ZM497.428 32.1C496.83 32.1 496.359 31.9413 496.014 31.624C495.678 31.2973 495.496 30.8493 495.468 30.28C495.458 30.1213 495.454 29.9207 495.454 29.678C495.454 29.4167 495.458 29.202 495.468 29.034C495.496 28.446 495.673 27.984 496 27.648C496.326 27.3027 496.802 27.13 497.428 27.13C498.053 27.13 498.529 27.3027 498.856 27.648C499.182 27.984 499.36 28.446 499.388 29.034C499.406 29.37 499.416 29.5847 499.416 29.678C499.416 29.762 499.406 29.9627 499.388 30.28C499.36 30.8493 499.173 31.2973 498.828 31.624C498.492 31.9413 498.025 32.1 497.428 32.1ZM496.224 37C496.14 37 496.07 36.9767 496.014 36.93C495.967 36.874 495.944 36.804 495.944 36.72C495.944 36.664 495.962 36.6127 496 36.566L502.902 27.466C502.976 27.3633 503.042 27.2933 503.098 27.256C503.163 27.2187 503.252 27.2 503.364 27.2H503.602C503.686 27.2 503.751 27.228 503.798 27.284C503.854 27.3307 503.882 27.396 503.882 27.48C503.882 27.536 503.863 27.5873 503.826 27.634L496.924 36.734C496.849 36.8273 496.779 36.8973 496.714 36.944C496.658 36.9813 496.574 37 496.462 37H496.224ZM497.428 31.386C497.81 31.386 498.09 31.274 498.268 31.05C498.445 30.826 498.548 30.5553 498.576 30.238C498.594 29.8833 498.604 29.6873 498.604 29.65C498.604 29.5847 498.594 29.3933 498.576 29.076C498.557 28.7493 498.454 28.474 498.268 28.25C498.09 28.026 497.81 27.914 497.428 27.914C497.045 27.914 496.76 28.026 496.574 28.25C496.396 28.474 496.298 28.7493 496.28 29.076C496.27 29.2347 496.266 29.426 496.266 29.65C496.266 29.8647 496.27 30.0607 496.28 30.238C496.308 30.5553 496.41 30.826 496.588 31.05C496.765 31.274 497.045 31.386 497.428 31.386ZM502.37 37.084C501.772 37.084 501.301 36.916 500.956 36.58C500.62 36.2347 500.438 35.7727 500.41 35.194C500.4 35.0353 500.396 34.8347 500.396 34.592C500.396 34.3307 500.4 34.116 500.41 33.948C500.438 33.36 500.615 32.898 500.942 32.562C501.268 32.2167 501.744 32.044 502.37 32.044C502.995 32.044 503.471 32.2167 503.798 32.562C504.124 32.898 504.302 33.36 504.33 33.948C504.348 34.284 504.358 34.4987 504.358 34.592C504.358 34.676 504.348 34.8767 504.33 35.194C504.302 35.7727 504.115 36.2347 503.77 36.58C503.434 36.916 502.967 37.084 502.37 37.084ZM502.37 36.3C502.752 36.3 503.032 36.188 503.21 35.964C503.387 35.74 503.49 35.4693 503.518 35.152C503.536 34.7973 503.546 34.6013 503.546 34.564C503.546 34.4987 503.536 34.3073 503.518 33.99C503.499 33.6633 503.396 33.388 503.21 33.164C503.032 32.94 502.752 32.828 502.37 32.828C501.987 32.828 501.702 32.94 501.516 33.164C501.338 33.388 501.24 33.6633 501.222 33.99C501.212 34.1487 501.208 34.34 501.208 34.564C501.208 34.7787 501.212 34.9747 501.222 35.152C501.25 35.4693 501.352 35.74 501.53 35.964C501.707 36.188 501.987 36.3 502.37 36.3Z" fill="#FCFCFC"/>
<path d="M441.624 69C441.531 69 441.456 68.972 441.4 68.916C441.344 68.86 441.316 68.7853 441.316 68.692V59.522C441.316 59.4287 441.344 59.354 441.4 59.298C441.456 59.2327 441.531 59.2 441.624 59.2H445.026C446.025 59.2 446.809 59.452 447.378 59.956C447.957 60.4507 448.246 61.1647 448.246 62.098C448.246 63.0313 447.957 63.75 447.378 64.254C446.809 64.7487 446.025 64.996 445.026 64.996H442.198V68.692C442.198 68.7853 442.165 68.86 442.1 68.916C442.044 68.972 441.969 69 441.876 69H441.624ZM444.956 64.156C445.759 64.156 446.361 63.9833 446.762 63.638C447.163 63.2833 447.364 62.77 447.364 62.098C447.364 61.426 447.163 60.9173 446.762 60.572C446.361 60.2173 445.759 60.04 444.956 60.04H442.198V64.156H444.956ZM453.355 69.14C452.44 69.14 451.745 68.8507 451.269 68.272C450.793 67.6933 450.555 66.9373 450.555 66.004V62.028C450.555 61.9347 450.583 61.86 450.639 61.804C450.695 61.748 450.77 61.72 450.863 61.72H451.101C451.194 61.72 451.269 61.748 451.325 61.804C451.381 61.86 451.409 61.9347 451.409 62.028V65.934C451.409 67.53 452.104 68.328 453.495 68.328C454.167 68.328 454.699 68.118 455.091 67.698C455.492 67.2687 455.693 66.6807 455.693 65.934V62.028C455.693 61.9347 455.721 61.86 455.777 61.804C455.833 61.748 455.908 61.72 456.001 61.72H456.239C456.332 61.72 456.407 61.748 456.463 61.804C456.519 61.86 456.547 61.9347 456.547 62.028V68.692C456.547 68.7853 456.519 68.86 456.463 68.916C456.407 68.972 456.332 69 456.239 69H456.001C455.908 69 455.833 68.972 455.777 68.916C455.721 68.86 455.693 68.7853 455.693 68.692V68.034C455.413 68.398 455.091 68.6733 454.727 68.86C454.372 69.0467 453.915 69.14 453.355 69.14ZM462.734 69.14C461.708 69.14 460.924 68.7713 460.382 68.034V68.692C460.382 68.7853 460.354 68.86 460.298 68.916C460.242 68.972 460.168 69 460.074 69H459.836C459.743 69 459.668 68.972 459.612 68.916C459.556 68.86 459.528 68.7853 459.528 68.692V59.368C459.528 59.2747 459.556 59.2 459.612 59.144C459.668 59.088 459.743 59.06 459.836 59.06H460.074C460.168 59.06 460.242 59.088 460.298 59.144C460.354 59.2 460.382 59.2747 460.382 59.368V62.686C460.933 61.9487 461.717 61.58 462.734 61.58C463.742 61.58 464.484 61.9113 464.96 62.574C465.446 63.2273 465.702 64.0253 465.73 64.968C465.74 65.0613 465.744 65.192 465.744 65.36C465.744 65.528 465.74 65.6587 465.73 65.752C465.702 66.6947 465.446 67.4973 464.96 68.16C464.484 68.8133 463.742 69.14 462.734 69.14ZM462.65 68.328C463.406 68.328 463.957 68.09 464.302 67.614C464.657 67.1287 464.848 66.508 464.876 65.752C464.886 65.6587 464.89 65.528 464.89 65.36C464.89 64.492 464.722 63.7827 464.386 63.232C464.05 62.672 463.472 62.392 462.65 62.392C462.156 62.392 461.74 62.5087 461.404 62.742C461.068 62.9753 460.816 63.274 460.648 63.638C460.48 63.9927 460.392 64.3707 460.382 64.772L460.368 65.318L460.382 65.864C460.41 66.5267 460.611 67.1053 460.984 67.6C461.358 68.0853 461.913 68.328 462.65 68.328ZM468.658 69C468.564 69 468.49 68.972 468.434 68.916C468.378 68.86 468.35 68.7853 468.35 68.692V59.368C468.35 59.2747 468.378 59.2 468.434 59.144C468.49 59.088 468.564 59.06 468.658 59.06H468.896C468.989 59.06 469.064 59.088 469.12 59.144C469.176 59.2 469.204 59.2747 469.204 59.368V68.692C469.204 68.7853 469.176 68.86 469.12 68.916C469.064 68.972 468.989 69 468.896 69H468.658ZM472.334 60.222C472.241 60.222 472.166 60.194 472.11 60.138C472.054 60.082 472.026 60.0073 472.026 59.914V59.382C472.026 59.2887 472.054 59.214 472.11 59.158C472.166 59.0927 472.241 59.06 472.334 59.06H472.866C472.959 59.06 473.034 59.0927 473.09 59.158C473.155 59.214 473.188 59.2887 473.188 59.382V59.914C473.188 60.0073 473.155 60.082 473.09 60.138C473.034 60.194 472.959 60.222 472.866 60.222H472.334ZM472.488 69C472.395 69 472.32 68.972 472.264 68.916C472.208 68.86 472.18 68.7853 472.18 68.692V62.028C472.18 61.9347 472.208 61.86 472.264 61.804C472.32 61.748 472.395 61.72 472.488 61.72H472.726C472.819 61.72 472.894 61.748 472.95 61.804C473.006 61.86 473.034 61.9347 473.034 62.028V68.692C473.034 68.7853 473.006 68.86 472.95 68.916C472.894 68.972 472.819 69 472.726 69H472.488ZM478.755 69.14C477.785 69.14 477.033 68.86 476.501 68.3C475.969 67.7307 475.689 66.9373 475.661 65.92L475.647 65.36L475.661 64.8C475.689 63.7827 475.969 62.994 476.501 62.434C477.033 61.8647 477.785 61.58 478.755 61.58C479.371 61.58 479.894 61.692 480.323 61.916C480.762 62.1307 481.089 62.4107 481.303 62.756C481.518 63.092 481.635 63.442 481.653 63.806C481.663 63.89 481.635 63.9647 481.569 64.03C481.504 64.086 481.429 64.114 481.345 64.114H481.149C481.056 64.114 480.986 64.0953 480.939 64.058C480.902 64.0113 480.86 63.932 480.813 63.82C480.627 63.3067 480.365 62.9427 480.029 62.728C479.693 62.504 479.269 62.392 478.755 62.392C478.083 62.392 477.547 62.5973 477.145 63.008C476.753 63.4093 476.543 64.03 476.515 64.87L476.501 65.36L476.515 65.85C476.543 66.69 476.753 67.3153 477.145 67.726C477.547 68.1273 478.083 68.328 478.755 68.328C479.269 68.328 479.693 68.2207 480.029 68.006C480.365 67.782 480.627 67.4133 480.813 66.9C480.86 66.788 480.902 66.7133 480.939 66.676C480.986 66.6293 481.056 66.606 481.149 66.606H481.345C481.429 66.606 481.504 66.6387 481.569 66.704C481.635 66.76 481.663 66.83 481.653 66.914C481.635 67.278 481.518 67.6327 481.303 67.978C481.089 68.314 480.762 68.594 480.323 68.818C479.894 69.0327 479.371 69.14 478.755 69.14ZM491.635 69.14C490.907 69.14 490.272 69.0233 489.731 68.79C489.199 68.5473 488.788 68.2347 488.499 67.852C488.219 67.4693 488.069 67.0587 488.051 66.62C488.051 66.5453 488.079 66.48 488.135 66.424C488.191 66.368 488.261 66.34 488.345 66.34H488.625C488.793 66.34 488.895 66.4333 488.933 66.62C488.998 67.068 489.255 67.46 489.703 67.796C490.151 68.132 490.795 68.3 491.635 68.3C492.521 68.3 493.179 68.1413 493.609 67.824C494.047 67.4973 494.267 67.0447 494.267 66.466C494.267 66.1113 494.159 65.822 493.945 65.598C493.739 65.3647 493.436 65.164 493.035 64.996C492.633 64.8187 492.027 64.5993 491.215 64.338C490.496 64.1047 489.931 63.876 489.521 63.652C489.119 63.428 488.821 63.1527 488.625 62.826C488.429 62.4993 488.331 62.084 488.331 61.58C488.331 61.104 488.457 60.6747 488.709 60.292C488.97 59.9093 489.343 59.6107 489.829 59.396C490.314 59.172 490.893 59.06 491.565 59.06C492.255 59.06 492.848 59.186 493.343 59.438C493.837 59.6807 494.211 59.9933 494.463 60.376C494.715 60.7493 494.85 61.1273 494.869 61.51C494.869 61.5847 494.841 61.65 494.785 61.706C494.738 61.762 494.668 61.79 494.575 61.79H494.295C494.229 61.79 494.164 61.7713 494.099 61.734C494.033 61.6873 493.996 61.6127 493.987 61.51C493.931 61.0433 493.679 60.6607 493.231 60.362C492.792 60.054 492.237 59.9 491.565 59.9C490.846 59.9 490.272 60.04 489.843 60.32C489.423 60.6 489.213 61.02 489.213 61.58C489.213 61.944 489.306 62.2473 489.493 62.49C489.689 62.7233 489.978 62.9287 490.361 63.106C490.743 63.274 491.308 63.4793 492.055 63.722C492.82 63.9647 493.417 64.198 493.847 64.422C494.276 64.646 494.598 64.9167 494.813 65.234C495.037 65.5513 495.149 65.962 495.149 66.466C495.149 67.306 494.836 67.964 494.211 68.44C493.585 68.9067 492.727 69.14 491.635 69.14ZM499.649 69.14C499.201 69.14 498.786 69.0467 498.403 68.86C498.02 68.6733 497.712 68.4213 497.479 68.104C497.255 67.7867 497.143 67.4367 497.143 67.054C497.143 66.438 497.39 65.934 497.885 65.542C498.389 65.15 499.066 64.898 499.915 64.786L502.127 64.478V63.988C502.127 63.4747 501.968 63.0827 501.651 62.812C501.343 62.532 500.867 62.392 500.223 62.392C499.747 62.392 499.355 62.4853 499.047 62.672C498.748 62.8587 498.557 63.0827 498.473 63.344C498.436 63.456 498.389 63.5353 498.333 63.582C498.286 63.6193 498.221 63.638 498.137 63.638H497.941C497.857 63.638 497.782 63.61 497.717 63.554C497.661 63.4887 497.633 63.414 497.633 63.33C497.633 63.1247 497.726 62.8867 497.913 62.616C498.1 62.336 498.389 62.0933 498.781 61.888C499.173 61.6827 499.654 61.58 500.223 61.58C501.222 61.58 501.931 61.818 502.351 62.294C502.771 62.77 502.981 63.3487 502.981 64.03V68.692C502.981 68.7853 502.953 68.86 502.897 68.916C502.841 68.972 502.766 69 502.673 69H502.435C502.342 69 502.267 68.972 502.211 68.916C502.155 68.86 502.127 68.7853 502.127 68.692V68.034C501.922 68.342 501.618 68.6033 501.217 68.818C500.825 69.0327 500.302 69.14 499.649 69.14ZM499.789 68.328C500.47 68.328 501.03 68.104 501.469 67.656C501.908 67.208 502.127 66.564 502.127 65.724V65.248L500.321 65.5C499.556 65.6027 498.977 65.78 498.585 66.032C498.193 66.284 497.997 66.6013 497.997 66.984C497.997 67.4133 498.174 67.7447 498.529 67.978C498.893 68.2113 499.313 68.328 499.789 68.328ZM506.217 69C506.124 69 506.049 68.972 505.993 68.916C505.937 68.86 505.909 68.7853 505.909 68.692V59.368C505.909 59.2747 505.937 59.2 505.993 59.144C506.049 59.088 506.124 59.06 506.217 59.06H506.455C506.548 59.06 506.623 59.088 506.679 59.144C506.735 59.2 506.763 59.2747 506.763 59.368V68.692C506.763 68.7853 506.735 68.86 506.679 68.916C506.623 68.972 506.548 69 506.455 69H506.217ZM512.441 69.14C511.555 69.14 510.841 68.8507 510.299 68.272C509.758 67.684 509.45 66.9 509.375 65.92L509.361 65.36L509.375 64.8C509.45 63.8293 509.753 63.05 510.285 62.462C510.827 61.874 511.545 61.58 512.441 61.58C513.412 61.58 514.168 61.902 514.709 62.546C515.26 63.19 515.535 64.072 515.535 65.192V65.402C515.535 65.4953 515.503 65.57 515.437 65.626C515.381 65.682 515.307 65.71 515.213 65.71H510.229V65.85C510.248 66.2887 510.346 66.6993 510.523 67.082C510.71 67.4553 510.967 67.7587 511.293 67.992C511.62 68.216 512.003 68.328 512.441 68.328C512.955 68.328 513.37 68.23 513.687 68.034C514.014 67.8287 514.247 67.6233 514.387 67.418C514.471 67.306 514.532 67.236 514.569 67.208C514.616 67.18 514.695 67.166 514.807 67.166H515.031C515.115 67.166 515.185 67.1893 515.241 67.236C515.297 67.2827 515.325 67.3433 515.325 67.418C515.325 67.614 515.199 67.852 514.947 68.132C514.705 68.4027 514.364 68.6407 513.925 68.846C513.487 69.042 512.992 69.14 512.441 69.14ZM514.681 64.926V64.87C514.681 64.1513 514.476 63.5587 514.065 63.092C513.664 62.6253 513.123 62.392 512.441 62.392C511.76 62.392 511.219 62.6253 510.817 63.092C510.425 63.5587 510.229 64.1513 510.229 64.87V64.926H514.681Z" fill="#FCFCFC"/>
<path d="M530.684 69C530.591 69 530.516 68.972 530.46 68.916C530.404 68.86 530.376 68.7853 530.376 68.692V66.48H525.756C525.663 66.48 525.588 66.452 525.532 66.396C525.476 66.34 525.448 66.2653 525.448 66.172V65.948C525.448 65.808 525.499 65.668 525.602 65.528L529.858 59.438C529.905 59.3633 529.975 59.3073 530.068 59.27C530.161 59.2233 530.264 59.2 530.376 59.2H530.95C531.043 59.2 531.118 59.228 531.174 59.284C531.23 59.34 531.258 59.4147 531.258 59.508V65.64H532.532C532.625 65.64 532.7 65.668 532.756 65.724C532.812 65.78 532.84 65.8547 532.84 65.948V66.172C532.84 66.2653 532.812 66.34 532.756 66.396C532.7 66.452 532.625 66.48 532.532 66.48H531.258V68.692C531.258 68.7853 531.23 68.86 531.174 68.916C531.118 68.972 531.043 69 530.95 69H530.684ZM530.376 65.64V60.194L526.554 65.64H530.376ZM538.338 69.14C537.162 69.14 536.313 68.7853 535.79 68.076C535.277 67.3667 535.006 66.4333 534.978 65.276L534.964 64.114L534.978 62.924C535.006 61.7667 535.277 60.8333 535.79 60.124C536.313 59.4147 537.162 59.06 538.338 59.06C539.514 59.06 540.359 59.4147 540.872 60.124C541.395 60.8333 541.67 61.7667 541.698 62.924C541.708 63.1853 541.712 63.582 541.712 64.114C541.712 64.6367 541.708 65.024 541.698 65.276C541.67 66.4333 541.395 67.3667 540.872 68.076C540.359 68.7853 539.514 69.14 538.338 69.14ZM538.338 68.3C539.141 68.3 539.748 68.034 540.158 67.502C540.578 66.9607 540.798 66.1953 540.816 65.206C540.826 64.9353 540.83 64.562 540.83 64.086C540.83 63.61 540.826 63.246 540.816 62.994C540.798 62.0233 540.578 61.2673 540.158 60.726C539.748 60.1753 539.141 59.9 538.338 59.9C537.536 59.9 536.924 60.1753 536.504 60.726C536.094 61.2673 535.879 62.0233 535.86 62.994L535.846 64.086L535.86 65.206C535.879 66.1953 536.094 66.9607 536.504 67.502C536.924 68.034 537.536 68.3 538.338 68.3ZM546.069 64.1C545.472 64.1 545 63.9413 544.655 63.624C544.319 63.2973 544.137 62.8493 544.109 62.28C544.1 62.1213 544.095 61.9207 544.095 61.678C544.095 61.4167 544.1 61.202 544.109 61.034C544.137 60.446 544.314 59.984 544.641 59.648C544.968 59.3027 545.444 59.13 546.069 59.13C546.694 59.13 547.17 59.3027 547.497 59.648C547.824 59.984 548.001 60.446 548.029 61.034C548.048 61.37 548.057 61.5847 548.057 61.678C548.057 61.762 548.048 61.9627 548.029 62.28C548.001 62.8493 547.814 63.2973 547.469 63.624C547.133 63.9413 546.666 64.1 546.069 64.1ZM544.865 69C544.781 69 544.711 68.9767 544.655 68.93C544.608 68.874 544.585 68.804 544.585 68.72C544.585 68.664 544.604 68.6127 544.641 68.566L551.543 59.466C551.618 59.3633 551.683 59.2933 551.739 59.256C551.804 59.2187 551.893 59.2 552.005 59.2H552.243C552.327 59.2 552.392 59.228 552.439 59.284C552.495 59.3307 552.523 59.396 552.523 59.48C552.523 59.536 552.504 59.5873 552.467 59.634L545.565 68.734C545.49 68.8273 545.42 68.8973 545.355 68.944C545.299 68.9813 545.215 69 545.103 69H544.865ZM546.069 63.386C546.452 63.386 546.732 63.274 546.909 63.05C547.086 62.826 547.189 62.5553 547.217 62.238C547.236 61.8833 547.245 61.6873 547.245 61.65C547.245 61.5847 547.236 61.3933 547.217 61.076C547.198 60.7493 547.096 60.474 546.909 60.25C546.732 60.026 546.452 59.914 546.069 59.914C545.686 59.914 545.402 60.026 545.215 60.25C545.038 60.474 544.94 60.7493 544.921 61.076C544.912 61.2347 544.907 61.426 544.907 61.65C544.907 61.8647 544.912 62.0607 544.921 62.238C544.949 62.5553 545.052 62.826 545.229 63.05C545.406 63.274 545.686 63.386 546.069 63.386ZM551.011 69.084C550.414 69.084 549.942 68.916 549.597 68.58C549.261 68.2347 549.079 67.7727 549.051 67.194C549.042 67.0353 549.037 66.8347 549.037 66.592C549.037 66.3307 549.042 66.116 549.051 65.948C549.079 65.36 549.256 64.898 549.583 64.562C549.91 64.2167 550.386 64.044 551.011 64.044C551.636 64.044 552.112 64.2167 552.439 64.562C552.766 64.898 552.943 65.36 552.971 65.948C552.99 66.284 552.999 66.4987 552.999 66.592C552.999 66.676 552.99 66.8767 552.971 67.194C552.943 67.7727 552.756 68.2347 552.411 68.58C552.075 68.916 551.608 69.084 551.011 69.084ZM551.011 68.3C551.394 68.3 551.674 68.188 551.851 67.964C552.028 67.74 552.131 67.4693 552.159 67.152C552.178 66.7973 552.187 66.6013 552.187 66.564C552.187 66.4987 552.178 66.3073 552.159 65.99C552.14 65.6633 552.038 65.388 551.851 65.164C551.674 64.94 551.394 64.828 551.011 64.828C550.628 64.828 550.344 64.94 550.157 65.164C549.98 65.388 549.882 65.6633 549.863 65.99C549.854 66.1487 549.849 66.34 549.849 66.564C549.849 66.7787 549.854 66.9747 549.863 67.152C549.891 67.4693 549.994 67.74 550.171 67.964C550.348 68.188 550.628 68.3 551.011 68.3Z" fill="#FCFCFC"/>
<path d="M453.624 102C453.531 102 453.456 101.972 453.4 101.916C453.344 101.86 453.316 101.785 453.316 101.692V92.508C453.316 92.4147 453.344 92.34 453.4 92.284C453.456 92.228 453.531 92.2 453.624 92.2H453.89C453.983 92.2 454.058 92.228 454.114 92.284C454.17 92.34 454.198 92.4147 454.198 92.508V101.692C454.198 101.785 454.17 101.86 454.114 101.916C454.058 101.972 453.983 102 453.89 102H453.624ZM457.838 102C457.744 102 457.67 101.972 457.614 101.916C457.558 101.86 457.53 101.785 457.53 101.692V92.508C457.53 92.4147 457.558 92.34 457.614 92.284C457.67 92.228 457.744 92.2 457.838 92.2H458.104C458.197 92.2 458.272 92.228 458.328 92.284C458.384 92.34 458.412 92.4147 458.412 92.508V101.16H463.242C463.344 101.16 463.424 101.188 463.48 101.244C463.536 101.3 463.564 101.379 463.564 101.482V101.692C463.564 101.785 463.531 101.86 463.466 101.916C463.41 101.972 463.335 102 463.242 102H457.838ZM469.067 102.14C466.669 102.14 465.437 100.852 465.371 98.276C465.362 97.996 465.357 97.604 465.357 97.1C465.357 96.596 465.362 96.204 465.371 95.924C465.409 94.6547 465.754 93.6933 466.407 93.04C467.061 92.3867 467.947 92.06 469.067 92.06C470.187 92.06 471.074 92.3867 471.727 93.04C472.381 93.6933 472.726 94.6547 472.763 95.924C472.782 96.484 472.791 96.876 472.791 97.1C472.791 97.324 472.782 97.716 472.763 98.276C472.698 100.852 471.466 102.14 469.067 102.14ZM469.067 101.3C469.907 101.3 470.575 101.048 471.069 100.544C471.573 100.031 471.844 99.2513 471.881 98.206C471.9 97.646 471.909 97.2773 471.909 97.1C471.909 96.9227 471.9 96.554 471.881 95.994C471.844 94.9487 471.573 94.174 471.069 93.67C470.565 93.1567 469.898 92.9 469.067 92.9C468.237 92.9 467.569 93.1567 467.065 93.67C466.561 94.174 466.291 94.9487 466.253 95.994C466.244 96.274 466.239 96.6427 466.239 97.1C466.239 97.5573 466.244 97.926 466.253 98.206C466.291 99.2513 466.557 100.031 467.051 100.544C467.555 101.048 468.227 101.3 469.067 101.3Z" fill="#FCFCFC"/>
<path d="M487.684 102C487.591 102 487.516 101.972 487.46 101.916C487.404 101.86 487.376 101.785 487.376 101.692V99.48H482.756C482.663 99.48 482.588 99.452 482.532 99.396C482.476 99.34 482.448 99.2653 482.448 99.172V98.948C482.448 98.808 482.499 98.668 482.602 98.528L486.858 92.438C486.905 92.3633 486.975 92.3073 487.068 92.27C487.161 92.2233 487.264 92.2 487.376 92.2H487.95C488.043 92.2 488.118 92.228 488.174 92.284C488.23 92.34 488.258 92.4147 488.258 92.508V98.64H489.532C489.625 98.64 489.7 98.668 489.756 98.724C489.812 98.78 489.84 98.8547 489.84 98.948V99.172C489.84 99.2653 489.812 99.34 489.756 99.396C489.7 99.452 489.625 99.48 489.532 99.48H488.258V101.692C488.258 101.785 488.23 101.86 488.174 101.916C488.118 101.972 488.043 102 487.95 102H487.684ZM487.376 98.64V93.194L483.554 98.64H487.376ZM495.338 102.14C494.162 102.14 493.313 101.785 492.79 101.076C492.277 100.367 492.006 99.4333 491.978 98.276L491.964 97.114L491.978 95.924C492.006 94.7667 492.277 93.8333 492.79 93.124C493.313 92.4147 494.162 92.06 495.338 92.06C496.514 92.06 497.359 92.4147 497.872 93.124C498.395 93.8333 498.67 94.7667 498.698 95.924C498.708 96.1853 498.712 96.582 498.712 97.114C498.712 97.6367 498.708 98.024 498.698 98.276C498.67 99.4333 498.395 100.367 497.872 101.076C497.359 101.785 496.514 102.14 495.338 102.14ZM495.338 101.3C496.141 101.3 496.748 101.034 497.158 100.502C497.578 99.9607 497.798 99.1953 497.816 98.206C497.826 97.9353 497.83 97.562 497.83 97.086C497.83 96.61 497.826 96.246 497.816 95.994C497.798 95.0233 497.578 94.2673 497.158 93.726C496.748 93.1753 496.141 92.9 495.338 92.9C494.536 92.9 493.924 93.1753 493.504 93.726C493.094 94.2673 492.879 95.0233 492.86 95.994L492.846 97.086L492.86 98.206C492.879 99.1953 493.094 99.9607 493.504 100.502C493.924 101.034 494.536 101.3 495.338 101.3ZM503.069 97.1C502.472 97.1 502 96.9413 501.655 96.624C501.319 96.2973 501.137 95.8493 501.109 95.28C501.1 95.1213 501.095 94.9207 501.095 94.678C501.095 94.4167 501.1 94.202 501.109 94.034C501.137 93.446 501.314 92.984 501.641 92.648C501.968 92.3027 502.444 92.13 503.069 92.13C503.694 92.13 504.17 92.3027 504.497 92.648C504.824 92.984 505.001 93.446 505.029 94.034C505.048 94.37 505.057 94.5847 505.057 94.678C505.057 94.762 505.048 94.9627 505.029 95.28C505.001 95.8493 504.814 96.2973 504.469 96.624C504.133 96.9413 503.666 97.1 503.069 97.1ZM501.865 102C501.781 102 501.711 101.977 501.655 101.93C501.608 101.874 501.585 101.804 501.585 101.72C501.585 101.664 501.604 101.613 501.641 101.566L508.543 92.466C508.618 92.3633 508.683 92.2933 508.739 92.256C508.804 92.2187 508.893 92.2 509.005 92.2H509.243C509.327 92.2 509.392 92.228 509.439 92.284C509.495 92.3307 509.523 92.396 509.523 92.48C509.523 92.536 509.504 92.5873 509.467 92.634L502.565 101.734C502.49 101.827 502.42 101.897 502.355 101.944C502.299 101.981 502.215 102 502.103 102H501.865ZM503.069 96.386C503.452 96.386 503.732 96.274 503.909 96.05C504.086 95.826 504.189 95.5553 504.217 95.238C504.236 94.8833 504.245 94.6873 504.245 94.65C504.245 94.5847 504.236 94.3933 504.217 94.076C504.198 93.7493 504.096 93.474 503.909 93.25C503.732 93.026 503.452 92.914 503.069 92.914C502.686 92.914 502.402 93.026 502.215 93.25C502.038 93.474 501.94 93.7493 501.921 94.076C501.912 94.2347 501.907 94.426 501.907 94.65C501.907 94.8647 501.912 95.0607 501.921 95.238C501.949 95.5553 502.052 95.826 502.229 96.05C502.406 96.274 502.686 96.386 503.069 96.386ZM508.011 102.084C507.414 102.084 506.942 101.916 506.597 101.58C506.261 101.235 506.079 100.773 506.051 100.194C506.042 100.035 506.037 99.8347 506.037 99.592C506.037 99.3307 506.042 99.116 506.051 98.948C506.079 98.36 506.256 97.898 506.583 97.562C506.91 97.2167 507.386 97.044 508.011 97.044C508.636 97.044 509.112 97.2167 509.439 97.562C509.766 97.898 509.943 98.36 509.971 98.948C509.99 99.284 509.999 99.4987 509.999 99.592C509.999 99.676 509.99 99.8767 509.971 100.194C509.943 100.773 509.756 101.235 509.411 101.58C509.075 101.916 508.608 102.084 508.011 102.084ZM508.011 101.3C508.394 101.3 508.674 101.188 508.851 100.964C509.028 100.74 509.131 100.469 509.159 100.152C509.178 99.7973 509.187 99.6013 509.187 99.564C509.187 99.4987 509.178 99.3073 509.159 98.99C509.14 98.6633 509.038 98.388 508.851 98.164C508.674 97.94 508.394 97.828 508.011 97.828C507.628 97.828 507.344 97.94 507.157 98.164C506.98 98.388 506.882 98.6633 506.863 98.99C506.854 99.1487 506.849 99.34 506.849 99.564C506.849 99.7787 506.854 99.9747 506.863 100.152C506.891 100.469 506.994 100.74 507.171 100.964C507.348 101.188 507.628 101.3 508.011 101.3Z" fill="#FCFCFC"/>
<path d="M456.766 201C456.673 201 456.598 200.972 456.542 200.916C456.486 200.86 456.458 200.785 456.458 200.692V192.04H453.686C453.593 192.04 453.518 192.012 453.462 191.956C453.406 191.9 453.378 191.825 453.378 191.732V191.522C453.378 191.429 453.406 191.354 453.462 191.298C453.518 191.233 453.593 191.2 453.686 191.2H460.098C460.201 191.2 460.28 191.228 460.336 191.284C460.392 191.34 460.42 191.419 460.42 191.522V191.732C460.42 191.825 460.387 191.9 460.322 191.956C460.266 192.012 460.191 192.04 460.098 192.04H457.34V200.692C457.34 200.785 457.307 200.86 457.242 200.916C457.186 200.972 457.111 201 457.018 201H456.766ZM463.948 201.14C463.061 201.14 462.347 200.851 461.806 200.272C461.265 199.684 460.957 198.9 460.882 197.92L460.868 197.36L460.882 196.8C460.957 195.829 461.26 195.05 461.792 194.462C462.333 193.874 463.052 193.58 463.948 193.58C464.919 193.58 465.675 193.902 466.216 194.546C466.767 195.19 467.042 196.072 467.042 197.192V197.402C467.042 197.495 467.009 197.57 466.944 197.626C466.888 197.682 466.813 197.71 466.72 197.71H461.736V197.85C461.755 198.289 461.853 198.699 462.03 199.082C462.217 199.455 462.473 199.759 462.8 199.992C463.127 200.216 463.509 200.328 463.948 200.328C464.461 200.328 464.877 200.23 465.194 200.034C465.521 199.829 465.754 199.623 465.894 199.418C465.978 199.306 466.039 199.236 466.076 199.208C466.123 199.18 466.202 199.166 466.314 199.166H466.538C466.622 199.166 466.692 199.189 466.748 199.236C466.804 199.283 466.832 199.343 466.832 199.418C466.832 199.614 466.706 199.852 466.454 200.132C466.211 200.403 465.871 200.641 465.432 200.846C464.993 201.042 464.499 201.14 463.948 201.14ZM466.188 196.926V196.87C466.188 196.151 465.983 195.559 465.572 195.092C465.171 194.625 464.629 194.392 463.948 194.392C463.267 194.392 462.725 194.625 462.324 195.092C461.932 195.559 461.736 196.151 461.736 196.87V196.926H466.188ZM471.549 201.14C471.101 201.14 470.685 201.047 470.303 200.86C469.92 200.673 469.612 200.421 469.379 200.104C469.155 199.787 469.043 199.437 469.043 199.054C469.043 198.438 469.29 197.934 469.785 197.542C470.289 197.15 470.965 196.898 471.815 196.786L474.027 196.478V195.988C474.027 195.475 473.868 195.083 473.551 194.812C473.243 194.532 472.767 194.392 472.123 194.392C471.647 194.392 471.255 194.485 470.947 194.672C470.648 194.859 470.457 195.083 470.373 195.344C470.335 195.456 470.289 195.535 470.233 195.582C470.186 195.619 470.121 195.638 470.037 195.638H469.841C469.757 195.638 469.682 195.61 469.617 195.554C469.561 195.489 469.533 195.414 469.533 195.33C469.533 195.125 469.626 194.887 469.813 194.616C469.999 194.336 470.289 194.093 470.681 193.888C471.073 193.683 471.553 193.58 472.123 193.58C473.121 193.58 473.831 193.818 474.251 194.294C474.671 194.77 474.881 195.349 474.881 196.03V200.692C474.881 200.785 474.853 200.86 474.797 200.916C474.741 200.972 474.666 201 474.573 201H474.335C474.241 201 474.167 200.972 474.111 200.916C474.055 200.86 474.027 200.785 474.027 200.692V200.034C473.821 200.342 473.518 200.603 473.117 200.818C472.725 201.033 472.202 201.14 471.549 201.14ZM471.689 200.328C472.37 200.328 472.93 200.104 473.369 199.656C473.807 199.208 474.027 198.564 474.027 197.724V197.248L472.221 197.5C471.455 197.603 470.877 197.78 470.485 198.032C470.093 198.284 469.897 198.601 469.897 198.984C469.897 199.413 470.074 199.745 470.429 199.978C470.793 200.211 471.213 200.328 471.689 200.328ZM478.103 201C478.009 201 477.935 200.972 477.879 200.916C477.823 200.86 477.795 200.785 477.795 200.692V194.028C477.795 193.935 477.823 193.86 477.879 193.804C477.935 193.748 478.009 193.72 478.103 193.72H478.341C478.434 193.72 478.509 193.748 478.565 193.804C478.621 193.86 478.649 193.935 478.649 194.028V194.518C478.891 194.21 479.171 193.977 479.489 193.818C479.815 193.659 480.203 193.58 480.651 193.58C481.696 193.58 482.443 194.019 482.891 194.896C483.115 194.495 483.432 194.177 483.843 193.944C484.263 193.701 484.739 193.58 485.271 193.58C486.045 193.58 486.675 193.846 487.161 194.378C487.646 194.901 487.889 195.647 487.889 196.618V200.692C487.889 200.785 487.861 200.86 487.805 200.916C487.749 200.972 487.674 201 487.581 201H487.343C487.249 201 487.175 200.972 487.119 200.916C487.063 200.86 487.035 200.785 487.035 200.692V196.758C487.035 195.909 486.857 195.302 486.503 194.938C486.157 194.574 485.7 194.392 485.131 194.392C484.627 194.392 484.188 194.579 483.815 194.952C483.451 195.316 483.269 195.918 483.269 196.758V200.692C483.269 200.785 483.241 200.86 483.185 200.916C483.129 200.972 483.054 201 482.961 201H482.723C482.629 201 482.555 200.972 482.499 200.916C482.443 200.86 482.415 200.785 482.415 200.692V196.758C482.415 195.918 482.233 195.316 481.869 194.952C481.505 194.579 481.052 194.392 480.511 194.392C480.007 194.392 479.568 194.579 479.195 194.952C478.831 195.316 478.649 195.913 478.649 196.744V200.692C478.649 200.785 478.621 200.86 478.565 200.916C478.509 200.972 478.434 201 478.341 201H478.103Z" fill="#FCFCFC"/>
<path d="M502.684 201C502.591 201 502.516 200.972 502.46 200.916C502.404 200.86 502.376 200.785 502.376 200.692V198.48H497.756C497.663 198.48 497.588 198.452 497.532 198.396C497.476 198.34 497.448 198.265 497.448 198.172V197.948C497.448 197.808 497.499 197.668 497.602 197.528L501.858 191.438C501.905 191.363 501.975 191.307 502.068 191.27C502.161 191.223 502.264 191.2 502.376 191.2H502.95C503.043 191.2 503.118 191.228 503.174 191.284C503.23 191.34 503.258 191.415 503.258 191.508V197.64H504.532C504.625 197.64 504.7 197.668 504.756 197.724C504.812 197.78 504.84 197.855 504.84 197.948V198.172C504.84 198.265 504.812 198.34 504.756 198.396C504.7 198.452 504.625 198.48 504.532 198.48H503.258V200.692C503.258 200.785 503.23 200.86 503.174 200.916C503.118 200.972 503.043 201 502.95 201H502.684ZM502.376 197.64V192.194L498.554 197.64H502.376ZM510.338 201.14C509.162 201.14 508.313 200.785 507.79 200.076C507.277 199.367 507.006 198.433 506.978 197.276L506.964 196.114L506.978 194.924C507.006 193.767 507.277 192.833 507.79 192.124C508.313 191.415 509.162 191.06 510.338 191.06C511.514 191.06 512.359 191.415 512.872 192.124C513.395 192.833 513.67 193.767 513.698 194.924C513.708 195.185 513.712 195.582 513.712 196.114C513.712 196.637 513.708 197.024 513.698 197.276C513.67 198.433 513.395 199.367 512.872 200.076C512.359 200.785 511.514 201.14 510.338 201.14ZM510.338 200.3C511.141 200.3 511.748 200.034 512.158 199.502C512.578 198.961 512.798 198.195 512.816 197.206C512.826 196.935 512.83 196.562 512.83 196.086C512.83 195.61 512.826 195.246 512.816 194.994C512.798 194.023 512.578 193.267 512.158 192.726C511.748 192.175 511.141 191.9 510.338 191.9C509.536 191.9 508.924 192.175 508.504 192.726C508.094 193.267 507.879 194.023 507.86 194.994L507.846 196.086L507.86 197.206C507.879 198.195 508.094 198.961 508.504 199.502C508.924 200.034 509.536 200.3 510.338 200.3ZM518.069 196.1C517.472 196.1 517 195.941 516.655 195.624C516.319 195.297 516.137 194.849 516.109 194.28C516.1 194.121 516.095 193.921 516.095 193.678C516.095 193.417 516.1 193.202 516.109 193.034C516.137 192.446 516.314 191.984 516.641 191.648C516.968 191.303 517.444 191.13 518.069 191.13C518.694 191.13 519.17 191.303 519.497 191.648C519.824 191.984 520.001 192.446 520.029 193.034C520.048 193.37 520.057 193.585 520.057 193.678C520.057 193.762 520.048 193.963 520.029 194.28C520.001 194.849 519.814 195.297 519.469 195.624C519.133 195.941 518.666 196.1 518.069 196.1ZM516.865 201C516.781 201 516.711 200.977 516.655 200.93C516.608 200.874 516.585 200.804 516.585 200.72C516.585 200.664 516.604 200.613 516.641 200.566L523.543 191.466C523.618 191.363 523.683 191.293 523.739 191.256C523.804 191.219 523.893 191.2 524.005 191.2H524.243C524.327 191.2 524.392 191.228 524.439 191.284C524.495 191.331 524.523 191.396 524.523 191.48C524.523 191.536 524.504 191.587 524.467 191.634L517.565 200.734C517.49 200.827 517.42 200.897 517.355 200.944C517.299 200.981 517.215 201 517.103 201H516.865ZM518.069 195.386C518.452 195.386 518.732 195.274 518.909 195.05C519.086 194.826 519.189 194.555 519.217 194.238C519.236 193.883 519.245 193.687 519.245 193.65C519.245 193.585 519.236 193.393 519.217 193.076C519.198 192.749 519.096 192.474 518.909 192.25C518.732 192.026 518.452 191.914 518.069 191.914C517.686 191.914 517.402 192.026 517.215 192.25C517.038 192.474 516.94 192.749 516.921 193.076C516.912 193.235 516.907 193.426 516.907 193.65C516.907 193.865 516.912 194.061 516.921 194.238C516.949 194.555 517.052 194.826 517.229 195.05C517.406 195.274 517.686 195.386 518.069 195.386ZM523.011 201.084C522.414 201.084 521.942 200.916 521.597 200.58C521.261 200.235 521.079 199.773 521.051 199.194C521.042 199.035 521.037 198.835 521.037 198.592C521.037 198.331 521.042 198.116 521.051 197.948C521.079 197.36 521.256 196.898 521.583 196.562C521.91 196.217 522.386 196.044 523.011 196.044C523.636 196.044 524.112 196.217 524.439 196.562C524.766 196.898 524.943 197.36 524.971 197.948C524.99 198.284 524.999 198.499 524.999 198.592C524.999 198.676 524.99 198.877 524.971 199.194C524.943 199.773 524.756 200.235 524.411 200.58C524.075 200.916 523.608 201.084 523.011 201.084ZM523.011 200.3C523.394 200.3 523.674 200.188 523.851 199.964C524.028 199.74 524.131 199.469 524.159 199.152C524.178 198.797 524.187 198.601 524.187 198.564C524.187 198.499 524.178 198.307 524.159 197.99C524.14 197.663 524.038 197.388 523.851 197.164C523.674 196.94 523.394 196.828 523.011 196.828C522.628 196.828 522.344 196.94 522.157 197.164C521.98 197.388 521.882 197.663 521.863 197.99C521.854 198.149 521.849 198.34 521.849 198.564C521.849 198.779 521.854 198.975 521.863 199.152C521.891 199.469 521.994 199.74 522.171 199.964C522.348 200.188 522.628 200.3 523.011 200.3Z" fill="#FCFCFC"/>
<path d="M424.624 289C424.531 289 424.456 288.972 424.4 288.916C424.344 288.86 424.316 288.785 424.316 288.692V279.522C424.316 279.429 424.344 279.354 424.4 279.298C424.456 279.233 424.531 279.2 424.624 279.2H430.028C430.131 279.2 430.21 279.228 430.266 279.284C430.322 279.34 430.35 279.419 430.35 279.522V279.732C430.35 279.825 430.317 279.9 430.252 279.956C430.196 280.012 430.121 280.04 430.028 280.04H425.198V283.806H429.748C429.851 283.806 429.93 283.834 429.986 283.89C430.042 283.946 430.07 284.025 430.07 284.128V284.338C430.07 284.431 430.037 284.506 429.972 284.562C429.916 284.618 429.841 284.646 429.748 284.646H425.198V288.692C425.198 288.785 425.165 288.86 425.1 288.916C425.044 288.972 424.969 289 424.876 289H424.624ZM435.426 289.14C434.456 289.14 433.7 288.846 433.158 288.258C432.626 287.661 432.346 286.891 432.318 285.948L432.304 285.36L432.318 284.772C432.346 283.829 432.626 283.064 433.158 282.476C433.7 281.879 434.456 281.58 435.426 281.58C436.397 281.58 437.148 281.879 437.68 282.476C438.222 283.064 438.506 283.829 438.534 284.772C438.544 284.865 438.548 285.061 438.548 285.36C438.548 285.659 438.544 285.855 438.534 285.948C438.506 286.891 438.222 287.661 437.68 288.258C437.148 288.846 436.397 289.14 435.426 289.14ZM435.426 288.328C436.089 288.328 436.621 288.118 437.022 287.698C437.433 287.269 437.652 286.662 437.68 285.878C437.69 285.785 437.694 285.612 437.694 285.36C437.694 285.108 437.69 284.935 437.68 284.842C437.652 284.058 437.433 283.456 437.022 283.036C436.621 282.607 436.089 282.392 435.426 282.392C434.764 282.392 434.227 282.607 433.816 283.036C433.415 283.456 433.2 284.058 433.172 284.842L433.158 285.36L433.172 285.878C433.2 286.662 433.415 287.269 433.816 287.698C434.227 288.118 434.764 288.328 435.426 288.328ZM443.891 289.14C442.976 289.14 442.281 288.851 441.805 288.272C441.329 287.693 441.091 286.937 441.091 286.004V282.028C441.091 281.935 441.119 281.86 441.175 281.804C441.231 281.748 441.306 281.72 441.399 281.72H441.637C441.73 281.72 441.805 281.748 441.861 281.804C441.917 281.86 441.945 281.935 441.945 282.028V285.934C441.945 287.53 442.64 288.328 444.031 288.328C444.703 288.328 445.235 288.118 445.627 287.698C446.028 287.269 446.229 286.681 446.229 285.934V282.028C446.229 281.935 446.257 281.86 446.313 281.804C446.369 281.748 446.444 281.72 446.537 281.72H446.775C446.868 281.72 446.943 281.748 446.999 281.804C447.055 281.86 447.083 281.935 447.083 282.028V288.692C447.083 288.785 447.055 288.86 446.999 288.916C446.943 288.972 446.868 289 446.775 289H446.537C446.444 289 446.369 288.972 446.313 288.916C446.257 288.86 446.229 288.785 446.229 288.692V288.034C445.949 288.398 445.627 288.673 445.263 288.86C444.908 289.047 444.451 289.14 443.891 289.14ZM450.358 289C450.265 289 450.19 288.972 450.134 288.916C450.078 288.86 450.05 288.785 450.05 288.692V282.028C450.05 281.935 450.078 281.86 450.134 281.804C450.19 281.748 450.265 281.72 450.358 281.72H450.596C450.69 281.72 450.764 281.748 450.82 281.804C450.876 281.86 450.904 281.935 450.904 282.028V282.686C451.184 282.322 451.502 282.047 451.856 281.86C452.22 281.673 452.687 281.58 453.256 281.58C454.171 281.58 454.876 281.874 455.37 282.462C455.865 283.041 456.112 283.792 456.112 284.716V288.692C456.112 288.785 456.084 288.86 456.028 288.916C455.972 288.972 455.898 289 455.804 289H455.566C455.473 289 455.398 288.972 455.342 288.916C455.286 288.86 455.258 288.785 455.258 288.692V284.786C455.258 284.03 455.072 283.442 454.698 283.022C454.334 282.602 453.807 282.392 453.116 282.392C452.444 282.392 451.908 282.607 451.506 283.036C451.105 283.456 450.904 284.039 450.904 284.786V288.692C450.904 288.785 450.876 288.86 450.82 288.916C450.764 288.972 450.69 289 450.596 289H450.358ZM461.64 289.14C460.632 289.14 459.886 288.813 459.4 288.16C458.924 287.497 458.672 286.695 458.644 285.752L458.63 285.36L458.644 284.968C458.672 284.025 458.924 283.227 459.4 282.574C459.886 281.911 460.632 281.58 461.64 281.58C462.658 281.58 463.442 281.949 463.992 282.686V279.368C463.992 279.275 464.02 279.2 464.076 279.144C464.132 279.088 464.207 279.06 464.3 279.06H464.538C464.632 279.06 464.706 279.088 464.762 279.144C464.818 279.2 464.846 279.275 464.846 279.368V288.692C464.846 288.785 464.818 288.86 464.762 288.916C464.706 288.972 464.632 289 464.538 289H464.3C464.207 289 464.132 288.972 464.076 288.916C464.02 288.86 463.992 288.785 463.992 288.692V288.034C463.451 288.771 462.667 289.14 461.64 289.14ZM461.724 288.328C462.462 288.328 463.017 288.085 463.39 287.6C463.764 287.105 463.964 286.527 463.992 285.864C464.002 285.771 464.006 285.589 464.006 285.318C464.006 285.047 464.002 284.865 463.992 284.772C463.983 284.371 463.894 283.993 463.726 283.638C463.558 283.274 463.306 282.975 462.97 282.742C462.634 282.509 462.219 282.392 461.724 282.392C460.968 282.392 460.413 282.635 460.058 283.12C459.713 283.596 459.526 284.212 459.498 284.968L459.484 285.36C459.484 286.228 459.652 286.942 459.988 287.502C460.324 288.053 460.903 288.328 461.724 288.328ZM469.789 289.14C469.341 289.14 468.926 289.047 468.543 288.86C468.161 288.673 467.853 288.421 467.619 288.104C467.395 287.787 467.283 287.437 467.283 287.054C467.283 286.438 467.531 285.934 468.025 285.542C468.529 285.15 469.206 284.898 470.055 284.786L472.267 284.478V283.988C472.267 283.475 472.109 283.083 471.791 282.812C471.483 282.532 471.007 282.392 470.363 282.392C469.887 282.392 469.495 282.485 469.187 282.672C468.889 282.859 468.697 283.083 468.613 283.344C468.576 283.456 468.529 283.535 468.473 283.582C468.427 283.619 468.361 283.638 468.277 283.638H468.081C467.997 283.638 467.923 283.61 467.857 283.554C467.801 283.489 467.773 283.414 467.773 283.33C467.773 283.125 467.867 282.887 468.053 282.616C468.24 282.336 468.529 282.093 468.921 281.888C469.313 281.683 469.794 281.58 470.363 281.58C471.362 281.58 472.071 281.818 472.491 282.294C472.911 282.77 473.121 283.349 473.121 284.03V288.692C473.121 288.785 473.093 288.86 473.037 288.916C472.981 288.972 472.907 289 472.813 289H472.575C472.482 289 472.407 288.972 472.351 288.916C472.295 288.86 472.267 288.785 472.267 288.692V288.034C472.062 288.342 471.759 288.603 471.357 288.818C470.965 289.033 470.443 289.14 469.789 289.14ZM469.929 288.328C470.611 288.328 471.171 288.104 471.609 287.656C472.048 287.208 472.267 286.564 472.267 285.724V285.248L470.461 285.5C469.696 285.603 469.117 285.78 468.725 286.032C468.333 286.284 468.137 286.601 468.137 286.984C468.137 287.413 468.315 287.745 468.669 287.978C469.033 288.211 469.453 288.328 469.929 288.328ZM478.417 289C477.726 289 477.236 288.795 476.947 288.384C476.657 287.964 476.513 287.39 476.513 286.662V282.532H475.421C475.327 282.532 475.253 282.504 475.197 282.448C475.141 282.392 475.113 282.317 475.113 282.224V282.028C475.113 281.935 475.141 281.86 475.197 281.804C475.253 281.748 475.327 281.72 475.421 281.72H476.513V279.368C476.513 279.275 476.541 279.2 476.597 279.144C476.653 279.088 476.727 279.06 476.821 279.06H477.059C477.152 279.06 477.227 279.088 477.283 279.144C477.339 279.2 477.367 279.275 477.367 279.368V281.72H479.103C479.196 281.72 479.271 281.748 479.327 281.804C479.383 281.86 479.411 281.935 479.411 282.028V282.224C479.411 282.317 479.383 282.392 479.327 282.448C479.271 282.504 479.196 282.532 479.103 282.532H477.367V286.606C477.367 287.129 477.451 287.525 477.619 287.796C477.796 288.057 478.085 288.188 478.487 288.188H479.243C479.336 288.188 479.411 288.216 479.467 288.272C479.523 288.328 479.551 288.403 479.551 288.496V288.692C479.551 288.785 479.523 288.86 479.467 288.916C479.411 288.972 479.336 289 479.243 289H478.417ZM481.852 280.222C481.759 280.222 481.684 280.194 481.628 280.138C481.572 280.082 481.544 280.007 481.544 279.914V279.382C481.544 279.289 481.572 279.214 481.628 279.158C481.684 279.093 481.759 279.06 481.852 279.06H482.384C482.477 279.06 482.552 279.093 482.608 279.158C482.673 279.214 482.706 279.289 482.706 279.382V279.914C482.706 280.007 482.673 280.082 482.608 280.138C482.552 280.194 482.477 280.222 482.384 280.222H481.852ZM482.006 289C481.913 289 481.838 288.972 481.782 288.916C481.726 288.86 481.698 288.785 481.698 288.692V282.028C481.698 281.935 481.726 281.86 481.782 281.804C481.838 281.748 481.913 281.72 482.006 281.72H482.244C482.337 281.72 482.412 281.748 482.468 281.804C482.524 281.86 482.552 281.935 482.552 282.028V288.692C482.552 288.785 482.524 288.86 482.468 288.916C482.412 288.972 482.337 289 482.244 289H482.006ZM488.287 289.14C487.317 289.14 486.561 288.846 486.019 288.258C485.487 287.661 485.207 286.891 485.179 285.948L485.165 285.36L485.179 284.772C485.207 283.829 485.487 283.064 486.019 282.476C486.561 281.879 487.317 281.58 488.287 281.58C489.258 281.58 490.009 281.879 490.541 282.476C491.083 283.064 491.367 283.829 491.395 284.772C491.405 284.865 491.409 285.061 491.409 285.36C491.409 285.659 491.405 285.855 491.395 285.948C491.367 286.891 491.083 287.661 490.541 288.258C490.009 288.846 489.258 289.14 488.287 289.14ZM488.287 288.328C488.95 288.328 489.482 288.118 489.883 287.698C490.294 287.269 490.513 286.662 490.541 285.878C490.551 285.785 490.555 285.612 490.555 285.36C490.555 285.108 490.551 284.935 490.541 284.842C490.513 284.058 490.294 283.456 489.883 283.036C489.482 282.607 488.95 282.392 488.287 282.392C487.625 282.392 487.088 282.607 486.677 283.036C486.276 283.456 486.061 284.058 486.033 284.842L486.019 285.36L486.033 285.878C486.061 286.662 486.276 287.269 486.677 287.698C487.088 288.118 487.625 288.328 488.287 288.328ZM494.33 289C494.237 289 494.162 288.972 494.106 288.916C494.05 288.86 494.022 288.785 494.022 288.692V282.028C494.022 281.935 494.05 281.86 494.106 281.804C494.162 281.748 494.237 281.72 494.33 281.72H494.568C494.661 281.72 494.736 281.748 494.792 281.804C494.848 281.86 494.876 281.935 494.876 282.028V282.686C495.156 282.322 495.473 282.047 495.828 281.86C496.192 281.673 496.659 281.58 497.228 281.58C498.143 281.58 498.847 281.874 499.342 282.462C499.837 283.041 500.084 283.792 500.084 284.716V288.692C500.084 288.785 500.056 288.86 500 288.916C499.944 288.972 499.869 289 499.776 289H499.538C499.445 289 499.37 288.972 499.314 288.916C499.258 288.86 499.23 288.785 499.23 288.692V284.786C499.23 284.03 499.043 283.442 498.67 283.022C498.306 282.602 497.779 282.392 497.088 282.392C496.416 282.392 495.879 282.607 495.478 283.036C495.077 283.456 494.876 284.039 494.876 284.786V288.692C494.876 288.785 494.848 288.86 494.792 288.916C494.736 288.972 494.661 289 494.568 289H494.33Z" fill="#FCFCFC"/>
<path d="M515.684 289C515.591 289 515.516 288.972 515.46 288.916C515.404 288.86 515.376 288.785 515.376 288.692V286.48H510.756C510.663 286.48 510.588 286.452 510.532 286.396C510.476 286.34 510.448 286.265 510.448 286.172V285.948C510.448 285.808 510.499 285.668 510.602 285.528L514.858 279.438C514.905 279.363 514.975 279.307 515.068 279.27C515.161 279.223 515.264 279.2 515.376 279.2H515.95C516.043 279.2 516.118 279.228 516.174 279.284C516.23 279.34 516.258 279.415 516.258 279.508V285.64H517.532C517.625 285.64 517.7 285.668 517.756 285.724C517.812 285.78 517.84 285.855 517.84 285.948V286.172C517.84 286.265 517.812 286.34 517.756 286.396C517.7 286.452 517.625 286.48 517.532 286.48H516.258V288.692C516.258 288.785 516.23 288.86 516.174 288.916C516.118 288.972 516.043 289 515.95 289H515.684ZM515.376 285.64V280.194L511.554 285.64H515.376ZM523.338 289.14C522.162 289.14 521.313 288.785 520.79 288.076C520.277 287.367 520.006 286.433 519.978 285.276L519.964 284.114L519.978 282.924C520.006 281.767 520.277 280.833 520.79 280.124C521.313 279.415 522.162 279.06 523.338 279.06C524.514 279.06 525.359 279.415 525.872 280.124C526.395 280.833 526.67 281.767 526.698 282.924C526.708 283.185 526.712 283.582 526.712 284.114C526.712 284.637 526.708 285.024 526.698 285.276C526.67 286.433 526.395 287.367 525.872 288.076C525.359 288.785 524.514 289.14 523.338 289.14ZM523.338 288.3C524.141 288.3 524.748 288.034 525.158 287.502C525.578 286.961 525.798 286.195 525.816 285.206C525.826 284.935 525.83 284.562 525.83 284.086C525.83 283.61 525.826 283.246 525.816 282.994C525.798 282.023 525.578 281.267 525.158 280.726C524.748 280.175 524.141 279.9 523.338 279.9C522.536 279.9 521.924 280.175 521.504 280.726C521.094 281.267 520.879 282.023 520.86 282.994L520.846 284.086L520.86 285.206C520.879 286.195 521.094 286.961 521.504 287.502C521.924 288.034 522.536 288.3 523.338 288.3ZM531.069 284.1C530.472 284.1 530 283.941 529.655 283.624C529.319 283.297 529.137 282.849 529.109 282.28C529.1 282.121 529.095 281.921 529.095 281.678C529.095 281.417 529.1 281.202 529.109 281.034C529.137 280.446 529.314 279.984 529.641 279.648C529.968 279.303 530.444 279.13 531.069 279.13C531.694 279.13 532.17 279.303 532.497 279.648C532.824 279.984 533.001 280.446 533.029 281.034C533.048 281.37 533.057 281.585 533.057 281.678C533.057 281.762 533.048 281.963 533.029 282.28C533.001 282.849 532.814 283.297 532.469 283.624C532.133 283.941 531.666 284.1 531.069 284.1ZM529.865 289C529.781 289 529.711 288.977 529.655 288.93C529.608 288.874 529.585 288.804 529.585 288.72C529.585 288.664 529.604 288.613 529.641 288.566L536.543 279.466C536.618 279.363 536.683 279.293 536.739 279.256C536.804 279.219 536.893 279.2 537.005 279.2H537.243C537.327 279.2 537.392 279.228 537.439 279.284C537.495 279.331 537.523 279.396 537.523 279.48C537.523 279.536 537.504 279.587 537.467 279.634L530.565 288.734C530.49 288.827 530.42 288.897 530.355 288.944C530.299 288.981 530.215 289 530.103 289H529.865ZM531.069 283.386C531.452 283.386 531.732 283.274 531.909 283.05C532.086 282.826 532.189 282.555 532.217 282.238C532.236 281.883 532.245 281.687 532.245 281.65C532.245 281.585 532.236 281.393 532.217 281.076C532.198 280.749 532.096 280.474 531.909 280.25C531.732 280.026 531.452 279.914 531.069 279.914C530.686 279.914 530.402 280.026 530.215 280.25C530.038 280.474 529.94 280.749 529.921 281.076C529.912 281.235 529.907 281.426 529.907 281.65C529.907 281.865 529.912 282.061 529.921 282.238C529.949 282.555 530.052 282.826 530.229 283.05C530.406 283.274 530.686 283.386 531.069 283.386ZM536.011 289.084C535.414 289.084 534.942 288.916 534.597 288.58C534.261 288.235 534.079 287.773 534.051 287.194C534.042 287.035 534.037 286.835 534.037 286.592C534.037 286.331 534.042 286.116 534.051 285.948C534.079 285.36 534.256 284.898 534.583 284.562C534.91 284.217 535.386 284.044 536.011 284.044C536.636 284.044 537.112 284.217 537.439 284.562C537.766 284.898 537.943 285.36 537.971 285.948C537.99 286.284 537.999 286.499 537.999 286.592C537.999 286.676 537.99 286.877 537.971 287.194C537.943 287.773 537.756 288.235 537.411 288.58C537.075 288.916 536.608 289.084 536.011 289.084ZM536.011 288.3C536.394 288.3 536.674 288.188 536.851 287.964C537.028 287.74 537.131 287.469 537.159 287.152C537.178 286.797 537.187 286.601 537.187 286.564C537.187 286.499 537.178 286.307 537.159 285.99C537.14 285.663 537.038 285.388 536.851 285.164C536.674 284.94 536.394 284.828 536.011 284.828C535.628 284.828 535.344 284.94 535.157 285.164C534.98 285.388 534.882 285.663 534.863 285.99C534.854 286.149 534.849 286.34 534.849 286.564C534.849 286.779 534.854 286.975 534.863 287.152C534.891 287.469 534.994 287.74 535.171 287.964C535.348 288.188 535.628 288.3 536.011 288.3Z" fill="#FCFCFC"/>
</svg>
