<svg width="16" height="16" viewBox="0 0 16 16" fill="none" xmlns="http://www.w3.org/2000/svg">
<path d="M7.46468 16C7.26642 16 7.09789 15.9401 6.95911 15.8202C6.84015 15.6804 6.78067 15.5106 6.78067 15.3109V9.07865H0.684015C0.48575 9.07865 0.317224 9.01873 0.178439 8.89888C0.0594795 8.75905 0 8.58926 0 8.38951V7.43071C0 7.23096 0.0594795 7.07116 0.178439 6.95131C0.317224 6.81149 0.48575 6.74157 0.684015 6.74157H6.78067V0.689139C6.78067 0.489388 6.84015 0.329588 6.95911 0.209739C7.09789 0.0699129 7.26642 0 7.46468 0H8.50558C8.70384 0 8.86245 0.0699129 8.98141 0.209739C9.1202 0.329588 9.18959 0.489388 9.18959 0.689139V6.74157H15.316C15.5143 6.74157 15.6729 6.81149 15.7918 6.95131C15.9306 7.07116 16 7.23096 16 7.43071V8.38951C16 8.58926 15.9306 8.75905 15.7918 8.89888C15.6729 9.01873 15.5143 9.07865 15.316 9.07865H9.18959V15.3109C9.18959 15.5106 9.1202 15.6804 8.98141 15.8202C8.86245 15.9401 8.70384 16 8.50558 16H7.46468Z" fill="url(#paint0_linear_5582_16316)"/>
<defs>
<linearGradient id="paint0_linear_5582_16316" x1="-6.48008e-08" y1="1.76837" x2="16.2446" y2="2.06497" gradientUnits="userSpaceOnUse">
<stop stop-color="#FFBF00"/>
<stop offset="1" stop-color="#E843C4"/>
</linearGradient>
</defs>
</svg>
