<svg width="16" height="16" viewBox="0 0 16 16" fill="none" xmlns="http://www.w3.org/2000/svg">
<path d="M0.178439 8.899C0.317224 9.01885 0.48575 9.07878 0.684015 9.07878H15.316C15.5143 9.07878 15.6729 9.01885 15.7918 8.899C15.9306 8.75918 16 8.58939 16 8.38964V7.43084C16 7.23109 15.9306 7.07129 15.7918 6.95144C15.6729 6.81161 15.5143 6.7417 15.316 6.7417H0.684015C0.48575 6.7417 0.317224 6.81161 0.178439 6.95144C0.0594795 7.07129 0 7.23109 0 7.43084V8.38964C0 8.58939 0.0594795 8.75918 0.178439 8.899Z" fill="url(#paint0_linear_5582_16331)"/>
<defs>
<linearGradient id="paint0_linear_5582_16331" x1="-6.48008e-08" y1="7" x2="16" y2="9" gradientUnits="userSpaceOnUse">
<stop stop-color="#FFBF00"/>
<stop offset="1" stop-color="#E843C4"/>
</linearGradient>
</defs>
</svg>
