<svg width="56" height="57" viewBox="0 0 56 57" fill="none" xmlns="http://www.w3.org/2000/svg">
<path fill-rule="evenodd" clip-rule="evenodd" d="M49.7342 35.1208C51.8002 31.8796 52.8949 28.1145 52.8889 24.2708C52.8889 13.102 43.8356 4.04863 32.6667 4.04863C28.6736 4.04863 24.9511 5.20596 21.8167 7.20174C19.7307 7.31874 17.666 7.68322 15.666 8.28751C17.8456 5.96375 20.4791 4.11236 23.4035 2.84805C26.3279 1.58374 29.4807 0.933468 32.6667 0.937519C45.5529 0.937519 56 11.3846 56 24.2708C56 30.9722 53.1751 37.0155 48.65 41.2715C49.2427 39.3068 49.6144 37.2473 49.7342 35.1208Z" fill="url(#paint0_linear_7219_13550)"/>
<path fill-rule="evenodd" clip-rule="evenodd" d="M52.7847 36.0977C51.6583 38.0094 50.2662 39.7513 48.65 41.2715C49.2427 39.3068 49.6144 37.2473 49.7342 35.1208C51.8002 31.8796 52.8949 28.1145 52.8889 24.2708C52.8889 13.102 43.8356 4.04864 32.6667 4.04864C28.6736 4.04864 24.9511 5.20597 21.8167 7.20175C19.7307 7.31875 17.666 7.68323 15.666 8.28753C17.1862 6.67136 18.9282 5.27924 20.8398 4.15286C24.4231 2.04143 28.5076 0.930978 32.6667 0.937529C45.5529 0.937529 56 11.3846 56 24.2708C56.0073 28.43 54.8968 32.5148 52.7847 36.0977Z" fill="url(#paint1_linear_7219_13550)"/>
<path fill-rule="evenodd" clip-rule="evenodd" d="M23.3333 53.8251C34.5022 53.8251 43.5555 44.7717 43.5555 33.6028C43.5555 22.434 34.5022 13.3806 23.3333 13.3806C12.1644 13.3806 3.11111 22.434 3.11111 33.6028C3.11111 44.7717 12.1644 53.8251 23.3333 53.8251ZM23.3333 56.9362C36.2195 56.9362 46.6666 46.4891 46.6666 33.6028C46.6666 20.7166 36.2195 10.2695 23.3333 10.2695C10.4471 10.2695 0 20.7166 0 33.6028C0 46.4891 10.4471 56.9362 23.3333 56.9362Z" fill="url(#paint2_linear_7219_13550)"/>
<path fill-rule="evenodd" clip-rule="evenodd" d="M21.7779 25.8264C20.9528 25.8264 20.1614 26.1542 19.578 26.7376C18.9946 27.321 18.6668 28.1124 18.6668 28.9375C18.6668 29.7626 18.9946 30.5539 19.578 31.1374C20.1614 31.7208 20.9528 32.0486 21.7779 32.0486H24.889C26.5392 32.0486 28.1219 32.7042 29.2888 33.871C30.4557 35.0379 31.1112 36.6206 31.1112 38.2708C31.1112 39.9211 30.4557 41.5037 29.2888 42.6706C28.1219 43.8375 26.5392 44.493 24.889 44.493H21.7779C20.491 44.493 19.2357 44.0941 18.1849 43.3511C17.1341 42.6081 16.3394 41.5577 15.9103 40.3444C15.8355 40.1503 15.8004 39.9432 15.807 39.7353C15.8136 39.5274 15.8618 39.323 15.9488 39.1341C16.0358 38.9451 16.1598 38.7756 16.3135 38.6354C16.4672 38.4953 16.6474 38.3874 16.8435 38.3181C17.0396 38.2488 17.2477 38.2195 17.4553 38.232C17.6629 38.2445 17.8659 38.2985 18.0523 38.3909C18.2386 38.4832 18.4046 38.612 18.5404 38.7696C18.6761 38.9272 18.7789 39.1104 18.8426 39.3084C19.0574 39.9151 19.4551 40.4402 19.9807 40.8116C20.5064 41.1829 21.1343 41.3822 21.7779 41.3819H24.889C25.7141 41.3819 26.5054 41.0541 27.0889 40.4707C27.6723 39.8873 28.0001 39.0959 28.0001 38.2708C28.0001 37.4457 27.6723 36.6544 27.0889 36.0709C26.5054 35.4875 25.7141 35.1597 24.889 35.1597H21.7779C20.1276 35.1597 18.545 34.5042 17.3781 33.3373C16.2112 32.1704 15.5557 30.5877 15.5557 28.9375C15.5557 27.2873 16.2112 25.7046 17.3781 24.5377C18.545 23.3708 20.1276 22.7153 21.7779 22.7153L24.889 22.7153C26.1759 22.7153 27.4312 23.1143 28.482 23.8572C29.5328 24.6002 30.3275 25.6506 30.7565 26.8639C30.8314 27.058 30.8665 27.2651 30.8599 27.473C30.8533 27.6809 30.8051 27.8853 30.7181 28.0743C30.631 28.2632 30.507 28.4327 30.3534 28.5729C30.1997 28.713 30.0195 28.821 29.8233 28.8902C29.6272 28.9595 29.4192 28.9888 29.2116 28.9763C29.004 28.9638 28.801 28.9098 28.6146 28.8174C28.4282 28.7251 28.2623 28.5963 28.1265 28.4387C27.9908 28.2811 27.888 28.0979 27.8243 27.8999C27.6095 27.2932 27.2118 26.7681 26.6861 26.3967C26.1605 26.0254 25.5326 25.8261 24.889 25.8264H21.7779Z" fill="url(#paint3_linear_7219_13550)"/>
<path fill-rule="evenodd" clip-rule="evenodd" d="M21.7778 46.0486V21.1597H24.8889V46.0486H21.7778Z" fill="url(#paint4_linear_7219_13550)"/>
<defs>
<linearGradient id="paint0_linear_7219_13550" x1="35.833" y1="0.9375" x2="35.833" y2="41.2715" gradientUnits="userSpaceOnUse">
<stop stop-color="#E843C4"/>
<stop offset="1" stop-color="#FFBF00"/>
</linearGradient>
<linearGradient id="paint1_linear_7219_13550" x1="35.833" y1="0.9375" x2="35.833" y2="41.2715" gradientUnits="userSpaceOnUse">
<stop stop-color="#E843C4"/>
<stop offset="1" stop-color="#FFBF00"/>
</linearGradient>
<linearGradient id="paint2_linear_7219_13550" x1="23.3333" y1="10.2695" x2="23.3333" y2="56.9362" gradientUnits="userSpaceOnUse">
<stop stop-color="#E843C4"/>
<stop offset="1" stop-color="#FFBF00"/>
</linearGradient>
<linearGradient id="paint3_linear_7219_13550" x1="23.3334" y1="22.7153" x2="23.3334" y2="44.493" gradientUnits="userSpaceOnUse">
<stop stop-color="#E843C4"/>
<stop offset="1" stop-color="#FFBF00"/>
</linearGradient>
<linearGradient id="paint4_linear_7219_13550" x1="23.3334" y1="21.1597" x2="23.3334" y2="46.0486" gradientUnits="userSpaceOnUse">
<stop stop-color="#E843C4"/>
<stop offset="1" stop-color="#FFBF00"/>
</linearGradient>
</defs>
</svg>
