<svg width="48" height="48" viewBox="0 0 48 48" fill="none" xmlns="http://www.w3.org/2000/svg">
<path d="M24 8.57227C15.4801 8.57227 8.57129 15.6546 8.57129 24.3914C8.57129 31.3808 12.9921 37.3105 19.1224 39.4022C19.8935 39.5487 20.1765 39.0591 20.1765 38.6412C20.1765 38.264 20.1622 37.0179 20.1556 35.696C15.8633 36.653 14.9576 33.8296 14.9576 33.8296C14.2557 32.0011 13.2445 31.5149 13.2445 31.5149C11.8447 30.5331 13.35 30.5532 13.35 30.5532C14.8993 30.6648 15.7151 32.1834 15.7151 32.1834C17.0912 34.6018 19.3245 33.9027 20.2049 33.4985C20.3434 32.476 20.7432 31.7782 21.1845 31.3831C17.7575 30.9831 14.1551 29.6267 14.1551 23.5652C14.1551 21.8381 14.7578 20.427 15.7448 19.3191C15.5846 18.9207 15.0565 17.3117 15.8942 15.1328C15.8942 15.1328 17.1898 14.7076 20.1382 16.7543C21.3689 16.4038 22.6888 16.228 24 16.222C25.3112 16.228 26.6321 16.4038 27.8651 16.7543C30.8099 14.7076 32.1037 15.1328 32.1037 15.1328C32.9435 17.3117 32.4152 18.9207 32.255 19.3191C33.2442 20.427 33.8428 21.8381 33.8428 23.5652C33.8428 29.6411 30.2335 30.9789 26.7979 31.3706C27.3513 31.8615 27.8444 32.8242 27.8444 34.3C27.8444 36.4167 27.8265 38.1202 27.8265 38.6412C27.8265 39.0622 28.1042 39.5555 28.8863 39.4001C35.0133 37.306 39.4284 31.3784 39.4284 24.3914C39.4284 15.6546 32.5207 8.57227 24 8.57227Z" fill="white"/>
<path d="M14.4604 31.1766C14.4265 31.2544 14.3061 31.2778 14.1965 31.2243C14.0848 31.1732 14.022 31.0672 14.0583 30.9891C14.0914 30.9089 14.212 30.8866 14.3235 30.9403C14.4354 30.9914 14.4992 31.0985 14.4604 31.1766Z" fill="white"/>
<path d="M15.0842 31.8842C15.0107 31.9534 14.8672 31.9213 14.7698 31.8118C14.669 31.7026 14.6501 31.5566 14.7246 31.4863C14.8004 31.417 14.9396 31.4495 15.0406 31.5587C15.1413 31.6692 15.1609 31.8141 15.0842 31.8842Z" fill="white"/>
<path d="M15.6914 32.7863C15.597 32.853 15.4427 32.7904 15.3474 32.6512C15.253 32.5119 15.253 32.3448 15.3494 32.2779C15.445 32.211 15.597 32.2712 15.6937 32.4094C15.7878 32.551 15.7878 32.7181 15.6914 32.7863Z" fill="white"/>
<path d="M16.5232 33.6578C16.4388 33.7525 16.259 33.727 16.1275 33.5979C15.9928 33.4716 15.9553 33.2923 16.04 33.1977C16.1254 33.1027 16.3062 33.1294 16.4388 33.2576C16.5725 33.3836 16.6133 33.5642 16.5232 33.6578Z" fill="white"/>
<path d="M17.6708 34.1638C17.6336 34.2865 17.4604 34.3423 17.286 34.2901C17.1118 34.2365 16.9978 34.0928 17.033 33.9688C17.0692 33.8453 17.2432 33.7872 17.4189 33.843C17.5928 33.8964 17.707 34.0391 17.6708 34.1638Z" fill="white"/>
<path d="M18.9311 34.2577C18.9354 34.3869 18.7875 34.494 18.6044 34.4964C18.4203 34.5005 18.2714 34.396 18.2693 34.2689C18.2693 34.1384 18.4139 34.0323 18.5981 34.0292C18.7812 34.0256 18.9311 34.1293 18.9311 34.2577Z" fill="white"/>
<path d="M20.104 34.0546C20.1259 34.1807 19.9986 34.3101 19.8168 34.3446C19.638 34.3778 19.4725 34.3 19.4498 34.175C19.4276 34.0458 19.5572 33.9164 19.7357 33.8829C19.9178 33.8508 20.0807 33.9265 20.104 34.0546Z" fill="white"/>
</svg>
