<svg width="1222" height="411" viewBox="0 0 1222 411" fill="none" xmlns="http://www.w3.org/2000/svg">
<g filter="url(#filter0_f)">
<path d="M402.999 306V400C402.999 403.314 400.312 406 396.999 406H307.999" stroke="url(#paint0_linear)" stroke-width="2"/>
</g>
<path d="M402.999 306V400C402.999 403.314 400.312 406 396.999 406H307.999" stroke="url(#paint1_linear)"/>
<g filter="url(#filter1_f)">
<path d="M105 406L11 406C7.68629 406 5 403.314 5 400L5 311" stroke="url(#paint2_linear)" stroke-width="2"/>
</g>
<path d="M105 406L11.0002 406C7.68653 406 5.00024 403.314 5.00024 400L5.00024 311" stroke="url(#paint3_linear)"/>
<g filter="url(#filter2_f)">
<path d="M5 105L4.99999 11.0003C4.99999 7.68654 7.68628 5.00025 11 5.00025L100 5.00024" stroke="url(#paint4_linear)" stroke-width="2"/>
</g>
<path d="M5 105L4.99999 11.0005C4.99999 7.68679 7.68628 5.0005 11 5.0005L100 5.00049" stroke="url(#paint5_linear)"/>
<mask id="path-7-outside-1" maskUnits="userSpaceOnUse" x="128" y="65.4003" width="152" height="90" fill="black">
<rect fill="white" x="128" y="65.4003" width="152" height="90"/>
<path d="M157.6 153.2C152 153.2 147.12 152.16 142.96 150.08C138.88 147.92 135.72 145.16 133.48 141.8C131.32 138.44 130.16 134.84 130 131V130.76C130 130.12 130.2 129.64 130.6 129.32C131.08 128.92 131.68 128.72 132.4 128.72H134.68C135.48 128.72 136.12 128.92 136.6 129.32C137.08 129.64 137.44 130.36 137.68 131.48C138.88 136.36 141.32 140 145 142.4C148.68 144.8 152.88 146 157.6 146C163.76 146 168.84 144.16 172.84 140.48C176.92 136.8 178.96 131.68 178.96 125.12C178.96 121.12 178 117.64 176.08 114.68C174.24 111.72 171.68 109.44 168.4 107.84C165.12 106.24 161.52 105.44 157.6 105.44C154.4 105.44 151.8 105.88 149.8 106.76C147.88 107.56 145.92 108.68 143.92 110.12C142.72 111 141.72 111.64 140.92 112.04C140.2 112.44 139.4 112.64 138.52 112.64H136.36C135.64 112.64 135 112.4 134.44 111.92C133.88 111.36 133.64 110.72 133.72 110L137.32 70.7603C137.4 69.8803 137.64 69.2003 138.04 68.7203C138.52 68.2403 139.16 68.0003 139.96 68.0003H179.08C179.88 68.0003 180.52 68.2403 181 68.7203C181.48 69.2003 181.72 69.8403 181.72 70.6403V72.5603C181.72 73.3603 181.48 74.0003 181 74.4803C180.52 74.9603 179.88 75.2003 179.08 75.2003H144.64L142.12 102.32C146.36 99.6003 151.52 98.2403 157.6 98.2403C163.04 98.2403 167.92 99.2803 172.24 101.36C176.64 103.44 180.12 106.52 182.68 110.6C185.24 114.6 186.52 119.44 186.52 125.12C186.52 131.12 185.24 136.24 182.68 140.48C180.12 144.72 176.64 147.92 172.24 150.08C167.92 152.16 163.04 153.2 157.6 153.2Z"/>
<path d="M218.352 110C213.232 110 209.192 108.64 206.232 105.92C203.352 103.12 201.792 99.2803 201.552 94.4003C201.472 93.0403 201.432 91.3203 201.432 89.2403C201.432 87.0003 201.472 85.1603 201.552 83.7203C201.792 78.6803 203.312 74.7203 206.112 71.8403C208.912 68.8803 212.992 67.4003 218.352 67.4003C223.712 67.4003 227.792 68.8803 230.592 71.8403C233.392 74.7203 234.912 78.6803 235.152 83.7203C235.312 86.6003 235.392 88.4403 235.392 89.2403C235.392 89.9603 235.312 91.6803 235.152 94.4003C234.912 99.2803 233.312 103.12 230.352 105.92C227.472 108.64 223.472 110 218.352 110ZM208.032 152C207.312 152 206.712 151.8 206.232 151.4C205.832 150.92 205.632 150.32 205.632 149.6C205.632 149.12 205.792 148.68 206.112 148.28L265.272 70.2803C265.912 69.4003 266.472 68.8003 266.952 68.4803C267.512 68.1603 268.272 68.0003 269.232 68.0003H271.272C271.992 68.0003 272.552 68.2403 272.952 68.7203C273.432 69.1203 273.672 69.6803 273.672 70.4003C273.672 70.8803 273.512 71.3203 273.192 71.7203L214.032 149.72C213.392 150.52 212.792 151.12 212.232 151.52C211.752 151.84 211.032 152 210.072 152H208.032ZM218.352 103.88C221.632 103.88 224.032 102.92 225.552 101C227.072 99.0803 227.952 96.7603 228.192 94.0403C228.352 91.0003 228.432 89.3203 228.432 89.0003C228.432 88.4403 228.352 86.8003 228.192 84.0803C228.032 81.2803 227.152 78.9203 225.552 77.0003C224.032 75.0803 221.632 74.1203 218.352 74.1203C215.072 74.1203 212.632 75.0803 211.032 77.0003C209.512 78.9203 208.672 81.2803 208.512 84.0803C208.432 85.4403 208.392 87.0803 208.392 89.0003C208.392 90.8403 208.432 92.5203 208.512 94.0403C208.752 96.7603 209.632 99.0803 211.152 101C212.672 102.92 215.072 103.88 218.352 103.88ZM260.712 152.72C255.592 152.72 251.552 151.28 248.592 148.4C245.712 145.44 244.152 141.48 243.912 136.52C243.832 135.16 243.792 133.44 243.792 131.36C243.792 129.12 243.832 127.28 243.912 125.84C244.152 120.8 245.672 116.84 248.472 113.96C251.272 111 255.352 109.52 260.712 109.52C266.072 109.52 270.152 111 272.952 113.96C275.752 116.84 277.272 120.8 277.512 125.84C277.672 128.72 277.752 130.56 277.752 131.36C277.752 132.08 277.672 133.8 277.512 136.52C277.272 141.48 275.672 145.44 272.712 148.4C269.832 151.28 265.832 152.72 260.712 152.72ZM260.712 146C263.992 146 266.392 145.04 267.912 143.12C269.432 141.2 270.312 138.88 270.552 136.16C270.712 133.12 270.792 131.44 270.792 131.12C270.792 130.56 270.712 128.92 270.552 126.2C270.392 123.4 269.512 121.04 267.912 119.12C266.392 117.2 263.992 116.24 260.712 116.24C257.432 116.24 254.992 117.2 253.392 119.12C251.872 121.04 251.032 123.4 250.872 126.2C250.792 127.56 250.752 129.2 250.752 131.12C250.752 132.96 250.792 134.64 250.872 136.16C251.112 138.88 251.992 141.2 253.512 143.12C255.032 145.04 257.432 146 260.712 146Z"/>
</mask>
<path d="M157.6 153.2C152 153.2 147.12 152.16 142.96 150.08C138.88 147.92 135.72 145.16 133.48 141.8C131.32 138.44 130.16 134.84 130 131V130.76C130 130.12 130.2 129.64 130.6 129.32C131.08 128.92 131.68 128.72 132.4 128.72H134.68C135.48 128.72 136.12 128.92 136.6 129.32C137.08 129.64 137.44 130.36 137.68 131.48C138.88 136.36 141.32 140 145 142.4C148.68 144.8 152.88 146 157.6 146C163.76 146 168.84 144.16 172.84 140.48C176.92 136.8 178.96 131.68 178.96 125.12C178.96 121.12 178 117.64 176.08 114.68C174.24 111.72 171.68 109.44 168.4 107.84C165.12 106.24 161.52 105.44 157.6 105.44C154.4 105.44 151.8 105.88 149.8 106.76C147.88 107.56 145.92 108.68 143.92 110.12C142.72 111 141.72 111.64 140.92 112.04C140.2 112.44 139.4 112.64 138.52 112.64H136.36C135.64 112.64 135 112.4 134.44 111.92C133.88 111.36 133.64 110.72 133.72 110L137.32 70.7603C137.4 69.8803 137.64 69.2003 138.04 68.7203C138.52 68.2403 139.16 68.0003 139.96 68.0003H179.08C179.88 68.0003 180.52 68.2403 181 68.7203C181.48 69.2003 181.72 69.8403 181.72 70.6403V72.5603C181.72 73.3603 181.48 74.0003 181 74.4803C180.52 74.9603 179.88 75.2003 179.08 75.2003H144.64L142.12 102.32C146.36 99.6003 151.52 98.2403 157.6 98.2403C163.04 98.2403 167.92 99.2803 172.24 101.36C176.64 103.44 180.12 106.52 182.68 110.6C185.24 114.6 186.52 119.44 186.52 125.12C186.52 131.12 185.24 136.24 182.68 140.48C180.12 144.72 176.64 147.92 172.24 150.08C167.92 152.16 163.04 153.2 157.6 153.2Z" stroke="#FFBF00" stroke-width="4" mask="url(#path-7-outside-1)"/>
<path d="M218.352 110C213.232 110 209.192 108.64 206.232 105.92C203.352 103.12 201.792 99.2803 201.552 94.4003C201.472 93.0403 201.432 91.3203 201.432 89.2403C201.432 87.0003 201.472 85.1603 201.552 83.7203C201.792 78.6803 203.312 74.7203 206.112 71.8403C208.912 68.8803 212.992 67.4003 218.352 67.4003C223.712 67.4003 227.792 68.8803 230.592 71.8403C233.392 74.7203 234.912 78.6803 235.152 83.7203C235.312 86.6003 235.392 88.4403 235.392 89.2403C235.392 89.9603 235.312 91.6803 235.152 94.4003C234.912 99.2803 233.312 103.12 230.352 105.92C227.472 108.64 223.472 110 218.352 110ZM208.032 152C207.312 152 206.712 151.8 206.232 151.4C205.832 150.92 205.632 150.32 205.632 149.6C205.632 149.12 205.792 148.68 206.112 148.28L265.272 70.2803C265.912 69.4003 266.472 68.8003 266.952 68.4803C267.512 68.1603 268.272 68.0003 269.232 68.0003H271.272C271.992 68.0003 272.552 68.2403 272.952 68.7203C273.432 69.1203 273.672 69.6803 273.672 70.4003C273.672 70.8803 273.512 71.3203 273.192 71.7203L214.032 149.72C213.392 150.52 212.792 151.12 212.232 151.52C211.752 151.84 211.032 152 210.072 152H208.032ZM218.352 103.88C221.632 103.88 224.032 102.92 225.552 101C227.072 99.0803 227.952 96.7603 228.192 94.0403C228.352 91.0003 228.432 89.3203 228.432 89.0003C228.432 88.4403 228.352 86.8003 228.192 84.0803C228.032 81.2803 227.152 78.9203 225.552 77.0003C224.032 75.0803 221.632 74.1203 218.352 74.1203C215.072 74.1203 212.632 75.0803 211.032 77.0003C209.512 78.9203 208.672 81.2803 208.512 84.0803C208.432 85.4403 208.392 87.0803 208.392 89.0003C208.392 90.8403 208.432 92.5203 208.512 94.0403C208.752 96.7603 209.632 99.0803 211.152 101C212.672 102.92 215.072 103.88 218.352 103.88ZM260.712 152.72C255.592 152.72 251.552 151.28 248.592 148.4C245.712 145.44 244.152 141.48 243.912 136.52C243.832 135.16 243.792 133.44 243.792 131.36C243.792 129.12 243.832 127.28 243.912 125.84C244.152 120.8 245.672 116.84 248.472 113.96C251.272 111 255.352 109.52 260.712 109.52C266.072 109.52 270.152 111 272.952 113.96C275.752 116.84 277.272 120.8 277.512 125.84C277.672 128.72 277.752 130.56 277.752 131.36C277.752 132.08 277.672 133.8 277.512 136.52C277.272 141.48 275.672 145.44 272.712 148.4C269.832 151.28 265.832 152.72 260.712 152.72ZM260.712 146C263.992 146 266.392 145.04 267.912 143.12C269.432 141.2 270.312 138.88 270.552 136.16C270.712 133.12 270.792 131.44 270.792 131.12C270.792 130.56 270.712 128.92 270.552 126.2C270.392 123.4 269.512 121.04 267.912 119.12C266.392 117.2 263.992 116.24 260.712 116.24C257.432 116.24 254.992 117.2 253.392 119.12C251.872 121.04 251.032 123.4 250.872 126.2C250.792 127.56 250.752 129.2 250.752 131.12C250.752 132.96 250.792 134.64 250.872 136.16C251.112 138.88 251.992 141.2 253.512 143.12C255.032 145.04 257.432 146 260.712 146Z" stroke="#FFBF00" stroke-width="4" mask="url(#path-7-outside-1)"/>
<g filter="url(#filter3_f)">
<path d="M719 5.00024L813 5.00024C816.314 5.00024 819 7.68653 819 11.0002L819 100" stroke="url(#paint6_linear)" stroke-width="2"/>
</g>
<path d="M719 5.00024L813 5.00024C816.314 5.00024 819 7.68653 819 11.0002L819 100" stroke="url(#paint7_linear)"/>
<g filter="url(#filter4_f)">
<path d="M403 105L403 11.0003C403 7.68654 405.686 5.00025 409 5.00025L498 5.00024" stroke="url(#paint8_linear)" stroke-width="2"/>
</g>
<path d="M403 105L403 11.0005C403 7.68679 405.686 5.0005 409 5.0005L498 5.00049" stroke="url(#paint9_linear)"/>
<mask id="path-12-outside-2" maskUnits="userSpaceOnUse" x="535" y="65.4003" width="153" height="90" fill="black">
<rect fill="white" x="535" y="65.4003" width="153" height="90"/>
<path d="M565.68 153.2C559.92 153.2 554.88 152.24 550.56 150.32C546.32 148.4 543.04 145.88 540.72 142.76C538.4 139.64 537.16 136.28 537 132.68C537 131.96 537.24 131.4 537.72 131C538.2 130.6 538.8 130.4 539.52 130.4H541.2C542 130.4 542.68 130.6 543.24 131C543.8 131.32 544.2 132.04 544.44 133.16C545.56 137.88 548.08 141.2 552 143.12C556 145.04 560.56 146 565.68 146C572.08 146 577.2 144.48 581.04 141.44C584.88 138.4 586.8 134 586.8 128.24C586.8 117.2 580.16 111.68 566.88 111.68H556.32C555.52 111.68 554.88 111.44 554.4 110.96C553.92 110.48 553.68 109.84 553.68 109.04V107.24C553.68 106.36 554.04 105.4 554.76 104.36L579.48 75.2003H543.24C542.44 75.2003 541.8 74.9603 541.32 74.4803C540.84 74.0003 540.6 73.3603 540.6 72.5603V70.7603C540.6 69.9603 540.84 69.3203 541.32 68.8403C541.8 68.2803 542.44 68.0003 543.24 68.0003H588C588.88 68.0003 589.56 68.2403 590.04 68.7203C590.52 69.2003 590.76 69.8803 590.76 70.7603V72.5603C590.76 73.2803 590.44 74.0403 589.8 74.8403L564.48 104.48H566.88C575.36 104.48 582.04 106.48 586.92 110.48C591.88 114.48 594.36 120.4 594.36 128.24C594.36 133.36 593.12 137.84 590.64 141.68C588.16 145.44 584.76 148.32 580.44 150.32C576.12 152.24 571.2 153.2 565.68 153.2Z"/>
<path d="M626.181 110C621.061 110 617.021 108.64 614.061 105.92C611.181 103.12 609.621 99.2803 609.381 94.4003C609.301 93.0403 609.261 91.3203 609.261 89.2403C609.261 87.0003 609.301 85.1603 609.381 83.7203C609.621 78.6803 611.141 74.7203 613.941 71.8403C616.741 68.8803 620.821 67.4003 626.181 67.4003C631.541 67.4003 635.621 68.8803 638.421 71.8403C641.221 74.7203 642.741 78.6803 642.981 83.7203C643.141 86.6003 643.221 88.4403 643.221 89.2403C643.221 89.9603 643.141 91.6803 642.981 94.4003C642.741 99.2803 641.141 103.12 638.181 105.92C635.301 108.64 631.301 110 626.181 110ZM615.861 152C615.141 152 614.541 151.8 614.061 151.4C613.661 150.92 613.461 150.32 613.461 149.6C613.461 149.12 613.621 148.68 613.941 148.28L673.101 70.2803C673.741 69.4003 674.301 68.8003 674.781 68.4803C675.341 68.1603 676.101 68.0003 677.061 68.0003H679.101C679.821 68.0003 680.381 68.2403 680.781 68.7203C681.261 69.1203 681.501 69.6803 681.501 70.4003C681.501 70.8803 681.341 71.3203 681.021 71.7203L621.861 149.72C621.221 150.52 620.621 151.12 620.061 151.52C619.581 151.84 618.861 152 617.901 152H615.861ZM626.181 103.88C629.461 103.88 631.861 102.92 633.381 101C634.901 99.0803 635.781 96.7603 636.021 94.0403C636.181 91.0003 636.261 89.3203 636.261 89.0003C636.261 88.4403 636.181 86.8003 636.021 84.0803C635.861 81.2803 634.981 78.9203 633.381 77.0003C631.861 75.0803 629.461 74.1203 626.181 74.1203C622.901 74.1203 620.461 75.0803 618.861 77.0003C617.341 78.9203 616.501 81.2803 616.341 84.0803C616.261 85.4403 616.221 87.0803 616.221 89.0003C616.221 90.8403 616.261 92.5203 616.341 94.0403C616.581 96.7603 617.461 99.0803 618.981 101C620.501 102.92 622.901 103.88 626.181 103.88ZM668.541 152.72C663.421 152.72 659.381 151.28 656.421 148.4C653.541 145.44 651.981 141.48 651.741 136.52C651.661 135.16 651.621 133.44 651.621 131.36C651.621 129.12 651.661 127.28 651.741 125.84C651.981 120.8 653.501 116.84 656.301 113.96C659.101 111 663.181 109.52 668.541 109.52C673.901 109.52 677.981 111 680.781 113.96C683.581 116.84 685.101 120.8 685.341 125.84C685.501 128.72 685.581 130.56 685.581 131.36C685.581 132.08 685.501 133.8 685.341 136.52C685.101 141.48 683.501 145.44 680.541 148.4C677.661 151.28 673.661 152.72 668.541 152.72ZM668.541 146C671.821 146 674.221 145.04 675.741 143.12C677.261 141.2 678.141 138.88 678.381 136.16C678.541 133.12 678.621 131.44 678.621 131.12C678.621 130.56 678.541 128.92 678.381 126.2C678.221 123.4 677.341 121.04 675.741 119.12C674.221 117.2 671.821 116.24 668.541 116.24C665.261 116.24 662.821 117.2 661.221 119.12C659.701 121.04 658.861 123.4 658.701 126.2C658.621 127.56 658.581 129.2 658.581 131.12C658.581 132.96 658.621 134.64 658.701 136.16C658.941 138.88 659.821 141.2 661.341 143.12C662.861 145.04 665.261 146 668.541 146Z"/>
</mask>
<path d="M565.68 153.2C559.92 153.2 554.88 152.24 550.56 150.32C546.32 148.4 543.04 145.88 540.72 142.76C538.4 139.64 537.16 136.28 537 132.68C537 131.96 537.24 131.4 537.72 131C538.2 130.6 538.8 130.4 539.52 130.4H541.2C542 130.4 542.68 130.6 543.24 131C543.8 131.32 544.2 132.04 544.44 133.16C545.56 137.88 548.08 141.2 552 143.12C556 145.04 560.56 146 565.68 146C572.08 146 577.2 144.48 581.04 141.44C584.88 138.4 586.8 134 586.8 128.24C586.8 117.2 580.16 111.68 566.88 111.68H556.32C555.52 111.68 554.88 111.44 554.4 110.96C553.92 110.48 553.68 109.84 553.68 109.04V107.24C553.68 106.36 554.04 105.4 554.76 104.36L579.48 75.2003H543.24C542.44 75.2003 541.8 74.9603 541.32 74.4803C540.84 74.0003 540.6 73.3603 540.6 72.5603V70.7603C540.6 69.9603 540.84 69.3203 541.32 68.8403C541.8 68.2803 542.44 68.0003 543.24 68.0003H588C588.88 68.0003 589.56 68.2403 590.04 68.7203C590.52 69.2003 590.76 69.8803 590.76 70.7603V72.5603C590.76 73.2803 590.44 74.0403 589.8 74.8403L564.48 104.48H566.88C575.36 104.48 582.04 106.48 586.92 110.48C591.88 114.48 594.36 120.4 594.36 128.24C594.36 133.36 593.12 137.84 590.64 141.68C588.16 145.44 584.76 148.32 580.44 150.32C576.12 152.24 571.2 153.2 565.68 153.2Z" stroke="#FFBF00" stroke-width="4" mask="url(#path-12-outside-2)"/>
<path d="M626.181 110C621.061 110 617.021 108.64 614.061 105.92C611.181 103.12 609.621 99.2803 609.381 94.4003C609.301 93.0403 609.261 91.3203 609.261 89.2403C609.261 87.0003 609.301 85.1603 609.381 83.7203C609.621 78.6803 611.141 74.7203 613.941 71.8403C616.741 68.8803 620.821 67.4003 626.181 67.4003C631.541 67.4003 635.621 68.8803 638.421 71.8403C641.221 74.7203 642.741 78.6803 642.981 83.7203C643.141 86.6003 643.221 88.4403 643.221 89.2403C643.221 89.9603 643.141 91.6803 642.981 94.4003C642.741 99.2803 641.141 103.12 638.181 105.92C635.301 108.64 631.301 110 626.181 110ZM615.861 152C615.141 152 614.541 151.8 614.061 151.4C613.661 150.92 613.461 150.32 613.461 149.6C613.461 149.12 613.621 148.68 613.941 148.28L673.101 70.2803C673.741 69.4003 674.301 68.8003 674.781 68.4803C675.341 68.1603 676.101 68.0003 677.061 68.0003H679.101C679.821 68.0003 680.381 68.2403 680.781 68.7203C681.261 69.1203 681.501 69.6803 681.501 70.4003C681.501 70.8803 681.341 71.3203 681.021 71.7203L621.861 149.72C621.221 150.52 620.621 151.12 620.061 151.52C619.581 151.84 618.861 152 617.901 152H615.861ZM626.181 103.88C629.461 103.88 631.861 102.92 633.381 101C634.901 99.0803 635.781 96.7603 636.021 94.0403C636.181 91.0003 636.261 89.3203 636.261 89.0003C636.261 88.4403 636.181 86.8003 636.021 84.0803C635.861 81.2803 634.981 78.9203 633.381 77.0003C631.861 75.0803 629.461 74.1203 626.181 74.1203C622.901 74.1203 620.461 75.0803 618.861 77.0003C617.341 78.9203 616.501 81.2803 616.341 84.0803C616.261 85.4403 616.221 87.0803 616.221 89.0003C616.221 90.8403 616.261 92.5203 616.341 94.0403C616.581 96.7603 617.461 99.0803 618.981 101C620.501 102.92 622.901 103.88 626.181 103.88ZM668.541 152.72C663.421 152.72 659.381 151.28 656.421 148.4C653.541 145.44 651.981 141.48 651.741 136.52C651.661 135.16 651.621 133.44 651.621 131.36C651.621 129.12 651.661 127.28 651.741 125.84C651.981 120.8 653.501 116.84 656.301 113.96C659.101 111 663.181 109.52 668.541 109.52C673.901 109.52 677.981 111 680.781 113.96C683.581 116.84 685.101 120.8 685.341 125.84C685.501 128.72 685.581 130.56 685.581 131.36C685.581 132.08 685.501 133.8 685.341 136.52C685.101 141.48 683.501 145.44 680.541 148.4C677.661 151.28 673.661 152.72 668.541 152.72ZM668.541 146C671.821 146 674.221 145.04 675.741 143.12C677.261 141.2 678.141 138.88 678.381 136.16C678.541 133.12 678.621 131.44 678.621 131.12C678.621 130.56 678.541 128.92 678.381 126.2C678.221 123.4 677.341 121.04 675.741 119.12C674.221 117.2 671.821 116.24 668.541 116.24C665.261 116.24 662.821 117.2 661.221 119.12C659.701 121.04 658.861 123.4 658.701 126.2C658.621 127.56 658.581 129.2 658.581 131.12C658.581 132.96 658.621 134.64 658.701 136.16C658.941 138.88 659.821 141.2 661.341 143.12C662.861 145.04 665.261 146 668.541 146Z" stroke="#FFBF00" stroke-width="4" mask="url(#path-12-outside-2)"/>
<g filter="url(#filter5_f)">
<path d="M1217 303.5L1217 397.5C1217 400.814 1214.31 403.5 1211 403.5L1122 403.5" stroke="url(#paint10_linear)" stroke-width="2"/>
</g>
<path d="M1217 303.5L1217 397.5C1217 400.813 1214.31 403.5 1211 403.5L1122 403.5" stroke="url(#paint11_linear)"/>
<g filter="url(#filter6_f)">
<path d="M919 403.5L825 403.5C821.686 403.5 819 400.814 819 397.5L819 308.5" stroke="url(#paint12_linear)" stroke-width="2"/>
</g>
<path d="M919 403.5L825 403.5C821.687 403.5 819 400.814 819 397.5L819 308.5" stroke="url(#paint13_linear)"/>
<g filter="url(#filter7_f)">
<path d="M1117 5L1211 5.00001C1214.31 5.00001 1217 7.6863 1217 11L1217 100" stroke="url(#paint14_linear)" stroke-width="2"/>
</g>
<path d="M1117 5L1211 5.00001C1214.31 5.00001 1217 7.6863 1217 11L1217 100" stroke="url(#paint15_linear)"/>
<path d="M982.068 137.338H967.921C966.97 137.338 966.138 137.933 965.841 138.827L954.132 174.082C953.716 175.213 954.31 176.464 955.499 176.881C955.737 176.94 955.974 177 956.212 177H1092.8C1093.99 177 1095 176.047 1095 174.797C1095 174.558 1094.94 174.32 1094.88 174.082L1083.17 138.827C1082.87 137.933 1082.04 137.338 1081.09 137.338H1064.15V112.504C1064.15 108.038 1060.53 104.465 1056.13 104.465H1051.61M982.068 137.338V158.777M982.068 137.338V109.368M1051.61 104.465C1050.48 95.3531 1046.74 91.1248 1046.74 91.1248L1004.48 47.4131C1001.8 44.6736 997.462 44.1972 994.252 46.3411L974.103 59.681C972.023 61.0507 970.893 63.5519 971.191 66.0531L975.113 96.3655C975.113 96.425 975.113 96.5441 975.113 96.6037C975.113 99.6409 976.243 102.559 978.204 104.882L982.068 109.368M1051.61 104.465L1003.05 104.423L1017.85 133.407C1019.81 137.338 1018.27 142.042 1014.34 144.008C1012.32 145.02 1010 145.139 1007.92 144.306L1007.45 144.127C1005.78 143.472 1004.36 142.281 1003.47 140.732L992.588 121.914C992.232 121.259 991.756 120.663 991.281 120.068L982.068 109.368M982.068 158.777H975.648C974.46 158.777 973.449 159.789 973.449 160.98C973.449 162.171 974.46 163.184 975.648 163.184H982.068M982.068 158.777V163.184M1064.09 158.777H1070.21C1071.4 158.777 1072.41 159.789 1072.41 160.98C1072.41 162.171 1071.4 163.184 1070.21 163.184H1064.09M1064.09 158.777V137.397M1064.09 158.777V163.184M982.068 163.184H1064.09" stroke="#FFBF00" stroke-width="2" stroke-miterlimit="10"/>
<path d="M1035.52 122.95L1032.16 135.506L1049.46 140.143L1052.83 127.587C1053.04 126.805 1052.6 126.007 1051.85 125.807L1037.26 121.897C1036.51 121.696 1035.73 122.169 1035.52 122.95Z" stroke="#FFBF00" stroke-width="1.5" stroke-miterlimit="10"/>
<path d="M1050.45 125.431L1051.23 122.499C1053.5 114.206 1041.42 110.863 1039.14 119.156L1038.33 122.185" stroke="#FFBF00" stroke-width="1.5" stroke-miterlimit="10"/>
<path d="M1042.49 130.788C1043.4 131.03 1044.34 130.461 1044.59 129.517C1044.84 128.572 1044.31 127.61 1043.41 127.368C1042.51 127.126 1041.57 127.695 1041.32 128.64C1041.06 129.584 1041.59 130.546 1042.49 130.788Z" fill="#FFBF00"/>
<path d="M1042.06 129.782L1039.05 134.473L1043.68 135.714L1043.28 130.108L1042.06 129.782Z" fill="#FFBF00"/>
<defs>
<filter id="filter0_f" x="303.999" y="302" width="104" height="109" filterUnits="userSpaceOnUse" color-interpolation-filters="sRGB">
<feFlood flood-opacity="0" result="BackgroundImageFix"/>
<feBlend mode="normal" in="SourceGraphic" in2="BackgroundImageFix" result="shape"/>
<feGaussianBlur stdDeviation="2" result="effect1_foregroundBlur"/>
</filter>
<filter id="filter1_f" x="0" y="307" width="109" height="104" filterUnits="userSpaceOnUse" color-interpolation-filters="sRGB">
<feFlood flood-opacity="0" result="BackgroundImageFix"/>
<feBlend mode="normal" in="SourceGraphic" in2="BackgroundImageFix" result="shape"/>
<feGaussianBlur stdDeviation="2" result="effect1_foregroundBlur"/>
</filter>
<filter id="filter2_f" x="0" y="0.000244141" width="104" height="109" filterUnits="userSpaceOnUse" color-interpolation-filters="sRGB">
<feFlood flood-opacity="0" result="BackgroundImageFix"/>
<feBlend mode="normal" in="SourceGraphic" in2="BackgroundImageFix" result="shape"/>
<feGaussianBlur stdDeviation="2" result="effect1_foregroundBlur"/>
</filter>
<filter id="filter3_f" x="715" y="0.000244141" width="109" height="104" filterUnits="userSpaceOnUse" color-interpolation-filters="sRGB">
<feFlood flood-opacity="0" result="BackgroundImageFix"/>
<feBlend mode="normal" in="SourceGraphic" in2="BackgroundImageFix" result="shape"/>
<feGaussianBlur stdDeviation="2" result="effect1_foregroundBlur"/>
</filter>
<filter id="filter4_f" x="398" y="0.000244141" width="104" height="109" filterUnits="userSpaceOnUse" color-interpolation-filters="sRGB">
<feFlood flood-opacity="0" result="BackgroundImageFix"/>
<feBlend mode="normal" in="SourceGraphic" in2="BackgroundImageFix" result="shape"/>
<feGaussianBlur stdDeviation="2" result="effect1_foregroundBlur"/>
</filter>
<filter id="filter5_f" x="1118" y="299.5" width="104" height="109" filterUnits="userSpaceOnUse" color-interpolation-filters="sRGB">
<feFlood flood-opacity="0" result="BackgroundImageFix"/>
<feBlend mode="normal" in="SourceGraphic" in2="BackgroundImageFix" result="shape"/>
<feGaussianBlur stdDeviation="2" result="effect1_foregroundBlur"/>
</filter>
<filter id="filter6_f" x="814" y="304.5" width="109" height="104" filterUnits="userSpaceOnUse" color-interpolation-filters="sRGB">
<feFlood flood-opacity="0" result="BackgroundImageFix"/>
<feBlend mode="normal" in="SourceGraphic" in2="BackgroundImageFix" result="shape"/>
<feGaussianBlur stdDeviation="2" result="effect1_foregroundBlur"/>
</filter>
<filter id="filter7_f" x="1113" y="0" width="109" height="104" filterUnits="userSpaceOnUse" color-interpolation-filters="sRGB">
<feFlood flood-opacity="0" result="BackgroundImageFix"/>
<feBlend mode="normal" in="SourceGraphic" in2="BackgroundImageFix" result="shape"/>
<feGaussianBlur stdDeviation="2" result="effect1_foregroundBlur"/>
</filter>
<linearGradient id="paint0_linear" x1="176.499" y1="167.75" x2="437.499" y2="446.5" gradientUnits="userSpaceOnUse">
<stop stop-color="#FFBF00"/>
<stop offset="1" stop-color="#FFBF00"/>
</linearGradient>
<linearGradient id="paint1_linear" x1="176.499" y1="167.75" x2="437.499" y2="446.5" gradientUnits="userSpaceOnUse">
<stop stop-color="#FFBF00"/>
<stop offset="1" stop-color="#FFBF00"/>
</linearGradient>
<linearGradient id="paint2_linear" x1="243.25" y1="179.5" x2="-35.5" y2="440.5" gradientUnits="userSpaceOnUse">
<stop stop-color="#FFBF00"/>
<stop offset="1" stop-color="#FFBF00"/>
</linearGradient>
<linearGradient id="paint3_linear" x1="243.25" y1="179.5" x2="-35.4998" y2="440.5" gradientUnits="userSpaceOnUse">
<stop stop-color="#FFBF00"/>
<stop offset="1" stop-color="#FFBF00"/>
</linearGradient>
<linearGradient id="paint4_linear" x1="231.5" y1="243.25" x2="-29.5001" y2="-35.4997" gradientUnits="userSpaceOnUse">
<stop stop-color="#FFBF00"/>
<stop offset="1" stop-color="#FFBF00"/>
</linearGradient>
<linearGradient id="paint5_linear" x1="231.5" y1="243.25" x2="-29.5001" y2="-35.4995" gradientUnits="userSpaceOnUse">
<stop stop-color="#FFBF00"/>
<stop offset="1" stop-color="#FFBF00"/>
</linearGradient>
<linearGradient id="paint6_linear" x1="580.75" y1="231.5" x2="859.5" y2="-29.4998" gradientUnits="userSpaceOnUse">
<stop stop-color="#FFBF00"/>
<stop offset="1" stop-color="#FFBF00"/>
</linearGradient>
<linearGradient id="paint7_linear" x1="580.75" y1="231.5" x2="859.5" y2="-29.4998" gradientUnits="userSpaceOnUse">
<stop stop-color="#FFBF00"/>
<stop offset="1" stop-color="#FFBF00"/>
</linearGradient>
<linearGradient id="paint8_linear" x1="629.5" y1="243.25" x2="368.5" y2="-35.4997" gradientUnits="userSpaceOnUse">
<stop stop-color="#FFBF00"/>
<stop offset="1" stop-color="#FFBF00"/>
</linearGradient>
<linearGradient id="paint9_linear" x1="629.5" y1="243.25" x2="368.5" y2="-35.4995" gradientUnits="userSpaceOnUse">
<stop stop-color="#FFBF00"/>
<stop offset="1" stop-color="#FFBF00"/>
</linearGradient>
<linearGradient id="paint10_linear" x1="990.5" y1="165.25" x2="1251.5" y2="444" gradientUnits="userSpaceOnUse">
<stop stop-color="#FFBF00"/>
<stop offset="1" stop-color="#FFBF00"/>
</linearGradient>
<linearGradient id="paint11_linear" x1="990.5" y1="165.25" x2="1251.5" y2="444" gradientUnits="userSpaceOnUse">
<stop stop-color="#FFBF00"/>
<stop offset="1" stop-color="#FFBF00"/>
</linearGradient>
<linearGradient id="paint12_linear" x1="1057.25" y1="177" x2="778.5" y2="438" gradientUnits="userSpaceOnUse">
<stop stop-color="#FFBF00"/>
<stop offset="1" stop-color="#FFBF00"/>
</linearGradient>
<linearGradient id="paint13_linear" x1="1057.25" y1="177" x2="778.5" y2="438" gradientUnits="userSpaceOnUse">
<stop stop-color="#FFBF00"/>
<stop offset="1" stop-color="#FFBF00"/>
</linearGradient>
<linearGradient id="paint14_linear" x1="978.75" y1="231.5" x2="1257.5" y2="-29.5" gradientUnits="userSpaceOnUse">
<stop stop-color="#FFBF00"/>
<stop offset="1" stop-color="#FFBF00"/>
</linearGradient>
<linearGradient id="paint15_linear" x1="978.75" y1="231.5" x2="1257.5" y2="-29.5" gradientUnits="userSpaceOnUse">
<stop stop-color="#FFBF00"/>
<stop offset="1" stop-color="#FFBF00"/>
</linearGradient>
</defs>
</svg>
