<svg xmlns="http://www.w3.org/2000/svg" enable-background="new 0 0 150 150" viewBox="0 0 150 150"><defs><filter id="a" width="59.1" height="87" x="1" y="31.8" filterUnits="userSpaceOnUse"><feColorMatrix values="1 0 0 0 0 0 1 0 0 0 0 0 1 0 0 0 0 0 1 0"/></filter></defs><mask id="b" width="59.1" height="87" x="1" y="31.8" maskUnits="userSpaceOnUse"><path fill="#fff" d="M1.1 31.2h148.1v87.7H1.1z" filter="url(#a)"/><path d="M29.9 116.8c-5.5 0-10.2-1-14.3-3-4-2.1-7.1-4.8-9.2-8.1-2.1-3.3-3.2-6.8-3.4-10.5V95c0-.6.2-1.1.6-1.4.5-.5 1-.6 1.7-.6h2.2c.8 0 1.4.2 1.9.6.5.3.8 1 1.1 2.1 1.2 4.8 3.5 8.3 7.1 10.6 3.6 2.3 7.7 3.5 12.3 3.5 6 0 11-1.8 14.9-5.4 4-3.6 6-8.6 6-15 0-3.9-.9-7.3-2.8-10.2-1.8-2.9-4.3-5.1-7.5-6.7-3.2-1.6-6.7-2.3-10.5-2.3-3.1 0-5.7.4-7.6 1.3-1.9.8-3.8 1.9-5.7 3.3-1.2.9-2.1 1.5-2.9 1.9-.7.4-1.5.6-2.3.6H9.2c-.7 0-1.3-.2-1.9-.7-.5-.5-.8-1.2-.7-1.9l3.5-38.2c.1-.9.3-1.5.7-2 .5-.5 1.1-.7 1.9-.7h38.1c.8 0 1.4.2 1.9.7.5.5.7 1.1.7 1.9v1.9c0 .8-.2 1.4-.7 1.9-.5.5-1.1.7-1.9.7H17.3l-2.5 26.4c4.1-2.7 9.2-4 15.1-4 5.3 0 10.1 1 14.3 3 4.3 2 7.7 5 10.2 9 2.5 3.9 3.7 8.6 3.7 14.2 0 5.8-1.2 10.8-3.7 15-2.5 4.1-5.9 7.3-10.2 9.4-4.2 1.9-9 2.9-14.3 2.9zM89.1 74.7c-5 0-8.9-1.3-11.8-4-2.8-2.7-4.3-6.5-4.6-11.2-.1-1.3-.1-3-.1-5 0-2.2 0-4 .1-5.4.2-4.9 1.7-8.8 4.4-11.6 2.7-2.9 6.7-4.3 11.9-4.3s9.2 1.4 11.9 4.3c2.7 2.8 4.2 6.7 4.4 11.6.2 2.8.2 4.6.2 5.4 0 .7-.1 2.4-.2 5-.2 4.8-1.8 8.5-4.7 11.2-2.6 2.7-6.5 4-11.5 4zm-10 40.9c-.7 0-1.3-.2-1.8-.6-.4-.5-.6-1.1-.6-1.8 0-.5.2-.9.5-1.3l57.7-76c.6-.9 1.2-1.4 1.6-1.8.5-.3 1.3-.5 2.2-.5h2c.7 0 1.2.2 1.6.7.5.4.7.9.7 1.6 0 .5-.2.9-.5 1.3l-57.7 76c-.6.8-1.2 1.4-1.8 1.8-.5.3-1.2.5-2.1.5h-1.8zm10-46.9c3.2 0 5.5-.9 7-2.8s2.3-4.1 2.6-6.8c.2-3 .2-4.6.2-4.9 0-.5-.1-2.1-.2-4.8-.2-2.7-1-5-2.6-6.9-1.5-1.9-3.8-2.8-7-2.8s-5.6.9-7.1 2.8-2.3 4.2-2.5 6.9c-.1 1.3-.1 2.9-.1 4.8 0 1.8 0 3.4.1 4.9.2 2.7 1.1 4.9 2.6 6.8 1.5 1.9 3.8 2.8 7 2.8zm41.3 47.6c-5 0-8.9-1.4-11.8-4.2-2.8-2.9-4.3-6.7-4.6-11.6-.1-1.3-.1-3-.1-5 0-2.2 0-4 .1-5.4.2-4.9 1.7-8.8 4.4-11.6 2.7-2.9 6.7-4.3 11.9-4.3s9.2 1.4 11.9 4.3c2.7 2.8 4.2 6.7 4.4 11.6.2 2.8.2 4.6.2 5.4 0 .7-.1 2.4-.2 5-.2 4.8-1.8 8.7-4.7 11.6-2.6 2.8-6.5 4.2-11.5 4.2zm0-6.5c3.2 0 5.5-.9 7-2.8s2.3-4.1 2.6-6.8c.2-3 .2-4.6.2-4.9 0-.5-.1-2.1-.2-4.8-.2-2.7-1-5-2.6-6.9-1.5-1.9-3.8-2.8-7-2.8s-5.6.9-7.1 2.8-2.3 4.2-2.5 6.9c-.1 1.3-.1 2.9-.1 4.8 0 1.8 0 3.4.1 4.9.2 2.7 1.1 4.9 2.6 6.8 1.5 1.9 3.8 2.8 7 2.8z"/></mask><path fill="none" stroke="#ffbf00" stroke-width="4" d="M29.9 116.8c-5.5 0-10.2-1-14.3-3-4-2.1-7.1-4.8-9.2-8.1-2.1-3.3-3.2-6.8-3.4-10.5V95c0-.6.2-1.1.6-1.4.5-.5 1-.6 1.7-.6h2.2c.8 0 1.4.2 1.9.6.5.3.8 1 1.1 2.1 1.2 4.8 3.5 8.3 7.1 10.6 3.6 2.3 7.7 3.5 12.3 3.5 6 0 11-1.8 14.9-5.4 4-3.6 6-8.6 6-15 0-3.9-.9-7.3-2.8-10.2-1.8-2.9-4.3-5.1-7.5-6.7-3.2-1.6-6.7-2.3-10.5-2.3-3.1 0-5.7.4-7.6 1.3-1.9.8-3.8 1.9-5.7 3.3-1.2.9-2.1 1.5-2.9 1.9-.7.4-1.5.6-2.3.6H9.2c-.7 0-1.3-.2-1.9-.7-.5-.5-.8-1.2-.7-1.9l3.5-38.2c.1-.9.3-1.5.7-2 .5-.5 1.1-.7 1.9-.7h38.1c.8 0 1.4.2 1.9.7.5.5.7 1.1.7 1.9v1.9c0 .8-.2 1.4-.7 1.9-.5.5-1.1.7-1.9.7H17.3l-2.5 26.4c4.1-2.7 9.2-4 15.1-4 5.3 0 10.1 1 14.3 3 4.3 2 7.7 5 10.2 9 2.5 3.9 3.7 8.6 3.7 14.2 0 5.8-1.2 10.8-3.7 15-2.5 4.1-5.9 7.3-10.2 9.4-4.2 1.9-9 2.9-14.3 2.9z" mask="url(#b)"/><defs><filter id="c" width="78.4" height="87.2" x="70.6" y="31.2" filterUnits="userSpaceOnUse"><feColorMatrix values="1 0 0 0 0 0 1 0 0 0 0 0 1 0 0 0 0 0 1 0"/></filter></defs><mask id="d" width="78.4" height="87.2" x="70.6" y="31.2" maskUnits="userSpaceOnUse"><path fill="#fff" d="M1.1 31.2h148.1v87.7H1.1z" filter="url(#c)"/><path d="M29.9 116.8c-5.5 0-10.2-1-14.3-3-4-2.1-7.1-4.8-9.2-8.1-2.1-3.3-3.2-6.8-3.4-10.5V95c0-.6.2-1.1.6-1.4.5-.5 1-.6 1.7-.6h2.2c.8 0 1.4.2 1.9.6.5.3.8 1 1.1 2.1 1.2 4.8 3.5 8.3 7.1 10.6 3.6 2.3 7.7 3.5 12.3 3.5 6 0 11-1.8 14.9-5.4 4-3.6 6-8.6 6-15 0-3.9-.9-7.3-2.8-10.2-1.8-2.9-4.3-5.1-7.5-6.7-3.2-1.6-6.7-2.3-10.5-2.3-3.1 0-5.7.4-7.6 1.3-1.9.8-3.8 1.9-5.7 3.3-1.2.9-2.1 1.5-2.9 1.9-.7.4-1.5.6-2.3.6H9.2c-.7 0-1.3-.2-1.9-.7-.5-.5-.8-1.2-.7-1.9l3.5-38.2c.1-.9.3-1.5.7-2 .5-.5 1.1-.7 1.9-.7h38.1c.8 0 1.4.2 1.9.7.5.5.7 1.1.7 1.9v1.9c0 .8-.2 1.4-.7 1.9-.5.5-1.1.7-1.9.7H17.3l-2.5 26.4c4.1-2.7 9.2-4 15.1-4 5.3 0 10.1 1 14.3 3 4.3 2 7.7 5 10.2 9 2.5 3.9 3.7 8.6 3.7 14.2 0 5.8-1.2 10.8-3.7 15-2.5 4.1-5.9 7.3-10.2 9.4-4.2 1.9-9 2.9-14.3 2.9zM89.1 74.7c-5 0-8.9-1.3-11.8-4-2.8-2.7-4.3-6.5-4.6-11.2-.1-1.3-.1-3-.1-5 0-2.2 0-4 .1-5.4.2-4.9 1.7-8.8 4.4-11.6 2.7-2.9 6.7-4.3 11.9-4.3s9.2 1.4 11.9 4.3c2.7 2.8 4.2 6.7 4.4 11.6.2 2.8.2 4.6.2 5.4 0 .7-.1 2.4-.2 5-.2 4.8-1.8 8.5-4.7 11.2-2.6 2.7-6.5 4-11.5 4zm-10 40.9c-.7 0-1.3-.2-1.8-.6-.4-.5-.6-1.1-.6-1.8 0-.5.2-.9.5-1.3l57.7-76c.6-.9 1.2-1.4 1.6-1.8.5-.3 1.3-.5 2.2-.5h2c.7 0 1.2.2 1.6.7.5.4.7.9.7 1.6 0 .5-.2.9-.5 1.3l-57.7 76c-.6.8-1.2 1.4-1.8 1.8-.5.3-1.2.5-2.1.5h-1.8zm10-46.9c3.2 0 5.5-.9 7-2.8s2.3-4.1 2.6-6.8c.2-3 .2-4.6.2-4.9 0-.5-.1-2.1-.2-4.8-.2-2.7-1-5-2.6-6.9-1.5-1.9-3.8-2.8-7-2.8s-5.6.9-7.1 2.8-2.3 4.2-2.5 6.9c-.1 1.3-.1 2.9-.1 4.8 0 1.8 0 3.4.1 4.9.2 2.7 1.1 4.9 2.6 6.8 1.5 1.9 3.8 2.8 7 2.8zm41.3 47.6c-5 0-8.9-1.4-11.8-4.2-2.8-2.9-4.3-6.7-4.6-11.6-.1-1.3-.1-3-.1-5 0-2.2 0-4 .1-5.4.2-4.9 1.7-8.8 4.4-11.6 2.7-2.9 6.7-4.3 11.9-4.3s9.2 1.4 11.9 4.3c2.7 2.8 4.2 6.7 4.4 11.6.2 2.8.2 4.6.2 5.4 0 .7-.1 2.4-.2 5-.2 4.8-1.8 8.7-4.7 11.6-2.6 2.8-6.5 4.2-11.5 4.2zm0-6.5c3.2 0 5.5-.9 7-2.8s2.3-4.1 2.6-6.8c.2-3 .2-4.6.2-4.9 0-.5-.1-2.1-.2-4.8-.2-2.7-1-5-2.6-6.9-1.5-1.9-3.8-2.8-7-2.8s-5.6.9-7.1 2.8-2.3 4.2-2.5 6.9c-.1 1.3-.1 2.9-.1 4.8 0 1.8 0 3.4.1 4.9.2 2.7 1.1 4.9 2.6 6.8 1.5 1.9 3.8 2.8 7 2.8z"/></mask><path fill="none" stroke="#ffbf00" stroke-width="4" d="M89.1 74.7c-5 0-8.9-1.3-11.8-4-2.8-2.7-4.3-6.5-4.6-11.2-.1-1.3-.1-3-.1-5 0-2.2 0-4 .1-5.4.2-4.9 1.7-8.8 4.4-11.6 2.7-2.9 6.7-4.3 11.9-4.3s9.2 1.4 11.9 4.3c2.7 2.8 4.2 6.7 4.4 11.6.2 2.8.2 4.6.2 5.4 0 .7-.1 2.4-.2 5-.2 4.8-1.8 8.5-4.7 11.2-2.6 2.7-6.5 4-11.5 4zm-10 40.9c-.7 0-1.3-.2-1.8-.6-.4-.5-.6-1.1-.6-1.8 0-.5.2-.9.5-1.3l57.7-76c.6-.9 1.2-1.4 1.6-1.8.5-.3 1.3-.5 2.2-.5h2c.7 0 1.2.2 1.6.7.5.4.7.9.7 1.6 0 .5-.2.9-.5 1.3l-57.7 76c-.6.8-1.2 1.4-1.8 1.8-.5.3-1.2.5-2.1.5h-1.8zm10-46.9c3.2 0 5.5-.9 7-2.8s2.3-4.1 2.6-6.8c.2-3 .2-4.6.2-4.9 0-.5-.1-2.1-.2-4.8-.2-2.7-1-5-2.6-6.9-1.5-1.9-3.8-2.8-7-2.8s-5.6.9-7.1 2.8-2.3 4.2-2.5 6.9c-.1 1.3-.1 2.9-.1 4.8 0 1.8 0 3.4.1 4.9.2 2.7 1.1 4.9 2.6 6.8 1.5 1.9 3.8 2.8 7 2.8zm41.3 47.6c-5 0-8.9-1.4-11.8-4.2-2.8-2.9-4.3-6.7-4.6-11.6-.1-1.3-.1-3-.1-5 0-2.2 0-4 .1-5.4.2-4.9 1.7-8.8 4.4-11.6 2.7-2.9 6.7-4.3 11.9-4.3s9.2 1.4 11.9 4.3c2.7 2.8 4.2 6.7 4.4 11.6.2 2.8.2 4.6.2 5.4 0 .7-.1 2.4-.2 5-.2 4.8-1.8 8.7-4.7 11.6-2.6 2.8-6.5 4.2-11.5 4.2zm0-6.5c3.2 0 5.5-.9 7-2.8s2.3-4.1 2.6-6.8c.2-3 .2-4.6.2-4.9 0-.5-.1-2.1-.2-4.8-.2-2.7-1-5-2.6-6.9-1.5-1.9-3.8-2.8-7-2.8s-5.6.9-7.1 2.8-2.3 4.2-2.5 6.9c-.1 1.3-.1 2.9-.1 4.8 0 1.8 0 3.4.1 4.9.2 2.7 1.1 4.9 2.6 6.8 1.5 1.9 3.8 2.8 7 2.8z" mask="url(#d)"/></svg>