<svg xmlns="http://www.w3.org/2000/svg" id="Layer_1" x="0" y="0" version="1.1" viewBox="0 0 150 150" xml:space="preserve"><style>.st1{fill:none;stroke:#ffbf00;stroke-width:1.5;stroke-miterlimit:10}.st2{fill:#ffbf00}</style><path fill="none" stroke="#ffbf00" stroke-miterlimit="10" stroke-width="2" d="M32.6 101.3H18.4c-1 0-1.8.6-2.1 1.5L4.6 138.1c-.4 1.1.2 2.4 1.4 2.8.2.1.5.1.7.1h136.6c1.2 0 2.2-1 2.2-2.2 0-.2-.1-.5-.1-.7l-11.7-35.3c-.3-.9-1.1-1.5-2.1-1.5h-16.9V76.5c0-4.5-3.6-8-8-8h-4.5m-69.6 32.8v21.4m0-21.4v-28m69.5-4.8c-1.1-9.1-4.9-13.3-4.9-13.3L55 11.4c-2.7-2.7-7-3.2-10.2-1.1L24.6 23.7c-2.1 1.4-3.2 3.9-2.9 6.4l3.9 30.3v.2c0 3 1.1 6 3.1 8.3l3.9 4.5m69.5-4.9H53.5l14.8 29c2 3.9.4 8.6-3.5 10.6-2 1-4.3 1.1-6.4.3l-.5-.2c-1.7-.7-3.1-1.8-4-3.4L43.1 85.9c-.4-.7-.8-1.3-1.3-1.8l-9.2-10.7m0 49.4h-6.4c-1.2 0-2.2 1-2.2 2.2 0 1.2 1 2.2 2.2 2.2h6.4m0-4.4v4.4m82-4.4h6.1c1.2 0 2.2 1 2.2 2.2 0 1.2-1 2.2-2.2 2.2h-6.1m0-4.4v-21.4m0 21.4v4.4m-82 0h82"/><path d="M86 87l-3.4 12.6 17.3 4.6 3.4-12.6c.2-.8-.2-1.6-1-1.8l-14.6-3.9c-.7-.2-1.5.3-1.7 1.1zM101 89.4l.8-2.9c2.3-8.3-9.8-11.6-12.1-3.3l-.8 3" class="st1"/><path d="M93 94.8c.9.2 1.8-.3 2.1-1.3.3-.9-.3-1.9-1.2-2.1-.9-.2-1.8.3-2.1 1.3-.2.9.3 1.8 1.2 2.1z" class="st2"/><path d="M92.6 93.8l-3 4.7 4.6 1.2-.4-5.6-1.2-.3z" class="st2"/></svg>