<svg width="218" height="318" viewBox="0 0 218 318" fill="none" xmlns="http://www.w3.org/2000/svg">
<g opacity="0.5" clip-path="url(#clip0_5223:10301)" filter="url(#filter0_f_5223:10301)">
<path d="M100.061 123.785C124.087 128.303 147.227 112.489 151.745 88.4635C156.263 64.4376 140.449 41.2981 116.423 36.7799C92.3972 32.2618 69.2577 48.0759 64.7396 72.1018C60.2214 96.1277 76.0356 119.267 100.061 123.785Z" fill="#F4900C"/>
<path d="M101.024 118.667C125.05 123.186 148.189 107.371 152.708 83.3455C157.226 59.3197 141.412 36.1802 117.386 31.662C93.3599 27.1439 70.2204 42.958 65.7022 66.9839C61.1841 91.0097 76.9982 114.149 101.024 118.667Z" fill="#FFCC4D"/>
<path d="M101.986 113.55C121.772 117.27 140.829 104.247 144.549 84.4609C148.27 64.6749 135.247 45.6189 115.461 41.898C95.6747 38.1772 76.6187 51.2006 72.8979 70.9866C69.177 90.7726 82.2004 109.829 101.986 113.55Z" fill="#FFE8B6"/>
<path d="M102.468 110.99C122.254 114.711 141.31 101.688 145.031 81.9018C148.751 62.1158 135.728 43.0598 115.942 39.339C96.1559 35.6181 77.0999 48.6415 73.3791 68.4275C69.6582 88.2136 82.6816 107.27 102.468 110.99Z" fill="#FFAC33"/>
<path d="M122.47 63.0117C122.325 63.6378 122.159 64.2585 121.972 64.8728C124.805 66.0768 127.191 67.9409 128.849 70.2452C126.519 69.072 123.87 68.1643 121.044 67.5706C120.747 68.2908 120.421 68.9979 120.067 69.6901C122.607 71.0236 124.708 72.9023 126.153 75.1311C123.937 73.8752 121.405 72.8567 118.685 72.1273C118.299 72.7193 117.891 73.2961 117.461 73.8562C119.515 75.1717 121.208 76.861 122.412 78.7944C120.436 77.6209 118.198 76.6347 115.789 75.8765C115.438 76.2463 115.077 76.606 114.707 76.9553C116.189 78.4303 117.347 80.1225 118.116 81.9341C116.595 80.682 114.863 79.5347 112.971 78.5272C112.541 78.8703 112.102 79.2002 111.653 79.5163C112.584 81.0515 113.24 82.6864 113.594 84.3503C112.545 83.0661 111.333 81.8242 109.985 80.6513C109.592 80.885 109.193 81.1085 108.789 81.3217C109.432 82.674 109.874 84.0774 110.101 85.4891C109.256 84.3464 108.291 83.2284 107.221 82.1526C106.605 82.4376 105.979 82.6992 105.343 82.9367C105.736 84.0886 105.99 85.2595 106.1 86.4255C105.452 85.4169 104.719 84.4199 103.906 83.4455C103.371 83.6101 102.83 83.7578 102.286 83.8884C102.418 84.8494 102.46 85.8057 102.41 86.7443C102.026 85.8932 101.59 85.0407 101.103 84.1928C100.629 84.2824 100.154 84.3592 99.6764 84.423C99.7426 85.1794 99.7525 85.9302 99.7059 86.6692C99.4054 85.9735 99.0698 85.2761 98.7007 84.5805C97.9478 84.6683 97.1915 84.7241 96.434 84.7476C96.4035 85.2341 96.3496 85.7149 96.2725 86.1882C96.1139 85.7183 95.9406 85.2464 95.7529 84.7736C93.4185 84.7493 91.0967 84.4193 88.845 83.7915C89.9135 85.0521 91.0932 86.2142 92.3696 87.2639C95.9031 88.6212 99.6701 89.3241 103.473 89.3359C110.481 89.3296 117.27 86.9786 122.681 82.6839C128.093 78.3893 131.791 72.4171 133.147 65.7859C129.866 64.2781 126.231 63.3336 122.47 63.0117Z" fill="#FFCC4D"/>
<path d="M120.256 61.5356C120.111 62.1617 119.945 62.7824 119.757 63.3967C122.591 64.6007 124.977 66.4649 126.635 68.7692C124.305 67.5959 121.656 66.6883 118.829 66.0945C118.533 66.8147 118.207 67.5218 117.853 68.214C120.393 69.5475 122.494 71.4262 123.939 73.6551C121.723 72.3991 119.191 71.3806 116.471 70.6512C116.085 71.2433 115.677 71.82 115.247 72.3801C117.301 73.6956 118.994 75.3849 120.198 77.3183C118.222 76.1448 115.984 75.1586 113.575 74.4005C113.224 74.7702 112.863 75.1299 112.493 75.4792C113.975 76.9543 115.133 78.6464 115.902 80.458C114.381 79.2059 112.648 78.0586 110.757 77.0511C110.327 77.3942 109.888 77.7241 109.439 78.0402C110.37 79.5754 111.026 81.2103 111.38 82.8742C110.331 81.59 109.119 80.3482 107.771 79.1753C107.378 79.4089 106.979 79.6325 106.575 79.8457C107.218 81.1979 107.66 82.6013 107.887 84.013C107.042 82.8704 106.077 81.7523 105.007 80.6765C104.391 80.9616 103.764 81.2231 103.129 81.4606C103.522 82.6125 103.776 83.7834 103.886 84.9494C103.238 83.9409 102.504 82.9438 101.692 81.9694C101.157 82.134 100.616 82.2817 100.071 82.4123C100.204 83.3733 100.246 84.3296 100.196 85.2683C99.8123 84.4171 99.3756 83.5646 98.8888 82.7167C98.4153 82.8063 97.9397 82.8831 97.4623 82.9469C97.5285 83.7033 97.5384 84.4541 97.4918 85.1931C97.1913 84.4974 96.8557 83.8001 96.4866 83.1044C95.7337 83.1922 94.9774 83.248 94.2199 83.2715C94.1893 83.758 94.1354 84.2388 94.0584 84.7121C93.8998 84.2422 93.7265 83.7704 93.5388 83.2976C91.2043 83.2733 88.8826 82.9433 86.6309 82.3155C87.6994 83.576 88.879 84.7382 90.1555 85.7878C93.689 87.1451 97.456 87.848 101.259 87.8598C108.267 87.8535 115.056 85.5026 120.467 81.2078C125.879 76.9132 129.577 70.941 130.933 64.3099C127.652 62.802 124.017 61.8576 120.256 61.5356Z" fill="#FFE8B6"/>
</g>
<g opacity="0.2" clip-path="url(#clip1_5223:10301)" filter="url(#filter1_f_5223:10301)">
<path d="M26.7361 228.2C48.892 232.367 70.2304 217.783 74.3969 195.628C78.5634 173.472 63.9801 152.133 41.8243 147.967C19.6684 143.8 -1.67008 158.383 -5.83656 180.539C-10.003 202.695 4.58023 224.034 26.7361 228.2Z" fill="#F4900C"/>
<path d="M27.6238 223.481C49.7797 227.647 71.1181 213.064 75.2846 190.908C79.4511 168.752 64.8678 147.414 42.712 143.247C20.5561 139.081 -0.782384 153.664 -4.94886 175.82C-9.11534 197.976 5.46793 219.314 27.6238 223.481Z" fill="#FFCC4D"/>
<path d="M28.5112 218.761C46.7572 222.192 64.33 210.182 67.7613 191.936C71.1925 173.69 59.1827 156.118 40.9367 152.686C22.6907 149.255 5.11786 161.265 1.68664 179.511C-1.74458 197.757 10.2652 215.33 28.5112 218.761Z" fill="#FFE8B6"/>
<path d="M28.955 216.401C47.201 219.832 64.7739 207.823 68.2051 189.577C71.6363 171.331 59.6266 153.758 41.3806 150.327C23.1346 146.895 5.56171 158.905 2.13049 177.151C-1.30073 195.397 10.709 212.97 28.955 216.401Z" fill="#FFAC33"/>
<path d="M47.4008 172.157C47.2672 172.734 47.1138 173.306 46.941 173.873C49.5536 174.983 51.7544 176.702 53.2835 178.827C51.1348 177.745 48.6921 176.908 46.0853 176.361C45.8121 177.025 45.5116 177.677 45.1845 178.315C47.5269 179.545 49.4648 181.277 50.7968 183.333C48.7534 182.175 46.4184 181.235 43.9103 180.563C43.5544 181.109 43.178 181.641 42.7819 182.157C44.6754 183.37 46.2371 184.928 47.3469 186.711C45.5254 185.629 43.4613 184.719 41.2398 184.02C40.9163 184.361 40.5835 184.693 40.242 185.015C41.6085 186.375 42.6768 187.936 43.3853 189.606C41.9831 188.452 40.3854 187.394 38.6409 186.465C38.2449 186.781 37.8397 187.085 37.4258 187.377C38.2841 188.792 38.8894 190.3 39.2157 191.834C38.2479 190.65 37.1306 189.505 35.8878 188.423C35.5252 188.639 35.1573 188.845 34.7845 189.042C35.3776 190.289 35.785 191.583 35.9942 192.885C35.2155 191.831 34.3255 190.8 33.3383 189.808C32.7702 190.071 32.1928 190.312 31.6071 190.531C31.9693 191.593 32.2035 192.673 32.3048 193.748C31.7077 192.818 31.031 191.899 30.2821 191C29.7881 191.152 29.2895 191.288 28.7873 191.409C28.9095 192.295 28.9479 193.177 28.902 194.042C28.5483 193.257 28.1456 192.471 27.6967 191.689C27.2601 191.772 26.8214 191.843 26.3812 191.902C26.4423 192.599 26.4513 193.291 26.4084 193.973C26.1313 193.331 25.8219 192.688 25.4815 192.047C24.7872 192.128 24.0898 192.179 23.3912 192.201C23.363 192.649 23.3133 193.093 23.2423 193.529C23.096 193.096 22.9362 192.661 22.7631 192.225C20.6103 192.202 18.4693 191.898 16.3928 191.319C17.3782 192.482 18.466 193.553 19.6431 194.521C22.9016 195.773 26.3754 196.421 29.8827 196.432C36.3453 196.426 42.6055 194.258 47.5957 190.298C52.5858 186.337 55.9966 180.83 57.2463 174.715C54.2208 173.325 50.869 172.454 47.4008 172.157Z" fill="#FFCC4D"/>
<path d="M45.3588 170.795C45.2252 171.373 45.0718 171.945 44.8991 172.512C47.5116 173.622 49.7124 175.341 51.2415 177.466C49.0928 176.384 46.6502 175.547 44.0433 174.999C43.7702 175.664 43.4696 176.316 43.1425 176.954C45.4849 178.184 47.4228 179.916 48.7548 181.972C46.7114 180.813 44.3765 179.874 41.8683 179.201C41.5124 179.747 41.136 180.279 40.7399 180.796C42.6334 182.009 44.1951 183.567 45.305 185.35C43.4834 184.268 41.4193 183.358 39.1978 182.659C38.8743 183 38.5415 183.332 38.2 183.654C39.5665 185.014 40.6348 186.574 41.3433 188.245C39.9411 187.09 38.3434 186.032 36.5989 185.103C36.2029 185.42 35.7977 185.724 35.3838 186.015C36.2421 187.431 36.8474 188.939 37.1737 190.473C36.2059 189.289 35.0886 188.144 33.8458 187.062C33.4832 187.278 33.1153 187.484 32.7425 187.68C33.3356 188.927 33.743 190.221 33.9523 191.523C33.1735 190.47 32.2835 189.439 31.2963 188.447C30.7282 188.709 30.1508 188.951 29.5651 189.17C29.9273 190.232 30.1615 191.312 30.2628 192.387C29.6657 191.457 28.989 190.537 28.2401 189.639C27.7461 189.791 27.2476 189.927 26.7453 190.047C26.8675 190.933 26.9059 191.815 26.86 192.681C26.5063 191.896 26.1036 191.11 25.6547 190.328C25.2181 190.411 24.7795 190.481 24.3392 190.54C24.4003 191.238 24.4094 191.93 24.3664 192.612C24.0893 191.97 23.7799 191.327 23.4395 190.685C22.7452 190.766 22.0478 190.818 21.3492 190.84C21.321 191.288 21.2713 191.731 21.2003 192.168C21.054 191.735 20.8942 191.3 20.7211 190.864C18.5683 190.841 16.4273 190.537 14.3508 189.958C15.3362 191.12 16.424 192.192 17.6012 193.16C20.8596 194.412 24.3334 195.06 27.8407 195.071C34.3033 195.065 40.5635 192.897 45.5537 188.936C50.5438 184.976 53.9546 179.469 55.2044 173.354C52.1788 171.963 48.827 171.092 45.3588 170.795Z" fill="#FFE8B6"/>
</g>
<g opacity="0.5" clip-path="url(#clip2_5223:10301)" filter="url(#filter2_f_5223:10301)">
<path d="M163.173 259.525C183.085 263.269 202.261 250.164 206.006 230.252C209.75 210.341 196.644 191.164 176.733 187.42C156.822 183.676 137.645 196.781 133.901 216.693C130.156 236.604 143.262 255.781 163.173 259.525Z" fill="#F4900C"/>
<path d="M163.971 255.284C183.882 259.028 203.059 245.922 206.804 226.011C210.548 206.1 197.442 186.923 177.531 183.178C157.62 179.434 138.443 192.54 134.698 212.451C130.954 232.362 144.06 251.539 163.971 255.284Z" fill="#FFCC4D"/>
<path d="M164.769 251.042C181.166 254.126 196.959 243.333 200.042 226.935C203.126 210.538 192.333 194.745 175.935 191.661C159.538 188.578 143.745 199.371 140.662 215.768C137.578 232.166 148.371 247.959 164.769 251.042Z" fill="#FFE8B6"/>
<path d="M165.168 248.921C181.565 252.005 197.358 241.212 200.441 224.815C203.525 208.417 192.732 192.624 176.334 189.541C159.937 186.457 144.144 197.25 141.061 213.648C137.977 230.045 148.77 245.838 165.168 248.921Z" fill="#FFAC33"/>
<path d="M181.745 209.159C181.624 209.678 181.487 210.193 181.331 210.702C183.679 211.7 185.657 213.244 187.031 215.154C185.1 214.182 182.905 213.43 180.562 212.938C180.317 213.534 180.047 214.12 179.753 214.694C181.858 215.799 183.599 217.356 184.796 219.203C182.96 218.162 180.862 217.318 178.608 216.714C178.288 217.205 177.949 217.682 177.594 218.147C179.295 219.237 180.699 220.637 181.696 222.239C180.059 221.267 178.204 220.449 176.208 219.821C175.917 220.127 175.618 220.426 175.311 220.715C176.539 221.937 177.499 223.34 178.136 224.841C176.876 223.804 175.44 222.853 173.872 222.018C173.516 222.302 173.152 222.575 172.78 222.837C173.551 224.11 174.095 225.465 174.389 226.844C173.519 225.779 172.515 224.75 171.398 223.778C171.072 223.972 170.741 224.157 170.406 224.334C170.939 225.454 171.305 226.617 171.494 227.787C170.794 226.84 169.994 225.914 169.107 225.022C168.596 225.259 168.077 225.475 167.551 225.672C167.876 226.627 168.087 227.597 168.178 228.563C167.641 227.728 167.033 226.901 166.36 226.094C165.916 226.23 165.468 226.353 165.017 226.461C165.127 227.257 165.161 228.05 165.12 228.828C164.802 228.122 164.44 227.416 164.037 226.713C163.644 226.787 163.25 226.851 162.854 226.904C162.909 227.531 162.917 228.153 162.879 228.765C162.63 228.189 162.352 227.611 162.046 227.034C161.422 227.107 160.795 227.153 160.167 227.173C160.142 227.576 160.097 227.974 160.033 228.367C159.902 227.977 159.758 227.586 159.603 227.194C157.668 227.174 155.744 226.901 153.878 226.381C154.763 227.425 155.741 228.388 156.799 229.258C159.727 230.383 162.849 230.966 166.001 230.975C171.809 230.97 177.435 229.022 181.92 225.463C186.404 221.903 189.469 216.954 190.593 211.459C187.874 210.209 184.861 209.426 181.745 209.159Z" fill="#FFCC4D"/>
<path d="M179.909 207.936C179.789 208.455 179.651 208.969 179.496 209.478C181.844 210.476 183.822 212.021 185.196 213.931C183.265 212.958 181.07 212.206 178.727 211.714C178.482 212.311 178.212 212.897 177.917 213.471C180.023 214.576 181.764 216.133 182.961 217.98C181.125 216.939 179.026 216.095 176.772 215.49C176.453 215.981 176.114 216.459 175.758 216.923C177.46 218.014 178.863 219.414 179.861 221.016C178.224 220.043 176.369 219.226 174.372 218.598C174.082 218.904 173.783 219.202 173.476 219.492C174.704 220.714 175.664 222.116 176.301 223.618C175.04 222.58 173.605 221.629 172.037 220.794C171.681 221.079 171.317 221.352 170.945 221.614C171.716 222.886 172.26 224.241 172.553 225.62C171.684 224.556 170.68 223.527 169.563 222.555C169.237 222.748 168.906 222.934 168.571 223.11C169.104 224.231 169.47 225.394 169.658 226.564C168.958 225.617 168.159 224.69 167.271 223.799C166.761 224.035 166.242 224.252 165.716 224.449C166.041 225.403 166.252 226.374 166.343 227.34C165.806 226.504 165.198 225.678 164.525 224.87C164.081 225.007 163.633 225.129 163.182 225.237C163.291 226.034 163.326 226.826 163.285 227.604C162.967 226.899 162.605 226.192 162.201 225.49C161.809 225.564 161.415 225.628 161.019 225.68C161.074 226.307 161.082 226.93 161.044 227.542C160.795 226.965 160.517 226.388 160.211 225.811C159.587 225.884 158.96 225.93 158.332 225.949C158.307 226.353 158.262 226.751 158.198 227.143C158.067 226.754 157.923 226.363 157.768 225.971C155.833 225.951 153.909 225.677 152.043 225.157C152.928 226.202 153.906 227.165 154.964 228.035C157.892 229.16 161.014 229.742 164.166 229.752C169.974 229.747 175.6 227.798 180.084 224.239C184.569 220.68 187.634 215.731 188.757 210.235C186.038 208.986 183.026 208.203 179.909 207.936Z" fill="#FFE8B6"/>
</g>
<g opacity="0.75" clip-path="url(#clip3_5223:10301)" filter="url(#filter3_f_5223:10301)">
<path d="M30.6958 156.337C59.7469 161.8 87.7263 142.678 93.1894 113.627C98.6526 84.5756 79.5308 56.5963 50.4796 51.1331C21.4285 45.67 -6.55083 64.7918 -12.014 93.8429C-17.4772 122.894 1.64467 150.873 30.6958 156.337Z" fill="#F4900C"/>
<path d="M31.8596 150.148C60.9107 155.611 88.8901 136.489 94.3533 107.438C99.8164 78.3872 80.6946 50.4078 51.6435 44.9447C22.5923 39.4815 -5.38702 58.6033 -10.8502 87.6544C-16.3133 116.706 2.80849 144.685 31.8596 150.148Z" fill="#FFCC4D"/>
<path d="M33.0233 143.96C56.9478 148.459 79.9896 132.711 84.4887 108.787C88.9877 84.8625 73.2403 61.8207 49.3159 57.3216C25.3914 52.8225 2.34961 68.5699 -2.14946 92.4944C-6.64853 116.419 9.09885 139.461 33.0233 143.96Z" fill="#FFE8B6"/>
<path d="M33.6053 140.865C57.5298 145.365 80.5716 129.617 85.0707 105.693C89.5698 81.7682 73.8224 58.7264 49.8979 54.2273C25.9735 49.7283 2.93164 65.4757 -1.56743 89.4001C-6.0665 113.325 9.68088 136.366 33.6053 140.865Z" fill="#FFAC33"/>
<path d="M57.7915 82.8516C57.6162 83.6086 57.4152 84.3591 57.1886 85.1019C60.6143 86.5577 63.4999 88.8118 65.5049 91.598C62.6875 90.1794 59.4847 89.0819 56.0665 88.364C55.7084 89.2348 55.3143 90.0898 54.8854 90.9267C57.9568 92.5392 60.4978 94.8108 62.2444 97.5059C59.565 95.9872 56.5034 94.7557 53.2147 93.8737C52.748 94.5896 52.2544 95.287 51.7351 95.9643C54.2178 97.5549 56.2656 99.5976 57.7208 101.935C55.3325 100.516 52.6259 99.3239 49.7131 98.4072C49.2889 98.8543 48.8526 99.2892 48.4047 99.7115C50.1965 101.495 51.5973 103.541 52.5262 105.732C50.6877 104.218 48.5927 102.83 46.3053 101.612C45.7861 102.027 45.2548 102.426 44.712 102.808C45.8375 104.665 46.6312 106.641 47.059 108.653C45.7901 107.1 44.325 105.599 42.6955 104.181C42.22 104.463 41.7376 104.733 41.2488 104.991C42.0264 106.626 42.5606 108.323 42.835 110.03C41.8139 108.649 40.6469 107.297 39.3525 105.996C38.6076 106.341 37.8505 106.657 37.0825 106.944C37.5574 108.337 37.8645 109.753 37.9973 111.163C37.2145 109.943 36.3271 108.737 35.3451 107.559C34.6973 107.758 34.0437 107.937 33.3851 108.095C33.5453 109.257 33.5957 110.413 33.5356 111.548C33.0718 110.519 32.5437 109.488 31.9551 108.463C31.3826 108.571 30.8075 108.664 30.2302 108.741C30.3103 109.656 30.3222 110.564 30.2659 111.457C29.9026 110.616 29.4968 109.773 29.0505 108.932C28.1401 109.038 27.2256 109.105 26.3097 109.134C26.2727 109.722 26.2075 110.303 26.1144 110.876C25.9226 110.307 25.713 109.737 25.4861 109.165C22.6634 109.136 19.8561 108.737 17.1333 107.978C18.4253 109.502 19.8517 110.907 21.3952 112.176C25.6677 113.817 30.2226 114.667 34.8214 114.682C43.2953 114.674 51.5038 111.831 58.047 106.638C64.5901 101.446 69.0624 94.2241 70.7011 86.206C66.734 84.3828 62.339 83.2408 57.7915 82.8516Z" fill="#FFCC4D"/>
<path d="M55.114 81.0667C54.9387 81.8236 54.7377 82.5742 54.5111 83.317C57.9368 84.7728 60.8225 87.0269 62.8274 89.8131C60.0101 88.3945 56.8072 87.297 53.389 86.579C53.0309 87.4499 52.6369 88.3049 52.2079 89.1418C55.2793 90.7543 57.8203 93.0259 59.5669 95.7209C56.8875 94.2023 53.8259 92.9708 50.5372 92.0888C50.0706 92.8047 49.5769 93.5021 49.0576 94.1794C51.5403 95.77 53.5881 97.8127 55.0434 100.15C52.655 98.7315 49.9484 97.539 47.0356 96.6223C46.6114 97.0694 46.1751 97.5043 45.7272 97.9266C47.519 99.7102 48.9198 101.756 49.8487 103.947C48.0102 102.433 45.9153 101.046 43.6279 99.8274C43.1086 100.242 42.5773 100.641 42.0345 101.023C43.16 102.88 43.9537 104.856 44.3815 106.868C43.1126 105.316 41.6475 103.814 40.018 102.396C39.5425 102.678 39.0601 102.949 38.5713 103.206C39.349 104.841 39.8831 106.538 40.1575 108.245C39.1364 106.864 37.9694 105.512 36.675 104.211C35.9301 104.556 35.173 104.872 34.405 105.159C34.8799 106.552 35.187 107.968 35.3198 109.378C34.537 108.158 33.6496 106.953 32.6676 105.774C32.0199 105.973 31.3662 106.152 30.7076 106.31C30.8678 107.472 30.9182 108.628 30.8581 109.763C30.3943 108.734 29.8662 107.703 29.2776 106.678C28.7051 106.786 28.13 106.879 27.5527 106.956C27.6328 107.871 27.6447 108.779 27.5884 109.672C27.2251 108.831 26.8193 107.988 26.373 107.147C25.4626 107.253 24.5482 107.32 23.6322 107.349C23.5952 107.937 23.5301 108.518 23.4369 109.091C23.2451 108.523 23.0356 107.952 22.8086 107.38C19.9859 107.351 17.1786 106.952 14.4558 106.193C15.7478 107.717 17.1742 109.122 18.7177 110.391C22.9902 112.033 27.5451 112.882 32.144 112.897C40.6178 112.889 48.8263 110.046 55.3695 104.853C61.9126 99.6606 66.3849 92.4392 68.0236 84.4211C64.0565 82.5979 59.6615 81.4559 55.114 81.0667Z" fill="#FFE8B6"/>
</g>
<g opacity="0.75" clip-path="url(#clip4_5223:10301)" filter="url(#filter4_f_5223:10301)">
<path d="M122.988 292.702C149.662 279.962 160.958 248.011 148.218 221.337C135.478 194.662 103.527 183.367 76.8526 196.107C50.1786 208.847 38.8827 240.798 51.6227 267.472C64.3627 294.146 96.3141 305.442 122.988 292.702Z" fill="#F4900C"/>
<path d="M120.274 287.02C146.948 274.28 158.244 242.328 145.504 215.654C132.764 188.98 100.813 177.684 74.1388 190.424C47.4647 203.164 36.1688 235.116 48.9088 261.79C61.6488 288.464 93.6002 299.76 120.274 287.02Z" fill="#FFCC4D"/>
<path d="M117.561 281.338C139.527 270.846 148.83 244.533 138.338 222.566C127.846 200.599 101.533 191.297 79.5666 201.789C57.5997 212.28 48.2972 238.593 58.789 260.56C69.2807 282.527 95.5936 291.83 117.561 281.338Z" fill="#FFE8B6"/>
<path d="M116.204 278.497C138.17 268.005 147.473 241.692 136.981 219.725C126.489 197.758 100.177 188.456 78.2096 198.948C56.2427 209.439 46.9403 235.752 57.432 257.719C67.9238 279.686 94.2367 288.989 116.204 278.497Z" fill="#FFAC33"/>
<path d="M101.479 217.392C101.784 218.107 102.065 218.831 102.321 219.564C105.945 218.717 109.605 218.833 112.868 219.899C109.756 220.417 106.523 221.422 103.341 222.86C103.566 223.774 103.752 224.697 103.9 225.626C107.331 225.114 110.723 225.448 113.724 226.592C110.665 226.948 107.466 227.761 104.291 228.991C104.337 229.844 104.35 230.698 104.331 231.552C107.274 231.37 110.133 231.81 112.687 232.838C109.922 233.102 107.033 233.737 104.141 234.717C104.063 235.328 103.967 235.937 103.855 236.542C106.354 236.924 108.693 237.749 110.736 238.968C108.358 238.832 105.848 238.949 103.282 239.316C103.108 239.957 102.915 240.593 102.702 241.222C104.707 242.056 106.514 243.183 108.047 244.554C106.106 244.05 104.037 243.703 101.885 243.52C101.668 244.029 101.438 244.532 101.196 245.028C102.789 245.889 104.222 246.943 105.451 248.159C103.811 247.647 102.071 247.244 100.258 246.959C99.8604 247.677 99.436 248.379 98.9856 249.064C100.191 249.908 101.275 250.869 102.214 251.929C100.863 251.407 99.4345 250.957 97.9464 250.586C97.5411 251.129 97.1189 251.659 96.6805 252.175C97.4958 253.019 98.219 253.922 98.8405 254.874C97.8586 254.317 96.8239 253.797 95.7435 253.317C95.3454 253.742 94.936 254.156 94.5156 254.56C95.1201 255.251 95.6657 255.976 96.1478 256.731C95.3579 256.266 94.5326 255.825 93.6758 255.41C93.0036 256.033 92.3053 256.627 91.5828 257.191C91.9002 257.687 92.1908 258.195 92.4535 258.712C91.9632 258.367 91.4573 258.03 90.9366 257.702C88.6409 259.345 86.1393 260.68 83.4935 261.675C85.4362 262.142 87.417 262.435 89.4121 262.548C93.8295 261.35 98.0078 259.347 101.728 256.644C108.564 251.636 113.511 244.495 115.727 236.441C117.943 228.387 117.29 219.918 113.879 212.479C109.601 213.349 105.379 215.022 101.479 217.392Z" fill="#FFCC4D"/>
<path d="M98.2637 217.532C98.5691 218.246 98.8499 218.971 99.1055 219.704C102.73 218.857 106.39 218.973 109.653 220.038C106.541 220.556 103.308 221.561 100.125 223C100.35 223.914 100.537 224.837 100.685 225.765C104.116 225.254 107.508 225.587 110.509 226.732C107.449 227.088 104.251 227.901 101.076 229.13C101.122 229.984 101.135 230.838 101.116 231.691C104.059 231.509 106.918 231.949 109.472 232.977C106.707 233.242 103.818 233.877 100.926 234.857C100.848 235.468 100.752 236.077 100.64 236.682C103.139 237.064 105.478 237.888 107.52 239.108C105.143 238.971 102.633 239.088 100.067 239.455C99.8932 240.097 99.6998 240.732 99.4873 241.361C101.492 242.195 103.299 243.322 104.832 244.694C102.891 244.189 100.822 243.842 98.6698 243.66C98.4528 244.168 98.223 244.671 97.9806 245.168C99.5736 246.029 101.007 247.083 102.236 248.299C100.596 247.786 98.8558 247.384 97.0431 247.098C96.6453 247.816 96.2209 248.518 95.7705 249.204C96.9761 250.047 98.0597 251.009 98.9992 252.068C97.6474 251.546 96.2195 251.097 94.7313 250.726C94.326 251.269 93.9038 251.799 93.4654 252.315C94.2807 253.158 95.004 254.062 95.6255 255.014C94.6435 254.457 93.6088 253.936 92.5285 253.456C92.1303 253.882 91.7209 254.296 91.3005 254.699C91.905 255.39 92.4506 256.116 92.9327 256.87C92.1428 256.406 91.3175 255.965 90.4607 255.549C89.7885 256.173 89.0902 256.767 88.3677 257.33C88.6851 257.827 88.9757 258.335 89.2384 258.852C88.7482 258.506 88.2422 258.169 87.7216 257.842C85.4258 259.485 82.9242 260.82 80.2784 261.814C82.2211 262.282 84.2019 262.574 86.197 262.687C90.6145 261.49 94.7928 259.487 98.5132 256.784C105.348 251.775 110.296 244.635 112.512 236.581C114.728 228.527 114.075 220.058 110.664 212.619C106.386 213.489 102.164 215.162 98.2637 217.532Z" fill="#FFE8B6"/>
</g>
<g clip-path="url(#clip5_5223:10301)">
<path d="M93.7817 243.034C135.269 250.836 175.226 223.528 183.028 182.041C190.83 140.554 163.522 100.597 122.035 92.7949C80.5472 84.9931 40.5904 112.301 32.7886 153.788C24.9867 195.275 52.2943 235.232 93.7817 243.034Z" fill="#F4900C"/>
<path d="M95.4435 234.197C136.931 241.999 176.888 214.691 184.69 173.204C192.491 131.716 165.184 91.7594 123.696 83.9575C82.2091 76.1557 42.2523 103.463 34.4504 144.951C26.6486 186.438 53.9561 226.395 95.4435 234.197Z" fill="#FFCC4D"/>
<path d="M97.1056 225.359C131.272 231.784 164.177 209.295 170.602 175.129C177.027 140.963 154.539 108.058 120.373 101.633C86.2066 95.2076 53.301 117.696 46.8759 151.862C40.4509 186.028 62.9395 218.934 97.1056 225.359Z" fill="#FFE8B6"/>
<path d="M97.9366 220.94C132.103 227.365 165.008 204.877 171.433 170.711C177.858 136.545 155.37 103.639 121.204 97.2139C87.0377 90.7889 54.132 113.277 47.707 147.444C41.282 181.61 63.7705 214.515 97.9366 220.94Z" fill="#FFAC33"/>
<path d="M132.477 138.092C132.226 139.173 131.939 140.244 131.616 141.305C136.508 143.384 140.629 146.603 143.492 150.582C139.469 148.556 134.895 146.989 130.013 145.964C129.502 147.207 128.939 148.428 128.326 149.624C132.713 151.926 136.341 155.17 138.836 159.019C135.009 156.85 130.637 155.092 125.941 153.832C125.274 154.854 124.569 155.85 123.828 156.818C127.373 159.089 130.297 162.006 132.376 165.345C128.965 163.318 125.1 161.615 120.94 160.306C120.334 160.945 119.711 161.566 119.071 162.169C121.63 164.716 123.631 167.638 124.957 170.766C122.332 168.604 119.34 166.623 116.073 164.883C115.332 165.476 114.573 166.045 113.798 166.591C115.405 169.242 116.539 172.065 117.15 174.939C115.338 172.721 113.245 170.577 110.918 168.551C110.239 168.955 109.55 169.341 108.852 169.709C109.963 172.044 110.726 174.467 111.117 176.905C109.659 174.932 107.993 173.001 106.144 171.144C105.08 171.636 103.999 172.087 102.902 172.498C103.581 174.487 104.019 176.509 104.209 178.522C103.091 176.78 101.824 175.059 100.421 173.376C99.4962 173.66 98.5628 173.915 97.6222 174.141C97.8511 175.8 97.923 177.452 97.8371 179.073C97.1748 177.603 96.4206 176.131 95.58 174.667C94.7625 174.821 93.9412 174.954 93.1168 175.064C93.2312 176.37 93.2482 177.667 93.1678 178.943C92.6489 177.741 92.0694 176.537 91.4321 175.336C90.1319 175.488 88.826 175.584 87.518 175.625C87.4652 176.465 87.3721 177.295 87.2391 178.112C86.9652 177.301 86.6659 176.486 86.3419 175.67C82.3107 175.628 78.3017 175.058 74.4133 173.974C76.2584 176.15 78.2954 178.157 80.4996 179.97C86.6011 182.313 93.1059 183.527 99.6735 183.548C111.775 183.537 123.497 179.477 132.841 172.061C142.186 164.645 148.572 154.333 150.913 142.882C145.247 140.278 138.971 138.647 132.477 138.092Z" fill="#FFCC4D"/>
<path d="M128.653 135.542C128.403 136.624 128.115 137.695 127.792 138.756C132.684 140.835 136.805 144.054 139.668 148.033C135.645 146.007 131.071 144.44 126.189 143.415C125.678 144.658 125.115 145.879 124.503 147.075C128.889 149.377 132.518 152.621 135.012 156.47C131.186 154.301 126.813 152.543 122.117 151.283C121.45 152.305 120.745 153.301 120.004 154.269C123.549 156.54 126.474 159.457 128.552 162.796C125.141 160.769 121.276 159.066 117.116 157.757C116.51 158.396 115.887 159.017 115.248 159.62C117.807 162.167 119.807 165.089 121.134 168.217C118.508 166.055 115.516 164.074 112.25 162.334C111.508 162.927 110.749 163.496 109.974 164.042C111.582 166.693 112.715 169.516 113.326 172.389C111.514 170.172 109.422 168.028 107.094 166.002C106.416 166.406 105.727 166.792 105.029 167.16C106.139 169.495 106.902 171.918 107.294 174.356C105.835 172.383 104.169 170.452 102.32 168.595C101.257 169.087 100.175 169.538 99.0787 169.949C99.7569 171.938 100.195 173.959 100.385 175.973C99.2671 174.231 97.9999 172.51 96.5975 170.827C95.6725 171.111 94.739 171.366 93.7985 171.592C94.0273 173.251 94.0993 174.903 94.0134 176.523C93.351 175.054 92.5969 173.582 91.7563 172.118C90.9388 172.272 90.1175 172.405 89.293 172.515C89.4074 173.821 89.4244 175.118 89.344 176.394C88.8252 175.192 88.2457 173.988 87.6084 172.787C86.3082 172.939 85.0023 173.035 83.6942 173.076C83.6414 173.916 83.5484 174.746 83.4154 175.563C83.1415 174.752 82.8422 173.937 82.5181 173.121C78.487 173.079 74.4779 172.509 70.5896 171.425C72.4347 173.601 74.4717 175.608 76.6759 177.421C82.7774 179.764 89.2822 180.978 95.8497 180.999C107.951 180.988 119.674 176.928 129.018 169.512C138.362 162.096 144.749 151.783 147.089 140.333C141.423 137.729 135.147 136.098 128.653 135.542Z" fill="#FFE8B6"/>
</g>
<defs>
<filter id="filter0_f_5223:10301" x="24" y="-7" width="169.447" height="169.448" filterUnits="userSpaceOnUse" color-interpolation-filters="sRGB">
<feFlood flood-opacity="0" result="BackgroundImageFix"/>
<feBlend mode="normal" in="SourceGraphic" in2="BackgroundImageFix" result="shape"/>
<feGaussianBlur stdDeviation="15" result="effect1_foregroundBlur_5223:10301"/>
</filter>
<filter id="filter1_f_5223:10301" x="-45.7402" y="105.259" width="160.929" height="160.929" filterUnits="userSpaceOnUse" color-interpolation-filters="sRGB">
<feFlood flood-opacity="0" result="BackgroundImageFix"/>
<feBlend mode="normal" in="SourceGraphic" in2="BackgroundImageFix" result="shape"/>
<feGaussianBlur stdDeviation="15" result="effect1_foregroundBlur_5223:10301"/>
</filter>
<filter id="filter2_f_5223:10301" x="115" y="166" width="110.704" height="110.704" filterUnits="userSpaceOnUse" color-interpolation-filters="sRGB">
<feFlood flood-opacity="0" result="BackgroundImageFix"/>
<feBlend mode="normal" in="SourceGraphic" in2="BackgroundImageFix" result="shape"/>
<feGaussianBlur stdDeviation="5" result="effect1_foregroundBlur_5223:10301"/>
</filter>
<filter id="filter3_f_5223:10301" x="-35" y="24.4709" width="152.339" height="152.339" filterUnits="userSpaceOnUse" color-interpolation-filters="sRGB">
<feFlood flood-opacity="0" result="BackgroundImageFix"/>
<feBlend mode="normal" in="SourceGraphic" in2="BackgroundImageFix" result="shape"/>
<feGaussianBlur stdDeviation="5" result="effect1_foregroundBlur_5223:10301"/>
</filter>
<filter id="filter4_f_5223:10301" x="13" y="156" width="171.127" height="171.127" filterUnits="userSpaceOnUse" color-interpolation-filters="sRGB">
<feFlood flood-opacity="0" result="BackgroundImageFix"/>
<feBlend mode="normal" in="SourceGraphic" in2="BackgroundImageFix" result="shape"/>
<feGaussianBlur stdDeviation="5" result="effect1_foregroundBlur_5223:10301"/>
</filter>
<clipPath id="clip0_5223:10301">
<rect width="93.7381" height="93.7381" fill="white" transform="translate(71.324 23) rotate(10.6503)"/>
</clipPath>
<clipPath id="clip1_5223:10301">
<rect width="86.4422" height="86.4422" fill="white" transform="translate(0.235352 135.259) rotate(10.6503)"/>
</clipPath>
<clipPath id="clip2_5223:10301">
<rect width="77.6847" height="77.6847" fill="white" transform="translate(139.357 176) rotate(10.6503)"/>
</clipPath>
<clipPath id="clip3_5223:10301">
<rect width="113.344" height="113.344" fill="white" transform="translate(-4.05249 34.4709) rotate(10.6503)"/>
</clipPath>
<clipPath id="clip4_5223:10301">
<rect width="113.344" height="113.344" fill="white" transform="translate(23 214.849) rotate(-25.5299)"/>
</clipPath>
<clipPath id="clip5_5223:10301">
<rect width="161.865" height="161.865" fill="white" transform="translate(44.1582 69) rotate(10.6503)"/>
</clipPath>
</defs>
</svg>
