<svg width="77" height="75" viewBox="0 0 77 75" fill="none" xmlns="http://www.w3.org/2000/svg">
<circle cx="38.5" cy="37.5" r="37.5" fill="#211426"/>
<circle cx="38.5" cy="37.5" r="37" stroke="white" stroke-opacity="0.05"/>
<g filter="url(#filter0_d)">
<path d="M50.6536 25.7812C50.5002 26.4439 50.3242 27.1009 50.1259 27.7511C53.1246 29.0255 55.6506 30.9987 57.4057 33.4377C54.9395 32.1958 52.1358 31.2351 49.1436 30.6067C48.8301 31.369 48.4852 32.1174 48.1097 32.85C50.7983 34.2616 53.0226 36.25 54.5515 38.6092C52.2061 37.2798 49.526 36.2018 46.6472 35.4298C46.2387 36.0564 45.8066 36.6669 45.352 37.2598C47.5253 38.6522 49.3179 40.4403 50.5918 42.4866C48.501 41.2446 46.1318 40.2007 43.582 39.3982C43.2107 39.7896 42.8287 40.1703 42.4366 40.54C44.0051 42.1014 45.2314 43.8924 46.0445 45.8099C44.4351 44.4846 42.6013 43.2703 40.5989 42.2039C40.1444 42.567 39.6793 42.9162 39.2042 43.2508C40.1894 44.8757 40.8842 46.6062 41.2586 48.3674C40.1479 47.0081 38.8654 45.6937 37.4389 44.4522C37.0227 44.6995 36.6005 44.9361 36.1726 45.1618C36.8533 46.5931 37.3209 48.0786 37.5611 49.5728C36.6672 48.3633 35.6457 47.1799 34.5126 46.0412C33.8605 46.3429 33.1978 46.6198 32.5255 46.8712C32.9412 48.0904 33.21 49.3298 33.3263 50.5639C32.641 49.4964 31.8642 48.4411 31.0046 47.4097C30.4376 47.584 29.8654 47.7403 29.2889 47.8785C29.4291 48.8957 29.4733 49.9079 29.4206 50.9014C29.0146 50.0005 28.5523 49.0982 28.0371 48.2007C27.536 48.2955 27.0325 48.3768 26.5272 48.4444C26.5973 49.245 26.6077 50.0397 26.5584 50.8219C26.2404 50.0855 25.8852 49.3474 25.4945 48.6111C24.6976 48.704 23.8971 48.763 23.0953 48.788C23.0629 49.3029 23.0059 49.8118 22.9243 50.3128C22.7564 49.8154 22.573 49.3159 22.3743 48.8155C19.9034 48.7898 17.4459 48.4405 15.0625 47.776C16.1935 49.1103 17.4421 50.3403 18.7932 51.4514C22.5333 52.888 26.5205 53.632 30.5462 53.6445C37.964 53.6378 45.1495 51.1494 50.8772 46.6036C56.6049 42.0579 60.5199 35.7365 61.9543 28.7177C58.4816 27.1217 54.6343 26.122 50.6536 25.7812Z" fill="url(#paint0_linear)"/>
</g>
<defs>
<filter id="filter0_d" x="0.0625" y="10.7812" width="76.8926" height="57.8633" filterUnits="userSpaceOnUse" color-interpolation-filters="sRGB">
<feFlood flood-opacity="0" result="BackgroundImageFix"/>
<feColorMatrix in="SourceAlpha" type="matrix" values="0 0 0 0 0 0 0 0 0 0 0 0 0 0 0 0 0 0 127 0" result="hardAlpha"/>
<feOffset/>
<feGaussianBlur stdDeviation="7.5"/>
<feComposite in2="hardAlpha" operator="out"/>
<feColorMatrix type="matrix" values="0 0 0 0 1 0 0 0 0 0.745833 0 0 0 0 0.944546 0 0 0 0.37 0"/>
<feBlend mode="normal" in2="BackgroundImageFix" result="effect1_dropShadow"/>
<feBlend mode="normal" in="SourceGraphic" in2="effect1_dropShadow" result="shape"/>
</filter>
<linearGradient id="paint0_linear" x1="38.5084" y1="26.0145" x2="38.5084" y2="53.3394" gradientUnits="userSpaceOnUse">
<stop stop-color="#FFBF00"/>
<stop offset="1" stop-color="#E843C4"/>
</linearGradient>
</defs>
</svg>
