<svg width="134" height="134" viewBox="0 0 134 134" fill="none" xmlns="http://www.w3.org/2000/svg">
<circle cx="67" cy="67" r="67" fill="black"/>
<circle cx="67" cy="67" r="66" stroke="url(#paint0_linear)" stroke-width="2"/>
<path d="M95.4699 39.127C95.1068 40.6949 94.6904 42.2495 94.2212 43.7879C101.317 46.8032 107.293 51.472 111.446 57.243C105.611 54.3046 98.9769 52.0315 91.897 50.5445C91.1553 52.3482 90.3391 54.1191 89.4506 55.8526C95.8123 59.1924 101.075 63.8974 104.693 69.4796C99.1432 66.3341 92.8019 63.7833 85.9902 61.9565C85.0236 63.4394 84.0012 64.8837 82.9255 66.2866C88.0679 69.5811 92.3094 73.8121 95.3235 78.654C90.3766 75.7151 84.7707 73.2452 78.7375 71.3465C77.859 72.2725 76.9552 73.1732 76.0275 74.0481C79.7388 77.7424 82.6402 81.9803 84.5642 86.5173C80.7561 83.3815 76.417 80.5082 71.6792 77.985C70.6038 78.8442 69.5033 79.6703 68.3791 80.4621C70.7102 84.3069 72.3541 88.4015 73.2402 92.5686C70.612 89.3524 67.5774 86.2422 64.2023 83.3048C63.2176 83.8899 62.2183 84.4498 61.2059 84.9837C62.8166 88.3704 63.923 91.8852 64.4913 95.4208C62.3763 92.559 59.9592 89.7589 57.2782 87.0646C55.7353 87.7785 54.1672 88.4336 52.5764 89.0284C53.5602 91.9132 54.1961 94.8457 54.4713 97.7659C52.8498 95.2401 51.0118 92.743 48.9779 90.3027C47.6362 90.7149 46.2824 91.0848 44.9183 91.4119C45.2501 93.8187 45.3545 96.2136 45.2299 98.5645C44.2693 96.4328 43.1755 94.2978 41.9563 92.1743C40.7706 92.3986 39.5794 92.5909 38.3837 92.7508C38.5496 94.645 38.5743 96.5255 38.4577 98.3763C37.7051 96.6338 36.8647 94.8874 35.9403 93.1452C34.0546 93.3652 32.1605 93.5048 30.2634 93.5638C30.1868 94.7822 30.0518 95.9862 29.8589 97.1717C29.4616 95.9948 29.0276 94.813 28.5576 93.629C22.711 93.5681 16.8963 92.7416 11.2568 91.1693C13.9329 94.3264 16.8873 97.2369 20.0842 99.8657C28.9336 103.265 38.368 105.025 47.8933 105.055C65.4447 105.039 82.4465 99.1512 95.999 88.3953C109.551 77.6396 118.815 62.6823 122.209 46.0749C113.992 42.2986 104.889 39.9332 95.4699 39.127Z" fill="url(#paint1_linear)"/>
<path d="M95.4699 39.127C95.1068 40.6949 94.6904 42.2495 94.2212 43.7879C101.317 46.8032 107.293 51.472 111.446 57.243C105.611 54.3046 98.9769 52.0315 91.897 50.5445C91.1553 52.3482 90.3391 54.1191 89.4506 55.8526C95.8123 59.1924 101.075 63.8974 104.693 69.4796C99.1432 66.3341 92.8019 63.7833 85.9902 61.9565C85.0236 63.4394 84.0012 64.8837 82.9255 66.2866C88.0679 69.5811 92.3094 73.8121 95.3235 78.654C90.3766 75.7151 84.7707 73.2452 78.7375 71.3465C77.859 72.2725 76.9552 73.1732 76.0275 74.0481C79.7388 77.7424 82.6402 81.9803 84.5642 86.5173C80.7561 83.3815 76.417 80.5082 71.6792 77.985C70.6038 78.8442 69.5033 79.6703 68.3791 80.4621C70.7102 84.3069 72.3541 88.4015 73.2402 92.5686C70.612 89.3524 67.5774 86.2422 64.2023 83.3048C63.2176 83.8899 62.2183 84.4498 61.2059 84.9837C62.8166 88.3704 63.923 91.8852 64.4913 95.4208C62.3763 92.559 59.9592 89.7589 57.2782 87.0646C55.7353 87.7785 54.1672 88.4336 52.5764 89.0284C53.5602 91.9132 54.1961 94.8457 54.4713 97.7659C52.8498 95.2401 51.0118 92.743 48.9779 90.3027C47.6362 90.7149 46.2824 91.0848 44.9183 91.4119C45.2501 93.8187 45.3545 96.2136 45.2299 98.5645C44.2693 96.4328 43.1755 94.2978 41.9563 92.1743C40.7706 92.3986 39.5794 92.5909 38.3837 92.7508C38.5496 94.645 38.5743 96.5255 38.4577 98.3763C37.7051 96.6338 36.8647 94.8874 35.9403 93.1452C34.0546 93.3652 32.1605 93.5048 30.2634 93.5638C30.1868 94.7822 30.0518 95.9862 29.8589 97.1717C29.4616 95.9948 29.0276 94.813 28.5576 93.629C22.711 93.5681 16.8963 92.7416 11.2568 91.1693C13.9329 94.3264 16.8873 97.2369 20.0842 99.8657C28.9336 103.265 38.368 105.025 47.8933 105.055C65.4447 105.039 82.4465 99.1512 95.999 88.3953C109.551 77.6396 118.815 62.6823 122.209 46.0749C113.992 42.2986 104.889 39.9332 95.4699 39.127Z" fill="url(#paint2_linear)"/>
<defs>
<linearGradient id="paint0_linear" x1="66.9837" y1="134.027" x2="66.9837" y2="0.0136272" gradientUnits="userSpaceOnUse">
<stop stop-color="#FFBF00"/>
<stop offset="1" stop-color="#E843C4"/>
</linearGradient>
<linearGradient id="paint1_linear" x1="66.7194" y1="105.068" x2="66.7194" y2="39.1337" gradientUnits="userSpaceOnUse">
<stop stop-color="#FFBF00"/>
<stop offset="1" stop-color="#E843C4"/>
</linearGradient>
<linearGradient id="paint2_linear" x1="66.7194" y1="105.068" x2="66.7194" y2="39.1337" gradientUnits="userSpaceOnUse">
<stop stop-color="#FFBF00"/>
<stop offset="1" stop-color="#E843C4"/>
</linearGradient>
</defs>
</svg>
