<svg xmlns="http://www.w3.org/2000/svg" fill="#fff" viewBox="0 0 165 33"><path d="M76.58 30.24h-3.662v-7.616h-7.14v7.617h-3.663V12.467h3.662v7.202h7.141v-7.202h3.663v17.774zm9.058.245c-1.937 0-3.515-.594-4.736-1.782-1.213-1.189-1.819-2.771-1.819-4.749v-.342c0-1.326.256-2.51.77-3.552.512-1.05 1.236-1.855 2.172-2.417.944-.57 2.018-.855 3.223-.855 1.806 0 3.226.57 4.26 1.71 1.041 1.139 1.562 2.754 1.562 4.846v1.44h-8.41c.114.863.456 1.555 1.025 2.075.578.521 1.306.782 2.185.782 1.36 0 2.421-.493 3.186-1.477l1.734 1.94c-.53.75-1.246 1.335-2.149 1.758-.903.415-1.904.623-3.003.623zm-.403-10.84c-.7 0-1.27.236-1.709.708-.43.472-.708 1.147-.83 2.026h4.908v-.28c-.017-.782-.228-1.384-.635-1.807-.407-.431-.985-.647-1.734-.647zm11.573 10.596h-3.54V17.033h3.54V30.24zM93.06 13.615c0-.53.175-.965.525-1.306.358-.342.842-.513 1.453-.513.602 0 1.082.17 1.44.513.358.341.537.777.537 1.306 0 .537-.183.976-.55 1.318-.357.342-.833.513-1.427.513-.594 0-1.075-.171-1.44-.513-.359-.342-.538-.781-.538-1.318zm9.973 3.418l.11 1.477c.936-1.148 2.201-1.722 3.797-1.722 1.7 0 2.868.672 3.503 2.015.928-1.343 2.25-2.015 3.967-2.015 1.433 0 2.499.42 3.198 1.258.7.83 1.05 2.083 1.05 3.76v8.435h-3.54v-8.423c0-.749-.146-1.294-.439-1.636-.293-.35-.81-.525-1.551-.525-1.057 0-1.79.505-2.197 1.514l.012 9.07h-3.527V21.83c0-.765-.151-1.318-.452-1.66-.301-.342-.814-.513-1.538-.513-1.001 0-1.725.415-2.173 1.245v9.339h-3.528V17.033h3.308zm17.798 6.506c0-2.059.46-3.699 1.38-4.92.927-1.22 2.193-1.83 3.796-1.83 1.286 0 2.348.48 3.186 1.44V11.49h3.54v18.75h-3.186l-.171-1.404c-.879 1.099-2.01 1.648-3.394 1.648-1.554 0-2.803-.61-3.747-1.831-.936-1.23-1.404-2.934-1.404-5.115zm3.528.256c0 1.237.216 2.185.647 2.845.431.659 1.058.988 1.88.988 1.09 0 1.859-.46 2.307-1.379v-5.212c-.44-.92-1.2-1.38-2.283-1.38-1.701 0-2.551 1.38-2.551 4.138zm18.762 6.446c-.163-.318-.281-.712-.354-1.184-.854.952-1.965 1.428-3.332 1.428-1.294 0-2.369-.375-3.223-1.123-.846-.749-1.27-1.693-1.27-2.832 0-1.4.517-2.474 1.551-3.223 1.041-.749 2.543-1.127 4.504-1.135h1.624v-.757c0-.61-.159-1.099-.476-1.465-.31-.366-.802-.55-1.477-.55-.595 0-1.062.143-1.404.428-.334.285-.501.675-.501 1.172h-3.528c0-.765.236-1.473.708-2.124s1.14-1.16 2.002-1.526c.863-.374 1.831-.562 2.906-.562 1.627 0 2.917.412 3.869 1.233.961.814 1.441 1.962 1.441 3.443v5.725c.008 1.253.183 2.201.525 2.844v.208h-3.565zm-2.917-2.454a3.08 3.08 0 001.44-.342c.44-.236.765-.55.977-.94v-2.27h-1.319c-1.766 0-2.706.61-2.82 1.83l-.012.208c0 .44.155.802.464 1.087.309.285.733.427 1.27.427zm12.39 2.454h-3.54V11.49h3.54v18.75zm6.64 0h-3.54V11.49h3.54v18.75zM41.314 0a34.025 34.025 0 01-.613 2.267c3.481 1.467 6.413 3.737 8.45 6.544-2.862-1.429-6.117-2.535-9.59-3.258a33.924 33.924 0 01-1.2 2.582c3.12 1.624 5.703 3.913 7.478 6.628-2.723-1.53-5.834-2.77-9.176-3.66a33.755 33.755 0 01-1.503 2.107c2.523 1.602 4.603 3.66 6.082 6.015-2.427-1.43-5.177-2.63-8.137-3.554-.43.45-.874.888-1.33 1.314 1.821 1.797 3.245 3.858 4.189 6.064-1.868-1.525-3.997-2.922-6.322-4.15a33.46 33.46 0 01-1.619 1.205c1.144 1.87 1.95 3.862 2.385 5.889a37.442 37.442 0 00-4.434-4.506c-.483.285-.973.557-1.47.817a18.658 18.658 0 011.612 5.076 36.852 36.852 0 00-3.538-4.064 33.26 33.26 0 01-2.307.955 18.44 18.44 0 01.93 4.25 36.417 36.417 0 00-2.695-3.63c-.659.2-1.323.38-1.992.539.163 1.17.214 2.335.153 3.479A35.651 35.651 0 0015.06 25.8c-.582.109-1.166.202-1.753.28.082.922.094 1.836.036 2.736a35.148 35.148 0 00-1.235-2.544c-.925.107-1.854.175-2.785.204a17.782 17.782 0 01-.198 1.754 34.945 34.945 0 00-.638-1.723A33.14 33.14 0 010 25.312a33.782 33.782 0 004.33 4.23 38.693 38.693 0 0013.643 2.524c8.61-.008 16.952-2.872 23.6-8.103 6.65-5.232 11.194-12.506 12.859-20.584C50.4 1.543 45.935.392 41.314 0z"/></svg>