<svg width="26" height="28" viewBox="0 0 26 28" fill="none" xmlns="http://www.w3.org/2000/svg">
<path d="M14.625 28V16.8021H24.375V25.2005C24.375 25.943 24.0326 26.655 23.4231 27.18C22.8136 27.7051 21.987 28 21.125 28H14.625ZM11.375 8.40363V14.0026H1.625C1.19402 14.0026 0.780698 13.8551 0.475952 13.5926C0.171205 13.3301 0 12.9741 0 12.6028V9.80337C0 9.43213 0.171205 9.0761 0.475952 8.8136C0.780698 8.5511 1.19402 8.40363 1.625 8.40363H2.49437C1.68624 7.20089 1.42624 5.78227 1.76492 4.42359C2.10359 3.06491 3.01675 1.86326 4.32683 1.05229C5.63691 0.241326 7.25029 -0.121005 8.85328 0.0357487C10.4563 0.192502 11.9343 0.857138 13 1.90043C14.0657 0.857138 15.5437 0.192502 17.1467 0.0357487C18.7497 -0.121005 20.3631 0.241326 21.6732 1.05229C22.9833 1.86326 23.8964 3.06491 24.2351 4.42359C24.5738 5.78227 24.3138 7.20089 23.5056 8.40363H24.375C24.806 8.40363 25.2193 8.5511 25.524 8.8136C25.8288 9.0761 26 9.43213 26 9.80337V12.6028C26 12.9741 25.8288 13.3301 25.524 13.5926C25.2193 13.8551 24.806 14.0026 24.375 14.0026H14.625V8.40363H11.375ZM11.375 28H4.875C4.01305 28 3.1864 27.7051 2.5769 27.18C1.96741 26.655 1.625 25.943 1.625 25.2005V16.8021H11.375V28ZM11.375 8.40363V5.60414C11.375 5.05046 11.1844 4.50921 10.8273 4.04883C10.4702 3.58846 9.96258 3.22964 9.36872 3.01776C8.77486 2.80587 8.12139 2.75043 7.49096 2.85845C6.86052 2.96647 6.28142 3.2331 5.8269 3.62461C5.37238 4.01612 5.06285 4.51494 4.93745 5.05799C4.81205 5.60104 4.87641 6.16392 5.12239 6.67546C5.36838 7.187 5.78494 7.62422 6.3194 7.93183C6.85386 8.23944 7.48221 8.40363 8.125 8.40363H11.375ZM14.625 8.40363H17.875C18.5178 8.40363 19.1461 8.23944 19.6806 7.93183C20.2151 7.62422 20.6316 7.187 20.8776 6.67546C21.1236 6.16392 21.188 5.60104 21.0626 5.05799C20.9372 4.51494 20.6276 4.01612 20.1731 3.62461C19.7186 3.2331 19.1395 2.96647 18.509 2.85845C17.8786 2.75043 17.2251 2.80587 16.6313 3.01776C16.0374 3.22964 15.5298 3.58846 15.1727 4.04883C14.8156 4.50921 14.625 5.05046 14.625 5.60414V8.40363Z" fill="url(#paint0_linear_7219_13870)"/>
<defs>
<linearGradient id="paint0_linear_7219_13870" x1="13" y1="0" x2="13" y2="28" gradientUnits="userSpaceOnUse">
<stop stop-color="#E843C4"/>
<stop offset="1" stop-color="#FFBF00"/>
</linearGradient>
</defs>
</svg>
