<svg width="16" height="20" viewBox="0 0 16 20" fill="none" xmlns="http://www.w3.org/2000/svg">
<path d="M14 8H5V5C5 3.346 6.346 2 8 2C9.654 2 11 3.346 11 5H13C13 2.243 10.757 0 8 0C5.243 0 3 2.243 3 5V8H2C1.46957 8 0.960859 8.21071 0.585786 8.58579C0.210714 8.96086 0 9.46957 0 10V18C0 18.5304 0.210714 19.0391 0.585786 19.4142C0.960859 19.7893 1.46957 20 2 20H14C14.5304 20 15.0391 19.7893 15.4142 19.4142C15.7893 19.0391 16 18.5304 16 18V10C16 9.46957 15.7893 8.96086 15.4142 8.58579C15.0391 8.21071 14.5304 8 14 8ZM6.061 13.499C6.18392 13.0284 6.47394 12.6187 6.87688 12.3463C7.27982 12.074 7.76813 11.9576 8.2506 12.019C8.73308 12.0803 9.17671 12.3152 9.49864 12.6798C9.82058 13.0444 9.99879 13.5136 10 14C9.99943 14.3497 9.90669 14.6932 9.73113 14.9956C9.55557 15.2981 9.30339 15.549 9 15.723V18H7V15.723C6.62162 15.5062 6.32484 15.1712 6.15522 14.7694C5.9856 14.3677 5.9525 13.9214 6.061 13.499Z" fill="url(#paint0_linear_7219_13897)"/>
<defs>
<linearGradient id="paint0_linear_7219_13897" x1="8" y1="0" x2="8" y2="20" gradientUnits="userSpaceOnUse">
<stop stop-color="#E843C4"/>
<stop offset="1" stop-color="#FFBF00"/>
</linearGradient>
</defs>
</svg>
