<svg width="18" height="18" viewBox="0 0 18 18" fill="none" xmlns="http://www.w3.org/2000/svg">
<path d="M0 12.5C0 12.1685 0.131696 11.8505 0.366116 11.6161C0.600537 11.3817 0.918479 11.25 1.25 11.25H3.75C4.08152 11.25 4.39946 11.3817 4.63388 11.6161C4.8683 11.8505 5 12.1685 5 12.5V16.25C5 16.5815 4.8683 16.8995 4.63388 17.1339C4.39946 17.3683 4.08152 17.5 3.75 17.5H1.25C0.918479 17.5 0.600537 17.3683 0.366116 17.1339C0.131696 16.8995 0 16.5815 0 16.25L0 12.5ZM6.25 7.5C6.25 7.16848 6.3817 6.85054 6.61612 6.61612C6.85054 6.3817 7.16848 6.25 7.5 6.25H10C10.3315 6.25 10.6495 6.3817 10.8839 6.61612C11.1183 6.85054 11.25 7.16848 11.25 7.5V16.25C11.25 16.5815 11.1183 16.8995 10.8839 17.1339C10.6495 17.3683 10.3315 17.5 10 17.5H7.5C7.16848 17.5 6.85054 17.3683 6.61612 17.1339C6.3817 16.8995 6.25 16.5815 6.25 16.25V7.5ZM12.5 1.25C12.5 0.918479 12.6317 0.600537 12.8661 0.366116C13.1005 0.131696 13.4185 0 13.75 0L16.25 0C16.5815 0 16.8995 0.131696 17.1339 0.366116C17.3683 0.600537 17.5 0.918479 17.5 1.25V16.25C17.5 16.5815 17.3683 16.8995 17.1339 17.1339C16.8995 17.3683 16.5815 17.5 16.25 17.5H13.75C13.4185 17.5 13.1005 17.3683 12.8661 17.1339C12.6317 16.8995 12.5 16.5815 12.5 16.25V1.25Z" fill="url(#paint0_linear_5172)"/>
<defs>
<linearGradient id="paint0_linear_5172" x1="8.75" y1="0" x2="8.75" y2="17.5" gradientUnits="userSpaceOnUse">
<stop stop-color="#FFBF00"/>
<stop offset="1" stop-color="#E843C4"/>
</linearGradient>
</defs>
</svg>
