<svg width="12" height="12" viewBox="0 0 12 12" fill="none" xmlns="http://www.w3.org/2000/svg">
<g filter="url(#filter0_f)">
<path fill-rule="evenodd" clip-rule="evenodd" d="M2.61538 6C2.61538 4.13073 4.13073 2.61538 6 2.61538C7.86927 2.61538 9.38462 4.13073 9.38462 6C9.38462 7.86927 7.86927 9.38462 6 9.38462C4.13073 9.38462 2.61538 7.86927 2.61538 6ZM6 2C3.79086 2 2 3.79086 2 6C2 8.20914 3.79086 10 6 10C8.20914 10 10 8.20914 10 6C10 3.79086 8.20914 2 6 2ZM5.99995 3.84613C5.83002 3.84613 5.69226 3.98389 5.69226 4.15382C5.69226 4.32376 5.83002 4.46151 5.99995 4.46151H6.00365C6.17358 4.46151 6.31134 4.32376 6.31134 4.15382C6.31134 3.98389 6.17358 3.84613 6.00365 3.84613H5.99995ZM4.95386 5.63081C4.95386 5.46088 5.09162 5.32312 5.26155 5.32312H6.00001C6.16995 5.32312 6.3077 5.46088 6.3077 5.63081V7.16925H6.73847C6.90841 7.16925 7.04617 7.30701 7.04617 7.47694C7.04617 7.64688 6.90841 7.78464 6.73847 7.78464H6.00384C6.00257 7.78465 6.00129 7.78466 6.00001 7.78466C5.99873 7.78466 5.99746 7.78465 5.99618 7.78464H5.26155C5.09162 7.78464 4.95386 7.64688 4.95386 7.47694C4.95386 7.30701 5.09162 7.16925 5.26155 7.16925H5.69232V5.9385H5.26155C5.09162 5.9385 4.95386 5.80075 4.95386 5.63081Z" fill="#C4C4C4"/>
</g>
<path fill-rule="evenodd" clip-rule="evenodd" d="M2.61538 6C2.61538 4.13073 4.13073 2.61538 6 2.61538C7.86927 2.61538 9.38462 4.13073 9.38462 6C9.38462 7.86927 7.86927 9.38462 6 9.38462C4.13073 9.38462 2.61538 7.86927 2.61538 6ZM6 2C3.79086 2 2 3.79086 2 6C2 8.20914 3.79086 10 6 10C8.20914 10 10 8.20914 10 6C10 3.79086 8.20914 2 6 2ZM5.99995 3.84613C5.83002 3.84613 5.69226 3.98389 5.69226 4.15382C5.69226 4.32376 5.83002 4.46151 5.99995 4.46151H6.00365C6.17358 4.46151 6.31134 4.32376 6.31134 4.15382C6.31134 3.98389 6.17358 3.84613 6.00365 3.84613H5.99995ZM4.95386 5.63081C4.95386 5.46088 5.09162 5.32312 5.26155 5.32312H6.00001C6.16995 5.32312 6.3077 5.46088 6.3077 5.63081V7.16925H6.73847C6.90841 7.16925 7.04617 7.30701 7.04617 7.47694C7.04617 7.64688 6.90841 7.78464 6.73847 7.78464H6.00384C6.00257 7.78465 6.00129 7.78466 6.00001 7.78466C5.99873 7.78466 5.99746 7.78465 5.99618 7.78464H5.26155C5.09162 7.78464 4.95386 7.64688 4.95386 7.47694C4.95386 7.30701 5.09162 7.16925 5.26155 7.16925H5.69232V5.9385H5.26155C5.09162 5.9385 4.95386 5.80075 4.95386 5.63081Z" fill="#C4C4C4"/>
<defs>
<filter id="filter0_f" x="0" y="0" width="12" height="12" filterUnits="userSpaceOnUse" color-interpolation-filters="sRGB">
<feFlood flood-opacity="0" result="BackgroundImageFix"/>
<feBlend mode="normal" in="SourceGraphic" in2="BackgroundImageFix" result="shape"/>
<feGaussianBlur stdDeviation="1" result="effect1_foregroundBlur"/>
</filter>
</defs>
</svg>
