<svg width="16" height="16" viewBox="0 0 16 16" fill="none" xmlns="http://www.w3.org/2000/svg">
<g filter="url(#filter0_f)">
<path d="M8.00004 14.6667C11.6819 14.6667 14.6667 11.6819 14.6667 8.00004C14.6667 4.31814 11.6819 1.33337 8.00004 1.33337C4.31814 1.33337 1.33337 4.31814 1.33337 8.00004C1.33337 11.6819 4.31814 14.6667 8.00004 14.6667Z" stroke="#26DBDB" stroke-width="0.5"/>
</g>
<path d="M8.00004 14.6667C11.6819 14.6667 14.6667 11.6819 14.6667 8.00004C14.6667 4.31814 11.6819 1.33337 8.00004 1.33337C4.31814 1.33337 1.33337 4.31814 1.33337 8.00004C1.33337 11.6819 4.31814 14.6667 8.00004 14.6667Z" stroke="#26DBDB"/>
<g filter="url(#filter1_f)">
<path d="M7.61594 5.41864C7.54483 5.41864 7.48438 5.39731 7.43461 5.35464C7.39194 5.30486 7.37061 5.24442 7.37061 5.17331V4.59731C7.37061 4.5262 7.39194 4.46575 7.43461 4.41598C7.48438 4.3662 7.54483 4.34131 7.61594 4.34131H8.28794C8.35905 4.34131 8.41949 4.3662 8.46927 4.41598C8.51905 4.46575 8.54394 4.5262 8.54394 4.59731V5.17331C8.54394 5.24442 8.51905 5.30486 8.46927 5.35464C8.41949 5.39731 8.35905 5.41864 8.28794 5.41864H7.61594ZM7.70127 12C7.63016 12 7.56972 11.9786 7.51994 11.936C7.47727 11.8862 7.45594 11.8258 7.45594 11.7546V6.69864C7.45594 6.62753 7.47727 6.57064 7.51994 6.52798C7.56972 6.4782 7.63016 6.45331 7.70127 6.45331H8.21327C8.28438 6.45331 8.34127 6.4782 8.38394 6.52798C8.43372 6.57064 8.45861 6.62753 8.45861 6.69864V11.7546C8.45861 11.8258 8.43372 11.8862 8.38394 11.936C8.34127 11.9786 8.28438 12 8.21327 12H7.70127Z" fill="#26DBDB"/>
</g>
<path d="M7.61606 5.41864C7.54495 5.41864 7.48451 5.39731 7.43473 5.35464C7.39206 5.30486 7.37073 5.24442 7.37073 5.17331V4.59731C7.37073 4.5262 7.39206 4.46575 7.43473 4.41598C7.48451 4.3662 7.54495 4.34131 7.61606 4.34131H8.28806C8.35917 4.34131 8.41962 4.3662 8.46939 4.41598C8.51917 4.46575 8.54406 4.5262 8.54406 4.59731V5.17331C8.54406 5.24442 8.51917 5.30486 8.46939 5.35464C8.41962 5.39731 8.35917 5.41864 8.28806 5.41864H7.61606ZM7.70139 12C7.63028 12 7.56984 11.9786 7.52006 11.936C7.47739 11.8862 7.45606 11.8258 7.45606 11.7546V6.69864C7.45606 6.62753 7.47739 6.57064 7.52006 6.52798C7.56984 6.4782 7.63028 6.45331 7.70139 6.45331H8.21339C8.28451 6.45331 8.34139 6.4782 8.38406 6.52798C8.43384 6.57064 8.45873 6.62753 8.45873 6.69864V11.7546C8.45873 11.8258 8.43384 11.8862 8.38406 11.936C8.34139 11.9786 8.28451 12 8.21339 12H7.70139Z" fill="#26DBDB"/>
<defs>
<filter id="filter0_f" x="0.583374" y="0.583374" width="14.8333" height="14.8333" filterUnits="userSpaceOnUse" color-interpolation-filters="sRGB">
<feFlood flood-opacity="0" result="BackgroundImageFix"/>
<feBlend mode="normal" in="SourceGraphic" in2="BackgroundImageFix" result="shape"/>
<feGaussianBlur stdDeviation="0.25" result="effect1_foregroundBlur"/>
</filter>
<filter id="filter1_f" x="7.07061" y="4.04131" width="1.77333" height="8.25867" filterUnits="userSpaceOnUse" color-interpolation-filters="sRGB">
<feFlood flood-opacity="0" result="BackgroundImageFix"/>
<feBlend mode="normal" in="SourceGraphic" in2="BackgroundImageFix" result="shape"/>
<feGaussianBlur stdDeviation="0.15" result="effect1_foregroundBlur"/>
</filter>
</defs>
</svg>
