<svg xmlns="http://www.w3.org/2000/svg" id="Layer_1" x="0" y="0" version="1.1" viewBox="0 0 286 74" xml:space="preserve"><style>.st0{fill:#fff}</style><circle cx="37.4" cy="37" r="37" class="st0"/><path fill="#5957d5" d="M322.5 175.8c.7.8 1.2 1.7 1.7 2.6 1.2 2.3 3.9 3.2 6.2 2 .5-.3.9-.6 1.3-1 1.9-1.7 2-4.6.3-6.5-.4-.4-.8-.7-1.3-1-.9-.5-1.7-1.1-2.5-1.8l8.3-8.3 8.3 8.3c.7-.8 1.3-1.7 1.8-2.7 1.2-2.3 3.9-3.2 6.2-2 .5.3.9.6 1.3 1 1.9 1.7 2.1 4.6.4 6.5l-.2.2-1.3.9c-1 .5-1.9 1.1-2.7 1.8l8.3 8.3-8.3 8.3c-.7-.8-1.3-1.7-1.8-2.7-1.2-2.3-3.9-3.2-6.2-2-.5.3-.9.6-1.3 1-1.9 1.7-2 4.6-.3 6.5.4.4.8.7 1.3 1 1 .5 1.9 1.1 2.7 1.8l-8.3 8.3-8.3-8.3c-.7.8-1.3 1.7-1.8 2.7-1.2 2.3-3.9 3.2-6.2 2-.5-.3-.9-.6-1.3-1-1.9-1.7-2-4.6-.3-6.5.4-.4.8-.7 1.3-1 1-.5 1.9-1.1 2.7-1.8l-8.4-8.3 8.4-8.3z" transform="translate(-299 -147)"/><g><path d="M147.8 27.6c.1-.7.1-1.3.2-1.9.3-1.3 1.4-2.1 2.9-2 1.5.1 2.4.8 2.6 2.2.1.4.1.8.1 1.2v22.2c0 2.6-.4 5-1.8 7.3-1.4 2.1-3.3 3.4-5.6 4.2-2.6.8-5.3.8-7.9.6-2.7-.2-5.2-.8-7.5-2.2-.7-.4-1.3-1-1.8-1.6-.6-.8-.5-1.9.2-2.8.6-.8 1.4-.8 2.2-.6l.9.3c2 1 3.9 1.9 6.1 2.2 2.3.3 4.5.3 6.5-.9 1.3-.7 2.1-1.8 2.6-3.3.6-2.2.5-4.4.5-6.5-.7.7-1.4 1.5-2.1 2.2-1.5 1.3-3.2 1.9-5.2 2.1-1.6.2-3.1.1-4.6-.2-3.4-.8-5.9-2.7-7.5-5.9-1.8-3.6-2-7.3-1.2-11.1.5-2.4 1.6-4.5 3.3-6.2 1.7-1.7 3.8-2.7 6.2-3.1 2.1-.4 4.1-.1 6.1.5 1.7.5 3.1 1.6 4.2 3 .1.1.2.3.3.4.2-.1.2-.1.3-.1zm.1 9.5c0-1.5-.1-3-.7-4.4-.9-2.3-2.5-3.7-5-4.2-1.8-.4-3.5-.2-5.1.6-2.7 1.3-3.8 3.7-4 6.5-.1.9 0 1.8 0 2.7 0 1.6.5 3 1.3 4.3.4.6.8 1.1 1.4 1.6 2.3 1.8 4.9 2.1 7.6 1.2 1.7-.6 2.9-1.8 3.7-3.4.6-1.6.8-3.2.8-4.9zM268.2 35.7c1.3-1.2 2.6-2.4 3.8-3.5 2.7-2.5 5.3-5 8-7.4 1.2-1.1 2.4-1.2 3.6-.5 1.3.9 1.6 2.9.4 4-1.8 1.8-3.7 3.4-5.6 5.2-1.2 1.1-2.4 2.2-3.5 3.2-.2.2-.3.4-.6.7l1.2 1.2c2.8 2.4 5.5 4.9 8.3 7.3l.3.3c1.2.7 1.6 1.8 1.5 3.2-.1 1.2-.7 2-1.9 2.2-.8.1-1.6 0-2.2-.6-2.1-1.8-4.1-3.6-6.2-5.4-2.2-2-4.5-4-6.7-5.9-.1-.1-.2-.2-.5-.4-.1.9-.2 1.7-.2 2.5v7c0 1.6-.5 2.3-1.8 2.7-1.3.4-2.8 0-3.5-1-.3-.4-.4-1-.4-1.5-.1-1.7 0-3.4 0-5.1V16v-.7c0-2 1.1-3 3-3 1.7 0 2.7 1 2.7 2.8v19c0 .5.1 1.1.1 1.6.1-.1.2 0 .2 0zM222.8 48c-.9.8-1.7 1.7-2.7 2.3-2 1.3-4.4 1.6-6.7 1.2-2.4-.4-4.5-1.3-6-3.3-1.6-2.1-2.1-4.4-1.6-7 .6-2.8 2.5-4.1 5-4.8 3.4-1 7-1.1 10.5-1.1h1.6v-1.6c-.1-1.2-.1-2.4-.8-3.5-.8-1.4-2.2-1.9-3.7-2-2.2-.2-4.3.4-6.3 1.2-.9.4-1.8.8-2.6 1.2-1.2.5-2 .5-2.7-.3-.5-.6-.7-2.1-.1-2.9.4-.5.8-1 1.4-1.3 2.2-1.3 4.7-2.1 7.2-2.3 1.2-.1 2.4-.3 3.5-.2 2.5.1 4.9.7 6.8 2.5 1 .9 1.7 2.1 2.1 3.4.5 1.4.7 2.9.7 4.4v14.7c0 2-1.2 3.1-3.2 2.9-1.2-.1-2.1-.9-2.3-2.2 0-.5-.1-.9-.1-1.3zm-.1-9.2c-.2 0-.3-.1-.4-.1-2.6-.2-5.2.1-7.8.6-1 .2-2 .6-2.6 1.5-1 1.6-.7 3.8.8 5.1 1.7 1.5 3.7 1.5 5.7.9 3.5-1.1 4.7-4.4 4.3-8zM170.2 51.6c-2.5-.1-5.4-.4-8-1.9-.6-.3-1.2-.7-1.7-1.1-.9-.7-1.2-2.4-.7-3.4s1.6-1.3 2.8-.8c.8.4 1.6.8 2.3 1.2 2.5 1.3 5.1 1.7 7.8 1.2 1.3-.2 2.5-.6 3.2-1.9.7-1.4.3-2.9-1-3.6-.8-.4-1.7-.7-2.6-1-1.6-.4-3.2-.8-4.7-1.2-1.7-.4-3.2-1.2-4.7-2.1-1.8-1.1-2.8-4.7-2.3-6.8.9-3.7 4.8-6.1 7.9-6.5.5-.1 1-.3 1.5-.3 3.5-.1 6.9.6 9.8 2.8 1.1.8 1.5 2.3 1.1 3.4-.5 1.2-1.6 1.6-2.9.9-1.1-.6-2.2-1.2-3.3-1.7-2.3-1-4.6-1.1-6.8-.1-1.5.7-2.2 2.5-1.5 4 .3.6.9 1.1 1.5 1.4 1.1.5 2.2.8 3.4 1.1 2.1.6 4.2 1.1 6.2 1.8s3.6 1.9 4.2 4.1c.8 3.4 0 6.3-3.1 8.4-2.1 1.4-5.3 2.1-8.4 2.1zM234.2 37.6c0-3.4.9-6.6 3-9.3 1.5-2 3.5-3.3 5.9-4 1.5-.5 3.1-.8 4.7-.7 1.9 0 3.7.4 5.5 1.1 1.3.5 2.5 1.1 3.4 2.2.7.8 1 1.8.6 2.8-.5 1.4-1.7 1.7-3 1-.7-.4-1.4-.8-2-1.2-1.4-.8-2.8-1.4-4.4-1.3-4 .2-6.5 2.2-7.4 6.5-.3 1.8-.3 3.7 0 5.6.8 4.8 4.2 7 8.6 6.4 1.4-.2 2.8-1.1 4.2-1.7.6-.3 1.2-.7 1.8-.8 1.5-.3 2.7.9 2.4 2.4-.2 1-.7 1.8-1.5 2.3-1.9 1.4-4.1 2.1-6.5 2.4-2.4.3-4.8.2-7.1-.6-3-1.1-5.2-3.1-6.6-5.9-1.2-2.2-1.6-4.7-1.6-7.2zM194.8 24.3h5.7c1.3 0 2.2 1 2.1 2.2 0 1.2-.9 2.1-2.2 2.2h-5.6c0 .4-.1.7-.1 1v12.7c0 1.5.4 2.8 1.7 3.6.7.4 1.6.6 2.4.8.7.2 1.4.1 2.2.2.9.1 1.5.6 1.6 1.5.2 1.3 0 2-.9 2.5-.3.2-.7.3-1.1.4-2.5.2-4.9 0-7.2-1.1s-3.8-3-4.2-5.5c-.3-1.7-.4-3.3-.5-5-.1-3.3 0-6.5 0-9.8 0-.4 0-.7-.1-1.3h-3.4c-1 0-1.7-.6-1.9-1.4-.3-1.4-.1-2.3.9-2.8.3-.2.8-.2 1.2-.2h3.2c0-.4.1-.8.1-1.1.1-1.7.1-3.3.2-5 .1-1.3.9-2.1 2.1-2.3 1.5-.3 2.8.2 3.3 1.4.2.4.3.9.3 1.4v4.5c.1.4.2.7.2 1.1zM107.2 28.7v12.8c0 1.8-.4 3.6-1.2 5.2-1 2-2.7 3.2-4.8 3.9-2 .7-4.1.7-6.1.8-.6 0-1.3-.2-1.9-.5-.9-.5-1.2-1.7-.9-2.9.2-.8 1.2-1.5 2.3-1.5.8-.1 1.6 0 2.4-.2 2.8-.4 4.1-2 4.1-4.8V18.6v-3.3c0-2.2 1.7-3.6 3.8-3.2 1.3.2 2.1 1.2 2.1 2.5v5.1c.2 3 .2 6 .2 9zM115.4 37.6v-11c0-1.1.3-2 1.3-2.5 1.1-.5 2.3-.6 3.3.1.4.3.8.9 1 1.4.2.5.2 1.1.2 1.7v20.4c0 .5-.1 1-.1 1.6 0 .9-.6 1.5-1.3 1.9-2.2 1.1-4.3-.2-4.3-2.6-.1-3.7-.1-7.3-.1-11zM118.2 18.6c-.7.1-1.5-.2-2.2-.6-1.7-1-1.7-4.7.3-5.5 1.5-.6 2.9-.6 4.3.3 1.1.7 1.5 2.2 1.1 3.4-.4 1.5-1.5 2.3-3 2.4h-.5z" class="st0"/></g></svg>