<svg width="156" height="98" viewBox="0 0 156 98" fill="none" xmlns="http://www.w3.org/2000/svg">
<g filter="url(#filter0_d_7700_11532)">
<circle cx="107" cy="45" r="29" fill="white"/>
<circle cx="107" cy="45" r="28.5" stroke="white" stroke-opacity="0.05"/>
<g clip-path="url(#clip0_7700_11532)">
<path d="M96.7386 52.9184C96.8159 53.0598 96.8642 53.1635 96.8853 53.2092C97.3747 54.1598 97.9756 55.1174 98.7971 55.6604L98.877 55.7122C99.8065 56.2859 101.47 56.7849 103.183 57.0617C103.297 55.7386 104.088 54.542 104.873 53.6599C103.847 53.9688 102.782 54.1263 101.71 54.1273C99.9798 54.1295 98.2741 53.7149 96.7377 52.9184H96.7386ZM109.838 47.8904C108.863 47.5768 107.4 46.1122 105.178 46.6429C103.347 47.0804 102.796 48.3578 102.505 48.8235C101.822 48.1496 101.096 47.6928 100.494 47.5909C100.038 47.5127 99.7371 47.6524 99.5658 47.7815C99.2539 48.0187 99.246 48.0275 101.32 52.3403L101.493 52.6996C101.496 52.7058 101.5 52.7111 101.505 52.7172L101.691 53.102C101.691 53.102 101.81 53.5053 102.499 53.3146C102.499 53.3146 107.273 52.8578 109.088 49.5544C109.244 49.2724 109.846 47.894 109.838 47.8913V47.8904ZM90.9604 42.1254C90.9744 41.8486 90.9568 41.2328 90.5606 40.9156C90.2417 42.0873 90.0584 43.2918 90.0142 44.5054C90.334 44.5344 90.6845 44.6547 91.0368 44.9297C90.9489 44.3587 90.7601 43.394 90.9604 42.1254V42.1254ZM108.937 56.5943C108.158 55.7509 108.025 54.1721 108.547 51.8835C108.588 51.7043 108.632 51.5256 108.677 51.3475C107.938 52.1418 106.702 52.9184 105.942 53.6537C105.102 54.4664 104.043 55.7693 103.942 57.168C104.838 57.276 105.718 57.327 106.486 57.2708C107.96 57.1618 108.671 56.7137 108.937 56.5943ZM117.934 36.7152C118.304 37.1745 118.614 37.6794 118.856 38.2176C119.388 39.2191 121.124 42.0727 123.417 41.5271C123.292 40.7355 123.115 39.9185 122.876 39.0909C122.859 39.0425 122.843 38.9942 122.825 38.945L122.833 38.9424C122.598 38.1524 122.306 37.3802 121.96 36.6318C120.643 37.1826 119.096 37.0052 117.934 36.7161V36.7152ZM115.542 30.8202C115.601 30.8733 115.641 30.9431 115.659 31.0201C115.676 31.0972 115.669 31.1777 115.639 31.2506C115.07 32.6229 113.776 33.7519 112.67 34.5162C113.684 34.5013 115.026 34.7007 116.597 35.4642C117.098 35.6768 119.716 36.71 121.622 35.9439C121.617 35.9333 121.609 35.921 121.604 35.9087C121.566 35.8349 121.525 35.762 121.485 35.6891C120.843 34.5303 119.137 31.8885 116.005 29.8994C114.339 28.8887 112.479 28.2414 110.545 28C110.73 28.9513 110.628 29.9363 110.25 30.8289C113.175 29.5445 114.733 30.0822 115.542 30.8202V30.8202ZM109.695 56.2481C111.129 55.5813 112.286 54.9821 113.219 54.4453C113.142 54.4137 113.07 54.3812 113.005 54.3452C111.583 53.5676 110.788 50.8933 110.43 48.5573C110.379 48.6898 110.326 48.821 110.268 48.9509C110.021 49.5852 109.583 50.7897 109.294 52.0627C108.674 54.7862 109.14 55.8475 109.695 56.2481V56.2481ZM118.887 42.7825C117.101 43.7753 115.341 44.2734 113.627 44.2734C112.663 44.2736 111.705 44.1142 110.793 43.8017C111.11 45.0738 110.879 46.3565 111.065 47.5162C111.153 47.546 111.241 47.5768 111.33 47.604C113.964 48.4676 116.011 48.6179 117.247 48.038C117.602 47.872 117.888 47.6471 118.114 47.3616C118.98 46.2721 118.927 43.9984 118.887 42.7825Z" fill="#FF6B00"/>
<path d="M114.747 53.4833L114.749 53.486C116.585 52.4027 117.688 49.9006 118.076 48.4431C117.916 48.5543 117.748 48.6516 117.572 48.7339C116.939 49.0308 116.192 49.1521 115.393 49.1521C114.033 49.1521 112.523 48.8006 111.177 48.3658C111.521 50.6166 112.271 53.0687 113.373 53.6713C113.786 53.8962 114.234 53.8347 114.747 53.4833V53.4833ZM110.594 42.9108C110.908 43.0375 111.228 43.1454 111.554 43.2341C113.874 43.8526 116.327 43.4116 118.851 41.9189C118.825 40.5255 118.553 39.4194 118.157 38.5435C118.05 38.3388 117.992 38.2097 117.985 38.193H117.985C117.551 37.3569 116.919 36.6391 116.146 36.1011C114.433 35.2964 113.03 35.2261 112.113 35.328C114.737 36.3594 115.184 37.8451 115.204 37.9171L115.221 37.9786C115.262 38.1192 115.197 38.2668 115.066 38.3327L115.009 38.3617C112.487 39.6382 110.1 38.9239 108.798 38.3133C109.181 39.22 109.69 40.4324 109.889 40.9016L109.894 40.8989C109.976 41.0861 110.055 41.2811 110.133 41.4823L110.138 41.4937C110.316 41.9576 110.468 42.4306 110.595 42.9108H110.594ZM119.144 54.0026C118.47 53.0291 118.248 51.6129 118.216 50.3091C118.005 50.8105 117.767 51.3005 117.505 51.7772L117.507 51.7789C117.471 51.858 117.428 51.9371 117.381 52.0179C116.988 52.7875 115.724 55.4847 116.311 57.2172C116.466 57.7045 116.809 58.1102 117.263 58.3452C117.739 57.9938 119.123 56.8939 120.472 55.0498C119.94 54.8565 119.494 54.5077 119.145 54.0026H119.144ZM93.4044 50.2134C92.5329 49.073 91.9038 48.089 91.5867 47.055C91.4127 46.4848 90.8258 45.4147 90 45.2829C90.0114 46.9627 90.2715 48.5863 90.7433 50.1167C91.7773 49.941 92.6603 50.0078 93.4044 50.2134Z" fill="#FF6B00"/>
<path d="M115.584 57.4613C115.183 56.2753 115.48 54.7923 115.882 53.593C115.668 53.7635 115.431 53.9357 115.178 54.1114L115.18 54.1149C115.138 54.143 115.098 54.1685 115.057 54.194C114.761 54.3953 114.46 54.5892 114.155 54.7756L114.158 54.78C113.977 54.8907 109.83 57.514 111.809 61.2593C113.538 60.725 115.169 59.9151 116.64 58.8609C116.14 58.5267 115.768 58.0335 115.584 57.4613ZM123.521 42.2887C123.29 42.3388 123.059 42.366 122.829 42.366C121.69 42.366 120.562 41.7554 119.523 40.565L119.514 40.5544C119.585 41.0526 119.62 41.5753 119.62 42.12C119.632 42.2808 119.642 42.4425 119.649 42.6024C119.73 43.516 120.048 45.5446 121.278 46.6332C121.88 47.1647 122.64 47.4063 123.543 47.358L123.565 47.2376C123.65 46.5558 123.693 45.8627 123.693 45.1598C123.695 44.2927 123.649 43.321 123.521 42.2887V42.2887Z" fill="#FF6B00"/>
<path d="M120.769 47.2052C120.21 46.7097 119.813 46.0701 119.533 45.4121C119.454 46.0526 119.341 46.6676 119.206 47.2544C119.106 47.8448 118.512 51.7465 119.775 53.566C120.076 54.0026 120.457 54.2706 120.929 54.3883C121.514 53.5059 122.011 52.5681 122.412 51.5883L122.417 51.591C122.879 50.4772 123.22 49.3166 123.432 48.1295C122.389 48.1558 121.494 47.8466 120.77 47.2061L120.769 47.2052ZM96.987 54.8891C96.6022 54.3373 96.2824 53.7329 96.0004 53.1548C95.519 52.3149 94.0623 50.3935 90.9927 50.853C91.6164 52.5837 92.5143 54.1827 93.6354 55.5998C94.5526 54.6334 95.8432 54.5947 96.987 54.8882V54.8891ZM106.703 58.0316C105.583 58.1248 104.269 58.029 102.997 57.8146C102.068 57.7162 99.4777 57.6196 97.6662 59.2774C99.7902 60.6664 102.202 61.5542 104.72 61.8736C104.689 60.7455 105.212 59.5805 106.253 58.478C106.397 58.3235 106.547 58.1746 106.703 58.0316V58.0316ZM98.4279 56.336C98.0062 56.083 95.504 54.6826 94.152 56.1674C94.5271 56.6268 95.4935 57.7198 97.0213 58.8311C98.0176 57.8595 99.2159 57.3815 100.311 57.1619C99.1825 56.8324 98.4481 56.3492 98.4279 56.336ZM111.597 56.1805C110.653 56.655 108.109 57.5159 106.652 59.1773C106 59.9223 105.428 60.8746 105.489 61.928C106.003 61.9843 107.179 62.0686 108.715 61.9017L108.941 61.8753L109.033 61.8639C109.721 61.7752 110.396 61.6443 111.056 61.4738C109.983 59.3126 110.655 57.4764 111.597 56.1805ZM96.6611 47.5303C96.7085 47.5681 96.7902 47.6217 97.0547 47.6217C97.3736 47.6217 97.9561 47.5426 99.0648 47.2615C100.436 46.9116 101.776 46.4494 103.071 45.8795C103.249 45.7969 103.704 45.5755 104.231 45.3146C104.416 45.5185 104.561 45.7554 104.658 46.013C107.654 45.3576 108.793 46.6588 110.048 47.1446C110.304 45.9208 110.262 44.3183 109.95 43.4705C107.039 42.1702 105.184 39.647 104.5 38.5796C103.814 39.1111 102.794 39.821 102.174 41.0747C100.913 43.6242 99.5823 45.9173 97.2058 46.6473C96.799 46.7721 96.5346 46.8731 96.5003 47.1675C96.4939 47.2366 96.5053 47.3063 96.5335 47.3698C96.5616 47.4333 96.6055 47.4886 96.6611 47.5303V47.5303Z" fill="#FF6B00"/>
<path d="M98.6757 42.114C99.3698 41.6132 100.623 40.7197 101.062 40.3595C101.858 39.7041 104.063 37.9628 104.619 37.5227C104.685 37.47 104.783 37.4937 104.821 37.5692C106.54 40.9868 109.675 42.4777 109.675 42.4777C109.534 42.0461 109.372 41.6215 109.19 41.2056L109.195 41.2047L108.538 39.6549L108.121 38.6762C107.966 38.3098 107.81 37.944 107.652 37.5789L107.152 36.435C107.135 36.3964 107.178 36.3621 107.214 36.3858L108.227 37.115C108.257 37.137 111.182 39.1796 114.319 37.8372C114.001 37.3312 113.063 36.2699 110.555 35.6329L109.7 35.4159C109.638 35.4001 109.63 35.3158 109.688 35.2894L110.486 34.9134C110.52 34.8976 113.719 33.3724 114.809 31.2164C113.377 30.2351 110.877 31.3069 109.47 32.0616L107.865 32.9226C107.826 32.9437 107.788 32.8962 107.816 32.8628L108.996 31.4756C109.046 31.4159 110.194 30.0216 109.778 28.0791C108.998 27.9588 106.344 27.7734 104 30.2254L103.532 30.7148C103.523 30.7248 103.511 30.732 103.498 30.7353C103.484 30.7387 103.47 30.7381 103.457 30.7336C103.444 30.7292 103.433 30.721 103.424 30.7102C103.416 30.6994 103.411 30.6863 103.409 30.6726L103.213 28.7328C102.042 29.2335 98.9472 30.9669 98.4895 35.4062C98.3278 36.9859 98.0722 38.3424 97.7225 39.4959L97.7199 39.495L97.6742 39.6576C97.5587 40.0238 97.4258 40.3845 97.2762 40.7382C97.1649 40.9809 97.0351 41.2147 96.8879 41.4375C96.6305 41.8223 96.7456 42.0789 96.8519 42.1852C97.0601 42.3978 98.0862 42.5383 98.6757 42.114ZM102.149 34.8484C102.669 34.5145 103.221 35.0662 102.888 35.5863C102.866 35.6215 102.835 35.6522 102.801 35.6742C102.28 36.0081 101.728 35.4546 102.062 34.9345C102.084 34.9002 102.114 34.8712 102.149 34.8475V34.8484ZM99.4076 34.8484C99.9277 34.5145 100.479 35.0662 100.146 35.5863C100.124 35.6215 100.093 35.6522 100.059 35.6742C99.5385 36.0081 98.9868 35.4546 99.3206 34.9345C99.3426 34.9002 99.3724 34.8712 99.4067 34.8475L99.4076 34.8484Z" fill="#FF6B00"/>
</g>
</g>
<g filter="url(#filter1_d_7700_11532)">
<circle cx="68" cy="45" r="29" fill="white"/>
<circle cx="68" cy="45" r="28.5" stroke="white" stroke-opacity="0.05"/>
<g clip-path="url(#clip1_7700_11532)">
<path d="M78.605 33.5825H57.6123V52.6623H78.605V33.5825Z" fill="white"/>
<path fill-rule="evenodd" clip-rule="evenodd" d="M85.1313 44.7727C85.1313 54.1616 77.5203 61.7727 68.1313 61.7727C58.7425 61.7727 51.1313 54.1616 51.1313 44.7727C51.1313 35.3839 58.7425 27.7727 68.1313 27.7727C77.5203 27.7727 85.1313 35.3839 85.1313 44.7727ZM63.314 51.5378H60.0148C59.3215 51.5378 58.9791 51.5378 58.7703 51.4043C58.5448 51.2581 58.407 51.0158 58.3903 50.7485C58.3777 50.5022 58.549 50.2014 58.8914 49.6L67.0376 35.2413C67.3842 34.6315 67.5596 34.3267 67.781 34.2139C68.019 34.0928 68.303 34.0928 68.541 34.2139C68.7624 34.3267 68.9378 34.6315 69.2844 35.2413L70.9591 38.1646L70.9676 38.1796C71.342 38.8337 71.5319 39.1654 71.6148 39.5135C71.7066 39.8936 71.7066 40.2945 71.6148 40.6746C71.5312 41.0253 71.3433 41.3595 70.9633 42.0235L66.6843 49.5875L66.6732 49.6069C66.2963 50.2664 66.1054 50.6007 65.8407 50.8529C65.5525 51.1286 65.2059 51.3289 64.8258 51.4419C64.4792 51.5378 64.0908 51.5378 63.314 51.5378ZM71.6457 51.5378H76.3731C77.0705 51.5378 77.4214 51.5378 77.6303 51.4002C77.8558 51.254 77.9977 51.0075 78.0104 50.7404C78.0224 50.502 77.8549 50.2129 77.5266 49.6465C77.5153 49.6272 77.504 49.6076 77.4924 49.5876L75.1244 45.5367L75.0975 45.4911C74.7647 44.9284 74.5968 44.6442 74.3811 44.5344C74.1431 44.4133 73.8631 44.4133 73.6252 44.5344C73.408 44.6471 73.2326 44.9437 72.886 45.5409L70.5264 49.5918L70.5183 49.6058C70.1729 50.202 70.0003 50.5 70.0128 50.7444C70.0295 51.0118 70.1673 51.2581 70.3928 51.4043C70.5974 51.5378 70.9482 51.5378 71.6457 51.5378Z" fill="#E84142"/>
</g>
</g>
<circle cx="29" cy="45" r="29" fill="url(#paint0_linear_7700_11532)"/>
<circle cx="29" cy="45" r="28.5" stroke="white" stroke-opacity="0.05"/>
<path fill-rule="evenodd" clip-rule="evenodd" d="M28.9948 28.7088C19.9988 28.7089 12.7083 36.0058 12.7083 45.0101C12.7083 49.9074 14.8639 54.3001 18.2817 57.2932L25.9342 50.8367H18.1899C17.3549 50.8367 16.6905 50.1577 16.6905 49.336C16.6905 48.5005 17.3689 47.8354 18.1899 47.8354H39.8101C40.6451 47.8354 41.3095 48.5144 41.3095 49.336C41.3095 50.1716 40.6311 50.8367 39.8101 50.8367H32.9935L40.0355 57.015C43.2645 54.0366 45.2917 49.7659 45.2917 45.0201C45.2917 36.0162 37.9915 28.7187 28.9948 28.7088ZM12 45.0101C12 35.6145 19.6075 28 28.995 28H28.9954C38.3822 28.0102 46 35.6241 46 45.0201C46 50.0896 43.7823 54.6402 40.2742 57.7546L40.0405 57.962L31.1111 50.1279H39.8101C40.2438 50.1279 40.6012 49.7763 40.6012 49.336C40.6012 48.9017 40.2498 48.5442 39.8101 48.5442H18.1899C17.7562 48.5442 17.3988 48.8958 17.3988 49.336C17.3988 49.7703 17.7502 50.1279 18.1899 50.1279H27.8732L18.2795 58.2222L18.0512 58.0295C14.3499 54.905 12 50.2323 12 45.0101Z" fill="url(#paint1_linear_7700_11532)"/>
<defs>
<filter id="filter0_d_7700_11532" x="58" y="0" width="98" height="98" filterUnits="userSpaceOnUse" color-interpolation-filters="sRGB">
<feFlood flood-opacity="0" result="BackgroundImageFix"/>
<feColorMatrix in="SourceAlpha" type="matrix" values="0 0 0 0 0 0 0 0 0 0 0 0 0 0 0 0 0 0 127 0" result="hardAlpha"/>
<feOffset dy="4"/>
<feGaussianBlur stdDeviation="10"/>
<feComposite in2="hardAlpha" operator="out"/>
<feColorMatrix type="matrix" values="0 0 0 0 0 0 0 0 0 0 0 0 0 0 0 0 0 0 0.26 0"/>
<feBlend mode="normal" in2="BackgroundImageFix" result="effect1_dropShadow_7700_11532"/>
<feBlend mode="normal" in="SourceGraphic" in2="effect1_dropShadow_7700_11532" result="shape"/>
</filter>
<filter id="filter1_d_7700_11532" x="19" y="0" width="98" height="98" filterUnits="userSpaceOnUse" color-interpolation-filters="sRGB">
<feFlood flood-opacity="0" result="BackgroundImageFix"/>
<feColorMatrix in="SourceAlpha" type="matrix" values="0 0 0 0 0 0 0 0 0 0 0 0 0 0 0 0 0 0 127 0" result="hardAlpha"/>
<feOffset dy="4"/>
<feGaussianBlur stdDeviation="10"/>
<feComposite in2="hardAlpha" operator="out"/>
<feColorMatrix type="matrix" values="0 0 0 0 0 0 0 0 0 0 0 0 0 0 0 0 0 0 0.26 0"/>
<feBlend mode="normal" in2="BackgroundImageFix" result="effect1_dropShadow_7700_11532"/>
<feBlend mode="normal" in="SourceGraphic" in2="effect1_dropShadow_7700_11532" result="shape"/>
</filter>
<linearGradient id="paint0_linear_7700_11532" x1="29" y1="16" x2="29" y2="74" gradientUnits="userSpaceOnUse">
<stop stop-color="#211426"/>
<stop offset="1" stop-color="#190E1D"/>
</linearGradient>
<linearGradient id="paint1_linear_7700_11532" x1="29" y1="28.3544" x2="29" y2="57.7586" gradientUnits="userSpaceOnUse">
<stop stop-color="#FFBF00"/>
<stop offset="1" stop-color="#E843C4"/>
</linearGradient>
<clipPath id="clip0_7700_11532">
<rect width="33.7364" height="34" fill="white" transform="translate(90 28)"/>
</clipPath>
<clipPath id="clip1_7700_11532">
<rect width="34" height="34" fill="white" transform="translate(51.1201 27.75)"/>
</clipPath>
</defs>
</svg>
