<svg width="265" height="26" viewBox="0 0 265 26" fill="none" xmlns="http://www.w3.org/2000/svg">
<path d="M19.476 6.704H17.244L1.476 20.492V0.763999H0V26H1.476V22.472L11.016 14.12L21.276 26H23.256L12.132 13.148L19.476 6.704ZM43.5774 6.704H25.0734V8.216H43.5774C46.4214 8.216 48.7614 10.52 48.7614 13.4V15.596H30.2574C27.3774 15.596 25.0734 17.936 25.0734 20.816C25.0734 23.66 27.3774 26 30.2574 26H50.2734V13.4C50.2734 9.728 47.2494 6.704 43.5774 6.704ZM48.7614 24.524H30.2574C28.1694 24.524 26.5494 22.868 26.5494 20.816C26.5494 18.764 28.1694 17.072 30.2574 17.072H48.7614V24.524ZM60.8504 6.704C58.0064 6.704 55.6664 9.008 55.6664 11.924C55.6664 14.768 58.0064 17.072 60.8504 17.072H75.7184C77.7344 17.072 79.3904 18.764 79.3904 20.816C79.3904 22.868 77.7344 24.524 75.7184 24.524H55.6664V26H75.7184C78.5624 26 80.8664 23.66 80.8664 20.816C80.8664 17.936 78.5624 15.596 75.7184 15.596H60.8504C58.8344 15.596 57.1424 13.94 57.1424 11.924C57.1424 9.836 58.8344 8.216 60.8504 8.216H80.8664V6.704H60.8504ZM91.4434 6.704C88.5994 6.704 86.2594 9.008 86.2594 11.924C86.2594 14.768 88.5994 17.072 91.4434 17.072H106.311C108.327 17.072 109.983 18.764 109.983 20.816C109.983 22.868 108.327 24.524 106.311 24.524H86.2594V26H106.311C109.155 26 111.459 23.66 111.459 20.816C111.459 17.936 109.155 15.596 106.311 15.596H91.4434C89.4274 15.596 87.7354 13.94 87.7354 11.924C87.7354 9.836 89.4274 8.216 91.4434 8.216H111.459V6.704H91.4434ZM135.356 6.704H116.852V8.216H135.356C138.2 8.216 140.54 10.52 140.54 13.4V15.596H122.036C119.156 15.596 116.852 17.936 116.852 20.816C116.852 23.66 119.156 26 122.036 26H142.052V13.4C142.052 9.728 139.028 6.704 135.356 6.704ZM140.54 24.524H122.036C119.948 24.524 118.328 22.868 118.328 20.816C118.328 18.764 119.948 17.072 122.036 17.072H140.54V24.524ZM165.949 6.704H147.445V26H148.921V8.216H165.949C168.829 8.216 171.169 10.52 171.169 13.4V26H172.645V13.4C172.645 9.728 169.657 6.704 165.949 6.704ZM201.726 6.704H184.698C181.026 6.704 178.038 9.728 178.038 13.4V19.304C178.038 23.012 181.026 26 184.698 26H203.238V0.763999H201.726V6.704ZM201.726 24.524H184.698C181.854 24.524 179.514 22.184 179.514 19.304V13.4C179.514 10.52 181.854 8.216 184.698 8.216H201.726V24.524ZM208.631 13.4V26H210.107V13.4C210.107 10.52 212.411 8.216 215.291 8.216H233.831V6.704H215.291C211.583 6.704 208.631 9.728 208.631 13.4ZM257.728 6.704H239.224V8.216H257.728C260.572 8.216 262.912 10.52 262.912 13.4V15.596H244.408C241.528 15.596 239.224 17.936 239.224 20.816C239.224 23.66 241.528 26 244.408 26H264.424V13.4C264.424 9.728 261.4 6.704 257.728 6.704ZM262.912 24.524H244.408C242.32 24.524 240.7 22.868 240.7 20.816C240.7 18.764 242.32 17.072 244.408 17.072H262.912V24.524Z" fill="#FFBF00"/>
</svg>
