<svg width="594" height="568" viewBox="0 0 594 568" fill="none" xmlns="http://www.w3.org/2000/svg">
<path d="M297.906 438.014L300.793 433.014L295.019 433.014L297.906 438.014ZM297.406 388.011L297.406 433.514L298.406 433.514L298.406 388.011L297.406 388.011Z" fill="#F4900C"/>
<path d="M589.907 387.898L590.401 387.942L590.401 387.392L589.863 387.392L589.907 387.898ZM589.906 438.119L592.761 433.342L587.052 432.824L589.906 438.119ZM297.95 388.404L589.951 388.403L589.863 387.392L297.863 387.392L297.95 388.404ZM589.412 387.853L589.412 433.542L590.401 433.632L590.401 387.942L589.412 387.853Z" fill="#F4900C"/>
<path d="M3.90622 387.898L3.86236 387.392L3.41189 387.392L3.41189 387.853L3.90622 387.898ZM3.90601 438.119L6.76004 433.342L1.05202 432.824L3.90601 438.119ZM297.862 387.392L3.86236 387.392L3.95008 388.403L297.95 388.403L297.862 387.392ZM3.41189 387.853L3.4117 433.542L4.40035 433.632L4.40055 387.942L3.41189 387.853Z" fill="#F4900C"/>
<g filter="url(#filter0_bd_6547_12407)">
<path d="M420.906 279.506C420.906 347.716 365.613 403.012 297.406 403.012C229.199 403.012 173.906 347.716 173.906 279.506C173.906 211.295 229.199 156 297.406 156C365.613 156 420.906 211.295 420.906 279.506Z" fill="#211426" fill-opacity="0.33" shape-rendering="crispEdges"/>
<path d="M420.406 279.506C420.406 347.44 365.337 402.512 297.406 402.512C229.475 402.512 174.406 347.44 174.406 279.506C174.406 211.572 229.475 156.5 297.406 156.5C365.337 156.5 420.406 211.572 420.406 279.506Z" stroke="url(#paint0_linear_6547_12407)" shape-rendering="crispEdges"/>
</g>
<path d="M249.286 324.502H247.039L241.373 329.377V322.18H239.906V332.944H241.373V331.314L244.682 328.469L248.631 332.944H250.566L245.79 327.501L249.286 324.502Z" fill="url(#paint1_linear_6547_12407)"/>
<path d="M259.159 324.502H251.355V325.948H259.159C260.048 325.948 260.766 326.67 260.766 327.547V327.993H253.853C252.464 327.993 251.355 329.1 251.355 330.468C251.355 331.837 252.464 332.944 253.853 332.944H262.249V327.547C262.249 325.871 260.876 324.502 259.159 324.502ZM260.766 331.483H253.853C253.275 331.483 252.822 331.037 252.822 330.468C252.822 329.915 253.275 329.454 253.853 329.454H260.766V331.483Z" fill="url(#paint2_linear_6547_12407)"/>
<path d="M272.984 327.993H267.085C266.523 327.993 266.07 327.531 266.07 326.963C266.07 326.409 266.523 325.948 267.085 325.948H275.481V324.502H267.085C265.712 324.502 264.588 325.594 264.588 326.963C264.588 328.346 265.712 329.454 267.085 329.454H272.984C273.562 329.454 274.014 329.915 274.014 330.468C274.014 331.037 273.562 331.483 272.984 331.483H264.588V332.944H272.984C274.373 332.944 275.481 331.837 275.481 330.468C275.481 329.1 274.373 327.993 272.984 327.993Z" fill="url(#paint3_linear_6547_12407)"/>
<path d="M286.217 327.993H280.317C279.755 327.993 279.303 327.531 279.303 326.963C279.303 326.409 279.755 325.948 280.317 325.948H288.714V324.502H280.317C278.944 324.502 277.82 325.594 277.82 326.963C277.82 328.346 278.944 329.454 280.317 329.454H286.217C286.794 329.454 287.247 329.915 287.247 330.468C287.247 331.037 286.794 331.483 286.217 331.483H277.82V332.944H286.217C287.606 332.944 288.714 331.837 288.714 330.468C288.714 329.1 287.606 327.993 286.217 327.993Z" fill="url(#paint4_linear_6547_12407)"/>
<path d="M298.856 324.502H291.053V325.948H298.856C299.746 325.948 300.464 326.67 300.464 327.547V327.993H293.55C292.161 327.993 291.053 329.1 291.053 330.468C291.053 331.837 292.161 332.944 293.55 332.944H301.946V327.547C301.946 325.871 300.573 324.502 298.856 324.502ZM300.464 331.483H293.55C292.972 331.483 292.52 331.037 292.52 330.468C292.52 329.915 292.972 329.454 293.55 329.454H300.464V331.483Z" fill="url(#paint5_linear_6547_12407)"/>
<path d="M312.104 324.502H304.285V332.944H305.752V325.948H312.104C312.978 325.948 313.712 326.67 313.712 327.547V332.944H315.179V327.547C315.179 325.871 313.79 324.502 312.104 324.502Z" fill="url(#paint6_linear_6547_12407)"/>
<path d="M326.944 324.502H320.608C318.906 324.502 317.517 325.871 317.517 327.547V329.884C317.517 331.575 318.906 332.944 320.608 332.944H328.427V322.18H326.944V324.502ZM326.944 331.483H320.608C319.718 331.483 318.984 330.761 318.984 329.884V327.547C318.984 326.67 319.718 325.948 320.608 325.948H326.944V331.483Z" fill="url(#paint7_linear_6547_12407)"/>
<path d="M330.765 327.547V332.944H332.232V327.547C332.232 326.67 332.95 325.948 333.855 325.948H341.674V324.502H333.855C332.138 324.502 330.765 325.871 330.765 327.547Z" fill="url(#paint8_linear_6547_12407)"/>
<path d="M351.816 324.502H344.013V325.948H351.816C352.706 325.948 353.424 326.67 353.424 327.547V327.993H346.51C345.121 327.993 344.013 329.1 344.013 330.468C344.013 331.837 345.121 332.944 346.51 332.944H354.906V327.547C354.906 325.871 353.533 324.502 351.816 324.502ZM353.424 331.483H346.51C345.932 331.483 345.48 331.037 345.48 330.468C345.48 329.915 345.932 329.454 346.51 329.454H353.424V331.483Z" fill="url(#paint9_linear_6547_12407)"/>
<g filter="url(#filter1_f_6547_12407)">
<path fill-rule="evenodd" clip-rule="evenodd" d="M298.242 228.773C272.635 228.773 251.884 249.406 251.884 274.867C251.884 288.75 258.051 301.199 267.822 309.664L289.868 291.187H267.563C265.257 291.187 263.421 289.323 263.421 287.069C263.421 284.776 265.295 282.951 267.563 282.951H328.949C331.256 282.951 333.091 284.814 333.091 287.069C333.091 289.362 331.217 291.187 328.949 291.187H309.288L329.591 308.882C338.827 300.458 344.629 288.352 344.629 274.895C344.629 249.435 323.85 228.801 298.242 228.773ZM250.104 274.867C250.104 248.429 271.652 227.003 298.242 227.003H298.243C324.832 227.032 346.409 248.456 346.409 274.895C346.409 289.16 340.128 301.965 330.19 310.728L329.603 311.246L304.557 289.417H328.949C330.244 289.417 331.311 288.375 331.311 287.069C331.311 285.781 330.262 284.72 328.949 284.72H267.563C266.268 284.72 265.201 285.763 265.201 287.069C265.201 288.357 266.25 289.417 267.563 289.417H294.741L267.817 311.983L267.244 311.502C256.759 302.71 250.104 289.562 250.104 274.867Z" fill="url(#paint10_linear_6547_12407)"/>
</g>
<path fill-rule="evenodd" clip-rule="evenodd" d="M298.525 228.426C272.876 228.426 252.091 249.239 252.091 274.921C252.091 288.979 258.317 301.58 268.171 310.119L290.656 291.141H267.914C265.711 291.141 263.959 289.349 263.959 287.181C263.959 284.976 265.748 283.221 267.914 283.221H329.165C331.367 283.221 333.12 285.013 333.12 287.181C333.12 289.386 331.331 291.141 329.165 291.141H309.075L329.808 309.339C339.127 300.837 344.988 288.58 344.988 274.949C344.988 249.268 324.175 228.454 298.525 228.426ZM250.67 274.921C250.67 248.453 272.092 227.003 298.525 227.003H298.526C324.958 227.032 346.409 248.481 346.409 274.949C346.409 289.229 340.165 302.048 330.286 310.822L329.817 311.238L305.299 289.719H329.165C330.554 289.719 331.699 288.592 331.699 287.181C331.699 285.79 330.574 284.644 329.165 284.644H267.914C266.525 284.644 265.38 285.77 265.38 287.181C265.38 288.572 266.504 289.719 267.914 289.719H294.545L268.167 311.983L267.709 311.596C257.286 302.794 250.67 289.631 250.67 274.921Z" fill="url(#paint11_linear_6547_12407)"/>
<defs>
<filter id="filter0_bd_6547_12407" x="13.9062" y="0" width="567" height="567.012" filterUnits="userSpaceOnUse" color-interpolation-filters="sRGB">
<feFlood flood-opacity="0" result="BackgroundImageFix"/>
<feGaussianBlur in="BackgroundImage" stdDeviation="57"/>
<feComposite in2="SourceAlpha" operator="in" result="effect1_backgroundBlur_6547_12407"/>
<feColorMatrix in="SourceAlpha" type="matrix" values="0 0 0 0 0 0 0 0 0 0 0 0 0 0 0 0 0 0 127 0" result="hardAlpha"/>
<feOffset dy="4"/>
<feGaussianBlur stdDeviation="80"/>
<feComposite in2="hardAlpha" operator="out"/>
<feColorMatrix type="matrix" values="0 0 0 0 0 0 0 0 0 0 0 0 0 0 0 0 0 0 1 0"/>
<feBlend mode="normal" in2="effect1_backgroundBlur_6547_12407" result="effect2_dropShadow_6547_12407"/>
<feBlend mode="normal" in="SourceGraphic" in2="effect2_dropShadow_6547_12407" result="shape"/>
</filter>
<filter id="filter1_f_6547_12407" x="230.104" y="207.003" width="136.306" height="124.979" filterUnits="userSpaceOnUse" color-interpolation-filters="sRGB">
<feFlood flood-opacity="0" result="BackgroundImageFix"/>
<feBlend mode="normal" in="SourceGraphic" in2="BackgroundImageFix" result="shape"/>
<feGaussianBlur stdDeviation="10" result="effect1_foregroundBlur_6547_12407"/>
</filter>
<linearGradient id="paint0_linear_6547_12407" x1="297.406" y1="156" x2="297.406" y2="403.012" gradientUnits="userSpaceOnUse">
<stop stop-color="#FFBF00"/>
<stop offset="1" stop-color="#E843C4"/>
</linearGradient>
<linearGradient id="paint1_linear_6547_12407" x1="298.185" y1="321.412" x2="298.185" y2="336.788" gradientUnits="userSpaceOnUse">
<stop stop-color="#E843C4"/>
<stop offset="1" stop-color="#FFBF00"/>
</linearGradient>
<linearGradient id="paint2_linear_6547_12407" x1="298.185" y1="321.412" x2="298.185" y2="336.788" gradientUnits="userSpaceOnUse">
<stop stop-color="#E843C4"/>
<stop offset="1" stop-color="#FFBF00"/>
</linearGradient>
<linearGradient id="paint3_linear_6547_12407" x1="298.185" y1="321.412" x2="298.185" y2="336.788" gradientUnits="userSpaceOnUse">
<stop stop-color="#E843C4"/>
<stop offset="1" stop-color="#FFBF00"/>
</linearGradient>
<linearGradient id="paint4_linear_6547_12407" x1="298.185" y1="321.412" x2="298.185" y2="336.788" gradientUnits="userSpaceOnUse">
<stop stop-color="#E843C4"/>
<stop offset="1" stop-color="#FFBF00"/>
</linearGradient>
<linearGradient id="paint5_linear_6547_12407" x1="298.185" y1="321.412" x2="298.185" y2="336.788" gradientUnits="userSpaceOnUse">
<stop stop-color="#E843C4"/>
<stop offset="1" stop-color="#FFBF00"/>
</linearGradient>
<linearGradient id="paint6_linear_6547_12407" x1="298.185" y1="321.412" x2="298.185" y2="336.788" gradientUnits="userSpaceOnUse">
<stop stop-color="#E843C4"/>
<stop offset="1" stop-color="#FFBF00"/>
</linearGradient>
<linearGradient id="paint7_linear_6547_12407" x1="298.185" y1="321.412" x2="298.185" y2="336.788" gradientUnits="userSpaceOnUse">
<stop stop-color="#E843C4"/>
<stop offset="1" stop-color="#FFBF00"/>
</linearGradient>
<linearGradient id="paint8_linear_6547_12407" x1="298.185" y1="321.412" x2="298.185" y2="336.788" gradientUnits="userSpaceOnUse">
<stop stop-color="#E843C4"/>
<stop offset="1" stop-color="#FFBF00"/>
</linearGradient>
<linearGradient id="paint9_linear_6547_12407" x1="298.185" y1="321.412" x2="298.185" y2="336.788" gradientUnits="userSpaceOnUse">
<stop stop-color="#E843C4"/>
<stop offset="1" stop-color="#FFBF00"/>
</linearGradient>
<linearGradient id="paint10_linear_6547_12407" x1="298.33" y1="189.434" x2="298.33" y2="339.868" gradientUnits="userSpaceOnUse">
<stop stop-color="#FFBF00"/>
<stop offset="1" stop-color="#E843C4"/>
</linearGradient>
<linearGradient id="paint11_linear_6547_12407" x1="298.539" y1="227.715" x2="298.539" y2="311.052" gradientUnits="userSpaceOnUse">
<stop stop-color="#FFBF00"/>
<stop offset="1" stop-color="#E843C4"/>
</linearGradient>
</defs>
</svg>
