<svg width="594" height="403" viewBox="0 0 594 403" fill="none" xmlns="http://www.w3.org/2000/svg">
<path d="M297.906 353.014L300.793 348.014L295.019 348.014L297.906 353.014ZM297.406 303.011L297.406 348.514L298.406 348.514L298.406 303.011L297.406 303.011Z" fill="#F4900C"/>
<path d="M589.907 302.898L590.401 302.942L590.401 302.392L589.863 302.392L589.907 302.898ZM589.906 353.119L592.761 348.342L587.053 347.824L589.906 353.119ZM297.95 303.404L589.951 303.403L589.863 302.392L297.863 302.392L297.95 303.404ZM589.412 302.853L589.412 348.542L590.401 348.632L590.401 302.942L589.412 302.853Z" fill="#F4900C"/>
<path d="M3.90622 302.898L3.86236 302.392L3.41189 302.392L3.41189 302.853L3.90622 302.898ZM3.90601 353.119L6.76004 348.342L1.05202 347.824L3.90601 353.119ZM297.862 302.392L3.86236 302.392L3.95008 303.403L297.95 303.403L297.862 302.392ZM3.41189 302.853L3.4117 348.542L4.40035 348.632L4.40055 302.942L3.41189 302.853Z" fill="#F4900C"/>
<g filter="url(#filter0_bd_6547_12407)">
<ellipse cx="297.406" cy="194.506" rx="123.5" ry="123.506" fill="#211426" fill-opacity="0.33" shape-rendering="crispEdges"/>
<ellipse cx="297.406" cy="194.506" rx="123.5" ry="123.506" stroke="url(#paint0_linear_6547_12407)" shape-rendering="crispEdges"/>
</g>
<path d="M249.286 239.502H247.039L241.373 244.377V237.18H239.906V247.944H241.373V246.314L244.682 243.469L248.631 247.944H250.566L245.79 242.501L249.286 239.502Z" fill="url(#paint1_linear_6547_12407)"/>
<path d="M259.159 239.502H251.355V240.948H259.159C260.048 240.948 260.766 241.67 260.766 242.547V242.993H253.853C252.464 242.993 251.355 244.1 251.355 245.468C251.355 246.837 252.464 247.944 253.853 247.944H262.249V242.547C262.249 240.871 260.876 239.502 259.159 239.502ZM260.766 246.483H253.853C253.275 246.483 252.822 246.037 252.822 245.468C252.822 244.915 253.275 244.454 253.853 244.454H260.766V246.483Z" fill="url(#paint2_linear_6547_12407)"/>
<path d="M272.984 242.993H267.085C266.523 242.993 266.07 242.531 266.07 241.963C266.07 241.409 266.523 240.948 267.085 240.948H275.481V239.502H267.085C265.712 239.502 264.588 240.594 264.588 241.963C264.588 243.346 265.712 244.454 267.085 244.454H272.984C273.562 244.454 274.014 244.915 274.014 245.468C274.014 246.037 273.562 246.483 272.984 246.483H264.588V247.944H272.984C274.373 247.944 275.481 246.837 275.481 245.468C275.481 244.1 274.373 242.993 272.984 242.993Z" fill="url(#paint3_linear_6547_12407)"/>
<path d="M286.217 242.993H280.317C279.755 242.993 279.303 242.531 279.303 241.963C279.303 241.409 279.755 240.948 280.317 240.948H288.714V239.502H280.317C278.944 239.502 277.82 240.594 277.82 241.963C277.82 243.346 278.944 244.454 280.317 244.454H286.217C286.794 244.454 287.247 244.915 287.247 245.468C287.247 246.037 286.794 246.483 286.217 246.483H277.82V247.944H286.217C287.606 247.944 288.714 246.837 288.714 245.468C288.714 244.1 287.606 242.993 286.217 242.993Z" fill="url(#paint4_linear_6547_12407)"/>
<path d="M298.856 239.502H291.053V240.948H298.856C299.746 240.948 300.464 241.67 300.464 242.547V242.993H293.55C292.161 242.993 291.053 244.1 291.053 245.468C291.053 246.837 292.161 247.944 293.55 247.944H301.946V242.547C301.946 240.871 300.573 239.502 298.856 239.502ZM300.464 246.483H293.55C292.972 246.483 292.52 246.037 292.52 245.468C292.52 244.915 292.972 244.454 293.55 244.454H300.464V246.483Z" fill="url(#paint5_linear_6547_12407)"/>
<path d="M312.104 239.502H304.285V247.944H305.752V240.948H312.104C312.978 240.948 313.712 241.67 313.712 242.547V247.944H315.179V242.547C315.179 240.871 313.79 239.502 312.104 239.502Z" fill="url(#paint6_linear_6547_12407)"/>
<path d="M326.944 239.502H320.608C318.906 239.502 317.517 240.871 317.517 242.547V244.884C317.517 246.575 318.906 247.944 320.608 247.944H328.427V237.18H326.944V239.502ZM326.944 246.483H320.608C319.718 246.483 318.984 245.761 318.984 244.884V242.547C318.984 241.67 319.718 240.948 320.608 240.948H326.944V246.483Z" fill="url(#paint7_linear_6547_12407)"/>
<path d="M330.765 242.547V247.944H332.232V242.547C332.232 241.67 332.95 240.948 333.855 240.948H341.674V239.502H333.855C332.138 239.502 330.765 240.871 330.765 242.547Z" fill="url(#paint8_linear_6547_12407)"/>
<path d="M351.816 239.502H344.013V240.948H351.816C352.706 240.948 353.424 241.67 353.424 242.547V242.993H346.51C345.121 242.993 344.013 244.1 344.013 245.468C344.013 246.837 345.121 247.944 346.51 247.944H354.906V242.547C354.906 240.871 353.533 239.502 351.816 239.502ZM353.424 246.483H346.51C345.932 246.483 345.48 246.037 345.48 245.468C345.48 244.915 345.932 244.454 346.51 244.454H353.424V246.483Z" fill="url(#paint9_linear_6547_12407)"/>
<g filter="url(#filter1_f_6547_12407)">
<path fill-rule="evenodd" clip-rule="evenodd" d="M298.242 143.773C272.635 143.773 251.884 164.406 251.884 189.867C251.884 203.75 258.051 216.199 267.822 224.664L289.868 206.187H267.563C265.257 206.187 263.421 204.323 263.421 202.069C263.421 199.776 265.295 197.951 267.563 197.951H328.949C331.256 197.951 333.091 199.814 333.091 202.069C333.091 204.362 331.217 206.187 328.949 206.187H309.288L329.591 223.882C338.826 215.458 344.629 203.352 344.629 189.895C344.629 164.435 323.85 143.801 298.242 143.773ZM250.104 189.867C250.104 163.429 271.652 142.003 298.242 142.003H298.243C324.832 142.032 346.409 163.456 346.409 189.895C346.409 204.16 340.128 216.965 330.19 225.728L329.603 226.246L304.557 204.417H328.949C330.244 204.417 331.311 203.375 331.311 202.069C331.311 200.781 330.262 199.72 328.949 199.72H267.563C266.268 199.72 265.201 200.763 265.201 202.069C265.201 203.357 266.25 204.417 267.563 204.417H294.741L267.817 226.983L267.244 226.502C256.759 217.71 250.104 204.562 250.104 189.867Z" fill="url(#paint10_linear_6547_12407)"/>
</g>
<path fill-rule="evenodd" clip-rule="evenodd" d="M298.525 143.426C272.876 143.426 252.091 164.239 252.091 189.921C252.091 203.979 258.317 216.58 268.171 225.119L290.656 206.141H267.914C265.711 206.141 263.959 204.349 263.959 202.181C263.959 199.976 265.748 198.221 267.914 198.221H329.165C331.367 198.221 333.12 200.013 333.12 202.181C333.12 204.386 331.331 206.141 329.165 206.141H309.075L329.808 224.339C339.127 215.837 344.988 203.58 344.988 189.949C344.988 164.268 324.175 143.454 298.525 143.426ZM250.67 189.921C250.67 163.453 272.092 142.003 298.525 142.003H298.526C324.958 142.032 346.409 163.481 346.409 189.949C346.409 204.229 340.165 217.048 330.286 225.822L329.817 226.238L305.299 204.719H329.165C330.554 204.719 331.699 203.592 331.699 202.181C331.699 200.79 330.574 199.644 329.165 199.644H267.914C266.525 199.644 265.38 200.77 265.38 202.181C265.38 203.572 266.504 204.719 267.914 204.719H294.545L268.167 226.983L267.709 226.596C257.286 217.794 250.67 204.631 250.67 189.921Z" fill="url(#paint11_linear_6547_12407)"/>
<defs>
<filter id="filter0_bd_6547_12407" x="59.4062" y="-43.5" width="476" height="476.012" filterUnits="userSpaceOnUse" color-interpolation-filters="sRGB">
<feFlood flood-opacity="0" result="BackgroundImageFix"/>
<feGaussianBlur in="BackgroundImage" stdDeviation="57"/>
<feComposite in2="SourceAlpha" operator="in" result="effect1_backgroundBlur_6547_12407"/>
<feColorMatrix in="SourceAlpha" type="matrix" values="0 0 0 0 0 0 0 0 0 0 0 0 0 0 0 0 0 0 127 0" result="hardAlpha"/>
<feMorphology radius="10" operator="erode" in="SourceAlpha" result="effect2_dropShadow_6547_12407"/>
<feOffset/>
<feGaussianBlur stdDeviation="40"/>
<feComposite in2="hardAlpha" operator="out"/>
<feColorMatrix type="matrix" values="0 0 0 0 0 0 0 0 0 0 0 0 0 0 0 0 0 0 1 0"/>
<feBlend mode="normal" in2="effect1_backgroundBlur_6547_12407" result="effect2_dropShadow_6547_12407"/>
<feBlend mode="normal" in="SourceGraphic" in2="effect2_dropShadow_6547_12407" result="shape"/>
</filter>
<filter id="filter1_f_6547_12407" x="230.104" y="122.003" width="136.306" height="124.979" filterUnits="userSpaceOnUse" color-interpolation-filters="sRGB">
<feFlood flood-opacity="0" result="BackgroundImageFix"/>
<feBlend mode="normal" in="SourceGraphic" in2="BackgroundImageFix" result="shape"/>
<feGaussianBlur stdDeviation="10" result="effect1_foregroundBlur_6547_12407"/>
</filter>
<linearGradient id="paint0_linear_6547_12407" x1="297.406" y1="71" x2="297.406" y2="318.012" gradientUnits="userSpaceOnUse">
<stop stop-color="#FFBF00"/>
<stop offset="1" stop-color="#E843C4"/>
</linearGradient>
<linearGradient id="paint1_linear_6547_12407" x1="298.185" y1="236.412" x2="298.185" y2="251.788" gradientUnits="userSpaceOnUse">
<stop stop-color="#E843C4"/>
<stop offset="1" stop-color="#FFBF00"/>
</linearGradient>
<linearGradient id="paint2_linear_6547_12407" x1="298.185" y1="236.412" x2="298.185" y2="251.788" gradientUnits="userSpaceOnUse">
<stop stop-color="#E843C4"/>
<stop offset="1" stop-color="#FFBF00"/>
</linearGradient>
<linearGradient id="paint3_linear_6547_12407" x1="298.185" y1="236.412" x2="298.185" y2="251.788" gradientUnits="userSpaceOnUse">
<stop stop-color="#E843C4"/>
<stop offset="1" stop-color="#FFBF00"/>
</linearGradient>
<linearGradient id="paint4_linear_6547_12407" x1="298.185" y1="236.412" x2="298.185" y2="251.788" gradientUnits="userSpaceOnUse">
<stop stop-color="#E843C4"/>
<stop offset="1" stop-color="#FFBF00"/>
</linearGradient>
<linearGradient id="paint5_linear_6547_12407" x1="298.185" y1="236.412" x2="298.185" y2="251.788" gradientUnits="userSpaceOnUse">
<stop stop-color="#E843C4"/>
<stop offset="1" stop-color="#FFBF00"/>
</linearGradient>
<linearGradient id="paint6_linear_6547_12407" x1="298.185" y1="236.412" x2="298.185" y2="251.788" gradientUnits="userSpaceOnUse">
<stop stop-color="#E843C4"/>
<stop offset="1" stop-color="#FFBF00"/>
</linearGradient>
<linearGradient id="paint7_linear_6547_12407" x1="298.185" y1="236.412" x2="298.185" y2="251.788" gradientUnits="userSpaceOnUse">
<stop stop-color="#E843C4"/>
<stop offset="1" stop-color="#FFBF00"/>
</linearGradient>
<linearGradient id="paint8_linear_6547_12407" x1="298.185" y1="236.412" x2="298.185" y2="251.788" gradientUnits="userSpaceOnUse">
<stop stop-color="#E843C4"/>
<stop offset="1" stop-color="#FFBF00"/>
</linearGradient>
<linearGradient id="paint9_linear_6547_12407" x1="298.185" y1="236.412" x2="298.185" y2="251.788" gradientUnits="userSpaceOnUse">
<stop stop-color="#E843C4"/>
<stop offset="1" stop-color="#FFBF00"/>
</linearGradient>
<linearGradient id="paint10_linear_6547_12407" x1="298.33" y1="104.434" x2="298.33" y2="254.868" gradientUnits="userSpaceOnUse">
<stop stop-color="#FFBF00"/>
<stop offset="1" stop-color="#E843C4"/>
</linearGradient>
<linearGradient id="paint11_linear_6547_12407" x1="298.539" y1="142.715" x2="298.539" y2="226.052" gradientUnits="userSpaceOnUse">
<stop stop-color="#FFBF00"/>
<stop offset="1" stop-color="#E843C4"/>
</linearGradient>
</defs>
</svg>
