<svg width="266" height="26" viewBox="0 0 266 26" fill="none" xmlns="http://www.w3.org/2000/svg">
<path d="M21.636 6.236H16.452L3.384 17.648V0.799998H0V26H3.384V22.184L11.016 15.524L20.124 26H24.588L13.572 13.256L21.636 6.236ZM44.4094 6.236H26.4094V9.62H44.4094C46.4614 9.62 48.1174 11.312 48.1174 13.364V14.408H32.1694C28.9654 14.408 26.4094 17 26.4094 20.204C26.4094 23.408 28.9654 26 32.1694 26H51.5374V13.364C51.5374 9.44 48.3694 6.236 44.4094 6.236ZM48.1174 22.58H32.1694C30.8374 22.58 29.7934 21.536 29.7934 20.204C29.7934 18.908 30.8374 17.828 32.1694 17.828H48.1174V22.58ZM76.3 14.408H62.692C61.396 14.408 60.352 13.328 60.352 11.996C60.352 10.7 61.396 9.62 62.692 9.62H82.06V6.236H62.692C59.524 6.236 56.932 8.792 56.932 11.996C56.932 15.236 59.524 17.828 62.692 17.828H76.3C77.632 17.828 78.676 18.908 78.676 20.204C78.676 21.536 77.632 22.58 76.3 22.58H56.932V26H76.3C79.504 26 82.06 23.408 82.06 20.204C82.06 17 79.504 14.408 76.3 14.408ZM106.823 14.408H93.2147C91.9187 14.408 90.8747 13.328 90.8747 11.996C90.8747 10.7 91.9187 9.62 93.2147 9.62H112.583V6.236H93.2147C90.0467 6.236 87.4547 8.792 87.4547 11.996C87.4547 15.236 90.0467 17.828 93.2147 17.828H106.823C108.155 17.828 109.199 18.908 109.199 20.204C109.199 21.536 108.155 22.58 106.823 22.58H87.4547V26H106.823C110.027 26 112.583 23.408 112.583 20.204C112.583 17 110.027 14.408 106.823 14.408ZM135.977 6.236H117.977V9.62H135.977C138.029 9.62 139.685 11.312 139.685 13.364V14.408H123.737C120.533 14.408 117.977 17 117.977 20.204C117.977 23.408 120.533 26 123.737 26H143.105V13.364C143.105 9.44 139.937 6.236 135.977 6.236ZM139.685 22.58H123.737C122.405 22.58 121.361 21.536 121.361 20.204C121.361 18.908 122.405 17.828 123.737 17.828H139.685V22.58ZM166.536 6.236H148.5V26H151.884V9.62H166.536C168.552 9.62 170.244 11.312 170.244 13.364V26H173.628V13.364C173.628 9.44 170.424 6.236 166.536 6.236ZM200.767 6.236H186.151C182.227 6.236 179.023 9.44 179.023 13.364V18.836C179.023 22.796 182.227 26 186.151 26H204.187V0.799998H200.767V6.236ZM200.767 22.58H186.151C184.099 22.58 182.407 20.888 182.407 18.836V13.364C182.407 11.312 184.099 9.62 186.151 9.62H200.767V22.58ZM209.58 13.364V26H212.964V13.364C212.964 11.312 214.62 9.62 216.708 9.62H234.744V6.236H216.708C212.748 6.236 209.58 9.44 209.58 13.364ZM258.138 6.236H240.138V9.62H258.138C260.19 9.62 261.846 11.312 261.846 13.364V14.408H245.898C242.694 14.408 240.138 17 240.138 20.204C240.138 23.408 242.694 26 245.898 26H265.266V13.364C265.266 9.44 262.098 6.236 258.138 6.236ZM261.846 22.58H245.898C244.566 22.58 243.522 21.536 243.522 20.204C243.522 18.908 244.566 17.828 245.898 17.828H261.846V22.58Z" fill="#FFBF00"/>
</svg>
