<svg width="104" height="101" viewBox="0 0 104 101" fill="none" xmlns="http://www.w3.org/2000/svg">
<ellipse cx="52" cy="52.0024" rx="48" ry="48.0023" fill="#211426"/>
<g filter="url(#filter0_f_6456_12440)">
<path fill-rule="evenodd" clip-rule="evenodd" d="M51.9903 21.1995C34.9735 21.1997 21.183 35.185 21.183 52.4426C21.183 61.8529 25.2815 70.2909 31.7751 76.0283L46.4254 63.5042H31.6028C30.0701 63.5042 28.8504 62.2413 28.8504 60.713C28.8504 59.1589 30.0956 57.9218 31.6028 57.9218H72.3972C73.93 57.9218 75.1496 59.1848 75.1496 60.713C75.1496 62.2671 73.9045 63.5042 72.3972 63.5042H59.3312L72.8238 75.4984C78.9611 69.7882 82.817 61.5826 82.817 52.4617C82.817 35.2046 69.0081 21.2184 51.9903 21.1995ZM20 52.4426C20 34.5227 34.3201 20 51.9906 20H51.9912C69.6607 20.0194 84 34.5411 84 52.4617C84 62.1305 79.8257 70.8096 73.2219 76.7496L72.8317 77.1006L56.1874 62.3048H72.3972C73.2576 62.3048 73.9666 61.5981 73.9666 60.713C73.9666 59.8402 73.2697 59.1213 72.3972 59.1213H31.6028C30.7424 59.1213 30.0334 59.8279 30.0334 60.713C30.0334 61.5859 30.7303 62.3048 31.6028 62.3048H49.6637L31.7718 77.6L31.3905 77.2739C24.4232 71.3146 20 62.4027 20 52.4426Z" fill="url(#paint0_linear_6456_12440)"/>
</g>
<path fill-rule="evenodd" clip-rule="evenodd" d="M51.9903 20.9642C34.8447 20.9644 20.9499 35.0712 20.9499 52.4788C20.9499 62.0079 25.1119 70.5488 31.6989 76.337L46.7298 63.4733H31.5271C30.055 63.4733 28.8832 62.2589 28.8832 60.7891C28.8832 59.2948 30.0792 58.105 31.5271 58.105H72.4729C73.945 58.105 75.1168 59.3194 75.1168 60.7891C75.1168 62.2835 73.9208 63.4733 72.4729 63.4733H59.0429L72.9027 75.8077C79.1319 70.0451 83.0501 61.7371 83.0501 52.498C83.0501 35.0909 69.1367 20.9832 51.9903 20.9642ZM20 52.4788C20 34.5388 34.3201 20 51.9906 20C69.6602 20.0195 84 34.5575 84 52.498C84 62.1775 79.8259 70.8661 73.2219 76.813L72.9085 77.0952L56.5185 62.5091H72.4729C73.4014 62.5091 74.1669 61.7457 74.1669 60.7891C74.1669 59.8462 73.4149 59.0692 72.4729 59.0692H31.5271C30.5986 59.0692 29.8331 59.8325 29.8331 60.7891C29.8331 61.732 30.5851 62.5091 31.5271 62.5091H49.33L31.6968 77.6L31.3906 77.3379C24.4231 71.3717 20 62.4499 20 52.4788Z" fill="url(#paint1_linear_6456_12440)"/>
<defs>
<filter id="filter0_f_6456_12440" x="0" y="3.05176e-05" width="104" height="97.6" filterUnits="userSpaceOnUse" color-interpolation-filters="sRGB">
<feFlood flood-opacity="0" result="BackgroundImageFix"/>
<feBlend mode="normal" in="SourceGraphic" in2="BackgroundImageFix" result="shape"/>
<feGaussianBlur stdDeviation="10" result="effect1_foregroundBlur_6456_12440"/>
</filter>
<linearGradient id="paint0_linear_6456_12440" x1="52.0492" y1="-5.4648" x2="52.0492" y2="96.501" gradientUnits="userSpaceOnUse">
<stop stop-color="#FFBF00"/>
<stop offset="1" stop-color="#E843C4"/>
</linearGradient>
<linearGradient id="paint1_linear_6456_12440" x1="52" y1="20.4821" x2="52" y2="76.9694" gradientUnits="userSpaceOnUse">
<stop stop-color="#FFBF00"/>
<stop offset="1" stop-color="#E843C4"/>
</linearGradient>
</defs>
</svg>
