<svg width="175" height="168" viewBox="0 0 175 168" fill="none" xmlns="http://www.w3.org/2000/svg">
<path d="M19.0501 155.65H15.9233L8.04112 162.432V152.419H6V167.395H8.04112V165.127L12.6445 161.169L18.1381 167.395H20.8307L14.1862 159.822L19.0501 155.65Z" fill="url(#paint0_linear_6248_10781)"/>
<path d="M32.7863 155.65H21.9293V157.661H32.7863C34.024 157.661 35.0228 158.666 35.0228 159.886V160.506H25.4035C23.471 160.506 21.9293 162.046 21.9293 163.95C21.9293 165.854 23.471 167.395 25.4035 167.395H37.0857V159.886C37.0857 157.554 35.1748 155.65 32.7863 155.65ZM35.0228 165.362H25.4035C24.6001 165.362 23.9704 164.742 23.9704 163.95C23.9704 163.18 24.6001 162.539 25.4035 162.539H35.0228V165.362Z" fill="url(#paint1_linear_6248_10781)"/>
<path d="M52.0217 160.506H43.8138C43.0321 160.506 42.4024 159.864 42.4024 159.073C42.4024 158.303 43.0321 157.661 43.8138 157.661H55.4959V155.65H43.8138C41.903 155.65 40.3396 157.169 40.3396 159.073C40.3396 160.998 41.903 162.539 43.8138 162.539H52.0217C52.8251 162.539 53.4548 163.18 53.4548 163.95C53.4548 164.742 52.8251 165.362 52.0217 165.362H40.3396V167.395H52.0217C53.9543 167.395 55.4959 165.854 55.4959 163.95C55.4959 162.046 53.9543 160.506 52.0217 160.506Z" fill="url(#paint2_linear_6248_10781)"/>
<path d="M70.432 160.506H62.2241C61.4424 160.506 60.8127 159.864 60.8127 159.073C60.8127 158.303 61.4424 157.661 62.2241 157.661H73.9062V155.65H62.2241C60.3132 155.65 58.7498 157.169 58.7498 159.073C58.7498 160.998 60.3132 162.539 62.2241 162.539H70.432C71.2354 162.539 71.8651 163.18 71.8651 163.95C71.8651 164.742 71.2354 165.362 70.432 165.362H58.7498V167.395H70.432C72.3645 167.395 73.9062 165.854 73.9062 163.95C73.9062 162.046 72.3645 160.506 70.432 160.506Z" fill="url(#paint3_linear_6248_10781)"/>
<path d="M88.0171 155.65H77.1601V157.661H88.0171C89.2548 157.661 90.2537 158.666 90.2537 159.886V160.506H80.6343C78.7018 160.506 77.1601 162.046 77.1601 163.95C77.1601 165.854 78.7018 167.395 80.6343 167.395H92.3165V159.886C92.3165 157.554 90.4057 155.65 88.0171 155.65ZM90.2537 165.362H80.6343C79.8309 165.362 79.2012 164.742 79.2012 163.95C79.2012 163.18 79.8309 162.539 80.6343 162.539H90.2537V165.362Z" fill="url(#paint4_linear_6248_10781)"/>
<path d="M106.449 155.65H95.5704V167.395H97.6115V157.661H106.449C107.665 157.661 108.686 158.666 108.686 159.886V167.395H110.727V159.886C110.727 157.554 108.794 155.65 106.449 155.65Z" fill="url(#paint5_linear_6248_10781)"/>
<path d="M127.096 155.65H118.28C115.913 155.65 113.981 157.554 113.981 159.886V163.138C113.981 165.491 115.913 167.395 118.28 167.395H129.159V152.419H127.096V155.65ZM127.096 165.362H118.28C117.042 165.362 116.022 164.357 116.022 163.138V159.886C116.022 158.666 117.042 157.661 118.28 157.661H127.096V165.362Z" fill="url(#paint6_linear_6248_10781)"/>
<path d="M132.412 159.886V167.395H134.453V159.886C134.453 158.666 135.452 157.661 136.712 157.661H147.59V155.65H136.712C134.323 155.65 132.412 157.554 132.412 159.886Z" fill="url(#paint7_linear_6248_10781)"/>
<path d="M161.701 155.65H150.844V157.661H161.701C162.938 157.661 163.937 158.666 163.937 159.886V160.506H154.318C152.385 160.506 150.844 162.046 150.844 163.95C150.844 165.854 152.385 167.395 154.318 167.395H166V159.886C166 157.554 164.089 155.65 161.701 155.65ZM163.937 165.362H154.318C153.514 165.362 152.885 164.742 152.885 163.95C152.885 163.18 153.514 162.539 154.318 162.539H163.937V165.362Z" fill="url(#paint8_linear_6248_10781)"/>
<g filter="url(#filter0_f_6248_10781)">
<path fill-rule="evenodd" clip-rule="evenodd" d="M87.1622 22.4621C51.5359 22.4624 22.6642 51.1693 22.6642 86.5931C22.6642 105.909 31.2448 123.229 44.8398 135.006L75.5116 109.299H44.4791C41.2701 109.299 38.7166 106.706 38.7166 103.569C38.7166 100.379 41.3235 97.84 44.4791 97.84H129.886C133.095 97.84 135.649 100.432 135.649 103.569C135.649 106.759 133.042 109.299 129.886 109.299H102.531L130.779 133.918C143.628 122.197 151.701 105.354 151.701 86.6322C151.701 51.2096 122.791 22.5008 87.1622 22.4621ZM20.1875 86.5931C20.1875 49.8098 50.1679 20 87.1629 20H87.1642C124.157 20.0399 154.178 49.8477 154.178 86.6322C154.178 106.479 145.438 124.294 131.613 136.487L130.796 137.207L95.9494 106.837H129.886C131.687 106.837 133.172 105.386 133.172 103.569C133.172 101.778 131.713 100.302 129.886 100.302H44.4791C42.6778 100.302 41.1933 101.752 41.1933 103.569C41.1933 105.361 42.6525 106.837 44.4791 106.837H82.2914L44.8329 138.232L44.0346 137.563C29.448 125.331 20.1875 107.037 20.1875 86.5931Z" fill="url(#paint9_linear_6248_10781)"/>
</g>
<path fill-rule="evenodd" clip-rule="evenodd" d="M87.5564 21.9792C51.8717 21.9794 22.9526 50.9358 22.9526 86.6674C22.9526 106.227 31.6149 123.759 45.3243 135.64L76.6077 109.235H44.9667C41.9028 109.235 39.4641 106.742 39.4641 103.725C39.4641 100.658 41.9532 98.2159 44.9667 98.2159H130.186C133.25 98.2159 135.689 100.709 135.689 103.725C135.689 106.793 133.2 109.235 130.186 109.235H102.235L131.081 134.553C144.046 122.725 152.201 105.671 152.201 86.7066C152.201 50.9761 123.243 22.0182 87.5564 21.9792ZM20.9756 86.6674C20.9756 49.843 50.7797 20 87.5569 20H87.558C124.333 20.0399 154.178 49.8813 154.178 86.7066C154.178 106.575 145.49 124.41 131.745 136.617L131.093 137.196L96.9809 107.256H130.186C132.119 107.256 133.712 105.689 133.712 103.725C133.712 101.79 132.147 100.195 130.186 100.195H44.9667C43.0343 100.195 41.4411 101.762 41.4411 103.725C41.4411 105.661 43.0062 107.256 44.9667 107.256H82.0196L45.3198 138.232L44.6826 137.694C30.1812 125.448 20.9756 107.134 20.9756 86.6674Z" fill="url(#paint10_linear_6248_10781)"/>
<defs>
<filter id="filter0_f_6248_10781" x="0.1875" y="0" width="173.99" height="158.232" filterUnits="userSpaceOnUse" color-interpolation-filters="sRGB">
<feFlood flood-opacity="0" result="BackgroundImageFix"/>
<feBlend mode="normal" in="SourceGraphic" in2="BackgroundImageFix" result="shape"/>
<feGaussianBlur stdDeviation="10" result="effect1_foregroundBlur_6248_10781"/>
</filter>
<linearGradient id="paint0_linear_6248_10781" x1="87.0841" y1="151.35" x2="87.0841" y2="172.743" gradientUnits="userSpaceOnUse">
<stop stop-color="#E843C4"/>
<stop offset="1" stop-color="#FFBF00"/>
</linearGradient>
<linearGradient id="paint1_linear_6248_10781" x1="87.0841" y1="151.35" x2="87.0841" y2="172.743" gradientUnits="userSpaceOnUse">
<stop stop-color="#E843C4"/>
<stop offset="1" stop-color="#FFBF00"/>
</linearGradient>
<linearGradient id="paint2_linear_6248_10781" x1="87.0841" y1="151.35" x2="87.0841" y2="172.743" gradientUnits="userSpaceOnUse">
<stop stop-color="#E843C4"/>
<stop offset="1" stop-color="#FFBF00"/>
</linearGradient>
<linearGradient id="paint3_linear_6248_10781" x1="87.0841" y1="151.35" x2="87.0841" y2="172.743" gradientUnits="userSpaceOnUse">
<stop stop-color="#E843C4"/>
<stop offset="1" stop-color="#FFBF00"/>
</linearGradient>
<linearGradient id="paint4_linear_6248_10781" x1="87.0841" y1="151.35" x2="87.0841" y2="172.743" gradientUnits="userSpaceOnUse">
<stop stop-color="#E843C4"/>
<stop offset="1" stop-color="#FFBF00"/>
</linearGradient>
<linearGradient id="paint5_linear_6248_10781" x1="87.0841" y1="151.35" x2="87.0841" y2="172.743" gradientUnits="userSpaceOnUse">
<stop stop-color="#E843C4"/>
<stop offset="1" stop-color="#FFBF00"/>
</linearGradient>
<linearGradient id="paint6_linear_6248_10781" x1="87.0841" y1="151.35" x2="87.0841" y2="172.743" gradientUnits="userSpaceOnUse">
<stop stop-color="#E843C4"/>
<stop offset="1" stop-color="#FFBF00"/>
</linearGradient>
<linearGradient id="paint7_linear_6248_10781" x1="87.0841" y1="151.35" x2="87.0841" y2="172.743" gradientUnits="userSpaceOnUse">
<stop stop-color="#E843C4"/>
<stop offset="1" stop-color="#FFBF00"/>
</linearGradient>
<linearGradient id="paint8_linear_6248_10781" x1="87.0841" y1="151.35" x2="87.0841" y2="172.743" gradientUnits="userSpaceOnUse">
<stop stop-color="#E843C4"/>
<stop offset="1" stop-color="#FFBF00"/>
</linearGradient>
<linearGradient id="paint9_linear_6248_10781" x1="87.2855" y1="-32.2702" x2="87.2855" y2="177.029" gradientUnits="userSpaceOnUse">
<stop stop-color="#FFBF00"/>
<stop offset="1" stop-color="#E843C4"/>
</linearGradient>
<linearGradient id="paint10_linear_6248_10781" x1="87.5766" y1="20.9896" x2="87.5766" y2="136.938" gradientUnits="userSpaceOnUse">
<stop stop-color="#FFBF00"/>
<stop offset="1" stop-color="#E843C4"/>
</linearGradient>
</defs>
</svg>
