<svg width="338" height="67" viewBox="0 0 338 67" fill="none" xmlns="http://www.w3.org/2000/svg">
<g filter="url(#filter0_f)">
<path d="M69 37.0164C69 46.5524 64.8265 55.1118 58.2217 60.9713L42.8678 47.5098H57.7813C58.9874 47.5098 59.983 46.5332 59.983 45.3077C59.983 44.1014 59.0066 43.1056 57.7813 43.1056H16.2187C15.0126 43.1056 14.0171 44.0822 14.0171 45.3077C14.0171 46.5141 14.9934 47.5098 16.2187 47.5098H32.9701L16.391 61.4883C9.42237 55.6097 5 46.8205 5 36.9972C5 19.3231 19.3201 5 36.9904 5C54.6608 5.01915 69 19.3423 69 37.0164Z" stroke="url(#paint0_linear)" stroke-miterlimit="10"/>
</g>
<path d="M68.3334 37.0161C68.3334 46.3535 64.2469 54.7345 57.7796 60.4719L42.7456 47.2909H57.3485C58.5295 47.2909 59.5042 46.3347 59.5042 45.1347C59.5042 43.9535 58.5482 42.9785 57.3485 42.9785H16.6517C15.4707 42.9785 14.4959 43.9348 14.4959 45.1347C14.4959 46.316 15.452 47.2909 16.6517 47.2909H33.0541L16.8204 60.9782C9.99699 55.222 5.66675 46.6159 5.66675 36.9974C5.66675 19.6915 19.6885 5.66675 36.9907 5.66675C54.2929 5.6855 68.3334 19.7102 68.3334 37.0161Z" stroke="url(#paint1_linear)" stroke-width="1.5" stroke-miterlimit="10"/>
<path d="M114.312 29.848H112.328L98.312 42.104V24.568H97V47H98.312V43.864L106.792 36.44L115.912 47H117.672L107.784 35.576L114.312 29.848ZM135.736 29.848H119.288V31.192H135.736C138.264 31.192 140.344 33.24 140.344 35.8V37.752H123.896C121.336 37.752 119.288 39.832 119.288 42.392C119.288 44.92 121.336 47 123.896 47H141.688V35.8C141.688 32.536 139 29.848 135.736 29.848ZM140.344 45.688H123.896C122.04 45.688 120.6 44.216 120.6 42.392C120.6 40.568 122.04 39.064 123.896 39.064H140.344V45.688ZM151.089 29.848C148.561 29.848 146.481 31.896 146.481 34.488C146.481 37.016 148.561 39.064 151.089 39.064H164.305C166.097 39.064 167.569 40.568 167.569 42.392C167.569 44.216 166.097 45.688 164.305 45.688H146.481V47H164.305C166.833 47 168.881 44.92 168.881 42.392C168.881 39.832 166.833 37.752 164.305 37.752H151.089C149.297 37.752 147.793 36.28 147.793 34.488C147.793 32.632 149.297 31.192 151.089 31.192H168.881V29.848H151.089ZM178.283 29.848C175.755 29.848 173.675 31.896 173.675 34.488C173.675 37.016 175.755 39.064 178.283 39.064H191.499C193.291 39.064 194.763 40.568 194.763 42.392C194.763 44.216 193.291 45.688 191.499 45.688H173.675V47H191.499C194.027 47 196.075 44.92 196.075 42.392C196.075 39.832 194.027 37.752 191.499 37.752H178.283C176.491 37.752 174.987 36.28 174.987 34.488C174.987 32.632 176.491 31.192 178.283 31.192H196.075V29.848H178.283ZM217.317 29.848H200.869V31.192H217.317C219.845 31.192 221.925 33.24 221.925 35.8V37.752H205.477C202.917 37.752 200.869 39.832 200.869 42.392C200.869 44.92 202.917 47 205.477 47H223.269V35.8C223.269 32.536 220.581 29.848 217.317 29.848ZM221.925 45.688H205.477C203.621 45.688 202.181 44.216 202.181 42.392C202.181 40.568 203.621 39.064 205.477 39.064H221.925V45.688ZM244.51 29.848H228.062V47H229.375V31.192H244.51C247.071 31.192 249.151 33.24 249.151 35.8V47H250.463V35.8C250.463 32.536 247.807 29.848 244.51 29.848ZM276.312 29.848H261.176C257.912 29.848 255.256 32.536 255.256 35.8V41.048C255.256 44.344 257.912 47 261.176 47H277.656V24.568H276.312V29.848ZM276.312 45.688H261.176C258.648 45.688 256.568 43.608 256.568 41.048V35.8C256.568 33.24 258.648 31.192 261.176 31.192H276.312V45.688ZM282.45 35.8V47H283.762V35.8C283.762 33.24 285.81 31.192 288.37 31.192H304.85V29.848H288.37C285.074 29.848 282.45 32.536 282.45 35.8ZM326.092 29.848H309.644V31.192H326.092C328.62 31.192 330.7 33.24 330.7 35.8V37.752H314.252C311.692 37.752 309.644 39.832 309.644 42.392C309.644 44.92 311.692 47 314.252 47H332.044V35.8C332.044 32.536 329.356 29.848 326.092 29.848ZM330.7 45.688H314.252C312.396 45.688 310.956 44.216 310.956 42.392C310.956 40.568 312.396 39.064 314.252 39.064H330.7V45.688Z" fill="url(#paint2_linear)"/>
<defs>
<filter id="filter0_f" x="0.5" y="0.5" width="73" height="65.6423" filterUnits="userSpaceOnUse" color-interpolation-filters="sRGB">
<feFlood flood-opacity="0" result="BackgroundImageFix"/>
<feBlend mode="normal" in="SourceGraphic" in2="BackgroundImageFix" result="shape"/>
<feGaussianBlur stdDeviation="2" result="effect1_foregroundBlur"/>
</filter>
<linearGradient id="paint0_linear" x1="37.0501" y1="-21.1909" x2="37.0501" y2="81.2692" gradientUnits="userSpaceOnUse">
<stop stop-color="#FFBF00"/>
<stop offset="1" stop-color="#E843C4"/>
</linearGradient>
<linearGradient id="paint1_linear" x1="37.0001" y1="5.66675" x2="37.0001" y2="60.9782" gradientUnits="userSpaceOnUse">
<stop stop-color="#FFBF00"/>
<stop offset="1" stop-color="#E843C4"/>
</linearGradient>
<linearGradient id="paint2_linear" x1="216.471" y1="23.0065" x2="216.471" y2="55.0098" gradientUnits="userSpaceOnUse">
<stop stop-color="#FFBF00"/>
<stop offset="1" stop-color="#E843C4"/>
</linearGradient>
</defs>
</svg>
