<svg width="250" height="250" viewBox="0 0 250 250" fill="none" xmlns="http://www.w3.org/2000/svg">
<circle cx="125" cy="125" r="124" stroke="url(#paint0_linear)" stroke-width="2"/>
<path d="M178.114 73C177.437 75.9252 176.66 78.8256 175.784 81.6958C189.022 87.3214 200.173 96.0318 207.921 106.799C197.033 101.317 184.657 97.0757 171.448 94.3013C170.064 97.6664 168.542 100.97 166.884 104.205C178.753 110.436 188.572 119.214 195.321 129.628C184.967 123.76 173.136 119.001 160.428 115.593C158.625 118.359 156.717 121.054 154.71 123.671C164.304 129.818 172.217 137.711 177.841 146.745C168.612 141.262 158.153 136.653 146.897 133.111C145.258 134.839 143.572 136.519 141.841 138.151C148.765 145.044 154.178 152.95 157.767 161.415C150.663 155.564 142.568 150.204 133.728 145.496C131.722 147.099 129.669 148.641 127.571 150.118C131.92 157.291 134.988 164.93 136.641 172.705C131.737 166.704 126.076 160.902 119.779 155.421C117.942 156.513 116.077 157.558 114.189 158.554C117.194 164.872 119.258 171.43 120.318 178.026C116.372 172.687 111.863 167.463 106.861 162.436C103.982 163.768 101.057 164.99 98.0888 166.1C99.9241 171.482 101.111 176.953 101.624 182.401C98.5988 177.689 95.1697 173.03 91.3751 168.477C88.872 169.246 86.3461 169.936 83.8012 170.547C84.4203 175.037 84.615 179.505 84.3827 183.891C82.5904 179.914 80.5497 175.931 78.2752 171.969C76.063 172.387 73.8406 172.746 71.6098 173.045C71.9193 176.579 71.9654 180.087 71.7478 183.54C70.3438 180.289 68.7758 177.031 67.0512 173.78C63.5331 174.191 59.9994 174.451 56.4599 174.561C56.3171 176.834 56.0653 179.081 55.7054 181.292C54.9642 179.097 54.1544 176.892 53.2775 174.683C42.3697 174.569 31.5215 173.027 21 170.094C25.9927 175.984 31.5046 181.414 37.469 186.319C53.9791 192.66 71.5805 195.945 89.3516 196C122.097 195.97 153.817 184.986 179.101 164.919C204.385 144.852 221.668 116.947 228 85.9625C212.67 78.9172 195.686 74.5041 178.114 73Z" fill="url(#paint1_linear)"/>
<defs>
<linearGradient id="paint0_linear" x1="124.97" y1="250.051" x2="124.97" y2="0.025424" gradientUnits="userSpaceOnUse">
<stop stop-color="#FFBF00"/>
<stop offset="1" stop-color="#E843C4"/>
</linearGradient>
<linearGradient id="paint1_linear" x1="124.475" y1="196.025" x2="124.475" y2="73.0125" gradientUnits="userSpaceOnUse">
<stop stop-color="#FFBF00"/>
<stop offset="1" stop-color="#E843C4"/>
</linearGradient>
</defs>
</svg>
