<svg width="58" height="58" viewBox="0 0 58 58" fill="none" xmlns="http://www.w3.org/2000/svg">
<circle cx="29" cy="29" r="29" fill="url(#paint0_linear_5508)"/>
<circle cx="29" cy="29" r="28.5" stroke="white" stroke-opacity="0.05"/>
<path fill-rule="evenodd" clip-rule="evenodd" d="M28.9942 10.8443C18.9398 10.8444 10.7917 19.5364 10.7917 30.2621C10.7917 36.0956 13.2009 41.328 17.0207 44.8934L25.5735 37.2026H16.9181C15.9849 37.2026 15.2423 36.3937 15.2423 35.415C15.2423 34.4197 16.0005 33.6274 16.9181 33.6274H41.0819C42.0151 33.6274 42.7577 34.4363 42.7577 35.415C42.7577 36.4103 41.9995 37.2026 41.0819 37.2026H33.4633L41.3338 44.5619C44.9427 41.0142 47.2083 35.927 47.2083 30.274C47.2083 19.5487 39.0493 10.8561 28.9942 10.8443ZM10 30.2621C10 19.0702 18.5025 10 28.9944 10C39.4856 10.0121 48 19.0816 48 30.274C48 36.3126 45.5215 41.7332 41.6005 45.443L41.3394 45.6901L31.3595 36.3582H41.0819C41.5666 36.3582 41.966 35.9394 41.966 35.415C41.966 34.8977 41.5733 34.4718 41.0819 34.4718H16.9181C16.4334 34.4718 16.034 34.8906 16.034 35.415C16.034 35.9323 16.4267 36.3582 16.9181 36.3582H27.7406L17.0182 46L16.7631 45.7704C12.6264 42.0486 10 36.4826 10 30.2621Z" fill="url(#paint1_linear_5508)"/>
<defs>
<linearGradient id="paint0_linear_5508" x1="29" y1="0" x2="29" y2="58" gradientUnits="userSpaceOnUse">
<stop stop-color="#211426"/>
<stop offset="1" stop-color="#190E1D"/>
</linearGradient>
<linearGradient id="paint1_linear_5508" x1="29" y1="10.4222" x2="29" y2="45.4477" gradientUnits="userSpaceOnUse">
<stop stop-color="#FFBF00"/>
<stop offset="1" stop-color="#E843C4"/>
</linearGradient>
</defs>
</svg>
