<svg width="104" height="93" viewBox="0 0 104 93" fill="none" xmlns="http://www.w3.org/2000/svg">
<g filter="url(#filter0_f)">
<path d="M100 52.0246C100 66.3286 93.7397 79.1677 83.8325 87.9569L60.8017 67.7647H83.172C84.9812 67.7647 86.4744 66.2998 86.4744 64.4616C86.4744 62.652 85.0099 61.1585 83.172 61.1585H20.828C19.0189 61.1585 17.5256 62.6233 17.5256 64.4616C17.5256 66.2711 18.9901 67.7647 20.828 67.7647H45.9551L21.0864 88.7324C10.6336 79.9145 4 66.7307 4 51.9959C4 25.4847 25.4801 4 51.9856 4C78.4912 4.02872 100 25.5134 100 52.0246Z" stroke="url(#paint0_linear)" stroke-miterlimit="10"/>
</g>
<path d="M100 52.0246C100 66.3286 93.7397 79.1677 83.8325 87.9569L60.8017 67.7647H83.172C84.9812 67.7647 86.4744 66.2999 86.4744 64.4616C86.4744 62.6521 85.0099 61.1585 83.172 61.1585H20.828C19.0189 61.1585 17.5256 62.6233 17.5256 64.4616C17.5256 66.2711 18.9901 67.7647 20.828 67.7647H45.9551L21.0864 88.7324C10.6336 79.9145 4 66.7307 4 51.9959C4 25.4847 25.4801 4 51.9856 4C78.4912 4.02872 100 25.5134 100 52.0246Z" stroke="url(#paint1_linear)" stroke-width="2" stroke-miterlimit="10"/>
<defs>
<filter id="filter0_f" x="0.5" y="0.5" width="103" height="91.8865" filterUnits="userSpaceOnUse" color-interpolation-filters="sRGB">
<feFlood flood-opacity="0" result="BackgroundImageFix"/>
<feBlend mode="normal" in="SourceGraphic" in2="BackgroundImageFix" result="shape"/>
<feGaussianBlur stdDeviation="1.5" result="effect1_foregroundBlur"/>
</filter>
<linearGradient id="paint0_linear" x1="52.0751" y1="-35.2864" x2="52.0751" y2="118.404" gradientUnits="userSpaceOnUse">
<stop stop-color="#FFBF00"/>
<stop offset="1" stop-color="#E843C4"/>
</linearGradient>
<linearGradient id="paint1_linear" x1="52" y1="4" x2="52" y2="88.7324" gradientUnits="userSpaceOnUse">
<stop stop-color="#FFBF00"/>
<stop offset="1" stop-color="#E843C4"/>
</linearGradient>
</defs>
</svg>
