<svg width="32" height="32" viewBox="0 0 32 32" fill="none" xmlns="http://www.w3.org/2000/svg">
<path opacity="0.1" fill-rule="evenodd" clip-rule="evenodd" d="M0 16C0 7.16344 7.16344 0 16 0C24.8366 0 32 7.16344 32 16C32 24.8366 24.8366 32 16 32C7.16344 32 0 24.8366 0 16Z" fill="white"/>
<path fill-rule="evenodd" clip-rule="evenodd" d="M31.9 15.9496C31.9 7.14681 24.7532 0 15.9504 0C7.14756 0 0 7.14681 0 15.9496C0 24.7524 7.14681 31.8993 15.9496 31.8993C24.7524 31.8993 31.9 24.7524 31.9 15.9496ZM31.9 15.9496C31.9 7.14681 24.7532 0 15.9504 0C7.14756 0 0 7.14681 0 15.9496C0 24.7524 7.14681 31.8993 15.9496 31.8993C24.7524 31.8993 31.9 24.7524 31.9 15.9496ZM17.5515 15.9498C17.5515 19.8704 14.3947 23.0487 10.5009 23.0487C6.607 23.0487 3.45 19.8697 3.45 15.9498C3.45 12.0298 6.60675 8.8505 10.5009 8.8505C14.395 8.8505 17.5515 12.0291 17.5515 15.9498ZM25.2863 15.9498C25.2863 19.6403 23.7079 22.6331 21.7609 22.6331C19.8138 22.6331 18.2354 19.6403 18.2354 15.9498C18.2354 12.2593 19.8136 9.26631 21.7606 9.26631C23.7077 9.26631 25.2863 12.2583 25.2863 15.9498ZM28.45 15.9498C28.45 19.2555 27.8949 21.937 27.2101 21.937C26.5252 21.937 25.9704 19.2563 25.9704 15.9498C25.9704 12.6433 26.5254 9.9625 27.2101 9.9625C27.8947 9.9625 28.45 12.643 28.45 15.9498Z" fill="white"/>
</svg>
