<svg width="48" height="48" viewBox="0 0 48 48" fill="none" xmlns="http://www.w3.org/2000/svg">
<path opacity="0.1" fill-rule="evenodd" clip-rule="evenodd" d="M0 24C0 10.7452 10.7452 0 24 0C37.2548 0 48 10.7452 48 24C48 37.2548 37.2548 48 24 48C10.7452 48 0 37.2548 0 24Z" fill="white"/>
<path fill-rule="evenodd" clip-rule="evenodd" d="M47.85 23.9244C47.85 10.7202 37.1298 0 23.9256 0C10.7213 0 0 10.7202 0 23.9244C0 37.1287 10.7202 47.8489 23.9244 47.8489C37.1287 47.8489 47.85 37.1287 47.85 23.9244ZM47.85 23.9244C47.85 10.7202 37.1298 0 23.9256 0C10.7213 0 0 10.7202 0 23.9244C0 37.1287 10.7202 47.8489 23.9244 47.8489C37.1287 47.8489 47.85 37.1287 47.85 23.9244ZM26.3272 23.9246C26.3272 29.8057 21.5921 34.5731 15.7513 34.5731C9.9105 34.5731 5.175 29.8045 5.175 23.9246C5.175 18.0446 9.91012 13.2758 15.7513 13.2758C21.5925 13.2758 26.3272 18.0436 26.3272 23.9246ZM37.9295 23.9246C37.9295 29.4604 35.5618 33.9497 32.6413 33.9497C29.7207 33.9497 27.3532 29.4604 27.3532 23.9246C27.3532 18.3889 29.7203 13.8995 32.6409 13.8995C35.5615 13.8995 37.9295 18.3875 37.9295 23.9246ZM42.675 23.9246C42.675 28.8833 41.8424 32.9055 40.8152 32.9055C39.7879 32.9055 38.9557 28.8844 38.9557 23.9246C38.9557 18.9649 39.7882 14.9438 40.8152 14.9438C41.8421 14.9438 42.675 18.9645 42.675 23.9246Z" fill="white"/>
</svg>
