<svg width="171" height="36" viewBox="0 0 171 36" fill="none" xmlns="http://www.w3.org/2000/svg">
<g filter="url(#filter0_f)">
<path fill-rule="evenodd" clip-rule="evenodd" d="M18.3071 8.66802C12.959 8.66812 8.62486 13.3025 8.62486 19.0214C8.62486 22.0989 9.87928 24.8626 11.8741 26.7622L16.1959 22.8667H11.8175C11.2603 22.8667 10.8172 22.3826 10.8172 21.7972C10.8172 21.2015 11.2698 20.7276 11.8175 20.7276H24.803C25.3602 20.7276 25.8033 21.2117 25.8033 21.7972C25.8033 22.3928 25.3507 22.8667 24.803 22.8667H20.9738L24.9364 26.5808C26.818 24.6922 27.9956 22.0074 27.9956 19.0278C27.9956 13.3093 23.6557 8.67431 18.3071 8.66802ZM8 19.0214C8 12.9337 12.6139 8 18.3072 8H18.3076C24.0004 8.0066 28.6205 12.9397 28.6205 19.0278C28.6205 22.3125 27.2754 25.2611 25.1479 27.2788L24.9418 27.4743L19.3132 22.1987H24.803C25.009 22.1987 25.1784 22.0202 25.1784 21.7972C25.1784 21.5767 25.0114 21.3957 24.803 21.3957H11.8175C11.6115 21.3957 11.4421 21.5741 11.4421 21.7972C11.4421 22.0176 11.6091 22.1987 11.8175 22.1987H17.9064L11.8713 27.6386L11.6699 27.4569C9.42533 25.4327 8 22.405 8 19.0214Z" fill="url(#paint0_linear)"/>
</g>
<path fill-rule="evenodd" clip-rule="evenodd" d="M18.3071 9.4195C12.8511 9.41956 8.42959 13.9241 8.42959 19.4825C8.42959 22.5057 9.73692 25.2174 11.8098 27.0651L16.4509 23.0794H11.7541C11.2477 23.0794 10.8447 22.6602 10.8447 22.153C10.8447 21.6372 11.2561 21.2266 11.7541 21.2266H24.8664C25.3728 21.2266 25.7758 21.6458 25.7758 22.153C25.7758 22.6688 25.3644 23.0794 24.8664 23.0794H20.7322L25.0031 26.8933C26.9614 25.0547 28.1909 22.4183 28.1909 19.4887C28.1909 13.9304 23.7635 9.42558 18.3071 9.4195ZM8 19.4825C8 13.6824 12.6139 8.98193 18.3072 8.98193H18.3075C24.0004 8.98822 28.6205 13.6884 28.6205 19.4887C28.6205 22.6182 27.2755 25.4273 25.1478 27.3499L25.0061 27.4779L19.5906 22.6418H24.8664C25.1294 22.6418 25.3462 22.4248 25.3462 22.153C25.3462 21.8849 25.1331 21.6642 24.8664 21.6642H11.7541C11.491 21.6642 11.2743 21.8812 11.2743 22.153C11.2743 22.4211 11.4874 22.6418 11.7541 22.6418H17.6269L11.8084 27.6386L11.6699 27.5196C9.42518 25.5908 8 22.7063 8 19.4825Z" fill="url(#paint1_linear)"/>
<path d="M51.0557 14.4695H48.5035L42.0698 19.8056V11.9277H40.4038V23.7109H42.0698V21.9266L45.8272 18.8125L50.3113 23.7109H52.509L47.0856 17.752L51.0557 14.4695Z" fill="url(#paint2_linear)"/>
<path d="M62.2675 14.4695H53.4057V16.0518H62.2675C63.2778 16.0518 64.093 16.843 64.093 17.8025V18.2906H56.2415C54.6641 18.2906 53.4057 19.5026 53.4057 21.0007C53.4057 22.4989 54.6641 23.7109 56.2415 23.7109H65.7768V17.8025C65.7768 15.9677 64.2171 14.4695 62.2675 14.4695ZM64.093 22.1117H56.2415C55.5857 22.1117 55.0717 21.6236 55.0717 21.0007C55.0717 20.3948 55.5857 19.8898 56.2415 19.8898H64.093V22.1117Z" fill="url(#paint3_linear)"/>
<path d="M77.968 18.2906H71.2685C70.6304 18.2906 70.1164 17.7856 70.1164 17.1628C70.1164 16.5568 70.6304 16.0518 71.2685 16.0518H80.8038V14.4695H71.2685C69.7088 14.4695 68.4327 15.6647 68.4327 17.1628C68.4327 18.6778 69.7088 19.8898 71.2685 19.8898H77.968C78.6238 19.8898 79.1377 20.3948 79.1377 21.0007C79.1377 21.6236 78.6238 22.1117 77.968 22.1117H68.4327V23.7109H77.968C79.5454 23.7109 80.8038 22.4989 80.8038 21.0007C80.8038 19.5026 79.5454 18.2906 77.968 18.2906Z" fill="url(#paint4_linear)"/>
<path d="M92.995 18.2906H86.2954C85.6574 18.2906 85.1434 17.7856 85.1434 17.1628C85.1434 16.5568 85.6574 16.0518 86.2954 16.0518H95.8307V14.4695H86.2954C84.7358 14.4695 83.4597 15.6647 83.4597 17.1628C83.4597 18.6778 84.7358 19.8898 86.2954 19.8898H92.995C93.6507 19.8898 94.1647 20.3948 94.1647 21.0007C94.1647 21.6236 93.6507 22.1117 92.995 22.1117H83.4597V23.7109H92.995C94.5724 23.7109 95.8307 22.4989 95.8307 21.0007C95.8307 19.5026 94.5724 18.2906 92.995 18.2906Z" fill="url(#paint5_linear)"/>
<path d="M107.348 14.4695H98.4866V16.0518H107.348C108.359 16.0518 109.174 16.843 109.174 17.8025V18.2906H101.322C99.745 18.2906 98.4866 19.5026 98.4866 21.0007C98.4866 22.4989 99.745 23.7109 101.322 23.7109H110.858V17.8025C110.858 15.9677 109.298 14.4695 107.348 14.4695ZM109.174 22.1117H101.322C100.667 22.1117 100.153 21.6236 100.153 21.0007C100.153 20.3948 100.667 19.8898 101.322 19.8898H109.174V22.1117Z" fill="url(#paint6_linear)"/>
<path d="M122.393 14.4695H113.514V23.7109H115.18V16.0518H122.393C123.386 16.0518 124.219 16.843 124.219 17.8025V23.7109H125.885V17.8025C125.885 15.9677 124.307 14.4695 122.393 14.4695Z" fill="url(#paint7_linear)"/>
<path d="M139.246 14.4695H132.05C130.118 14.4695 128.541 15.9677 128.541 17.8025V20.3611C128.541 22.2127 130.118 23.7109 132.05 23.7109H140.929V11.9277H139.246V14.4695ZM139.246 22.1117H132.05C131.04 22.1117 130.207 21.3206 130.207 20.3611V17.8025C130.207 16.843 131.04 16.0518 132.05 16.0518H139.246V22.1117Z" fill="url(#paint8_linear)"/>
<path d="M143.585 17.8025V23.7109H145.251V17.8025C145.251 16.843 146.066 16.0518 147.094 16.0518H155.974V14.4695H147.094C145.145 14.4695 143.585 15.9677 143.585 17.8025Z" fill="url(#paint9_linear)"/>
<path d="M167.491 14.4695H158.629V16.0518H167.491C168.501 16.0518 169.316 16.843 169.316 17.8025V18.2906H161.465C159.888 18.2906 158.629 19.5026 158.629 21.0007C158.629 22.4989 159.888 23.7109 161.465 23.7109H171V17.8025C171 15.9677 169.441 14.4695 167.491 14.4695ZM169.316 22.1117H161.465C160.809 22.1117 160.295 21.6236 160.295 21.0007C160.295 20.3948 160.809 19.8898 161.465 19.8898H169.316V22.1117Z" fill="url(#paint10_linear)"/>
<defs>
<filter id="filter0_f" x="0" y="0" width="36.6206" height="35.6387" filterUnits="userSpaceOnUse" color-interpolation-filters="sRGB">
<feFlood flood-opacity="0" result="BackgroundImageFix"/>
<feBlend mode="normal" in="SourceGraphic" in2="BackgroundImageFix" result="shape"/>
<feGaussianBlur stdDeviation="4" result="effect1_foregroundBlur"/>
</filter>
<linearGradient id="paint0_linear" x1="18.3259" y1="-0.414005" x2="18.3259" y2="33.8086" gradientUnits="userSpaceOnUse">
<stop stop-color="#FFBF00"/>
<stop offset="1" stop-color="#E843C4"/>
</linearGradient>
<linearGradient id="paint1_linear" x1="18.3102" y1="9.20071" x2="18.3102" y2="27.3524" gradientUnits="userSpaceOnUse">
<stop stop-color="#FFBF00"/>
<stop offset="1" stop-color="#E843C4"/>
</linearGradient>
<linearGradient id="paint2_linear" x1="109.821" y1="11.0861" x2="109.821" y2="27.9191" gradientUnits="userSpaceOnUse">
<stop stop-color="#E843C4"/>
<stop offset="1" stop-color="#FFBF00"/>
</linearGradient>
<linearGradient id="paint3_linear" x1="109.821" y1="11.0861" x2="109.821" y2="27.9191" gradientUnits="userSpaceOnUse">
<stop stop-color="#E843C4"/>
<stop offset="1" stop-color="#FFBF00"/>
</linearGradient>
<linearGradient id="paint4_linear" x1="109.821" y1="11.0861" x2="109.821" y2="27.9191" gradientUnits="userSpaceOnUse">
<stop stop-color="#E843C4"/>
<stop offset="1" stop-color="#FFBF00"/>
</linearGradient>
<linearGradient id="paint5_linear" x1="109.821" y1="11.0861" x2="109.821" y2="27.9191" gradientUnits="userSpaceOnUse">
<stop stop-color="#E843C4"/>
<stop offset="1" stop-color="#FFBF00"/>
</linearGradient>
<linearGradient id="paint6_linear" x1="109.821" y1="11.0861" x2="109.821" y2="27.9191" gradientUnits="userSpaceOnUse">
<stop stop-color="#E843C4"/>
<stop offset="1" stop-color="#FFBF00"/>
</linearGradient>
<linearGradient id="paint7_linear" x1="109.821" y1="11.0861" x2="109.821" y2="27.9191" gradientUnits="userSpaceOnUse">
<stop stop-color="#E843C4"/>
<stop offset="1" stop-color="#FFBF00"/>
</linearGradient>
<linearGradient id="paint8_linear" x1="109.821" y1="11.0861" x2="109.821" y2="27.9191" gradientUnits="userSpaceOnUse">
<stop stop-color="#E843C4"/>
<stop offset="1" stop-color="#FFBF00"/>
</linearGradient>
<linearGradient id="paint9_linear" x1="109.821" y1="11.0861" x2="109.821" y2="27.9191" gradientUnits="userSpaceOnUse">
<stop stop-color="#E843C4"/>
<stop offset="1" stop-color="#FFBF00"/>
</linearGradient>
<linearGradient id="paint10_linear" x1="109.821" y1="11.0861" x2="109.821" y2="27.9191" gradientUnits="userSpaceOnUse">
<stop stop-color="#E843C4"/>
<stop offset="1" stop-color="#FFBF00"/>
</linearGradient>
</defs>
</svg>
