<svg width="163" height="36" viewBox="0 0 171 36" fill="none" xmlns="http://www.w3.org/2000/svg">
<g filter="url(#filter0_f)">
<path fill-rule="evenodd" clip-rule="evenodd" d="M18.3071 8.66802C12.959 8.66812 8.62486 13.3025 8.62486 19.0214C8.62486 22.0989 9.87928 24.8626 11.8741 26.7622L16.1959 22.8667H11.8175C11.2603 22.8667 10.8172 22.3826 10.8172 21.7972C10.8172 21.2015 11.2698 20.7276 11.8175 20.7276H24.803C25.3602 20.7276 25.8033 21.2117 25.8033 21.7972C25.8033 22.3928 25.3507 22.8667 24.803 22.8667H20.9738L24.9364 26.5808C26.818 24.6922 27.9956 22.0074 27.9956 19.0278C27.9956 13.3093 23.6557 8.67431 18.3071 8.66802ZM8 19.0214C8 12.9337 12.6139 8 18.3072 8H18.3076C24.0004 8.0066 28.6205 12.9397 28.6205 19.0278C28.6205 22.3125 27.2754 25.2611 25.1479 27.2788L24.9418 27.4743L19.3132 22.1987H24.803C25.009 22.1987 25.1784 22.0202 25.1784 21.7972C25.1784 21.5767 25.0114 21.3957 24.803 21.3957H11.8175C11.6115 21.3957 11.4421 21.5741 11.4421 21.7972C11.4421 22.0176 11.6091 22.1987 11.8175 22.1987H17.9064L11.8713 27.6386L11.6699 27.4569C9.42533 25.4327 8 22.405 8 19.0214Z" fill="url(#paint0_linear)"/>
</g>
<path fill-rule="evenodd" clip-rule="evenodd" d="M18.3071 9.41901C12.8511 9.41907 8.42959 13.9236 8.42959 19.4821C8.42959 22.5052 9.73692 25.2169 11.8098 27.0646L16.4509 23.0789H11.7541C11.2477 23.0789 10.8447 22.6597 10.8447 22.1525C10.8447 21.6367 11.2561 21.2261 11.7541 21.2261H24.8664C25.3728 21.2261 25.7758 21.6453 25.7758 22.1525C25.7758 22.6683 25.3644 23.0789 24.8664 23.0789H20.7322L25.0031 26.8928C26.9614 25.0542 28.1909 22.4178 28.1909 19.4882C28.1909 13.9299 23.7635 9.42509 18.3071 9.41901ZM8 19.4821C8 13.682 12.6139 8.98145 18.3072 8.98145H18.3075C24.0004 8.98773 28.6205 13.6879 28.6205 19.4882C28.6205 22.6177 27.2755 25.4268 25.1478 27.3494L25.0061 27.4774L19.5906 22.6413H24.8664C25.1294 22.6413 25.3462 22.4243 25.3462 22.1525C25.3462 21.8844 25.1331 21.6637 24.8664 21.6637H11.7541C11.491 21.6637 11.2743 21.8807 11.2743 22.1525C11.2743 22.4206 11.4874 22.6413 11.7541 22.6413H17.6269L11.8084 27.6381L11.6699 27.5191C9.42518 25.5903 8 22.7058 8 19.4821Z" fill="url(#paint1_linear)"/>
<path d="M51.0562 14.4695H48.504L42.0703 19.8056V11.9277H40.4043V23.7109H42.0703V21.9266L45.8277 18.8125L50.3118 23.7109H52.5095L47.0861 17.752L51.0562 14.4695Z" fill="url(#paint2_linear)"/>
<path d="M62.268 14.4695H53.4062V16.0518H62.268C63.2782 16.0518 64.0935 16.843 64.0935 17.8025V18.2906H56.242C54.6646 18.2906 53.4062 19.5026 53.4062 21.0007C53.4062 22.4989 54.6646 23.7109 56.242 23.7109H65.7773V17.8025C65.7773 15.9677 64.2176 14.4695 62.268 14.4695ZM64.0935 22.1117H56.242C55.5862 22.1117 55.0722 21.6236 55.0722 21.0007C55.0722 20.3948 55.5862 19.8898 56.242 19.8898H64.0935V22.1117Z" fill="url(#paint3_linear)"/>
<path d="M77.9685 18.2906H71.269C70.6309 18.2906 70.1169 17.7856 70.1169 17.1628C70.1169 16.5568 70.6309 16.0518 71.269 16.0518H80.8042V14.4695H71.269C69.7093 14.4695 68.4332 15.6647 68.4332 17.1628C68.4332 18.6778 69.7093 19.8898 71.269 19.8898H77.9685C78.6242 19.8898 79.1382 20.3948 79.1382 21.0007C79.1382 21.6236 78.6242 22.1117 77.9685 22.1117H68.4332V23.7109H77.9685C79.5459 23.7109 80.8042 22.4989 80.8042 21.0007C80.8042 19.5026 79.5459 18.2906 77.9685 18.2906Z" fill="url(#paint4_linear)"/>
<path d="M92.9954 18.2906H86.2959C85.6579 18.2906 85.1439 17.7856 85.1439 17.1628C85.1439 16.5568 85.6579 16.0518 86.2959 16.0518H95.8312V14.4695H86.2959C84.7363 14.4695 83.4602 15.6647 83.4602 17.1628C83.4602 18.6778 84.7363 19.8898 86.2959 19.8898H92.9954C93.6512 19.8898 94.1652 20.3948 94.1652 21.0007C94.1652 21.6236 93.6512 22.1117 92.9954 22.1117H83.4602V23.7109H92.9954C94.5728 23.7109 95.8312 22.4989 95.8312 21.0007C95.8312 19.5026 94.5728 18.2906 92.9954 18.2906Z" fill="url(#paint5_linear)"/>
<path d="M107.349 14.4695H98.4871V16.0518H107.349C108.359 16.0518 109.174 16.843 109.174 17.8025V18.2906H101.323C99.7455 18.2906 98.4871 19.5026 98.4871 21.0007C98.4871 22.4989 99.7455 23.7109 101.323 23.7109H110.858V17.8025C110.858 15.9677 109.299 14.4695 107.349 14.4695ZM109.174 22.1117H101.323C100.667 22.1117 100.153 21.6236 100.153 21.0007C100.153 20.3948 100.667 19.8898 101.323 19.8898H109.174V22.1117Z" fill="url(#paint6_linear)"/>
<path d="M122.394 14.4695H113.514V23.7109H115.18V16.0518H122.394C123.386 16.0518 124.219 16.843 124.219 17.8025V23.7109H125.885V17.8025C125.885 15.9677 124.308 14.4695 122.394 14.4695Z" fill="url(#paint7_linear)"/>
<path d="M139.246 14.4695H132.05C130.118 14.4695 128.541 15.9677 128.541 17.8025V20.3611C128.541 22.2127 130.118 23.7109 132.05 23.7109H140.93V11.9277H139.246V14.4695ZM139.246 22.1117H132.05C131.04 22.1117 130.207 21.3206 130.207 20.3611V17.8025C130.207 16.843 131.04 16.0518 132.05 16.0518H139.246V22.1117Z" fill="url(#paint8_linear)"/>
<path d="M143.585 17.8025V23.7109H145.251V17.8025C145.251 16.843 146.067 16.0518 147.095 16.0518H155.974V14.4695H147.095C145.145 14.4695 143.585 15.9677 143.585 17.8025Z" fill="url(#paint9_linear)"/>
<path d="M167.491 14.4695H158.63V16.0518H167.491C168.502 16.0518 169.317 16.843 169.317 17.8025V18.2906H161.465C159.888 18.2906 158.63 19.5026 158.63 21.0007C158.63 22.4989 159.888 23.7109 161.465 23.7109H171.001V17.8025C171.001 15.9677 169.441 14.4695 167.491 14.4695ZM169.317 22.1117H161.465C160.81 22.1117 160.296 21.6236 160.296 21.0007C160.296 20.3948 160.81 19.8898 161.465 19.8898H169.317V22.1117Z" fill="url(#paint10_linear)"/>
<defs>
<filter id="filter0_f" x="0" y="0" width="36.6211" height="35.6387" filterUnits="userSpaceOnUse" color-interpolation-filters="sRGB">
<feFlood flood-opacity="0" result="BackgroundImageFix"/>
<feBlend mode="normal" in="SourceGraphic" in2="BackgroundImageFix" result="shape"/>
<feGaussianBlur stdDeviation="4" result="effect1_foregroundBlur"/>
</filter>
<linearGradient id="paint0_linear" x1="18.3259" y1="-0.414005" x2="18.3259" y2="33.8086" gradientUnits="userSpaceOnUse">
<stop stop-color="#FFBF00"/>
<stop offset="1" stop-color="#E843C4"/>
</linearGradient>
<linearGradient id="paint1_linear" x1="18.3102" y1="9.20023" x2="18.3102" y2="27.3519" gradientUnits="userSpaceOnUse">
<stop stop-color="#FFBF00"/>
<stop offset="1" stop-color="#E843C4"/>
</linearGradient>
<linearGradient id="paint2_linear" x1="109.822" y1="11.0861" x2="109.822" y2="27.9191" gradientUnits="userSpaceOnUse">
<stop stop-color="#E843C4"/>
<stop offset="1" stop-color="#FFBF00"/>
</linearGradient>
<linearGradient id="paint3_linear" x1="109.822" y1="11.0861" x2="109.822" y2="27.9191" gradientUnits="userSpaceOnUse">
<stop stop-color="#E843C4"/>
<stop offset="1" stop-color="#FFBF00"/>
</linearGradient>
<linearGradient id="paint4_linear" x1="109.822" y1="11.0861" x2="109.822" y2="27.9191" gradientUnits="userSpaceOnUse">
<stop stop-color="#E843C4"/>
<stop offset="1" stop-color="#FFBF00"/>
</linearGradient>
<linearGradient id="paint5_linear" x1="109.822" y1="11.0861" x2="109.822" y2="27.9191" gradientUnits="userSpaceOnUse">
<stop stop-color="#E843C4"/>
<stop offset="1" stop-color="#FFBF00"/>
</linearGradient>
<linearGradient id="paint6_linear" x1="109.822" y1="11.0861" x2="109.822" y2="27.9191" gradientUnits="userSpaceOnUse">
<stop stop-color="#E843C4"/>
<stop offset="1" stop-color="#FFBF00"/>
</linearGradient>
<linearGradient id="paint7_linear" x1="109.822" y1="11.0861" x2="109.822" y2="27.9191" gradientUnits="userSpaceOnUse">
<stop stop-color="#E843C4"/>
<stop offset="1" stop-color="#FFBF00"/>
</linearGradient>
<linearGradient id="paint8_linear" x1="109.822" y1="11.0861" x2="109.822" y2="27.9191" gradientUnits="userSpaceOnUse">
<stop stop-color="#E843C4"/>
<stop offset="1" stop-color="#FFBF00"/>
</linearGradient>
<linearGradient id="paint9_linear" x1="109.822" y1="11.0861" x2="109.822" y2="27.9191" gradientUnits="userSpaceOnUse">
<stop stop-color="#E843C4"/>
<stop offset="1" stop-color="#FFBF00"/>
</linearGradient>
<linearGradient id="paint10_linear" x1="109.822" y1="11.0861" x2="109.822" y2="27.9191" gradientUnits="userSpaceOnUse">
<stop stop-color="#E843C4"/>
<stop offset="1" stop-color="#FFBF00"/>
</linearGradient>
</defs>
</svg>
