<svg width="2021" height="1893" viewBox="0 0 2021 1893" fill="none" xmlns="http://www.w3.org/2000/svg">
<path d="M1818.13 0.448975L1548.52 0.235352L1608.28 190.274L1628.44 254.392L1575.56 293.917L1120.6 634.335L1522.61 936.081L2000 578.947L1818.13 0.448975Z" fill="#FFC800"/>
<path d="M424.051 293.228L371.253 253.571L391.484 189.559L451.248 0.212811L182.62 0L0 578.286L476.795 936.164L879.35 634.952L424.051 293.228Z" fill="#E1AA00"/>
<path d="M953.823 306.45L545.875 0.366211L477.028 218.351L953.823 576.23L954.082 576.017V306.397L953.823 306.45Z" fill="#E1AA00"/>
<path d="M1454.17 0.676758L1045.68 306.281V575.901L1522.76 218.981L1454.17 0.676758Z" fill="#FFC800"/>
<path d="M529.644 1011.18L478.035 1049.85L477.028 1052.99L953.823 1410.87L954.082 1410.66V693.623L529.644 1011.18Z" fill="#E1AA00"/>
<path d="M1521.6 1050.08L1469.73 1011.11L1046.22 693.238L1045.68 693.638V1410.67L1522.76 1053.75L1521.6 1050.08Z" fill="#FFC800"/>
<path d="M953.746 1525.48L900.95 1485.84L565.642 1234.22L477.028 1514.85L953.823 1872.73L954.082 1872.52V1525.21L953.746 1525.48Z" fill="#E1AA00"/>
<path d="M1434.41 1234.4L1098.22 1485.92L1045.68 1525.23V1872.54L1522.76 1515.62L1434.41 1234.4Z" fill="#FFC800"/>
</svg>
