<svg width="17" height="16" viewBox="0 0 17 16" fill="none" xmlns="http://www.w3.org/2000/svg">
<path d="M6.63708 12.1926C6.68238 12.1163 6.72768 12.04 6.77298 11.9613C6.7849 11.9422 6.79205 11.9208 6.79921 11.8969C6.99947 11.6156 7.25219 11.3653 7.49061 11.1245C7.80055 10.8098 8.12002 10.5046 8.45857 10.2161C8.65884 10.0445 8.85672 9.86803 9.05222 9.68922C9.0856 9.66061 9.11659 9.62962 9.14997 9.60101C9.15236 9.59624 9.14759 9.62008 9.14997 9.61531C9.15236 9.61054 9.18573 9.57955 9.1905 9.57478C9.56481 9.31252 9.75793 8.84285 9.90336 8.42324C10.0631 7.95595 10.1322 7.44336 10.1156 6.94984C10.0798 5.94134 9.64349 5.01391 8.96162 4.27959C7.55975 2.77043 5.16845 2.18393 3.27305 3.05176C2.68655 3.31878 2.11913 3.67164 1.72813 4.17708C1.44441 4.54423 1.27514 5.01868 1.14401 5.46928C1.13448 5.50504 1.13209 5.53604 1.13686 5.56703C1.05341 5.76492 0.98189 5.96518 0.929439 6.17261C0.850762 6.48493 0.800695 6.80679 0.774469 7.12865C0.722018 7.75329 0.769701 8.39224 0.919902 9.0002C0.972353 9.21239 1.03911 9.41981 1.11779 9.62485C1.68998 12.4095 3.82141 14.7579 6.76821 15.4565C7.23312 15.5661 7.69803 15.6305 8.16055 15.652L8.16294 15.6067C8.32506 15.6234 8.53009 15.7354 8.64215 15.6377C8.75182 15.6567 8.84719 15.6043 8.95686 15.6186C8.99262 15.6305 9.03792 15.621 9.07606 15.6186C9.16666 15.6305 9.22626 15.6019 9.31686 15.6043C9.40508 15.6067 9.49329 15.6019 9.5815 15.6114C9.69117 15.6234 9.90575 15.6043 9.96297 15.5018C10.0154 15.4064 9.88667 15.2681 9.808 15.1942C9.63157 15.0249 9.49329 14.8414 9.37885 14.6196C9.3264 14.5195 9.29302 14.4313 9.25249 14.3192C9.21434 14.2048 9.16666 14.0927 9.1452 13.9735C9.11898 13.8186 9.00454 13.7208 8.84242 13.759C8.635 13.8066 8.47764 13.809 8.26784 13.8496C8.26545 13.8496 8.21062 13.8496 8.20823 13.8496C8.03181 13.7733 7.85538 13.7947 7.6718 13.7852C7.63842 13.778 7.60505 13.7685 7.57167 13.759C7.41908 13.6493 7.25219 13.5611 7.07815 13.4848C7.03047 13.4371 6.98755 13.387 6.95417 13.3346C6.86358 13.1987 6.80636 13.0938 6.76344 12.9388C6.73722 12.8411 6.62993 12.7838 6.53218 12.7886C6.52741 12.6909 6.5298 12.5979 6.5441 12.5168C6.56079 12.3976 6.59178 12.2927 6.63708 12.1926Z" fill="#FFFAFA"/>
<path d="M16.2338 7.96068C16.2099 7.13815 16.1217 6.29416 15.9334 5.49071C15.8332 5.0711 15.6973 4.64195 15.4804 4.26525C15.3755 4.08406 15.2563 3.91479 15.1251 3.75266C14.9916 3.58816 14.8414 3.42365 14.6507 3.3259C14.6459 3.32352 14.6412 3.32113 14.634 3.31875C14.6149 3.28776 14.5959 3.25915 14.5768 3.23054C14.3312 2.86099 14.0523 2.51529 13.7399 2.20058C13.4276 1.88826 13.0819 1.58309 12.7005 1.35898C12.4978 1.23977 12.2928 1.12057 12.0806 1.01566C11.9995 0.975134 11.9161 0.939372 11.8326 0.905994C11.6777 0.822549 11.5155 0.753408 11.3487 0.703341V0.705726C11.2914 0.693805 11.2318 0.703341 11.1841 0.736719C11.0268 0.665195 10.8671 0.600823 10.7097 0.543604C10.004 0.293268 9.2506 0.178829 8.50198 0.16214C7.8082 0.145451 7.10249 0.205055 6.42301 0.35764C6.07731 0.436317 5.72922 0.555524 5.41451 0.724799C5.25716 0.808244 5.11411 0.905994 4.9806 1.02282C4.92576 1.0705 4.83278 1.05143 4.78987 1.10626C4.77079 1.1158 4.7541 1.12534 4.73503 1.13487C4.05317 1.49249 3.44521 1.99555 2.86586 2.50337C2.62029 2.72033 2.34612 2.95636 2.17446 3.24484C2.14347 3.27107 2.11247 3.29729 2.08386 3.32352C2.05764 3.3712 2.03141 3.41888 2.00518 3.46895C1.96227 3.5524 1.92889 3.63346 1.8526 3.69068C1.84068 3.71213 1.82637 3.73359 1.81445 3.75505C1.86452 3.82896 1.97658 3.86233 2.06479 3.78604C2.30797 3.56908 2.55592 3.36405 2.83248 3.19239C3.11143 3.01835 3.40945 2.87291 3.717 2.76086C4.33688 2.53437 4.9949 2.43662 5.65293 2.47476C6.93083 2.54629 8.13244 3.20431 8.97404 4.16751C9.21246 4.4393 9.45087 4.69679 9.6273 5.01388C9.71551 5.16885 9.78942 5.33335 9.85618 5.49786C9.90624 5.62183 9.93962 5.75296 9.99446 5.87455C9.96346 5.87455 9.93247 5.87217 9.90386 5.87217C9.92055 5.90078 9.93485 5.92939 9.94201 5.94608C9.99684 6.0629 10.0207 6.19403 10.0469 6.32039C10.0779 6.48251 10.1065 6.63986 10.1089 6.80675C10.1089 6.8449 10.1089 6.88305 10.1065 6.92358C10.159 7.29789 10.1327 7.6865 10.0398 8.04651C9.9277 8.48519 9.73935 8.91911 9.48663 9.30534C9.48663 9.30534 9.48902 9.30295 9.4914 9.30295C9.66306 9.1456 9.8371 8.99063 10.0111 8.83328C10.1876 8.67592 10.3759 8.53764 10.5547 8.38506C10.5714 8.37075 10.5953 8.39221 10.581 8.4089C10.4069 8.58294 10.2472 8.76891 10.0684 8.93818C9.89194 9.10745 9.71313 9.27911 9.53193 9.446C9.42465 9.54852 9.31498 9.64865 9.20769 9.75117C8.96689 9.97767 8.73086 10.2042 8.4996 10.4402C8.20873 10.7382 7.90595 11.0243 7.62223 11.3295C7.35759 11.6132 7.05957 11.9088 6.89268 12.2664C6.75917 12.5549 6.74963 12.9245 7.00951 13.1462C7.24077 13.3417 7.5817 13.3965 7.87257 13.4371C8.51152 13.5277 9.18862 13.4585 9.81088 13.2988C10.4665 13.1319 11.0626 12.7886 11.5561 12.3308C11.5775 12.3094 11.6109 12.3404 11.5918 12.3642C11.0769 12.9602 10.3735 13.4156 9.62968 13.6707C9.51047 13.7112 9.38888 13.747 9.26491 13.7756C9.28637 13.8424 9.28875 13.9187 9.30067 13.9854C9.31736 14.0736 9.33643 14.1595 9.36027 14.2453C9.40796 14.4122 9.4771 14.5695 9.55101 14.7269C9.6273 14.889 9.70121 15.0511 9.81088 15.1918C9.8681 15.2657 9.93009 15.3372 9.99446 15.4064C10.0231 15.4374 10.0564 15.4684 10.0874 15.5041C11.2128 15.2609 12.2642 14.765 13.1606 14.0617C13.3132 14.0093 13.4634 13.9353 13.5969 13.8591C13.8782 13.6993 14.1453 13.4991 14.3598 13.2559C14.696 12.8816 14.9869 12.4095 15.0727 11.9017C15.3779 11.463 15.6377 10.9933 15.8356 10.4879C16.1456 9.67488 16.2576 8.82613 16.2338 7.96068Z" fill="#EC3E3F"/>
<path d="M16.4581 7.08568C16.3413 6.05573 16.0075 5.02578 15.4949 4.10788C15.2374 3.65013 14.937 3.21621 14.6008 2.82044C14.2647 2.42706 13.888 2.0599 13.4755 1.73327C13.0678 1.41141 12.6268 1.12532 12.1642 0.889286C11.7113 0.65564 11.2249 0.462524 10.7171 0.314707C10.2188 0.171658 9.70381 0.0762927 9.18645 0.0309939L8.90035 0.0119207C8.86459 0.00953658 8.83359 0.00715244 8.80022 0.00715244L8.46167 0L8.07544 0.0119207L7.73212 0.0405305C7.72735 0.0405305 7.72258 0.0405305 7.71543 0.0405305C7.70351 0.0405305 7.69159 0.0429146 7.67967 0.0429146L7.63437 0.0476829C7.11939 0.102518 6.60919 0.209805 6.11328 0.364774C5.62215 0.519744 5.14294 0.722396 4.68518 0.972731C4.22742 1.22068 3.79589 1.51393 3.39774 1.84056C2.99959 2.17196 2.63005 2.5415 2.3058 2.94204L2.27481 2.98018C2.26766 2.98972 2.2605 2.99925 2.25335 3.00879C2.25097 3.01356 2.2462 3.01594 2.24382 3.0231L2.04116 3.29012L1.81944 3.6096L1.64063 3.89808C1.62155 3.92669 1.60486 3.9553 1.58818 3.98629L1.44751 4.23901C1.20433 4.69677 1.00406 5.18075 0.853858 5.67665C0.701273 6.18447 0.598755 6.69706 0.548688 7.2025C0.496237 7.71986 0.493852 8.24676 0.543919 8.76412C0.593987 9.28386 0.694121 9.79884 0.844322 10.2995C0.994523 10.7978 1.19479 11.2842 1.44036 11.7491C1.68831 12.214 1.97918 12.6527 2.30819 13.0556C2.63958 13.4633 3.01151 13.8376 3.41682 14.1714C4.22742 14.8413 5.18347 15.3539 6.18242 15.6567C6.9382 15.8856 7.7345 16 8.52127 16C8.78829 16 9.05293 15.9857 9.31519 15.9595C9.8397 15.9046 10.3618 15.7973 10.8673 15.6424C11.3679 15.4874 11.8615 15.28 12.3287 15.0273C13.2562 14.5218 14.093 13.8233 14.7487 13.0055C15.0729 12.6026 15.3638 12.1568 15.6117 11.6775C15.8525 11.2103 16.0504 10.7167 16.1982 10.2089C16.4891 9.21234 16.5773 8.12994 16.4581 7.08568ZM9.15068 9.60095C9.11731 9.62956 9.08631 9.66056 9.05293 9.68917C8.85744 9.86798 8.65955 10.0444 8.45928 10.2161C8.12312 10.5045 7.80126 10.8073 7.49132 11.1244C7.23383 11.3867 6.95966 11.6585 6.75223 11.966C6.72839 12.0042 6.70455 12.0399 6.68071 12.0781C6.67594 12.0852 6.67356 12.09 6.66879 12.0972C6.64733 12.1329 6.62826 12.1687 6.61157 12.2044C6.59965 12.2283 6.59011 12.2521 6.57819 12.276C6.53051 12.3904 6.49713 12.512 6.48521 12.636C6.48283 12.655 6.48044 12.6741 6.48044 12.6932C6.4709 12.8625 6.5019 13.0317 6.58296 13.1867C6.70694 13.4227 6.92866 13.5753 7.17423 13.6731C7.20045 13.685 7.22906 13.6945 7.25767 13.7041C7.33158 13.7303 7.40787 13.7518 7.48178 13.7684C7.58907 13.7923 7.69874 13.8114 7.80841 13.828C7.82033 13.8304 7.82987 13.8304 7.84179 13.8328C7.92285 13.8447 8.00391 13.8519 8.08497 13.8567C8.1255 13.859 8.16603 13.8614 8.20656 13.8638C8.46405 13.8733 8.72392 13.859 8.97903 13.8209C8.97903 13.8948 9.00287 13.9782 9.01956 14.045C9.04101 14.1356 9.06962 14.2262 9.10062 14.3144C9.16499 14.4956 9.24128 14.6792 9.34618 14.8389C9.44632 14.9963 9.57983 15.1274 9.70619 15.2633C9.77295 15.3348 9.84686 15.404 9.92315 15.466C9.92792 15.4707 9.93507 15.4755 9.93984 15.4803C9.7205 15.5232 9.49877 15.5566 9.27704 15.5804C8.28524 15.6853 7.25052 15.5923 6.28733 15.3086C5.76758 15.156 5.26214 14.9438 4.78293 14.684C2.80647 13.561 1.44513 11.5965 1.06843 9.38161C1.01121 9.04783 0.934919 8.71405 0.896773 8.37789C0.737035 7.038 1.03982 5.54314 1.6597 4.3463C1.67877 4.31054 1.70023 4.24139 1.73122 4.21279C2.02686 3.94576 2.32726 3.68827 2.66342 3.46893C3.08065 3.19714 3.53364 2.98257 4.01047 2.83952C4.48491 2.69885 4.97366 2.63448 5.46718 2.66309C5.975 2.69408 6.47806 2.82044 6.9525 3.00402C7.81079 3.33542 8.59279 3.88139 9.1483 4.62047C9.64659 5.28565 9.98275 6.08434 10.0543 6.91641C10.1306 7.80092 9.89931 8.65445 9.39864 9.37446C9.31996 9.44598 9.24128 9.51751 9.16261 9.58903L9.15068 9.60095ZM13.3897 13.84C13.0058 14.1594 12.5862 14.4432 12.1428 14.6863C11.6993 14.9271 11.232 15.125 10.7552 15.2752C10.524 15.3467 10.2879 15.4087 10.0471 15.4588C10.0281 15.4373 10.0066 15.4183 9.9899 15.3992C9.92553 15.3301 9.86593 15.2585 9.80632 15.1846C9.69665 15.044 9.62275 14.8795 9.54645 14.7197C9.47254 14.5624 9.4034 14.405 9.35572 14.2381C9.33188 14.1523 9.31042 14.0665 9.29612 13.9782C9.2842 13.9115 9.28181 13.8352 9.26035 13.7684C9.38433 13.7398 9.50592 13.7041 9.62513 13.6635C10.369 13.4084 11.0723 12.9531 11.5873 12.357C11.6087 12.3332 11.5754 12.3022 11.5515 12.3236C11.058 12.7814 10.462 13.1247 9.80632 13.2916C9.18406 13.449 8.50458 13.5205 7.86801 13.4299C7.57953 13.3894 7.23622 13.3345 7.00495 13.139C6.74508 12.9173 6.75462 12.5478 6.88813 12.2593C7.05264 11.904 7.35304 11.6084 7.61768 11.3223C7.90139 11.0171 8.20418 10.731 8.49504 10.433C8.72631 10.197 8.96234 9.9705 9.20314 9.744C9.31042 9.64149 9.42009 9.54135 9.52738 9.43883C9.70619 9.26956 9.885 9.10028 10.0638 8.93101C10.2426 8.75935 10.4024 8.57577 10.5764 8.40173C10.5931 8.38504 10.5669 8.36358 10.5502 8.37789C10.3714 8.53047 10.183 8.66875 10.0066 8.82611C9.90169 8.91909 9.79679 9.01445 9.69189 9.10982C10.0495 8.55431 10.2402 7.90583 10.2569 7.2335C10.2784 6.36328 9.98752 5.4883 9.51784 4.76352C9.00048 3.96483 8.26378 3.34496 7.40549 2.93727C6.43991 2.47951 5.35989 2.27447 4.30849 2.51051C3.73152 2.63925 3.18078 2.87766 2.68488 3.19714C2.47508 3.33065 2.26766 3.48085 2.07693 3.65013C2.20567 3.45701 2.34157 3.27343 2.48461 3.09462C2.80171 2.70362 3.15694 2.34123 3.54317 2.01937C3.92702 1.6999 4.34902 1.4138 4.79247 1.17062C5.2383 0.929817 5.70559 0.731933 6.18242 0.584116C6.66402 0.433914 7.15992 0.331396 7.66059 0.278945C8.65478 0.174043 9.6895 0.269408 10.6527 0.553122C11.6159 0.839219 12.5338 1.32082 13.311 1.95023C13.702 2.26732 14.062 2.62256 14.3839 3.00879C14.7034 3.39264 14.9895 3.81463 15.2303 4.25808C15.4711 4.70392 15.6689 5.17121 15.8168 5.64804C15.967 6.12725 16.0695 6.62554 16.1219 7.12383C16.2268 8.11802 16.1315 9.15035 15.8478 10.1135C15.564 11.0767 15.0801 11.9946 14.4506 12.7695C14.1335 13.1581 13.7759 13.5181 13.3897 13.84Z" fill="black"/>
<path d="M6.75678 8.9955C7.82465 8.9955 8.69033 8.12983 8.69033 7.06196C8.69033 5.99409 7.82465 5.12842 6.75678 5.12842C5.68892 5.12842 4.82324 5.99409 4.82324 7.06196C4.82324 8.12983 5.68892 8.9955 6.75678 8.9955Z" fill="black"/>
<path d="M5.96541 7.52189C6.3341 7.52189 6.63297 7.22301 6.63297 6.85433C6.63297 6.48564 6.3341 6.18677 5.96541 6.18677C5.59673 6.18677 5.29785 6.48564 5.29785 6.85433C5.29785 7.22301 5.59673 7.52189 5.96541 7.52189Z" fill="white"/>
<path d="M1.93354 9.31728C3.00141 9.31728 3.86708 8.4516 3.86708 7.38374C3.86708 6.31587 3.00141 5.4502 1.93354 5.4502C0.865676 5.4502 0 6.31587 0 7.38374C0 8.4516 0.865676 9.31728 1.93354 9.31728Z" fill="black"/>
<path d="M4.52284 8.75452C4.59198 8.9977 4.6039 9.27188 4.58483 9.5246C4.12707 9.6605 3.6717 9.66288 3.19726 9.58182C2.92785 9.53652 2.66798 9.45069 2.41049 9.35771C2.27936 9.31003 2.15062 9.26234 2.02426 9.20751C1.95989 9.1789 1.88836 9.14075 1.81445 9.11214C1.89313 9.10022 1.96942 9.07638 2.04572 9.05969C2.153 9.03347 2.26029 9.00724 2.36519 8.97386C2.59168 8.90711 2.81341 8.82128 3.03037 8.72591C3.2354 8.63531 3.43329 8.53041 3.6264 8.41359C3.80283 8.30868 3.98879 8.19901 4.14138 8.05835C4.15568 8.10603 4.19383 8.13703 4.22244 8.17756C4.26774 8.23716 4.31065 8.29676 4.35118 8.35875C4.42748 8.48273 4.4847 8.61862 4.52284 8.75452Z" fill="#EC3E3F"/>
<path d="M1.11092 7.7985C1.4796 7.7985 1.77848 7.49962 1.77848 7.13094C1.77848 6.76226 1.4796 6.46338 1.11092 6.46338C0.742236 6.46338 0.443359 6.76226 0.443359 7.13094C0.443359 7.49962 0.742236 7.7985 1.11092 7.7985Z" fill="white"/>
<path d="M4.6703 8.72115C4.60354 8.5781 4.52248 8.44459 4.43189 8.31346C4.39136 8.25386 4.34606 8.19425 4.29599 8.1418C4.26023 8.10127 4.22208 8.0512 4.16963 8.03452C4.17201 8.03213 4.1744 8.02975 4.17678 8.02736C4.18393 8.02021 4.1744 8.00829 4.16486 8.01306C4.11003 8.03928 4.05757 8.07028 4.00512 8.10127C3.86684 8.18233 3.73333 8.27055 3.59505 8.34684C3.39001 8.45651 3.18021 8.55664 2.96325 8.64247C2.7606 8.72592 2.5508 8.79744 2.34099 8.86181C2.23609 8.89519 2.1288 8.9238 2.0239 8.95003C1.91423 8.97625 1.79264 8.99056 1.68773 9.0287C1.67105 9.03586 1.65912 9.04778 1.65436 9.06447C1.65436 9.06685 1.65436 9.06685 1.65436 9.06923C1.64959 9.09308 1.66151 9.11692 1.68535 9.12645C1.77118 9.21467 1.919 9.2695 2.0239 9.32672C2.14549 9.39109 2.2647 9.45785 2.38867 9.51745C2.39821 9.52222 2.41013 9.52699 2.42205 9.53176C2.66762 9.64858 2.92987 9.74872 3.19213 9.82024C3.68088 9.95375 4.25308 9.97521 4.72752 9.77494C4.78951 9.77017 4.84673 9.72487 4.85388 9.63428C4.86818 9.47215 4.8515 9.31957 4.8205 9.15983C4.79428 9.00009 4.73944 8.8642 4.6703 8.72115ZM3.19928 9.58421C2.92987 9.53891 2.67 9.45308 2.41251 9.3601C2.28139 9.31242 2.15264 9.26473 2.02628 9.2099C1.96191 9.18129 1.89039 9.14314 1.81648 9.11453C1.89516 9.10261 1.97145 9.07877 2.04774 9.06208C2.15503 9.03586 2.26231 9.00963 2.36722 8.97625C2.59371 8.9095 2.81544 8.82367 3.03239 8.7283C3.23743 8.6377 3.43531 8.5328 3.62843 8.41598C3.80486 8.31108 3.99082 8.20141 4.1434 8.06074C4.15771 8.10842 4.19586 8.13942 4.22447 8.17995C4.26976 8.23955 4.31268 8.29916 4.35321 8.36114C4.4295 8.48035 4.48672 8.61625 4.52487 8.75214C4.59401 8.99533 4.60593 9.2695 4.58686 9.52222C4.12672 9.66289 3.67134 9.66289 3.19928 9.58421Z" fill="black"/>
<g opacity="0.3">
<path opacity="0.3" d="M16.0506 9.32213C16.3582 7.88211 16.239 6.44209 15.8313 5.03782C15.8075 4.95676 15.7765 4.86617 15.7002 4.83279C15.5214 4.75411 15.4188 5.03782 15.4212 5.23571C15.4355 7.15733 14.5129 9.3126 13.3399 10.7765C12.2312 12.164 10.6553 13.4324 8.81714 13.7161C8.61687 13.7471 8.4166 13.7733 8.21156 13.7638C8.0113 13.7566 7.81341 13.6827 7.62506 13.616C7.42241 13.5445 7.21499 13.4777 7.01949 13.3895C6.83353 13.3037 6.69763 13.1558 6.6571 12.9532C6.65233 12.9317 6.62134 12.9389 6.62134 12.9603C6.61895 13.0414 6.63088 13.1201 6.6571 13.1964C6.66187 13.2083 6.66425 13.2202 6.66902 13.2321C6.66664 13.2393 6.66425 13.2464 6.66187 13.256C6.6428 13.6184 6.8979 13.8663 7.20545 14.057C7.17685 14.057 7.14823 14.057 7.11963 14.057C5.07641 14.0451 3.05227 13.1177 1.71238 11.5752C1.64801 11.5012 1.49781 11.4416 1.47874 11.537C1.47158 11.5752 1.49781 11.6109 1.52165 11.6419C2.0104 12.2499 2.44432 12.977 2.99267 13.523C3.23347 13.8234 3.51003 14.0976 3.83666 14.3026C4.17521 14.5148 4.55667 14.6602 4.93098 14.7985C4.95959 14.82 4.9882 14.839 5.01681 14.8581C5.13602 14.9416 5.26238 15.0083 5.3935 15.0727C5.66768 15.2062 5.95378 15.3183 6.24226 15.416C6.81684 15.6091 7.41764 15.7093 8.02083 15.7546C10.7745 15.9667 13.1634 14.7628 14.7012 12.4621C15.3187 11.537 15.7836 10.5071 16.0268 9.42227C16.0363 9.38889 16.0435 9.35551 16.0506 9.32213Z" fill="black"/>
</g>
<path opacity="0.3" d="M2.06253 9.25518C2.16028 9.32671 2.24849 9.3124 2.33909 9.39346C2.46306 9.43876 2.57989 9.49598 2.69671 9.55559C2.9685 9.6581 3.25698 9.72009 3.54308 9.73916C3.946 9.76777 4.34177 9.69148 4.74231 9.64857C4.75899 9.55082 4.76853 9.45307 4.78999 9.3577C4.77568 9.31956 4.75661 9.28141 4.73515 9.24565C4.73039 9.23611 4.72085 9.23373 4.71131 9.23611C4.70654 9.22419 4.7137 9.07399 4.70893 9.06207C4.68509 9.00723 4.69224 9.00485 4.64694 9.01915C4.35607 9.10975 4.06759 9.21942 3.76481 9.26949C3.3452 9.34101 2.91843 9.30525 2.50121 9.23849C2.28425 9.20273 2.04345 9.15743 1.83603 9.06207C1.85272 9.09783 1.76212 9.09306 1.78358 9.12406C1.85749 9.16459 2.03392 9.25518 2.09829 9.3124C2.10544 9.31717 2.11259 9.32194 2.11736 9.32671C2.08637 9.27426 2.0816 9.27187 2.11736 9.31956C2.15074 9.36247 2.05537 9.25042 2.06253 9.25518Z" fill="black"/>
<g opacity="0.3">
<path opacity="0.3" d="M12.0211 7.73412C11.94 7.73412 11.859 7.73412 11.7803 7.73412C11.7588 7.73412 11.7374 7.73174 11.7159 7.72459C11.6349 7.69598 11.6158 7.64591 11.6635 7.57439C11.7946 7.3765 11.9257 7.17862 12.0568 6.97835C12.2571 6.67556 12.4574 6.37516 12.6577 6.07476C12.6696 6.05569 12.6815 6.039 12.6958 6.02231C12.7482 5.9627 12.8102 5.96032 12.8651 6.01754C12.908 6.06284 12.9366 6.11767 12.9724 6.17012C13.0272 6.25119 13.0796 6.33702 13.1345 6.41808C13.2012 6.51344 13.1989 6.61119 13.1369 6.70417C12.9366 7.00458 12.7339 7.30498 12.5289 7.603C12.4669 7.69359 12.3716 7.72697 12.269 7.73412C12.1856 7.73889 12.1021 7.73412 12.0211 7.73412Z" fill="black"/>
<path opacity="0.3" d="M13.2534 7.73402C13.1056 7.73402 12.9864 7.73402 12.8672 7.73402C12.8553 7.73402 12.841 7.7364 12.829 7.73402C12.7241 7.71018 12.6645 7.65296 12.7313 7.54329C12.86 7.33587 12.9936 7.12845 13.1247 6.92341C13.1891 6.82566 13.2868 6.82566 13.3488 6.92341C13.4823 7.13321 13.6111 7.3454 13.7422 7.55759C13.7946 7.64342 13.7636 7.71018 13.6611 7.72448C13.5181 7.74594 13.3726 7.72687 13.2534 7.73402Z" fill="black"/>
</g>
</svg>
