<svg width="396" height="262" viewBox="0 0 396 262" fill="none" xmlns="http://www.w3.org/2000/svg">
<g filter="url(#filter0_f)">
<path d="M355.682 64.857C355.957 64.4119 355.819 63.8283 355.374 63.5534C354.928 63.2786 354.345 63.4167 354.07 63.8618L355.682 64.857ZM331.242 101.363C331.362 101.872 331.873 102.187 332.382 102.067L340.677 100.104C341.186 99.9841 341.502 99.4738 341.381 98.9647C341.261 98.4557 340.75 98.1406 340.241 98.261L332.867 100.005L331.123 92.6313C331.003 92.1223 330.493 91.8072 329.984 91.9276C329.474 92.048 329.159 92.5583 329.28 93.0674L331.242 101.363ZM354.07 63.8618L331.358 100.647L332.97 101.643L355.682 64.857L354.07 63.8618Z" fill="#26DBDB"/>
</g>
<path d="M355.521 64.7575C355.741 64.4014 355.63 63.9345 355.274 63.7146C354.918 63.4948 354.451 63.6052 354.231 63.9613L355.521 64.7575ZM331.426 101.319C331.523 101.727 331.931 101.979 332.338 101.882L338.975 100.313C339.382 100.216 339.634 99.808 339.538 99.4008C339.441 98.9935 339.033 98.7415 338.626 98.8378L332.727 100.233L331.331 94.3341C331.235 93.9268 330.827 93.6748 330.42 93.7711C330.012 93.8674 329.76 94.2756 329.857 94.6829L331.426 101.319ZM354.231 63.9613L331.519 100.747L332.809 101.543L355.521 64.7575L354.231 63.9613Z" fill="#26DBDB"/>
<g filter="url(#filter1_f)">
<path d="M196.969 75.0099C197.352 75.3662 197.951 75.3445 198.307 74.9615C198.664 74.5785 198.642 73.9792 198.259 73.6229L196.969 75.0099ZM167.513 45.3997C166.99 45.4186 166.581 45.8577 166.6 46.3805L166.908 54.8995C166.927 55.4222 167.366 55.8307 167.889 55.8118C168.412 55.793 168.82 55.3539 168.801 54.8311L168.528 47.2587L176.1 46.9851C176.623 46.9662 177.031 46.5271 177.012 46.0043C176.994 45.4816 176.554 45.0731 176.032 45.092L167.513 45.3997ZM198.259 73.6229L168.192 45.6528L166.902 47.0398L196.969 75.0099L198.259 73.6229Z" fill="#26DBDB"/>
</g>
<path d="M197.098 74.8712C197.404 75.1562 197.884 75.1389 198.169 74.8325C198.454 74.5261 198.436 74.0466 198.13 73.7616L197.098 74.8712ZM167.52 45.5891C167.101 45.6042 166.775 45.9554 166.79 46.3737L167.036 53.1888C167.051 53.6071 167.402 53.9338 167.82 53.9187C168.239 53.9036 168.565 53.5523 168.55 53.1341L168.331 47.0762L174.389 46.8573C174.808 46.8422 175.134 46.4909 175.119 46.0727C175.104 45.6545 174.753 45.3277 174.335 45.3428L167.52 45.5891ZM198.13 73.7616L168.063 45.7915L167.031 46.9011L197.098 74.8712L198.13 73.7616Z" fill="#26DBDB"/>
<g filter="url(#filter2_f)">
<path d="M137.012 54.2828C137.263 53.8239 137.094 53.2483 136.635 52.9972C136.176 52.7461 135.601 52.9146 135.35 53.3735L137.012 54.2828ZM114.737 91.6213C114.884 92.1234 115.41 92.4112 115.912 92.2643L124.094 89.8699C124.596 89.723 124.883 89.1969 124.737 88.6948C124.59 88.1928 124.063 87.9049 123.561 88.0518L116.289 90.1802L114.161 82.9079C114.014 82.4058 113.488 82.1179 112.986 82.2649C112.484 82.4118 112.196 82.9379 112.343 83.44L114.737 91.6213ZM135.35 53.3735L114.815 90.9006L116.477 91.8099L137.012 54.2828L135.35 53.3735Z" fill="#26DBDB"/>
</g>
<path d="M136.845 54.1919C137.046 53.8247 136.912 53.3643 136.544 53.1634C136.177 52.9625 135.717 53.0973 135.516 53.4644L136.845 54.1919ZM114.919 91.5681C115.036 91.9697 115.457 92.2 115.859 92.0825L122.404 90.167C122.806 90.0494 123.036 89.6286 122.918 89.2269C122.801 88.8253 122.38 88.595 121.978 88.7125L116.161 90.4152L114.458 84.5973C114.34 84.1957 113.919 83.9654 113.518 84.0829C113.116 84.2005 112.886 84.6214 113.003 85.023L114.919 91.5681ZM135.516 53.4644L114.981 90.9915L116.311 91.719L136.845 54.1919L135.516 53.4644Z" fill="#26DBDB"/>
<g filter="url(#filter3_f)">
<path d="M81.585 102.923C81.9988 103.243 82.5937 103.167 82.9137 102.753C83.2338 102.34 83.1578 101.745 82.7441 101.425L81.585 102.923ZM48.208 75.061C47.6891 75.1272 47.3222 75.6016 47.3885 76.1205L48.4683 84.5764C48.5345 85.0953 49.0089 85.4622 49.5278 85.3959C50.0467 85.3297 50.4136 84.8553 50.3474 84.3364L49.3875 76.8201L56.9039 75.8602C57.4228 75.794 57.7897 75.3196 57.7234 74.8007C57.6572 74.2818 57.1828 73.9149 56.6639 73.9812L48.208 75.061ZM82.7441 101.425L48.9075 75.2513L47.7485 76.7497L81.585 102.923L82.7441 101.425Z" fill="#26DBDB"/>
</g>
<path d="M81.7009 102.773C82.032 103.029 82.5079 102.968 82.7639 102.637C83.02 102.306 82.9592 101.831 82.6282 101.574L81.7009 102.773ZM48.232 75.2489C47.8169 75.3019 47.5234 75.6814 47.5764 76.0965L48.4402 82.8612C48.4932 83.2763 48.8727 83.5698 49.2878 83.5168C49.703 83.4638 49.9965 83.0843 49.9435 82.6692L49.1756 76.6562L55.1887 75.8883C55.6038 75.8353 55.8974 75.4558 55.8444 75.0407C55.7913 74.6256 55.4118 74.332 54.9967 74.385L48.232 75.2489ZM82.6282 101.574L48.7916 75.4012L47.8644 76.5999L81.7009 102.773L82.6282 101.574Z" fill="#26DBDB"/>
<g filter="url(#filter4_f)">
<path d="M290.481 114.973C290.982 115.124 291.51 114.84 291.661 114.339C291.812 113.838 291.528 113.31 291.027 113.159L290.481 114.973ZM243.871 99.2586C243.41 99.5062 243.237 100.08 243.485 100.541L247.52 108.05C247.768 108.511 248.342 108.684 248.803 108.436C249.263 108.189 249.436 107.614 249.189 107.154L245.602 100.479L252.277 96.8922C252.737 96.6445 252.91 96.0703 252.663 95.6095C252.415 95.1487 251.841 94.9759 251.38 95.2235L243.871 99.2586ZM291.027 113.159L244.592 99.1859L244.046 101L290.481 114.973L291.027 113.159Z" fill="#26DBDB"/>
</g>
<path d="M290.536 114.792C290.936 114.913 291.359 114.685 291.48 114.285C291.6 113.884 291.373 113.461 290.972 113.341L290.536 114.792ZM243.96 99.4254C243.592 99.6235 243.454 100.083 243.652 100.452L246.88 106.459C247.078 106.827 247.537 106.966 247.906 106.768C248.275 106.57 248.413 106.11 248.215 105.741L245.345 100.402L250.685 97.5323C251.054 97.3342 251.192 96.8748 250.994 96.5062C250.796 96.1375 250.336 95.9993 249.968 96.1974L243.96 99.4254ZM290.972 113.341L244.537 99.3673L244.101 100.819L290.536 114.792L290.972 113.341Z" fill="#26DBDB"/>
<g filter="url(#filter5_f)">
<path d="M117.654 188.959C117.757 189.472 118.256 189.805 118.769 189.702C119.282 189.6 119.614 189.101 119.512 188.588L117.654 188.959ZM109.946 142.153C109.511 141.863 108.923 141.981 108.632 142.416L103.903 149.508C103.613 149.944 103.731 150.532 104.166 150.822C104.601 151.112 105.189 150.995 105.479 150.559L109.683 144.255L115.987 148.459C116.423 148.749 117.011 148.631 117.301 148.196C117.591 147.761 117.474 147.173 117.038 146.883L109.946 142.153ZM119.512 188.588L110.349 142.756L108.492 143.127L117.654 188.959L119.512 188.588Z" fill="#26DBDB"/>
</g>
<path d="M117.84 188.922C117.922 189.332 118.321 189.599 118.732 189.516C119.142 189.434 119.408 189.035 119.326 188.625L117.84 188.922ZM109.841 142.311C109.493 142.079 109.022 142.173 108.79 142.521L105.007 148.195C104.775 148.543 104.869 149.014 105.217 149.246C105.565 149.478 106.035 149.384 106.268 149.036L109.63 143.992L114.674 147.355C115.022 147.587 115.493 147.493 115.725 147.145C115.957 146.797 115.863 146.326 115.515 146.094L109.841 142.311ZM119.326 188.625L110.163 142.793L108.677 143.09L117.84 188.922L119.326 188.625Z" fill="#26DBDB"/>
<g filter="url(#filter6_f)">
<path d="M198.739 231.189C199.252 231.29 199.749 230.955 199.85 230.441C199.95 229.928 199.615 229.43 199.101 229.33L198.739 231.189ZM150.359 220.107C149.925 220.399 149.811 220.988 150.103 221.422L154.865 228.492C155.158 228.926 155.746 229.04 156.18 228.748C156.614 228.456 156.729 227.867 156.436 227.433L152.203 221.149L158.488 216.916C158.921 216.623 159.036 216.035 158.744 215.601C158.452 215.167 157.863 215.052 157.429 215.344L150.359 220.107ZM199.101 229.33L151.07 219.963L150.707 221.822L198.739 231.189L199.101 229.33Z" fill="#26DBDB"/>
</g>
<path d="M198.775 231.003C199.186 231.084 199.584 230.816 199.664 230.405C199.744 229.994 199.476 229.596 199.065 229.516L198.775 231.003ZM150.465 220.264C150.118 220.498 150.026 220.969 150.26 221.316L154.07 226.972C154.304 227.319 154.775 227.411 155.122 227.177C155.469 226.943 155.561 226.472 155.327 226.125L151.94 221.098L156.968 217.711C157.315 217.477 157.407 217.006 157.173 216.659C156.939 216.312 156.468 216.22 156.121 216.454L150.465 220.264ZM199.065 229.516L151.033 220.149L150.743 221.636L198.775 231.003L199.065 229.516Z" fill="#26DBDB"/>
<g filter="url(#filter7_f)">
<circle cx="28.1812" cy="60.7398" r="22.1812" stroke="#E843C4" stroke-width="2.19903"/>
</g>
<circle cx="28.1812" cy="60.7398" r="22.1812" stroke="#E843C4" stroke-width="1.09951"/>
<g filter="url(#filter8_f)">
<circle cx="218.969" cy="91.5562" r="22.1812" stroke="#E843C4" stroke-width="2.19903"/>
</g>
<circle cx="218.969" cy="91.5562" r="22.1812" stroke="#E843C4" stroke-width="1.09951"/>
<g filter="url(#filter9_f)">
<circle cx="367.818" cy="40.4312" r="22.1812" stroke="#E843C4" stroke-width="2.19903"/>
</g>
<circle cx="367.818" cy="40.4312" r="22.1812" stroke="#E843C4" stroke-width="1.09951"/>
<g filter="url(#filter10_f)">
<circle cx="225.164" cy="234.121" r="22.1812" stroke="#E843C4" stroke-width="2.19903"/>
</g>
<circle cx="225.164" cy="234.121" r="22.1812" stroke="#E843C4" stroke-width="1.09951"/>
<g filter="url(#filter11_f)">
<circle cx="317.976" cy="123.892" r="22.1812" stroke="#FFBF00" stroke-width="2.19903"/>
</g>
<circle cx="317.976" cy="123.892" r="22.1812" stroke="#FFBF00" stroke-width="1.09951"/>
<g filter="url(#filter12_f)">
<circle cx="146.877" cy="28.1812" r="22.1812" stroke="#FFBF00" stroke-width="2.19903"/>
</g>
<circle cx="146.877" cy="28.1812" r="22.1812" stroke="#FFBF00" stroke-width="1.09951"/>
<g filter="url(#filter13_f)">
<circle cx="102.516" cy="116.115" r="22.1812" stroke="#FFBF00" stroke-width="2.19903"/>
</g>
<circle cx="102.516" cy="116.115" r="22.1812" stroke="#FFBF00" stroke-width="1.09951"/>
<g filter="url(#filter14_f)">
<circle cx="124.697" cy="215.134" r="22.1812" stroke="#FFBF00" stroke-width="2.19903"/>
</g>
<circle cx="124.697" cy="215.134" r="22.1812" stroke="#FFBF00" stroke-width="1.09951"/>
<defs>
<filter id="filter0_f" x="321.185" y="55.3422" width="44.67" height="54.8189" filterUnits="userSpaceOnUse" color-interpolation-filters="sRGB">
<feFlood flood-opacity="0" result="BackgroundImageFix"/>
<feBlend mode="normal" in="SourceGraphic" in2="BackgroundImageFix" result="shape"/>
<feGaussianBlur stdDeviation="2.27321" result="effect1_foregroundBlur"/>
</filter>
<filter id="filter1_f" x="157.556" y="36.0473" width="50.0482" height="48.567" filterUnits="userSpaceOnUse" color-interpolation-filters="sRGB">
<feFlood flood-opacity="0" result="BackgroundImageFix"/>
<feBlend mode="normal" in="SourceGraphic" in2="BackgroundImageFix" result="shape"/>
<feGaussianBlur stdDeviation="2.27321" result="effect1_foregroundBlur"/>
</filter>
<filter id="filter2_f" x="104.526" y="45.102" width="42.7743" height="54.9781" filterUnits="userSpaceOnUse" color-interpolation-filters="sRGB">
<feFlood flood-opacity="0" result="BackgroundImageFix"/>
<feBlend mode="normal" in="SourceGraphic" in2="BackgroundImageFix" result="shape"/>
<feGaussianBlur stdDeviation="2.27321" result="effect1_foregroundBlur"/>
</filter>
<filter id="filter3_f" x="38.7646" y="65.3579" width="52.9629" height="47.4593" filterUnits="userSpaceOnUse" color-interpolation-filters="sRGB">
<feFlood flood-opacity="0" result="BackgroundImageFix"/>
<feBlend mode="normal" in="SourceGraphic" in2="BackgroundImageFix" result="shape"/>
<feGaussianBlur stdDeviation="2.27321" result="effect1_foregroundBlur"/>
</filter>
<filter id="filter4_f" x="236.856" y="88.5942" width="61.3614" height="36.9704" filterUnits="userSpaceOnUse" color-interpolation-filters="sRGB">
<feFlood flood-opacity="0" result="BackgroundImageFix"/>
<feBlend mode="normal" in="SourceGraphic" in2="BackgroundImageFix" result="shape"/>
<feGaussianBlur stdDeviation="2.27321" result="effect1_foregroundBlur"/>
</filter>
<filter id="filter5_f" x="97.8486" y="136.098" width="32.306" height="59.5171" filterUnits="userSpaceOnUse" color-interpolation-filters="sRGB">
<feFlood flood-opacity="0" result="BackgroundImageFix"/>
<feBlend mode="normal" in="SourceGraphic" in2="BackgroundImageFix" result="shape"/>
<feGaussianBlur stdDeviation="2.27321" result="effect1_foregroundBlur"/>
</filter>
<filter id="filter6_f" x="144.077" y="209.319" width="61.654" height="32.5146" filterUnits="userSpaceOnUse" color-interpolation-filters="sRGB">
<feFlood flood-opacity="0" result="BackgroundImageFix"/>
<feBlend mode="normal" in="SourceGraphic" in2="BackgroundImageFix" result="shape"/>
<feGaussianBlur stdDeviation="2.27321" result="effect1_foregroundBlur"/>
</filter>
<filter id="filter7_f" x="0.502337" y="33.0609" width="55.3575" height="55.3575" filterUnits="userSpaceOnUse" color-interpolation-filters="sRGB">
<feFlood flood-opacity="0" result="BackgroundImageFix"/>
<feBlend mode="normal" in="SourceGraphic" in2="BackgroundImageFix" result="shape"/>
<feGaussianBlur stdDeviation="2.19903" result="effect1_foregroundBlur"/>
</filter>
<filter id="filter8_f" x="191.29" y="63.8773" width="55.3575" height="55.3575" filterUnits="userSpaceOnUse" color-interpolation-filters="sRGB">
<feFlood flood-opacity="0" result="BackgroundImageFix"/>
<feBlend mode="normal" in="SourceGraphic" in2="BackgroundImageFix" result="shape"/>
<feGaussianBlur stdDeviation="2.19903" result="effect1_foregroundBlur"/>
</filter>
<filter id="filter9_f" x="340.14" y="12.7523" width="55.3575" height="55.3575" filterUnits="userSpaceOnUse" color-interpolation-filters="sRGB">
<feFlood flood-opacity="0" result="BackgroundImageFix"/>
<feBlend mode="normal" in="SourceGraphic" in2="BackgroundImageFix" result="shape"/>
<feGaussianBlur stdDeviation="2.19903" result="effect1_foregroundBlur"/>
</filter>
<filter id="filter10_f" x="197.485" y="206.442" width="55.3575" height="55.3575" filterUnits="userSpaceOnUse" color-interpolation-filters="sRGB">
<feFlood flood-opacity="0" result="BackgroundImageFix"/>
<feBlend mode="normal" in="SourceGraphic" in2="BackgroundImageFix" result="shape"/>
<feGaussianBlur stdDeviation="2.19903" result="effect1_foregroundBlur"/>
</filter>
<filter id="filter11_f" x="290.297" y="96.2133" width="55.3575" height="55.3575" filterUnits="userSpaceOnUse" color-interpolation-filters="sRGB">
<feFlood flood-opacity="0" result="BackgroundImageFix"/>
<feBlend mode="normal" in="SourceGraphic" in2="BackgroundImageFix" result="shape"/>
<feGaussianBlur stdDeviation="2.19903" result="effect1_foregroundBlur"/>
</filter>
<filter id="filter12_f" x="119.198" y="0.502337" width="55.3575" height="55.3575" filterUnits="userSpaceOnUse" color-interpolation-filters="sRGB">
<feFlood flood-opacity="0" result="BackgroundImageFix"/>
<feBlend mode="normal" in="SourceGraphic" in2="BackgroundImageFix" result="shape"/>
<feGaussianBlur stdDeviation="2.19903" result="effect1_foregroundBlur"/>
</filter>
<filter id="filter13_f" x="74.8373" y="88.4359" width="55.3575" height="55.3575" filterUnits="userSpaceOnUse" color-interpolation-filters="sRGB">
<feFlood flood-opacity="0" result="BackgroundImageFix"/>
<feBlend mode="normal" in="SourceGraphic" in2="BackgroundImageFix" result="shape"/>
<feGaussianBlur stdDeviation="2.19903" result="effect1_foregroundBlur"/>
</filter>
<filter id="filter14_f" x="97.018" y="187.455" width="55.3575" height="55.3575" filterUnits="userSpaceOnUse" color-interpolation-filters="sRGB">
<feFlood flood-opacity="0" result="BackgroundImageFix"/>
<feBlend mode="normal" in="SourceGraphic" in2="BackgroundImageFix" result="shape"/>
<feGaussianBlur stdDeviation="2.19903" result="effect1_foregroundBlur"/>
</filter>
</defs>
</svg>
