<svg width="360" height="312" viewBox="0 0 360 312" fill="none" xmlns="http://www.w3.org/2000/svg">
<g filter="url(#filter0_f)">
<path d="M204.474 195.378L228.358 219.262M292.885 106.131L276.036 89.2829L211.698 121.173M131.254 245.036L126.663 240.444L141.706 209.088" stroke="#F89B37" stroke-width="2.99999" stroke-linecap="square"/>
</g>
<path d="M204.477 195.377L228.362 219.262M292.889 106.129L276.041 89.281L212.444 120.888M131.11 244.888L126.833 240.611L141.875 209.254" stroke="#F89A38" stroke-width="0.999995" stroke-linecap="square"/>
<g filter="url(#filter1_f)">
<path d="M121.745 112.178C141.922 92.0011 173.138 89.5932 195.95 104.954M121.745 112.178C101.569 132.354 99.1611 163.571 114.522 186.382M121.745 112.178L86.2215 77.7764M66.317 184.577L83.1651 201.425L114.522 186.382M206.401 69.0055L210.993 73.5971L195.95 104.954M195.95 104.954C199.041 107.035 201.978 109.443 204.713 112.178C227.623 135.088 227.623 172.234 204.713 195.145C181.802 218.056 144.656 218.056 121.745 195.145C119.011 192.411 116.603 189.474 114.522 186.382" stroke="url(#paint0_linear)" stroke-width="2.99999" stroke-linecap="square"/>
</g>
<path d="M121.746 112.178C141.922 92.0011 173.138 89.5932 195.95 104.954M121.746 112.178C101.569 132.354 99.1611 163.571 114.522 186.382M121.746 112.178L86.2215 77.7764M66.317 184.577L83.1651 201.425L114.522 186.382M206.715 69.3198L210.993 73.5971L195.95 104.954M195.95 104.954C199.041 107.035 201.978 109.443 204.713 112.178C227.623 135.088 227.623 172.234 204.713 195.145C181.802 218.056 144.656 218.056 121.746 195.145C119.011 192.411 116.603 189.474 114.522 186.382" stroke="url(#paint1_linear)" stroke-width="0.999995" stroke-linecap="square"/>
<g filter="url(#filter2_f)">
<path d="M96.5558 51.5542C96.5558 58.3447 94.5421 64.9827 90.7696 70.6288C86.997 76.2749 81.6348 80.6755 75.3612 83.2741C69.0877 85.8727 62.1844 86.5526 55.5244 85.2279C48.8644 83.9031 42.7468 80.6332 37.9452 75.8316C33.1436 71.03 29.8736 64.9123 28.5489 58.2523C27.2241 51.5923 27.904 44.689 30.5026 38.4154C33.1012 32.1418 37.5018 26.7796 43.1479 23.007C48.794 19.2344 55.432 17.2208 62.2225 17.2208C66.7341 17.2102 71.2035 18.0911 75.3737 19.8128C79.544 21.5345 83.3331 24.063 86.5233 27.2533C89.7135 30.4435 92.2421 34.2326 93.9638 38.4029C95.6855 42.5732 96.5663 47.0425 96.5558 51.5542V51.5542Z" stroke="#EA49B8" stroke-width="2.99999"/>
<path d="M68.3349 64.9601H56.7749C52.9551 64.9175 49.203 65.9697 45.9624 67.9923C42.7217 70.0149 40.1281 72.9233 38.4883 76.3735C44.96 82.5562 53.5891 85.969 62.539 85.8856C71.4889 85.8022 80.0529 82.2291 86.4082 75.9268C84.7208 72.5931 82.1333 69.7987 78.939 67.8604C75.7446 65.922 72.0711 64.9173 68.3349 64.9601V64.9601ZM62.5549 34.8867C55.5483 34.8867 49.8883 40.2867 49.8883 46.8867C49.8883 53.4868 55.5549 58.8868 62.5549 58.8868C69.5549 58.8868 75.2216 53.4868 75.2216 46.8867C75.2216 40.2867 69.5549 34.8867 62.5549 34.8867Z" stroke="#EA49B8" stroke-width="2.99999"/>
</g>
<path d="M96.5558 51.5542C96.5558 58.3447 94.5421 64.9827 90.7696 70.6288C86.997 76.2749 81.6348 80.6755 75.3612 83.2741C69.0877 85.8727 62.1844 86.5526 55.5244 85.2279C48.8644 83.9031 42.7468 80.6332 37.9452 75.8316C33.1436 71.03 29.8736 64.9123 28.5489 58.2523C27.2241 51.5923 27.904 44.689 30.5026 38.4154C33.1012 32.1418 37.5018 26.7796 43.1479 23.007C48.794 19.2344 55.432 17.2208 62.2225 17.2208C66.7341 17.2102 71.2035 18.0911 75.3737 19.8128C79.544 21.5345 83.3331 24.063 86.5233 27.2533C89.7135 30.4435 92.2421 34.2326 93.9638 38.4029C95.6855 42.5732 96.5663 47.0425 96.5558 51.5542V51.5542Z" stroke="#EA49B8" stroke-width="0.999995"/>
<path d="M68.3349 64.9601H56.7749C52.9551 64.9175 49.203 65.9697 45.9624 67.9923C42.7217 70.0149 40.1281 72.9233 38.4883 76.3735C44.96 82.5562 53.5891 85.969 62.539 85.8856C71.4889 85.8022 80.0529 82.2291 86.4082 75.9268C84.7208 72.5931 82.1333 69.7987 78.939 67.8604C75.7446 65.922 72.0711 64.9173 68.3349 64.9601V64.9601ZM62.5549 34.8867C55.5483 34.8867 49.8883 40.2867 49.8883 46.8867C49.8883 53.4868 55.5549 58.8868 62.5549 58.8868C69.5549 58.8868 75.2216 53.4868 75.2216 46.8867C75.2216 40.2867 69.5549 34.8867 62.5549 34.8867Z" stroke="#EA49B8" stroke-width="0.999995"/>
<g filter="url(#filter3_f)">
<path d="M290.336 241.777C290.336 248.567 288.322 255.205 284.549 260.851C280.777 266.498 275.415 270.898 269.141 273.497C262.867 276.095 255.964 276.775 249.304 275.451C242.644 274.126 236.527 270.856 231.725 266.054C226.923 261.253 223.653 255.135 222.329 248.475C221.004 241.815 221.684 234.912 224.282 228.638C226.881 222.364 231.282 217.002 236.928 213.23C242.574 209.457 249.212 207.443 256.002 207.443C260.514 207.433 264.983 208.314 269.154 210.035C273.324 211.757 277.113 214.286 280.303 217.476C283.493 220.666 286.022 224.455 287.744 228.626C289.465 232.796 290.346 237.265 290.336 241.777V241.777Z" stroke="#FEB50E" stroke-width="2.99999"/>
<path d="M262.112 255.187H250.552C246.732 255.144 242.98 256.196 239.74 258.219C236.499 260.241 233.905 263.15 232.266 266.6C238.737 272.783 247.366 276.196 256.316 276.112C265.266 276.029 273.83 272.456 280.186 266.153C278.498 262.82 275.911 260.025 272.716 258.087C269.522 256.149 265.848 255.144 262.112 255.187V255.187ZM256.332 225.113C249.326 225.113 243.666 230.513 243.666 237.113C243.666 243.713 249.332 249.113 256.332 249.113C263.332 249.113 268.999 243.713 268.999 237.113C268.999 230.513 263.332 225.113 256.332 225.113Z" stroke="#FEB50E" stroke-width="2.99999"/>
</g>
<path d="M290.336 241.777C290.336 248.567 288.322 255.205 284.549 260.851C280.777 266.498 275.415 270.898 269.141 273.497C262.867 276.095 255.964 276.775 249.304 275.451C242.644 274.126 236.527 270.856 231.725 266.054C226.923 261.253 223.653 255.135 222.329 248.475C221.004 241.815 221.684 234.912 224.282 228.638C226.881 222.364 231.282 217.002 236.928 213.23C242.574 209.457 249.212 207.443 256.002 207.443C260.514 207.433 264.983 208.314 269.154 210.035C273.324 211.757 277.113 214.286 280.303 217.476C283.493 220.666 286.022 224.455 287.744 228.626C289.465 232.796 290.346 237.265 290.336 241.777V241.777Z" stroke="#FEB50E" stroke-width="0.999995"/>
<path d="M262.112 255.187H250.552C246.732 255.144 242.98 256.196 239.74 258.219C236.499 260.241 233.905 263.15 232.266 266.6C238.737 272.783 247.366 276.196 256.316 276.112C265.266 276.029 273.83 272.456 280.186 266.153C278.498 262.82 275.911 260.025 272.716 258.087C269.522 256.149 265.848 255.144 262.112 255.187V255.187ZM256.332 225.113C249.326 225.113 243.666 230.513 243.666 237.113C243.666 243.713 249.332 249.113 256.332 249.113C263.332 249.113 268.999 243.713 268.999 237.113C268.999 230.513 263.332 225.113 256.332 225.113Z" stroke="#FEB50E" stroke-width="0.999995"/>
<g filter="url(#filter4_f)">
<path d="M218.337 42.6675C218.337 49.458 216.323 56.096 212.55 61.7421C208.778 67.3882 203.416 71.7888 197.142 74.3874C190.868 76.986 183.965 77.6659 177.305 76.3412C170.645 75.0164 164.528 71.7465 159.726 66.9448C154.924 62.1432 151.654 56.0256 150.33 49.3656C149.005 42.7056 149.685 35.8023 152.283 29.5287C154.882 23.255 159.283 17.8929 164.929 14.1203C170.575 10.3477 177.213 8.33408 184.003 8.33408C188.515 8.32353 192.984 9.20439 197.154 10.9261C201.325 12.6477 205.114 15.1763 208.304 18.3666C211.494 21.5568 214.023 25.3459 215.745 29.5162C217.466 33.6865 218.347 38.1558 218.337 42.6675V42.6675Z" stroke="#F2786E" stroke-width="2.99999"/>
<path d="M190.115 56.0734H178.555C174.735 56.0308 170.983 57.083 167.743 59.1056C164.502 61.1282 161.908 64.0366 160.269 67.4867C166.74 73.6695 175.369 77.0823 184.319 76.9989C193.269 76.9154 201.833 73.3423 208.189 67.0401C206.501 63.7063 203.914 60.9119 200.719 58.9736C197.525 57.0353 193.851 56.0306 190.115 56.0734V56.0734ZM184.335 26C177.329 26 171.669 31.4 171.669 38C171.669 44.6 177.335 50 184.335 50C191.335 50 197.002 44.6 197.002 38C197.002 31.4 191.335 26 184.335 26Z" stroke="#F2786E" stroke-width="2.99999"/>
</g>
<path d="M218.337 42.6675C218.337 49.458 216.323 56.096 212.55 61.7421C208.778 67.3882 203.416 71.7888 197.142 74.3874C190.868 76.986 183.965 77.6659 177.305 76.3412C170.645 75.0164 164.528 71.7465 159.726 66.9448C154.924 62.1432 151.654 56.0256 150.33 49.3656C149.005 42.7056 149.685 35.8023 152.283 29.5287C154.882 23.255 159.283 17.8929 164.929 14.1203C170.575 10.3477 177.213 8.33408 184.003 8.33408C188.515 8.32353 192.984 9.20439 197.154 10.9261C201.325 12.6477 205.114 15.1763 208.304 18.3666C211.494 21.5568 214.023 25.3459 215.745 29.5162C217.466 33.6865 218.347 38.1558 218.337 42.6675V42.6675Z" stroke="#F2786E" stroke-width="0.999995"/>
<path d="M190.115 56.0734H178.555C174.735 56.0308 170.983 57.083 167.743 59.1056C164.502 61.1282 161.908 64.0366 160.269 67.4867C166.74 73.6695 175.369 77.0823 184.319 76.9989C193.269 76.9154 201.833 73.3423 208.189 67.0401C206.501 63.7063 203.914 60.9119 200.719 58.9736C197.525 57.0353 193.851 56.0306 190.115 56.0734V56.0734ZM184.335 26C177.329 26 171.669 31.4 171.669 38C171.669 44.6 177.335 50 184.335 50C191.335 50 197.002 44.6 197.002 38C197.002 31.4 191.335 26 184.335 26Z" stroke="#F2786E" stroke-width="0.999995"/>
<g filter="url(#filter5_f)">
<path d="M191.669 269.333C191.669 276.124 189.655 282.762 185.882 288.408C182.11 294.054 176.748 298.455 170.474 301.053C164.2 303.652 157.297 304.332 150.637 303.007C143.977 301.682 137.86 298.412 133.058 293.611C128.256 288.809 124.986 282.692 123.662 276.032C122.337 269.372 123.017 262.468 125.615 256.195C128.214 249.921 132.615 244.559 138.261 240.786C143.907 237.014 150.545 235 157.335 235C161.847 234.99 166.316 235.87 170.487 237.592C174.657 239.314 178.446 241.842 181.636 245.033C184.826 248.223 187.355 252.012 189.077 256.182C190.798 260.352 191.679 264.822 191.669 269.333V269.333Z" stroke="#F9A12E" stroke-width="2.99999"/>
<path d="M163.446 282.741H151.886C148.066 282.699 144.314 283.751 141.074 285.774C137.833 287.796 135.239 290.705 133.6 294.155C140.071 300.337 148.7 303.75 157.65 303.667C166.6 303.583 175.164 300.01 181.52 293.708C179.832 290.374 177.245 287.58 174.05 285.642C170.856 283.703 167.182 282.699 163.446 282.741V282.741ZM157.666 252.668C150.66 252.668 145 258.068 145 264.668C145 271.268 150.666 276.668 157.666 276.668C164.666 276.668 170.333 271.268 170.333 264.668C170.333 258.068 164.666 252.668 157.666 252.668Z" stroke="#F9A12E" stroke-width="2.99999"/>
</g>
<path d="M191.669 269.333C191.669 276.124 189.655 282.762 185.882 288.408C182.11 294.054 176.748 298.455 170.474 301.053C164.2 303.652 157.297 304.332 150.637 303.007C143.977 301.682 137.86 298.412 133.058 293.611C128.256 288.809 124.986 282.692 123.662 276.032C122.337 269.372 123.017 262.468 125.615 256.195C128.214 249.921 132.615 244.559 138.261 240.786C143.907 237.014 150.545 235 157.335 235C161.847 234.99 166.316 235.87 170.487 237.592C174.657 239.314 178.446 241.842 181.636 245.033C184.826 248.223 187.355 252.012 189.077 256.182C190.798 260.352 191.679 264.822 191.669 269.333V269.333Z" stroke="#F9A12E" stroke-width="0.999995"/>
<path d="M163.446 282.741H151.886C148.066 282.699 144.314 283.751 141.074 285.774C137.833 287.796 135.239 290.705 133.6 294.155C140.071 300.337 148.7 303.75 157.65 303.667C166.6 303.583 175.164 300.01 181.52 293.708C179.832 290.374 177.245 287.58 174.05 285.642C170.856 283.703 167.182 282.699 163.446 282.741V282.741ZM157.666 252.668C150.66 252.668 145 258.068 145 264.668C145 271.268 150.666 276.668 157.666 276.668C164.666 276.668 170.333 271.268 170.333 264.668C170.333 258.068 164.666 252.668 157.666 252.668Z" stroke="#F9A12E" stroke-width="0.999995"/>
<g filter="url(#filter6_f)">
<path d="M351.669 131.552C351.669 138.343 349.655 144.981 345.882 150.627C342.11 156.273 336.748 160.674 330.474 163.272C324.2 165.871 317.297 166.551 310.637 165.226C303.977 163.901 297.86 160.631 293.058 155.83C288.256 151.028 284.986 144.91 283.662 138.25C282.337 131.59 283.017 124.687 285.615 118.413C288.214 112.14 292.615 106.778 298.261 103.005C303.907 99.2325 310.545 97.2188 317.335 97.2188C321.847 97.2083 326.316 98.0892 330.487 99.8108C334.657 101.533 338.446 104.061 341.636 107.251C344.826 110.442 347.355 114.231 349.077 118.401C350.798 122.571 351.679 127.041 351.669 131.552V131.552Z" stroke="#F7963E" stroke-width="2.99999"/>
<path d="M323.446 144.964H311.886C308.066 144.921 304.314 145.974 301.074 147.996C297.833 150.019 295.239 152.927 293.6 156.377C300.071 162.56 308.7 165.973 317.65 165.889C326.6 165.806 335.164 162.233 341.52 155.931C339.832 152.597 337.245 149.803 334.05 147.864C330.856 145.926 327.182 144.921 323.446 144.964V144.964ZM317.666 114.891C310.66 114.891 305 120.291 305 126.891C305 133.491 310.666 138.891 317.666 138.891C324.666 138.891 330.333 133.491 330.333 126.891C330.333 120.291 324.666 114.891 317.666 114.891Z" stroke="#F7963E" stroke-width="2.99999"/>
</g>
<path d="M351.669 131.552C351.669 138.343 349.655 144.981 345.882 150.627C342.11 156.273 336.748 160.674 330.474 163.272C324.2 165.871 317.297 166.551 310.637 165.226C303.977 163.901 297.86 160.631 293.058 155.83C288.256 151.028 284.986 144.91 283.662 138.25C282.337 131.59 283.017 124.687 285.615 118.413C288.214 112.14 292.615 106.778 298.261 103.005C303.907 99.2325 310.545 97.2188 317.335 97.2188C321.847 97.2083 326.316 98.0892 330.487 99.8108C334.657 101.533 338.446 104.061 341.636 107.251C344.826 110.442 347.355 114.231 349.077 118.401C350.798 122.571 351.679 127.041 351.669 131.552V131.552Z" stroke="#F7963E" stroke-width="0.999995"/>
<path d="M323.446 144.964H311.886C308.066 144.921 304.314 145.974 301.074 147.996C297.833 150.019 295.239 152.927 293.6 156.377C300.071 162.56 308.7 165.973 317.65 165.889C326.6 165.806 335.164 162.233 341.52 155.931C339.832 152.597 337.245 149.803 334.05 147.864C330.856 145.926 327.182 144.921 323.446 144.964V144.964ZM317.666 114.891C310.66 114.891 305 120.291 305 126.891C305 133.491 310.666 138.891 317.666 138.891C324.666 138.891 330.333 133.491 330.333 126.891C330.333 120.291 324.666 114.891 317.666 114.891Z" stroke="#F7963E" stroke-width="0.999995"/>
<g filter="url(#filter7_f)">
<path d="M77.0025 159.111C77.0025 165.901 74.9889 172.539 71.2163 178.185C67.4437 183.832 62.0816 188.232 55.808 190.831C49.5344 193.429 42.6312 194.109 35.9712 192.785C29.3111 191.46 23.1935 188.19 18.3919 183.388C13.5903 178.587 10.3204 172.469 8.99566 165.809C7.6709 159.149 8.35081 152.246 10.9494 145.972C13.548 139.698 17.9486 134.336 23.5947 130.564C29.2408 126.791 35.8788 124.777 42.6692 124.777C47.1809 124.767 51.6502 125.648 55.8205 127.369C59.9908 129.091 63.7798 131.62 66.9701 134.81C70.1603 138 72.6889 141.789 74.4106 145.96C76.1322 150.13 77.0131 154.599 77.0025 159.111V159.111Z" stroke="#EE678A" stroke-width="2.99999"/>
<path d="M48.7822 172.519H37.2222C33.4024 172.476 29.6503 173.528 26.4096 175.551C23.169 177.574 20.5754 180.482 18.9355 183.932C25.4072 190.115 34.0363 193.528 42.9863 193.444C51.9362 193.361 60.5002 189.788 66.8555 183.485C65.1681 180.152 62.5806 177.357 59.3862 175.419C56.1919 173.481 52.5184 172.476 48.7822 172.519V172.519ZM43.0022 142.445C35.9955 142.445 30.3355 147.845 30.3355 154.445C30.3355 161.045 36.0022 166.445 43.0022 166.445C50.0022 166.445 55.6688 161.045 55.6688 154.445C55.6688 147.845 50.0022 142.445 43.0022 142.445Z" stroke="#EE678A" stroke-width="2.99999"/>
</g>
<path d="M77.0025 159.111C77.0025 165.901 74.9889 172.539 71.2163 178.185C67.4437 183.832 62.0816 188.232 55.808 190.831C49.5344 193.429 42.6312 194.109 35.9712 192.785C29.3111 191.46 23.1935 188.19 18.3919 183.388C13.5903 178.587 10.3204 172.469 8.99566 165.809C7.6709 159.149 8.35081 152.246 10.9494 145.972C13.548 139.698 17.9486 134.336 23.5947 130.564C29.2408 126.791 35.8788 124.777 42.6692 124.777C47.1809 124.767 51.6502 125.648 55.8205 127.369C59.9908 129.091 63.7798 131.62 66.9701 134.81C70.1603 138 72.6889 141.789 74.4106 145.96C76.1322 150.13 77.0131 154.599 77.0025 159.111V159.111Z" stroke="#F17770" stroke-width="0.999995"/>
<path d="M48.7822 172.519H37.2222C33.4024 172.476 29.6503 173.528 26.4096 175.551C23.169 177.574 20.5754 180.482 18.9355 183.932C25.4072 190.115 34.0363 193.528 42.9863 193.444C51.9362 193.361 60.5002 189.788 66.8555 183.485C65.1681 180.152 62.5806 177.357 59.3862 175.419C56.1919 173.481 52.5184 172.476 48.7822 172.519V172.519ZM43.0022 142.445C35.9955 142.445 30.3355 147.845 30.3355 154.445C30.3355 161.045 36.0022 166.445 43.0022 166.445C50.0022 166.445 55.6688 161.045 55.6688 154.445C55.6688 147.845 50.0022 142.445 43.0022 142.445Z" stroke="#F17770" stroke-width="0.999995"/>
<g filter="url(#filter8_f)">
<path d="M163.4 175.335C163.084 175.335 162.83 175.24 162.639 175.05C162.447 174.86 162.351 174.607 162.349 174.29L162.329 170.964C160.174 170.806 158.303 170.315 156.714 169.491C155.125 168.668 153.9 167.654 153.037 166.451C152.207 165.216 151.755 163.901 151.684 162.507C151.682 162.254 151.776 162.032 151.965 161.842C152.154 161.652 152.391 161.557 152.676 161.557H153.626C154.196 161.557 154.546 161.874 154.677 162.507C154.908 164.028 155.787 165.358 157.314 166.498C158.841 167.639 161.03 168.209 163.88 168.209C166.889 168.209 169.119 167.67 170.57 166.593C172.052 165.485 172.787 163.949 172.775 161.985C172.768 160.781 172.398 159.799 171.665 159.039C170.963 158.247 169.93 157.566 168.565 156.996C167.199 156.395 165.136 155.65 162.375 154.763C159.931 153.972 158.01 153.196 156.612 152.435C155.246 151.675 154.226 150.741 153.555 149.632C152.883 148.524 152.542 147.114 152.532 145.404C152.518 143.092 153.346 141.16 155.015 139.608C156.716 138.024 159.086 137.121 162.126 136.9L162.106 133.621C162.104 133.305 162.198 133.051 162.386 132.861C162.575 132.671 162.828 132.576 163.145 132.576H164.048C164.364 132.576 164.618 132.671 164.809 132.861C165.001 133.051 165.097 133.305 165.099 133.621L165.119 136.947C167.116 137.137 168.829 137.66 170.259 138.515C171.69 139.37 172.773 140.399 173.509 141.603C174.244 142.775 174.647 143.963 174.718 145.166C174.719 145.42 174.626 145.641 174.437 145.831C174.279 146.022 174.042 146.117 173.726 146.117H172.775C172.554 146.117 172.332 146.053 172.109 145.926C171.887 145.768 171.758 145.515 171.725 145.166C171.525 143.583 170.662 142.284 169.136 141.271C167.641 140.225 165.753 139.703 163.473 139.703C161.034 139.703 159.089 140.178 157.637 141.128C156.218 142.078 155.513 143.503 155.525 145.404C155.532 146.639 155.855 147.669 156.493 148.492C157.163 149.284 158.149 149.981 159.452 150.582C160.754 151.153 162.674 151.849 165.213 152.673C167.815 153.496 169.847 154.288 171.308 155.048C172.77 155.809 173.868 156.727 174.603 157.804C175.37 158.881 175.758 160.275 175.768 161.985C175.784 164.645 174.863 166.768 173.003 168.351C171.176 169.903 168.615 170.79 165.323 171.012L165.342 174.29C165.344 174.607 165.25 174.86 165.062 175.05C164.873 175.24 164.62 175.335 164.303 175.335H163.4Z" fill="#FEBD02"/>
</g>
<path d="M163.4 175.335C163.084 175.335 162.83 175.24 162.639 175.05C162.447 174.86 162.351 174.607 162.349 174.29L162.329 170.964C160.174 170.806 158.303 170.315 156.714 169.491C155.125 168.668 153.9 167.654 153.037 166.451C152.207 165.216 151.755 163.901 151.684 162.507C151.682 162.254 151.776 162.032 151.965 161.842C152.154 161.652 152.391 161.557 152.676 161.557H153.626C154.196 161.557 154.546 161.874 154.677 162.507C154.908 164.028 155.787 165.358 157.314 166.498C158.841 167.639 161.03 168.209 163.88 168.209C166.889 168.209 169.119 167.67 170.57 166.593C172.052 165.485 172.787 163.949 172.775 161.985C172.768 160.781 172.398 159.799 171.665 159.039C170.963 158.247 169.93 157.566 168.565 156.996C167.199 156.395 165.136 155.65 162.375 154.763C159.931 153.972 158.01 153.196 156.612 152.435C155.246 151.675 154.226 150.741 153.555 149.632C152.883 148.524 152.542 147.114 152.532 145.404C152.518 143.092 153.346 141.16 155.015 139.608C156.716 138.024 159.086 137.121 162.126 136.9L162.106 133.621C162.104 133.305 162.198 133.051 162.386 132.861C162.575 132.671 162.828 132.576 163.145 132.576H164.048C164.364 132.576 164.618 132.671 164.809 132.861C165.001 133.051 165.097 133.305 165.099 133.621L165.119 136.947C167.116 137.137 168.829 137.66 170.259 138.515C171.69 139.37 172.773 140.399 173.509 141.603C174.244 142.775 174.647 143.963 174.718 145.166C174.719 145.42 174.626 145.641 174.437 145.831C174.279 146.022 174.042 146.117 173.726 146.117H172.775C172.554 146.117 172.332 146.053 172.109 145.926C171.887 145.768 171.758 145.515 171.725 145.166C171.525 143.583 170.662 142.284 169.136 141.271C167.641 140.225 165.753 139.703 163.473 139.703C161.034 139.703 159.089 140.178 157.637 141.128C156.218 142.078 155.513 143.503 155.525 145.404C155.532 146.639 155.855 147.669 156.493 148.492C157.163 149.284 158.149 149.981 159.452 150.582C160.754 151.153 162.674 151.849 165.213 152.673C167.815 153.496 169.847 154.288 171.308 155.048C172.77 155.809 173.868 156.727 174.603 157.804C175.37 158.881 175.758 160.275 175.768 161.985C175.784 164.645 174.863 166.768 173.003 168.351C171.176 169.903 168.615 170.79 165.323 171.012L165.342 174.29C165.344 174.607 165.25 174.86 165.062 175.05C164.873 175.24 164.62 175.335 164.303 175.335H163.4Z" fill="#FEBD02"/>
<defs>
<filter id="filter0_f" x="119.851" y="82.461" width="180.155" height="169.696" filterUnits="userSpaceOnUse" color-interpolation-filters="sRGB">
<feFlood flood-opacity="0" result="BackgroundImageFix"/>
<feBlend mode="normal" in="SourceGraphic" in2="BackgroundImageFix" result="shape"/>
<feGaussianBlur stdDeviation="2.49999" result="effect1_foregroundBlur"/>
</filter>
<filter id="filter1_f" x="59.1958" y="61.8848" width="169.2" height="156.944" filterUnits="userSpaceOnUse" color-interpolation-filters="sRGB">
<feFlood flood-opacity="0" result="BackgroundImageFix"/>
<feBlend mode="normal" in="SourceGraphic" in2="BackgroundImageFix" result="shape"/>
<feGaussianBlur stdDeviation="2.49999" result="effect1_foregroundBlur"/>
</filter>
<filter id="filter2_f" x="20.3892" y="9.72073" width="83.6666" height="83.6668" filterUnits="userSpaceOnUse" color-interpolation-filters="sRGB">
<feFlood flood-opacity="0" result="BackgroundImageFix"/>
<feBlend mode="normal" in="SourceGraphic" in2="BackgroundImageFix" result="shape"/>
<feGaussianBlur stdDeviation="2.99999" result="effect1_foregroundBlur"/>
</filter>
<filter id="filter3_f" x="214.169" y="199.943" width="83.6666" height="83.6702" filterUnits="userSpaceOnUse" color-interpolation-filters="sRGB">
<feFlood flood-opacity="0" result="BackgroundImageFix"/>
<feBlend mode="normal" in="SourceGraphic" in2="BackgroundImageFix" result="shape"/>
<feGaussianBlur stdDeviation="2.99999" result="effect1_foregroundBlur"/>
</filter>
<filter id="filter4_f" x="142.17" y="0.834011" width="83.6666" height="83.6668" filterUnits="userSpaceOnUse" color-interpolation-filters="sRGB">
<feFlood flood-opacity="0" result="BackgroundImageFix"/>
<feBlend mode="normal" in="SourceGraphic" in2="BackgroundImageFix" result="shape"/>
<feGaussianBlur stdDeviation="2.99999" result="effect1_foregroundBlur"/>
</filter>
<filter id="filter5_f" x="115.502" y="227.5" width="83.6666" height="83.6683" filterUnits="userSpaceOnUse" color-interpolation-filters="sRGB">
<feFlood flood-opacity="0" result="BackgroundImageFix"/>
<feBlend mode="normal" in="SourceGraphic" in2="BackgroundImageFix" result="shape"/>
<feGaussianBlur stdDeviation="2.99999" result="effect1_foregroundBlur"/>
</filter>
<filter id="filter6_f" x="275.502" y="89.7188" width="83.6666" height="83.6722" filterUnits="userSpaceOnUse" color-interpolation-filters="sRGB">
<feFlood flood-opacity="0" result="BackgroundImageFix"/>
<feBlend mode="normal" in="SourceGraphic" in2="BackgroundImageFix" result="shape"/>
<feGaussianBlur stdDeviation="2.99999" result="effect1_foregroundBlur"/>
</filter>
<filter id="filter7_f" x="0.835964" y="117.277" width="83.6666" height="83.6683" filterUnits="userSpaceOnUse" color-interpolation-filters="sRGB">
<feFlood flood-opacity="0" result="BackgroundImageFix"/>
<feBlend mode="normal" in="SourceGraphic" in2="BackgroundImageFix" result="shape"/>
<feGaussianBlur stdDeviation="2.99999" result="effect1_foregroundBlur"/>
</filter>
<filter id="filter8_f" x="143.684" y="124.576" width="40.085" height="58.759" filterUnits="userSpaceOnUse" color-interpolation-filters="sRGB">
<feFlood flood-opacity="0" result="BackgroundImageFix"/>
<feBlend mode="normal" in="SourceGraphic" in2="BackgroundImageFix" result="shape"/>
<feGaussianBlur stdDeviation="3.99998" result="effect1_foregroundBlur"/>
</filter>
<linearGradient id="paint0_linear" x1="204.721" y1="195.184" x2="86.7791" y2="77.2428" gradientUnits="userSpaceOnUse">
<stop stop-color="#FFBF00"/>
<stop offset="1" stop-color="#E843C4"/>
</linearGradient>
<linearGradient id="paint1_linear" x1="204.721" y1="195.184" x2="86.7791" y2="77.2428" gradientUnits="userSpaceOnUse">
<stop stop-color="#FFBF00"/>
<stop offset="1" stop-color="#E843C4"/>
</linearGradient>
</defs>
</svg>
