<svg width="26" height="19" viewBox="0 0 26 19" fill="none" xmlns="http://www.w3.org/2000/svg">
<path d="M12.9515 10.8333C14.4476 10.8333 15.8017 10.2267 16.7822 9.24625C17.7615 8.26692 18.3682 6.91275 18.3682 5.41667C18.3682 3.92058 17.7615 2.56642 16.7822 1.58708C15.8017 0.606667 14.4476 0 12.9515 0C11.4554 0 10.1012 0.606667 9.12083 1.58708C8.1415 2.56642 7.53483 3.92058 7.53483 5.41667C7.53483 6.91275 8.1415 8.26692 9.12083 9.24625C9.62329 9.75012 10.2204 10.1497 10.8778 10.4221C11.5352 10.6944 12.2399 10.8342 12.9515 10.8333ZM21.6182 11.9167C21.974 11.9174 22.3265 11.8478 22.6554 11.712C22.9844 11.5761 23.2832 11.3766 23.5348 11.125C23.7865 10.8734 23.9859 10.5745 24.1218 10.2456C24.2576 9.9167 24.3272 9.5642 24.3265 9.20833C24.3265 8.46083 24.0242 7.78375 23.5335 7.293C23.2822 7.04114 22.9837 6.84142 22.655 6.70533C22.3263 6.56924 21.9739 6.49946 21.6182 6.5C21.2623 6.49929 20.9098 6.56885 20.5809 6.70471C20.252 6.84056 19.9531 7.04003 19.7015 7.29166C19.4499 7.54329 19.2504 7.84214 19.1145 8.17105C18.9787 8.49997 18.9091 8.85247 18.9098 9.20833C18.9093 9.56416 18.9789 9.91659 19.1148 10.2454C19.2507 10.5743 19.4502 10.8731 19.7018 11.1247C19.9534 11.3763 20.2522 11.5758 20.5811 11.7117C20.9099 11.8476 21.2623 11.9172 21.6182 11.9167ZM21.6182 12.5558C20.1762 12.5558 19.0918 12.9957 18.4581 13.6045C17.2502 12.6111 15.3402 11.9167 12.9515 11.9167C10.4967 11.9167 8.62358 12.6187 7.43516 13.611C6.7895 12.9989 5.69316 12.5558 4.28483 12.5558C1.9145 12.5558 0.493164 13.7367 0.493164 14.9197C0.493164 15.5101 1.9145 16.1027 4.28483 16.1027C4.93916 16.1027 5.52633 16.0474 6.04308 15.9586L5.99975 16.2511C5.99975 17.3344 8.60625 18.4177 12.9515 18.4177C17.027 18.4177 19.9032 17.3344 19.9032 16.2511L19.8816 15.9748C20.3832 16.0539 20.9595 16.1027 21.6182 16.1027C23.8401 16.1027 25.4098 15.5101 25.4098 14.9197C25.4098 13.7367 23.9224 12.5558 21.6182 12.5558ZM4.28483 11.9167C5.03233 11.9167 5.70941 11.6144 6.20016 11.1237C6.45202 10.8724 6.65174 10.5738 6.78783 10.2451C6.92392 9.91645 6.9937 9.56409 6.99316 9.20833C6.99388 8.85247 6.92431 8.49997 6.78846 8.17105C6.6526 7.84214 6.45314 7.54329 6.2015 7.29166C5.94987 7.04003 5.65102 6.84056 5.32211 6.70471C4.9932 6.56885 4.64069 6.49929 4.28483 6.5C3.92901 6.49943 3.57657 6.56909 3.24772 6.705C2.91887 6.8409 2.62008 7.04037 2.36848 7.29198C2.11687 7.54358 1.9174 7.84238 1.78149 8.17122C1.64559 8.50007 1.57593 8.85251 1.5765 9.20833C1.57578 9.5642 1.64535 9.9167 1.7812 10.2456C1.91706 10.5745 2.11652 10.8734 2.36816 11.125C2.61979 11.3766 2.91864 11.5761 3.24755 11.712C3.57646 11.8478 3.92897 11.9174 4.28483 11.9167Z" fill="url(#paint0_linear_5582_16473)"/>
<defs>
<linearGradient id="paint0_linear_5582_16473" x1="12.9515" y1="0" x2="12.9515" y2="18.4177" gradientUnits="userSpaceOnUse">
<stop stop-color="#FFBF00"/>
<stop offset="1" stop-color="#E843C4"/>
</linearGradient>
</defs>
</svg>
