<svg width="15" height="19" viewBox="0 0 15 19" fill="none" xmlns="http://www.w3.org/2000/svg">
<path d="M6.22614 18.3424C6.07903 18.3424 5.95198 18.2889 5.84498 18.1817C5.73799 18.0746 5.6845 17.9473 5.6845 17.8C5.6845 17.0052 5.09147 16.3526 4.3293 16.1273C3.43204 15.862 2.70017 15.4686 2.13371 14.947C1.3179 14.1701 0.896621 13.2727 0.869873 12.2548C0.869873 12.1342 0.909995 12.0338 0.990239 11.9534C1.08386 11.8596 1.19085 11.8128 1.31121 11.8128H5.12279C5.42404 11.8128 5.71536 11.9361 5.94989 12.1252C5.96162 12.1346 5.97346 12.1443 5.98541 12.1543C6.37325 12.4624 6.86809 12.6164 7.46992 12.6164C7.92463 12.6164 8.28573 12.5695 8.55321 12.4758C8.83406 12.3686 8.97449 12.228 8.97449 12.0539C8.97449 11.8128 8.79394 11.6319 8.43284 11.5114C8.07175 11.3775 7.38968 11.2435 6.38663 11.1096C2.93615 10.6542 1.21091 9.1808 1.21091 6.68948C1.21091 5.55097 1.61213 4.57989 2.41456 3.77624C2.93916 3.25945 3.57713 2.85898 4.32846 2.57482C5.08933 2.28705 5.6845 1.61618 5.6845 0.802719C5.6845 0.655383 5.73799 0.528138 5.84498 0.420984C5.95198 0.31383 6.07903 0.260254 6.22614 0.260254H8.65351C8.80063 0.260254 8.92768 0.31383 9.03467 0.420984C9.14166 0.528138 9.19516 0.655383 9.19516 0.802719C9.19516 1.65727 9.80883 2.36578 10.5926 2.70641C10.9255 2.85112 11.2354 3.02021 11.5222 3.21368C12.1909 3.64229 12.6991 4.13118 13.0469 4.68034C13.408 5.21611 13.6019 5.73179 13.6286 6.22738C13.6286 6.34792 13.5818 6.45508 13.4882 6.54884C13.408 6.6292 13.3143 6.66939 13.2073 6.66939H9.19516C9.00792 6.66939 8.86081 6.64929 8.75382 6.60911C8.64683 6.55553 8.52646 6.46847 8.39272 6.34792C8.11187 6.10683 7.75746 5.98628 7.32949 5.98628C6.68754 5.98628 6.36657 6.1738 6.36657 6.54884C6.36657 6.74975 6.52037 6.91718 6.82797 7.05112C7.14894 7.18506 7.7374 7.30561 8.59333 7.41276C9.93073 7.58689 11.0006 7.84808 11.8031 8.19633C12.6189 8.54458 13.2073 9.01337 13.5684 9.60272C13.9429 10.1787 14.1301 10.9087 14.1301 11.7927C14.1301 12.9982 13.6754 14.0094 12.766 14.8265C12.164 15.3664 11.4291 15.7794 10.5614 16.0654C9.79139 16.3192 9.19516 16.9892 9.19516 17.8C9.19516 17.9473 9.14166 18.0746 9.03467 18.1817C8.92768 18.2889 8.80063 18.3424 8.65351 18.3424H6.22614Z" fill="url(#paint0_linear_5223)"/>
<defs>
<linearGradient id="paint0_linear_5223" x1="0.869873" y1="0.260254" x2="16.0738" y2="2.07706" gradientUnits="userSpaceOnUse">
<stop stop-color="#E843C4"/>
<stop offset="1" stop-color="#FFBF00"/>
<stop offset="1" stop-color="#FFBF00"/>
</linearGradient>
</defs>
</svg>
