<svg width="513" height="347" viewBox="0 0 513 347" fill="none" xmlns="http://www.w3.org/2000/svg">
<path d="M27.3984 8.54297H512" stroke="#FAFAFA" stroke-opacity="0.1" stroke-width="0.41691" stroke-linecap="round"/>
<path d="M27.3984 64.9272H512" stroke="#FAFAFA" stroke-opacity="0.1" stroke-width="0.41691" stroke-linecap="round"/>
<path d="M27.3984 119.603H512" stroke="#FAFAFA" stroke-opacity="0.1" stroke-width="0.41691" stroke-linecap="round"/>
<path d="M27.3984 175.987H512" stroke="#FAFAFA" stroke-opacity="0.1" stroke-width="0.41691" stroke-linecap="round"/>
<path d="M50.1123 9.11523L50.1123 230.652" stroke="#FAFAFA" stroke-opacity="0.1" stroke-width="0.41691" stroke-linecap="round"/>
<path d="M128.643 9.11523L128.643 230.652" stroke="#FAFAFA" stroke-opacity="0.1" stroke-width="0.41691" stroke-linecap="round"/>
<path d="M209.314 9.11523L209.314 230.652" stroke="#FAFAFA" stroke-opacity="0.1" stroke-width="0.41691" stroke-linecap="round"/>
<path d="M287.845 9.11523L287.845 230.652" stroke="#FAFAFA" stroke-opacity="0.1" stroke-width="0.41691" stroke-linecap="round"/>
<path d="M368.515 9.11523L368.515 230.652" stroke="#FAFAFA" stroke-opacity="0.1" stroke-width="0.41691" stroke-linecap="round"/>
<path d="M447.045 9.11523L447.045 230.652" stroke="#FAFAFA" stroke-opacity="0.1" stroke-width="0.41691" stroke-linecap="round"/>
<path d="M10.8161 10.08C10.4001 10.08 10.0347 10.0133 9.72006 9.88C9.40539 9.74133 9.16006 9.544 8.98406 9.288C8.80806 9.032 8.72006 8.73333 8.72006 8.392C8.72006 8.07733 8.79739 7.80267 8.95206 7.568C9.10673 7.328 9.31739 7.144 9.58406 7.016C9.37073 6.89333 9.20539 6.73333 9.08806 6.536C8.97606 6.33333 8.92006 6.09867 8.92006 5.832C8.92006 5.36267 9.09073 4.99467 9.43206 4.728C9.77873 4.456 10.2401 4.32 10.8161 4.32C11.3867 4.32 11.8427 4.456 12.1841 4.728C12.5307 4.99467 12.7041 5.36 12.7041 5.824C12.7041 6.09067 12.6454 6.32533 12.5281 6.528C12.4161 6.72533 12.2561 6.888 12.0481 7.016C12.3147 7.144 12.5254 7.328 12.6801 7.568C12.8347 7.80267 12.9121 8.07733 12.9121 8.392C12.9121 8.73333 12.8241 9.032 12.6481 9.288C12.4721 9.544 12.2241 9.74133 11.9041 9.88C11.5894 10.0133 11.2267 10.08 10.8161 10.08ZM10.8161 6.728C11.1361 6.72267 11.4054 6.64 11.6241 6.48C11.8427 6.32 11.9521 6.10933 11.9521 5.848C11.9521 5.58133 11.8427 5.368 11.6241 5.208C11.4107 5.04267 11.1414 4.96 10.8161 4.96C10.4854 4.96 10.2107 5.04 9.99206 5.2C9.77873 5.36 9.67206 5.576 9.67206 5.848C9.67206 6.11467 9.77873 6.328 9.99206 6.488C10.2107 6.648 10.4854 6.728 10.8161 6.728ZM10.8161 9.44C11.1894 9.44 11.5014 9.344 11.7521 9.152C12.0027 8.96 12.1281 8.70667 12.1281 8.392C12.1281 8.07733 12.0027 7.82667 11.7521 7.64C11.5014 7.45333 11.1894 7.36 10.8161 7.36C10.4374 7.36 10.1227 7.45333 9.87206 7.64C9.62139 7.82667 9.49606 8.07733 9.49606 8.392C9.49606 8.70667 9.62139 8.96 9.87206 9.152C10.1227 9.344 10.4374 9.44 10.8161 9.44ZM16.294 10.08C15.606 10.08 15.102 9.88 14.782 9.48C14.462 9.08 14.2913 8.55467 14.27 7.904C14.2647 7.76 14.262 7.528 14.262 7.208C14.262 6.87733 14.2647 6.63733 14.27 6.488C14.286 5.848 14.4567 5.328 14.782 4.928C15.1073 4.52267 15.6113 4.32 16.294 4.32C16.982 4.32 17.4887 4.52267 17.814 4.928C18.1393 5.328 18.31 5.848 18.326 6.488C18.3367 6.78667 18.342 7.02667 18.342 7.208C18.342 7.384 18.3367 7.616 18.326 7.904C18.3047 8.55467 18.134 9.08 17.814 9.48C17.494 9.88 16.9873 10.08 16.294 10.08ZM16.294 9.392C16.694 9.392 16.9953 9.25867 17.198 8.992C17.406 8.72533 17.5153 8.34933 17.526 7.864C17.5367 7.55467 17.542 7.33067 17.542 7.192C17.542 7.04267 17.5367 6.824 17.526 6.536C17.5153 6.056 17.4087 5.68 17.206 5.408C17.0033 5.136 16.6993 5 16.294 5C15.894 5 15.59 5.136 15.382 5.408C15.1793 5.68 15.0727 6.056 15.062 6.536L15.054 7.192L15.062 7.864C15.0727 8.34933 15.1793 8.72533 15.382 8.992C15.59 9.25867 15.894 9.392 16.294 9.392Z" fill="#FCFCFC"/>
<path d="M11.0017 65.642C10.575 65.642 10.2044 65.5567 9.88968 65.386C9.57502 65.21 9.33502 64.9753 9.16968 64.682C9.00435 64.3887 8.92168 64.0687 8.92168 63.722C8.92168 63.4393 8.97768 63.1727 9.08968 62.922C9.20702 62.666 9.33768 62.4393 9.48168 62.242L11.0017 60.122C11.007 60.1167 11.023 60.098 11.0497 60.066C11.071 60.034 11.1004 60.01 11.1377 59.994C11.175 59.9727 11.2177 59.962 11.2657 59.962H11.6897C11.7377 59.962 11.775 59.9807 11.8017 60.018C11.8337 60.05 11.8497 60.09 11.8497 60.138C11.8497 60.1753 11.839 60.21 11.8177 60.242L10.6497 61.874C10.767 61.8367 10.919 61.818 11.1057 61.818C11.4897 61.8233 11.8284 61.9113 12.1217 62.082C12.4204 62.2527 12.6497 62.482 12.8097 62.77C12.975 63.058 13.0577 63.3727 13.0577 63.714C13.0577 64.0553 12.975 64.3753 12.8097 64.674C12.6497 64.9673 12.4124 65.202 12.0977 65.378C11.7884 65.554 11.423 65.642 11.0017 65.642ZM10.9937 64.962C11.223 64.962 11.4337 64.914 11.6257 64.818C11.823 64.722 11.9777 64.5807 12.0897 64.394C12.207 64.202 12.2657 63.9753 12.2657 63.714C12.2657 63.458 12.207 63.2367 12.0897 63.05C11.9777 62.8633 11.823 62.722 11.6257 62.626C11.4337 62.53 11.223 62.482 10.9937 62.482C10.7697 62.482 10.559 62.53 10.3617 62.626C10.1697 62.722 10.015 62.8633 9.89768 63.05C9.78035 63.2367 9.72168 63.458 9.72168 63.714C9.72168 63.9753 9.78035 64.202 9.89768 64.394C10.015 64.5807 10.1697 64.722 10.3617 64.818C10.5537 64.914 10.7644 64.962 10.9937 64.962ZM16.294 65.642C15.606 65.642 15.102 65.442 14.782 65.042C14.462 64.642 14.2913 64.1167 14.27 63.466C14.2647 63.322 14.262 63.09 14.262 62.77C14.262 62.4393 14.2647 62.1993 14.27 62.05C14.286 61.41 14.4567 60.89 14.782 60.49C15.1073 60.0847 15.6113 59.882 16.294 59.882C16.982 59.882 17.4887 60.0847 17.814 60.49C18.1393 60.89 18.31 61.41 18.326 62.05C18.3367 62.3487 18.342 62.5887 18.342 62.77C18.342 62.946 18.3367 63.178 18.326 63.466C18.3047 64.1167 18.134 64.642 17.814 65.042C17.494 65.442 16.9873 65.642 16.294 65.642ZM16.294 64.954C16.694 64.954 16.9953 64.8207 17.198 64.554C17.406 64.2873 17.5153 63.9113 17.526 63.426C17.5367 63.1167 17.542 62.8927 17.542 62.754C17.542 62.6047 17.5367 62.386 17.526 62.098C17.5153 61.618 17.4087 61.242 17.206 60.97C17.0033 60.698 16.6993 60.562 16.294 60.562C15.894 60.562 15.59 60.698 15.382 60.97C15.1793 61.242 15.0727 61.618 15.062 62.098L15.054 62.754L15.062 63.426C15.0727 63.9113 15.1793 64.2873 15.382 64.554C15.59 64.8207 15.894 64.954 16.294 64.954Z" fill="#FCFCFC"/>
<path d="M11.5972 121.125C11.5439 121.125 11.4986 121.109 11.4612 121.077C11.4292 121.039 11.4132 120.994 11.4132 120.941V119.789H8.82125C8.76791 119.789 8.72258 119.773 8.68525 119.741C8.65325 119.703 8.63725 119.658 8.63725 119.605V119.285C8.63725 119.205 8.66658 119.125 8.72525 119.045L11.1252 115.661C11.1519 115.618 11.1919 115.586 11.2452 115.565C11.2986 115.538 11.3572 115.525 11.4212 115.525H11.9972C12.0506 115.525 12.0932 115.543 12.1252 115.581C12.1626 115.613 12.1812 115.655 12.1812 115.709V119.093H12.9012C12.9546 119.093 12.9999 119.111 13.0372 119.149C13.0746 119.181 13.0932 119.223 13.0932 119.277V119.605C13.0932 119.658 13.0746 119.703 13.0372 119.741C13.0052 119.773 12.9626 119.789 12.9092 119.789H12.1812V120.941C12.1812 120.994 12.1626 121.039 12.1252 121.077C12.0932 121.109 12.0506 121.125 11.9972 121.125H11.5972ZM11.4212 119.109V116.365L9.49325 119.109H11.4212ZM16.294 121.205C15.606 121.205 15.102 121.005 14.782 120.605C14.462 120.205 14.2913 119.679 14.27 119.029C14.2647 118.885 14.262 118.653 14.262 118.333C14.262 118.002 14.2647 117.762 14.27 117.613C14.286 116.973 14.4567 116.453 14.782 116.053C15.1073 115.647 15.6113 115.445 16.294 115.445C16.982 115.445 17.4887 115.647 17.814 116.053C18.1393 116.453 18.31 116.973 18.326 117.613C18.3367 117.911 18.342 118.151 18.342 118.333C18.342 118.509 18.3367 118.741 18.326 119.029C18.3047 119.679 18.134 120.205 17.814 120.605C17.494 121.005 16.9873 121.205 16.294 121.205ZM16.294 120.517C16.694 120.517 16.9953 120.383 17.198 120.117C17.406 119.85 17.5153 119.474 17.526 118.989C17.5367 118.679 17.542 118.455 17.542 118.317C17.542 118.167 17.5367 117.949 17.526 117.661C17.5153 117.181 17.4087 116.805 17.206 116.533C17.0033 116.261 16.6993 116.125 16.294 116.125C15.894 116.125 15.59 116.261 15.382 116.533C15.1793 116.805 15.0727 117.181 15.062 117.661L15.054 118.317L15.062 118.989C15.0727 119.474 15.1793 119.85 15.382 120.117C15.59 120.383 15.894 120.517 16.294 120.517Z" fill="#FCFCFC"/>
<path d="M9.95255 176.687C9.89922 176.687 9.85388 176.671 9.81655 176.639C9.78455 176.602 9.76855 176.556 9.76855 176.503V176.247C9.76855 176.124 9.83522 176.007 9.96855 175.895L11.6646 174.199C12.0752 173.858 12.3579 173.58 12.5126 173.367C12.6672 173.148 12.7446 172.919 12.7446 172.679C12.7446 172.37 12.6566 172.127 12.4806 171.951C12.3099 171.775 12.0592 171.687 11.7286 171.687C11.4192 171.687 11.1712 171.78 10.9846 171.967C10.7979 172.148 10.6832 172.391 10.6406 172.695C10.6299 172.759 10.6032 172.807 10.5606 172.839C10.5232 172.866 10.4806 172.879 10.4326 172.879H10.0166C9.96855 172.879 9.92855 172.866 9.89655 172.839C9.86455 172.807 9.84855 172.77 9.84855 172.727C9.85922 172.439 9.93655 172.164 10.0806 171.903C10.2246 171.636 10.4352 171.42 10.7126 171.255C10.9952 171.084 11.3339 170.999 11.7286 170.999C12.3312 170.999 12.7846 171.156 13.0886 171.471C13.3979 171.78 13.5526 172.175 13.5526 172.655C13.5526 172.991 13.4672 173.295 13.2966 173.567C13.1312 173.834 12.8726 174.122 12.5206 174.431L10.9846 175.991H13.4806C13.5392 175.991 13.5846 176.01 13.6166 176.047C13.6539 176.079 13.6726 176.122 13.6726 176.175V176.503C13.6726 176.556 13.6539 176.602 13.6166 176.639C13.5792 176.671 13.5339 176.687 13.4806 176.687H9.95255ZM17.0079 176.767C16.3199 176.767 15.8159 176.567 15.4959 176.167C15.1759 175.767 15.0052 175.242 14.9839 174.591C14.9785 174.447 14.9759 174.215 14.9759 173.895C14.9759 173.564 14.9785 173.324 14.9839 173.175C14.9999 172.535 15.1705 172.015 15.4959 171.615C15.8212 171.21 16.3252 171.007 17.0079 171.007C17.6959 171.007 18.2025 171.21 18.5279 171.615C18.8532 172.015 19.0239 172.535 19.0399 173.175C19.0505 173.474 19.0559 173.714 19.0559 173.895C19.0559 174.071 19.0505 174.303 19.0399 174.591C19.0185 175.242 18.8479 175.767 18.5279 176.167C18.2079 176.567 17.7012 176.767 17.0079 176.767ZM17.0079 176.079C17.4079 176.079 17.7092 175.946 17.9119 175.679C18.1199 175.412 18.2292 175.036 18.2399 174.551C18.2505 174.242 18.2559 174.018 18.2559 173.879C18.2559 173.73 18.2505 173.511 18.2399 173.223C18.2292 172.743 18.1225 172.367 17.9199 172.095C17.7172 171.823 17.4132 171.687 17.0079 171.687C16.6079 171.687 16.3039 171.823 16.0959 172.095C15.8932 172.367 15.7865 172.743 15.7759 173.223L15.7679 173.879L15.7759 174.551C15.7865 175.036 15.8932 175.412 16.0959 175.679C16.3039 175.946 16.6079 176.079 17.0079 176.079Z" fill="#FCFCFC"/>
<path d="M16.5837 232.329C15.8957 232.329 15.3917 232.129 15.0717 231.729C14.7517 231.329 14.581 230.803 14.5597 230.153C14.5544 230.009 14.5517 229.777 14.5517 229.457C14.5517 229.126 14.5544 228.886 14.5597 228.737C14.5757 228.097 14.7464 227.577 15.0717 227.177C15.397 226.771 15.901 226.569 16.5837 226.569C17.2717 226.569 17.7784 226.771 18.1037 227.177C18.429 227.577 18.5997 228.097 18.6157 228.737C18.6264 229.035 18.6317 229.275 18.6317 229.457C18.6317 229.633 18.6264 229.865 18.6157 230.153C18.5944 230.803 18.4237 231.329 18.1037 231.729C17.7837 232.129 17.277 232.329 16.5837 232.329ZM16.5837 231.641C16.9837 231.641 17.285 231.507 17.4877 231.241C17.6957 230.974 17.805 230.598 17.8157 230.113C17.8264 229.803 17.8317 229.579 17.8317 229.441C17.8317 229.291 17.8264 229.073 17.8157 228.785C17.805 228.305 17.6984 227.929 17.4957 227.657C17.293 227.385 16.989 227.249 16.5837 227.249C16.1837 227.249 15.8797 227.385 15.6717 227.657C15.469 227.929 15.3624 228.305 15.3517 228.785L15.3437 229.441L15.3517 230.113C15.3624 230.598 15.469 230.974 15.6717 231.241C15.8797 231.507 16.1837 231.641 16.5837 231.641Z" fill="#FCFCFC"/>
<path d="M56.7084 254.411C56.2871 254.411 55.9217 254.344 55.6124 254.211C55.3084 254.072 55.0764 253.894 54.9164 253.675C54.7617 253.456 54.6791 253.227 54.6684 252.987C54.6684 252.939 54.6844 252.902 54.7164 252.875C54.7484 252.843 54.7884 252.827 54.8364 252.827H55.2284C55.3404 252.827 55.4151 252.886 55.4524 253.003C55.5217 253.27 55.6711 253.459 55.9004 253.571C56.1297 253.678 56.3991 253.731 56.7084 253.731C57.0871 253.731 57.3884 253.643 57.6124 253.467C57.8364 253.286 57.9484 253.027 57.9484 252.691C57.9484 252.046 57.5564 251.723 56.7724 251.723H56.0124C55.9591 251.723 55.9137 251.707 55.8764 251.675C55.8444 251.638 55.8284 251.592 55.8284 251.539V251.323C55.8284 251.248 55.8577 251.176 55.9164 251.107L57.4684 249.411H55.1084C55.0551 249.411 55.0097 249.395 54.9724 249.363C54.9404 249.326 54.9244 249.28 54.9244 249.227V248.923C54.9244 248.87 54.9404 248.824 54.9724 248.787C55.0097 248.75 55.0551 248.731 55.1084 248.731H58.3004C58.3591 248.731 58.4044 248.75 58.4364 248.787C58.4737 248.819 58.4924 248.864 58.4924 248.923V249.211C58.4924 249.275 58.4631 249.336 58.4044 249.395L56.8604 251.115L56.9884 251.123C57.5324 251.139 57.9617 251.28 58.2764 251.547C58.5911 251.814 58.7484 252.203 58.7484 252.715C58.7484 253.062 58.6604 253.363 58.4844 253.619C58.3084 253.875 58.0657 254.072 57.7564 254.211C57.4471 254.344 57.0977 254.411 56.7084 254.411ZM62.666 254.331C62.6127 254.331 62.5674 254.315 62.53 254.283C62.498 254.246 62.482 254.2 62.482 254.147V250.355C62.482 250.302 62.498 250.259 62.53 250.227C62.5674 250.19 62.6127 250.171 62.666 250.171H63.026C63.0794 250.171 63.122 250.19 63.154 250.227C63.1914 250.259 63.21 250.302 63.21 250.355V250.635C63.4874 250.272 63.874 250.091 64.37 250.091C64.962 250.091 65.3807 250.336 65.626 250.827C65.754 250.603 65.9354 250.424 66.17 250.291C66.4047 250.158 66.6687 250.091 66.962 250.091C67.3994 250.091 67.7567 250.24 68.034 250.539C68.3114 250.838 68.45 251.27 68.45 251.835V254.147C68.45 254.2 68.4314 254.246 68.394 254.283C68.362 254.315 68.3194 254.331 68.266 254.331H67.89C67.8367 254.331 67.7914 254.315 67.754 254.283C67.722 254.246 67.706 254.2 67.706 254.147V251.907C67.706 251.491 67.618 251.192 67.442 251.011C67.2714 250.83 67.0447 250.739 66.762 250.739C66.5114 250.739 66.2954 250.832 66.114 251.019C65.9327 251.2 65.842 251.496 65.842 251.907V254.147C65.842 254.2 65.8234 254.246 65.786 254.283C65.754 254.315 65.7114 254.331 65.658 254.331H65.282C65.2287 254.331 65.1834 254.315 65.146 254.283C65.114 254.246 65.098 254.2 65.098 254.147V251.907C65.098 251.491 65.0074 251.192 64.826 251.011C64.65 250.83 64.426 250.739 64.154 250.739C63.9034 250.739 63.6874 250.832 63.506 251.019C63.3247 251.2 63.234 251.494 63.234 251.899V254.147C63.234 254.2 63.2154 254.246 63.178 254.283C63.146 254.315 63.1034 254.331 63.05 254.331H62.666ZM71.6954 254.411C71.1087 254.411 70.6527 254.246 70.3274 253.915C70.0074 253.584 69.8367 253.144 69.8154 252.595L69.8074 252.251L69.8154 251.907C69.8367 251.363 70.0101 250.926 70.3354 250.595C70.6607 250.259 71.1141 250.091 71.6954 250.091C72.2767 250.091 72.7301 250.259 73.0554 250.595C73.3807 250.926 73.5541 251.363 73.5754 251.907C73.5807 251.966 73.5834 252.08 73.5834 252.251C73.5834 252.422 73.5807 252.536 73.5754 252.595C73.5541 253.144 73.3807 253.584 73.0554 253.915C72.7354 254.246 72.2821 254.411 71.6954 254.411ZM71.6954 253.795C72.0314 253.795 72.2954 253.688 72.4874 253.475C72.6847 253.262 72.7914 252.955 72.8074 252.555C72.8127 252.502 72.8154 252.4 72.8154 252.251C72.8154 252.102 72.8127 252 72.8074 251.947C72.7914 251.547 72.6847 251.24 72.4874 251.027C72.2954 250.814 72.0314 250.707 71.6954 250.707C71.3594 250.707 71.0927 250.814 70.8954 251.027C70.6981 251.24 70.5941 251.547 70.5834 251.947L70.5754 252.251L70.5834 252.555C70.5941 252.955 70.6981 253.262 70.8954 253.475C71.0927 253.688 71.3594 253.795 71.6954 253.795ZM75.1692 254.331C75.1158 254.331 75.0705 254.315 75.0332 254.283C75.0012 254.246 74.9852 254.2 74.9852 254.147V250.355C74.9852 250.302 75.0012 250.259 75.0332 250.227C75.0705 250.19 75.1158 250.171 75.1692 250.171H75.5452C75.5985 250.171 75.6412 250.19 75.6732 250.227C75.7105 250.259 75.7292 250.302 75.7292 250.355V250.707C75.8838 250.51 76.0652 250.358 76.2732 250.251C76.4865 250.144 76.7505 250.091 77.0652 250.091C77.5772 250.091 77.9745 250.256 78.2572 250.587C78.5452 250.912 78.6892 251.347 78.6892 251.891V254.147C78.6892 254.2 78.6705 254.246 78.6332 254.283C78.6012 254.315 78.5585 254.331 78.5052 254.331H78.1052C78.0518 254.331 78.0065 254.315 77.9692 254.283C77.9372 254.246 77.9212 254.2 77.9212 254.147V251.931C77.9212 251.552 77.8278 251.259 77.6412 251.051C77.4598 250.843 77.1958 250.739 76.8492 250.739C76.5132 250.739 76.2465 250.846 76.0492 251.059C75.8518 251.267 75.7532 251.558 75.7532 251.931V254.147C75.7532 254.2 75.7345 254.246 75.6972 254.283C75.6652 254.315 75.6225 254.331 75.5692 254.331H75.1692ZM81.806 254.331C80.9634 254.331 80.542 253.862 80.542 252.923V250.811H79.918C79.8647 250.811 79.8194 250.795 79.782 250.763C79.75 250.726 79.734 250.68 79.734 250.627V250.355C79.734 250.302 79.75 250.259 79.782 250.227C79.8194 250.19 79.8647 250.171 79.918 250.171H80.542V248.835C80.542 248.782 80.558 248.739 80.59 248.707C80.6274 248.67 80.6727 248.651 80.726 248.651H81.102C81.1554 248.651 81.198 248.67 81.23 248.707C81.2674 248.739 81.286 248.782 81.286 248.835V250.171H82.278C82.3314 250.171 82.374 250.19 82.406 250.227C82.4434 250.259 82.462 250.302 82.462 250.355V250.627C82.462 250.68 82.4434 250.726 82.406 250.763C82.374 250.795 82.3314 250.811 82.278 250.811H81.286V252.867C81.286 253.134 81.3314 253.336 81.422 253.475C81.5127 253.608 81.662 253.675 81.87 253.675H82.358C82.4114 253.675 82.454 253.694 82.486 253.731C82.5234 253.763 82.542 253.806 82.542 253.859V254.147C82.542 254.2 82.5234 254.246 82.486 254.283C82.454 254.315 82.4114 254.331 82.358 254.331H81.806ZM83.899 254.331C83.8457 254.331 83.8004 254.315 83.763 254.283C83.731 254.246 83.715 254.2 83.715 254.147V248.835C83.715 248.782 83.731 248.739 83.763 248.707C83.8004 248.67 83.8457 248.651 83.899 248.651H84.299C84.3524 248.651 84.395 248.67 84.427 248.707C84.4644 248.739 84.483 248.782 84.483 248.835V250.699C84.6377 250.502 84.819 250.352 85.027 250.251C85.235 250.144 85.4937 250.091 85.803 250.091C86.315 250.091 86.7124 250.256 86.995 250.587C87.283 250.912 87.427 251.347 87.427 251.891V254.147C87.427 254.2 87.4084 254.246 87.371 254.283C87.339 254.315 87.2964 254.331 87.243 254.331H86.843C86.7897 254.331 86.7444 254.315 86.707 254.283C86.675 254.246 86.659 254.2 86.659 254.147V251.931C86.659 251.552 86.5657 251.259 86.379 251.051C86.1977 250.843 85.9337 250.739 85.587 250.739C85.251 250.739 84.9817 250.846 84.779 251.059C84.5817 251.267 84.483 251.558 84.483 251.931V254.147C84.483 254.2 84.4644 254.246 84.427 254.283C84.395 254.315 84.3524 254.331 84.299 254.331H83.899ZM90.422 254.411C90.0487 254.411 89.734 254.352 89.478 254.235C89.2274 254.112 89.038 253.974 88.91 253.819C88.7874 253.664 88.726 253.536 88.726 253.435C88.726 253.382 88.7447 253.342 88.782 253.315C88.8247 253.283 88.8674 253.267 88.91 253.267H89.27C89.3234 253.267 89.3714 253.294 89.414 253.347C89.542 253.496 89.6807 253.614 89.83 253.699C89.9794 253.784 90.1794 253.827 90.43 253.827C90.7074 253.827 90.9314 253.774 91.102 253.667C91.278 253.555 91.366 253.403 91.366 253.211C91.366 253.083 91.3287 252.979 91.254 252.899C91.1847 252.814 91.062 252.742 90.886 252.683C90.7154 252.619 90.4594 252.55 90.118 252.475C89.654 252.374 89.3234 252.227 89.126 252.035C88.934 251.843 88.838 251.595 88.838 251.291C88.838 251.088 88.8967 250.896 89.014 250.715C89.1367 250.528 89.3127 250.379 89.542 250.267C89.7767 250.15 90.0567 250.091 90.382 250.091C90.7234 250.091 91.014 250.147 91.254 250.259C91.494 250.371 91.6727 250.504 91.79 250.659C91.9127 250.808 91.974 250.934 91.974 251.035C91.974 251.083 91.9554 251.123 91.918 251.155C91.886 251.187 91.846 251.203 91.798 251.203H91.462C91.398 251.203 91.3447 251.176 91.302 251.123C91.2167 251.022 91.142 250.944 91.078 250.891C91.0194 250.832 90.9314 250.782 90.814 250.739C90.702 250.696 90.558 250.675 90.382 250.675C90.126 250.675 89.9287 250.731 89.79 250.843C89.6514 250.95 89.582 251.091 89.582 251.267C89.582 251.379 89.6114 251.475 89.67 251.555C89.7287 251.63 89.8407 251.699 90.006 251.763C90.1767 251.827 90.422 251.894 90.742 251.963C91.2487 252.07 91.606 252.224 91.814 252.427C92.0274 252.624 92.134 252.878 92.134 253.187C92.134 253.416 92.0674 253.624 91.934 253.811C91.8007 253.998 91.6034 254.144 91.342 254.251C91.086 254.358 90.7794 254.411 90.422 254.411Z" fill="#FCFCFC"/>
<path d="M172.339 254.331C172.286 254.331 172.241 254.315 172.203 254.283C172.171 254.246 172.155 254.2 172.155 254.147V249.667L170.827 250.691C170.79 250.723 170.75 250.739 170.707 250.739C170.659 250.739 170.614 250.712 170.571 250.659L170.363 250.395C170.337 250.358 170.323 250.32 170.323 250.283C170.323 250.219 170.35 250.168 170.403 250.131L172.147 248.787C172.206 248.75 172.275 248.731 172.355 248.731H172.763C172.817 248.731 172.859 248.75 172.891 248.787C172.929 248.819 172.947 248.862 172.947 248.915V254.147C172.947 254.2 172.929 254.246 172.891 254.283C172.859 254.315 172.817 254.331 172.763 254.331H172.339ZM177.415 255.851C177.373 255.851 177.335 255.835 177.303 255.803C177.271 255.771 177.255 255.734 177.255 255.691C177.255 255.654 177.269 255.606 177.295 255.547L177.911 254.083L176.383 250.475C176.357 250.406 176.343 250.36 176.343 250.339C176.343 250.291 176.359 250.251 176.391 250.219C176.423 250.187 176.463 250.171 176.511 250.171H176.903C176.989 250.171 177.053 250.216 177.095 250.307L178.311 253.219L179.559 250.307C179.602 250.216 179.669 250.171 179.759 250.171H180.135C180.183 250.171 180.223 250.187 180.255 250.219C180.287 250.251 180.303 250.288 180.303 250.331C180.303 250.347 180.29 250.395 180.263 250.475L177.991 255.715C177.949 255.806 177.882 255.851 177.791 255.851H177.415ZM183.025 254.411C182.475 254.411 182.035 254.243 181.705 253.907C181.379 253.566 181.201 253.102 181.169 252.515L181.161 252.243L181.169 251.979C181.206 251.403 181.387 250.944 181.713 250.603C182.043 250.262 182.478 250.091 183.017 250.091C183.609 250.091 184.067 250.28 184.393 250.659C184.718 251.032 184.881 251.539 184.881 252.179V252.315C184.881 252.368 184.862 252.414 184.825 252.451C184.793 252.483 184.75 252.499 184.697 252.499H181.929V252.571C181.945 252.918 182.049 253.214 182.241 253.459C182.438 253.699 182.697 253.819 183.017 253.819C183.262 253.819 183.462 253.771 183.617 253.675C183.777 253.574 183.894 253.47 183.969 253.363C184.017 253.299 184.051 253.262 184.073 253.251C184.099 253.235 184.145 253.227 184.209 253.227H184.601C184.649 253.227 184.689 253.24 184.721 253.267C184.753 253.294 184.769 253.331 184.769 253.379C184.769 253.496 184.694 253.638 184.545 253.803C184.401 253.968 184.195 254.112 183.929 254.235C183.667 254.352 183.366 254.411 183.025 254.411ZM184.121 251.947V251.923C184.121 251.555 184.019 251.256 183.817 251.027C183.619 250.792 183.353 250.675 183.017 250.675C182.681 250.675 182.414 250.792 182.217 251.027C182.025 251.256 181.929 251.555 181.929 251.923V251.947H184.121ZM187.397 254.411C187.136 254.411 186.893 254.358 186.669 254.251C186.445 254.144 186.267 254 186.133 253.819C186.005 253.632 185.941 253.427 185.941 253.203C185.941 252.851 186.085 252.563 186.373 252.339C186.667 252.11 187.061 251.96 187.557 251.891L188.749 251.723V251.491C188.749 250.947 188.437 250.675 187.813 250.675C187.579 250.675 187.387 250.726 187.237 250.827C187.088 250.923 186.976 251.038 186.901 251.171C186.885 251.219 186.864 251.254 186.837 251.275C186.816 251.296 186.784 251.307 186.741 251.307H186.397C186.349 251.307 186.307 251.291 186.269 251.259C186.237 251.222 186.221 251.179 186.221 251.131C186.227 251.003 186.285 250.859 186.397 250.699C186.515 250.534 186.693 250.392 186.933 250.275C187.173 250.152 187.469 250.091 187.821 250.091C188.419 250.091 188.848 250.232 189.109 250.515C189.371 250.792 189.501 251.139 189.501 251.555V254.147C189.501 254.2 189.483 254.246 189.445 254.283C189.413 254.315 189.371 254.331 189.317 254.331H188.949C188.896 254.331 188.851 254.315 188.813 254.283C188.781 254.246 188.765 254.2 188.765 254.147V253.803C188.648 253.974 188.477 254.118 188.253 254.235C188.029 254.352 187.744 254.411 187.397 254.411ZM187.565 253.811C187.912 253.811 188.195 253.699 188.413 253.475C188.637 253.246 188.749 252.918 188.749 252.491V252.267L187.821 252.403C187.443 252.456 187.157 252.547 186.965 252.675C186.773 252.798 186.677 252.955 186.677 253.147C186.677 253.36 186.765 253.526 186.941 253.643C187.117 253.755 187.325 253.811 187.565 253.811ZM191.235 254.331C191.182 254.331 191.137 254.315 191.099 254.283C191.067 254.246 191.051 254.2 191.051 254.147V250.363C191.051 250.31 191.067 250.264 191.099 250.227C191.137 250.19 191.182 250.171 191.235 250.171H191.603C191.657 250.171 191.702 250.19 191.739 250.227C191.777 250.264 191.795 250.31 191.795 250.363V250.715C192.014 250.352 192.387 250.171 192.915 250.171H193.227C193.281 250.171 193.323 250.19 193.355 250.227C193.393 250.259 193.411 250.302 193.411 250.355V250.683C193.411 250.736 193.393 250.779 193.355 250.811C193.323 250.843 193.281 250.859 193.227 250.859H192.747C192.459 250.859 192.233 250.944 192.067 251.115C191.902 251.28 191.819 251.507 191.819 251.795V254.147C191.819 254.2 191.801 254.246 191.763 254.283C191.726 254.315 191.681 254.331 191.627 254.331H191.235Z" fill="#FCFCFC"/>
<path d="M331.056 254.331C331.003 254.331 330.957 254.315 330.92 254.283C330.888 254.246 330.872 254.2 330.872 254.147V253.891C330.872 253.768 330.939 253.651 331.072 253.539L332.768 251.843C333.179 251.502 333.461 251.224 333.616 251.011C333.771 250.792 333.848 250.563 333.848 250.323C333.848 250.014 333.76 249.771 333.584 249.595C333.413 249.419 333.163 249.331 332.832 249.331C332.523 249.331 332.275 249.424 332.088 249.611C331.901 249.792 331.787 250.035 331.744 250.339C331.733 250.403 331.707 250.451 331.664 250.483C331.627 250.51 331.584 250.523 331.536 250.523H331.12C331.072 250.523 331.032 250.51 331 250.483C330.968 250.451 330.952 250.414 330.952 250.371C330.963 250.083 331.04 249.808 331.184 249.547C331.328 249.28 331.539 249.064 331.816 248.899C332.099 248.728 332.437 248.643 332.832 248.643C333.435 248.643 333.888 248.8 334.192 249.115C334.501 249.424 334.656 249.819 334.656 250.299C334.656 250.635 334.571 250.939 334.4 251.211C334.235 251.478 333.976 251.766 333.624 252.075L332.088 253.635H334.584C334.643 253.635 334.688 253.654 334.72 253.691C334.757 253.723 334.776 253.766 334.776 253.819V254.147C334.776 254.2 334.757 254.246 334.72 254.283C334.683 254.315 334.637 254.331 334.584 254.331H331.056ZM339.038 255.851C338.995 255.851 338.958 255.835 338.926 255.803C338.894 255.771 338.878 255.734 338.878 255.691C338.878 255.654 338.891 255.606 338.918 255.547L339.534 254.083L338.006 250.475C337.979 250.406 337.966 250.36 337.966 250.339C337.966 250.291 337.982 250.251 338.014 250.219C338.046 250.187 338.086 250.171 338.134 250.171H338.526C338.611 250.171 338.675 250.216 338.718 250.307L339.934 253.219L341.182 250.307C341.224 250.216 341.291 250.171 341.382 250.171H341.758C341.806 250.171 341.846 250.187 341.878 250.219C341.91 250.251 341.926 250.288 341.926 250.331C341.926 250.347 341.912 250.395 341.886 250.475L339.614 255.715C339.571 255.806 339.504 255.851 339.414 255.851H339.038ZM344.647 254.411C344.098 254.411 343.658 254.243 343.327 253.907C343.002 253.566 342.823 253.102 342.791 252.515L342.783 252.243L342.791 251.979C342.828 251.403 343.01 250.944 343.335 250.603C343.666 250.262 344.1 250.091 344.639 250.091C345.231 250.091 345.69 250.28 346.015 250.659C346.34 251.032 346.503 251.539 346.503 252.179V252.315C346.503 252.368 346.484 252.414 346.447 252.451C346.415 252.483 346.372 252.499 346.319 252.499H343.551V252.571C343.567 252.918 343.671 253.214 343.863 253.459C344.06 253.699 344.319 253.819 344.639 253.819C344.884 253.819 345.084 253.771 345.239 253.675C345.399 253.574 345.516 253.47 345.591 253.363C345.639 253.299 345.674 253.262 345.695 253.251C345.722 253.235 345.767 253.227 345.831 253.227H346.223C346.271 253.227 346.311 253.24 346.343 253.267C346.375 253.294 346.391 253.331 346.391 253.379C346.391 253.496 346.316 253.638 346.167 253.803C346.023 253.968 345.818 254.112 345.551 254.235C345.29 254.352 344.988 254.411 344.647 254.411ZM345.743 251.947V251.923C345.743 251.555 345.642 251.256 345.439 251.027C345.242 250.792 344.975 250.675 344.639 250.675C344.303 250.675 344.036 250.792 343.839 251.027C343.647 251.256 343.551 251.555 343.551 251.923V251.947H345.743ZM349.02 254.411C348.758 254.411 348.516 254.358 348.292 254.251C348.068 254.144 347.889 254 347.756 253.819C347.628 253.632 347.564 253.427 347.564 253.203C347.564 252.851 347.708 252.563 347.996 252.339C348.289 252.11 348.684 251.96 349.18 251.891L350.372 251.723V251.491C350.372 250.947 350.06 250.675 349.436 250.675C349.201 250.675 349.009 250.726 348.86 250.827C348.71 250.923 348.598 251.038 348.524 251.171C348.508 251.219 348.486 251.254 348.46 251.275C348.438 251.296 348.406 251.307 348.364 251.307H348.02C347.972 251.307 347.929 251.291 347.892 251.259C347.86 251.222 347.844 251.179 347.844 251.131C347.849 251.003 347.908 250.859 348.02 250.699C348.137 250.534 348.316 250.392 348.556 250.275C348.796 250.152 349.092 250.091 349.444 250.091C350.041 250.091 350.47 250.232 350.732 250.515C350.993 250.792 351.124 251.139 351.124 251.555V254.147C351.124 254.2 351.105 254.246 351.068 254.283C351.036 254.315 350.993 254.331 350.94 254.331H350.572C350.518 254.331 350.473 254.315 350.436 254.283C350.404 254.246 350.388 254.2 350.388 254.147V253.803C350.27 253.974 350.1 254.118 349.876 254.235C349.652 254.352 349.366 254.411 349.02 254.411ZM349.188 253.811C349.534 253.811 349.817 253.699 350.036 253.475C350.26 253.246 350.372 252.918 350.372 252.491V252.267L349.444 252.403C349.065 252.456 348.78 252.547 348.588 252.675C348.396 252.798 348.3 252.955 348.3 253.147C348.3 253.36 348.388 253.526 348.564 253.643C348.74 253.755 348.948 253.811 349.188 253.811ZM352.858 254.331C352.804 254.331 352.759 254.315 352.722 254.283C352.69 254.246 352.674 254.2 352.674 254.147V250.363C352.674 250.31 352.69 250.264 352.722 250.227C352.759 250.19 352.804 250.171 352.858 250.171H353.226C353.279 250.171 353.324 250.19 353.362 250.227C353.399 250.264 353.418 250.31 353.418 250.363V250.715C353.636 250.352 354.01 250.171 354.538 250.171H354.85C354.903 250.171 354.946 250.19 354.978 250.227C355.015 250.259 355.034 250.302 355.034 250.355V250.683C355.034 250.736 355.015 250.779 354.978 250.811C354.946 250.843 354.903 250.859 354.85 250.859H354.37C354.082 250.859 353.855 250.944 353.69 251.115C353.524 251.28 353.442 251.507 353.442 251.795V254.147C353.442 254.2 353.423 254.246 353.386 254.283C353.348 254.315 353.303 254.331 353.25 254.331H352.858ZM357.553 254.411C357.179 254.411 356.865 254.352 356.609 254.235C356.358 254.112 356.169 253.974 356.041 253.819C355.918 253.664 355.857 253.536 355.857 253.435C355.857 253.382 355.875 253.342 355.913 253.315C355.955 253.283 355.998 253.267 356.041 253.267H356.401C356.454 253.267 356.502 253.294 356.545 253.347C356.673 253.496 356.811 253.614 356.961 253.699C357.11 253.784 357.31 253.827 357.561 253.827C357.838 253.827 358.062 253.774 358.233 253.667C358.409 253.555 358.497 253.403 358.497 253.211C358.497 253.083 358.459 252.979 358.385 252.899C358.315 252.814 358.193 252.742 358.017 252.683C357.846 252.619 357.59 252.55 357.249 252.475C356.785 252.374 356.454 252.227 356.257 252.035C356.065 251.843 355.969 251.595 355.969 251.291C355.969 251.088 356.027 250.896 356.145 250.715C356.267 250.528 356.443 250.379 356.673 250.267C356.907 250.15 357.187 250.091 357.513 250.091C357.854 250.091 358.145 250.147 358.385 250.259C358.625 250.371 358.803 250.504 358.921 250.659C359.043 250.808 359.105 250.934 359.105 251.035C359.105 251.083 359.086 251.123 359.049 251.155C359.017 251.187 358.977 251.203 358.929 251.203H358.593C358.529 251.203 358.475 251.176 358.433 251.123C358.347 251.022 358.273 250.944 358.209 250.891C358.15 250.832 358.062 250.782 357.945 250.739C357.833 250.696 357.689 250.675 357.513 250.675C357.257 250.675 357.059 250.731 356.921 250.843C356.782 250.95 356.713 251.091 356.713 251.267C356.713 251.379 356.742 251.475 356.801 251.555C356.859 251.63 356.971 251.699 357.137 251.763C357.307 251.827 357.553 251.894 357.873 251.963C358.379 252.07 358.737 252.224 358.945 252.427C359.158 252.624 359.265 252.878 359.265 253.187C359.265 253.416 359.198 253.624 359.065 253.811C358.931 253.998 358.734 254.144 358.473 254.251C358.217 254.358 357.91 254.411 357.553 254.411Z" fill="#FCFCFC"/>
<path d="M483.443 254.411C483.022 254.411 482.656 254.344 482.347 254.211C482.043 254.072 481.811 253.894 481.651 253.675C481.496 253.456 481.414 253.227 481.403 252.987C481.403 252.939 481.419 252.902 481.451 252.875C481.483 252.843 481.523 252.827 481.571 252.827H481.963C482.075 252.827 482.15 252.886 482.187 253.003C482.256 253.27 482.406 253.459 482.635 253.571C482.864 253.678 483.134 253.731 483.443 253.731C483.822 253.731 484.123 253.643 484.347 253.467C484.571 253.286 484.683 253.027 484.683 252.691C484.683 252.046 484.291 251.723 483.507 251.723H482.747C482.694 251.723 482.648 251.707 482.611 251.675C482.579 251.638 482.563 251.592 482.563 251.539V251.323C482.563 251.248 482.592 251.176 482.651 251.107L484.203 249.411H481.843C481.79 249.411 481.744 249.395 481.707 249.363C481.675 249.326 481.659 249.28 481.659 249.227V248.923C481.659 248.87 481.675 248.824 481.707 248.787C481.744 248.75 481.79 248.731 481.843 248.731H485.035C485.094 248.731 485.139 248.75 485.171 248.787C485.208 248.819 485.227 248.864 485.227 248.923V249.211C485.227 249.275 485.198 249.336 485.139 249.395L483.595 251.115L483.723 251.123C484.267 251.139 484.696 251.28 485.011 251.547C485.326 251.814 485.483 252.203 485.483 252.715C485.483 253.062 485.395 253.363 485.219 253.619C485.043 253.875 484.8 254.072 484.491 254.211C484.182 254.344 483.832 254.411 483.443 254.411ZM489.726 255.851C489.683 255.851 489.646 255.835 489.614 255.803C489.582 255.771 489.566 255.734 489.566 255.691C489.566 255.654 489.579 255.606 489.606 255.547L490.222 254.083L488.694 250.475C488.667 250.406 488.654 250.36 488.654 250.339C488.654 250.291 488.67 250.251 488.702 250.219C488.734 250.187 488.774 250.171 488.822 250.171H489.214C489.299 250.171 489.363 250.216 489.406 250.307L490.622 253.219L491.87 250.307C491.913 250.216 491.979 250.171 492.07 250.171H492.446C492.494 250.171 492.534 250.187 492.566 250.219C492.598 250.251 492.614 250.288 492.614 250.331C492.614 250.347 492.601 250.395 492.574 250.475L490.302 255.715C490.259 255.806 490.193 255.851 490.102 255.851H489.726ZM495.335 254.411C494.786 254.411 494.346 254.243 494.015 253.907C493.69 253.566 493.511 253.102 493.479 252.515L493.471 252.243L493.479 251.979C493.517 251.403 493.698 250.944 494.023 250.603C494.354 250.262 494.789 250.091 495.327 250.091C495.919 250.091 496.378 250.28 496.703 250.659C497.029 251.032 497.191 251.539 497.191 252.179V252.315C497.191 252.368 497.173 252.414 497.135 252.451C497.103 252.483 497.061 252.499 497.007 252.499H494.239V252.571C494.255 252.918 494.359 253.214 494.551 253.459C494.749 253.699 495.007 253.819 495.327 253.819C495.573 253.819 495.773 253.771 495.927 253.675C496.087 253.574 496.205 253.47 496.279 253.363C496.327 253.299 496.362 253.262 496.383 253.251C496.41 253.235 496.455 253.227 496.519 253.227H496.911C496.959 253.227 496.999 253.24 497.031 253.267C497.063 253.294 497.079 253.331 497.079 253.379C497.079 253.496 497.005 253.638 496.855 253.803C496.711 253.968 496.506 254.112 496.239 254.235C495.978 254.352 495.677 254.411 495.335 254.411ZM496.431 251.947V251.923C496.431 251.555 496.33 251.256 496.127 251.027C495.93 250.792 495.663 250.675 495.327 250.675C494.991 250.675 494.725 250.792 494.527 251.027C494.335 251.256 494.239 251.555 494.239 251.923V251.947H496.431ZM499.708 254.411C499.447 254.411 499.204 254.358 498.98 254.251C498.756 254.144 498.577 254 498.444 253.819C498.316 253.632 498.252 253.427 498.252 253.203C498.252 252.851 498.396 252.563 498.684 252.339C498.977 252.11 499.372 251.96 499.868 251.891L501.06 251.723V251.491C501.06 250.947 500.748 250.675 500.124 250.675C499.889 250.675 499.697 250.726 499.548 250.827C499.399 250.923 499.287 251.038 499.212 251.171C499.196 251.219 499.175 251.254 499.148 251.275C499.127 251.296 499.095 251.307 499.052 251.307H498.708C498.66 251.307 498.617 251.291 498.58 251.259C498.548 251.222 498.532 251.179 498.532 251.131C498.537 251.003 498.596 250.859 498.708 250.699C498.825 250.534 499.004 250.392 499.244 250.275C499.484 250.152 499.78 250.091 500.132 250.091C500.729 250.091 501.159 250.232 501.42 250.515C501.681 250.792 501.812 251.139 501.812 251.555V254.147C501.812 254.2 501.793 254.246 501.756 254.283C501.724 254.315 501.681 254.331 501.628 254.331H501.26C501.207 254.331 501.161 254.315 501.124 254.283C501.092 254.246 501.076 254.2 501.076 254.147V253.803C500.959 253.974 500.788 254.118 500.564 254.235C500.34 254.352 500.055 254.411 499.708 254.411ZM499.876 253.811C500.223 253.811 500.505 253.699 500.724 253.475C500.948 253.246 501.06 252.918 501.06 252.491V252.267L500.132 252.403C499.753 252.456 499.468 252.547 499.276 252.675C499.084 252.798 498.988 252.955 498.988 253.147C498.988 253.36 499.076 253.526 499.252 253.643C499.428 253.755 499.636 253.811 499.876 253.811ZM503.546 254.331C503.493 254.331 503.447 254.315 503.41 254.283C503.378 254.246 503.362 254.2 503.362 254.147V250.363C503.362 250.31 503.378 250.264 503.41 250.227C503.447 250.19 503.493 250.171 503.546 250.171H503.914C503.967 250.171 504.013 250.19 504.05 250.227C504.087 250.264 504.106 250.31 504.106 250.363V250.715C504.325 250.352 504.698 250.171 505.226 250.171H505.538C505.591 250.171 505.634 250.19 505.666 250.227C505.703 250.259 505.722 250.302 505.722 250.355V250.683C505.722 250.736 505.703 250.779 505.666 250.811C505.634 250.843 505.591 250.859 505.538 250.859H505.058C504.77 250.859 504.543 250.944 504.378 251.115C504.213 251.28 504.13 251.507 504.13 251.795V254.147C504.13 254.2 504.111 254.246 504.074 254.283C504.037 254.315 503.991 254.331 503.938 254.331H503.546ZM508.241 254.411C507.868 254.411 507.553 254.352 507.297 254.235C507.046 254.112 506.857 253.974 506.729 253.819C506.606 253.664 506.545 253.536 506.545 253.435C506.545 253.382 506.564 253.342 506.601 253.315C506.644 253.283 506.686 253.267 506.729 253.267H507.089C507.142 253.267 507.19 253.294 507.233 253.347C507.361 253.496 507.5 253.614 507.649 253.699C507.798 253.784 507.998 253.827 508.249 253.827C508.526 253.827 508.75 253.774 508.921 253.667C509.097 253.555 509.185 253.403 509.185 253.211C509.185 253.083 509.148 252.979 509.073 252.899C509.004 252.814 508.881 252.742 508.705 252.683C508.534 252.619 508.278 252.55 507.937 252.475C507.473 252.374 507.142 252.227 506.945 252.035C506.753 251.843 506.657 251.595 506.657 251.291C506.657 251.088 506.716 250.896 506.833 250.715C506.956 250.528 507.132 250.379 507.361 250.267C507.596 250.15 507.876 250.091 508.201 250.091C508.542 250.091 508.833 250.147 509.073 250.259C509.313 250.371 509.492 250.504 509.609 250.659C509.732 250.808 509.793 250.934 509.793 251.035C509.793 251.083 509.774 251.123 509.737 251.155C509.705 251.187 509.665 251.203 509.617 251.203H509.281C509.217 251.203 509.164 251.176 509.121 251.123C509.036 251.022 508.961 250.944 508.897 250.891C508.838 250.832 508.75 250.782 508.633 250.739C508.521 250.696 508.377 250.675 508.201 250.675C507.945 250.675 507.748 250.731 507.609 250.843C507.47 250.95 507.401 251.091 507.401 251.267C507.401 251.379 507.43 251.475 507.489 251.555C507.548 251.63 507.66 251.699 507.825 251.763C507.996 251.827 508.241 251.894 508.561 251.963C509.068 252.07 509.425 252.224 509.633 252.427C509.846 252.624 509.953 252.878 509.953 253.187C509.953 253.416 509.886 253.624 509.753 253.811C509.62 253.998 509.422 254.144 509.161 254.251C508.905 254.358 508.598 254.411 508.241 254.411Z" fill="#FCFCFC"/>
<path d="M66.6387 203.043L28.4346 230.313H506.863V18.7944L339.325 54.1058L183.004 109.345L66.6387 203.043Z" fill="#C2E5CB"/>
<path d="M28.4346 229.964L66.6387 203.043L183.004 109.345L339.325 54.1058L506.863 18.7944" stroke="#34A853" stroke-width="0.818485"/>
<path d="M110.825 213.531L67.6777 230.662H506.863V155.145H335.679L182.385 177.521L110.825 213.531Z" fill="#FEEBB3"/>
<path d="M67.5321 229.581C67.3209 229.661 67.2148 229.898 67.2953 230.109C67.3757 230.32 67.6122 230.426 67.8234 230.346L67.5321 229.581ZM110.825 213.531L110.97 213.914L110.99 213.906L111.009 213.897L110.825 213.531ZM182.385 177.521L182.326 177.116L182.26 177.125L182.201 177.155L182.385 177.521ZM335.679 155.145V154.736H335.649L335.62 154.74L335.679 155.145ZM67.8234 230.346L110.97 213.914L110.679 213.149L67.5321 229.581L67.8234 230.346ZM111.009 213.897L182.569 177.886L182.201 177.155L110.641 213.166L111.009 213.897ZM182.444 177.926L335.738 155.55L335.62 154.74L182.326 177.116L182.444 177.926ZM335.679 155.554H506.863V154.736H335.679V155.554Z" fill="#FFBF00"/>
<path d="M115.488 214.19L68.4951 230.662H506.863V189.656H335.724H182.471L115.488 214.19Z" fill="#F9C6C2"/>
<path d="M68.3597 230.276L67.9735 230.412L68.2443 231.184L68.6305 231.049L68.3597 230.276ZM115.488 214.19L115.624 214.576L115.629 214.574L115.488 214.19ZM182.471 189.656V189.247H182.398L182.33 189.271L182.471 189.656ZM68.6305 231.049L115.624 214.576L115.353 213.803L68.3597 230.276L68.6305 231.049ZM115.629 214.574L182.612 190.04L182.33 189.271L115.347 213.805L115.629 214.574ZM182.471 190.065H335.724V189.247H182.471V190.065ZM335.724 190.065H506.863V189.247H335.724V190.065Z" fill="#EA4335"/>
<path d="M109.354 224.369L68.7275 229.963H506.863V216.678H333.5H179.75L109.354 224.369Z" fill="#C6DAFC"/>
<path d="M68.6717 229.558L68.2663 229.614L68.3779 230.424L68.7834 230.369L68.6717 229.558ZM109.354 224.369L109.31 223.962L109.298 223.964L109.354 224.369ZM179.75 216.678V216.268H179.728L179.705 216.271L179.75 216.678ZM68.7834 230.369L109.41 224.775L109.298 223.964L68.6717 229.558L68.7834 230.369ZM109.398 224.776L179.794 217.085L179.705 216.271L109.31 223.963L109.398 224.776ZM179.75 217.087H333.5V216.268H179.75V217.087ZM333.5 217.087H506.863V216.268H333.5V217.087Z" fill="#4285F4"/>
<path d="M505.151 230.662H27.3984V8.54297" stroke="white" stroke-width="0.833819" stroke-linecap="round"/>
<rect x="28" y="291.002" width="14" height="13.9957" rx="2" fill="#34A853"/>
<path d="M51.76 303C51.6533 303 51.5627 302.968 51.488 302.904C51.424 302.829 51.392 302.739 51.392 302.632V292.184C51.392 292.067 51.424 291.976 51.488 291.912C51.5627 291.837 51.6533 291.8 51.76 291.8H55.392C57.0027 291.8 58.1653 292.163 58.88 292.888C59.5947 293.603 59.968 294.685 60 296.136C60.0107 296.445 60.016 296.861 60.016 297.384C60.016 297.907 60.0107 298.328 60 298.648C59.968 299.661 59.7973 300.488 59.488 301.128C59.1893 301.757 58.7147 302.227 58.064 302.536C57.4133 302.845 56.5493 303 55.472 303H51.76ZM55.392 301.64C56.128 301.64 56.7093 301.539 57.136 301.336C57.5733 301.133 57.888 300.813 58.08 300.376C58.2827 299.928 58.3947 299.331 58.416 298.584C58.4373 297.944 58.448 297.544 58.448 297.384C58.448 297.213 58.4373 296.819 58.416 296.2C58.3947 295.144 58.144 294.376 57.664 293.896C57.184 293.405 56.4 293.16 55.312 293.16H52.96V301.64H55.392ZM62.2838 303C62.1984 303 62.1238 302.968 62.0598 302.904C61.9958 302.84 61.9638 302.765 61.9638 302.68C61.9638 302.595 61.9691 302.536 61.9798 302.504L65.9478 292.152C66.0331 291.917 66.2038 291.8 66.4598 291.8H67.5478C67.8038 291.8 67.9744 291.917 68.0598 292.152L72.0118 302.504L72.0438 302.68C72.0438 302.765 72.0118 302.84 71.9478 302.904C71.8838 302.968 71.8091 303 71.7238 303H70.9078C70.7904 303 70.6998 302.973 70.6358 302.92C70.5718 302.856 70.5291 302.792 70.5078 302.728L69.6278 300.456H64.3798L63.4998 302.728C63.4784 302.792 63.4304 302.856 63.3558 302.92C63.2918 302.973 63.2064 303 63.0998 303H62.2838ZM69.1638 299.08L67.0038 293.4L64.8438 299.08H69.1638ZM78.3834 303.16C76.986 303.16 75.9034 302.797 75.1354 302.072C74.378 301.336 73.978 300.232 73.9354 298.76C73.9247 298.44 73.9194 297.987 73.9194 297.4C73.9194 296.813 73.9247 296.365 73.9354 296.056C73.978 294.616 74.394 293.523 75.1834 292.776C75.9727 292.019 77.0394 291.64 78.3834 291.64C79.7167 291.64 80.778 292.019 81.5674 292.776C82.3567 293.523 82.7727 294.616 82.8154 296.056C82.8367 296.675 82.8474 297.123 82.8474 297.4C82.8474 297.667 82.8367 298.12 82.8154 298.76C82.7727 300.232 82.3674 301.336 81.5994 302.072C80.842 302.797 79.77 303.16 78.3834 303.16ZM78.3834 301.8C79.226 301.8 79.898 301.544 80.3994 301.032C80.9007 300.52 81.1727 299.736 81.2154 298.68C81.2367 298.04 81.2474 297.613 81.2474 297.4C81.2474 297.165 81.2367 296.739 81.2154 296.12C81.1727 295.064 80.8954 294.28 80.3834 293.768C79.882 293.256 79.2154 293 78.3834 293C77.5407 293 76.8634 293.256 76.3514 293.768C75.85 294.28 75.578 295.064 75.5354 296.12C75.5247 296.429 75.5194 296.856 75.5194 297.4C75.5194 297.933 75.5247 298.36 75.5354 298.68C75.578 299.736 75.85 300.52 76.3514 301.032C76.8634 301.544 77.5407 301.8 78.3834 301.8ZM93.9014 303.16C93.176 303.16 92.5307 303.027 91.9654 302.76C91.4107 302.493 90.9787 302.12 90.6694 301.64C90.36 301.16 90.2054 300.616 90.2054 300.008C90.2054 299.336 90.4027 298.765 90.7974 298.296C91.192 297.816 91.7467 297.368 92.4614 296.952C91.96 296.419 91.6027 295.955 91.3894 295.56C91.1867 295.155 91.0854 294.728 91.0854 294.28C91.0854 293.8 91.208 293.363 91.4534 292.968C91.6987 292.563 92.0507 292.243 92.5094 292.008C92.968 291.763 93.4907 291.64 94.0774 291.64C94.6534 291.64 95.1654 291.757 95.6134 291.992C96.0614 292.216 96.408 292.531 96.6534 292.936C96.8987 293.331 97.0214 293.773 97.0214 294.264C97.0214 294.915 96.8134 295.459 96.3974 295.896C95.9814 296.333 95.3787 296.776 94.5894 297.224L97.3094 299.896C97.736 299.181 98.024 298.371 98.1734 297.464C98.184 297.368 98.216 297.293 98.2694 297.24C98.3334 297.176 98.4134 297.144 98.5094 297.144H99.2134C99.3094 297.144 99.3894 297.176 99.4534 297.24C99.5174 297.304 99.5494 297.384 99.5494 297.48C99.5387 297.949 99.416 298.488 99.1814 299.096C98.9574 299.693 98.648 300.269 98.2534 300.824L99.8854 302.456C99.9814 302.552 100.029 302.632 100.029 302.696C100.029 302.899 99.9227 303 99.7094 303H98.8134C98.6107 303 98.4667 302.947 98.3814 302.84L97.3254 301.8C96.3974 302.707 95.256 303.16 93.9014 303.16ZM93.7094 296.296C94.3494 295.944 94.8294 295.624 95.1494 295.336C95.4694 295.048 95.6294 294.696 95.6294 294.28C95.6294 293.864 95.48 293.528 95.1814 293.272C94.8827 293.005 94.5147 292.872 94.0774 292.872C93.6507 292.872 93.2827 293.005 92.9734 293.272C92.6747 293.528 92.5254 293.869 92.5254 294.296C92.5254 294.584 92.6054 294.872 92.7654 295.16C92.936 295.437 93.2507 295.816 93.7094 296.296ZM93.9014 301.88C94.3387 301.88 94.7707 301.789 95.1974 301.608C95.624 301.427 96.0134 301.16 96.3654 300.808L93.3734 297.896C92.8294 298.205 92.408 298.52 92.1094 298.84C91.8214 299.16 91.6774 299.539 91.6774 299.976C91.6774 300.563 91.896 301.027 92.3334 301.368C92.7707 301.709 93.2934 301.88 93.9014 301.88ZM107.701 303C107.594 303 107.503 302.968 107.429 302.904C107.365 302.829 107.333 302.739 107.333 302.632V292.184C107.333 292.067 107.365 291.976 107.429 291.912C107.503 291.837 107.594 291.8 107.701 291.8H111.605C112.831 291.8 113.791 292.088 114.485 292.664C115.178 293.24 115.525 294.072 115.525 295.16C115.525 295.971 115.322 296.637 114.917 297.16C114.522 297.683 113.962 298.045 113.237 298.248L115.701 302.504C115.733 302.568 115.749 302.627 115.749 302.68C115.749 302.765 115.711 302.84 115.637 302.904C115.573 302.968 115.498 303 115.413 303H114.645C114.485 303 114.357 302.963 114.261 302.888C114.175 302.813 114.095 302.707 114.021 302.568L111.701 298.504H108.901V302.632C108.901 302.739 108.863 302.829 108.789 302.904C108.714 302.968 108.623 303 108.517 303H107.701ZM111.541 297.144C113.13 297.144 113.925 296.477 113.925 295.144C113.925 293.811 113.13 293.144 111.541 293.144H108.901V297.144H111.541ZM121.643 303.16C120.545 303.16 119.665 302.824 119.003 302.152C118.353 301.469 117.995 300.541 117.931 299.368L117.915 298.824L117.931 298.296C118.006 297.144 118.369 296.227 119.019 295.544C119.681 294.861 120.55 294.52 121.627 294.52C122.811 294.52 123.729 294.899 124.379 295.656C125.03 296.403 125.355 297.416 125.355 298.696V298.968C125.355 299.075 125.318 299.165 125.243 299.24C125.179 299.304 125.094 299.336 124.987 299.336H119.451V299.48C119.483 300.173 119.691 300.765 120.075 301.256C120.47 301.736 120.987 301.976 121.627 301.976C122.118 301.976 122.518 301.88 122.827 301.688C123.147 301.485 123.382 301.277 123.531 301.064C123.627 300.936 123.697 300.861 123.739 300.84C123.793 300.808 123.883 300.792 124.011 300.792H124.795C124.891 300.792 124.971 300.819 125.035 300.872C125.099 300.925 125.131 301 125.131 301.096C125.131 301.331 124.982 301.613 124.683 301.944C124.395 302.275 123.985 302.563 123.451 302.808C122.929 303.043 122.326 303.16 121.643 303.16ZM123.835 298.232V298.184C123.835 297.448 123.633 296.851 123.227 296.392C122.833 295.923 122.299 295.688 121.627 295.688C120.955 295.688 120.422 295.923 120.027 296.392C119.643 296.851 119.451 297.448 119.451 298.184V298.232H123.835ZM130.058 303C129.919 303 129.812 302.968 129.738 302.904C129.663 302.84 129.599 302.739 129.546 302.6L127.274 295.176L127.242 295.016C127.242 294.92 127.274 294.84 127.338 294.776C127.412 294.712 127.492 294.68 127.578 294.68H128.282C128.388 294.68 128.474 294.712 128.538 294.776C128.612 294.829 128.66 294.888 128.682 294.952L130.458 300.984L132.362 295.016C132.383 294.931 132.431 294.856 132.506 294.792C132.58 294.717 132.682 294.68 132.81 294.68H133.354C133.482 294.68 133.583 294.717 133.658 294.792C133.732 294.856 133.78 294.931 133.802 295.016L135.706 300.984L137.482 294.952C137.492 294.899 137.53 294.84 137.594 294.776C137.668 294.712 137.759 294.68 137.866 294.68H138.586C138.671 294.68 138.746 294.712 138.81 294.776C138.874 294.84 138.906 294.92 138.906 295.016L138.874 295.176L136.618 302.6C136.564 302.739 136.5 302.84 136.426 302.904C136.351 302.968 136.239 303 136.09 303H135.466C135.178 303 135.002 302.867 134.938 302.6L133.082 296.872L131.226 302.6C131.14 302.867 130.959 303 130.682 303H130.058ZM143.563 303.16C143.041 303.16 142.555 303.053 142.107 302.84C141.659 302.627 141.302 302.339 141.035 301.976C140.779 301.603 140.651 301.192 140.651 300.744C140.651 300.04 140.939 299.464 141.515 299.016C142.102 298.557 142.891 298.259 143.883 298.12L146.267 297.784V297.32C146.267 296.232 145.643 295.688 144.395 295.688C143.926 295.688 143.542 295.789 143.243 295.992C142.945 296.184 142.721 296.413 142.571 296.68C142.539 296.776 142.497 296.845 142.443 296.888C142.401 296.931 142.337 296.952 142.251 296.952H141.563C141.467 296.952 141.382 296.92 141.307 296.856C141.243 296.781 141.211 296.696 141.211 296.6C141.222 296.344 141.339 296.056 141.563 295.736C141.798 295.405 142.155 295.123 142.635 294.888C143.115 294.643 143.707 294.52 144.411 294.52C145.606 294.52 146.465 294.803 146.987 295.368C147.51 295.923 147.771 296.616 147.771 297.448V302.632C147.771 302.739 147.734 302.829 147.659 302.904C147.595 302.968 147.51 303 147.403 303H146.667C146.561 303 146.47 302.968 146.395 302.904C146.331 302.829 146.299 302.739 146.299 302.632V301.944C146.065 302.285 145.723 302.573 145.275 302.808C144.827 303.043 144.257 303.16 143.563 303.16ZM143.899 301.96C144.593 301.96 145.158 301.736 145.595 301.288C146.043 300.829 146.267 300.173 146.267 299.32V298.872L144.411 299.144C143.654 299.251 143.083 299.432 142.699 299.688C142.315 299.933 142.123 300.248 142.123 300.632C142.123 301.059 142.299 301.389 142.651 301.624C143.003 301.848 143.419 301.96 143.899 301.96ZM151.24 303C151.133 303 151.042 302.968 150.968 302.904C150.904 302.829 150.872 302.739 150.872 302.632V295.064C150.872 294.957 150.904 294.867 150.968 294.792C151.042 294.717 151.133 294.68 151.24 294.68H151.976C152.082 294.68 152.173 294.717 152.248 294.792C152.322 294.867 152.36 294.957 152.36 295.064V295.768C152.797 295.043 153.544 294.68 154.6 294.68H155.224C155.33 294.68 155.416 294.717 155.48 294.792C155.554 294.856 155.592 294.941 155.592 295.048V295.704C155.592 295.811 155.554 295.896 155.48 295.96C155.416 296.024 155.33 296.056 155.224 296.056H154.264C153.688 296.056 153.234 296.227 152.904 296.568C152.573 296.899 152.408 297.352 152.408 297.928V302.632C152.408 302.739 152.37 302.829 152.296 302.904C152.221 302.968 152.13 303 152.024 303H151.24ZM160.618 303.16C159.508 303.16 158.671 302.797 158.106 302.072C157.54 301.347 157.242 300.429 157.21 299.32L157.194 298.84L157.21 298.36C157.242 297.261 157.54 296.349 158.106 295.624C158.671 294.888 159.508 294.52 160.618 294.52C161.716 294.52 162.58 294.909 163.21 295.688V292.008C163.21 291.901 163.242 291.816 163.306 291.752C163.38 291.677 163.471 291.64 163.578 291.64H164.346C164.452 291.64 164.538 291.677 164.602 291.752C164.676 291.816 164.714 291.901 164.714 292.008V302.632C164.714 302.739 164.676 302.829 164.602 302.904C164.538 302.968 164.452 303 164.346 303H163.626C163.519 303 163.428 302.968 163.354 302.904C163.29 302.829 163.258 302.739 163.258 302.632V301.96C162.639 302.76 161.759 303.16 160.618 303.16ZM160.954 301.864C161.69 301.864 162.239 301.624 162.602 301.144C162.975 300.653 163.178 300.072 163.21 299.4C163.22 299.283 163.226 299.08 163.226 298.792C163.226 298.493 163.22 298.285 163.21 298.168C163.188 297.539 162.986 296.989 162.602 296.52C162.218 296.051 161.668 295.816 160.954 295.816C160.196 295.816 159.642 296.051 159.29 296.52C158.948 296.989 158.762 297.608 158.73 298.376L158.714 298.84C158.714 300.856 159.46 301.864 160.954 301.864ZM170.773 303.16C170.027 303.16 169.397 303.043 168.885 302.808C168.384 302.563 168.005 302.285 167.749 301.976C167.504 301.667 167.381 301.411 167.381 301.208C167.381 301.101 167.419 301.021 167.493 300.968C167.579 300.904 167.664 300.872 167.749 300.872H168.469C168.576 300.872 168.672 300.925 168.757 301.032C169.013 301.331 169.291 301.565 169.589 301.736C169.888 301.907 170.288 301.992 170.789 301.992C171.344 301.992 171.792 301.885 172.133 301.672C172.485 301.448 172.661 301.144 172.661 300.76C172.661 300.504 172.587 300.296 172.437 300.136C172.299 299.965 172.053 299.821 171.701 299.704C171.36 299.576 170.848 299.437 170.165 299.288C169.237 299.085 168.576 298.792 168.181 298.408C167.797 298.024 167.605 297.528 167.605 296.92C167.605 296.515 167.723 296.131 167.957 295.768C168.203 295.395 168.555 295.096 169.013 294.872C169.483 294.637 170.043 294.52 170.693 294.52C171.376 294.52 171.957 294.632 172.437 294.856C172.917 295.08 173.275 295.347 173.509 295.656C173.755 295.955 173.877 296.205 173.877 296.408C173.877 296.504 173.84 296.584 173.765 296.648C173.701 296.712 173.621 296.744 173.525 296.744H172.853C172.725 296.744 172.619 296.691 172.533 296.584C172.363 296.381 172.213 296.227 172.085 296.12C171.968 296.003 171.792 295.901 171.557 295.816C171.333 295.731 171.045 295.688 170.693 295.688C170.181 295.688 169.787 295.8 169.509 296.024C169.232 296.237 169.093 296.52 169.093 296.872C169.093 297.096 169.152 297.288 169.269 297.448C169.387 297.597 169.611 297.736 169.941 297.864C170.283 297.992 170.773 298.125 171.413 298.264C172.427 298.477 173.141 298.787 173.557 299.192C173.984 299.587 174.197 300.093 174.197 300.712C174.197 301.171 174.064 301.587 173.797 301.96C173.531 302.333 173.136 302.627 172.613 302.84C172.101 303.053 171.488 303.16 170.773 303.16Z" fill="#FCFCFC"/>
<rect x="445" y="291.002" width="14" height="13.9957" rx="2" fill="#FBBC04"/>
<path d="M471.208 303C471.101 303 471.011 302.968 470.936 302.904C470.872 302.829 470.84 302.739 470.84 302.632V293.224H467.768C467.661 293.224 467.571 293.192 467.496 293.128C467.432 293.053 467.4 292.963 467.4 292.856V292.184C467.4 292.077 467.432 291.987 467.496 291.912C467.571 291.837 467.661 291.8 467.768 291.8H475.48C475.597 291.8 475.688 291.837 475.752 291.912C475.827 291.976 475.864 292.067 475.864 292.184V292.856C475.864 292.963 475.827 293.053 475.752 293.128C475.677 293.192 475.587 293.224 475.48 293.224H472.424V302.632C472.424 302.739 472.387 302.829 472.312 302.904C472.237 302.968 472.147 303 472.04 303H471.208ZM480.046 303.16C478.948 303.16 478.068 302.824 477.406 302.152C476.756 301.469 476.398 300.541 476.334 299.368L476.318 298.824L476.334 298.296C476.409 297.144 476.772 296.227 477.422 295.544C478.084 294.861 478.953 294.52 480.03 294.52C481.214 294.52 482.132 294.899 482.782 295.656C483.433 296.403 483.758 297.416 483.758 298.696V298.968C483.758 299.075 483.721 299.165 483.646 299.24C483.582 299.304 483.497 299.336 483.39 299.336H477.854V299.48C477.886 300.173 478.094 300.765 478.478 301.256C478.873 301.736 479.39 301.976 480.03 301.976C480.521 301.976 480.921 301.88 481.23 301.688C481.55 301.485 481.785 301.277 481.934 301.064C482.03 300.936 482.1 300.861 482.142 300.84C482.196 300.808 482.286 300.792 482.414 300.792H483.198C483.294 300.792 483.374 300.819 483.438 300.872C483.502 300.925 483.534 301 483.534 301.096C483.534 301.331 483.385 301.613 483.086 301.944C482.798 302.275 482.388 302.563 481.854 302.808C481.332 303.043 480.729 303.16 480.046 303.16ZM482.238 298.232V298.184C482.238 297.448 482.036 296.851 481.63 296.392C481.236 295.923 480.702 295.688 480.03 295.688C479.358 295.688 478.825 295.923 478.43 296.392C478.046 296.851 477.854 297.448 477.854 298.184V298.232H482.238ZM488.792 303.16C488.269 303.16 487.784 303.053 487.336 302.84C486.888 302.627 486.53 302.339 486.264 301.976C486.008 301.603 485.88 301.192 485.88 300.744C485.88 300.04 486.168 299.464 486.744 299.016C487.33 298.557 488.12 298.259 489.112 298.12L491.496 297.784V297.32C491.496 296.232 490.872 295.688 489.624 295.688C489.154 295.688 488.77 295.789 488.472 295.992C488.173 296.184 487.949 296.413 487.8 296.68C487.768 296.776 487.725 296.845 487.672 296.888C487.629 296.931 487.565 296.952 487.48 296.952H486.792C486.696 296.952 486.61 296.92 486.536 296.856C486.472 296.781 486.44 296.696 486.44 296.6C486.45 296.344 486.568 296.056 486.792 295.736C487.026 295.405 487.384 295.123 487.864 294.888C488.344 294.643 488.936 294.52 489.64 294.52C490.834 294.52 491.693 294.803 492.216 295.368C492.738 295.923 493 296.616 493 297.448V302.632C493 302.739 492.962 302.829 492.888 302.904C492.824 302.968 492.738 303 492.632 303H491.896C491.789 303 491.698 302.968 491.624 302.904C491.56 302.829 491.528 302.739 491.528 302.632V301.944C491.293 302.285 490.952 302.573 490.504 302.808C490.056 303.043 489.485 303.16 488.792 303.16ZM489.128 301.96C489.821 301.96 490.386 301.736 490.824 301.288C491.272 300.829 491.496 300.173 491.496 299.32V298.872L489.64 299.144C488.882 299.251 488.312 299.432 487.928 299.688C487.544 299.933 487.352 300.248 487.352 300.632C487.352 301.059 487.528 301.389 487.88 301.624C488.232 301.848 488.648 301.96 489.128 301.96ZM496.468 303C496.361 303 496.27 302.968 496.196 302.904C496.132 302.829 496.1 302.739 496.1 302.632V295.048C496.1 294.941 496.132 294.856 496.196 294.792C496.27 294.717 496.361 294.68 496.468 294.68H497.188C497.294 294.68 497.38 294.717 497.444 294.792C497.518 294.856 497.556 294.941 497.556 295.048V295.608C498.11 294.883 498.884 294.52 499.876 294.52C501.06 294.52 501.897 295.011 502.388 295.992C502.644 295.544 503.006 295.187 503.476 294.92C503.945 294.653 504.473 294.52 505.06 294.52C505.934 294.52 506.649 294.819 507.204 295.416C507.758 296.013 508.036 296.877 508.036 298.008V302.632C508.036 302.739 507.998 302.829 507.924 302.904C507.86 302.968 507.774 303 507.668 303H506.916C506.809 303 506.718 302.968 506.644 302.904C506.58 302.829 506.548 302.739 506.548 302.632V298.152C506.548 297.32 506.372 296.723 506.02 296.36C505.678 295.997 505.225 295.816 504.66 295.816C504.158 295.816 503.726 296.003 503.364 296.376C503.001 296.739 502.82 297.331 502.82 298.152V302.632C502.82 302.739 502.782 302.829 502.708 302.904C502.644 302.968 502.558 303 502.452 303H501.7C501.593 303 501.502 302.968 501.428 302.904C501.364 302.829 501.332 302.739 501.332 302.632V298.152C501.332 297.32 501.15 296.723 500.788 296.36C500.436 295.997 499.988 295.816 499.444 295.816C498.942 295.816 498.51 296.003 498.148 296.376C497.785 296.739 497.604 297.325 497.604 298.136V302.632C497.604 302.739 497.566 302.829 497.492 302.904C497.428 302.968 497.342 303 497.236 303H496.468Z" fill="#FCFCFC"/>
<rect x="28" y="331.002" width="14" height="13.9957" rx="2" fill="#EA4335"/>
<path d="M54.992 343.16C54.1067 343.16 53.3387 343.021 52.688 342.744C52.048 342.467 51.5573 342.104 51.216 341.656C50.8747 341.197 50.6933 340.707 50.672 340.184C50.672 340.099 50.704 340.024 50.768 339.96C50.8427 339.885 50.928 339.848 51.024 339.848H51.84C52.0427 339.848 52.1813 339.955 52.256 340.168C52.352 340.616 52.624 341 53.072 341.32C53.5307 341.64 54.1707 341.8 54.992 341.8C55.8773 341.8 56.544 341.645 56.992 341.336C57.44 341.016 57.664 340.573 57.664 340.008C57.664 339.645 57.552 339.352 57.328 339.128C57.1147 338.904 56.7947 338.707 56.368 338.536C55.9413 338.365 55.3013 338.152 54.448 337.896C53.616 337.661 52.9547 337.411 52.464 337.144C51.9733 336.877 51.6053 336.547 51.36 336.152C51.1147 335.757 50.992 335.261 50.992 334.664C50.992 334.088 51.1467 333.571 51.456 333.112C51.776 332.653 52.2293 332.296 52.816 332.04C53.4027 331.773 54.1013 331.64 54.912 331.64C55.744 331.64 56.4587 331.789 57.056 332.088C57.6533 332.376 58.1067 332.744 58.416 333.192C58.7253 333.64 58.8907 334.088 58.912 334.536C58.912 334.621 58.88 334.696 58.816 334.76C58.7627 334.824 58.6827 334.856 58.576 334.856H57.728C57.504 334.856 57.3653 334.755 57.312 334.552C57.248 334.104 56.9973 333.736 56.56 333.448C56.1227 333.149 55.5733 333 54.912 333C54.1867 333 53.616 333.139 53.2 333.416C52.784 333.693 52.576 334.104 52.576 334.648C52.576 335.011 52.672 335.309 52.864 335.544C53.0667 335.779 53.3707 335.987 53.776 336.168C54.1813 336.339 54.7733 336.536 55.552 336.76C56.4587 337.005 57.1733 337.261 57.696 337.528C58.2187 337.784 58.608 338.109 58.864 338.504C59.12 338.888 59.248 339.379 59.248 339.976C59.248 340.968 58.864 341.747 58.096 342.312C57.328 342.877 56.2933 343.16 54.992 343.16ZM65.2651 343.16C64.1665 343.16 63.2865 342.824 62.6251 342.152C61.9745 341.469 61.6171 340.541 61.5531 339.368L61.5371 338.824L61.5531 338.296C61.6278 337.144 61.9905 336.227 62.6411 335.544C63.3025 334.861 64.1718 334.52 65.2491 334.52C66.4331 334.52 67.3505 334.899 68.0011 335.656C68.6518 336.403 68.9771 337.416 68.9771 338.696V338.968C68.9771 339.075 68.9398 339.165 68.8651 339.24C68.8011 339.304 68.7158 339.336 68.6091 339.336H63.0731V339.48C63.1051 340.173 63.3131 340.765 63.6971 341.256C64.0918 341.736 64.6091 341.976 65.2491 341.976C65.7398 341.976 66.1398 341.88 66.4491 341.688C66.7691 341.485 67.0038 341.277 67.1531 341.064C67.2491 340.936 67.3185 340.861 67.3611 340.84C67.4145 340.808 67.5051 340.792 67.6331 340.792H68.4171C68.5131 340.792 68.5931 340.819 68.6571 340.872C68.7211 340.925 68.7531 341 68.7531 341.096C68.7531 341.331 68.6038 341.613 68.3051 341.944C68.0171 342.275 67.6065 342.563 67.0731 342.808C66.5505 343.043 65.9478 343.16 65.2651 343.16ZM67.4571 338.232V338.184C67.4571 337.448 67.2545 336.851 66.8491 336.392C66.4545 335.923 65.9211 335.688 65.2491 335.688C64.5771 335.688 64.0438 335.923 63.6491 336.392C63.2651 336.851 63.0731 337.448 63.0731 338.184V338.232H67.4571ZM75.0183 343.16C73.9196 343.16 73.0396 342.824 72.3783 342.152C71.7276 341.469 71.3703 340.541 71.3063 339.368L71.2903 338.824L71.3063 338.296C71.3809 337.144 71.7436 336.227 72.3943 335.544C73.0556 334.861 73.9249 334.52 75.0023 334.52C76.1863 334.52 77.1036 334.899 77.7543 335.656C78.4049 336.403 78.7303 337.416 78.7303 338.696V338.968C78.7303 339.075 78.6929 339.165 78.6183 339.24C78.5543 339.304 78.4689 339.336 78.3623 339.336H72.8263V339.48C72.8583 340.173 73.0663 340.765 73.4503 341.256C73.8449 341.736 74.3623 341.976 75.0023 341.976C75.4929 341.976 75.8929 341.88 76.2023 341.688C76.5223 341.485 76.7569 341.277 76.9063 341.064C77.0023 340.936 77.0716 340.861 77.1143 340.84C77.1676 340.808 77.2583 340.792 77.3863 340.792H78.1703C78.2663 340.792 78.3463 340.819 78.4103 340.872C78.4743 340.925 78.5063 341 78.5063 341.096C78.5063 341.331 78.3569 341.613 78.0583 341.944C77.7703 342.275 77.3596 342.563 76.8263 342.808C76.3036 343.043 75.7009 343.16 75.0183 343.16ZM77.2103 338.232V338.184C77.2103 337.448 77.0076 336.851 76.6023 336.392C76.2076 335.923 75.6743 335.688 75.0023 335.688C74.3303 335.688 73.7969 335.923 73.4023 336.392C73.0183 336.851 72.8263 337.448 72.8263 338.184V338.232H77.2103ZM84.4834 343.16C83.374 343.16 82.5367 342.797 81.9714 342.072C81.406 341.347 81.1074 340.429 81.0754 339.32L81.0594 338.84L81.0754 338.36C81.1074 337.261 81.406 336.349 81.9714 335.624C82.5367 334.888 83.374 334.52 84.4834 334.52C85.582 334.52 86.446 334.909 87.0754 335.688V332.008C87.0754 331.901 87.1074 331.816 87.1714 331.752C87.246 331.677 87.3367 331.64 87.4434 331.64H88.2114C88.318 331.64 88.4034 331.677 88.4674 331.752C88.542 331.816 88.5794 331.901 88.5794 332.008V342.632C88.5794 342.739 88.542 342.829 88.4674 342.904C88.4034 342.968 88.318 343 88.2114 343H87.4914C87.3847 343 87.294 342.968 87.2194 342.904C87.1554 342.829 87.1234 342.739 87.1234 342.632V341.96C86.5047 342.76 85.6247 343.16 84.4834 343.16ZM84.8194 341.864C85.5554 341.864 86.1047 341.624 86.4674 341.144C86.8407 340.653 87.0434 340.072 87.0754 339.4C87.086 339.283 87.0914 339.08 87.0914 338.792C87.0914 338.493 87.086 338.285 87.0754 338.168C87.054 337.539 86.8514 336.989 86.4674 336.52C86.0834 336.051 85.534 335.816 84.8194 335.816C84.062 335.816 83.5074 336.051 83.1554 336.52C82.814 336.989 82.6274 337.608 82.5954 338.376L82.5794 338.84C82.5794 340.856 83.326 341.864 84.8194 341.864ZM100.289 343.16C99.4035 343.16 98.6355 343.021 97.9849 342.744C97.3449 342.467 96.8542 342.104 96.5129 341.656C96.1715 341.197 95.9902 340.707 95.9689 340.184C95.9689 340.099 96.0009 340.024 96.0649 339.96C96.1395 339.885 96.2249 339.848 96.3209 339.848H97.1369C97.3395 339.848 97.4782 339.955 97.5529 340.168C97.6489 340.616 97.9209 341 98.3689 341.32C98.8275 341.64 99.4675 341.8 100.289 341.8C101.174 341.8 101.841 341.645 102.289 341.336C102.737 341.016 102.961 340.573 102.961 340.008C102.961 339.645 102.849 339.352 102.625 339.128C102.412 338.904 102.092 338.707 101.665 338.536C101.238 338.365 100.598 338.152 99.7449 337.896C98.9129 337.661 98.2515 337.411 97.7609 337.144C97.2702 336.877 96.9022 336.547 96.6569 336.152C96.4115 335.757 96.2889 335.261 96.2889 334.664C96.2889 334.088 96.4435 333.571 96.7529 333.112C97.0729 332.653 97.5262 332.296 98.1129 332.04C98.6995 331.773 99.3982 331.64 100.209 331.64C101.041 331.64 101.756 331.789 102.353 332.088C102.95 332.376 103.404 332.744 103.713 333.192C104.022 333.64 104.188 334.088 104.209 334.536C104.209 334.621 104.177 334.696 104.113 334.76C104.06 334.824 103.98 334.856 103.873 334.856H103.025C102.801 334.856 102.662 334.755 102.609 334.552C102.545 334.104 102.294 333.736 101.857 333.448C101.42 333.149 100.87 333 100.209 333C99.4835 333 98.9129 333.139 98.4969 333.416C98.0809 333.693 97.8729 334.104 97.8729 334.648C97.8729 335.011 97.9689 335.309 98.1609 335.544C98.3635 335.779 98.6675 335.987 99.0729 336.168C99.4782 336.339 100.07 336.536 100.849 336.76C101.756 337.005 102.47 337.261 102.993 337.528C103.516 337.784 103.905 338.109 104.161 338.504C104.417 338.888 104.545 339.379 104.545 339.976C104.545 340.968 104.161 341.747 103.393 342.312C102.625 342.877 101.59 343.16 100.289 343.16ZM109.554 343.16C109.031 343.16 108.546 343.053 108.098 342.84C107.65 342.627 107.293 342.339 107.026 341.976C106.77 341.603 106.642 341.192 106.642 340.744C106.642 340.04 106.93 339.464 107.506 339.016C108.093 338.557 108.882 338.259 109.874 338.12L112.258 337.784V337.32C112.258 336.232 111.634 335.688 110.386 335.688C109.917 335.688 109.533 335.789 109.234 335.992C108.935 336.184 108.711 336.413 108.562 336.68C108.53 336.776 108.487 336.845 108.434 336.888C108.391 336.931 108.327 336.952 108.242 336.952H107.554C107.458 336.952 107.373 336.92 107.298 336.856C107.234 336.781 107.202 336.696 107.202 336.6C107.213 336.344 107.33 336.056 107.554 335.736C107.789 335.405 108.146 335.123 108.626 334.888C109.106 334.643 109.698 334.52 110.402 334.52C111.597 334.52 112.455 334.803 112.978 335.368C113.501 335.923 113.762 336.616 113.762 337.448V342.632C113.762 342.739 113.725 342.829 113.65 342.904C113.586 342.968 113.501 343 113.394 343H112.658C112.551 343 112.461 342.968 112.386 342.904C112.322 342.829 112.29 342.739 112.29 342.632V341.944C112.055 342.285 111.714 342.573 111.266 342.808C110.818 343.043 110.247 343.16 109.554 343.16ZM109.89 341.96C110.583 341.96 111.149 341.736 111.586 341.288C112.034 340.829 112.258 340.173 112.258 339.32V338.872L110.402 339.144C109.645 339.251 109.074 339.432 108.69 339.688C108.306 339.933 108.114 340.248 108.114 340.632C108.114 341.059 108.29 341.389 108.642 341.624C108.994 341.848 109.41 341.96 109.89 341.96ZM117.246 343C117.139 343 117.049 342.968 116.974 342.904C116.91 342.829 116.878 342.739 116.878 342.632V332.008C116.878 331.901 116.91 331.816 116.974 331.752C117.049 331.677 117.139 331.64 117.246 331.64H117.998C118.105 331.64 118.19 331.677 118.254 331.752C118.329 331.816 118.366 331.901 118.366 332.008V342.632C118.366 342.739 118.329 342.829 118.254 342.904C118.19 342.968 118.105 343 117.998 343H117.246ZM124.881 343.16C123.782 343.16 122.902 342.824 122.241 342.152C121.59 341.469 121.233 340.541 121.169 339.368L121.153 338.824L121.169 338.296C121.243 337.144 121.606 336.227 122.257 335.544C122.918 334.861 123.787 334.52 124.865 334.52C126.049 334.52 126.966 334.899 127.617 335.656C128.267 336.403 128.593 337.416 128.593 338.696V338.968C128.593 339.075 128.555 339.165 128.481 339.24C128.417 339.304 128.331 339.336 128.225 339.336H122.689V339.48C122.721 340.173 122.929 340.765 123.313 341.256C123.707 341.736 124.225 341.976 124.865 341.976C125.355 341.976 125.755 341.88 126.065 341.688C126.385 341.485 126.619 341.277 126.769 341.064C126.865 340.936 126.934 340.861 126.977 340.84C127.03 340.808 127.121 340.792 127.249 340.792H128.033C128.129 340.792 128.209 340.819 128.273 340.872C128.337 340.925 128.369 341 128.369 341.096C128.369 341.331 128.219 341.613 127.921 341.944C127.633 342.275 127.222 342.563 126.689 342.808C126.166 343.043 125.563 343.16 124.881 343.16ZM127.073 338.232V338.184C127.073 337.448 126.87 336.851 126.465 336.392C126.07 335.923 125.537 335.688 124.865 335.688C124.193 335.688 123.659 335.923 123.265 336.392C122.881 336.851 122.689 337.448 122.689 338.184V338.232H127.073Z" fill="#FCFCFC"/>
<rect x="353" y="331.002" width="14" height="13.9957" rx="2" fill="#4285F4"/>
<path d="M376.76 343C376.653 343 376.563 342.968 376.488 342.904C376.424 342.829 376.392 342.739 376.392 342.632V332.184C376.392 332.067 376.424 331.976 376.488 331.912C376.563 331.837 376.653 331.8 376.76 331.8H383.288C383.405 331.8 383.496 331.837 383.56 331.912C383.635 331.976 383.672 332.067 383.672 332.184V332.824C383.672 332.931 383.635 333.021 383.56 333.096C383.496 333.16 383.405 333.192 383.288 333.192H377.944V336.92H382.968C383.085 336.92 383.176 336.957 383.24 337.032C383.315 337.096 383.352 337.187 383.352 337.304V337.944C383.352 338.051 383.315 338.141 383.24 338.216C383.165 338.28 383.075 338.312 382.968 338.312H377.944V342.632C377.944 342.739 377.907 342.829 377.832 342.904C377.757 342.968 377.667 343 377.56 343H376.76ZM388.179 343.16C387.656 343.16 387.171 343.053 386.723 342.84C386.275 342.627 385.918 342.339 385.651 341.976C385.395 341.603 385.267 341.192 385.267 340.744C385.267 340.04 385.555 339.464 386.131 339.016C386.718 338.557 387.507 338.259 388.499 338.12L390.883 337.784V337.32C390.883 336.232 390.259 335.688 389.011 335.688C388.542 335.688 388.158 335.789 387.859 335.992C387.56 336.184 387.336 336.413 387.187 336.68C387.155 336.776 387.112 336.845 387.059 336.888C387.016 336.931 386.952 336.952 386.867 336.952H386.179C386.083 336.952 385.998 336.92 385.923 336.856C385.859 336.781 385.827 336.696 385.827 336.6C385.838 336.344 385.955 336.056 386.179 335.736C386.414 335.405 386.771 335.123 387.251 334.888C387.731 334.643 388.323 334.52 389.027 334.52C390.222 334.52 391.08 334.803 391.603 335.368C392.126 335.923 392.387 336.616 392.387 337.448V342.632C392.387 342.739 392.35 342.829 392.275 342.904C392.211 342.968 392.126 343 392.019 343H391.283C391.176 343 391.086 342.968 391.011 342.904C390.947 342.829 390.915 342.739 390.915 342.632V341.944C390.68 342.285 390.339 342.573 389.891 342.808C389.443 343.043 388.872 343.16 388.179 343.16ZM388.515 341.96C389.208 341.96 389.774 341.736 390.211 341.288C390.659 340.829 390.883 340.173 390.883 339.32V338.872L389.027 339.144C388.27 339.251 387.699 339.432 387.315 339.688C386.931 339.933 386.739 340.248 386.739 340.632C386.739 341.059 386.915 341.389 387.267 341.624C387.619 341.848 388.035 341.96 388.515 341.96ZM395.855 343C395.748 343 395.658 342.968 395.583 342.904C395.519 342.829 395.487 342.739 395.487 342.632V335.048C395.487 334.941 395.519 334.856 395.583 334.792C395.658 334.717 395.748 334.68 395.855 334.68H396.575C396.682 334.68 396.767 334.717 396.831 334.792C396.906 334.856 396.943 334.941 396.943 335.048V335.608C397.498 334.883 398.271 334.52 399.263 334.52C400.447 334.52 401.284 335.011 401.775 335.992C402.031 335.544 402.394 335.187 402.863 334.92C403.332 334.653 403.86 334.52 404.447 334.52C405.322 334.52 406.036 334.819 406.591 335.416C407.146 336.013 407.423 336.877 407.423 338.008V342.632C407.423 342.739 407.386 342.829 407.311 342.904C407.247 342.968 407.162 343 407.055 343H406.303C406.196 343 406.106 342.968 406.031 342.904C405.967 342.829 405.935 342.739 405.935 342.632V338.152C405.935 337.32 405.759 336.723 405.407 336.36C405.066 335.997 404.612 335.816 404.047 335.816C403.546 335.816 403.114 336.003 402.751 336.376C402.388 336.739 402.207 337.331 402.207 338.152V342.632C402.207 342.739 402.17 342.829 402.095 342.904C402.031 342.968 401.946 343 401.839 343H401.087C400.98 343 400.89 342.968 400.815 342.904C400.751 342.829 400.719 342.739 400.719 342.632V338.152C400.719 337.32 400.538 336.723 400.175 336.36C399.823 335.997 399.375 335.816 398.831 335.816C398.33 335.816 397.898 336.003 397.535 336.376C397.172 336.739 396.991 337.325 396.991 338.136V342.632C396.991 342.739 396.954 342.829 396.879 342.904C396.815 342.968 396.73 343 396.623 343H395.855ZM410.746 333.128C410.639 333.128 410.549 333.096 410.474 333.032C410.41 332.957 410.378 332.867 410.378 332.76V331.896C410.378 331.789 410.41 331.699 410.474 331.624C410.549 331.549 410.639 331.512 410.746 331.512H411.754C411.861 331.512 411.951 331.549 412.026 331.624C412.101 331.699 412.138 331.789 412.138 331.896V332.76C412.138 332.867 412.101 332.957 412.026 333.032C411.951 333.096 411.861 333.128 411.754 333.128H410.746ZM410.874 343C410.767 343 410.677 342.968 410.602 342.904C410.538 342.829 410.506 342.739 410.506 342.632V335.048C410.506 334.941 410.538 334.856 410.602 334.792C410.677 334.717 410.767 334.68 410.874 334.68H411.642C411.749 334.68 411.834 334.717 411.898 334.792C411.973 334.856 412.01 334.941 412.01 335.048V342.632C412.01 342.739 411.973 342.829 411.898 342.904C411.834 342.968 411.749 343 411.642 343H410.874ZM415.565 343C415.458 343 415.368 342.968 415.293 342.904C415.229 342.829 415.197 342.739 415.197 342.632V332.008C415.197 331.901 415.229 331.816 415.293 331.752C415.368 331.677 415.458 331.64 415.565 331.64H416.317C416.424 331.64 416.509 331.677 416.573 331.752C416.648 331.816 416.685 331.901 416.685 332.008V342.632C416.685 342.739 416.648 342.829 416.573 342.904C416.509 342.968 416.424 343 416.317 343H415.565ZM421.328 346.04C421.242 346.04 421.168 346.008 421.104 345.944C421.04 345.88 421.008 345.805 421.008 345.72C421.008 345.645 421.034 345.549 421.088 345.432L422.32 342.504L419.264 335.288C419.21 335.149 419.184 335.059 419.184 335.016C419.184 334.92 419.216 334.84 419.28 334.776C419.344 334.712 419.424 334.68 419.52 334.68H420.304C420.474 334.68 420.602 334.771 420.688 334.952L423.12 340.776L425.616 334.952C425.701 334.771 425.834 334.68 426.016 334.68H426.767C426.863 334.68 426.944 334.712 427.008 334.776C427.072 334.84 427.104 334.915 427.104 335C427.104 335.032 427.077 335.128 427.024 335.288L422.48 345.768C422.394 345.949 422.261 346.04 422.08 346.04H421.328ZM437.208 343.16C436.482 343.16 435.837 343.027 435.272 342.76C434.717 342.493 434.285 342.12 433.976 341.64C433.666 341.16 433.512 340.616 433.512 340.008C433.512 339.336 433.709 338.765 434.104 338.296C434.498 337.816 435.053 337.368 435.768 336.952C435.266 336.419 434.909 335.955 434.696 335.56C434.493 335.155 434.392 334.728 434.392 334.28C434.392 333.8 434.514 333.363 434.76 332.968C435.005 332.563 435.357 332.243 435.816 332.008C436.274 331.763 436.797 331.64 437.384 331.64C437.96 331.64 438.472 331.757 438.92 331.992C439.368 332.216 439.714 332.531 439.96 332.936C440.205 333.331 440.328 333.773 440.328 334.264C440.328 334.915 440.12 335.459 439.704 335.896C439.288 336.333 438.685 336.776 437.896 337.224L440.616 339.896C441.042 339.181 441.33 338.371 441.48 337.464C441.49 337.368 441.522 337.293 441.576 337.24C441.64 337.176 441.72 337.144 441.816 337.144H442.52C442.616 337.144 442.696 337.176 442.76 337.24C442.824 337.304 442.856 337.384 442.856 337.48C442.845 337.949 442.722 338.488 442.488 339.096C442.264 339.693 441.954 340.269 441.56 340.824L443.192 342.456C443.288 342.552 443.336 342.632 443.336 342.696C443.336 342.899 443.229 343 443.016 343H442.12C441.917 343 441.773 342.947 441.688 342.84L440.632 341.8C439.704 342.707 438.562 343.16 437.208 343.16ZM437.016 336.296C437.656 335.944 438.136 335.624 438.456 335.336C438.776 335.048 438.936 334.696 438.936 334.28C438.936 333.864 438.786 333.528 438.488 333.272C438.189 333.005 437.821 332.872 437.384 332.872C436.957 332.872 436.589 333.005 436.28 333.272C435.981 333.528 435.832 333.869 435.832 334.296C435.832 334.584 435.912 334.872 436.072 335.16C436.242 335.437 436.557 335.816 437.016 336.296ZM437.208 341.88C437.645 341.88 438.077 341.789 438.504 341.608C438.93 341.427 439.32 341.16 439.672 340.808L436.68 337.896C436.136 338.205 435.714 338.52 435.416 338.84C435.128 339.16 434.984 339.539 434.984 339.976C434.984 340.563 435.202 341.027 435.64 341.368C436.077 341.709 436.6 341.88 437.208 341.88ZM451.007 343C450.9 343 450.81 342.968 450.735 342.904C450.671 342.829 450.639 342.739 450.639 342.632V332.184C450.639 332.067 450.671 331.976 450.735 331.912C450.81 331.837 450.9 331.8 451.007 331.8H457.535C457.652 331.8 457.743 331.837 457.807 331.912C457.882 331.976 457.919 332.067 457.919 332.184V332.824C457.919 332.931 457.882 333.021 457.807 333.096C457.743 333.16 457.652 333.192 457.535 333.192H452.191V336.92H457.215C457.332 336.92 457.423 336.957 457.487 337.032C457.562 337.096 457.599 337.187 457.599 337.304V337.944C457.599 338.051 457.562 338.141 457.487 338.216C457.412 338.28 457.322 338.312 457.215 338.312H452.191V342.632C452.191 342.739 452.154 342.829 452.079 342.904C452.004 342.968 451.914 343 451.807 343H451.007ZM460.724 343C460.617 343 460.527 342.968 460.452 342.904C460.388 342.829 460.356 342.739 460.356 342.632V335.064C460.356 334.957 460.388 334.867 460.452 334.792C460.527 334.717 460.617 334.68 460.724 334.68H461.46C461.567 334.68 461.657 334.717 461.732 334.792C461.807 334.867 461.844 334.957 461.844 335.064V335.768C462.281 335.043 463.028 334.68 464.084 334.68H464.708C464.815 334.68 464.9 334.717 464.964 334.792C465.039 334.856 465.076 334.941 465.076 335.048V335.704C465.076 335.811 465.039 335.896 464.964 335.96C464.9 336.024 464.815 336.056 464.708 336.056H463.748C463.172 336.056 462.719 336.227 462.388 336.568C462.057 336.899 461.892 337.352 461.892 337.928V342.632C461.892 342.739 461.855 342.829 461.78 342.904C461.705 342.968 461.615 343 461.508 343H460.724ZM467.474 333.128C467.367 333.128 467.277 333.096 467.202 333.032C467.138 332.957 467.106 332.867 467.106 332.76V331.896C467.106 331.789 467.138 331.699 467.202 331.624C467.277 331.549 467.367 331.512 467.474 331.512H468.482C468.589 331.512 468.679 331.549 468.754 331.624C468.829 331.699 468.866 331.789 468.866 331.896V332.76C468.866 332.867 468.829 332.957 468.754 333.032C468.679 333.096 468.589 333.128 468.482 333.128H467.474ZM467.602 343C467.495 343 467.405 342.968 467.33 342.904C467.266 342.829 467.234 342.739 467.234 342.632V335.048C467.234 334.941 467.266 334.856 467.33 334.792C467.405 334.717 467.495 334.68 467.602 334.68H468.37C468.477 334.68 468.562 334.717 468.626 334.792C468.701 334.856 468.738 334.941 468.738 335.048V342.632C468.738 342.739 468.701 342.829 468.626 342.904C468.562 342.968 468.477 343 468.37 343H467.602ZM475.237 343.16C474.138 343.16 473.258 342.824 472.597 342.152C471.946 341.469 471.589 340.541 471.525 339.368L471.509 338.824L471.525 338.296C471.6 337.144 471.962 336.227 472.613 335.544C473.274 334.861 474.144 334.52 475.221 334.52C476.405 334.52 477.322 334.899 477.973 335.656C478.624 336.403 478.949 337.416 478.949 338.696V338.968C478.949 339.075 478.912 339.165 478.837 339.24C478.773 339.304 478.688 339.336 478.581 339.336H473.045V339.48C473.077 340.173 473.285 340.765 473.669 341.256C474.064 341.736 474.581 341.976 475.221 341.976C475.712 341.976 476.112 341.88 476.421 341.688C476.741 341.485 476.976 341.277 477.125 341.064C477.221 340.936 477.29 340.861 477.333 340.84C477.386 340.808 477.477 340.792 477.605 340.792H478.389C478.485 340.792 478.565 340.819 478.629 340.872C478.693 340.925 478.725 341 478.725 341.096C478.725 341.331 478.576 341.613 478.277 341.944C477.989 342.275 477.578 342.563 477.045 342.808C476.522 343.043 475.92 343.16 475.237 343.16ZM477.429 338.232V338.184C477.429 337.448 477.226 336.851 476.821 336.392C476.426 335.923 475.893 335.688 475.221 335.688C474.549 335.688 474.016 335.923 473.621 336.392C473.237 336.851 473.045 337.448 473.045 338.184V338.232H477.429ZM482.03 343C481.923 343 481.833 342.968 481.758 342.904C481.694 342.829 481.662 342.739 481.662 342.632V335.048C481.662 334.941 481.694 334.856 481.758 334.792C481.833 334.717 481.923 334.68 482.03 334.68H482.782C482.889 334.68 482.974 334.717 483.038 334.792C483.113 334.856 483.15 334.941 483.15 335.048V335.752C483.459 335.357 483.822 335.053 484.238 334.84C484.665 334.627 485.193 334.52 485.822 334.52C486.846 334.52 487.641 334.851 488.206 335.512C488.782 336.163 489.07 337.032 489.07 338.12V342.632C489.07 342.739 489.033 342.829 488.958 342.904C488.894 342.968 488.809 343 488.702 343H487.902C487.795 343 487.705 342.968 487.63 342.904C487.566 342.829 487.534 342.739 487.534 342.632V338.2C487.534 337.443 487.347 336.856 486.974 336.44C486.611 336.024 486.083 335.816 485.39 335.816C484.718 335.816 484.185 336.029 483.79 336.456C483.395 336.872 483.198 337.453 483.198 338.2V342.632C483.198 342.739 483.161 342.829 483.086 342.904C483.022 342.968 482.937 343 482.83 343H482.03ZM495.205 343.16C494.096 343.16 493.259 342.797 492.693 342.072C492.128 341.347 491.829 340.429 491.797 339.32L491.781 338.84L491.797 338.36C491.829 337.261 492.128 336.349 492.693 335.624C493.259 334.888 494.096 334.52 495.205 334.52C496.304 334.52 497.168 334.909 497.797 335.688V332.008C497.797 331.901 497.829 331.816 497.893 331.752C497.968 331.677 498.059 331.64 498.165 331.64H498.933C499.04 331.64 499.125 331.677 499.189 331.752C499.264 331.816 499.301 331.901 499.301 332.008V342.632C499.301 342.739 499.264 342.829 499.189 342.904C499.125 342.968 499.04 343 498.933 343H498.213C498.107 343 498.016 342.968 497.941 342.904C497.877 342.829 497.845 342.739 497.845 342.632V341.96C497.227 342.76 496.347 343.16 495.205 343.16ZM495.541 341.864C496.277 341.864 496.827 341.624 497.189 341.144C497.563 340.653 497.765 340.072 497.797 339.4C497.808 339.283 497.813 339.08 497.813 338.792C497.813 338.493 497.808 338.285 497.797 338.168C497.776 337.539 497.573 336.989 497.189 336.52C496.805 336.051 496.256 335.816 495.541 335.816C494.784 335.816 494.229 336.051 493.877 336.52C493.536 336.989 493.349 337.608 493.317 338.376L493.301 338.84C493.301 340.856 494.048 341.864 495.541 341.864ZM505.361 343.16C504.614 343.16 503.985 343.043 503.473 342.808C502.972 342.563 502.593 342.285 502.337 341.976C502.092 341.667 501.969 341.411 501.969 341.208C501.969 341.101 502.006 341.021 502.081 340.968C502.166 340.904 502.252 340.872 502.337 340.872H503.057C503.164 340.872 503.26 340.925 503.345 341.032C503.601 341.331 503.878 341.565 504.177 341.736C504.476 341.907 504.876 341.992 505.377 341.992C505.932 341.992 506.38 341.885 506.721 341.672C507.073 341.448 507.249 341.144 507.249 340.76C507.249 340.504 507.174 340.296 507.025 340.136C506.886 339.965 506.641 339.821 506.289 339.704C505.948 339.576 505.436 339.437 504.753 339.288C503.825 339.085 503.164 338.792 502.769 338.408C502.385 338.024 502.193 337.528 502.193 336.92C502.193 336.515 502.31 336.131 502.545 335.768C502.79 335.395 503.142 335.096 503.601 334.872C504.07 334.637 504.63 334.52 505.281 334.52C505.964 334.52 506.545 334.632 507.025 334.856C507.505 335.08 507.862 335.347 508.097 335.656C508.342 335.955 508.465 336.205 508.465 336.408C508.465 336.504 508.428 336.584 508.353 336.648C508.289 336.712 508.209 336.744 508.113 336.744H507.441C507.313 336.744 507.206 336.691 507.121 336.584C506.95 336.381 506.801 336.227 506.673 336.12C506.556 336.003 506.38 335.901 506.145 335.816C505.921 335.731 505.633 335.688 505.281 335.688C504.769 335.688 504.374 335.8 504.097 336.024C503.82 336.237 503.681 336.52 503.681 336.872C503.681 337.096 503.74 337.288 503.857 337.448C503.974 337.597 504.198 337.736 504.529 337.864C504.87 337.992 505.361 338.125 506.001 338.264C507.014 338.477 507.729 338.787 508.145 339.192C508.572 339.587 508.785 340.093 508.785 340.712C508.785 341.171 508.652 341.587 508.385 341.96C508.118 342.333 507.724 342.627 507.201 342.84C506.689 343.053 506.076 343.16 505.361 343.16Z" fill="#FCFCFC"/>
</svg>
