<svg width="139" height="23" viewBox="0 0 139 23" fill="none" xmlns="http://www.w3.org/2000/svg">
<path d="M44.7377 19H48.1039V7.1974H52.7584V4.45454H40.0831V7.1974H44.7377V19ZM56.3625 9.2961V7.82078H53.2664V19H56.508V13.7221C56.508 11.5818 57.6924 10.6052 59.4794 10.6052C59.7287 10.6052 59.9365 10.626 60.2067 10.6468V7.65454C58.482 7.65454 57.1521 8.21558 56.3625 9.2961ZM65.8932 7.65454C64.1062 7.65454 62.2984 8.13247 61.0724 9.00519L62.236 11.2701C63.0464 10.626 64.2724 10.2312 65.4568 10.2312C67.2023 10.2312 68.0334 11.0416 68.0334 12.4338H65.4568C62.049 12.4338 60.6568 13.8052 60.6568 15.7792C60.6568 17.7117 62.2153 19.1662 64.8334 19.1662C66.475 19.1662 67.6386 18.626 68.2412 17.6078V19H71.275V12.6208C71.275 9.23376 69.301 7.65454 65.8932 7.65454ZM65.6438 16.9844C64.501 16.9844 63.8153 16.4442 63.8153 15.6338C63.8153 14.8857 64.2932 14.3247 65.8101 14.3247H68.0334V15.4675C67.6594 16.4857 66.7244 16.9844 65.6438 16.9844ZM80.3802 7.65454C78.8633 7.65454 77.5542 8.17402 76.6815 9.12987V7.82078H73.5854V19H76.8269V13.4727C76.8269 11.4156 77.949 10.4597 79.5075 10.4597C80.9412 10.4597 81.7724 11.2909 81.7724 13.0987V19H85.014V12.6C85.014 9.19221 83.0192 7.65454 80.3802 7.65454ZM91.0899 19.1662C94.4354 19.1662 96.3679 17.6909 96.3679 15.613C96.3679 11.2078 89.6146 13.0571 89.6146 11.1455C89.6146 10.5636 90.238 10.1065 91.6925 10.1065C92.7107 10.1065 93.812 10.3143 94.9133 10.9377L95.9938 8.63117C94.9341 8.00779 93.2302 7.65454 91.6925 7.65454C88.4302 7.65454 86.5185 9.15065 86.5185 11.2701C86.5185 15.7377 93.2718 13.8675 93.2718 15.6961C93.2718 16.3195 92.7107 16.7143 91.2146 16.7143C89.8432 16.7143 88.3263 16.2779 87.3289 15.6338L86.2484 17.961C87.2873 18.6468 89.199 19.1662 91.0899 19.1662ZM101.298 7.59221C101.298 6.49091 101.817 5.97143 102.773 5.97143C103.272 5.97143 103.729 6.11688 104.082 6.36623L104.934 4.01818C104.332 3.60259 103.376 3.41558 102.461 3.41558C99.677 3.41558 98.1393 5.05714 98.1393 7.57143V8.07013H96.4146V10.5636H98.1393V19H101.381V10.5636H104.165V8.07013H101.298V7.59221ZM115.965 13.4519C115.965 9.85714 113.43 7.65454 110.147 7.65454C106.739 7.65454 104.184 10.0649 104.184 13.4104C104.184 16.7351 106.698 19.1662 110.563 19.1662C112.578 19.1662 114.137 18.5429 115.176 17.3584L113.451 15.4883C112.682 16.2156 111.83 16.5688 110.646 16.5688C108.942 16.5688 107.758 15.7169 107.446 14.3247H115.903C115.924 14.0545 115.965 13.7013 115.965 13.4519ZM110.168 10.1065C111.623 10.1065 112.682 11.0208 112.911 12.4338H107.404C107.633 11 108.693 10.1065 110.168 10.1065ZM120.596 9.2961V7.82078H117.5V19H120.742V13.7221C120.742 11.5818 121.926 10.6052 123.713 10.6052C123.963 10.6052 124.17 10.626 124.44 10.6468V7.65454C122.716 7.65454 121.386 8.21558 120.596 9.2961ZM130.963 19.1662C134.516 19.1662 137.092 16.7766 137.092 13.4104C137.092 10.0442 134.516 7.65454 130.963 7.65454C127.409 7.65454 124.812 10.0442 124.812 13.4104C124.812 16.7766 127.409 19.1662 130.963 19.1662ZM130.963 16.5065C129.342 16.5065 128.095 15.3429 128.095 13.4104C128.095 11.4779 129.342 10.3143 130.963 10.3143C132.583 10.3143 133.809 11.4779 133.809 13.4104C133.809 15.3429 132.583 16.5065 130.963 16.5065Z" fill="white"/>
<g clip-path="url(#clip0_8157_19107)">
<path d="M23.0847 17.2994L17.2539 11.5244L11.4231 17.2994L17.2539 23.0743L23.0847 17.2994Z" fill="white"/>
<path d="M34.6618 5.77496L28.8311 0L23.0003 5.77496L28.8311 11.5499L34.6618 5.77496Z" fill="white"/>
<path d="M11.6403 5.82769L5.80957 0.0527344L-0.0212099 5.82769L5.80957 11.6026L11.6403 5.82769Z" fill="white"/>
<path d="M17.2799 11.53L5.82031 0.0600522L17.2799 0L28.7395 11.53H17.2799Z" fill="url(#paint0_linear_8157_19107)"/>
</g>
<defs>
<linearGradient id="paint0_linear_8157_19107" x1="8.6772" y1="-2.74637" x2="25.5829" y2="14.3228" gradientUnits="userSpaceOnUse">
<stop stop-color="#81FEEF"/>
<stop offset="0.5382" stop-color="#3D3DFF"/>
<stop offset="1" stop-color="#170636"/>
</linearGradient>
<clipPath id="clip0_8157_19107">
<rect width="34.5" height="23" fill="white"/>
</clipPath>
</defs>
</svg>
