<svg width="48" height="48" viewBox="0 0 48 48" fill="none" xmlns="http://www.w3.org/2000/svg">
<path fill-rule="evenodd" clip-rule="evenodd" d="M23.6534 19.6764L23.7054 20.5342L22.8383 20.4292C19.6822 20.0265 16.9249 18.661 14.5839 16.3675L13.4393 15.2296L13.1445 16.0699C12.5202 17.9432 12.9191 19.9215 14.2197 21.252C14.9133 21.9873 14.7573 22.0924 13.5607 21.6547C13.1445 21.5146 12.7804 21.4096 12.7457 21.4621C12.6243 21.5847 13.0405 23.1778 13.37 23.8081C13.8208 24.6834 14.7399 25.5413 15.7457 26.049L16.5955 26.4517L15.5897 26.4692C14.6185 26.4692 14.5839 26.4867 14.6879 26.8543C15.0347 27.9923 16.4047 29.2003 17.9307 29.7255L19.0059 30.0931L18.0695 30.6534C16.6822 31.4587 15.0521 31.9139 13.422 31.9489C12.6416 31.9664 12 32.0364 12 32.089C12 32.264 14.1156 33.2444 15.3469 33.6296C19.0406 34.7676 23.4279 34.2774 26.7228 32.3341C29.0639 30.951 31.4049 28.2024 32.4974 25.5413C33.087 24.1232 33.6767 21.5321 33.6767 20.2891C33.6767 19.4838 33.7287 19.3788 34.6998 18.4159C35.2721 17.8556 35.8096 17.2429 35.9137 17.0678C36.0871 16.7352 36.0698 16.7352 35.1854 17.0328C33.7113 17.558 33.5032 17.488 34.2316 16.7002C34.7692 16.1399 35.4108 15.1245 35.4108 14.8269C35.4108 14.7744 35.1507 14.8619 34.8559 15.0195C34.5437 15.1946 33.8501 15.4572 33.3298 15.6147L32.3934 15.9123L31.5437 15.3346C31.0755 15.0195 30.4165 14.6693 30.0697 14.5643C29.1853 14.3192 27.8326 14.3542 27.0349 14.6343C24.8673 15.4221 23.4973 17.453 23.6534 19.6764Z" fill="white"/>
</svg>
