<svg width="19" height="19" viewBox="0 0 19 19" fill="none" xmlns="http://www.w3.org/2000/svg">
<path fill-rule="evenodd" clip-rule="evenodd" d="M9.8829 0.746094C10.8821 0.746094 11.8715 0.942902 12.7947 1.32528C13.7178 1.70766 14.5566 2.26813 15.2632 2.97467L9.8829 8.35494L9.8829 0.746094ZM16.0195 5.25558C16.7261 5.96213 17.2865 6.80092 17.6689 7.72407C18.0513 8.64721 18.2481 9.63664 18.2481 10.6358C18.2481 11.6351 18.0513 12.6245 17.6689 13.5476C17.2865 14.4708 16.7261 15.3096 16.0195 16.0161L10.6393 10.6358L16.0195 5.25558ZM10.5715 17.9171C11.7689 17.5538 12.8582 16.9009 13.743 16.0161L8.36275 10.6358L8.36275 3.02701C7.11147 3.02701 5.8795 3.3356 4.77597 3.92545C3.67243 4.5153 2.7314 5.3682 2.03623 6.4086C1.34105 7.44901 0.913193 8.6448 0.790547 9.89005C0.6679 11.1353 0.854252 12.3916 1.3331 13.5476C1.81194 14.7037 2.5685 15.7238 3.53575 16.5176C4.50301 17.3114 5.6511 17.8544 6.87834 18.0985C8.10558 18.3426 9.37408 18.2803 10.5715 17.9171Z" fill="url(#paint0_linear_1972_38246)"/>
<defs>
<linearGradient id="paint0_linear_1972_38246" x1="9.49889" y1="18.2482" x2="9.49889" y2="0.747873" gradientUnits="userSpaceOnUse">
<stop stop-color="#FFBF00"/>
<stop offset="1" stop-color="#E843C4"/>
</linearGradient>
</defs>
</svg>
