<svg xmlns="http://www.w3.org/2000/svg" fill="none" viewBox="0 0 698 698"><g filter="url(#a)" transform="translate(-.33878002 36.076565)"><path stroke="url(#b)" stroke-miterlimit="10" stroke-width="12.0061" d="M667.839 349.53c0 94.873-41.54 180.031-107.278 238.326L407.742 453.929h148.436c12.005 0 21.913-9.716 21.913-21.909 0-12.002-9.718-21.908-21.913-21.908H142.5c-12.005 0-21.913 9.716-21.913 21.908 0 12.002 9.718 21.909 21.913 21.909h166.729L144.215 593C74.8553 534.514 30.8389 447.071 30.8389 349.34 30.8389 173.5 173.368 31 349.243 31c175.876.1905 318.596 142.691 318.596 318.53z"/></g><path stroke="url(#c)" stroke-miterlimit="10" stroke-width="9.60486" d="M667.50019 385.60654c0 94.873-41.54 180.031-107.27799 238.32599l-152.819-133.92699h148.436c12.005 0 21.913-9.716 21.913-21.909 0-12.002-9.718-21.908-21.913-21.908H142.16121c-12.005 0-21.91299 9.716-21.91299 21.908 0 12.002 9.71799 21.909 21.91299 21.909h166.729l-165.014 139.07099C74.516516 570.59054 30.500118 483.14754 30.500118 385.41654c0-175.83999 142.529092-318.339977 318.404092-318.339977 175.87599.1905 318.59598 142.690987 318.59598 318.529977z"/><defs id="defs555"><linearGradient id="b" x1="349.837" x2="349.837" y1="-229.573" y2="789.8" gradientUnits="userSpaceOnUse"><stop id="stop545" stop-color="#FFBF00"/><stop id="stop547" offset="1" stop-color="#E843C4"/></linearGradient><linearGradient id="c" x1="349.339" x2="349.339" y1="31" y2="593" gradientTransform="translate(-.33878002 36.076565)" gradientUnits="userSpaceOnUse"><stop id="stop550" stop-color="#FFBF00"/><stop id="stop552" offset="1" stop-color="#E843C4"/></linearGradient><filter id="a" width="697.03" height="623.879" x=".82378" y=".983936" color-interpolation-filters="sRGB" filterUnits="userSpaceOnUse"><feFlood id="feFlood538" flood-opacity="0" result="BackgroundImageFix"/><feBlend id="feBlend540" in="SourceGraphic" in2="BackgroundImageFix" mode="normal" result="shape"/><feGaussianBlur id="feGaussianBlur542" result="effect1_foregroundBlur" stdDeviation="12.0061"/></filter></defs></svg>