<svg width="24" height="24" viewBox="0 0 24 24" fill="none" xmlns="http://www.w3.org/2000/svg">
<path d="M12.0001 22C17.5229 22 22.0001 17.5229 22.0001 12C22.0001 6.47717 17.5229 2.00002 12.0001 2.00002C6.47723 2.00002 2.00008 6.47717 2.00008 12C2.00008 17.5229 6.47723 22 12.0001 22Z" stroke="#26DBDB"/>
<path d="M11.424 8.12796C11.3173 8.12796 11.2267 8.09596 11.152 8.03196C11.088 7.9573 11.056 7.86663 11.056 7.75996V6.89596C11.056 6.7893 11.088 6.69863 11.152 6.62396C11.2267 6.5493 11.3173 6.51196 11.424 6.51196H12.432C12.5387 6.51196 12.6293 6.5493 12.704 6.62396C12.7787 6.69863 12.816 6.7893 12.816 6.89596V7.75996C12.816 7.86663 12.7787 7.9573 12.704 8.03196C12.6293 8.09596 12.5387 8.12796 12.432 8.12796H11.424ZM11.552 18C11.4453 18 11.3547 17.968 11.28 17.904C11.216 17.8293 11.184 17.7386 11.184 17.632V10.048C11.184 9.9413 11.216 9.85596 11.28 9.79196C11.3547 9.7173 11.4453 9.67996 11.552 9.67996H12.32C12.4267 9.67996 12.512 9.7173 12.576 9.79196C12.6507 9.85596 12.688 9.9413 12.688 10.048V17.632C12.688 17.7386 12.6507 17.8293 12.576 17.904C12.512 17.968 12.4267 18 12.32 18H11.552Z" fill="#26DBDB"/>
</svg>
