<svg width="24" height="24" viewBox="0 0 24 24" fill="none" xmlns="http://www.w3.org/2000/svg">
<path d="M12 22C17.5229 22 22 17.5229 22 12C22 6.47718 17.5229 2.00003 12 2.00003C6.47723 2.00003 2.00011 6.47718 2.00011 12C2.00011 17.5229 6.47723 22 12 22Z" stroke="#FFBF00"/>
<path d="M11.5121 15.544C11.4054 15.544 11.3148 15.512 11.2401 15.448C11.1761 15.3734 11.1441 15.2827 11.1441 15.176V6.36803C11.1441 6.26136 11.1761 6.17603 11.2401 6.11203C11.3148 6.03736 11.4054 6.00003 11.5121 6.00003H12.2641C12.3708 6.00003 12.4561 6.03736 12.5201 6.11203C12.5948 6.17603 12.6321 6.26136 12.6321 6.36803V15.176C12.6321 15.2827 12.5948 15.3734 12.5201 15.448C12.4561 15.512 12.3708 15.544 12.2641 15.544H11.5121ZM11.3681 18.2C11.2614 18.2 11.1708 18.168 11.0961 18.104C11.0321 18.0294 11.0001 17.9387 11.0001 17.832V16.824C11.0001 16.7174 11.0321 16.6267 11.0961 16.552C11.1708 16.4774 11.2614 16.44 11.3681 16.44H12.3921C12.4988 16.44 12.5841 16.4774 12.6481 16.552C12.7228 16.6267 12.7601 16.7174 12.7601 16.824V17.832C12.7601 17.9387 12.7228 18.0294 12.6481 18.104C12.5841 18.168 12.4988 18.2 12.3921 18.2H11.3681Z" fill="#FFBF00"/>
</svg>
