<svg width="56" height="56" viewBox="0 0 56 56" fill="none" xmlns="http://www.w3.org/2000/svg">
<g clip-path="url(#clip0_1972_38085)">
<path opacity="0.1" d="M56 27.9964C56 12.5324 43.464 -0.00362015 28 -0.00362015C12.536 -0.00362015 0 12.5324 0 27.9964C0 41.972 10.2392 53.5557 23.625 55.6562V36.0901H16.5156V27.9964H23.625V21.8276C23.625 14.8101 27.8052 10.9339 34.201 10.9339C37.2644 10.9339 40.4687 11.4808 40.4687 11.4808V18.3714H36.938C33.4597 18.3714 32.375 20.5297 32.375 22.744V27.9964H40.1406L38.8992 36.0901H32.375V55.6562C45.7608 53.5557 56 41.972 56 27.9964Z" fill="white"/>
<path d="M38.8992 36.0937L40.1406 28H32.375V22.7476C32.375 20.5333 33.4597 18.375 36.938 18.375H40.4687V11.4844C40.4687 11.4844 37.2644 10.9375 34.201 10.9375C27.8052 10.9375 23.625 14.8137 23.625 21.8312V28H16.5156V36.0937H23.625V55.6598C25.0505 55.8835 26.5116 56 28 56C29.4884 56 30.9495 55.8835 32.375 55.6598V36.0937H38.8992Z" fill="white"/>
</g>
<defs>
<clipPath id="clip0_1972_38085">
<rect width="56" height="56" fill="white"/>
</clipPath>
</defs>
</svg>
