<svg width="57" height="56" viewBox="0 0 57 56" fill="none" xmlns="http://www.w3.org/2000/svg">
<path opacity="0.1" fill-rule="evenodd" clip-rule="evenodd" d="M0.5 28C0.5 12.536 13.036 0 28.5 0C43.964 0 56.5 12.536 56.5 28C56.5 43.464 43.964 56 28.5 56C13.036 56 0.5 43.464 0.5 28Z" fill="white"/>
<path d="M28.5001 12.7305C24.3524 12.7305 23.8319 12.7486 22.2028 12.8227C20.577 12.8972 19.4672 13.1546 18.4961 13.5323C17.4917 13.9224 16.6396 14.4442 15.7907 15.2934C14.9412 16.1423 14.4194 16.9944 14.028 17.9986C13.6494 18.97 13.3917 20.0802 13.3185 21.7054C13.2457 23.3345 13.2266 23.8554 13.2266 28.0032C13.2266 32.151 13.245 32.67 13.3188 34.2991C13.3936 35.925 13.651 37.0348 14.0284 38.0059C14.4188 39.0104 14.9406 39.8625 15.7898 40.7114C16.6383 41.5609 17.4904 42.084 18.4942 42.4741C19.4659 42.8518 20.576 43.1092 22.2016 43.1836C23.8306 43.2578 24.3508 43.2759 28.4982 43.2759C32.6462 43.2759 33.1651 43.2578 34.7942 43.1836C36.42 43.1092 37.5311 42.8518 38.5028 42.4741C39.507 42.084 40.3577 41.5609 41.2063 40.7114C42.0558 39.8625 42.5776 39.0104 42.969 38.0062C43.3444 37.0348 43.6021 35.9246 43.6785 34.2994C43.7517 32.6703 43.7708 32.151 43.7708 28.0032C43.7708 23.8554 43.7517 23.3348 43.6785 21.7057C43.6021 20.0798 43.3444 18.97 42.969 17.9989C42.5776 16.9944 42.0558 16.1423 41.2063 15.2934C40.3568 14.4439 39.5073 13.9221 38.5018 13.5323C37.5282 13.1546 36.4178 12.8972 34.792 12.8227C33.1629 12.7486 32.6443 12.7305 28.4953 12.7305H28.5001ZM27.1301 15.4827C27.5367 15.4821 27.9904 15.4827 28.5001 15.4827C32.5778 15.4827 33.0611 15.4974 34.6714 15.5706C36.1604 15.6387 36.9686 15.8875 37.5069 16.0965C38.2196 16.3733 38.7278 16.7042 39.262 17.2388C39.7965 17.7733 40.1274 18.2824 40.4048 18.9951C40.6139 19.5329 40.863 20.3411 40.9308 21.8301C41.004 23.4401 41.0199 23.9238 41.0199 27.9997C41.0199 32.0756 41.004 32.5592 40.9308 34.1692C40.8627 35.6583 40.6139 36.4665 40.4048 37.0042C40.128 37.717 39.7965 38.2245 39.262 38.7587C38.7274 39.2932 38.2199 39.6241 37.5069 39.901C36.9692 40.111 36.1604 40.3591 34.6714 40.4272C33.0614 40.5004 32.5778 40.5163 28.5001 40.5163C24.4221 40.5163 23.9388 40.5004 22.3288 40.4272C20.8398 40.3585 20.0316 40.1097 19.493 39.9006C18.7803 39.6238 18.2712 39.2929 17.7367 38.7584C17.2021 38.2238 16.8712 37.716 16.5938 37.003C16.3847 36.4652 16.1356 35.6571 16.0678 34.168C15.9947 32.558 15.98 32.0743 15.98 27.9959C15.98 23.9174 15.9947 23.4363 16.0678 21.8263C16.1359 20.3372 16.3847 19.5291 16.5938 18.9907C16.8706 18.278 17.2021 17.7689 17.7367 17.2343C18.2712 16.6998 18.7803 16.3689 19.493 16.0914C20.0313 15.8814 20.8398 15.6332 22.3288 15.5648C23.7377 15.5012 24.2837 15.4821 27.1301 15.4789V15.4827ZM36.6523 18.0186C35.6405 18.0186 34.8196 18.8386 34.8196 19.8507C34.8196 20.8626 35.6405 21.6835 36.6523 21.6835C37.6641 21.6835 38.485 20.8626 38.485 19.8507C38.485 18.8389 37.6641 18.018 36.6523 18.018V18.0186ZM28.5001 20.16C24.1688 20.16 20.6572 23.6718 20.6572 28.0032C20.6572 32.3346 24.1688 35.8448 28.5001 35.8448C32.8314 35.8448 36.3418 32.3346 36.3418 28.0032C36.3418 23.6718 32.8311 20.16 28.4998 20.16H28.5001ZM28.5001 22.9123C31.3115 22.9123 33.5909 25.1914 33.5909 28.0032C33.5909 30.8146 31.3115 33.0941 28.5001 33.0941C25.6884 33.0941 23.4093 30.8146 23.4093 28.0032C23.4093 25.1914 25.6884 22.9123 28.5001 22.9123Z" fill="white"/>
</svg>
