<svg fill="none" xmlns="http://www.w3.org/2000/svg" viewBox="0 0 79 73"><g filter="url(#a)"><rect x=".857" width="78" height="73" rx="12" fill="#fff" fill-opacity=".04"/><rect x="1.107" y=".25" width="77.5" height="72.5" rx="11.75" stroke="url(#b)" stroke-width=".5"/></g><path d="M41.638 28.57a1.828 1.828 0 0 1 2.608 2.56l-9.725 12.162a1.828 1.828 0 0 1-2.633.049l-6.45-6.45a1.829 1.829 0 1 1 2.585-2.583l5.104 5.101 8.463-10.786a.602.602 0 0 1 .048-.053Zm-2.242 12.528 2.242 2.243a1.829 1.829 0 0 0 2.63-.049L54 31.13a1.828 1.828 0 1 0-2.66-2.506L42.875 39.41l-1.182-1.184-2.298 2.873h.002Z" fill="url(#c)"/><defs><linearGradient id="b" x1="39.847" y1="73.015" x2="39.847" y2=".007" gradientUnits="userSpaceOnUse"><stop stop-color="#FFBF00"/><stop offset="1" stop-color="#E843C4"/></linearGradient><linearGradient id="c" x1="39.7" y1="28" x2="39.7" y2="43.877" gradientUnits="userSpaceOnUse"><stop stop-color="#E843C4"/><stop offset="1" stop-color="#FFBF00"/></linearGradient><filter id="a" x="-4.143" y="-5" width="88" height="83" filterUnits="userSpaceOnUse" color-interpolation-filters="sRGB"><feFlood flood-opacity="0" result="BackgroundImageFix"/><feGaussianBlur in="BackgroundImage" stdDeviation="2.5"/><feComposite in2="SourceAlpha" operator="in" result="effect1_backgroundBlur_2_1228"/><feBlend in="SourceGraphic" in2="effect1_backgroundBlur_2_1228" result="shape"/></filter></defs></svg>