<svg width="79" height="73" viewBox="0 0 79 73" fill="none" xmlns="http://www.w3.org/2000/svg">
<g filter="url(#filter0_b_2_1243)">
<rect x="0.285645" width="78" height="73" rx="12" fill="white" fill-opacity="0.04"/>
<rect x="0.785645" y="0.5" width="77" height="72" rx="11.5" stroke="white" stroke-opacity="0.15"/>
</g>
<path d="M41.0671 28.5697C41.4105 28.2428 41.8674 28.0621 42.3415 28.0657C42.8156 28.0692 43.2697 28.2569 43.6081 28.5889C43.9465 28.921 44.1426 29.3715 44.1551 29.8454C44.1677 30.3193 43.9956 30.7796 43.6752 31.1291L33.9496 43.2922C33.7824 43.4723 33.5805 43.6169 33.3562 43.7172C33.1318 43.8175 32.8895 43.8716 32.6437 43.8761C32.398 43.8807 32.1538 43.8356 31.9259 43.7437C31.698 43.6517 31.4909 43.5147 31.3171 43.3409L24.8675 36.8913C24.6879 36.7239 24.5438 36.5221 24.4439 36.2979C24.344 36.0736 24.2903 35.8315 24.2859 35.5861C24.2816 35.3406 24.3268 35.0968 24.4187 34.8692C24.5106 34.6415 24.6475 34.4347 24.8211 34.2611C24.9947 34.0876 25.2015 33.9507 25.4291 33.8588C25.6567 33.7668 25.9006 33.7217 26.146 33.726C26.3915 33.7303 26.6336 33.784 26.8578 33.884C27.0821 33.9839 27.2839 34.1279 27.4512 34.3076L32.5554 39.4092L41.0184 28.6233C41.0336 28.6045 41.0498 28.5866 41.0671 28.5697ZM38.8246 41.0984L41.0671 43.3409C41.2409 43.5144 41.4478 43.651 41.6755 43.7428C41.9032 43.8345 42.147 43.8794 42.3925 43.8749C42.638 43.8703 42.88 43.8164 43.1041 43.7163C43.3283 43.6162 43.53 43.4719 43.6972 43.2922L53.4277 31.1291C53.6025 30.9565 53.7407 30.7505 53.8341 30.5233C53.9275 30.2961 53.9742 30.0524 53.9713 29.8068C53.9684 29.5612 53.9161 29.3187 53.8174 29.0937C53.7188 28.8688 53.5758 28.6661 53.397 28.4976C53.2182 28.3292 53.0073 28.1985 52.7769 28.1133C52.5465 28.0282 52.3013 27.9904 52.056 28.0021C51.8106 28.0138 51.5702 28.0749 51.3489 28.1816C51.1277 28.2883 50.9303 28.4386 50.7684 28.6233L42.3029 39.4092L41.1207 38.2246L38.8222 41.0984H38.8246Z" fill="#8B8B8B"/>
<defs>
<filter id="filter0_b_2_1243" x="-4.71436" y="-5" width="88" height="83" filterUnits="userSpaceOnUse" color-interpolation-filters="sRGB">
<feFlood flood-opacity="0" result="BackgroundImageFix"/>
<feGaussianBlur in="BackgroundImage" stdDeviation="2.5"/>
<feComposite in2="SourceAlpha" operator="in" result="effect1_backgroundBlur_2_1243"/>
<feBlend mode="normal" in="SourceGraphic" in2="effect1_backgroundBlur_2_1243" result="shape"/>
</filter>
</defs>
</svg>
