<svg width="24" height="24" viewBox="0 0 24 24" fill="none" xmlns="http://www.w3.org/2000/svg">
<path fill-rule="evenodd" clip-rule="evenodd" d="M13.8462 3.75002C14.9098 3.74754 15.9634 3.95519 16.9465 4.36107C17.9296 4.76694 18.8229 5.36303 19.5749 6.11512C20.327 6.8672 20.9231 7.76045 21.329 8.74356C21.7349 9.72668 21.9425 10.7803 21.94 11.8439L22.44 11.8451H21.94C21.94 13.4461 21.4653 15.0112 20.5758 16.3424C20.2991 16.7564 19.9863 17.142 19.642 17.4953C19.2319 16.8588 18.6815 16.3216 18.0303 15.9265C17.2307 15.4413 16.311 15.1897 15.3757 15.2005H12.4818C11.5255 15.1898 10.5862 15.4532 9.77497 15.9595C9.11152 16.3736 8.5564 16.936 8.15161 17.5996C8.14138 17.5895 8.13117 17.5793 8.12098 17.5691C6.98887 16.437 6.2179 14.9946 5.90555 13.4243C5.5932 11.854 5.75351 10.2264 6.3662 8.74722C6.97889 7.26805 8.01645 6.00378 9.34767 5.11428C10.6789 4.22479 12.244 3.75002 13.845 3.75002L13.8462 3.75002ZM22.2533 8.36196C22.7093 9.46657 22.9427 10.6504 22.94 11.8454C22.94 13.6441 22.4066 15.4024 21.4072 16.898C20.4079 18.3937 18.9874 19.5594 17.3255 20.2478C15.6636 20.9362 13.8349 21.1163 12.0707 20.7653C10.3064 20.4144 8.68583 19.5482 7.41387 18.2762C6.14191 17.0043 5.2757 15.3837 4.92476 13.6194C4.57383 11.8552 4.75394 10.0264 5.44232 8.36454C6.1307 6.70264 7.29643 5.28219 8.7921 4.28281C10.2876 3.28355 12.0458 2.75014 13.8444 2.75002L13.8438 2.75002L13.845 3.25002V2.75002L13.8444 2.75002C15.0395 2.74731 16.2234 2.98068 17.3281 3.43674C18.433 3.89288 19.4368 4.56279 20.2821 5.40801C21.1273 6.25323 21.7972 7.2571 22.2533 8.36196ZM10.7578 10.676C10.7578 9.0237 12.1747 7.67186 13.9288 7.67186C15.6811 7.67186 17.0997 9.0237 17.0997 10.676C17.0997 12.3282 15.6811 13.68 13.9288 13.68C12.1764 13.68 10.7578 12.3282 10.7578 10.676Z" fill="url(#paint0_linear_7104_12092)"/>
<path d="M3.15909 1V3.15909M3.15909 3.15909V5.31818M3.15909 3.15909H1M3.15909 3.15909H5.31818" stroke="url(#paint1_linear_7104_12092)" stroke-linecap="round" stroke-linejoin="round"/>
<defs>
<linearGradient id="paint0_linear_7104_12092" x1="13.8429" y1="20.6937" x2="13.8429" y2="3.0018" gradientUnits="userSpaceOnUse">
<stop stop-color="#FFBF00"/>
<stop offset="1" stop-color="#E843C4"/>
</linearGradient>
<linearGradient id="paint1_linear_7104_12092" x1="3.15857" y1="5.31906" x2="3.15857" y2="1.00044" gradientUnits="userSpaceOnUse">
<stop stop-color="#FFBF00"/>
<stop offset="1" stop-color="#E843C4"/>
</linearGradient>
</defs>
</svg>
