<svg width="28" height="25" viewBox="0 0 28 25" fill="none" xmlns="http://www.w3.org/2000/svg">
<g filter="url(#filter0_b_7219_13572)">
<path fill-rule="evenodd" clip-rule="evenodd" d="M5.28896 1.6653C5.28896 1.1278 4.85323 0.692078 4.31574 0.692078C3.77824 0.692078 3.34252 1.1278 3.34252 1.6653L3.34252 9.48915C3.34252 10.0266 3.77824 10.4624 4.31574 10.4624C4.85323 10.4624 5.28896 10.0266 5.28896 9.48914V1.6653ZM17.6134 9.89625C17.3283 10.254 16.8958 10.4624 16.4384 10.4624H11.7453C11.2355 10.4624 10.7566 10.2179 10.4575 9.80508C10.2609 9.53373 10.1551 9.20723 10.1551 8.87216V7.97044C10.1551 7.62454 10.2817 7.2906 10.511 7.03163C10.7798 6.72805 11.1658 6.55425 11.5713 6.55425L16.4384 6.55425C16.8958 6.55425 17.3283 6.76263 17.6134 7.12037C17.8254 7.38641 17.9408 7.71652 17.9408 8.05671V8.95991C17.9408 9.30009 17.8254 9.63021 17.6134 9.89625ZM7.88118 15.7584C7.5961 16.1162 7.16359 16.3245 6.70617 16.3245H1.92531C1.46788 16.3245 1.03537 16.1162 0.750302 15.7584C0.538297 15.4924 0.422852 15.1623 0.422852 14.8221V13.9189C0.422852 13.5787 0.538297 13.2486 0.750302 12.9825C1.03537 12.6248 1.46788 12.4164 1.92531 12.4164H6.70617C7.16359 12.4164 7.5961 12.6248 7.88118 12.9825C8.09318 13.2486 8.20863 13.5787 8.20863 13.9189V14.8221C8.20863 15.1623 8.09318 15.4924 7.88118 15.7584ZM15.0212 1.6653C15.0212 1.1278 14.5855 0.692078 14.048 0.692078C13.5105 0.692078 13.0747 1.1278 13.0747 1.6653V3.62697C13.0747 4.16447 13.5105 4.60019 14.048 4.60019C14.5855 4.60019 15.0212 4.16447 15.0212 3.62697V1.6653ZM13.0747 13.3896C13.0747 12.8522 13.5105 12.4164 14.048 12.4164C14.5855 12.4164 15.0212 12.8522 15.0212 13.3896V23.1675C15.0212 23.705 14.5855 24.1408 14.048 24.1408C13.5105 24.1408 13.0747 23.705 13.0747 23.1676V13.3896ZM5.28896 19.2518C5.28896 18.7143 4.85323 18.2786 4.31574 18.2786C3.77824 18.2786 3.34252 18.7143 3.34252 19.2518V23.1675C3.34252 23.705 3.77824 24.1408 4.31574 24.1408C4.85323 24.1408 5.28896 23.705 5.28896 23.1676V19.2518ZM20.2147 17.7125C20.4998 18.0702 20.9323 18.2786 21.3897 18.2786H26.1511C26.6086 18.2786 27.0411 18.0702 27.3261 17.7125C27.5382 17.4464 27.6536 17.1163 27.6536 16.7761V15.9706C27.6536 15.6305 27.5382 15.3003 27.3261 15.0343C27.0411 14.6766 26.6086 14.4682 26.1511 14.4682H21.3897C20.9323 14.4682 20.4998 14.6766 20.2147 15.0343C20.0027 15.3003 19.8873 15.6305 19.8873 15.9706V16.7761C19.8873 17.1163 20.0027 17.4464 20.2147 17.7125ZM24.7534 1.6653C24.7534 1.1278 24.3177 0.692078 23.7802 0.692078C23.2427 0.692078 22.807 1.1278 22.807 1.6653V11.4432C22.807 11.9807 23.2427 12.4164 23.7802 12.4164C24.3177 12.4164 24.7534 11.9807 24.7534 11.4432V1.6653ZM22.807 21.2059C22.807 20.6684 23.2427 20.2327 23.7802 20.2327C24.3177 20.2327 24.7534 20.6684 24.7534 21.2059V23.1676C24.7534 23.705 24.3177 24.1408 23.7802 24.1408C23.2427 24.1408 22.807 23.705 22.807 23.1676V21.2059Z" fill="url(#paint0_linear_7219_13572)"/>
</g>
<defs>
<filter id="filter0_b_7219_13572" x="-4.57715" y="-4.30792" width="37.231" height="33.4487" filterUnits="userSpaceOnUse" color-interpolation-filters="sRGB">
<feFlood flood-opacity="0" result="BackgroundImageFix"/>
<feGaussianBlur in="BackgroundImage" stdDeviation="2.5"/>
<feComposite in2="SourceAlpha" operator="in" result="effect1_backgroundBlur_7219_13572"/>
<feBlend mode="normal" in="SourceGraphic" in2="effect1_backgroundBlur_7219_13572" result="shape"/>
</filter>
<linearGradient id="paint0_linear_7219_13572" x1="14.0382" y1="0.692078" x2="14.0382" y2="24.1408" gradientUnits="userSpaceOnUse">
<stop stop-color="#FFBF00"/>
<stop offset="1" stop-color="#E843C4"/>
</linearGradient>
</defs>
</svg>
