<svg width="27" height="28" viewBox="0 0 27 28" fill="none" xmlns="http://www.w3.org/2000/svg">
<path d="M16.8352 2.08124C16.3898 1.62545 15.8578 1.26328 15.2705 1.01601C14.6831 0.768748 14.0523 0.641373 13.415 0.641373C12.7778 0.641373 12.1469 0.768748 11.5596 1.01601C10.9723 1.26328 10.4403 1.62545 9.99488 2.08124L8.96569 3.1369L7.49306 3.1187C6.8556 3.11116 6.22308 3.23115 5.63268 3.47162C5.04227 3.71209 4.50591 4.06818 4.05513 4.51896C3.60435 4.96974 3.24826 5.5061 3.00779 6.0965C2.76732 6.68691 2.64733 7.31943 2.65487 7.95689L2.67142 9.42952L1.61906 10.4587C1.16328 10.9041 0.801108 11.4361 0.553841 12.0234C0.306575 12.6108 0.179199 13.2416 0.179199 13.8789C0.179199 14.5161 0.306575 15.147 0.553841 15.7343C0.801108 16.3216 1.16328 16.8536 1.61906 17.299L2.67307 18.3282L2.65487 19.8008C2.64733 20.4383 2.76732 21.0708 3.00779 21.6612C3.24826 22.2516 3.60435 22.788 4.05513 23.2388C4.50591 23.6895 5.04227 24.0456 5.63268 24.2861C6.22308 24.5266 6.8556 24.6466 7.49306 24.639L8.96569 24.6225L9.99488 25.6748C10.4403 26.1306 10.9723 26.4928 11.5596 26.7401C12.1469 26.9873 12.7778 27.1147 13.415 27.1147C14.0523 27.1147 14.6831 26.9873 15.2705 26.7401C15.8578 26.4928 16.3898 26.1306 16.8352 25.6748L17.8644 24.6208L19.337 24.639C19.9745 24.6466 20.607 24.5266 21.1974 24.2861C21.7878 24.0456 22.3242 23.6895 22.7749 23.2388C23.2257 22.788 23.5818 22.2516 23.8223 21.6612C24.0628 21.0708 24.1827 20.4383 24.1752 19.8008L24.1587 18.3282L25.211 17.299C25.6668 16.8536 26.029 16.3216 26.2762 15.7343C26.5235 15.147 26.6509 14.5161 26.6509 13.8789C26.6509 13.2416 26.5235 12.6108 26.2762 12.0234C26.029 11.4361 25.6668 10.9041 25.211 10.4587L24.157 9.42952L24.1752 7.95689C24.1827 7.31943 24.0628 6.68691 23.8223 6.0965C23.5818 5.5061 23.2257 4.96974 22.7749 4.51896C22.3242 4.06818 21.7878 3.71209 21.1974 3.47162C20.607 3.23115 19.9745 3.11116 19.337 3.1187L17.8644 3.13525L16.8352 2.08289V2.08124ZM17.3101 11.9826L12.3461 16.9466C12.2693 17.0236 12.178 17.0848 12.0775 17.1265C11.977 17.1682 11.8692 17.1896 11.7604 17.1896C11.6516 17.1896 11.5438 17.1682 11.4433 17.1265C11.3428 17.0848 11.2515 17.0236 11.1746 16.9466L8.69268 14.4646C8.61575 14.3877 8.55474 14.2964 8.51311 14.1959C8.47148 14.0954 8.45005 13.9876 8.45005 13.8789C8.45005 13.7701 8.47148 13.6624 8.51311 13.5619C8.55474 13.4614 8.61575 13.37 8.69268 13.2931C8.7696 13.2162 8.86091 13.1552 8.96142 13.1136C9.06192 13.0719 9.16964 13.0505 9.27842 13.0505C9.3872 13.0505 9.49492 13.0719 9.59542 13.1136C9.69593 13.1552 9.78724 13.2162 9.86416 13.2931L11.7604 15.191L16.1386 10.8112C16.2939 10.6558 16.5046 10.5685 16.7243 10.5685C16.944 10.5685 17.1547 10.6558 17.3101 10.8112C17.4654 10.9665 17.5527 11.1772 17.5527 11.3969C17.5527 11.6166 17.4654 11.8273 17.3101 11.9826Z" fill="url(#paint0_linear_7219_13566)"/>
<defs>
<linearGradient id="paint0_linear_7219_13566" x1="13.415" y1="0.641373" x2="13.415" y2="27.1147" gradientUnits="userSpaceOnUse">
<stop stop-color="#FFBF00"/>
<stop offset="1" stop-color="#E843C4"/>
</linearGradient>
</defs>
</svg>
