<svg width="24" height="24" viewBox="0 0 24 24" fill="none" xmlns="http://www.w3.org/2000/svg">
<path fill-rule="evenodd" clip-rule="evenodd" d="M12.4355 2C13.5774 2 14.7082 2.22492 15.7632 2.66193C16.8183 3.09894 17.7769 3.73946 18.5844 4.54695L12.4355 10.6958L12.4355 2ZM19.4529 7.15585C20.2604 7.96333 20.9009 8.92195 21.3379 9.97698C21.7749 11.032 21.9998 12.1628 21.9998 13.3047C21.9998 14.4467 21.7749 15.5774 21.3379 16.6325C20.9009 17.6875 20.2604 18.6461 19.4529 19.4536L13.304 13.3047L19.4529 7.15585ZM13.2201 21.6261C14.5885 21.211 15.8335 20.4648 16.8447 19.4536L10.6958 13.3047L10.6958 4.60891C9.26578 4.60891 7.85782 4.96159 6.59664 5.6357C5.33546 6.30981 4.26 7.28456 3.46551 8.47359C2.67103 9.66262 2.18204 11.0292 2.04187 12.4524C1.90171 13.8755 2.11468 15.3113 2.66193 16.6325C3.20918 17.9537 4.07382 19.1195 5.17925 20.0267C6.28469 20.9339 7.59679 21.5545 8.99935 21.8335C10.4019 22.1124 11.8516 22.0412 13.2201 21.6261Z" fill="url(#paint0_linear_1087_28638)"/>
<defs>
<linearGradient id="paint0_linear_1087_28638" x1="11.9975" y1="22.0046" x2="11.9975" y2="2.00203" gradientUnits="userSpaceOnUse">
<stop stop-color="#FFBF00"/>
<stop offset="1" stop-color="#E843C4"/>
</linearGradient>
</defs>
</svg>
