<svg width="41" height="40" viewBox="0 0 41 40" fill="none" xmlns="http://www.w3.org/2000/svg">
<path fill-rule="evenodd" clip-rule="evenodd" d="M40.8574 20C40.8574 31.0457 31.9031 40 20.8574 40C9.81173 40 0.857422 31.0457 0.857422 20C0.857422 8.9543 9.81173 0 20.8574 0C31.9031 0 40.8574 8.9543 40.8574 20ZM31.7631 11.4027C31.8037 11.4224 31.8411 11.4475 31.8743 11.4769C31.9153 11.511 31.9506 11.5516 31.9786 11.5971C32.0124 11.6521 32.035 11.7132 32.045 11.777L32.174 12.5567C32.2849 13.3348 32.3366 14.1202 32.3286 14.9061C32.328 16.604 32.1232 18.2958 31.7188 19.9448C31.1687 22.1964 30.2109 24.3282 28.8928 26.2347C27.3659 28.4287 25.1539 30.5851 21.9753 32.2983L21.3715 32.6236C21.3003 32.6621 21.2206 32.6823 21.1396 32.6823C21.0586 32.6823 20.979 32.6621 20.9077 32.6236L20.3031 32.2983C17.121 30.5859 14.9099 28.4287 13.3855 26.2347C12.0667 24.328 11.1084 22.196 10.5578 19.944C10.1534 18.2949 9.94869 16.6032 9.94807 14.9052C9.94006 14.1193 9.99173 13.3339 10.1027 12.5558L10.2207 11.8419C10.2202 11.7902 10.2278 11.7387 10.2434 11.6892C10.2629 11.6276 10.2945 11.5704 10.3362 11.521C10.378 11.4715 10.4291 11.4309 10.4867 11.4014C10.5443 11.3719 10.6071 11.3542 10.6716 11.3491C10.7361 11.3441 10.801 11.3519 10.8624 11.3721C10.9239 11.3924 10.9807 11.4246 11.0296 11.4669C11.0785 11.5092 11.1186 11.5609 11.1474 11.6188L15.5218 20.1523H26.8547C26.9036 20.1523 26.9517 20.1596 26.9975 20.1737L27.051 20.0736L31.111 11.6256C31.1684 11.51 31.2691 11.4218 31.3912 11.3801C31.5133 11.3383 31.647 11.3465 31.7631 11.4027ZM26.4864 21.1302H16.023L21.1463 31.1247L26.4864 21.1302ZM27.9255 20.5074L31.2929 13.5067C31.3324 13.9713 31.3497 14.4378 31.3447 14.9044C31.3439 16.5229 31.1486 18.1355 30.7632 19.7074C30.2419 21.843 29.3339 23.8651 28.0841 25.6736C26.7745 27.5571 24.9354 29.4124 22.3343 30.9659L27.9161 20.5262L27.9255 20.5074ZM10.984 13.4459L19.9704 30.9856C17.3519 29.4282 15.5034 27.5651 14.1874 25.6736C12.9377 23.8651 12.0297 21.843 11.5084 19.7074C11.123 18.1357 10.9277 16.5235 10.9268 14.9052C10.9215 14.418 10.9406 13.9309 10.984 13.4459ZM21.1365 9.18403L13.8688 11.4045L13.8679 11.4028C13.8062 11.4218 13.7412 11.4285 13.6769 11.4224C13.6125 11.4163 13.55 11.3975 13.493 11.3672C13.4359 11.3368 13.3853 11.2955 13.3443 11.2456C13.3032 11.1957 13.2724 11.1382 13.2536 11.0763C13.2348 11.0144 13.2284 10.9495 13.2348 10.8852C13.2412 10.8208 13.2602 10.7584 13.2908 10.7015C13.3214 10.6445 13.3629 10.5942 13.413 10.5533C13.4631 10.5124 13.5208 10.4819 13.5827 10.4634L20.9939 8.20105C21.0869 8.17257 21.1862 8.17257 21.2791 8.20105L28.8518 10.5129C28.9758 10.5511 29.0797 10.637 29.1406 10.7516C29.2015 10.8663 29.2146 11.0004 29.1768 11.1246C29.1391 11.2488 29.0537 11.3531 28.9393 11.4145C28.825 11.4759 28.6909 11.4895 28.5665 11.4523L21.1365 9.18403Z" fill="url(#paint0_linear_3944_54530)"/>
<defs>
<linearGradient id="paint0_linear_3944_54530" x1="20.8526" y1="40.0081" x2="20.8526" y2="0.00406783" gradientUnits="userSpaceOnUse">
<stop stop-color="#FFBF00"/>
<stop offset="1" stop-color="#E843C4"/>
</linearGradient>
</defs>
</svg>
