<svg width="31" height="30" viewBox="0 0 31 30" fill="none" xmlns="http://www.w3.org/2000/svg">
<path fill-rule="evenodd" clip-rule="evenodd" d="M14.9559 3.6032C14.9559 3.21394 15.2714 2.89838 15.6607 2.89838C16.05 2.89838 16.3655 3.21394 16.3655 3.6032C16.3655 3.99246 16.05 4.30802 15.6607 4.30802C15.2714 4.30802 14.9559 3.99246 14.9559 3.6032ZM13.0587 5.97996L5.79319 10.0667L5.79319 18.6967C5.98189 18.7791 6.16197 18.8776 6.33172 18.9904L10.022 16.8817V13.1188C10.022 12.6174 10.2883 12.1538 10.7214 11.9012L14.252 9.84169V6.83445C13.7958 6.63528 13.3899 6.34233 13.0587 5.97996ZM2.97391 9.24223V18.6966C1.72922 19.2404 0.859375 20.4824 0.859375 21.9275C0.859375 23.8738 2.43717 25.4516 4.38347 25.4516C5.18053 25.4516 5.91579 25.187 6.50619 24.7408L14.9695 29.5011C15.3987 29.7425 15.9226 29.7425 16.3517 29.5011L21.9902 26.3294L21.9903 26.3294L24.8148 24.7403C25.4053 25.1868 26.1408 25.4516 26.9382 25.4516C28.8845 25.4516 30.4623 23.8738 30.4623 21.9275C30.4623 20.4822 29.5922 19.2401 28.3474 18.6964V9.24223C28.3474 8.73296 28.0727 8.26329 27.6288 8.01362L19.1678 3.25446C18.9927 1.47186 17.4893 0.0791016 15.6607 0.0791016C13.8321 0.0791016 12.3288 1.47182 12.1537 3.25437L3.69248 8.01362C3.2486 8.26329 2.97391 8.73296 2.97391 9.24223ZM26.9004 21.2237C26.9128 21.224 26.9252 21.2242 26.9377 21.2242C26.9504 21.2242 26.9631 21.224 26.9757 21.2237C27.3475 21.2432 27.643 21.5508 27.643 21.9275C27.643 22.3168 27.3274 22.6323 26.9382 22.6323C26.5489 22.6323 26.2333 22.3168 26.2333 21.9275C26.2333 21.5509 26.5287 21.2433 26.9004 21.2237ZM25.5281 18.6968V10.0667L18.2627 5.98002C17.9319 6.34189 17.5267 6.63453 17.0712 6.83367V9.84287L20.5998 11.9012C21.0328 12.1538 21.2991 12.6174 21.2991 13.1188V16.8817L24.9897 18.9906C25.1594 18.8778 25.3394 18.7793 25.5281 18.6968ZM23.459 21.363L20.2023 19.502L16.3709 21.737C15.932 21.9931 15.3892 21.9931 14.9503 21.737L11.1189 19.502L7.86257 21.3628C7.89218 21.5466 7.90757 21.7353 7.90757 21.9275C7.90757 22.048 7.90153 22.167 7.88973 22.2844L15.6606 26.6552L20.608 23.8723L20.6081 23.8722L23.4318 22.2836C23.4201 22.1665 23.4141 22.0477 23.4141 21.9275C23.4141 21.7353 23.4294 21.5468 23.459 21.363ZM3.67865 21.9275C3.67865 21.5509 3.97405 21.2432 4.34579 21.2237C4.35834 21.224 4.37092 21.2242 4.38355 21.2242C4.39613 21.2242 4.40867 21.224 4.42116 21.2237C4.79291 21.2433 5.08829 21.5509 5.08829 21.9275C5.08829 22.3168 4.77274 22.6323 4.38347 22.6323C3.99421 22.6323 3.67865 22.3168 3.67865 21.9275ZM12.8413 13.9285L15.6606 12.2839L18.4799 13.9285V17.2429L15.6606 18.8875L12.8413 17.2429V13.9285Z" fill="url(#paint0_linear_7219_13578)"/>
<defs>
<linearGradient id="paint0_linear_7219_13578" x1="15.6608" y1="0.0791016" x2="15.6608" y2="29.6821" gradientUnits="userSpaceOnUse">
<stop stop-color="#FFBF00"/>
<stop offset="1" stop-color="#E843C4"/>
</linearGradient>
</defs>
</svg>
