<svg width="49" height="43" viewBox="0 0 49 43" fill="none" xmlns="http://www.w3.org/2000/svg">
<path fill-rule="evenodd" clip-rule="evenodd" d="M25 7.57895C22.7947 7.57895 21 5.87874 21 3.78947C21 1.70021 22.7947 0 25 0C27.2053 0 29 1.70021 29 3.78947C29 5.87874 27.2053 7.57895 25 7.57895ZM33 16H32.1111H17V15.1579C17 11.9082 19.7911 9.26316 23.2222 9.26316H26.7778C30.208 9.26316 33 11.9082 33 15.1579V16ZM8 34.5789C5.79467 34.5789 4 32.8787 4 30.7895C4 28.7002 5.79467 27 8 27C10.2053 27 12 28.7002 12 30.7895C12 32.8787 10.2053 34.5789 8 34.5789ZM16 43H15.1111H0V42.1579C0 38.9082 2.79111 36.2632 6.22222 36.2632H9.77778C13.208 36.2632 16 38.9082 16 42.1579V43ZM37 30.7895C37 32.8787 38.7947 34.5789 41 34.5789C43.2053 34.5789 45 32.8787 45 30.7895C45 28.7002 43.2053 27 41 27C38.7947 27 37 28.7002 37 30.7895ZM48.1111 43H49V42.1579C49 38.9082 46.208 36.2632 42.7778 36.2632H39.2222C35.7911 36.2632 33 38.9082 33 42.1579V43H48.1111ZM18.7572 18.5713C18.5204 18.4292 18.2132 18.506 18.0712 18.7428L13.5712 26.2428C13.4291 26.4796 13.5059 26.7867 13.7427 26.9288C13.9795 27.0709 14.2866 26.9941 14.4287 26.7573L18.9287 19.2573C19.0707 19.0205 18.9939 18.7134 18.7572 18.5713ZM32.4284 18.7429C32.2863 18.5061 31.9792 18.4293 31.7424 18.5714C31.5056 18.7134 31.4288 19.0206 31.5709 19.2574L36.0709 26.7574C36.2129 26.9942 36.5201 27.0709 36.7569 26.9289C36.9937 26.7868 37.0704 26.4797 36.9284 26.2429L32.4284 18.7429ZM20.9999 38.5C20.7238 38.5 20.4999 38.7239 20.4999 39C20.4999 39.2762 20.7238 39.5 20.9999 39.5H28.9999C29.2761 39.5 29.4999 39.2762 29.4999 39C29.4999 38.7239 29.2761 38.5 28.9999 38.5H20.9999Z" fill="url(#paint0_linear_3996_41851)"/>
<defs>
<linearGradient id="paint0_linear_3996_41851" x1="24.494" y1="43.0087" x2="24.494" y2="0.00437292" gradientUnits="userSpaceOnUse">
<stop stop-color="#FFBF00"/>
<stop offset="1" stop-color="#E843C4"/>
</linearGradient>
</defs>
</svg>
