<svg width="20" height="20" viewBox="0 0 20 20" fill="none" xmlns="http://www.w3.org/2000/svg">
<path d="M17.3504 17.3484H2.34824L2.34824 2.34629L9.8493 2.34629V0.203125L2.34824 0.203125C1.77984 0.203125 1.23472 0.428921 0.832795 0.830842C0.430875 1.23276 0.205078 1.77788 0.205078 2.34629L0.205078 17.3484C0.205078 17.9168 0.430875 18.4619 0.832795 18.8638C1.23472 19.2658 1.77984 19.4916 2.34824 19.4916H17.3504C18.5291 19.4916 19.4935 18.5271 19.4935 17.3484V9.84735H17.3504V17.3484ZM11.9925 0.203125V2.34629H15.8394L5.3058 12.8799L6.81673 14.3908L17.3504 3.85721V7.70419H19.4935V0.203125L11.9925 0.203125Z" fill="url(#paint0_linear_7219_13593)"/>
<defs>
<linearGradient id="paint0_linear_7219_13593" x1="9.8493" y1="0.203125" x2="9.8493" y2="19.4916" gradientUnits="userSpaceOnUse">
<stop stop-color="#FFBF00"/>
<stop offset="1" stop-color="#E843C4"/>
</linearGradient>
</defs>
</svg>
