<svg width="13" height="17" viewBox="0 0 13 17" fill="none" xmlns="http://www.w3.org/2000/svg">
<path d="M4.96846 11.9239C4.83983 11.9239 4.72728 11.884 4.63081 11.8042C4.53433 11.7085 4.48608 11.5967 4.48608 11.469V10.9183C4.59863 10.2479 4.84788 9.64929 5.23378 9.12253C5.63575 8.59577 6.18243 7.99718 6.87383 7.32676C7.38836 6.81596 7.77428 6.40094 8.03155 6.08169C8.28881 5.74648 8.42549 5.41127 8.44157 5.07606C8.4898 4.58122 8.32096 4.19014 7.93506 3.90282C7.56524 3.59953 7.11503 3.44789 6.58442 3.44789C5.33024 3.44789 4.55843 4.04648 4.26901 5.24366C4.14038 5.62676 3.89116 5.81831 3.52134 5.81831H0.578858C0.401987 5.81831 0.257271 5.76244 0.144717 5.6507C0.0482421 5.523 0 5.36338 0 5.17183C0.0321583 4.2939 0.313537 3.46385 0.844149 2.68169C1.37476 1.88357 2.15461 1.23709 3.18368 0.742254C4.21275 0.247418 5.44279 0 6.87383 0C8.33704 0 9.52691 0.231455 10.4434 0.694366C11.3599 1.14131 12.0111 1.7 12.397 2.37042C12.799 3.02488 13 3.6953 13 4.38169C13 5.16385 12.8151 5.85023 12.4453 6.44085C12.0915 7.03146 11.5609 7.70986 10.8534 8.47606C10.4193 8.93897 10.0736 9.33005 9.81633 9.64929C9.57514 9.96854 9.39024 10.3038 9.2616 10.6549C9.21337 10.7986 9.15707 11.0141 9.09276 11.3014C8.96412 11.5249 8.85157 11.6845 8.7551 11.7803C8.65863 11.8761 8.52195 11.9239 8.34508 11.9239H4.96846ZM5.01671 17C4.83983 17 4.69512 16.9441 4.58257 16.8324C4.47001 16.7207 4.41374 16.577 4.41374 16.4014L4.41374 13.6718C4.41374 13.4962 4.47001 13.3526 4.58257 13.2408C4.69512 13.1291 4.83983 13.0732 5.01671 13.0732H8.10389C8.28076 13.0732 8.42548 13.1291 8.53803 13.2408C8.66666 13.3526 8.73098 13.4962 8.73098 13.6718V16.4014C8.73098 16.577 8.66666 16.7207 8.53803 16.8324C8.42548 16.9441 8.28076 17 8.10389 17H5.01671Z" fill="url(#paint0_linear_5582_16305)"/>
<defs>
<linearGradient id="paint0_linear_5582_16305" x1="6.5" y1="0" x2="6.5" y2="17" gradientUnits="userSpaceOnUse">
<stop stop-color="#FFBF00"/>
<stop offset="1" stop-color="#E843C4"/>
</linearGradient>
</defs>
</svg>
