<svg width="24" height="24" viewBox="0 0 24 24" fill="none" xmlns="http://www.w3.org/2000/svg">
<path d="M17 21.2499L17.002 15.2484C15.5839 16.3875 13.8188 17.007 12 17.0038C10.182 17.0068 8.41769 16.3877 7 15.2494L7.003 21.2509C7.00333 21.3881 7.04125 21.5225 7.11264 21.6396C7.18403 21.7568 7.28616 21.8521 7.40792 21.9152C7.52969 21.9783 7.66642 22.0068 7.80325 21.9976C7.94008 21.9884 8.07177 21.9419 8.184 21.8631L12.001 19.1754L15.819 21.8631C15.9313 21.9422 16.0632 21.989 16.2003 21.9983C16.3373 22.0076 16.4743 21.979 16.5963 21.9158C16.7182 21.8525 16.8205 21.7569 16.8919 21.6395C16.9632 21.5221 17 21.3873 17 21.2499ZM19 9.00178C19 8.08229 18.8189 7.17181 18.4672 6.32232C18.1154 5.47282 17.5998 4.70095 16.9497 4.05077C16.2997 3.4006 15.5281 2.88485 14.6788 2.53298C13.8295 2.18111 12.9193 2 12 2C11.0807 2 10.1705 2.18111 9.32122 2.53298C8.47194 2.88485 7.70026 3.4006 7.05025 4.05077C6.40024 4.70095 5.88463 5.47282 5.53284 6.32232C5.18106 7.17181 5 8.08229 5 9.00178C5 10.8588 5.7375 12.6397 7.05025 13.9528C8.36301 15.2659 10.1435 16.0036 12 16.0036C13.8565 16.0036 15.637 15.2659 16.9497 13.9528C18.2625 12.6397 19 10.8588 19 9.00178ZM12.229 5.64293L13.141 7.4964L15.185 7.79147C15.395 7.82148 15.478 8.07955 15.327 8.22658L13.848 9.66695L14.198 11.7035C14.2061 11.7504 14.2009 11.7986 14.183 11.8428C14.1651 11.8869 14.1352 11.9251 14.0967 11.9531C14.0582 11.9811 14.0126 11.9978 13.9651 12.0012C13.9176 12.0046 13.8701 11.9947 13.828 11.9725L12 11.0103L10.173 11.9725C10.1309 11.9947 10.0834 12.0046 10.0359 12.0012C9.98842 11.9978 9.94285 11.9811 9.90434 11.9531C9.86584 11.9251 9.83594 11.8869 9.81803 11.8428C9.80012 11.7986 9.79491 11.7504 9.803 11.7035L10.153 9.66795L8.673 8.22758C8.63861 8.19436 8.61424 8.15214 8.60269 8.10573C8.59114 8.05932 8.59287 8.01059 8.60767 7.96512C8.62248 7.91964 8.64977 7.87925 8.68643 7.84854C8.72309 7.81784 8.76764 7.79806 8.815 7.79147L10.859 7.4964L11.771 5.64293C11.792 5.60007 11.8246 5.56396 11.8651 5.53871C11.9055 5.51346 11.9523 5.50007 12 5.50007C12.0477 5.50007 12.0945 5.51346 12.1349 5.53871C12.1754 5.56396 12.208 5.60007 12.229 5.64293Z" fill="url(#paint0_linear_1022_26831)"/>
<defs>
<linearGradient id="paint0_linear_1022_26831" x1="11.9983" y1="22.0041" x2="11.9983" y2="2.00203" gradientUnits="userSpaceOnUse">
<stop stop-color="#FFBF00"/>
<stop offset="1" stop-color="#E843C4"/>
</linearGradient>
</defs>
</svg>
