<svg width="68" height="68" viewBox="0 0 68 68" fill="none" xmlns="http://www.w3.org/2000/svg">
<g filter="url(#filter0_b_3880_38816)">
<rect width="68" height="68" rx="34" fill="#211426" fill-opacity="0.33"/>
<rect x="0.5" y="0.5" width="67" height="67" rx="33.5" stroke="url(#paint0_linear_3880_38816)" stroke-opacity="0.2"/>
</g>
<path d="M34.4199 35.7938C35.9142 35.7938 37.2669 35.1878 38.2462 34.2085C39.2244 33.2302 39.8304 31.8776 39.8304 30.3832C39.8304 28.8888 39.2244 27.5362 38.2462 26.5579C37.2669 25.5786 35.9142 24.9727 34.4199 24.9727C32.9255 24.9727 31.5728 25.5786 30.5935 26.5579C29.6153 27.5362 29.0093 28.8888 29.0093 30.3832C29.0093 31.8776 29.6153 33.2302 30.5935 34.2085C31.0954 34.7118 31.6918 35.1109 32.3485 35.383C33.0051 35.655 33.7091 35.7946 34.4199 35.7938ZM43.0767 36.8759C43.4322 36.8766 43.7843 36.8071 44.1128 36.6714C44.4414 36.5357 44.7399 36.3365 44.9912 36.0851C45.2426 35.8338 45.4418 35.5352 45.5775 35.2067C45.7132 34.8782 45.7827 34.5261 45.782 34.1706C45.782 33.4239 45.4801 32.7476 44.9899 32.2574C44.7389 32.0058 44.4407 31.8064 44.1124 31.6704C43.784 31.5345 43.4321 31.4648 43.0767 31.4653C42.7213 31.4646 42.3692 31.5341 42.0406 31.6698C41.7121 31.8055 41.4136 32.0047 41.1622 32.2561C40.9109 32.5074 40.7116 32.8059 40.5759 33.1345C40.4402 33.463 40.3707 33.8151 40.3715 34.1706C40.3709 34.526 40.4405 34.8781 40.5762 35.2065C40.712 35.535 40.9112 35.8335 41.1625 36.0848C41.4139 36.3361 41.7123 36.5354 42.0408 36.6711C42.3693 36.8069 42.7213 36.8764 43.0767 36.8759ZM43.0767 37.5143C41.6364 37.5143 40.5533 37.9537 39.9202 38.5618C38.7137 37.5695 36.8059 36.8759 34.4199 36.8759C31.9678 36.8759 30.0968 37.5771 28.9097 38.5683C28.2648 37.9569 27.1697 37.5143 25.763 37.5143C23.3953 37.5143 21.9756 38.6938 21.9756 39.8755C21.9756 40.4652 23.3953 41.0571 25.763 41.0571C26.4166 41.0571 27.0031 41.002 27.5192 40.9132L27.476 41.2054C27.476 42.2875 30.0795 43.3696 34.4199 43.3696C38.4908 43.3696 41.3638 42.2875 41.3638 41.2054L41.3421 40.9295C41.8431 41.0084 42.4188 41.0571 43.0767 41.0571C45.2961 41.0571 46.8641 40.4652 46.8641 39.8755C46.8641 38.6938 45.3784 37.5143 43.0767 37.5143ZM25.763 36.8759C26.5096 36.8759 27.1859 36.574 27.6761 36.0838C27.9277 35.8328 28.1272 35.5346 28.2631 35.2062C28.3991 34.8779 28.4688 34.5259 28.4682 34.1706C28.469 33.8151 28.3995 33.463 28.2638 33.1345C28.1281 32.8059 27.9288 32.5074 27.6775 32.2561C27.4261 32.0047 27.1276 31.8055 26.7991 31.6698C26.4705 31.5341 26.1184 31.4646 25.763 31.4653C25.4075 31.4647 25.0555 31.5343 24.727 31.6701C24.3986 31.8058 24.1001 32.0051 23.8488 32.2564C23.5975 32.5077 23.3982 32.8062 23.2625 33.1347C23.1267 33.4631 23.0571 33.8152 23.0577 34.1706C23.057 34.5261 23.1265 34.8782 23.2622 35.2067C23.3979 35.5352 23.5971 35.8338 23.8485 36.0851C24.0998 36.3365 24.3983 36.5357 24.7269 36.6714C25.0554 36.8071 25.4075 36.8766 25.763 36.8759Z" fill="url(#paint1_linear_3880_38816)"/>
<defs>
<filter id="filter0_b_3880_38816" x="-114" y="-114" width="296" height="296" filterUnits="userSpaceOnUse" color-interpolation-filters="sRGB">
<feFlood flood-opacity="0" result="BackgroundImageFix"/>
<feGaussianBlur in="BackgroundImage" stdDeviation="57"/>
<feComposite in2="SourceAlpha" operator="in" result="effect1_backgroundBlur_3880_38816"/>
<feBlend mode="normal" in="SourceGraphic" in2="effect1_backgroundBlur_3880_38816" result="shape"/>
</filter>
<linearGradient id="paint0_linear_3880_38816" x1="34" y1="0" x2="34" y2="68" gradientUnits="userSpaceOnUse">
<stop stop-color="#E843C4"/>
<stop offset="1" stop-color="#FFBF00"/>
</linearGradient>
<linearGradient id="paint1_linear_3880_38816" x1="34.4199" y1="24.9727" x2="34.4199" y2="43.3696" gradientUnits="userSpaceOnUse">
<stop stop-color="#FFBF00"/>
<stop offset="1" stop-color="#E843C4"/>
</linearGradient>
</defs>
</svg>
