<svg width="41" height="24" viewBox="0 0 41 24" fill="none" xmlns="http://www.w3.org/2000/svg">
<path fill-rule="evenodd" clip-rule="evenodd" d="M19.1442 0.106838C18.0268 0.224295 15.6532 0.665415 15.6001 0.765373C15.5591 0.842915 16.9644 5.3424 17.0593 5.43699C17.0899 5.46752 17.4924 5.40302 17.9539 5.29368C19.0497 5.03407 21.9009 4.94509 23.5621 5.11859C24.2639 5.1919 24.8636 5.22644 24.8948 5.19544C24.926 5.16433 25.2287 4.17401 25.5675 2.99487C26.0294 1.38685 26.1483 0.82919 26.043 0.764229C25.7648 0.592676 24.1598 0.216518 23.2085 0.0998618C22.1017 -0.0357793 20.4746 -0.0330348 19.1442 0.106838ZM28.3216 1.55635C28.2152 1.72824 26.4141 6.19411 26.4425 6.21572C26.4588 6.22796 26.9727 6.47282 27.5849 6.75977C29.0616 7.45205 30.5313 8.47187 31.8576 9.72432L32.9432 10.7495L34.8364 9.29853L36.7295 7.84754L36.3874 7.41648C35.2394 5.97017 33.6624 4.56413 31.8588 3.37927C30.6783 2.60362 28.4001 1.42963 28.3216 1.55635ZM12.1154 2.15392C10.9725 2.69054 9.59957 3.57347 8.36656 4.56458C7.30169 5.42075 4.98203 7.72093 4.98203 7.92096C4.98203 8.13757 9.0045 11.013 9.09756 10.8629C9.14134 10.7921 9.45091 10.4041 9.78535 10.0006C10.4768 9.16644 11.2592 8.46604 12.3466 7.70755C13.1221 7.16658 14.8174 6.27108 15.066 6.27108C15.1436 6.27108 15.1803 6.2068 15.1474 6.12812C14.8468 5.4076 13.2017 1.84982 13.141 1.78863C13.0977 1.74505 12.6362 1.9094 12.1154 2.15392ZM36.4433 10.9695C35.4978 11.534 34.554 12.0972 34.3458 12.221L33.9676 12.4461L34.3019 12.9326C35.2658 14.3348 35.8633 16.1101 36.037 18.0875C36.0989 18.7908 36.1382 19.4949 36.1245 19.6522L36.0995 19.9381L38.4777 19.969L40.856 20V18.9797C40.856 16.7851 40.0913 13.8284 38.8483 11.2175C38.5114 10.5099 38.2193 9.93362 38.1992 9.93694C38.1791 9.94037 37.3889 10.4049 36.4433 10.9695ZM3.15292 11.2592C2.82891 11.8643 2.59235 12.3879 2.62707 12.4226C2.69836 12.4938 7.00335 13.4637 7.28174 13.4714C7.38031 13.4741 7.54398 13.3029 7.6453 13.0909L7.82948 12.7055L5.91865 11.5074C4.86765 10.8485 3.94799 10.2755 3.87498 10.2342C3.79086 10.1865 3.52599 10.5625 3.15292 11.2592ZM1.26226 16.5546C1.18581 16.804 0.855957 19.3701 0.855957 19.7152V19.9953H3.37745H5.89894V19.0208C5.89894 18.1188 5.87968 18.038 5.64106 17.9366C5.49917 17.8763 4.46845 17.4999 3.35051 17.1002C1.63945 16.4884 1.30902 16.4021 1.26226 16.5546Z" fill="url(#paint0_linear_3944_54547)"/>
<path d="M1.17103 14.7956C0.918512 14.5791 0.913925 14.2236 1.16014 13.9514C1.2645 13.8361 1.44775 13.7417 1.56725 13.7417C1.68674 13.7417 2.85268 13.9963 4.15841 14.3075C6.17629 14.7886 18.2322 17.6384 18.4015 17.6744C18.433 17.6811 18.7071 17.5259 19.0106 17.3294C20.7982 16.1722 23.0656 16.7748 23.9875 18.652C24.2567 19.2004 24.3056 19.4398 24.2955 20.1637C24.2811 21.2041 24.0798 21.708 23.3793 22.4568C22.0335 23.8957 19.8172 23.8976 18.4734 22.4609C18.185 22.1527 17.8742 21.6643 17.7578 21.3364L17.5519 20.7569L9.46183 17.8622C5.0123 16.2702 1.28147 14.8902 1.17103 14.7956Z" fill="#F7931A"/>
<path d="M1.17103 14.7956C0.918512 14.5791 0.913925 14.2236 1.16014 13.9514C1.2645 13.8361 1.44775 13.7417 1.56725 13.7417C1.68674 13.7417 2.85268 13.9963 4.15841 14.3075C6.17629 14.7886 18.2322 17.6384 18.4015 17.6744C18.433 17.6811 18.7071 17.5259 19.0106 17.3294C20.7982 16.1722 23.0656 16.7748 23.9875 18.652C24.2567 19.2004 24.3056 19.4398 24.2955 20.1637C24.2811 21.2041 24.0798 21.708 23.3793 22.4568C22.0335 23.8957 19.8172 23.8976 18.4734 22.4609C18.185 22.1527 17.8742 21.6643 17.7578 21.3364L17.5519 20.7569L9.46183 17.8622C5.0123 16.2702 1.28147 14.8902 1.17103 14.7956Z" fill="#62688F"/>
<path d="M1.17103 14.7956C0.918512 14.5791 0.913925 14.2236 1.16014 13.9514C1.2645 13.8361 1.44775 13.7417 1.56725 13.7417C1.68674 13.7417 2.85268 13.9963 4.15841 14.3075C6.17629 14.7886 18.2322 17.6384 18.4015 17.6744C18.433 17.6811 18.7071 17.5259 19.0106 17.3294C20.7982 16.1722 23.0656 16.7748 23.9875 18.652C24.2567 19.2004 24.3056 19.4398 24.2955 20.1637C24.2811 21.2041 24.0798 21.708 23.3793 22.4568C22.0335 23.8957 19.8172 23.8976 18.4734 22.4609C18.185 22.1527 17.8742 21.6643 17.7578 21.3364L17.5519 20.7569L9.46183 17.8622C5.0123 16.2702 1.28147 14.8902 1.17103 14.7956Z" fill="#FEB610"/>
<defs>
<linearGradient id="paint0_linear_3944_54547" x1="0.866508" y1="19.946" x2="40.8435" y2="21.5701" gradientUnits="userSpaceOnUse">
<stop stop-color="#FFBF00"/>
<stop offset="1" stop-color="#E843C4"/>
</linearGradient>
</defs>
</svg>
