<svg width="52" height="38" viewBox="0 0 52 38" fill="none" xmlns="http://www.w3.org/2000/svg">
<path d="M0.629872 19.0121C0.748477 19.453 1.0184 19.8378 1.39281 20.0992C1.76722 20.3606 2.22193 20.4814 2.67662 20.4409L4.9684 20.2383C5.76703 21.4444 6.80027 22.4776 8.00679 23.2763L7.79858 25.5628C7.75917 26.0168 7.88075 26.47 8.14213 26.8433C8.40314 27.2166 8.78721 27.4862 9.22739 27.6044L11.2902 28.1376C11.7319 28.2543 12.2011 28.2116 12.6145 28.0167C13.028 27.8215 13.3592 27.4869 13.55 27.0712L14.5256 25.0301C15.9674 24.9416 17.3766 24.5605 18.6671 23.9105L20.554 25.2323V25.2327C20.9258 25.4959 21.3783 25.6198 21.8327 25.5829C22.2867 25.5458 22.7135 25.3502 23.0377 25.0301L24.5301 23.5056C24.8529 23.1833 25.0514 22.7576 25.0912 22.3032C25.1313 21.8492 25.0101 21.3953 24.7487 21.0216L23.4642 19.1347C24.0962 17.839 24.4591 16.4279 24.5301 14.988L26.6624 14.018C27.0777 13.8273 27.4123 13.4956 27.6075 13.0822C27.8027 12.6688 27.8455 12.1999 27.7283 11.7578L27.1952 9.69508C27.0769 9.25523 26.8074 8.87116 26.4341 8.60981C26.0608 8.3488 25.6076 8.22723 25.154 8.26664L22.8622 8.46927H22.8618C22.0632 7.26313 21.03 6.22993 19.8238 5.43088L20.0265 3.1391H20.0261C20.0655 2.68513 19.9443 2.2319 19.6829 1.85862C19.4219 1.48532 19.0375 1.21614 18.5976 1.09753L16.5349 0.564366V0.564738C16.0932 0.447617 15.624 0.490375 15.2105 0.685198C14.7971 0.880397 14.4658 1.21502 14.2751 1.63069L13.2515 3.70946C11.8115 3.78048 10.4005 4.14336 9.10479 4.7754L7.21791 3.45361C6.83978 3.19707 6.38358 3.08182 5.92924 3.12866C5.4749 3.1755 5.05178 3.3811 4.73386 3.70941L3.20943 5.20186C2.88707 5.52422 2.68853 5.94993 2.64838 6.40391C2.60859 6.85825 2.7298 7.31186 2.99081 7.68553L4.32897 9.57241C3.67906 10.863 3.29796 12.2721 3.20944 13.714L1.13068 14.6896C0.715372 14.8803 0.38038 15.2116 0.185553 15.625C-0.00964571 16.0385 -0.0524013 16.5077 0.0647197 16.9494L0.629872 19.0121ZM11.0237 11.4964V11.4968C11.7822 10.7376 12.8113 10.3111 13.8844 10.3107C14.9574 10.3104 15.987 10.7365 16.7457 11.4953C17.5046 12.2541 17.931 13.2833 17.931 14.3563C17.931 15.4293 17.5046 16.4585 16.7457 17.2174C15.9869 17.9763 14.9574 18.4023 13.8844 18.4019C12.8114 18.4016 11.7822 17.9751 11.0237 17.2159C10.2645 16.4563 9.83879 15.4264 9.83984 14.3526C9.84058 13.2789 10.2685 12.2493 11.0288 11.4913L11.0237 11.4964Z" fill="url(#paint0_linear_3887_40121)"/>
<path d="M46.4752 12.8358C46.4752 12.8359 46.4752 12.8358 46.4752 12.8358L47.2409 10.7314C47.5558 9.866 47.2037 8.89949 46.406 8.43937L41.2667 5.47486C40.4694 5.01494 39.4569 5.19373 38.8653 5.89892L38.0901 6.82302C37.6749 7.318 37.0382 7.55136 36.3955 7.48549C36.1589 7.46124 35.9198 7.44501 35.6756 7.44501C35.4309 7.44501 35.1918 7.46157 34.9552 7.48611C34.3146 7.55255 33.6805 7.31951 33.2663 6.82643L32.4858 5.89737C31.8941 5.19296 30.8822 5.01464 30.0853 5.47431L24.9458 8.43891C24.1478 8.89924 23.7958 9.86635 24.1113 10.7319L24.52 11.8534C24.7417 12.4616 24.6307 13.1359 24.2694 13.673C23.9938 14.0829 23.7379 14.5055 23.5072 14.9437C23.2065 15.5148 22.6808 15.9478 22.0452 16.0602L20.9182 16.2596C20.012 16.4199 19.3516 17.2075 19.3516 18.1277V24.063C19.3516 24.9833 20.0121 25.7709 20.9184 25.9312L22.0457 26.1305C22.681 26.2428 23.2066 26.6754 23.5074 27.2463C23.7371 27.6823 23.9918 28.1027 24.2656 28.5098C24.6271 29.047 24.739 29.7215 24.5178 30.3301L24.1075 31.4589C23.7932 32.3238 24.1448 33.2895 24.9416 33.7497L30.0818 36.7191C30.8795 37.18 31.893 37.0011 32.4848 36.2951L33.2628 35.3668C33.678 34.8714 34.3149 34.6381 34.9578 34.7048C35.193 34.7292 35.4308 34.7456 35.6741 34.7456C35.9166 34.7456 36.1547 34.7288 36.3904 34.7041C37.0313 34.6368 37.6658 34.87 38.08 35.3636L38.8628 36.2964C39.4547 37.0018 40.4676 37.1802 41.265 36.7196L46.4044 33.7507C47.2019 33.29 47.5533 32.323 47.2377 31.4578L46.8274 30.3333C46.6048 29.723 46.7175 29.0462 47.082 28.5084C47.3549 28.1058 47.6087 27.6901 47.8366 27.2579C48.1405 26.6817 48.6699 26.2427 49.3116 26.1305L50.4304 25.9349C51.3384 25.7762 52.0009 24.9879 52.0009 24.0661V18.1308C52.0009 17.2091 51.3386 16.4208 50.4307 16.262L48.8312 15.9822C48.4905 15.9225 48.207 15.6912 48.0592 15.3785C47.6281 14.4665 47.0831 13.6264 46.4752 12.8359C46.4751 12.8359 46.4752 12.8358 46.4752 12.8358V12.8358ZM35.6758 29.9727C30.771 29.9727 26.7933 25.9984 26.7933 21.0902C26.7933 16.187 30.771 12.2144 35.6758 12.2144C40.5805 12.2144 44.5548 16.1873 44.5548 21.0902C44.5534 25.9983 40.5805 29.9727 35.6758 29.9727Z" fill="url(#paint1_linear_3887_40121)"/>
<defs>
<linearGradient id="paint0_linear_3887_40121" x1="13.8932" y1="0.505625" x2="13.8932" y2="28.2105" gradientUnits="userSpaceOnUse">
<stop stop-color="#FFBF00"/>
<stop offset="1" stop-color="#E843C4"/>
</linearGradient>
<linearGradient id="paint1_linear_3887_40121" x1="35.6723" y1="4.68635" x2="35.6723" y2="37.5261" gradientUnits="userSpaceOnUse">
<stop stop-color="#FFBF00"/>
<stop offset="1" stop-color="#E843C4"/>
</linearGradient>
</defs>
</svg>
