<svg width="68" height="68" viewBox="0 0 68 68" fill="none" xmlns="http://www.w3.org/2000/svg">
<g filter="url(#filter0_b_4995_49531)">
<rect y="-0.000488281" width="68" height="68" rx="34" fill="#211426" fill-opacity="0.33"/>
<rect x="0.5" y="0.499512" width="67" height="67" rx="33.5" stroke="url(#paint0_linear_4995_49531)" stroke-opacity="0.2"/>
</g>
<path d="M33.9994 30.3214C36.7846 30.3214 39.2688 32.0943 41.034 34.9606C41.1704 35.182 41.3029 35.4096 41.4288 35.6438C41.955 34.998 42.5365 34.4473 43.1593 34.0112C44.2206 33.2688 45.3965 32.8572 46.6379 32.8572C49.0384 32.8572 51.1754 34.3779 52.6895 36.835C54.1175 39.1532 55 42.3309 55 45.8197C55 46.0216 54.9934 46.2804 54.9821 46.5918C54.9704 46.8915 54.9563 47.1488 54.9408 47.3674C54.9022 47.8846 54.4699 48.2783 53.9605 48.2771V48.2783H14.0395V48.2771C13.5301 48.2771 13.0978 47.8834 13.0592 47.3674C13.0425 47.1488 13.0284 46.8915 13.0179 46.5918C13.0063 46.2792 13 46.0204 13 45.8197C13 42.3307 13.8824 39.153 15.3105 36.835C16.8235 34.3776 18.9601 32.8572 21.3621 32.8572C22.6035 32.8572 23.7793 33.2688 24.8407 34.0112C25.4635 34.4473 26.0435 34.9965 26.5712 35.6438C26.6986 35.4096 26.8311 35.182 26.966 34.9606C28.7312 32.0943 31.2154 30.3214 34.0006 30.3214H33.9994ZM21.3612 25.3014C20.6265 25.3014 19.96 25.5985 19.4791 26.081C18.9978 26.5623 18.6995 27.2273 18.6995 27.9631C18.6995 28.6978 18.9965 29.3642 19.4791 29.8452C19.9604 30.3265 20.6253 30.6248 21.3612 30.6248C22.0958 30.6248 22.7623 30.3277 23.2433 29.8452C23.7246 29.3639 24.0228 28.6989 24.0228 27.9631C24.0228 27.2284 23.7258 26.562 23.2433 26.081C22.762 25.5997 22.097 25.3014 21.3612 25.3014ZM18.0884 24.6891C18.926 23.8504 20.0839 23.3332 21.3612 23.3332C22.6399 23.3332 23.7978 23.8516 24.6354 24.6891C25.473 25.5267 25.9914 26.6846 25.9914 27.9619C25.9914 29.2395 25.473 30.3971 24.6354 31.2346C23.7967 32.0722 22.6399 32.5905 21.3612 32.5905C20.0824 32.5905 18.9259 32.0722 18.0884 31.2346C17.2509 30.397 16.7325 29.2391 16.7325 27.9619C16.7325 26.6831 17.2509 25.5266 18.0884 24.6891V24.6891ZM24.2637 46.3114C24.2535 46.0143 24.2481 45.7568 24.2481 45.542C24.2481 42.6719 24.7551 39.9803 25.6325 37.689C25.0704 36.8167 24.4231 36.1117 23.7196 35.6191C22.99 35.1097 22.1937 34.8279 21.3639 34.8279C19.6903 34.8279 18.1387 35.9897 16.982 37.8668C15.7391 39.8841 14.9712 42.695 14.9712 45.8216C14.9712 46.0094 14.9724 46.1727 14.9751 46.3118H24.2646L24.2637 46.3114ZM27.6498 37.9262C27.6381 37.957 27.6253 37.9878 27.6112 38.0162C26.73 40.1583 26.2167 42.7455 26.2167 45.5423C26.2167 45.8459 26.2206 46.1019 26.2269 46.3116H41.7758C41.7824 46.102 41.7859 45.8459 41.7859 45.5423C41.7859 42.7466 41.2714 40.1582 40.3914 38.0162C40.3773 37.9866 40.3645 37.957 40.3528 37.9262C40.0621 37.2301 39.7315 36.5831 39.3675 35.9914C37.9601 33.7052 36.0601 32.29 34.0015 32.29C31.9431 32.29 30.0443 33.7051 28.6354 35.9914C28.2714 36.5819 27.9408 37.2304 27.6501 37.9262H27.6498ZM46.6401 23.3322C47.9188 23.3322 49.0753 23.8506 49.9128 24.6881C50.7504 25.5257 51.2688 26.6836 51.2688 27.9609C51.2688 29.2385 50.7504 30.3961 49.9128 31.2336C49.0753 32.0711 47.9173 32.5896 46.6401 32.5896C45.3613 32.5896 44.2034 32.0712 43.3658 31.2336C42.5282 30.396 42.0099 29.2381 42.0099 27.9609C42.0099 26.6821 42.5283 25.5256 43.3658 24.6881C44.2034 23.8494 45.3613 23.3322 46.6401 23.3322V23.3322ZM48.5222 26.0803C48.0409 25.599 47.3759 25.3007 46.6401 25.3007C45.9054 25.3007 45.239 25.5978 44.758 26.0803C44.2767 26.5616 43.9784 27.2266 43.9784 27.9624C43.9784 28.6971 44.2755 29.3635 44.758 29.8445C45.2393 30.3258 45.9043 30.6241 46.6401 30.6241C47.3748 30.6241 48.0397 30.327 48.5222 29.8445C49.0035 29.3632 49.3018 28.6982 49.3018 27.9624C49.3018 27.2277 49.0047 26.5613 48.5222 26.0803ZM42.3715 37.6901C43.2489 39.9814 43.7559 42.6715 43.7559 45.5431C43.7559 45.7578 43.7508 46.0151 43.7403 46.3124H53.0299C53.0326 46.1736 53.0338 46.01 53.0338 45.8222C53.0338 42.696 52.2656 39.8851 51.023 37.8674C49.8666 35.9903 48.3135 34.8285 46.6411 34.8285C45.8101 34.8285 45.0135 35.1103 44.2854 35.6197C43.5804 36.1123 42.9334 36.8174 42.3725 37.6896L42.3715 37.6901ZM34.0017 19C35.4695 19 36.7985 19.5956 37.7609 20.5579C38.7231 21.5201 39.3187 22.8492 39.3187 24.317C39.3187 25.7849 38.7232 27.1139 37.7609 28.0762C36.7985 29.0385 35.4695 29.6341 34.0017 29.6341C32.5339 29.6341 31.2049 29.0385 30.2425 28.0762C29.2802 27.1139 28.6847 25.7849 28.6847 24.317C28.6847 22.8492 29.2802 21.519 30.2425 20.5579C31.2048 19.5956 32.5339 19 34.0017 19ZM36.3702 21.95C35.7642 21.3439 34.9266 20.9697 34.0017 20.9697C33.0768 20.9697 32.2392 21.3442 31.6332 21.95C31.0271 22.556 30.6529 23.3936 30.6529 24.3185C30.6529 25.2434 31.0274 26.0798 31.6332 26.6858C32.2392 27.2918 33.0768 27.666 34.0017 27.666C34.9266 27.666 35.7642 27.2915 36.3702 26.6858C36.9763 26.0798 37.3505 25.2422 37.3505 24.3185C37.3505 23.3936 36.976 22.556 36.3702 21.95V21.95Z" fill="url(#paint1_linear_4995_49531)"/>
<defs>
<filter id="filter0_b_4995_49531" x="-114" y="-114" width="296" height="296" filterUnits="userSpaceOnUse" color-interpolation-filters="sRGB">
<feFlood flood-opacity="0" result="BackgroundImageFix"/>
<feGaussianBlur in="BackgroundImage" stdDeviation="57"/>
<feComposite in2="SourceAlpha" operator="in" result="effect1_backgroundBlur_4995_49531"/>
<feBlend mode="normal" in="SourceGraphic" in2="effect1_backgroundBlur_4995_49531" result="shape"/>
</filter>
<linearGradient id="paint0_linear_4995_49531" x1="34" y1="-0.000488281" x2="34" y2="67.9995" gradientUnits="userSpaceOnUse">
<stop stop-color="#E843C4"/>
<stop offset="1" stop-color="#FFBF00"/>
</linearGradient>
<linearGradient id="paint1_linear_4995_49531" x1="33.9949" y1="48.2842" x2="33.9949" y2="19.003" gradientUnits="userSpaceOnUse">
<stop stop-color="#FFBF00"/>
<stop offset="1" stop-color="#E843C4"/>
</linearGradient>
</defs>
</svg>
