<svg width="68" height="68" viewBox="0 0 68 68" fill="none" xmlns="http://www.w3.org/2000/svg">
<g filter="url(#filter0_b_3887_38272)">
<rect y="-0.000488281" width="68" height="68" rx="34" fill="#211426" fill-opacity="0.33"/>
<rect x="0.5" y="0.499512" width="67" height="67" rx="33.5" stroke="url(#paint0_linear_3887_38272)" stroke-opacity="0.2"/>
</g>
<path d="M35.1305 30.7747C37.5351 30.7747 39.68 32.3054 41.204 34.7801C41.3217 34.9712 41.4362 35.1677 41.5449 35.3699C41.9992 34.8124 42.5012 34.3369 43.0389 33.9604C43.9552 33.3194 44.9705 32.964 46.0423 32.964C48.1148 32.964 49.9598 34.277 51.2671 36.3984C52.5 38.3999 53.262 41.1434 53.262 44.1556C53.262 44.3299 53.2563 44.5533 53.2465 44.8222C53.2364 45.081 53.2243 45.3031 53.2108 45.4919C53.1775 45.9384 52.8043 46.2783 52.3645 46.2772V46.2783H17.8975V46.2772C17.4577 46.2772 17.0845 45.9374 17.0511 45.4919C17.0367 45.3031 17.0245 45.081 17.0155 44.8222C17.0054 44.5523 17 44.3289 17 44.1556C17 41.1433 17.7618 38.3997 18.9948 36.3984C20.3011 34.2767 22.1459 32.964 24.2197 32.964C25.2915 32.964 26.3067 33.3194 27.223 33.9604C27.7607 34.3369 28.2615 34.8111 28.7171 35.3699C28.8271 35.1677 28.9415 34.9712 29.058 34.7801C30.582 32.3054 32.7268 30.7747 35.1315 30.7747H35.1305ZM24.2189 26.4405C23.5846 26.4405 23.0092 26.697 22.5939 27.1136C22.1783 27.5291 21.9208 28.1033 21.9208 28.7386C21.9208 29.3729 22.1773 29.9483 22.5939 30.3635C23.0094 30.7791 23.5836 31.0366 24.2189 31.0366C24.8532 31.0366 25.4286 30.7801 25.8438 30.3635C26.2594 29.948 26.5169 29.3739 26.5169 28.7386C26.5169 28.1043 26.2604 27.5289 25.8438 27.1136C25.4283 26.698 24.8542 26.4405 24.2189 26.4405ZM21.3932 25.9119C22.1164 25.1877 23.1161 24.7412 24.2189 24.7412C25.3229 24.7412 26.3226 25.1887 27.0458 25.9119C27.769 26.635 28.2165 27.6348 28.2165 28.7375C28.2165 29.8406 27.7689 30.84 27.0458 31.5631C26.3216 32.2863 25.3229 32.7338 24.2189 32.7338C23.1148 32.7338 22.1163 32.2862 21.3932 31.5631C20.6701 30.84 20.2226 29.8402 20.2226 28.7375C20.2226 27.6334 20.6701 26.635 21.3932 25.9119ZM26.7248 44.5801C26.716 44.3236 26.7114 44.1013 26.7114 43.9158C26.7114 41.4378 27.1491 39.114 27.9066 37.1357C27.4213 36.3826 26.8625 35.7739 26.2551 35.3486C25.6252 34.9088 24.9377 34.6655 24.2212 34.6655C22.7763 34.6655 21.4367 35.6686 20.4379 37.2892C19.3649 39.0309 18.7019 41.4578 18.7019 44.1572C18.7019 44.3194 18.7029 44.4604 18.7053 44.5805L26.7248 44.5801ZM29.6484 37.3405C29.6383 37.3671 29.6272 37.3937 29.615 37.4182C28.8542 39.2677 28.411 41.5014 28.411 43.9161C28.411 44.1782 28.4144 44.3993 28.4198 44.5803H41.8444C41.8501 44.3993 41.8532 44.1782 41.8532 43.9161C41.8532 41.5024 41.409 39.2676 40.6492 37.4182C40.6371 37.3927 40.6259 37.3671 40.6159 37.3405C40.3648 36.7395 40.0795 36.1809 39.7652 35.67C38.55 33.6962 36.9096 32.4743 35.1322 32.4743C33.3551 32.4743 31.7157 33.6961 30.4993 35.67C30.185 36.1798 29.8994 36.7398 29.6484 37.3405ZM46.0442 24.7403C47.1482 24.7403 48.1467 25.1879 48.8698 25.911C49.5929 26.6341 50.0405 27.6339 50.0405 28.7366C50.0405 29.8397 49.5929 30.8392 48.8698 31.5623C48.1467 32.2853 47.1469 32.7329 46.0442 32.7329C44.9401 32.7329 43.9404 32.2854 43.2172 31.5623C42.4941 30.8391 42.0465 29.8394 42.0465 28.7366C42.0465 27.6326 42.4941 26.6341 43.2172 25.911C43.9404 25.1869 44.9401 24.7403 46.0442 24.7403ZM47.6691 27.113C47.2536 26.6974 46.6795 26.4399 46.0442 26.4399C45.4099 26.4399 44.8345 26.6964 44.4192 27.113C44.0037 27.5285 43.7462 28.1027 43.7462 28.738C43.7462 29.3722 44.0026 29.9477 44.4192 30.3629C44.8348 30.7785 45.4089 31.036 46.0442 31.036C46.6785 31.036 47.2526 30.7795 47.6691 30.3629C48.0847 29.9474 48.3422 29.3733 48.3422 28.738C48.3422 28.1037 48.0857 27.5283 47.6691 27.113ZM42.3588 37.1367C43.1163 39.115 43.554 41.4375 43.554 43.9167C43.554 44.1022 43.5496 44.3243 43.5406 44.581H51.561C51.5633 44.4612 51.5644 44.3199 51.5644 44.1577C51.5644 41.4586 50.9012 39.0318 49.8283 37.2897C48.8298 35.6691 47.489 34.666 46.045 34.666C45.3275 34.666 44.6398 34.9093 44.0112 35.3491C43.4025 35.7745 42.843 36.3836 42.3588 37.1367ZM35.1325 21C36.3997 21 37.5472 21.5142 38.378 22.345C39.2088 23.1758 39.7231 24.3233 39.7231 25.5906C39.7231 26.8579 39.2089 28.0053 38.378 28.8362C37.5472 29.6671 36.3997 30.1812 35.1325 30.1812C33.8652 30.1812 32.7177 29.667 31.8869 28.8362C31.056 28.0054 30.5418 26.8579 30.5418 25.5906C30.5418 24.3233 31.056 23.1748 31.8869 22.345C32.7177 21.5142 33.8652 21 35.1325 21ZM37.1774 23.5469C36.6541 23.0237 35.931 22.7006 35.1325 22.7006C34.3339 22.7006 33.6107 23.0239 33.0875 23.5469C32.5643 24.0702 32.2412 24.7933 32.2412 25.5919C32.2412 26.3904 32.5645 27.1125 33.0875 27.6358C33.6108 28.159 34.3339 28.4821 35.1325 28.4821C35.931 28.4821 36.6542 28.1587 37.1774 27.6358C37.7006 27.1125 38.0237 26.3894 38.0237 25.5919C38.0237 24.7933 37.7004 24.0702 37.1774 23.5469Z" fill="url(#paint1_linear_3887_38272)"/>
<defs>
<filter id="filter0_b_3887_38272" x="-114" y="-114" width="296" height="296" filterUnits="userSpaceOnUse" color-interpolation-filters="sRGB">
<feFlood flood-opacity="0" result="BackgroundImageFix"/>
<feGaussianBlur in="BackgroundImage" stdDeviation="57"/>
<feComposite in2="SourceAlpha" operator="in" result="effect1_backgroundBlur_3887_38272"/>
<feBlend mode="normal" in="SourceGraphic" in2="effect1_backgroundBlur_3887_38272" result="shape"/>
</filter>
<linearGradient id="paint0_linear_3887_38272" x1="34" y1="-0.000488281" x2="34" y2="67.9995" gradientUnits="userSpaceOnUse">
<stop stop-color="#E843C4"/>
<stop offset="1" stop-color="#FFBF00"/>
</linearGradient>
<linearGradient id="paint1_linear_3887_38272" x1="35.1266" y1="46.2834" x2="35.1266" y2="21.0026" gradientUnits="userSpaceOnUse">
<stop stop-color="#FFBF00"/>
<stop offset="1" stop-color="#E843C4"/>
</linearGradient>
</defs>
</svg>
