<svg width="51" height="42" viewBox="0 0 51 42" fill="none" xmlns="http://www.w3.org/2000/svg">
<path fill-rule="evenodd" clip-rule="evenodd" d="M33.0135 0.5L38.659 4.28142L14.9084 23.4639L8.12902 14.7634L22.2011 3.7618L33.0135 0.5ZM50.129 35.7596L43.1816 41.5L25.6243 16.787L29.992 13.236L39.9647 24.7716L50.129 35.7596ZM10.129 11.5L8.12902 6.5H12.129L10.129 11.5ZM18.6489 22.4346L23.9962 21.7969L22.9609 25.6606L18.6489 22.4346ZM3.67383 9.2069L4.44136 8.60957L9.44136 12.6096L8.81667 13.3904L5.44946 10.6967L7.0842 14.2931L7.26014 14.6802L6.90637 14.916L5.72413 15.7042L6.10336 16.8419L6.20108 17.135L5.98257 17.3536L3.25901 20.0771L7.50775 19.0149L8.22192 18.8364L8.12463 19.5661L7.27709 25.9226L9.8384 24.0931L10.1831 23.8469L10.4826 24.1464L12.6759 26.3398L14.329 25.1L14.5884 24.9055L14.8718 25.0629L17.8421 26.713L16.1919 23.7428L17.0661 23.2572L19.5661 27.7572L20.416 29.287L18.8862 28.4371L14.6696 26.0945L12.929 27.4L12.5821 27.6602L12.2755 27.3536L10.075 25.1531L6.91964 27.4069L5.98094 28.0774L6.1334 26.9339L7.03611 20.1636L1.75028 21.4851L-0.000976562 21.9229L1.27546 20.6464L5.05696 16.865L4.65468 15.6581L4.53391 15.2958L4.85167 15.084L5.99789 14.3198L3.67383 9.2069Z" fill="url(#paint0_linear_3880_40681)"/>
<defs>
<linearGradient id="paint0_linear_3880_40681" x1="25.0579" y1="0.508325" x2="25.0579" y2="41.5125" gradientUnits="userSpaceOnUse">
<stop stop-color="#FFBF00"/>
<stop offset="1" stop-color="#E843C4"/>
</linearGradient>
</defs>
</svg>
