<svg width="68" height="68" viewBox="0 0 68 68" fill="none" xmlns="http://www.w3.org/2000/svg">
<g filter="url(#filter0_b_3880_38811)">
<rect width="68" height="68" rx="34" fill="#211426" fill-opacity="0.33"/>
<rect x="0.5" y="0.5" width="67" height="67" rx="33.5" stroke="url(#paint0_linear_3880_38811)" stroke-opacity="0.2"/>
</g>
<path d="M39.8289 24.0964C39.8289 23.7984 39.9498 23.5125 40.1649 23.3018C40.3801 23.091 40.6719 22.9727 40.9762 22.9727H44.8004C45.1047 22.9727 45.3965 23.091 45.6116 23.3018C45.8268 23.5125 45.9477 23.7984 45.9477 24.0964V27.8422C45.9477 28.1402 45.8268 28.426 45.6116 28.6367C45.3965 28.8475 45.1047 28.9659 44.8004 28.9659C44.4961 28.9659 44.2043 28.8475 43.9892 28.6367C43.774 28.426 43.6531 28.1402 43.6531 27.8422V26.8083L36.8154 33.5058C36.6003 33.7162 36.3087 33.8344 36.0047 33.8344C35.7006 33.8344 35.409 33.7162 35.1939 33.5058L31.4156 29.8049L24.9603 36.1278C24.8552 36.2382 24.7286 36.3267 24.5878 36.3882C24.4471 36.4496 24.2952 36.4826 24.1411 36.4853C23.9871 36.4879 23.8341 36.4602 23.6912 36.4037C23.5484 36.3471 23.4186 36.263 23.3097 36.1563C23.2007 36.0496 23.1148 35.9225 23.0571 35.7826C22.9994 35.6427 22.9711 35.4928 22.9738 35.3419C22.9765 35.191 23.0102 35.0422 23.073 34.9044C23.1357 34.7665 23.2261 34.6425 23.3388 34.5396L30.6048 27.4226C30.8199 27.2122 31.1115 27.094 31.4156 27.094C31.7196 27.094 32.0112 27.2122 32.2263 27.4226L36.0047 31.1234L42.0316 25.2201H40.9762C40.6719 25.2201 40.3801 25.1017 40.1649 24.891C39.9498 24.6802 39.8289 24.3944 39.8289 24.0964ZM24.1495 40.9523C24.4538 40.9523 24.7456 41.0707 24.9608 41.2815C25.1759 41.4922 25.2968 41.778 25.2968 42.0761V45.8218C25.2968 46.1199 25.1759 46.4057 24.9608 46.6164C24.7456 46.8272 24.4538 46.9456 24.1495 46.9456C23.8452 46.9456 23.5534 46.8272 23.3383 46.6164C23.1231 46.4057 23.0023 46.1199 23.0023 45.8218V42.0761C23.0023 41.778 23.1231 41.4922 23.3383 41.2815C23.5534 41.0707 23.8452 40.9523 24.1495 40.9523ZM31.4156 37.5811C31.4156 37.2831 31.2947 36.9973 31.0795 36.7865C30.8644 36.5758 30.5726 36.4574 30.2683 36.4574C29.964 36.4574 29.6722 36.5758 29.4571 36.7865C29.2419 36.9973 29.121 37.2831 29.121 37.5811V45.8218C29.121 46.1199 29.2419 46.4057 29.4571 46.6164C29.6722 46.8272 29.964 46.9456 30.2683 46.9456C30.5726 46.9456 30.8644 46.8272 31.0795 46.6164C31.2947 46.4057 31.4156 46.1199 31.4156 45.8218V37.5811ZM36.3871 39.454C36.6914 39.454 36.9832 39.5724 37.1983 39.7832C37.4135 39.9939 37.5343 40.2797 37.5343 40.5778V45.8218C37.5343 46.1199 37.4135 46.4057 37.1983 46.6164C36.9832 46.8272 36.6914 46.9456 36.3871 46.9456C36.0828 46.9456 35.791 46.8272 35.5758 46.6164C35.3607 46.4057 35.2398 46.1199 35.2398 45.8218V40.5778C35.2398 40.2797 35.3607 39.9939 35.5758 39.7832C35.791 39.5724 36.0828 39.454 36.3871 39.454ZM43.6531 34.5845C43.6531 34.2865 43.5323 34.0007 43.3171 33.7899C43.1019 33.5792 42.8101 33.4608 42.5059 33.4608C42.2016 33.4608 41.9098 33.5792 41.6946 33.7899C41.4795 34.0007 41.3586 34.2865 41.3586 34.5845V45.8218C41.3586 46.1199 41.4795 46.4057 41.6946 46.6164C41.9098 46.8272 42.2016 46.9456 42.5059 46.9456C42.8101 46.9456 43.1019 46.8272 43.3171 46.6164C43.5323 46.4057 43.6531 46.1199 43.6531 45.8218V34.5845Z" fill="url(#paint1_linear_3880_38811)"/>
<defs>
<filter id="filter0_b_3880_38811" x="-114" y="-114" width="296" height="296" filterUnits="userSpaceOnUse" color-interpolation-filters="sRGB">
<feFlood flood-opacity="0" result="BackgroundImageFix"/>
<feGaussianBlur in="BackgroundImage" stdDeviation="57"/>
<feComposite in2="SourceAlpha" operator="in" result="effect1_backgroundBlur_3880_38811"/>
<feBlend mode="normal" in="SourceGraphic" in2="effect1_backgroundBlur_3880_38811" result="shape"/>
</filter>
<linearGradient id="paint0_linear_3880_38811" x1="34" y1="0" x2="34" y2="68" gradientUnits="userSpaceOnUse">
<stop stop-color="#E843C4"/>
<stop offset="1" stop-color="#FFBF00"/>
</linearGradient>
<linearGradient id="paint1_linear_3880_38811" x1="34.4606" y1="22.9727" x2="34.4606" y2="46.9456" gradientUnits="userSpaceOnUse">
<stop stop-color="#FFBF00"/>
<stop offset="1" stop-color="#E843C4"/>
</linearGradient>
</defs>
</svg>
