<svg width="49" height="48" viewBox="0 0 49 48" fill="none" xmlns="http://www.w3.org/2000/svg">
    <path fill-rule="evenodd" clip-rule="evenodd"
        d="M48.5 24C48.5 37.2552 37.7552 48 24.5 48C11.2448 48 0.5 37.2552 0.5 24C0.5 10.7448 11.2448 0 24.5 0C37.7552 0 48.5 10.7448 48.5 24ZM23.2447 40.2011C23.388 40.3718 23.591 40.4571 23.8537 40.4571H25.2149C25.4537 40.4571 25.6447 40.3718 25.788 40.2011C25.9552 40.0548 26.0387 39.8598 26.0387 39.616V37.0926C27.6865 36.9463 29.1074 36.5684 30.3014 35.9588C31.5193 35.3493 32.4507 34.5326 33.0955 33.5086C33.7641 32.4846 34.0984 31.2777 34.0984 29.888C34.0984 28.4983 33.7999 27.3646 33.2029 26.4868C32.6298 25.5848 31.7343 24.8411 30.5163 24.256C29.2984 23.6465 27.7343 23.0735 25.8238 22.5371C24.2477 22.0739 22.9701 21.635 21.991 21.2206C21.0119 20.8061 20.2955 20.3307 19.8417 19.7943C19.388 19.2335 19.1611 18.5387 19.1611 17.7097C19.1611 16.4175 19.6387 15.4667 20.594 14.8571C21.5731 14.2476 22.8387 13.9428 24.391 13.9428C25.9193 13.9428 27.1611 14.2842 28.1163 14.9668C29.0716 15.6495 29.6208 16.4907 29.7641 17.4903C29.8596 17.7585 29.991 17.9413 30.1581 18.0388C30.3492 18.1364 30.5283 18.1851 30.6954 18.1851H32.594C32.8566 18.1851 33.0477 18.112 33.1671 17.9657C33.2865 17.795 33.3462 17.6244 33.3462 17.4537C33.3223 16.576 33.0357 15.6739 32.4865 14.7474C31.9372 13.8209 31.1253 13.0042 30.0507 12.2971C28.976 11.5901 27.6387 11.139 26.0387 10.944V8.38399C26.0387 8.14018 25.9552 7.94513 25.788 7.79885C25.6447 7.62818 25.4537 7.54285 25.2149 7.54285H23.8537C23.591 7.54285 23.388 7.62818 23.2447 7.79885C23.1014 7.94513 23.0298 8.14018 23.0298 8.38399V10.9074C20.6656 11.1268 18.8387 11.8827 17.5492 13.1748C16.2596 14.4427 15.6149 15.9665 15.6149 17.7463C15.6149 19.136 15.8895 20.2819 16.4387 21.184C17.0119 22.0861 17.8716 22.8419 19.0178 23.4514C20.1641 24.0609 21.6089 24.6217 23.3522 25.1337C25.0238 25.6213 26.385 26.0724 27.4357 26.4868C28.4865 26.9013 29.2626 27.3767 29.7641 27.9131C30.2895 28.4251 30.5522 29.1078 30.5522 29.9611C30.5522 31.2046 30.0626 32.2042 29.0835 32.96C28.1283 33.6914 26.6238 34.0571 24.5701 34.0571C23.2328 34.0571 22.1343 33.8743 21.2746 33.5086C20.4387 33.1185 19.794 32.643 19.3402 32.0823C18.8865 31.4971 18.588 30.912 18.4447 30.3268C18.3969 30.1318 18.3014 29.9611 18.1581 29.8148C18.0149 29.6686 17.7999 29.5954 17.5134 29.5954H15.6865C15.4716 29.5954 15.2805 29.6807 15.1134 29.8514C14.9701 29.9977 14.8984 30.1684 14.8984 30.3634C14.9462 31.4362 15.2805 32.448 15.9014 33.3988C16.5223 34.3497 17.4298 35.1665 18.6238 35.8491C19.8178 36.5074 21.2865 36.9097 23.0298 37.056V39.616C23.0298 39.8598 23.1014 40.0548 23.2447 40.2011Z"
        fill="url(#paint0_linear_3880_42229)" />
    <defs>
        <linearGradient id="paint0_linear_3880_42229" x1="24.4942" y1="48.0097" x2="24.4942" y2="0.0048814"
            gradientUnits="userSpaceOnUse">
            <stop stop-color="#FFBF00" />
            <stop offset="1" stop-color="#E843C4" />
        </linearGradient>
    </defs>
</svg>