<svg width="745" height="173" viewBox="0 0 745 173" fill="none" xmlns="http://www.w3.org/2000/svg">
<g id="Group 48097636">
<g id="Horizontal line and curve">
<g id="Arrow 1" filter="url(#filter0_d_4877_49552)">
<path d="M270 78.0001L14.5 78.0001C8.97714 78.0001 4.49999 82.4773 4.49999 88.0001L4.5 145.5" stroke="url(#paint0_linear_4877_49552)" stroke-miterlimit="1" stroke-linecap="round"/>
</g>
<g id="Arrow 2" filter="url(#filter1_d_4877_49552)">
<path d="M475 78.0001L730.5 78.0001C736.023 78.0001 740.5 82.4773 740.5 88.0001L740.5 145.5" stroke="url(#paint1_linear_4877_49552)" stroke-miterlimit="1" stroke-linecap="round"/>
</g>
</g>
<g id="Group 48097635">
<g id="Ellipse 58" filter="url(#filter2_d_4877_49552)">
<circle cx="373.5" cy="82.5" r="81.5" fill="#211426" fill-opacity="0.33" shape-rendering="crispEdges"/>
<circle cx="373.5" cy="82.5" r="81.5" stroke="url(#paint2_linear_4877_49552)" shape-rendering="crispEdges"/>
</g>
<g id="Group 75">
<g id="Group 48095361">
<g id="Vector (Stroke)" filter="url(#filter3_f_4877_49552)">
<path fill-rule="evenodd" clip-rule="evenodd" d="M374.892 35.3273C357.145 35.3275 342.763 50.8029 342.763 69.8992C342.763 80.3121 347.037 89.6492 353.81 95.9979L369.088 82.1394H353.63C352.031 82.1394 350.759 80.7419 350.759 79.0508C350.759 77.3311 352.058 75.9622 353.63 75.9622H396.174C397.773 75.9622 399.045 77.3597 399.045 79.0508C399.045 80.7705 397.746 82.1394 396.174 82.1394H382.548L396.619 95.4115C403.02 89.0929 407.041 80.0131 407.041 69.9203C407.041 50.8246 392.64 35.3481 374.892 35.3273ZM341.529 69.8992C341.529 50.07 356.464 34 374.892 34H374.893C393.32 34.0215 408.275 50.0904 408.275 69.9203C408.275 80.6193 403.921 90.2231 397.034 96.796L396.627 97.1844L379.269 80.8121H396.174C397.072 80.8121 397.811 80.0302 397.811 79.0508C397.811 78.085 397.084 77.2895 396.174 77.2895H353.63C352.733 77.2895 351.993 78.0714 351.993 79.0508C351.993 80.0166 352.72 80.8121 353.63 80.8121H372.466L353.806 97.7371L353.408 97.3762C346.142 90.782 341.529 80.9205 341.529 69.8992Z" fill="url(#paint3_linear_4877_49552)"/>
</g>
<g id="Vector (Stroke)_2" filter="url(#filter4_d_4877_49552)">
<path fill-rule="evenodd" clip-rule="evenodd" d="M373.989 35.0546C355.236 35.0547 340.039 50.4841 340.039 69.5237C340.039 79.9461 344.591 89.2877 351.796 95.6186L368.236 81.5489H351.608C349.998 81.5489 348.716 80.2206 348.716 78.6131C348.716 76.9786 350.024 75.6773 351.608 75.6773H396.392C398.002 75.6773 399.284 77.0055 399.284 78.6131C399.284 80.2475 397.976 81.5489 396.392 81.5489H381.703L396.862 95.0396C403.676 88.7368 407.961 79.6499 407.961 69.5446C407.961 50.5056 392.743 35.0754 373.989 35.0546ZM339 69.5237C339 49.9018 354.663 34 373.99 34H373.99C393.316 34.0213 409 49.9222 409 69.5446C409 80.1316 404.435 89.6348 397.211 96.1392L396.869 96.4478L378.942 80.4943H396.392C397.408 80.4943 398.245 79.6594 398.245 78.6131C398.245 77.5818 397.423 76.7319 396.392 76.7319H351.608C350.592 76.7319 349.755 77.5668 349.755 78.6131C349.755 79.6444 350.578 80.4943 351.608 80.4943H371.08L351.793 97L351.458 96.7133C343.838 90.1878 339 80.4296 339 69.5237Z" fill="url(#paint4_linear_4877_49552)"/>
</g>
</g>
</g>
<g id="Menu">
<g id="Group 48095639">
<g id="kassandra">
<path d="M327.298 106.386H325.07L319.454 110.968V104.203H318V114.321H319.454V112.789L322.734 110.115L326.648 114.321H328.567L323.833 109.204L327.298 106.386Z" fill="url(#paint5_linear_4877_49552)"/>
<path d="M337.085 106.386H329.35V107.745H337.085C337.967 107.745 338.679 108.424 338.679 109.248V109.667H331.825C330.448 109.667 329.35 110.708 329.35 111.994C329.35 113.281 330.448 114.321 331.825 114.321H340.149V109.248C340.149 107.672 338.787 106.386 337.085 106.386ZM338.679 112.948H331.825C331.253 112.948 330.804 112.529 330.804 111.994C330.804 111.474 331.253 111.04 331.825 111.04H338.679V112.948Z" fill="url(#paint6_linear_4877_49552)"/>
<path d="M350.79 109.667H344.942C344.385 109.667 343.937 109.233 343.937 108.699C343.937 108.178 344.385 107.745 344.942 107.745H353.266V106.386H344.942C343.581 106.386 342.467 107.412 342.467 108.699C342.467 109.999 343.581 111.04 344.942 111.04H350.79C351.363 111.04 351.812 111.474 351.812 111.994C351.812 112.529 351.363 112.948 350.79 112.948H342.467V114.321H350.79C352.167 114.321 353.266 113.281 353.266 111.994C353.266 110.708 352.167 109.667 350.79 109.667Z" fill="url(#paint7_linear_4877_49552)"/>
<path d="M363.908 109.667H358.06C357.503 109.667 357.054 109.233 357.054 108.699C357.054 108.178 357.503 107.745 358.06 107.745H366.383V106.386H358.06C356.698 106.386 355.584 107.412 355.584 108.699C355.584 109.999 356.698 111.04 358.06 111.04H363.908C364.48 111.04 364.929 111.474 364.929 111.994C364.929 112.529 364.48 112.948 363.908 112.948H355.584V114.321H363.908C365.285 114.321 366.383 113.281 366.383 111.994C366.383 110.708 365.285 109.667 363.908 109.667Z" fill="url(#paint8_linear_4877_49552)"/>
<path d="M376.437 106.386H368.702V107.745H376.437C377.319 107.745 378.031 108.424 378.031 109.248V109.667H371.177C369.8 109.667 368.702 110.708 368.702 111.994C368.702 113.281 369.8 114.321 371.177 114.321H379.5V109.248C379.5 107.672 378.139 106.386 376.437 106.386ZM378.031 112.948H371.177C370.605 112.948 370.156 112.529 370.156 111.994C370.156 111.474 370.605 111.04 371.177 111.04H378.031V112.948Z" fill="url(#paint9_linear_4877_49552)"/>
<path d="M389.57 106.386H381.819V114.321H383.273V107.745H389.57C390.436 107.745 391.164 108.424 391.164 109.248V114.321H392.618V109.248C392.618 107.672 391.241 106.386 389.57 106.386Z" fill="url(#paint10_linear_4877_49552)"/>
<path d="M404.281 106.386H398C396.313 106.386 394.936 107.672 394.936 109.248V111.445C394.936 113.035 396.313 114.321 398 114.321H405.751V104.203H404.281V106.386ZM404.281 112.948H398C397.118 112.948 396.391 112.269 396.391 111.445V109.248C396.391 108.424 397.118 107.745 398 107.745H404.281V112.948Z" fill="url(#paint11_linear_4877_49552)"/>
<path d="M408.069 109.248V114.321H409.523V109.248C409.523 108.424 410.235 107.745 411.132 107.745H418.883V106.386H411.132C409.43 106.386 408.069 107.672 408.069 109.248Z" fill="url(#paint12_linear_4877_49552)"/>
<path d="M428.937 106.386H421.201V107.745H428.937C429.819 107.745 430.53 108.424 430.53 109.248V109.667H423.676C422.3 109.667 421.201 110.708 421.201 111.994C421.201 113.281 422.3 114.321 423.676 114.321H432V109.248C432 107.672 430.639 106.386 428.937 106.386ZM430.53 112.948H423.676C423.104 112.948 422.655 112.529 422.655 111.994C422.655 111.474 423.104 111.04 423.676 111.04H430.53V112.948Z" fill="url(#paint13_linear_4877_49552)"/>
</g>
</g>
</g>
</g>
</g>
<defs>
<filter id="filter0_d_4877_49552" x="0" y="77.5" width="274.5" height="76.5" filterUnits="userSpaceOnUse" color-interpolation-filters="sRGB">
<feFlood flood-opacity="0" result="BackgroundImageFix"/>
<feColorMatrix in="SourceAlpha" type="matrix" values="0 0 0 0 0 0 0 0 0 0 0 0 0 0 0 0 0 0 127 0" result="hardAlpha"/>
<feOffset dy="4"/>
<feGaussianBlur stdDeviation="2"/>
<feComposite in2="hardAlpha" operator="out"/>
<feColorMatrix type="matrix" values="0 0 0 0 0 0 0 0 0 0 0 0 0 0 0 0 0 0 0.25 0"/>
<feBlend mode="normal" in2="BackgroundImageFix" result="effect1_dropShadow_4877_49552"/>
<feBlend mode="normal" in="SourceGraphic" in2="effect1_dropShadow_4877_49552" result="shape"/>
</filter>
<filter id="filter1_d_4877_49552" x="470.5" y="77.5" width="274.5" height="76.5" filterUnits="userSpaceOnUse" color-interpolation-filters="sRGB">
<feFlood flood-opacity="0" result="BackgroundImageFix"/>
<feColorMatrix in="SourceAlpha" type="matrix" values="0 0 0 0 0 0 0 0 0 0 0 0 0 0 0 0 0 0 127 0" result="hardAlpha"/>
<feOffset dy="4"/>
<feGaussianBlur stdDeviation="2"/>
<feComposite in2="hardAlpha" operator="out"/>
<feColorMatrix type="matrix" values="0 0 0 0 0 0 0 0 0 0 0 0 0 0 0 0 0 0 0.25 0"/>
<feBlend mode="normal" in2="BackgroundImageFix" result="effect1_dropShadow_4877_49552"/>
<feBlend mode="normal" in="SourceGraphic" in2="effect1_dropShadow_4877_49552" result="shape"/>
</filter>
<filter id="filter2_d_4877_49552" x="287.5" y="0.5" width="172" height="172" filterUnits="userSpaceOnUse" color-interpolation-filters="sRGB">
<feFlood flood-opacity="0" result="BackgroundImageFix"/>
<feColorMatrix in="SourceAlpha" type="matrix" values="0 0 0 0 0 0 0 0 0 0 0 0 0 0 0 0 0 0 127 0" result="hardAlpha"/>
<feOffset dy="4"/>
<feGaussianBlur stdDeviation="2"/>
<feComposite in2="hardAlpha" operator="out"/>
<feColorMatrix type="matrix" values="0 0 0 0 0 0 0 0 0 0 0 0 0 0 0 0 0 0 0.25 0"/>
<feBlend mode="normal" in2="BackgroundImageFix" result="effect1_dropShadow_4877_49552"/>
<feBlend mode="normal" in="SourceGraphic" in2="effect1_dropShadow_4877_49552" result="shape"/>
</filter>
<filter id="filter3_f_4877_49552" x="321.529" y="14" width="106.745" height="103.737" filterUnits="userSpaceOnUse" color-interpolation-filters="sRGB">
<feFlood flood-opacity="0" result="BackgroundImageFix"/>
<feBlend mode="normal" in="SourceGraphic" in2="BackgroundImageFix" result="shape"/>
<feGaussianBlur stdDeviation="10" result="effect1_foregroundBlur_4877_49552"/>
</filter>
<filter id="filter4_d_4877_49552" x="335" y="34" width="78" height="71" filterUnits="userSpaceOnUse" color-interpolation-filters="sRGB">
<feFlood flood-opacity="0" result="BackgroundImageFix"/>
<feColorMatrix in="SourceAlpha" type="matrix" values="0 0 0 0 0 0 0 0 0 0 0 0 0 0 0 0 0 0 127 0" result="hardAlpha"/>
<feOffset dy="4"/>
<feGaussianBlur stdDeviation="2"/>
<feComposite in2="hardAlpha" operator="out"/>
<feColorMatrix type="matrix" values="0 0 0 0 0 0 0 0 0 0 0 0 0 0 0 0 0 0 0.25 0"/>
<feBlend mode="normal" in2="BackgroundImageFix" result="effect1_dropShadow_4877_49552"/>
<feBlend mode="normal" in="SourceGraphic" in2="effect1_dropShadow_4877_49552" result="shape"/>
</filter>
<linearGradient id="paint0_linear_4877_49552" x1="270" y1="77.9995" x2="85" y2="77.9995" gradientUnits="userSpaceOnUse">
<stop stop-color="#E843C4"/>
<stop offset="1" stop-color="#FFCC4D"/>
</linearGradient>
<linearGradient id="paint1_linear_4877_49552" x1="475" y1="77.9995" x2="660" y2="77.9995" gradientUnits="userSpaceOnUse">
<stop stop-color="#E843C4"/>
<stop offset="1" stop-color="#FFCC4D"/>
</linearGradient>
<linearGradient id="paint2_linear_4877_49552" x1="373.5" y1="1" x2="373.5" y2="164" gradientUnits="userSpaceOnUse">
<stop stop-color="#FFBF00"/>
<stop offset="1" stop-color="#E843C4"/>
</linearGradient>
<linearGradient id="paint3_linear_4877_49552" x1="374.953" y1="5.82198" x2="374.953" y2="118.652" gradientUnits="userSpaceOnUse">
<stop stop-color="#FFBF00"/>
<stop offset="1" stop-color="#E843C4"/>
</linearGradient>
<linearGradient id="paint4_linear_4877_49552" x1="374" y1="34.5273" x2="374" y2="96.3102" gradientUnits="userSpaceOnUse">
<stop stop-color="#FFBF00"/>
<stop offset="1" stop-color="#E843C4"/>
</linearGradient>
<linearGradient id="paint5_linear_4877_49552" x1="378.596" y1="103.48" x2="378.596" y2="117.935" gradientUnits="userSpaceOnUse">
<stop stop-color="#E843C4"/>
<stop offset="1" stop-color="#FFBF00"/>
</linearGradient>
<linearGradient id="paint6_linear_4877_49552" x1="378.596" y1="103.48" x2="378.596" y2="117.935" gradientUnits="userSpaceOnUse">
<stop stop-color="#E843C4"/>
<stop offset="1" stop-color="#FFBF00"/>
</linearGradient>
<linearGradient id="paint7_linear_4877_49552" x1="378.596" y1="103.48" x2="378.596" y2="117.935" gradientUnits="userSpaceOnUse">
<stop stop-color="#E843C4"/>
<stop offset="1" stop-color="#FFBF00"/>
</linearGradient>
<linearGradient id="paint8_linear_4877_49552" x1="378.596" y1="103.48" x2="378.596" y2="117.935" gradientUnits="userSpaceOnUse">
<stop stop-color="#E843C4"/>
<stop offset="1" stop-color="#FFBF00"/>
</linearGradient>
<linearGradient id="paint9_linear_4877_49552" x1="378.596" y1="103.48" x2="378.596" y2="117.935" gradientUnits="userSpaceOnUse">
<stop stop-color="#E843C4"/>
<stop offset="1" stop-color="#FFBF00"/>
</linearGradient>
<linearGradient id="paint10_linear_4877_49552" x1="378.596" y1="103.48" x2="378.596" y2="117.935" gradientUnits="userSpaceOnUse">
<stop stop-color="#E843C4"/>
<stop offset="1" stop-color="#FFBF00"/>
</linearGradient>
<linearGradient id="paint11_linear_4877_49552" x1="378.596" y1="103.48" x2="378.596" y2="117.935" gradientUnits="userSpaceOnUse">
<stop stop-color="#E843C4"/>
<stop offset="1" stop-color="#FFBF00"/>
</linearGradient>
<linearGradient id="paint12_linear_4877_49552" x1="378.596" y1="103.48" x2="378.596" y2="117.935" gradientUnits="userSpaceOnUse">
<stop stop-color="#E843C4"/>
<stop offset="1" stop-color="#FFBF00"/>
</linearGradient>
<linearGradient id="paint13_linear_4877_49552" x1="378.596" y1="103.48" x2="378.596" y2="117.935" gradientUnits="userSpaceOnUse">
<stop stop-color="#E843C4"/>
<stop offset="1" stop-color="#FFBF00"/>
</linearGradient>
</defs>
</svg>