<svg width="35" height="30" viewBox="0 0 35 30" fill="none" xmlns="http://www.w3.org/2000/svg">
<path fill-rule="evenodd" clip-rule="evenodd" d="M29.3769 0.640226C29.5378 0.801153 29.5378 1.06207 29.3769 1.22299L27.0456 3.55429C26.8847 3.71521 26.6238 3.71521 26.4629 3.55429C26.3019 3.39336 26.3019 3.13244 26.4629 2.97152L28.7941 0.640226C28.9551 0.4793 29.216 0.4793 29.3769 0.640226ZM17.4347 2.09609C17.077 2.10043 16.7151 2.12102 16.3509 2.16545C16.3473 2.16545 16.3437 2.16521 16.3401 2.16497C16.3328 2.16449 16.3256 2.16401 16.3184 2.16545C11.9226 2.6694 8.42423 6.22091 7.81624 10.5972C7.33071 14.1194 8.78296 17.3133 11.203 19.3703C12.184 20.2075 12.8504 21.3535 13.0931 22.6195C13.0975 22.6425 13.0996 22.6659 13.0996 22.6893V29.1052C13.0996 29.3168 13.2711 29.4883 13.4827 29.4883H15.5706H17.4347H19.2988H21.4885C21.7001 29.4883 21.8716 29.3168 21.8716 29.1052V25.1533V23.5341C21.8716 21.9453 22.6975 20.3435 24.0392 19.0982C25.8339 17.3014 27.1886 14.7491 27.1886 11.8175C27.1886 6.46368 22.782 2.04624 17.4347 2.09609ZM15.2671 24.8944C15.2671 24.6828 15.4387 24.5112 15.6503 24.5112H19.2191C19.4307 24.5112 19.6022 24.6828 19.6022 24.8943V26.9388C19.6022 27.1504 19.4307 27.3219 19.2191 27.3219H15.6503C15.4387 27.3219 15.2671 27.1504 15.2671 26.9388V24.8944ZM30.2503 12.1758C30.0228 12.1758 29.8383 12.3603 29.8383 12.5879C29.8383 12.8154 30.0228 12.9999 30.2503 12.9999H33.7473C33.9749 12.9999 34.1594 12.8154 34.1594 12.5879C34.1594 12.3603 33.9749 12.1758 33.7473 12.1758H30.2503ZM26.4629 21.6168C26.6238 21.4559 26.8847 21.4559 27.0456 21.6168L29.3769 23.9481C29.5378 24.109 29.5378 24.3699 29.3769 24.5308C29.216 24.6918 28.9551 24.6918 28.7941 24.5308L26.4629 22.1996C26.3019 22.0386 26.3019 21.7777 26.4629 21.6168ZM8.39645 22.1996C8.55738 22.0386 8.55738 21.7777 8.39645 21.6168C8.23552 21.4559 7.97461 21.4559 7.81368 21.6168L5.48239 23.9481C5.32146 24.109 5.32146 24.3699 5.48239 24.5308C5.64332 24.6918 5.90423 24.6918 6.06516 24.5308L8.39645 22.1996ZM5.48239 0.640226C5.64332 0.4793 5.90423 0.4793 6.06516 0.640226L8.39645 2.97152C8.55738 3.13244 8.55738 3.39336 8.39645 3.55429C8.23552 3.71521 7.97461 3.71521 7.81368 3.55429L5.48239 1.22299C5.32146 1.06207 5.32146 0.801153 5.48239 0.640226ZM1.1058 12.1758C0.87822 12.1758 0.693726 12.3603 0.693726 12.5879C0.693726 12.8154 0.87822 12.9999 1.1058 12.9999H4.60274C4.83033 12.9999 5.01482 12.8154 5.01482 12.5879C5.01482 12.3603 4.83033 12.1758 4.60274 12.1758H1.1058Z" fill="url(#paint0_linear_3880_50053)"/>
<defs>
<linearGradient id="paint0_linear_3880_50053" x1="17.4225" y1="0.525413" x2="17.4225" y2="29.4972" gradientUnits="userSpaceOnUse">
<stop stop-color="#FFBF00"/>
<stop offset="1" stop-color="#E843C4"/>
</linearGradient>
</defs>
</svg>
