<svg width="28" height="40" viewBox="0 0 28 40" fill="none" xmlns="http://www.w3.org/2000/svg">
<path fill-rule="evenodd" clip-rule="evenodd" d="M25.8578 16.3584C26.9624 16.3584 27.8578 17.2538 27.8578 18.3584L27.8576 38C27.8576 39.1046 26.9622 40 25.8576 40H2.55176C1.44719 40 0.551758 39.1046 0.551758 38V18.3584C0.551758 17.2538 1.44719 16.3584 2.55176 16.3584H4.21587V9.28085C4.45671 5.88913 6.40677 2.8529 9.39111 1.22265C12.3754 -0.407595 15.9843 -0.407506 18.9684 1.22265C21.9526 2.85281 23.9024 5.88913 24.1433 9.28085H22.1357C21.9217 6.58836 20.3601 4.18682 17.9863 2.8987C15.612 1.61058 12.7476 1.61058 10.3734 2.8987C7.99955 4.18682 6.43794 6.58836 6.22401 9.28085V16.3584H25.8578ZM15.9677 29.5961C16.7581 29.1394 17.2899 28.2851 17.2899 27.3066C17.2899 25.8472 16.1068 24.6641 14.6474 24.6641C13.188 24.6641 12.0049 25.8472 12.0049 27.3066C12.0049 28.2843 12.5359 29.138 13.3252 29.595V33.914H15.9677V29.5961Z" fill="url(#paint0_linear_3944_54518)"/>
<defs>
<linearGradient id="paint0_linear_3944_54518" x1="14.2015" y1="40.0081" x2="14.2015" y2="0.00406783" gradientUnits="userSpaceOnUse">
<stop stop-color="#FFBF00"/>
<stop offset="1" stop-color="#E843C4"/>
</linearGradient>
</defs>
</svg>
