<svg width="49" height="40" viewBox="0 0 49 40" fill="none" xmlns="http://www.w3.org/2000/svg">
<path fill-rule="evenodd" clip-rule="evenodd" d="M26.6481 10.4094C28.6151 9.60235 30.0006 7.66595 30.0006 5.40546C30.0006 2.42011 27.584 0 24.603 0C21.6219 0 19.2053 2.42011 19.2053 5.40546C19.2053 7.65826 20.5815 9.58918 22.5378 10.4012V16.4275L17.3954 19.433C16.764 19.8021 16.3758 20.4793 16.3758 21.2117V26.7043L10.2145 30.2318C10.0658 30.3169 9.93182 30.4178 9.81334 30.5311C8.86315 29.6956 7.61744 29.1891 6.25359 29.1891C3.27256 29.1891 0.855957 31.6092 0.855957 34.5945C0.855957 37.5799 3.27256 40 6.25359 40C9.23462 40 11.6512 37.5799 11.6512 34.5945C11.6512 34.408 11.6418 34.2237 11.6234 34.042C11.8393 34.0003 12.0522 33.9228 12.2537 33.8074L17.9715 30.5338L23.5608 33.8006C24.2007 34.1745 24.992 34.1745 25.6319 33.8006L31.2173 30.5361L36.9311 33.8074C37.1405 33.9273 37.362 34.0062 37.5865 34.0467C37.5684 34.2269 37.5591 34.4097 37.5591 34.5947C37.5591 37.58 39.9757 40.0001 42.9567 40.0001C45.9378 40.0001 48.3544 37.58 48.3544 34.5947C48.3544 31.6093 45.9378 29.1892 42.9567 29.1892C41.5865 29.1892 40.3356 29.7005 39.3838 30.5429C39.2623 30.4248 39.1242 30.3199 38.9704 30.2318L32.8169 26.7087V21.2117C32.8169 20.4793 32.4287 19.8021 31.7973 19.433L26.6481 16.4235V10.4094ZM26.7629 5.40677C26.7629 6.60091 25.7963 7.56896 24.6039 7.56896C23.4114 7.56896 22.4448 6.60091 22.4448 5.40677C22.4448 4.21263 23.4114 3.24459 24.6039 3.24459C25.7963 3.24459 26.7629 4.21263 26.7629 5.40677ZM24.5963 19.9921L20.4861 22.3943V27.2358L24.5963 29.6381L28.7066 27.2358V22.3943L24.5963 19.9921ZM6.25227 36.7581C7.44469 36.7581 8.41133 35.7901 8.41133 34.596C8.41133 33.4018 7.44469 32.4338 6.25227 32.4338C5.05986 32.4338 4.09322 33.4018 4.09322 34.596C4.09322 35.7901 5.05986 36.7581 6.25227 36.7581ZM45.1145 34.596C45.1145 35.7901 44.1478 36.7581 42.9554 36.7581C41.763 36.7581 40.7964 35.7901 40.7964 34.596C40.7964 33.4018 41.763 32.4338 42.9554 32.4338C44.1478 32.4338 45.1145 33.4018 45.1145 34.596Z" fill="url(#paint0_linear_3944_54550)"/>
<defs>
<linearGradient id="paint0_linear_3944_54550" x1="24.5994" y1="40.0082" x2="24.5994" y2="0.00406784" gradientUnits="userSpaceOnUse">
<stop stop-color="#FFBF00"/>
<stop offset="1" stop-color="#E843C4"/>
</linearGradient>
</defs>
</svg>
