<svg width="24" height="24" viewBox="0 0 24 24" fill="none" xmlns="http://www.w3.org/2000/svg">
<path fill-rule="evenodd" clip-rule="evenodd" d="M22 12C22 17.523 17.523 22 12 22C6.477 22 2 17.523 2 12C2 6.477 6.477 2 12 2C17.523 2 22 6.477 22 12ZM14.4705 5.66057C14.548 5.58538 14.6731 5.66924 14.633 5.76945L12.5764 10.9107C12.5501 10.9763 12.5985 11.0478 12.6692 11.0478H16.9494C17.0409 11.0478 17.0843 11.1604 17.0166 11.2219L9.18807 18.3231C9.10785 18.3959 8.98534 18.307 9.02963 18.2081L11.2293 13.2987C11.259 13.2326 11.2106 13.1578 11.1381 13.1578H6.99668C6.90688 13.1578 6.86259 13.0487 6.92701 12.9861L14.4705 5.66057Z" fill="url(#paint0_linear_1700_33117)"/>
<defs>
<linearGradient id="paint0_linear_1700_33117" x1="11.9976" y1="22.4207" x2="11.9976" y2="2.4187" gradientUnits="userSpaceOnUse">
<stop stop-color="#FFBF00"/>
<stop offset="1" stop-color="#E843C4"/>
</linearGradient>
</defs>
</svg>
