<svg width="68" height="68" viewBox="0 0 68 68" fill="none" xmlns="http://www.w3.org/2000/svg">
<g filter="url(#filter0_b_3887_38267)">
<rect y="-0.000488281" width="68" height="68" rx="34" fill="#211426" fill-opacity="0.33"/>
<rect x="0.5" y="0.499512" width="67" height="67" rx="33.5" stroke="url(#paint0_linear_3887_38267)" stroke-opacity="0.2"/>
</g>
<path d="M32.9327 23.3159H33.2268C34.1176 23.3121 34.9801 23.6276 35.6581 24.2053C36.3359 24.7828 36.7843 25.5844 36.9222 26.4644C36.9833 26.8553 37.1828 27.2114 37.4843 27.4678C37.786 27.724 38.1692 27.8638 38.565 27.8613H40.5758C41.053 27.86 41.5069 27.6551 41.8231 27.2977C42.1395 26.9405 42.288 26.4651 42.2316 25.9913C41.971 23.789 40.9109 21.7589 39.2532 20.2859C37.5951 18.8129 35.4544 17.9995 33.2363 18H32.9166C30.5192 18.0076 28.2226 18.9641 26.5283 20.6607C24.8344 22.3571 23.881 24.6552 23.8768 27.0526V31.7098L23.1512 31.8375L23.0043 31.8663C22.4417 31.9706 21.9336 32.2685 21.5677 32.7082C21.2016 33.1477 21.0009 33.7013 21 34.2735V45.5509C21.0004 46.1215 21.1998 46.6742 21.5639 47.1134C21.928 47.5529 22.4339 47.8515 22.9947 47.9578L23.9985 48.1465C26.9925 48.7128 30.0322 48.9985 33.0798 49C36.1267 48.9996 39.1668 48.7148 42.1607 48.1496L43.1645 47.961C43.7251 47.8546 44.231 47.5561 44.5951 47.1168C44.9592 46.6773 45.1587 46.1248 45.159 45.554V34.2738C45.1587 33.703 44.9592 33.1504 44.5951 32.7112C44.231 32.2717 43.7251 31.9731 43.1645 31.8668L43.0207 31.838C38.4645 30.9801 33.8165 30.7158 29.1924 31.0516V27.056C29.1942 26.0647 29.5886 25.1144 30.2896 24.4133C30.9907 23.7123 31.9414 23.3175 32.9327 23.3159ZM33.0797 32.5058C36.3197 32.5058 39.5528 32.8086 42.7368 33.4104L42.8806 33.4392C43.0755 33.4764 43.2514 33.5804 43.378 33.7331C43.5047 33.886 43.574 34.0782 43.5742 34.2767V45.5506C43.574 45.7491 43.5047 45.9413 43.378 46.0942C43.2514 46.247 43.0755 46.3509 42.8806 46.3881L41.8768 46.5768C36.0677 47.6713 30.1051 47.6713 24.296 46.5768L23.2922 46.3881C23.0973 46.3509 22.9216 46.247 22.7949 46.0942C22.6683 45.9413 22.5989 45.7491 22.5987 45.5506V34.2733C22.5989 34.0748 22.6683 33.8826 22.7949 33.7297C22.9216 33.5769 23.0975 33.4728 23.2924 33.4358L23.4393 33.407C26.618 32.8072 29.8449 32.5056 33.0797 32.5058ZM25.4754 31.4541V27.0527C25.4781 25.0762 26.2636 23.1817 27.66 21.7832C29.0565 20.385 30.9502 19.597 32.9266 19.5918H33.2464C35.0694 19.5947 36.8282 20.2652 38.1905 21.4768C39.5526 22.6882 40.424 24.3569 40.6396 26.1672C40.6434 26.1902 40.6363 26.2138 40.6204 26.231C40.6077 26.2459 40.589 26.2542 40.5694 26.2535H38.5651C38.5343 26.254 38.5074 26.2325 38.5013 26.2022C38.3007 24.9502 37.6594 23.8113 36.6928 22.9905C35.7262 22.17 34.4981 21.7218 33.2303 21.7272H32.9362C31.5215 21.7272 30.1644 22.2879 29.1627 23.2868C28.1609 24.2857 27.5959 25.641 27.5916 27.0557V31.1952C26.8819 31.2592 26.1724 31.3551 25.4754 31.4541Z" fill="url(#paint1_linear_3887_38267)"/>
<path d="M30.7721 44.0292C32.256 44.6096 33.9039 44.6096 35.3878 44.0292C35.6917 43.9131 35.9379 43.6821 36.073 43.3859C36.2081 43.0901 36.2215 42.7527 36.1102 42.447L35.2279 39.9665H35.2281C35.7249 39.36 35.9401 38.5707 35.8194 37.7961C35.6837 36.8607 35.0808 36.0589 34.2197 35.6689C33.3585 35.2792 32.3581 35.3552 31.5656 35.8705C30.7734 36.386 30.2983 37.2697 30.3054 38.2148C30.3083 38.8552 30.5344 39.4748 30.9447 39.9665L30.0466 42.447C29.9364 42.7532 29.9507 43.0905 30.0862 43.3862C30.222 43.6821 30.4682 43.9128 30.7721 44.0292L30.7721 44.0292ZM32.3512 39.1355C32.0952 38.9324 31.9353 38.6318 31.9103 38.3061C31.8854 37.9803 31.9973 37.6588 32.2194 37.4191C32.4412 37.1794 32.7532 37.0432 33.08 37.0432C33.4067 37.0432 33.7187 37.1794 33.9407 37.4191C34.1628 37.6588 34.2747 37.9803 34.2497 38.3061C34.2246 38.6318 34.0649 38.9324 33.8087 39.1355C33.542 39.3478 33.4392 39.7059 33.553 40.0271L34.4863 42.6515H34.4866C33.5704 42.9367 32.5895 42.9367 31.6736 42.6515L32.607 40.0271C32.7207 39.7058 32.6179 39.3478 32.3512 39.1355H32.3512Z" fill="url(#paint2_linear_3887_38267)"/>
<path d="M49.7368 26.0995C49.6144 25.6763 49.1726 25.4318 48.749 25.553L47.0165 26.0485C46.5919 26.1702 46.3465 26.6133 46.4682 27.0378C46.5899 27.4623 47.033 27.7078 47.4575 27.5861L49.19 27.1034C49.3969 27.0449 49.5717 26.9054 49.6745 26.7165C49.7775 26.5276 49.7998 26.3053 49.7367 26.0995L49.7368 26.0995Z" fill="url(#paint3_linear_3887_38267)"/>
<path d="M48.7424 31.007L47.1665 30.1343V30.1345C46.7836 29.9434 46.3183 30.0881 46.1109 30.4625C45.9036 30.8368 46.028 31.3079 46.393 31.5312L47.9689 32.4039C48.1549 32.5176 48.3792 32.5504 48.5899 32.4949C48.8006 32.4393 48.9794 32.3 49.0849 32.1093C49.1906 31.9187 49.2138 31.6933 49.1491 31.485C49.0844 31.277 48.9375 31.1042 48.7424 31.0069L48.7424 31.007Z" fill="url(#paint4_linear_3887_38267)"/>
<path d="M45.9839 21.3821C45.7975 21.2798 45.5781 21.2559 45.3741 21.3159C45.1701 21.3759 44.9986 21.5148 44.8971 21.7016L44.0148 23.268C43.9011 23.4539 43.8684 23.6782 43.9239 23.8889C43.9796 24.0996 44.1188 24.2785 44.3094 24.3839C44.5 24.4896 44.7257 24.5128 44.9337 24.4482C45.1418 24.3833 45.3146 24.2366 45.4118 24.0415L46.2845 22.4655C46.4983 22.0831 46.3643 21.5997 45.9839 21.3821V21.3821Z" fill="url(#paint5_linear_3887_38267)"/>
<defs>
<filter id="filter0_b_3887_38267" x="-114" y="-114" width="296" height="296" filterUnits="userSpaceOnUse" color-interpolation-filters="sRGB">
<feFlood flood-opacity="0" result="BackgroundImageFix"/>
<feGaussianBlur in="BackgroundImage" stdDeviation="57"/>
<feComposite in2="SourceAlpha" operator="in" result="effect1_backgroundBlur_3887_38267"/>
<feBlend mode="normal" in="SourceGraphic" in2="effect1_backgroundBlur_3887_38267" result="shape"/>
</filter>
<linearGradient id="paint0_linear_3887_38267" x1="34" y1="-0.000488281" x2="34" y2="67.9995" gradientUnits="userSpaceOnUse">
<stop stop-color="#E843C4"/>
<stop offset="1" stop-color="#FFBF00"/>
</linearGradient>
<linearGradient id="paint1_linear_3887_38267" x1="33.0765" y1="49.0063" x2="33.0765" y2="18.0032" gradientUnits="userSpaceOnUse">
<stop stop-color="#FFBF00"/>
<stop offset="1" stop-color="#E843C4"/>
</linearGradient>
<linearGradient id="paint2_linear_3887_38267" x1="33.0783" y1="44.4664" x2="33.0783" y2="35.4233" gradientUnits="userSpaceOnUse">
<stop stop-color="#FFBF00"/>
<stop offset="1" stop-color="#E843C4"/>
</linearGradient>
<linearGradient id="paint3_linear_3887_38267" x1="48.1041" y1="27.6177" x2="48.1041" y2="25.5222" gradientUnits="userSpaceOnUse">
<stop stop-color="#FFBF00"/>
<stop offset="1" stop-color="#E843C4"/>
</linearGradient>
<linearGradient id="paint4_linear_3887_38267" x1="47.5975" y1="32.5218" x2="47.5975" y2="30.0505" gradientUnits="userSpaceOnUse">
<stop stop-color="#FFBF00"/>
<stop offset="1" stop-color="#E843C4"/>
</linearGradient>
<linearGradient id="paint5_linear_3887_38267" x1="45.1415" y1="24.4848" x2="45.1415" y2="21.2838" gradientUnits="userSpaceOnUse">
<stop stop-color="#FFBF00"/>
<stop offset="1" stop-color="#E843C4"/>
</linearGradient>
</defs>
</svg>
