<svg width="49" height="48" viewBox="0 0 49 48" fill="none" xmlns="http://www.w3.org/2000/svg">
<path fill-rule="evenodd" clip-rule="evenodd" d="M43.2599 39.1967L39.6967 42.7599C38.8581 43.5976 37.4964 43.7028 36.5519 42.9688L32.9887 40.3487C32.3069 40.6108 31.8876 40.7943 31.4678 40.9779C31.0493 41.1611 30.6302 41.3444 29.9498 41.6061L29.3211 46.0079C29.2167 47.1608 28.1683 47.9993 27.0154 47.9993H21.9851C20.8323 47.9993 19.8892 47.1607 19.6794 46.0079L19.0507 41.6061C18.3688 41.3441 17.9495 41.1606 17.5298 40.977C17.1112 40.7938 16.6922 40.6105 16.0118 40.3487L12.4487 42.9688C11.5056 43.7021 10.1429 43.5975 9.30437 42.759L5.74125 39.1959C4.90273 38.3573 4.79746 36.9947 5.53143 36.0516L8.15152 32.4885C7.88944 31.8066 7.70599 31.3873 7.52233 30.9676C7.33918 30.549 7.15583 30.1299 6.8941 29.4495L2.49236 28.8208C1.33943 28.7164 0.500917 27.668 0.500917 26.5152L0.500183 21.3796C0.500183 20.2268 1.33876 19.2838 2.49163 19.0739L6.89468 18.5498C7.15676 17.8679 7.34021 17.4486 7.52386 17.0289C7.70702 16.6103 7.89037 16.1913 8.15209 15.5109L5.53201 11.9477C4.79877 11.0047 4.90331 9.64197 5.74183 8.80345L9.30495 5.24033C10.1436 4.40181 11.5062 4.29654 12.4492 5.03052L16.0124 7.6506C16.6942 7.38853 17.1135 7.20507 17.5332 7.02142C17.9518 6.83826 18.3709 6.65491 19.0513 6.39319L19.68 1.99145C19.7844 0.838519 20.8328 0 21.9857 0H27.016C28.1688 0 29.1119 0.838576 29.3217 1.99145L29.9504 6.39319C30.6323 6.65526 31.0516 6.83872 31.4713 7.02237C31.8899 7.20552 32.3089 7.38887 32.9893 7.6506L36.5524 5.03202C37.4955 4.29877 38.8582 4.40331 39.6967 5.24183L43.2599 8.80495C44.0984 9.64357 44.2036 11.0062 43.4697 11.9492L40.8496 15.5124C41.1117 16.1942 41.2951 16.6135 41.4788 17.0332C41.6619 17.4518 41.8453 17.8709 42.107 18.5513L46.5087 19.18C47.6617 19.2844 48.5002 20.3328 48.5002 21.4857V26.516C48.5002 27.6688 47.6616 28.6119 46.5087 28.8217L42.107 29.4504C41.8449 30.1323 41.6615 30.5516 41.4778 30.9713C41.2947 31.3899 41.1113 31.8089 40.8496 32.4893L43.4697 36.0525C44.2029 36.9955 44.0984 38.3582 43.2599 39.1967ZM34.6854 19.0078C35.242 18.3941 35.1958 17.4455 34.5822 16.889C33.9685 16.3324 33.0199 16.3786 32.4634 16.9922L22.0766 28.4435L16.5304 23.2024C15.9283 22.6334 14.979 22.6603 14.41 23.2624C13.841 23.8645 13.8678 24.8139 14.4699 25.3829L20.5037 31.0847C21.4577 31.9863 22.9662 31.9282 23.848 30.9559L34.6854 19.0078Z" fill="url(#paint0_linear_3880_42209)"/>
<defs>
<linearGradient id="paint0_linear_3880_42209" x1="24.4944" y1="48.0091" x2="24.4944" y2="0.00488133" gradientUnits="userSpaceOnUse">
<stop stop-color="#FFBF00"/>
<stop offset="1" stop-color="#E843C4"/>
</linearGradient>
</defs>
</svg>
