<svg width="24" height="24" viewBox="0 0 24 24" fill="none" xmlns="http://www.w3.org/2000/svg">
<path fill-rule="evenodd" clip-rule="evenodd" d="M17.5 2C16.9477 2 16.5 2.44772 16.5 3V21C16.5 21.5523 16.9477 22 17.5 22H20.5C21.0523 22 21.5 21.5523 21.5 21V3C21.5 2.44772 21.0523 2 20.5 2H17.5ZM9.5 10C9.5 9.44772 9.94772 9 10.5 9H13.5C14.0523 9 14.5 9.44772 14.5 10V21C14.5 21.5523 14.0523 22 13.5 22H10.5C9.94772 22 9.5 21.5523 9.5 21V10ZM2.5 16C2.5 15.4477 2.94772 15 3.5 15H6.5C7.05228 15 7.5 15.4477 7.5 16L7.5 21C7.5 21.5523 7.05228 22 6.5 22H3.5C2.94772 22 2.5 21.5523 2.5 21V16Z" fill="url(#paint0_linear_1087_28639)"/>
<defs>
<linearGradient id="paint0_linear_1087_28639" x1="11.9977" y1="22.0041" x2="11.9977" y2="2.00203" gradientUnits="userSpaceOnUse">
<stop stop-color="#FFBF00"/>
<stop offset="1" stop-color="#E843C4"/>
</linearGradient>
</defs>
</svg>
