<svg width="19" height="19" viewBox="0 0 19 19" fill="none" xmlns="http://www.w3.org/2000/svg">
<path d="M3.9375 14.4375C3.9375 13.7126 3.34987 13.125 2.625 13.125C1.90013 13.125 1.3125 13.7126 1.3125 14.4375V15.75C1.3125 16.4749 1.90013 17.0625 2.625 17.0625C3.34987 17.0625 3.9375 16.4749 3.9375 15.75V14.4375ZM10.5 9.1875C10.5 8.46263 9.91237 7.875 9.1875 7.875C8.46263 7.875 7.875 8.46263 7.875 9.1875V15.75C7.875 16.4749 8.46263 17.0625 9.1875 17.0625C9.91237 17.0625 10.5 16.4749 10.5 15.75V9.1875ZM15.75 1.3125C16.4749 1.3125 17.0625 1.90013 17.0625 2.625V15.75C17.0625 16.4749 16.4749 17.0625 15.75 17.0625C15.0251 17.0625 14.4375 16.4749 14.4375 15.75V2.625C14.4375 1.90013 15.0251 1.3125 15.75 1.3125ZM14.4375 0C14.0894 0 13.7556 0.138281 13.5094 0.384422C13.2633 0.630564 13.125 0.964403 13.125 1.3125V17.0625C13.125 17.4106 13.2633 17.7444 13.5094 17.9906C13.7556 18.2367 14.0894 18.375 14.4375 18.375H17.0625C17.4106 18.375 17.7444 18.2367 17.9906 17.9906C18.2367 17.7444 18.375 17.4106 18.375 17.0625V1.3125C18.375 0.964403 18.2367 0.630564 17.9906 0.384422C17.7444 0.138281 17.4106 0 17.0625 0H14.4375ZM6.5625 7.875C6.5625 7.5269 6.70078 7.19306 6.94692 6.94692C7.19306 6.70078 7.5269 6.5625 7.875 6.5625H10.5C10.8481 6.5625 11.1819 6.70078 11.4281 6.94692C11.6742 7.19306 11.8125 7.5269 11.8125 7.875V17.0625C11.8125 17.4106 11.6742 17.7444 11.4281 17.9906C11.1819 18.2367 10.8481 18.375 10.5 18.375H7.875C7.5269 18.375 7.19306 18.2367 6.94692 17.9906C6.70078 17.7444 6.5625 17.4106 6.5625 17.0625V7.875ZM0 13.125C0 12.7769 0.138281 12.4431 0.384422 12.1969C0.630564 11.9508 0.964403 11.8125 1.3125 11.8125H3.9375C4.2856 11.8125 4.61944 11.9508 4.86558 12.1969C5.11172 12.4431 5.25 12.7769 5.25 13.125V17.0625C5.25 17.4106 5.11172 17.7444 4.86558 17.9906C4.61944 18.2367 4.2856 18.375 3.9375 18.375H1.3125C0.964403 18.375 0.630564 18.2367 0.384422 17.9906C0.138281 17.7444 0 17.4106 0 17.0625V13.125Z" fill="url(#paint0_linear_7219_13900)"/>
<defs>
<linearGradient id="paint0_linear_7219_13900" x1="9.1875" y1="0" x2="9.1875" y2="18.375" gradientUnits="userSpaceOnUse">
<stop stop-color="#FFBF00"/>
<stop offset="1" stop-color="#E843C4"/>
</linearGradient>
</defs>
</svg>
