<svg width="20" height="20" viewBox="0 0 20 20" fill="none" xmlns="http://www.w3.org/2000/svg">
<path fill-rule="evenodd" clip-rule="evenodd" d="M8 10C10.2091 10 12 8.20914 12 6C12 3.79086 10.2091 2 8 2C5.79086 2 4 3.79086 4 6C4 8.20914 5.79086 10 8 10ZM8.67 11.02C8.45 11.01 8.23 11 8 11C5.58 11 3.32 11.67 1.39 12.82C0.51 13.34 0 14.32 0 15.35L0 17C0 17.55 0.45 18 1 18H9.26C8.55369 16.9924 8.12699 15.8157 8.02335 14.5896C7.91971 13.3635 8.14283 12.1318 8.67 11.02ZM18.6927 13.396C18.7214 13.5965 18.7489 13.7889 18.7489 13.9998C18.7489 14.2106 18.7214 14.403 18.6927 14.6035L18.6889 14.6298L19.5289 15.3598C19.7089 15.5198 19.7489 15.7798 19.6289 15.9898L19.0389 17.0098C18.9189 17.2098 18.6789 17.3098 18.4489 17.2298L17.3889 16.8698C17.0689 17.1398 16.7089 17.3498 16.3089 17.4998L16.0889 18.5898C16.0389 18.8198 15.8389 18.9898 15.5989 18.9898H14.4189C14.1789 18.9898 13.9789 18.8198 13.9289 18.5898L13.7089 17.4998C13.3089 17.3498 12.9489 17.1398 12.6289 16.8698L11.5689 17.2298C11.3489 17.3098 11.0989 17.2198 10.9789 17.0098L10.3889 15.9898C10.2689 15.7798 10.3089 15.5198 10.4889 15.3598L11.3289 14.6298C11.3277 14.621 11.3264 14.6123 11.3252 14.6035C11.2965 14.403 11.2689 14.2106 11.2689 13.9998C11.2689 13.7889 11.2965 13.5965 11.3252 13.396C11.3264 13.3873 11.3277 13.3785 11.3289 13.3698L10.4889 12.6398C10.3089 12.4798 10.2689 12.2198 10.3889 12.0098L10.9789 10.9898C11.0366 10.8905 11.1269 10.8143 11.2345 10.7741C11.3421 10.734 11.4603 10.7325 11.5689 10.7698L12.6289 11.1298C12.9489 10.8598 13.3089 10.6498 13.7089 10.4998L13.9289 9.40977C13.9789 9.17977 14.1789 9.00977 14.4189 9.00977H15.5989C15.714 9.0103 15.8255 9.05031 15.9146 9.12311C16.0038 9.1959 16.0653 9.29709 16.0889 9.40977L16.3089 10.4998C16.7089 10.6498 17.0689 10.8598 17.3889 11.1298L18.4489 10.7698C18.5574 10.7309 18.6761 10.7316 18.7841 10.7719C18.8921 10.8121 18.9824 10.8893 19.0389 10.9898L19.6289 12.0098C19.7489 12.2198 19.7089 12.4798 19.5289 12.6398L18.6889 13.3698L18.6927 13.396ZM12.9989 13.9998C12.9989 15.0998 13.8989 15.9998 14.9989 15.9998C16.0989 15.9998 16.9989 15.0998 16.9989 13.9998C16.9989 12.8998 16.0989 11.9998 14.9989 11.9998C13.8989 11.9998 12.9989 12.8998 12.9989 13.9998Z" fill="url(#paint0_linear_3050_635)"/>
<defs>
<linearGradient id="paint0_linear_3050_635" x1="9.84636" y1="18.9932" x2="9.84636" y2="2.00173" gradientUnits="userSpaceOnUse">
<stop stop-color="#FFBF00"/>
<stop offset="1" stop-color="#E843C4"/>
</linearGradient>
</defs>
</svg>
