<svg width="24" height="25" viewBox="0 0 24 25" fill="none" xmlns="http://www.w3.org/2000/svg">
<path fill-rule="evenodd" clip-rule="evenodd" d="M1.84615 12.5C1.84615 6.89219 6.39219 2.34615 12 2.34615C17.6078 2.34615 22.1538 6.89219 22.1538 12.5C22.1538 18.1078 17.6078 22.6538 12 22.6538C6.39219 22.6538 1.84615 18.1078 1.84615 12.5ZM12 0.5C5.37258 0.5 0 5.87258 0 12.5C0 19.1274 5.37258 24.5 12 24.5C18.6274 24.5 24 19.1274 24 12.5C24 5.87258 18.6274 0.5 12 0.5ZM11.9992 6.03841C11.4894 6.03841 11.0762 6.45169 11.0762 6.96149C11.0762 7.47129 11.4894 7.88457 11.9992 7.88457H12.0103C12.5201 7.88457 12.9334 7.47129 12.9334 6.96149C12.9334 6.45169 12.5201 6.03841 12.0103 6.03841H11.9992ZM8.86133 11.3925C8.86133 10.8827 9.2746 10.4694 9.7844 10.4694H11.9998C12.5096 10.4694 12.9229 10.8827 12.9229 11.3925V16.0078H14.2152C14.725 16.0078 15.1383 16.4211 15.1383 16.9309C15.1383 17.4407 14.725 17.854 14.2152 17.854H12.0096C12.0064 17.854 12.0031 17.854 11.9998 17.854C11.9965 17.854 11.9932 17.854 11.9899 17.854H9.7844C9.2746 17.854 8.86133 17.4407 8.86133 16.9309C8.86133 16.4211 9.2746 16.0078 9.7844 16.0078H11.0767V12.3156H9.7844C9.2746 12.3156 8.86133 11.9023 8.86133 11.3925Z" fill="url(#paint0_linear_2_986)"/>
<defs>
<linearGradient id="paint0_linear_2_986" x1="11.9971" y1="24.5049" x2="11.9971" y2="0.502441" gradientUnits="userSpaceOnUse">
<stop stop-color="#FFBF00"/>
<stop offset="1" stop-color="#E843C4"/>
</linearGradient>
</defs>
</svg>
