<svg width="79" height="73" viewBox="0 0 79 73" fill="none" xmlns="http://www.w3.org/2000/svg">
<g filter="url(#filter0_b_2_1228)">
<rect x="0.856934" width="78" height="73" rx="12" fill="white" fill-opacity="0.04"/>
<rect x="1.10693" y="0.25" width="77.5" height="72.5" rx="11.75" stroke="url(#paint0_linear_2_1228)" stroke-width="0.5"/>
</g>
<path d="M41.6384 28.5697C41.9818 28.2428 42.4387 28.0621 42.9128 28.0657C43.3869 28.0692 43.841 28.2569 44.1794 28.5889C44.5178 28.921 44.7139 29.3715 44.7264 29.8454C44.739 30.3193 44.5669 30.7796 44.2465 31.1291L34.5209 43.2922C34.3537 43.4723 34.1518 43.6169 33.9275 43.7172C33.7031 43.8175 33.4608 43.8716 33.215 43.8761C32.9693 43.8807 32.7251 43.8356 32.4972 43.7437C32.2693 43.6517 32.0622 43.5147 31.8884 43.3409L25.4388 36.8913C25.2592 36.7239 25.1151 36.5221 25.0152 36.2979C24.9153 36.0736 24.8615 35.8315 24.8572 35.5861C24.8529 35.3406 24.898 35.0968 24.99 34.8692C25.0819 34.6415 25.2188 34.4347 25.3924 34.2611C25.566 34.0876 25.7728 33.9507 26.0004 33.8588C26.228 33.7668 26.4718 33.7217 26.7173 33.726C26.9628 33.7303 27.2048 33.784 27.4291 33.884C27.6533 33.9839 27.8552 34.1279 28.0225 34.3076L33.1267 39.4092L41.5897 28.6233C41.6048 28.6045 41.6211 28.5866 41.6384 28.5697ZM39.3959 41.0984L41.6384 43.3409C41.8122 43.5144 42.0191 43.651 42.2468 43.7428C42.4745 43.8345 42.7183 43.8794 42.9638 43.8749C43.2092 43.8703 43.4513 43.8164 43.6754 43.7163C43.8996 43.6162 44.1013 43.4719 44.2685 43.2922L53.999 31.1291C54.1738 30.9565 54.312 30.7505 54.4054 30.5233C54.4988 30.2961 54.5455 30.0524 54.5426 29.8068C54.5397 29.5612 54.4874 29.3187 54.3887 29.0937C54.2901 28.8688 54.1471 28.6661 53.9683 28.4976C53.7895 28.3292 53.5786 28.1985 53.3482 28.1133C53.1178 28.0282 52.8726 27.9904 52.6273 28.0021C52.3819 28.0138 52.1415 28.0749 51.9202 28.1816C51.699 28.2883 51.5015 28.4386 51.3397 28.6233L42.8742 39.4092L41.692 38.2246L39.3935 41.0984H39.3959Z" fill="url(#paint1_linear_2_1228)"/>
<defs>
<filter id="filter0_b_2_1228" x="-4.14307" y="-5" width="88" height="83" filterUnits="userSpaceOnUse" color-interpolation-filters="sRGB">
<feFlood flood-opacity="0" result="BackgroundImageFix"/>
<feGaussianBlur in="BackgroundImage" stdDeviation="2.5"/>
<feComposite in2="SourceAlpha" operator="in" result="effect1_backgroundBlur_2_1228"/>
<feBlend mode="normal" in="SourceGraphic" in2="effect1_backgroundBlur_2_1228" result="shape"/>
</filter>
<linearGradient id="paint0_linear_2_1228" x1="39.8475" y1="73.0148" x2="39.8475" y2="0.0074238" gradientUnits="userSpaceOnUse">
<stop stop-color="#FFBF00"/>
<stop offset="1" stop-color="#E843C4"/>
</linearGradient>
<linearGradient id="paint1_linear_2_1228" x1="39.6998" y1="28" x2="39.6998" y2="43.8765" gradientUnits="userSpaceOnUse">
<stop stop-color="#E843C4"/>
<stop offset="1" stop-color="#FFBF00"/>
</linearGradient>
</defs>
</svg>
