<svg width="42" height="47" viewBox="0 0 42 47" fill="none" xmlns="http://www.w3.org/2000/svg">
<path fill-rule="evenodd" clip-rule="evenodd" d="M38.527 42.7294L37.4266 43.8298C37.1677 44.0885 36.7472 44.121 36.4555 43.8943L35.3551 43.0852C35.1446 43.1661 35.0151 43.2228 34.8855 43.2795C34.7562 43.336 34.6268 43.3927 34.4167 43.4735L34.2225 44.8328C34.1903 45.1888 33.8665 45.4478 33.5105 45.4478H31.9571C31.6011 45.4478 31.3098 45.1888 31.245 44.8328L31.0509 43.4735C30.8403 43.3926 30.7108 43.3359 30.5812 43.2792C30.452 43.2226 30.3226 43.166 30.1124 43.0852L29.0121 43.8943C28.7209 44.1207 28.3001 44.0885 28.0411 43.8295L26.9408 42.7292C26.6818 42.4702 26.6493 42.0494 26.876 41.7582L27.6851 40.6578C27.6042 40.4473 27.5475 40.3178 27.4908 40.1882C27.4342 40.0589 27.3776 39.9295 27.2968 39.7194L25.9375 39.5252C25.5814 39.493 25.3225 39.1692 25.3225 38.8132L25.3223 37.2273C25.3223 36.8713 25.5812 36.5801 25.9373 36.5153L27.297 36.3534C27.3779 36.1428 27.4346 36.0134 27.4913 35.8837C27.5478 35.7545 27.6044 35.6251 27.6853 35.4149L26.8762 34.3146C26.6497 34.0234 26.682 33.6026 26.941 33.3436L28.0413 32.2433C28.3003 31.9843 28.7211 31.9518 29.0123 32.1785L30.1126 32.9876C30.3232 32.9067 30.4527 32.85 30.5823 32.7933C30.7116 32.7367 30.841 32.6801 31.0511 32.5993L31.2452 31.24C31.2775 30.8839 31.6012 30.625 31.9572 30.625H33.5107C33.8667 30.625 34.1579 30.884 34.2227 31.24L34.4169 32.5993C34.6274 32.6802 34.7569 32.7369 34.8865 32.7936C35.0158 32.8502 35.1452 32.9068 35.3553 32.9876L36.4557 32.1789C36.7469 31.9525 37.1677 31.9848 37.4266 32.2437L38.527 33.3441C38.7859 33.6031 38.8184 34.0238 38.5918 34.3151L37.7827 35.4154C37.8636 35.626 37.9202 35.7555 37.977 35.8851C38.0335 36.0143 38.0901 36.1437 38.171 36.3539L39.5303 36.548C39.8863 36.5803 40.1453 36.904 40.1453 37.26V38.8135C40.1453 39.1695 39.8863 39.4607 39.5303 39.5255L38.171 39.7197C38.09 39.9302 38.0334 40.0597 37.9767 40.1893C37.9201 40.3186 37.8635 40.448 37.7827 40.6581L38.5918 41.7584C38.8182 42.0497 38.7859 42.4705 38.527 42.7294ZM35.8844 36.4998C36.059 36.3073 36.0445 36.0097 35.852 35.8351C35.6595 35.6605 35.3619 35.675 35.1873 35.8675L31.9848 39.3983L30.2775 37.7849C30.0886 37.6064 29.7908 37.6148 29.6123 37.8037C29.4338 37.9926 29.4422 38.2904 29.6311 38.4689L31.4668 40.2037C31.7796 40.4992 32.2741 40.4802 32.5632 40.1614L35.8844 36.4998Z" fill="url(#paint0_linear_3957_46141)"/>
<path fill-rule="evenodd" clip-rule="evenodd" d="M35.0267 0.4375C36.6836 0.4375 38.0267 1.78065 38.0267 3.4375V26.7525C38.0267 27.8571 37.1313 28.7525 36.0267 28.7525H33.1867C27.6639 28.7525 23.1867 33.2297 23.1867 38.7525V40.665C23.1867 41.7696 22.2913 42.665 21.1867 42.665H7.63672C5.97986 42.665 4.63672 41.0944 4.63672 39.4375V8.6875V4.4375C4.63672 2.22836 6.42758 0.4375 8.63672 0.4375H11.7617H35.0267ZM12.0562 8.77583C11.7801 8.77583 11.5562 8.99969 11.5562 9.27583C11.5562 9.55197 11.7801 9.77583 12.0562 9.77583H30.6062C30.8824 9.77583 31.1062 9.55197 31.1062 9.27583C31.1062 8.99969 30.8824 8.77583 30.6062 8.77583H12.0562ZM12.0562 15.5258C11.7801 15.5258 11.5562 15.7497 11.5562 16.0258C11.5562 16.302 11.7801 16.5258 12.0562 16.5258H25.0413C25.3174 16.5258 25.5413 16.302 25.5413 16.0258C25.5413 15.7497 25.3174 15.5258 25.0413 15.5258H12.0562ZM12.0562 22.2758C11.7801 22.2758 11.5562 22.4997 11.5562 22.7758C11.5562 23.052 11.7801 23.2758 12.0562 23.2758H30.6062C30.8824 23.2758 31.1062 23.052 31.1062 22.7758C31.1062 22.4997 30.8824 22.2758 30.6062 22.2758H12.0562ZM12.0562 29.1808C11.7801 29.1808 11.5562 29.4047 11.5562 29.6808C11.5562 29.957 11.7801 30.1808 12.0562 30.1808H19.94C20.2161 30.1808 20.44 29.957 20.44 29.6808C20.44 29.4047 20.2161 29.1808 19.94 29.1808H12.0562Z" fill="url(#paint1_linear_3957_46141)"/>
<defs>
<linearGradient id="paint0_linear_3957_46141" x1="32.732" y1="45.4508" x2="32.732" y2="30.6265" gradientUnits="userSpaceOnUse">
<stop stop-color="#FFBF00"/>
<stop offset="1" stop-color="#E843C4"/>
</linearGradient>
<linearGradient id="paint1_linear_3957_46141" x1="21.3277" y1="42.6736" x2="21.3277" y2="0.441794" gradientUnits="userSpaceOnUse">
<stop stop-color="#FFBF00"/>
<stop offset="1" stop-color="#E843C4"/>
</linearGradient>
</defs>
</svg>
