<svg width="22" height="17" viewBox="0 0 22 17" fill="none" xmlns="http://www.w3.org/2000/svg">
<path fill-rule="evenodd" clip-rule="evenodd" d="M10.9964 12.274C8.92951 12.274 7.26012 10.6003 7.26012 8.53588C7.26012 6.48275 8.92888 4.80963 10.9964 4.80963C13.0639 4.80963 14.7377 6.48275 14.7377 8.53588C14.7377 10.6003 13.0633 12.274 10.9964 12.274ZM11.0033 1.6665C5.87511 1.6665 2.62883 5.4815 1.30819 7.42463C0.90444 8.024 0.895065 9.06275 1.29382 9.66338C2.58445 11.6178 5.77198 15.4165 11.0033 15.4165C16.2283 15.4165 19.4165 11.6178 20.7065 9.66338C21.1059 9.06275 21.0946 8.024 20.6915 7.42463C19.3708 5.4815 16.1308 1.6665 11.0033 1.6665Z" stroke="url(#paint0_linear_907_64414)" stroke-width="1.5" stroke-linecap="round" stroke-linejoin="round"/>
<defs>
<linearGradient id="paint0_linear_907_64414" x1="10.9976" y1="15.4193" x2="10.9976" y2="1.6679" gradientUnits="userSpaceOnUse">
<stop stop-color="#FFBF00"/>
<stop offset="1" stop-color="#E843C4"/>
</linearGradient>
</defs>
</svg>
