<svg width="16" height="16" viewBox="0 0 16 16" fill="none" xmlns="http://www.w3.org/2000/svg">
<path fill-rule="evenodd" clip-rule="evenodd" d="M13.7777 4.00008C13.7777 5.75069 10.9834 6.66666 8.22237 6.66666C5.46135 6.66666 2.66699 5.75069 2.66699 4.00008C2.66699 2.24947 5.46135 1.3335 8.22237 1.3335C10.9834 1.3335 13.7777 2.24947 13.7777 4.00008ZM8.22237 9.33288C5.46135 9.33288 2.66699 8.41691 2.66699 6.6663V5.33301C2.66699 7.08362 5.46135 7.99959 8.22237 7.99959C10.9834 7.99959 13.7777 7.08362 13.7777 5.33301V6.6663C13.7777 8.41691 10.9834 9.33288 8.22237 9.33288ZM2.66699 9.33329C2.66699 11.0839 5.46135 11.9999 8.22237 11.9999C10.9834 11.9999 13.7777 11.0839 13.7777 9.33329V8C13.7777 9.75061 10.9834 10.6666 8.22237 10.6666C5.46135 10.6666 2.66699 9.75061 2.66699 8V9.33329ZM8.22237 14.6669C5.46135 14.6669 2.66699 13.7509 2.66699 12.0003V10.667C2.66699 12.4176 5.46135 13.3336 8.22237 13.3336C10.9834 13.3336 13.7777 12.4176 13.7777 10.667V12.0003C13.7777 13.7509 10.9834 14.6669 8.22237 14.6669Z" fill="url(#paint0_linear_1087_28692)"/>
<defs>
<linearGradient id="paint0_linear_1087_28692" x1="8.22102" y1="14.6696" x2="8.22102" y2="1.33485" gradientUnits="userSpaceOnUse">
<stop stop-color="#FFBF00"/>
<stop offset="1" stop-color="#E843C4"/>
</linearGradient>
</defs>
</svg>
