<svg width="49" height="48" viewBox="0 0 49 48" fill="none" xmlns="http://www.w3.org/2000/svg">
<path fill-rule="evenodd" clip-rule="evenodd" d="M24.5 48C37.7548 48 48.5 37.2548 48.5 24C48.5 10.7452 37.7548 0 24.5 0C11.2452 0 0.5 10.7452 0.5 24C0.5 37.2548 11.2452 48 24.5 48ZM24.5 42C14.5589 42 6.5 33.9411 6.5 24C6.5 14.0589 14.5589 6 24.5 6C34.4411 6 42.5 14.0589 42.5 24C42.5 33.9411 34.4411 42 24.5 42ZM24.5 36C31.1274 36 36.5 30.6274 36.5 24C36.5 17.3726 31.1274 12 24.5 12C17.8726 12 12.5 17.3726 12.5 24C12.5 30.6274 17.8726 36 24.5 36Z" fill="url(#paint0_linear_3880_42220)"/>
<defs>
<linearGradient id="paint0_linear_3880_42220" x1="24.4942" y1="48.0097" x2="24.4942" y2="0.0048814" gradientUnits="userSpaceOnUse">
<stop stop-color="#FFBF00"/>
<stop offset="1" stop-color="#E843C4"/>
</linearGradient>
</defs>
</svg>
