<svg width="68" height="68" viewBox="0 0 68 68" fill="none" xmlns="http://www.w3.org/2000/svg">
<g filter="url(#filter0_b_3887_38277)">
<rect y="-0.000488281" width="68" height="68" rx="34" fill="#211426" fill-opacity="0.33"/>
<rect x="0.5" y="0.499512" width="67" height="67" rx="33.5" stroke="url(#paint0_linear_3887_38277)" stroke-opacity="0.2"/>
</g>
<path d="M28.1367 43.1412C29.0929 43.1412 29.8705 42.3636 29.8705 41.4074C29.8705 40.4512 29.0929 39.6736 28.1367 39.6736C27.1804 39.6736 26.4028 40.4512 26.4028 41.4074C26.4028 42.3636 27.1804 43.1412 28.1367 43.1412ZM28.1367 40.8295C28.4553 40.8295 28.7146 41.0888 28.7146 41.4074C28.7146 41.7261 28.4553 41.9854 28.1367 41.9854C27.818 41.9854 27.5587 41.7261 27.5587 41.4074C27.5587 41.0888 27.818 40.8295 28.1367 40.8295Z" fill="url(#paint1_linear_3887_38277)"/>
<path d="M23.7843 35.5604L27.5623 33.6712L28.6145 35.9517L29.1215 35.9721L30.298 36.0193L34.2814 19.1586L38.8281 20.2453L38.5858 21.2714L37.1054 20.9174C36.7942 20.8436 36.483 21.0348 36.409 21.3452C36.3347 21.6556 36.5264 21.9675 36.8368 22.0416L38.3203 22.3961L38.0556 23.5172L37.4129 23.3634C37.1012 23.2894 36.7906 23.4808 36.7163 23.7912C36.642 24.1016 36.8334 24.4135 37.1441 24.4876L37.7899 24.6418L37.5244 25.7634L36.0436 25.4094C35.733 25.3356 35.4213 25.5268 35.3473 25.8372C35.273 26.1476 35.4647 26.4595 35.7751 26.5336L37.2586 26.8881L36.9939 28.0091L36.3509 27.8556C36.0398 27.7816 35.7286 27.973 35.6543 28.2834C35.58 28.5938 35.7714 28.9057 36.0821 28.9798L36.7281 29.1341L36.4634 30.2551L34.9824 29.9014C34.6715 29.8281 34.3601 30.0188 34.2861 30.3292C34.212 30.6396 34.4035 30.9515 34.7141 31.0256L36.1974 31.3803L35.9324 32.5019L35.2892 32.3484C34.9783 32.2751 34.6671 32.4657 34.5928 32.7761C34.5188 33.0868 34.7102 33.3985 35.0209 33.4725L35.6667 33.6265L35.6313 33.7764L34.2492 34.4725L33.9212 34.3941C33.6103 34.3203 33.2989 34.5115 33.2249 34.8219C33.2109 34.8799 33.2081 34.9383 33.212 34.9948L31.1133 36.0516L33.4937 36.1468L46.5295 29.5825L50.4389 29.43L47.9682 32.1995L39.3334 36.3803L41.7829 36.4783L48.678 33.1399L51.6015 29.8627L51.6663 29.7747C51.8629 29.4463 51.8866 29.0856 51.7315 28.7848C51.5757 28.4826 51.2648 28.2912 50.8788 28.2605L50.8445 28.2576L46.2338 28.4375L36.9795 33.098L39.9531 20.5107C40.0999 19.8904 39.7186 19.2681 39.1014 19.1208L34.54 18.0317C34.4507 18.0101 34.3614 18 34.2735 18C33.7538 18 33.2827 18.3576 33.1573 18.8881L29.3839 34.8604L28.4084 32.7463C28.3983 32.7045 28.3846 32.6632 28.3648 32.6235C28.3511 32.5964 28.3343 32.5724 28.3173 32.5484L21.9832 18.8204C21.792 18.4055 21.3902 18.163 20.9715 18.163C20.811 18.163 20.648 18.1986 20.4934 18.2739L16.6398 20.1499C16.0814 20.4221 15.8435 21.1074 16.108 21.681L17.1571 23.9546C17.1612 24.0312 17.1801 24.1086 17.2167 24.1821C17.2466 24.242 17.2874 24.2915 17.3328 24.3356L23.4135 37.5147C23.6318 37.1496 23.9154 36.8287 24.2505 36.5699L23.7843 35.5604ZM17.1574 21.197C17.1554 21.1921 17.1556 21.1877 17.1564 21.1844L20.9489 19.3378L21.8233 21.2329L18.0455 23.122L17.1574 21.197ZM18.53 24.1719L22.3078 22.2832L23.1773 24.168L19.3995 26.0569L18.53 24.1719ZM19.8841 27.107L23.6621 25.2179L24.5316 27.1026L20.7538 28.9918L19.8841 27.107ZM21.2384 30.0422L25.0161 28.1533L25.8317 29.9207L22.0537 31.8093L21.2384 30.0422ZM23.2996 34.5099L22.5382 32.86L26.3163 30.9708L27.0774 32.6207L23.2996 34.5099Z" fill="url(#paint2_linear_3887_38277)"/>
<path d="M52.988 40.3959C52.988 39.1244 51.9485 38.0426 50.678 37.9918L26.5966 37.0284C26.5966 37.0284 26.1959 37.0204 26.1399 37.0248C24.9912 37.1096 24.0908 38.0565 24.0908 39.24V45.886C24.0908 47.0878 25.0166 47.9999 26.1874 47.9999C26.2553 47.9999 26.3239 47.9968 26.3933 47.9906L50.6854 45.8042C51.9517 45.6902 52.9879 44.5567 52.9879 43.2853V42.4183C52.9879 42.3678 52.984 42.3182 52.9809 42.2682C52.9837 42.222 52.9879 42.1763 52.9879 42.1294L52.988 40.3959ZM50.582 44.6531L26.2893 46.8395C26.2547 46.8428 26.2209 46.8444 26.1871 46.8444C25.6419 46.8444 25.2464 46.4413 25.2464 45.8864V45.5169C25.5547 45.6807 25.9077 45.7736 26.2838 45.7736C26.322 45.7736 26.3607 45.7728 26.3994 45.7708L50.679 44.5568C50.8085 44.5504 50.9349 44.5305 51.0588 44.5034C50.9102 44.5834 50.7494 44.6381 50.582 44.6531L50.582 44.6531ZM51.8321 42.1297C51.8321 42.7866 51.2776 43.3697 50.6213 43.4025L26.3424 44.6165C26.323 44.6175 26.3037 44.6177 26.2843 44.6177C25.7025 44.618 25.2469 44.1595 25.2469 43.5746V39.24C25.2469 38.6427 25.7131 38.1747 26.3085 38.1744H26.3091C26.3243 38.1744 50.6322 39.1469 50.6322 39.1469C51.2824 39.173 51.832 39.745 51.832 40.3959L51.8321 42.1297Z" fill="url(#paint3_linear_3887_38277)"/>
<defs>
<filter id="filter0_b_3887_38277" x="-114" y="-114" width="296" height="296" filterUnits="userSpaceOnUse" color-interpolation-filters="sRGB">
<feFlood flood-opacity="0" result="BackgroundImageFix"/>
<feGaussianBlur in="BackgroundImage" stdDeviation="57"/>
<feComposite in2="SourceAlpha" operator="in" result="effect1_backgroundBlur_3887_38277"/>
<feBlend mode="normal" in="SourceGraphic" in2="effect1_backgroundBlur_3887_38277" result="shape"/>
</filter>
<linearGradient id="paint0_linear_3887_38277" x1="34" y1="-0.000488281" x2="34" y2="67.9995" gradientUnits="userSpaceOnUse">
<stop stop-color="#E843C4"/>
<stop offset="1" stop-color="#FFBF00"/>
</linearGradient>
<linearGradient id="paint1_linear_3887_38277" x1="28.1362" y1="43.1419" x2="28.1362" y2="39.6739" gradientUnits="userSpaceOnUse">
<stop stop-color="#FFBF00"/>
<stop offset="1" stop-color="#E843C4"/>
</linearGradient>
<linearGradient id="paint2_linear_3887_38277" x1="33.9121" y1="37.5187" x2="33.9121" y2="18.002" gradientUnits="userSpaceOnUse">
<stop stop-color="#FFBF00"/>
<stop offset="1" stop-color="#E843C4"/>
</linearGradient>
<linearGradient id="paint3_linear_3887_38277" x1="38.5359" y1="48.0022" x2="38.5359" y2="37.0246" gradientUnits="userSpaceOnUse">
<stop stop-color="#FFBF00"/>
<stop offset="1" stop-color="#E843C4"/>
</linearGradient>
</defs>
</svg>
