<svg width="41" height="40" viewBox="0 0 41 40" fill="none" xmlns="http://www.w3.org/2000/svg">
<path fill-rule="evenodd" clip-rule="evenodd" d="M16.0753 7.68877H15.1065C14.8958 7.68877 14.6852 7.51611 14.6428 7.30007V5.44282C14.6428 5.18339 14.8535 5.01074 15.0642 5.01074H16.033C16.1594 4.57867 16.2857 4.18998 16.4964 3.84438L15.8223 3.15318C15.654 2.98054 15.654 2.72111 15.8223 2.54846L17.1282 1.20947C17.2965 1.03682 17.5495 1.03682 17.7179 1.20947L18.392 1.90067C18.7713 1.68463 19.1081 1.55507 19.5294 1.4255V0.43208C19.5294 0.172651 19.7401 0 19.9508 0H21.7621C22.0151 0 22.1834 0.21604 22.1834 0.43208V1.4255C22.6048 1.55507 22.9839 1.68463 23.3209 1.90067L24.0373 1.16608C24.2057 0.99343 24.4587 0.99343 24.627 1.16608L25.9328 2.50507C26.1012 2.67771 26.1012 2.93714 25.9328 3.10979L25.2588 3.80099C25.4694 4.18998 25.5958 4.53527 25.7222 4.96735H26.691C26.944 4.96735 27.1123 5.18339 27.1123 5.39943V7.25669C27.1123 7.51611 26.9017 7.68877 26.691 7.68877H25.7222C25.5958 8.12084 25.4694 8.50952 25.2588 8.85512L25.9328 9.54632C26.1012 9.71897 26.1012 9.9784 25.9328 10.151L24.627 11.49C24.4587 11.6627 24.2057 11.6627 24.0373 11.49L23.3632 10.7988C22.9839 11.0149 22.6048 11.1444 22.2257 11.274V12.2674C22.2257 12.5269 22.0151 12.6995 21.8044 12.6995H19.9931C19.7401 12.6995 19.5718 12.4835 19.5718 12.2674V11.274C19.1504 11.1444 18.7713 11.0149 18.4343 10.7988L17.7602 11.49C17.5919 11.6627 17.3389 11.6627 17.1705 11.49L15.8647 10.151C15.6963 9.9784 15.6963 9.71898 15.8647 9.54632L16.5387 8.85512C16.3281 8.46613 16.2017 8.07746 16.0753 7.68877ZM22.7312 6.34978C22.7312 5.31293 21.8887 4.44909 20.8776 4.44909C19.8665 4.44909 19.024 5.31301 19.024 6.34978C19.024 7.38663 19.8665 8.25046 20.8776 8.25046C21.8888 8.25046 22.7312 7.38655 22.7312 6.34978ZM6.00997 7.64497H7.73719L7.48448 11.7485C7.44246 12.3532 8.20057 12.5693 8.49556 12.0941L12.2027 5.83079C12.4134 5.4421 12.1607 4.96695 11.7393 4.96695H10.0121L10.2648 0.863448C10.3068 0.258725 9.54868 0.0426547 9.25369 0.517845L5.54657 6.78113C5.29387 7.16982 5.54657 7.64497 6.00997 7.64497ZM30.0206 7.64497H31.7478L31.4951 11.7485C31.4531 12.3532 32.2112 12.5693 32.5062 12.0941L36.2133 5.83079C36.424 5.4421 36.1713 4.96695 35.7499 4.96695H34.0227L34.2754 0.863448C34.3174 0.258725 33.5593 0.0426547 33.2643 0.517845L29.5572 6.78113C29.3045 7.16982 29.5572 7.64497 30.0206 7.64497ZM8.41104 25.1387C11.1332 25.1387 13.3399 22.8762 13.3399 20.0848C13.3399 17.2938 11.1332 15.0309 8.41104 15.0309C5.68914 15.0309 3.48237 17.2938 3.48237 20.0848C3.48237 22.8762 5.68914 25.1387 8.41104 25.1387ZM10.2211 26.5195H6.55626C3.94426 26.5195 1.71169 28.5497 1.37461 31.2278L0.869193 35.5907C0.784859 36.1523 1.16421 36.6706 1.66965 36.8002C3.81797 37.2753 6.05055 37.5345 8.36752 37.5345C9.29428 37.5345 10.2211 37.4914 11.1055 37.4049L11.5689 33.474C11.8216 31.4438 12.8328 29.6727 14.2649 28.4633C13.3385 27.2538 11.8639 26.5195 10.2211 26.5195L10.2211 26.5195ZM33.3482 25.1387C36.0701 25.1387 38.2769 22.8762 38.2769 20.0848C38.2769 17.2938 36.0701 15.0309 33.3482 15.0309C30.6261 15.0309 28.4193 17.2938 28.4193 20.0848C28.4193 22.8762 30.626 25.1387 33.3482 25.1387ZM40.3388 31.2278C40.0017 28.5497 37.8111 26.5195 35.1574 26.5195H31.4926C29.8497 26.5195 28.4175 27.2538 27.4484 28.4633C28.8806 29.6727 29.8917 31.4438 30.1024 33.474L30.5658 37.4049C31.4505 37.4914 32.377 37.5345 33.3038 37.5345C35.6627 37.5345 37.8954 37.2753 40.0016 36.8002C40.5493 36.6706 40.9284 36.1524 40.8441 35.5907L40.3388 31.2278ZM19.0244 29.0284H22.6892C25.3432 29.0284 27.5758 31.0586 27.9128 33.7366L28.4183 38.0993C28.4606 38.661 28.1235 39.1792 27.5758 39.3088C25.4695 39.7409 23.2369 40 20.8779 40C18.561 40 16.2863 39.784 14.1801 39.3088C13.6327 39.2223 13.2533 38.661 13.3376 38.0993L13.8431 33.7366C14.1378 31.0586 16.3704 29.0284 19.0244 29.0284ZM25.8082 22.6341C25.8082 25.4252 23.6017 27.688 20.8795 27.688C18.1573 27.688 15.9509 25.4252 15.9509 22.6341C15.9509 19.8427 18.1573 17.58 20.8795 17.58C23.6017 17.58 25.8082 19.8428 25.8082 22.6341Z" fill="url(#paint0_linear_3944_54537)"/>
<defs>
<linearGradient id="paint0_linear_3944_54537" x1="20.8518" y1="40.0081" x2="20.8518" y2="0.00406783" gradientUnits="userSpaceOnUse">
<stop stop-color="#FFBF00"/>
<stop offset="1" stop-color="#E843C4"/>
</linearGradient>
</defs>
</svg>
