<svg width="26" height="20" viewBox="0 0 26 20" fill="none" xmlns="http://www.w3.org/2000/svg">
<path d="M13.4199 11.7929C14.9142 11.7929 16.2669 11.1869 17.2462 10.2076C18.2244 9.22938 18.8304 7.87675 18.8304 6.38235C18.8304 4.88796 18.2244 3.53532 17.2462 2.55709C16.2669 1.57778 14.9142 0.971802 13.4199 0.971802C11.9255 0.971802 10.5728 1.57778 9.59351 2.55709C8.61528 3.53532 8.0093 4.88796 8.0093 6.38235C8.0093 7.87675 8.61528 9.22938 9.59351 10.2076C10.0954 10.7109 10.6918 11.1101 11.3485 11.3821C12.0051 11.6542 12.7091 11.7938 13.4199 11.7929ZM22.0767 12.875C22.4322 12.8757 22.7843 12.8062 23.1128 12.6705C23.4414 12.5348 23.7399 12.3356 23.9912 12.0842C24.2426 11.8329 24.4418 11.5344 24.5775 11.2058C24.7132 10.8773 24.7827 10.5252 24.782 10.1697C24.782 9.42308 24.4801 8.74676 23.9899 8.25657C23.7389 8.00499 23.4407 7.8055 23.1124 7.66956C22.784 7.53363 22.4321 7.46392 22.0767 7.46446C21.7213 7.46375 21.3692 7.53324 21.0406 7.66894C20.7121 7.80464 20.4136 8.00388 20.1622 8.25523C19.9109 8.50658 19.7116 8.80509 19.5759 9.13363C19.4402 9.46217 19.3707 9.81428 19.3715 10.1697C19.3709 10.5252 19.4405 10.8772 19.5762 11.2057C19.712 11.5342 19.9112 11.8326 20.1625 12.0839C20.4139 12.3352 20.7123 12.5345 21.0408 12.6702C21.3693 12.806 21.7213 12.8756 22.0767 12.875ZM22.0767 13.5135C20.6364 13.5135 19.5533 13.9528 18.9202 14.5609C17.7137 13.5686 15.8059 12.875 13.4199 12.875C10.9678 12.875 9.09682 13.5762 7.90975 14.5674C7.26481 13.956 6.16971 13.5135 4.76297 13.5135C2.39531 13.5135 0.975586 14.693 0.975586 15.8746C0.975586 16.4644 2.39531 17.0563 4.76297 17.0563C5.41657 17.0563 6.00307 17.0011 6.51924 16.9124L6.47595 17.2045C6.47595 18.2866 9.07951 19.3688 13.4199 19.3688C17.4908 19.3688 20.3638 18.2866 20.3638 17.2045L20.3421 16.9286C20.8431 17.0076 21.4188 17.0563 22.0767 17.0563C24.2961 17.0563 25.8641 16.4644 25.8641 15.8746C25.8641 14.693 24.3784 13.5135 22.0767 13.5135ZM4.76297 12.875C5.50963 12.875 6.18595 12.5731 6.67614 12.0829C6.92772 11.8319 7.12721 11.5337 7.26315 11.2054C7.39908 10.8771 7.46879 10.5251 7.46825 10.1697C7.46896 9.81428 7.39947 9.46217 7.26377 9.13363C7.12807 8.80509 6.92883 8.50658 6.67748 8.25523C6.42613 8.00388 6.12762 7.80464 5.79908 7.66894C5.47054 7.53324 5.11843 7.46375 4.76297 7.46446C4.40755 7.46389 4.05551 7.53348 3.72703 7.66923C3.39856 7.80498 3.1001 8.00423 2.84878 8.25555C2.59746 8.50687 2.39821 8.80532 2.26246 9.1338C2.12671 9.46228 2.05713 9.81432 2.0577 10.1697C2.05698 10.5252 2.12647 10.8773 2.26217 11.2058C2.39787 11.5344 2.59711 11.8329 2.84846 12.0842C3.09981 12.3356 3.39832 12.5348 3.72686 12.6705C4.05541 12.8062 4.40751 12.8757 4.76297 12.875Z" fill="url(#paint0_linear_5582_16101)"/>
<defs>
<linearGradient id="paint0_linear_5582_16101" x1="13.4199" y1="0.971802" x2="13.4199" y2="19.3688" gradientUnits="userSpaceOnUse">
<stop stop-color="#FFBF00"/>
<stop offset="1" stop-color="#E843C4"/>
</linearGradient>
</defs>
</svg>
