<svg width="20" height="18" viewBox="0 0 20 18" fill="none" xmlns="http://www.w3.org/2000/svg">
<path fill-rule="evenodd" clip-rule="evenodd" d="M6.09686 2.47815C5.96013 2.52371 5.83994 2.60022 5.74536 2.78932C5.55211 3.1757 4.62976 5.32561 3.73569 7.42866C3.59172 7.7673 3.44913 8.1032 3.31127 8.42829C3.72392 8.30912 4.15212 8.24828 4.58333 8.24828C5.65216 8.24828 6.6825 8.6215 7.5 9.29574V3.24984C7.5 2.93644 7.44138 2.7642 7.39452 2.67544C7.35092 2.59284 7.29969 2.54776 7.2428 2.51527C7.09242 2.42936 6.88639 2.41676 6.66667 2.41676C6.45184 2.41676 6.26568 2.42189 6.09686 2.47815ZM7.09588 11.3494C6.97198 11.1393 6.82118 10.9438 6.64573 10.7684C6.09875 10.2216 5.35688 9.91443 4.58333 9.91443C4.20031 9.91443 3.82104 9.98985 3.46717 10.1364C3.20029 10.2469 2.95179 10.3962 2.72957 10.5791L7.09588 11.3494ZM0.18094 11.5555C0.227944 11.3933 0.283976 11.2334 0.348886 11.0768C0.420729 10.9034 0.503009 10.7349 0.595139 10.5723L0.626175 10.4987C0.718195 10.2805 0.850103 9.96795 1.00969 9.59027C1.32884 8.83496 1.75878 7.81905 2.20181 6.77696C3.07857 4.71463 4.03122 2.4909 4.25464 2.0442C4.9039 0.746089 6.2196 0.749484 6.63507 0.750556C6.64627 0.750585 6.65681 0.750612 6.66667 0.750612C6.67319 0.750612 6.68018 0.750598 6.68763 0.750583C6.9051 0.750154 7.51007 0.748958 8.0697 1.06864C8.7372 1.44996 9.16667 2.17121 9.16667 3.24984V4.08291H10.8333V3.24984C10.8333 2.17121 11.2628 1.44996 11.9303 1.06864C12.4899 0.748958 13.0949 0.750154 13.3124 0.750583C13.3198 0.750598 13.3268 0.750612 13.3333 0.750612C13.3432 0.750612 13.3537 0.750585 13.3649 0.750556C13.7804 0.749484 15.0961 0.746089 15.7454 2.0442C15.9688 2.4909 16.9214 4.71463 17.7982 6.77696C18.2412 7.81905 18.6712 8.83496 18.9903 9.59027C19.1499 9.96795 19.2818 10.2805 19.3738 10.4987L19.4049 10.5723C19.497 10.7349 19.5793 10.9034 19.6511 11.0768C19.716 11.2334 19.7721 11.3933 19.8191 11.5555L19.9233 11.803L19.8849 11.8098C19.9612 12.1437 20 12.486 20 12.8302C20 13.4319 19.8814 14.0277 19.6511 14.5836C19.4208 15.1395 19.0832 15.6446 18.6576 16.0701C18.232 16.4956 17.7267 16.8331 17.1706 17.0633C16.6146 17.2936 16.0186 17.4121 15.4167 17.4121C14.2011 17.4121 13.0353 16.9294 12.1758 16.0701C11.4518 15.3463 10.995 14.4053 10.8689 13.4003L10.8333 13.4066V13.2467H9.16667V13.4066L9.13106 13.4003C9.00501 14.4053 8.54824 15.3463 7.82424 16.0701C6.9647 16.9294 5.79891 17.4121 4.58333 17.4121C3.98144 17.4121 3.38544 17.2936 2.82937 17.0633C2.27329 16.8331 1.76803 16.4956 1.34243 16.0701C0.916826 15.6446 0.57922 15.1395 0.348886 14.5836C0.118551 14.0277 0 13.4319 0 12.8302C0 12.486 0.0387912 12.1437 0.115107 11.8098L0.0766923 11.803L0.18094 11.5555ZM1.75963 12.0999C1.69804 12.3379 1.66667 12.5833 1.66667 12.8302C1.66667 13.2131 1.74211 13.5923 1.88868 13.946C2.03526 14.2998 2.2501 14.6212 2.52094 14.892C2.79178 15.1627 3.11331 15.3775 3.46717 15.524C3.82104 15.6705 4.20031 15.746 4.58333 15.746C5.35688 15.746 6.09875 15.4388 6.64573 14.892C7.12629 14.4115 7.42184 13.7807 7.48653 13.1102L1.75963 12.0999ZM9.16667 11.5806H10.8333V5.74906H9.16667V11.5806ZM12.5135 13.1102C12.5782 13.7807 12.8737 14.4115 13.3543 14.892C13.9013 15.4388 14.6431 15.746 15.4167 15.746C15.7997 15.746 16.179 15.6705 16.5328 15.524C16.8867 15.3775 17.2082 15.1627 17.4791 14.892C17.7499 14.6212 17.9647 14.2998 18.1113 13.946C18.2579 13.5923 18.3333 13.2131 18.3333 12.8302C18.3333 12.5833 18.302 12.3379 18.2404 12.0999L12.5135 13.1102ZM17.2704 10.5791C17.0482 10.3962 16.7997 10.2469 16.5328 10.1364C16.179 9.98985 15.7997 9.91443 15.4167 9.91443C14.6431 9.91443 13.9013 10.2216 13.3543 10.7684C13.1788 10.9438 13.028 11.1393 12.9041 11.3494L17.2704 10.5791ZM16.6887 8.4283C16.2761 8.30912 15.8479 8.24828 15.4167 8.24828C14.3478 8.24828 13.3175 8.6215 12.5 9.29574V3.24984C12.5 2.93644 12.5586 2.7642 12.6055 2.67544C12.6491 2.59284 12.7003 2.54776 12.7572 2.51527C12.9076 2.42936 13.1136 2.41676 13.3333 2.41676C13.5482 2.41676 13.7343 2.42189 13.9031 2.47815C14.0399 2.52371 14.1601 2.60022 14.2546 2.78932C14.4479 3.1757 15.3702 5.32561 16.2643 7.42866C16.4083 7.7673 16.5509 8.10321 16.6887 8.4283Z" fill="url(#paint0_linear_5582_16178)"/>
<defs>
<linearGradient id="paint0_linear_5582_16178" x1="10" y1="0.750488" x2="10" y2="17.4121" gradientUnits="userSpaceOnUse">
<stop stop-color="#FFBF00"/>
<stop offset="1" stop-color="#E843C4"/>
</linearGradient>
</defs>
</svg>
