<svg width="29" height="29" viewBox="0 0 29 29" fill="none" xmlns="http://www.w3.org/2000/svg">
<path d="M28.9455 11.6869C29.0816 -0.260689 11.9242 -3.23782 8.095 8.0332C6.00863 8.78282 4.2039 10.1668 2.92937 11.9944C1.65485 13.8221 0.973219 16.0035 0.978359 18.2383C0.84102 30.1834 18.0009 33.1643 21.8289 21.892C23.9152 21.1424 25.72 19.7585 26.9945 17.9308C28.269 16.1032 28.9506 13.9217 28.9455 11.6869ZM9.54953 8.91512C10.7038 8.64259 11.8984 8.59046 13.0717 8.76142L8.8179 13.0539C8.62728 11.7117 8.72133 10.3439 9.09382 9.04111C9.2424 8.99198 9.39471 8.95292 9.54953 8.91512ZM15.0131 9.25907C16.0974 9.66502 17.0993 10.267 17.9697 11.0355L11.0715 17.9965C10.1939 16.9832 9.53633 15.7956 9.14125 14.5103L14.5099 9.09276C14.6822 9.1419 14.8483 9.1986 15.0131 9.26033V9.25907ZM19.4979 12.7603C20.0588 13.5701 20.4922 14.4626 20.7826 15.4061L15.4139 20.8237C14.1402 20.425 12.9633 19.7615 11.9592 18.8759L18.8573 11.9149C19.0858 12.1853 19.2996 12.468 19.4979 12.7616V12.7603ZM21.1971 18.5949C21.1661 19.3701 21.0429 20.1387 20.83 20.8841C19.537 21.2587 18.18 21.3523 16.8485 21.1588L21.1022 16.8663C21.1865 17.4388 21.2182 18.0178 21.1971 18.5962V18.5949ZM22.2471 20.3525C23.8702 13.006 16.8984 5.96948 9.61945 7.60986C18.4478 -7.40304 37.1184 11.4601 22.2471 20.3537V20.3525Z" fill="url(#paint0_linear_5582_16089)"/>
<defs>
<linearGradient id="paint0_linear_5582_16089" x1="14.9619" y1="0.977417" x2="14.9619" y2="28.9476" gradientUnits="userSpaceOnUse">
<stop stop-color="#FFBF00"/>
<stop offset="1" stop-color="#E843C4"/>
</linearGradient>
</defs>
</svg>
