<svg width="68" height="68" viewBox="0 0 68 68" fill="none" xmlns="http://www.w3.org/2000/svg">
<g filter="url(#filter0_b_3880_38806)">
<rect width="68" height="68" rx="34" fill="#211426" fill-opacity="0.33"/>
<rect x="0.5" y="0.5" width="67" height="67" rx="33.5" stroke="url(#paint0_linear_3880_38806)" stroke-opacity="0.2"/>
</g>
<path d="M47.9455 30.686C48.0816 18.7385 30.9242 15.7613 27.095 27.0323C25.0086 27.782 23.2039 29.1659 21.9294 30.9936C20.6548 32.8212 19.9732 35.0027 19.9784 37.2375C19.841 49.1826 37.0009 52.1635 40.8289 40.8912C42.9152 40.1416 44.72 38.7576 45.9945 36.93C47.269 35.1023 47.9506 32.9209 47.9455 30.686ZM28.5495 27.9143C29.7038 27.6417 30.8984 27.5896 32.0717 27.7606L27.8179 32.053C27.6273 30.7108 27.7213 29.343 28.0938 28.0403C28.2424 27.9911 28.3947 27.9521 28.5495 27.9143ZM34.0131 28.2582C35.0974 28.6642 36.0993 29.2662 36.9697 30.0347L30.0715 36.9956C29.1939 35.9823 28.5363 34.7948 28.1413 33.5095L33.5099 28.0919C33.6822 28.141 33.8483 28.1977 34.0131 28.2595V28.2582ZM38.4979 31.7595C39.0588 32.5692 39.4922 33.4617 39.7826 34.4052L34.4139 39.8228C33.1402 39.4241 31.9633 38.7606 30.9592 37.875L37.8573 30.9141C38.0858 31.1845 38.2996 31.4671 38.4979 31.7607V31.7595ZM40.1971 37.5941C40.1661 38.3692 40.0429 39.1378 39.83 39.8833C38.537 40.2579 37.18 40.3515 35.8485 40.1579L40.1022 35.8655C40.1865 36.4379 40.2182 37.017 40.1971 37.5953V37.5941ZM41.2471 39.3516C42.8702 32.0052 35.8984 24.9686 28.6195 26.609C37.4478 11.5961 56.1184 30.4593 41.2471 39.3529V39.3516Z" fill="url(#paint1_linear_3880_38806)"/>
<defs>
<filter id="filter0_b_3880_38806" x="-114" y="-114" width="296" height="296" filterUnits="userSpaceOnUse" color-interpolation-filters="sRGB">
<feFlood flood-opacity="0" result="BackgroundImageFix"/>
<feGaussianBlur in="BackgroundImage" stdDeviation="57"/>
<feComposite in2="SourceAlpha" operator="in" result="effect1_backgroundBlur_3880_38806"/>
<feBlend mode="normal" in="SourceGraphic" in2="effect1_backgroundBlur_3880_38806" result="shape"/>
</filter>
<linearGradient id="paint0_linear_3880_38806" x1="34" y1="0" x2="34" y2="68" gradientUnits="userSpaceOnUse">
<stop stop-color="#E843C4"/>
<stop offset="1" stop-color="#FFBF00"/>
</linearGradient>
<linearGradient id="paint1_linear_3880_38806" x1="33.9619" y1="19.9766" x2="33.9619" y2="47.9467" gradientUnits="userSpaceOnUse">
<stop stop-color="#FFBF00"/>
<stop offset="1" stop-color="#E843C4"/>
</linearGradient>
</defs>
</svg>
