<svg width="52" height="45" viewBox="0 0 52 45" fill="none" xmlns="http://www.w3.org/2000/svg">
<path fill-rule="evenodd" clip-rule="evenodd" d="M32.7424 19.1999H36.8C37.2243 19.1999 37.6313 19.3685 37.9314 19.6685C38.2314 19.9686 38.4 20.3756 38.4 20.7999C38.4 21.2243 38.2314 21.6312 37.9314 21.9313C37.6313 22.2313 37.2243 22.3999 36.8 22.3999H14.4C13.9756 22.3999 13.5687 22.2313 13.2686 21.9313C12.9686 21.6312 12.8 21.2243 12.8 20.7999C12.8 20.3756 12.9686 19.9686 13.2686 19.6685C13.5687 19.3685 13.9756 19.1999 14.4 19.1999H16.8224C16.3695 18.6975 16.0875 18.0646 16.0168 17.3919C15.9461 16.7193 16.0903 16.0415 16.4288 15.4559L24.4288 1.59991C24.8532 0.864958 25.5521 0.328676 26.3718 0.109035C27.1916 -0.110606 28.065 0.00438457 28.8 0.428712L37.1136 5.22871C37.8485 5.65307 38.3848 6.352 38.6045 7.17176C38.8241 7.99151 38.7091 8.86494 38.2848 9.59991L32.7424 19.1999ZM35.5136 7.99991L27.2 3.19991L19.2 17.0559L22.912 19.1999H29.0496L35.5136 7.99991ZM38.272 16L40.1184 12.8C40.595 12.8179 41.0617 12.9421 41.4841 13.1636C41.9065 13.3851 42.2741 13.6982 42.56 14.08L50.56 24.7456C50.9754 25.2995 51.2 25.9732 51.2 26.6656V41.6C51.2 42.4487 50.8629 43.2626 50.2627 43.8627C49.6626 44.4629 48.8487 44.8 48 44.8H3.2C2.35131 44.8 1.53737 44.4629 0.937258 43.8627C0.337142 43.2626 0 42.4487 0 41.6L0 26.6656C0 25.9732 0.224569 25.2995 0.64 24.7456L8.64 14.08C8.93807 13.6826 9.32458 13.36 9.76892 13.1378C10.2133 12.9157 10.7032 12.8 11.2 12.8H14.2848L12.7488 15.456C12.6464 15.632 12.5632 15.8144 12.4992 16H11.2L4 25.6H47.2L40 16H38.272Z" fill="url(#paint0_linear_7219_13531)"/>
<defs>
<linearGradient id="paint0_linear_7219_13531" x1="25.6" y1="12.8" x2="25.6" y2="44.8001" gradientUnits="userSpaceOnUse">
<stop stop-color="#E843C4"/>
<stop offset="1" stop-color="#FFBF00"/>
</linearGradient>
</defs>
</svg>
