<svg width="49" height="40" viewBox="0 0 49 40" fill="none" xmlns="http://www.w3.org/2000/svg">
<g clip-path="url(#clip0_3944_54499)">
<path fill-rule="evenodd" clip-rule="evenodd" d="M21.5051 29.2814C21.5051 35.2343 16.6796 40.0598 10.7267 40.0598C4.77375 40.0598 -0.0517578 35.2343 -0.0517578 29.2814C-0.0517578 23.3284 4.77375 18.5029 10.7267 18.5029C16.6796 18.5029 21.5051 23.3284 21.5051 29.2814ZM15.9577 30.049C14.8324 31.1743 13.2163 31.5237 11.7479 31.1086L10.4357 32.4354C10.4279 32.4432 10.4177 32.448 10.4067 32.4491L9.33621 32.5563C9.31387 32.5586 9.29614 32.5761 9.29366 32.5984L9.18957 33.5353C9.18707 33.5577 9.1691 33.5753 9.14658 33.5774L7.9896 33.6826C7.96509 33.6848 7.94633 33.7053 7.94633 33.73V34.5467C7.94632 34.5702 7.92917 34.5902 7.90594 34.5937L6.85996 34.7538C6.83672 34.7574 6.81957 34.7774 6.81957 34.8009L6.81957 35.441C6.81957 35.4673 6.79826 35.4886 6.77198 35.4886H4.61457C4.58829 35.4886 4.56698 35.4673 4.56698 35.441V33.606L4.61374 32.5746C4.61427 32.5629 4.618 32.553 4.62625 32.5447C4.82572 32.3453 7.52442 29.6361 8.74454 28.4111C8.10434 26.8287 8.39921 24.9818 9.64488 23.7361C11.3259 22.0551 14.1018 22.1056 15.845 23.8488C17.5883 25.5921 17.6387 28.368 15.9577 30.049ZM13.8095 25.8765C14.183 26.25 14.7887 26.25 15.1622 25.8765C15.5358 25.5029 15.5358 24.8973 15.1622 24.5237C14.7887 24.1501 14.183 24.1501 13.8095 24.5237C13.4359 24.8973 13.4359 25.5029 13.8095 25.8765Z" fill="url(#paint0_linear_3944_54499)"/>
</g>
<path fill-rule="evenodd" clip-rule="evenodd" d="M48.5519 10.1078C48.5519 3.77175 47.2249 0 39.9733 0L14.8543 0.0703515C7.60269 0.0703515 6.5 2.44635 6.5 8.70155V16.7112C7.53237 16.4707 8.60827 16.3436 9.71387 16.3436C17.5068 16.3436 23.8238 22.6606 23.8238 30.4535C23.8238 31.5499 23.6988 32.6171 23.4622 33.6415H39.9733C47.2249 33.6415 48.5519 29.9401 48.5519 23.6849V23.103H39.6556C35.5268 23.103 32.1797 20.2084 32.1797 16.6377C32.1797 13.067 35.5268 10.1724 39.6556 10.1724V10.1078H48.5519ZM48.5519 14.2456C48.5519 13.4957 47.849 12.8878 46.982 12.8878H39.6556C38.3698 12.9021 37.157 13.4072 36.3423 14.2676C35.5276 15.1281 35.1943 16.2559 35.4317 17.3489C35.9058 19.1096 37.7336 20.3473 39.8238 20.323H46.982C47.8448 20.3142 48.5418 19.7114 48.5519 18.9652V14.2456ZM39.9733 15.0699H40.6648C41.5525 15.0699 42.2721 15.6922 42.2721 16.4599C42.2721 17.2276 41.5525 17.85 40.6648 17.85H39.9733C39.0826 17.8411 38.3659 17.2141 38.366 16.4438C38.366 16.0766 38.5359 15.7247 38.8379 15.4665C39.1399 15.2084 39.5487 15.0656 39.9733 15.0699ZM16.4616 7.32767H28.3296C29.2173 7.32767 29.9369 7.95001 29.9369 8.71771C29.9369 9.48541 29.2173 10.1078 28.3296 10.1078H16.4616C15.5709 10.0989 14.8543 9.47191 14.8543 8.70155C14.8645 7.94017 15.5812 7.32762 16.4616 7.32767Z" fill="url(#paint1_linear_3944_54499)"/>
<defs>
<linearGradient id="paint0_linear_3944_54499" x1="10.7241" y1="40.0642" x2="10.7241" y2="18.5051" gradientUnits="userSpaceOnUse">
<stop stop-color="#FFBF00"/>
<stop offset="1" stop-color="#E843C4"/>
</linearGradient>
<linearGradient id="paint1_linear_3944_54499" x1="27.5208" y1="33.6483" x2="27.5208" y2="0.0034212" gradientUnits="userSpaceOnUse">
<stop stop-color="#FFBF00"/>
<stop offset="1" stop-color="#E843C4"/>
</linearGradient>
<clipPath id="clip0_3944_54499">
<rect width="24.7436" height="24.5185" fill="white" transform="translate(0 15.4814)"/>
</clipPath>
</defs>
</svg>
