<svg width="18" height="18" viewBox="0 0 18 18" fill="none" xmlns="http://www.w3.org/2000/svg">
<path d="M13.3658 12.337C11.809 14.3009 9.11802 14.9583 6.83104 13.9333L3.26953 14.7482L6.89519 14.3199C9.29876 15.7279 12.3762 15.1084 14.0478 12.8801C15.7193 10.6518 15.453 7.52392 13.4287 5.61035C14.9485 7.60307 14.9226 10.373 13.3658 12.337Z" fill="#FCFCFC"/>
<path d="M4.26221 11.5558C3.03054 9.28075 3.55732 6.4543 5.52585 4.77573C7.49437 3.09715 10.3685 3.02356 12.4204 4.59921C10.4521 2.52673 7.22171 2.31464 4.9994 4.11199C2.77708 5.90935 2.30899 9.1127 3.92409 11.4708L3.27213 14.7479L4.26221 11.5558Z" fill="#FCFCFC"/>
<path fill-rule="evenodd" clip-rule="evenodd" d="M0 8.84308C0 3.95858 4.14913 0 9.077 0C13.9996 0 18 4.11463 18 8.9974C18 13.8802 14.0031 17.9913 9.07525 17.9913L0 18V8.84308ZM4.26161 11.5157L3.26997 14.7056L3.27122 14.7027L3.27009 14.7063L3.27002 14.7064L3.27009 14.7063L3.27002 14.7066L6.83153 13.902C7.26665 14.0981 7.71788 14.2335 8.17421 14.3102C10.3537 14.6792 12.6069 13.696 13.7893 11.7194C14.9701 9.7454 14.7728 7.29899 13.4218 5.55362C11.6822 3.28584 8.49044 2.73492 6.09078 4.29114C3.717 5.83057 2.90966 8.91877 4.21001 11.418C4.22686 11.4507 4.24406 11.4833 4.26161 11.5157Z" fill="#FCFCFC"/>
</svg>
