<svg width="24" height="24" viewBox="0 0 24 14" fill="none" xmlns="http://www.w3.org/2000/svg">
<path d="M13.3566 6.65979C13.3566 10.3375 10.3671 13.3196 6.67754 13.3196C5.8018 13.3207 4.9344 13.1494 4.12488 12.8153C3.31535 12.4813 2.57955 11.9911 1.95948 11.3726C1.33942 10.7542 0.847227 10.0197 0.511018 9.2111C0.174809 8.40246 0.00116532 7.53553 0 6.65979C0 2.98063 2.9895 8.05669e-06 6.67754 8.05669e-06C7.55341 -0.00135336 8.42096 0.169838 9.23066 0.503805C10.0404 0.837771 10.7763 1.32797 11.3966 1.94641C12.0168 2.56485 12.5091 3.29941 12.8454 4.10814C13.1817 4.91686 13.3554 5.78392 13.3566 6.65979V6.65979ZM20.6823 6.65979C20.6823 10.1229 19.1876 12.9289 17.3435 12.9289C15.4995 12.9289 14.0048 10.1214 14.0048 6.65979C14.0048 3.1967 15.4995 0.390715 17.3435 0.390715C19.1876 0.390715 20.6823 3.19818 20.6823 6.65979ZM23.6792 6.65979C23.6792 9.76177 23.1538 12.2762 22.5041 12.2762C21.8559 12.2762 21.3305 9.76029 21.3305 6.65979C21.3305 3.55781 21.8559 1.04337 22.5056 1.04337C23.1538 1.04337 23.6792 3.55781 23.6792 6.65979Z" fill="white"/>
</svg>
