<svg width="16" height="16" viewBox="0 0 16 16" fill="none" xmlns="http://www.w3.org/2000/svg">
<path fill-rule="evenodd" clip-rule="evenodd" d="M7.12767 13.437C7.41245 13.4785 7.70372 13.5 8 13.5C8.2939 13.5 8.58286 13.4789 8.86545 13.438C10.8159 13.1563 12.4628 11.9363 13.3339 10.2504H13.4016V10.1153C13.785 9.32481 14 8.43751 14 7.5C14 6.56249 13.785 5.67519 13.4016 4.88475V4.74961H13.3339C12.4666 3.07106 10.8302 1.85437 8.89092 1.56569C8.60023 1.52242 8.30273 1.5 8 1.5C7.69931 1.5 7.40377 1.52212 7.11495 1.56482C5.17307 1.85192 3.53427 3.06936 2.66611 4.74961H2.60156V4.87831C2.21619 5.67038 2 6.55994 2 7.5C2 8.44006 2.21619 9.32962 2.60156 10.1217V10.2504H2.66611C3.53617 11.9343 5.18023 13.1534 7.12767 13.437ZM3.11119 5.44961C2.84635 6.08032 2.7 6.77307 2.7 7.5C2.7 8.22693 2.84635 8.91968 3.11119 9.55039H5.06372C4.9419 8.86146 4.88671 8.14051 4.89487 7.42481C4.90246 6.7578 4.96515 6.08938 5.0828 5.44961H3.11119ZM5.96164 4.74961C6.05409 4.41986 6.16353 4.10608 6.28945 3.81405C6.58344 3.13222 6.95609 2.5927 7.39254 2.23443C7.59188 2.21169 7.79458 2.2 8 2.2C8.20878 2.2 8.41474 2.21207 8.61722 2.23556C9.07075 2.59745 9.45826 3.13824 9.76455 3.81668C9.89607 4.10802 10.0107 4.4209 10.1078 4.74961H5.96164ZM5.79539 5.44961H10.2834C10.4131 6.07041 10.4855 6.72911 10.497 7.39323C10.5097 8.12814 10.4476 8.86179 10.3098 9.55039H5.77539C5.64681 8.8747 5.58659 8.15489 5.59482 7.43278C5.60254 6.75537 5.67041 6.08277 5.79539 5.44961ZM10.9974 5.44961C11.1189 6.07532 11.1856 6.72843 11.1969 7.38115C11.2095 8.11077 11.1529 8.84685 11.0226 9.55039H12.8888C13.1537 8.91968 13.3 8.22693 13.3 7.5C13.3 6.77307 13.1537 6.08032 12.8888 5.44961H10.9974ZM12.5314 4.74961C11.9137 3.73409 10.9642 2.94262 9.83347 2.5257C10.0506 2.83046 10.2401 3.16882 10.4025 3.52865C10.5745 3.90943 10.7188 4.31981 10.8353 4.74961H12.5314ZM5.23677 4.74961H3.4686C4.09387 3.72166 5.05907 2.92328 6.20813 2.51056C5.99238 2.82171 5.80556 3.16836 5.64666 3.53688C5.48354 3.91518 5.3469 4.32278 5.23677 4.74961ZM12.5314 10.2504H10.8653C10.7684 10.6138 10.6498 10.9641 10.5089 11.2952C10.3287 11.7185 10.1098 12.115 9.84995 12.4682C10.9734 12.0497 11.9167 11.261 12.5314 10.2504ZM9.86482 11.0211C9.96895 10.7764 10.0602 10.5185 10.1385 10.2504H5.93788C6.01856 10.5417 6.11344 10.8207 6.22249 11.0836C6.52108 11.8033 6.91632 12.3806 7.40031 12.7664C7.59714 12.7886 7.79724 12.8 8 12.8C8.20229 12.8 8.40193 12.7887 8.59832 12.7666C9.12726 12.3597 9.55077 11.7589 9.86482 11.0211ZM6.1909 12.4832C5.04942 12.0687 4.09074 11.2732 3.4686 10.2504H5.2137C5.31137 10.6351 5.4319 11.0047 5.57593 11.3518C5.74517 11.7597 5.94944 12.1423 6.1909 12.4832Z" fill="#FCFCFC"/>
</svg>
