<svg width="56" height="56" viewBox="0 0 56 56" fill="none" xmlns="http://www.w3.org/2000/svg">
<path opacity="0.1" fill-rule="evenodd" clip-rule="evenodd" d="M0 28C0 12.536 12.536 0 28 0C43.464 0 56 12.536 56 28C56 43.464 43.464 56 28 56C12.536 56 0 43.464 0 28Z" fill="white"/>
<path fill-rule="evenodd" clip-rule="evenodd" d="M33.2774 11.4497C33.2774 11.2014 33.076 11 32.8276 11H22.9358C22.6874 11 22.486 11.2014 22.486 11.4497V27.1663C22.486 27.4146 22.2847 27.616 22.0363 27.616H16.3061C15.9022 27.616 15.7031 28.107 15.9928 28.3884L27.5673 39.6268C27.7418 39.7962 28.0194 39.7962 28.1939 39.6268L39.7684 28.3884C40.0581 28.107 39.8589 27.616 39.4551 27.616H33.7271C33.4787 27.616 33.2774 27.4146 33.2774 27.1663V11.4497Z" fill="white"/>
<path d="M15.8555 44.3008H40.1412" stroke="white" stroke-width="1.41667" stroke-linecap="round"/>
</svg>
