<svg width="56" height="56" viewBox="0 0 56 56" fill="none" xmlns="http://www.w3.org/2000/svg">
<path opacity="0.1" fill-rule="evenodd" clip-rule="evenodd" d="M0 28C0 12.536 12.536 0 28 0C43.464 0 56 12.536 56 28C56 43.464 43.464 56 28 56C12.536 56 0 43.464 0 28Z" fill="white"/>
<path fill-rule="evenodd" clip-rule="evenodd" d="M36.7127 41.7451H42.8724L42.875 30.9374C42.875 25.6316 41.7239 21.5532 35.4808 21.5532C34.3094 21.51 33.1482 21.7832 32.1208 22.3436C31.0934 22.904 30.2382 23.7307 29.6464 24.7356H29.5636V22.0433H23.6503V41.7445H29.81V31.9984C29.81 29.4284 30.3009 26.9393 33.5091 26.9393C36.6717 26.9393 36.7127 29.8802 36.7127 32.1647V41.7451ZM14.7141 18.7523C15.302 19.1423 15.9932 19.3504 16.7002 19.3502C17.1696 19.3502 17.6344 19.2582 18.068 19.0798C18.5017 18.9013 18.8957 18.6397 19.2276 18.31C19.5595 17.9803 19.8227 17.5889 20.0022 17.1581C20.1818 16.7274 20.2742 16.2657 20.2741 15.7995C20.274 15.0973 20.0642 14.411 19.6713 13.8273C19.2784 13.2435 18.7201 12.7886 18.0669 12.52C17.4137 12.2514 16.6949 12.1812 16.0016 12.3183C15.3082 12.4554 14.6713 12.7937 14.1715 13.2903C13.6717 13.7868 13.3314 14.4195 13.1936 15.1082C13.0558 15.7968 13.1267 16.5106 13.3974 17.1593C13.668 17.8079 14.1262 18.3623 14.7141 18.7523ZM13.6139 41.7451H19.78V22.0433H13.6139V41.7451Z" fill="#FCFCFC"/>
</svg>
