<svg width="57" height="56" viewBox="0 0 57 56" fill="none" xmlns="http://www.w3.org/2000/svg">
<path opacity="0.1" fill-rule="evenodd" clip-rule="evenodd" d="M0.5 28C0.5 12.536 13.036 0 28.5 0C43.964 0 56.5 12.536 56.5 28C56.5 43.464 43.964 56 28.5 56C13.036 56 0.5 43.464 0.5 28Z" fill="white"/>
<path d="M46.7267 28.1273C46.7267 25.9259 44.9465 24.1777 42.7771 24.1777C41.709 24.1777 40.7375 24.5983 40.0254 25.2784C37.3063 23.3359 33.583 22.0735 29.4391 21.9118L31.2519 13.4297L37.1439 14.6921C37.2091 16.1814 38.4389 17.3793 39.9608 17.3793C41.5147 17.3793 42.7771 16.1169 42.7771 14.5624C42.7771 13.0085 41.5147 11.7461 39.9608 11.7461C38.8602 11.7461 37.8886 12.3936 37.4354 13.3326L30.8639 11.9404C30.6695 11.9078 30.4752 11.9404 30.3455 12.0376C30.1838 12.1347 30.0866 12.2964 30.0546 12.4907L28.047 21.9438C23.8385 22.0735 20.0507 23.3359 17.2989 25.311C16.5869 24.6309 15.6153 24.2103 14.5472 24.2103C12.3458 24.2103 10.5977 25.9905 10.5977 28.1599C10.5977 29.7783 11.5686 31.1379 12.9288 31.7534C12.8636 32.1414 12.8316 32.5301 12.8316 32.9513C12.8316 39.037 19.9215 43.9907 28.6625 43.9907C37.4034 43.9907 44.4933 39.0696 44.4933 32.9513C44.4933 32.5626 44.4608 32.1414 44.3962 31.7534C45.7558 31.1379 46.7267 29.7457 46.7267 28.1273ZM19.5975 30.9436C19.5975 29.3897 20.8599 28.1273 22.4144 28.1273C23.9683 28.1273 25.2307 29.3897 25.2307 30.9436C25.2307 32.4975 23.9683 33.7605 22.4144 33.7605C20.8599 33.7925 19.5975 32.4975 19.5975 30.9436ZM35.3638 38.4221C33.4213 40.3646 29.7306 40.4944 28.6625 40.4944C27.5618 40.4944 23.8711 40.332 21.9606 38.4221C21.6697 38.1307 21.6697 37.6775 21.9606 37.386C22.2521 37.0951 22.7052 37.0951 22.9967 37.386C24.2271 38.6164 26.8171 39.037 28.6625 39.037C30.5078 39.037 33.1298 38.6164 34.3277 37.386C34.6191 37.0951 35.0723 37.0951 35.3638 37.386C35.6227 37.6775 35.6227 38.1307 35.3638 38.4221ZM34.8454 33.7925C33.2915 33.7925 32.0291 32.5301 32.0291 30.9762C32.0291 29.4223 33.2915 28.1599 34.8454 28.1599C36.3999 28.1599 37.6623 29.4223 37.6623 30.9762C37.6623 32.4975 36.3999 33.7925 34.8454 33.7925Z" fill="white"/>
</svg>
