<svg width="56" height="56" viewBox="0 0 56 56" fill="none" xmlns="http://www.w3.org/2000/svg">
<path opacity="0.1" fill-rule="evenodd" clip-rule="evenodd" d="M0 28C0 12.536 12.536 0 28 0C43.464 0 56 12.536 56 28C56 43.464 43.464 56 28 56C12.536 56 0 43.464 0 28Z" fill="white"/>
<path fill-rule="evenodd" clip-rule="evenodd" d="M27.9548 22.4473L28.0222 23.5591L26.8985 23.423C22.808 22.9011 19.2345 21.1313 16.2003 18.1589L14.717 16.684L14.3349 17.7731C13.5258 20.201 14.0427 22.7649 15.7284 24.4894C16.6274 25.4424 16.4251 25.5785 14.8743 25.0113C14.3349 24.8297 13.8629 24.6936 13.818 24.7617C13.6607 24.9205 14.2001 26.9853 14.6271 27.8021C15.2114 28.9366 16.4026 30.0484 17.7062 30.7064L18.8075 31.2283L17.5039 31.251C16.2453 31.251 16.2003 31.2737 16.3352 31.7502C16.7847 33.225 18.5602 34.7906 20.538 35.4713L21.9315 35.9478L20.7178 36.6739C18.9198 37.7177 16.8072 38.3076 14.6945 38.353C13.6831 38.3757 12.8516 38.4664 12.8516 38.5345C12.8516 38.7614 15.5935 40.032 17.1893 40.5312C21.9764 42.0061 27.6626 41.3707 31.9329 38.8522C34.967 37.0596 38.0012 33.4973 39.4171 30.0484C40.1813 28.2105 40.9454 24.8524 40.9454 23.2414C40.9454 22.1977 41.0128 22.0616 42.2714 20.8136C43.0131 20.0875 43.7098 19.2934 43.8447 19.0665C44.0694 18.6354 44.047 18.6354 42.9007 19.0211C40.9904 19.7018 40.7207 19.611 41.6646 18.59C42.3613 17.8639 43.1929 16.5479 43.1929 16.1622C43.1929 16.0941 42.8558 16.2075 42.4737 16.4117C42.0692 16.6386 41.1702 16.979 40.4959 17.1832L39.2822 17.5689L38.181 16.8202C37.5741 16.4117 36.7201 15.9579 36.2706 15.8218C35.1244 15.5041 33.3713 15.5495 32.3375 15.9126C29.5281 16.9336 27.7525 19.5657 27.9548 22.4473Z" fill="white"/>
</svg>
