<svg width="594" height="568" viewBox="0 0 594 568" fill="none" xmlns="http://www.w3.org/2000/svg">
<path d="M298 438.015L300.887 433.015L295.113 433.015L298 438.015ZM297.5 388.013L297.5 433.515L298.5 433.515L298.5 388.013L297.5 388.013Z" fill="#F4900C" mask="url(#Mask0)"/>
<path d="M590 387.899L590.495 387.944L590.495 387.394L589.957 387.394L590 387.899ZM590 438.121L592.854 433.344L587.146 432.826L590 438.121ZM298.044 388.405L590.044 388.405L589.957 387.394L297.956 387.394L298.044 388.405ZM589.506 387.854L589.506 433.544L590.495 433.633L590.495 387.944L589.506 387.854Z" fill="#F4900C" mask="url(#Mask0)"/>
<path d="M3.99997 387.899L3.95611 387.394L3.50564 387.394L3.50564 387.854L3.99997 387.899ZM3.99976 438.121L6.85379 433.344L1.14577 432.826L3.99976 438.121ZM297.956 387.394L3.95611 387.394L4.04383 388.405L298.043 388.405L297.956 387.394ZM3.50564 387.854L3.50545 433.544L4.4941 433.633L4.4943 387.944L3.50564 387.854Z" fill="#F4900C" mask="url(#Mask0)"/>
<g filter="url(#filter0_bd_7219_12588)">
<ellipse cx="297.5" cy="279.508" rx="123.5" ry="123.506" fill="#211426" fill-opacity="0.33" shape-rendering="crispEdges"/>
</g>
<path d="M420.5 279.508C420.5 347.442 365.431 402.514 297.5 402.514C229.569 402.514 174.5 347.442 174.5 279.508C174.5 211.573 229.569 156.502 297.5 156.502C365.431 156.502 420.5 211.573 420.5 279.508Z" stroke="url(#paint0_linear_7219_12588)" shape-rendering="auto"/>
<path d="M249.38 324.504H247.132L241.467 329.378V322.182H240V332.946H241.467V331.316L244.776 328.471L248.724 332.946H250.66L245.884 327.502L249.38 324.504Z" fill="url(#paint1_linear_7219_12588)"/>
<path d="M259.253 324.504H251.449V325.949H259.253C260.142 325.949 260.86 326.672 260.86 327.549V327.994H253.946C252.557 327.994 251.449 329.102 251.449 330.47C251.449 331.839 252.557 332.946 253.946 332.946H262.343V327.549C262.343 325.872 260.969 324.504 259.253 324.504ZM260.86 331.485H253.946C253.369 331.485 252.916 331.039 252.916 330.47C252.916 329.917 253.369 329.455 253.946 329.455H260.86V331.485Z" fill="url(#paint2_linear_7219_12588)"/>
<path d="M273.078 327.994H267.179C266.617 327.994 266.164 327.533 266.164 326.964C266.164 326.411 266.617 325.949 267.179 325.949H275.575V324.504H267.179C265.805 324.504 264.682 325.596 264.682 326.964C264.682 328.348 265.805 329.455 267.179 329.455H273.078C273.656 329.455 274.108 329.917 274.108 330.47C274.108 331.039 273.656 331.485 273.078 331.485H264.682V332.946H273.078C274.467 332.946 275.575 331.839 275.575 330.47C275.575 329.102 274.467 327.994 273.078 327.994Z" fill="url(#paint3_linear_7219_12588)"/>
<path d="M286.31 327.994H280.411C279.849 327.994 279.397 327.533 279.397 326.964C279.397 326.411 279.849 325.949 280.411 325.949H288.808V324.504H280.411C279.038 324.504 277.914 325.596 277.914 326.964C277.914 328.348 279.038 329.455 280.411 329.455H286.31C286.888 329.455 287.341 329.917 287.341 330.47C287.341 331.039 286.888 331.485 286.31 331.485H277.914V332.946H286.31C287.7 332.946 288.808 331.839 288.808 330.47C288.808 329.102 287.7 327.994 286.31 327.994Z" fill="url(#paint4_linear_7219_12588)"/>
<path d="M298.95 324.504H291.146V325.949H298.95C299.839 325.949 300.557 326.672 300.557 327.549V327.994H293.643C292.254 327.994 291.146 329.102 291.146 330.47C291.146 331.839 292.254 332.946 293.643 332.946H302.04V327.549C302.04 325.872 300.667 324.504 298.95 324.504ZM300.557 331.485H293.643C293.066 331.485 292.613 331.039 292.613 330.47C292.613 329.917 293.066 329.455 293.643 329.455H300.557V331.485Z" fill="url(#paint5_linear_7219_12588)"/>
<path d="M312.198 324.504H304.379V332.946H305.846V325.949H312.198C313.072 325.949 313.805 326.672 313.805 327.549V332.946H315.272V327.549C315.272 325.872 313.883 324.504 312.198 324.504Z" fill="url(#paint6_linear_7219_12588)"/>
<path d="M327.038 324.504H320.701C319 324.504 317.611 325.872 317.611 327.549V329.886C317.611 331.577 319 332.946 320.701 332.946H328.52V322.182H327.038V324.504ZM327.038 331.485H320.701C319.812 331.485 319.078 330.762 319.078 329.886V327.549C319.078 326.672 319.812 325.949 320.701 325.949H327.038V331.485Z" fill="url(#paint7_linear_7219_12588)"/>
<path d="M330.859 327.549V332.946H332.326V327.549C332.326 326.672 333.044 325.949 333.949 325.949H341.768V324.504H333.949C332.232 324.504 330.859 325.872 330.859 327.549Z" fill="url(#paint8_linear_7219_12588)"/>
<path d="M351.91 324.504H344.106V325.949H351.91C352.799 325.949 353.517 326.672 353.517 327.549V327.994H346.603C345.214 327.994 344.106 329.102 344.106 330.47C344.106 331.839 345.214 332.946 346.603 332.946H355V327.549C355 325.872 353.627 324.504 351.91 324.504ZM353.517 331.485H346.603C346.026 331.485 345.573 331.039 345.573 330.47C345.573 329.917 346.026 329.455 346.603 329.455H353.517V331.485Z" fill="url(#paint9_linear_7219_12588)"/>
<g filter="url(#filter1_f_7219_12588)">
<path fill-rule="evenodd" clip-rule="evenodd" d="M298.335 228.775C272.729 228.775 251.977 249.408 251.977 274.869C251.977 288.752 258.145 301.201 267.916 309.666L289.961 291.188H267.657C265.35 291.188 263.515 289.325 263.515 287.071C263.515 284.778 265.389 282.953 267.657 282.953H329.043C331.35 282.953 333.185 284.816 333.185 287.071C333.185 289.363 331.311 291.188 329.043 291.188H309.382L329.685 308.884C338.92 300.459 344.723 288.353 344.723 274.897C344.723 249.437 323.943 228.803 298.335 228.775ZM250.197 274.869C250.197 248.431 271.746 227.005 298.336 227.005H298.337C324.925 227.034 346.503 248.458 346.503 274.897C346.503 289.162 340.221 301.966 330.284 310.73L329.697 311.248L304.651 289.419H329.043C330.338 289.419 331.405 288.376 331.405 287.071C331.405 285.783 330.356 284.722 329.043 284.722H267.657C266.362 284.722 265.295 285.765 265.295 287.071C265.295 288.358 266.344 289.419 267.657 289.419H294.834L267.911 311.985L267.337 311.503C256.853 302.711 250.197 289.563 250.197 274.869Z" fill="url(#paint10_linear_7219_12588)"/>
</g>
<path fill-rule="evenodd" clip-rule="evenodd" d="M298.619 228.428C272.97 228.428 252.185 249.24 252.185 274.922C252.185 288.981 258.411 301.582 268.264 310.121L290.749 291.143H268.007C265.805 291.143 264.052 289.351 264.052 287.183C264.052 284.978 265.841 283.223 268.007 283.223H329.259C331.461 283.223 333.214 285.014 333.214 287.183C333.214 289.388 331.425 291.143 329.259 291.143H309.169L329.902 309.34C339.22 300.839 345.082 288.581 345.082 274.951C345.082 249.269 324.268 228.456 298.619 228.428ZM250.764 274.922C250.764 248.455 272.185 227.005 298.619 227.005H298.62C325.052 227.034 346.503 248.482 346.503 274.951C346.503 289.231 340.258 302.05 330.379 310.823L329.911 311.24L305.392 289.72H329.259C330.648 289.72 331.793 288.594 331.793 287.183C331.793 285.792 330.668 284.645 329.259 284.645H268.007C266.618 284.645 265.473 285.772 265.473 287.183C265.473 288.574 266.598 289.72 268.007 289.72H294.639L268.261 311.985L267.803 311.598C257.38 302.796 250.764 289.633 250.764 274.922Z" fill="url(#paint11_linear_7219_12588)"/>
<defs>
<mask id="Mask0">
<rect x="0" y="0" width="100%" height="100%" fill="#fff"/>
<ellipse cx="297.5" cy="279.508" rx="123.5" ry="123.506" fill="#000" shape-rendering="crispEdges"/>
</mask>
<filter id="filter0_bd_7219_12588" x="14" y="0.00170898" width="567" height="567.012" filterUnits="userSpaceOnUse" color-interpolation-filters="sRGB">
<feFlood flood-opacity="0" result="BackgroundImageFix"/>
<feGaussianBlur in="BackgroundImage" stdDeviation="57"/>
<feComposite in2="SourceAlpha" operator="in" result="effect1_backgroundBlur_7219_12588"/>
<feColorMatrix in="SourceAlpha" type="matrix" values="0 0 0 0 0 0 0 0 0 0 0 0 0 0 0 0 0 0 127 0" result="hardAlpha"/>
<feOffset dy="4"/>
<feGaussianBlur stdDeviation="80"/>
<feComposite in2="hardAlpha" operator="out"/>
<feColorMatrix type="matrix" values="0 0 0 0 0 0 0 0 0 0 0 0 0 0 0 0 0 0 1 0"/>
<feBlend mode="normal" in2="effect1_backgroundBlur_7219_12588" result="effect2_dropShadow_7219_12588"/>
<feBlend mode="normal" in="SourceGraphic" in2="effect2_dropShadow_7219_12588" result="shape"/>
</filter>
<filter id="filter1_f_7219_12588" x="230.197" y="207.005" width="136.306" height="124.979" filterUnits="userSpaceOnUse" color-interpolation-filters="sRGB">
<feFlood flood-opacity="0" result="BackgroundImageFix"/>
<feBlend mode="normal" in="SourceGraphic" in2="BackgroundImageFix" result="shape"/>
<feGaussianBlur stdDeviation="10" result="effect1_foregroundBlur_7219_12588"/>
</filter>
<linearGradient id="paint0_linear_7219_12588" x1="297.5" y1="156.002" x2="297.5" y2="403.014" gradientUnits="userSpaceOnUse">
<stop stop-color="#FFBF00"/>
<stop offset="1" stop-color="#E843C4"/>
</linearGradient>
<linearGradient id="paint1_linear_7219_12588" x1="298.279" y1="321.413" x2="298.279" y2="336.79" gradientUnits="userSpaceOnUse">
<stop stop-color="#E843C4"/>
<stop offset="1" stop-color="#FFBF00"/>
</linearGradient>
<linearGradient id="paint2_linear_7219_12588" x1="298.279" y1="321.413" x2="298.279" y2="336.79" gradientUnits="userSpaceOnUse">
<stop stop-color="#E843C4"/>
<stop offset="1" stop-color="#FFBF00"/>
</linearGradient>
<linearGradient id="paint3_linear_7219_12588" x1="298.279" y1="321.413" x2="298.279" y2="336.79" gradientUnits="userSpaceOnUse">
<stop stop-color="#E843C4"/>
<stop offset="1" stop-color="#FFBF00"/>
</linearGradient>
<linearGradient id="paint4_linear_7219_12588" x1="298.279" y1="321.413" x2="298.279" y2="336.79" gradientUnits="userSpaceOnUse">
<stop stop-color="#E843C4"/>
<stop offset="1" stop-color="#FFBF00"/>
</linearGradient>
<linearGradient id="paint5_linear_7219_12588" x1="298.279" y1="321.413" x2="298.279" y2="336.79" gradientUnits="userSpaceOnUse">
<stop stop-color="#E843C4"/>
<stop offset="1" stop-color="#FFBF00"/>
</linearGradient>
<linearGradient id="paint6_linear_7219_12588" x1="298.279" y1="321.413" x2="298.279" y2="336.79" gradientUnits="userSpaceOnUse">
<stop stop-color="#E843C4"/>
<stop offset="1" stop-color="#FFBF00"/>
</linearGradient>
<linearGradient id="paint7_linear_7219_12588" x1="298.279" y1="321.413" x2="298.279" y2="336.79" gradientUnits="userSpaceOnUse">
<stop stop-color="#E843C4"/>
<stop offset="1" stop-color="#FFBF00"/>
</linearGradient>
<linearGradient id="paint8_linear_7219_12588" x1="298.279" y1="321.413" x2="298.279" y2="336.79" gradientUnits="userSpaceOnUse">
<stop stop-color="#E843C4"/>
<stop offset="1" stop-color="#FFBF00"/>
</linearGradient>
<linearGradient id="paint9_linear_7219_12588" x1="298.279" y1="321.413" x2="298.279" y2="336.79" gradientUnits="userSpaceOnUse">
<stop stop-color="#E843C4"/>
<stop offset="1" stop-color="#FFBF00"/>
</linearGradient>
<linearGradient id="paint10_linear_7219_12588" x1="298.424" y1="189.436" x2="298.424" y2="339.87" gradientUnits="userSpaceOnUse">
<stop stop-color="#FFBF00"/>
<stop offset="1" stop-color="#E843C4"/>
</linearGradient>
<linearGradient id="paint11_linear_7219_12588" x1="298.633" y1="227.716" x2="298.633" y2="311.054" gradientUnits="userSpaceOnUse">
<stop stop-color="#FFBF00"/>
<stop offset="1" stop-color="#E843C4"/>
</linearGradient>
</defs>
</svg>