<svg width="1440" height="424" viewBox="0 0 1440 424" fill="none" xmlns="http://www.w3.org/2000/svg">
<g opacity="0.8">
<mask id="mask0_5582_15912" style="mask-type:alpha" maskUnits="userSpaceOnUse" x="0" y="0" width="1440" height="424">
<rect width="1440" height="424" fill="url(#paint0_linear_5582_15912)"/>
</mask>
<g mask="url(#mask0_5582_15912)">
<g filter="url(#filter0_d_5582_15912)">
<path d="M1444.43 10.4096L1444.5 9.81814L1401.06 3.83105H38.8587L-5 9.8821V413.783H1444.43V413.183H1445V57.7388V10.4096H1444.43ZM1443.87 10.9372V12.2641L1392.71 5.01407H1400.97L1443.87 10.9372ZM1443.87 252.635H1424.75L1390.69 236.057H1443.87V252.635ZM1443.87 288.174H1430.16L1399.09 271.611H1443.88L1443.87 288.174ZM1443.87 323.721H1422.89L1394.76 307.15H1443.87V323.721ZM1443.87 359.268H1402.93L1377.76 342.697H1443.88L1443.87 359.268ZM1443.87 377.037H1429.9L1404.73 360.467H1443.87V377.037ZM-3.86807 378.236H8.25117L-3.86807 386.229V378.236ZM-3.86807 360.467H35.244L10.0774 377.037H-3.86807V360.467ZM-3.86807 342.697H62.2369L37.0627 359.268H-3.86807V342.697ZM-3.86807 324.92H15.0503L-3.86807 336.063V324.92ZM-3.86807 307.15H45.2201L17.0878 323.721H-3.86807V307.15ZM-3.86807 289.373H7.56447L-3.86807 295.464V289.373ZM-3.86807 271.611H40.9037L9.81324 288.182H-3.86807V271.611ZM-3.86807 253.842H12.7336L-3.86807 261.931V253.842ZM-3.86807 236.065H49.2876L15.2314 252.635H-3.86807V236.065ZM-3.86807 218.295H30.6786L-3.86807 233.755V218.295ZM-3.86807 200.526H18.4159L-3.86807 209.75V200.526ZM-3.86807 182.748H12.5072L-3.86807 189.063V182.748ZM-3.86807 164.979H12.9525L-3.86807 171.038V164.979ZM-3.86807 147.201H19.7441L-3.86807 155.195V147.201ZM-3.86807 111.663H16.2955L-3.86807 117.442V111.663ZM-3.86807 93.8852H12.4091L-3.86807 98.1537V93.8852ZM-3.86807 40.5689H6.80984L-3.86807 42.5193V40.5689ZM-3.86807 22.7995H2.63678L-3.86807 23.8147V22.7995ZM-3.86807 13.4791L55.7849 5.02207H64.2744L-3.86807 14.926V13.4791ZM-3.86807 16.141L72.6054 5.01407H81.3137L-3.86807 17.7317V16.141ZM-3.86807 18.9466L89.4184 5.02207H98.338L-3.86807 20.6893V18.9466ZM1441.84 21.6005H1429.76L1324.65 5.02207H1333.77L1441.84 21.6005ZM1422.06 21.6005H1409.76L1307.59 5.02207H1316.9L1422.06 21.6005ZM1402.28 21.6005H1389.77L1290.57 5.01407H1300.12L1402.28 21.6005ZM1382.5 21.6005H1369.78L1273.53 5.02207H1283.3L1382.5 21.6005ZM1362.72 21.6005H1349.78L1256.53 5.01407H1266.52L1362.72 21.6005ZM90.3013 22.7995H103.658L13.3449 39.3619H-2.97761L90.3013 22.7995ZM110.291 22.7995H123.874L36.5118 39.3619H19.978L110.291 22.7995ZM130.289 22.7995H144.068L59.7013 39.3619H42.9336L130.289 22.7995ZM150.279 22.7995H164.277L82.8381 39.3619H65.8817L150.279 22.7995ZM1269.72 22.7995L1351.16 39.3699H1333.99L1255.51 22.7995H1269.72ZM1249.73 22.7995L1328.21 39.3699H1310.85L1235.34 22.7995H1249.73ZM152.46 40.6009H170.465L100.881 57.1793H79.9101L152.46 40.6009ZM175.626 40.6009H193.843L127.217 57.1793H106.035L175.626 40.6009ZM198.801 40.6009H217.221L153.554 57.1793H132.145L198.801 40.6009ZM1218.05 40.6009L1281.71 57.1793H1260.12L1199.39 40.6009H1218.05ZM1194.87 40.6009L1255.58 57.1793H1233.78L1176.01 40.6009H1194.87ZM206.385 58.3384H228.616L173.83 74.9088H148.641L206.385 58.3384ZM1207.26 58.3384L1262.04 74.9088H1236.65L1184.84 58.3384H1207.26ZM1180.91 58.3384L1232.73 74.9088H1207.14L1158.27 58.3384H1180.91ZM233.031 76.1078H259.05L213.146 92.6782H184.169L233.031 76.1078ZM1177.43 76.1078L1223.33 92.6782H1194.15L1151.21 76.1078H1177.43ZM246.04 93.8772H275.629L235.634 110.456H203.08L246.04 93.8772ZM1161.25 93.8772L1201.25 110.456H1168.49L1131.51 93.8772H1161.25ZM271.75 111.655H304.954L270.898 128.225H234.729L271.75 111.655ZM1132.37 111.655L1166.43 128.225H1130.11L1099.01 111.655H1132.37ZM310.161 129.424H346.888L318.756 145.994H279.07L310.161 129.424ZM1090.77 129.424L1118.9 145.994H1079.03L1053.86 129.424H1090.77ZM361.286 147.193H401.545L379.337 163.772H336.097L361.286 147.193ZM1036.47 147.193L1058.68 163.772H1015.27L996.022 147.193H1036.47ZM425.127 164.971H468.896L452.611 181.541H405.824L425.127 164.971ZM969.444 164.971L985.729 181.541H938.837L925.51 164.971H969.444ZM501.684 182.74H548.946L538.577 199.319H488.365L501.684 182.74ZM889.688 182.74L900.057 199.319H849.723L842.32 182.74H889.688ZM590.956 200.518H641.598L637.154 217.088H583.576L590.956 200.518ZM642.776 200.518H693.471L691.962 217.088H638.361L642.776 200.518ZM694.611 200.518H745.321L746.831 217.088H693.154L694.611 200.518ZM747.94 217.088L746.431 200.518H797.126L801.571 217.088H747.94ZM802.778 217.088L798.334 200.518H849.037L856.44 217.088H802.778ZM841.038 182.716L848.44 199.295H798.017L793.572 182.716H841.038ZM792.395 182.716L796.839 199.295H746.408L744.899 182.716H792.395ZM743.737 182.716L745.246 199.295H694.746L696.256 182.716H743.737ZM693.584 199.319H643.1L647.552 182.74H695.094L693.584 199.319ZM641.923 199.319H591.522L598.924 182.74H646.39L641.923 199.319ZM590.246 199.319H539.913L550.282 182.74H597.672L590.246 199.319ZM539.166 200.518H589.726L582.323 217.088H528.82L539.166 200.518ZM528.05 218.287H581.772L574.392 234.842H517.712L528.05 218.287ZM583.025 218.287H636.844L632.46 234.842H575.644L583.025 218.287ZM638.021 218.287H691.894L690.385 234.858H633.599L638.021 218.287ZM693.026 218.287H746.921L748.43 234.858H691.57L693.026 218.287ZM749.562 234.842L748.053 218.271H801.918L806.363 234.842H749.562ZM807.57 234.842L803.125 218.271H856.945L864.348 234.842H807.57ZM865.601 234.842L858.198 218.271H911.919L922.28 234.842H865.601ZM857.662 217.072L850.259 200.502H900.819L911.187 217.072H857.662ZM901.43 199.303L891.062 182.724H938.316L951.665 199.319L901.43 199.303ZM924.031 164.931L937.328 181.541H890.284L879.916 164.971L924.031 164.931ZM878.595 164.931L888.956 181.501H841.8L834.397 164.931H878.595ZM833.144 164.931L840.547 181.501H793.293L788.856 164.931H833.144ZM787.678 164.931L792.115 181.501H744.801L743.291 164.931H787.678ZM742.197 164.931L743.706 181.501H696.331L697.841 164.931H742.197ZM695.214 181.501H647.892L652.329 164.931H696.678L695.214 181.501ZM646.73 181.501H599.46L606.863 164.931H651.152L646.73 181.501ZM598.223 181.501H551.051L561.412 164.931H605.61L598.223 181.501ZM549.708 181.501H502.665L515.991 164.931H560.077L549.708 181.501ZM501.178 181.501H454.263L470.548 164.931H514.49L501.178 181.501ZM453.101 182.7H500.212L486.893 199.279H436.794L453.101 182.7ZM487.414 200.478H537.83L527.462 217.048H474.072L487.414 200.478ZM473.121 218.247H526.7L516.354 234.842H459.757L473.121 218.247ZM516.973 236.017H573.871L566.468 252.595H506.596L516.973 236.017ZM575.124 236.017H632.113L627.676 252.595H567.706L575.124 236.017ZM633.29 236.017H690.34L688.83 252.595H628.838L633.29 236.017ZM691.479 236.017H748.544L750.053 252.595H689.985L691.479 236.017ZM751.162 252.595L749.653 236.017H806.702L811.14 252.595H751.162ZM812.347 252.595L807.91 236.017H864.884L872.287 252.595H812.347ZM873.554 252.595L866.152 236.017H923.05L933.411 252.595H873.554ZM923.639 234.842L913.278 218.271H966.856L980.205 234.842H923.639ZM912.523 217.072L902.162 200.502H952.594L965.92 217.072H912.523ZM953.114 199.303L939.788 182.724H986.906L1003.2 199.303H953.114ZM987.367 181.525L971.074 164.955H1014.84L1034.09 181.525H987.367ZM994.226 147.154L1013.48 163.732H969.897L953.612 147.154H994.226ZM951.967 147.154L968.267 163.772H924.499L911.172 147.193L951.967 147.154ZM909.708 147.154L923.035 163.732H879.222L868.861 147.154H909.708ZM867.449 147.154L877.81 163.732H833.831L826.428 147.154H867.449ZM825.191 147.154L832.593 163.732H788.516L784.079 147.154H825.191ZM782.932 147.154L787.369 163.732H743.208L741.699 147.154H782.932ZM740.62 147.154L742.129 163.732H697.984L699.493 147.154H740.62ZM696.852 163.732H652.654L657.091 147.154H698.263L696.852 163.732ZM651.575 163.732H607.399L614.802 147.154H655.914L651.575 163.732ZM606.244 163.732H562.167L572.528 147.154H613.549L606.244 163.732ZM560.907 163.732H516.942L530.269 147.154H571.17L560.907 163.732ZM515.554 163.732H471.725L488.01 147.154H528.76L515.554 163.732ZM470.193 163.732H426.516L445.766 147.154H486.38L470.193 163.732ZM424.818 163.732H381.314L403.523 147.154H443.97L424.818 163.732ZM379.805 164.931H423.429L404.179 181.501H357.498L379.805 164.931ZM404.587 182.7H451.547L435.262 199.279H385.238L404.587 182.7ZM435.715 200.478H485.912L472.586 217.048H419.332L435.715 200.478ZM418.147 218.287H471.612L458.293 234.842H401.862L418.147 218.287ZM458.814 236.057H515.592L505.231 252.635H445.495L458.814 236.057ZM505.834 253.834H565.91L558.507 270.404H495.481L505.834 253.834ZM567.162 253.834H627.329L622.891 270.404H559.767L567.162 253.834ZM628.506 253.834H688.732L687.223 270.404H624.076L628.506 253.834ZM689.864 253.834H750.113L751.622 270.404H688.393L689.864 253.834ZM752.724 270.404L751.215 253.834H811.441L815.879 270.404H752.724ZM817.086 270.404L812.649 253.834H872.815L880.218 270.404H817.086ZM881.47 270.404L874.068 253.834H934.143L944.504 270.404H881.47ZM934.747 252.635L924.386 236.057H981.164L994.49 252.635H934.747ZM981.699 234.842L968.373 218.271H1021.85L1038.12 234.842H981.699ZM967.407 217.072L954.08 200.502H1004.38L1020.66 217.072H967.407ZM1004.83 199.303L988.544 182.724H1035.51L1054.75 199.303H1004.83ZM1035.91 181.525L1016.66 164.955H1060.29L1082.49 181.525H1035.91ZM1060.64 163.756L1038.45 147.193H1078.72L1103.9 163.772L1060.64 163.756ZM1051.71 129.384L1076.89 145.954H1036.82L1014.62 129.384H1051.71ZM1012.65 129.384L1034.86 145.954H994.626L975.383 129.384H1012.65ZM973.587 129.384L992.83 145.954H952.42L936.135 129.384H973.587ZM934.513 129.384L950.797 145.954H910.252L896.925 129.384H934.513ZM895.438 129.384L908.758 145.954H868.068L857.707 129.384H895.438ZM856.349 129.384L866.71 145.954H825.907L818.505 129.384H856.349ZM817.252 129.384L824.655 145.954H783.754L779.31 129.384H817.252ZM778.132 129.384L782.577 145.954H741.624L740.114 129.384H778.132ZM739.005 129.384L740.514 145.954H699.538L701.048 129.384H739.005ZM698.369 145.954H657.415L661.89 129.424H699.885L698.369 145.954ZM656.238 145.954H615.338L622.74 129.384H660.683L656.238 145.954ZM614.085 145.954H573.282L583.643 129.384H621.488L614.085 145.954ZM571.924 145.954H531.227L544.554 129.384H582.285L571.924 145.954ZM529.741 145.954H489.195L505.48 129.384H543.067L529.741 145.954ZM487.557 145.954H447.162L466.443 129.424H503.88L487.557 145.954ZM445.366 145.954H405.13L427.338 129.384H464.609L445.366 145.954ZM403.168 145.954H363.105L388.279 129.384H425.376L403.168 145.954ZM360.962 145.954H321.088L349.22 129.384H386.136L360.962 145.954ZM319.05 147.154H359.143L333.969 163.732H290.918L319.05 147.154ZM334.293 164.931H377.745L355.513 181.541H309.104L334.293 164.931ZM355.891 182.7H402.677L383.434 199.319H333.682L355.891 182.7ZM383.812 200.478H433.994L417.694 217.088H364.569L383.812 200.478ZM363.173 218.247H416.487L400.232 234.842H343.953L363.173 218.247ZM400.655 236.017H457.305L443.978 252.595H384.363L400.655 236.017ZM444.559 253.834H504.514L494.153 270.404H431.202L444.559 253.834ZM430.221 271.611H493.36L483.045 288.174H416.917L430.221 271.611ZM494.719 271.611H557.979L550.576 288.182H484.365L494.719 271.611ZM559.262 271.611H622.574L618.122 288.174H551.829L559.262 271.611ZM623.782 271.611H687.17L685.661 288.182H619.307L623.782 271.611ZM688.302 271.611H751.69L753.2 288.182H686.793L688.302 271.611ZM754.339 288.182L752.83 271.611H816.218L820.663 288.182H754.339ZM821.878 288.182L817.418 271.611H880.731L888.134 288.182H821.878ZM889.432 288.182L882.014 271.611H945.259L955.627 288.182H889.432ZM957.001 288.182L946.617 271.611H1009.77L1023.1 288.182H957.001ZM945.885 270.412L935.524 253.842H995.433L1008.76 270.412H945.885ZM995.999 252.643L982.673 236.065H1039.32L1055.61 252.643H995.999ZM1039.77 234.866L1023.48 218.295H1076.8L1096.04 234.842L1039.77 234.866ZM1022.31 217.096L1006 200.518H1056.14L1075.39 217.088L1022.31 217.096ZM1056.56 199.319L1037.31 182.74H1084.09L1106.3 199.319H1056.56ZM1084.48 181.541L1062.27 164.971H1105.72L1130.89 181.541H1084.48ZM1106.05 163.772L1080.87 147.193H1120.96L1149.1 163.772H1106.05ZM1121.26 145.994L1093.13 129.424H1129.85L1160.94 145.994H1121.26ZM1096.52 111.623L1127.61 128.193H1091.09L1062.96 111.623H1096.52ZM1060.63 111.623L1088.77 128.193H1052.03L1026.86 111.623H1060.63ZM1024.74 111.623L1049.92 128.193H1013.03L990.823 111.623H1024.74ZM988.861 111.623L1011.07 128.193H974.01L954.759 111.623H988.861ZM952.971 111.623L972.214 128.193H934.996L918.703 111.623H952.971ZM917.073 111.623L933.358 128.193H895.982L882.655 111.623H917.073ZM881.169 111.623L894.495 128.193H856.96L846.592 111.623H881.169ZM845.256 111.623L855.625 128.193H817.992L810.551 111.655L845.256 111.623ZM809.336 111.623L816.739 128.193H779.008L774.563 111.623H809.336ZM773.393 111.623L777.838 128.193H740.031L738.522 111.623H773.393ZM737.436 111.623L738.945 128.193H701.131L702.64 111.623H737.436ZM699.984 128.193H662.177L666.622 111.623H701.44L699.984 128.193ZM661.022 128.193H623.291L630.694 111.623H665.46L661.022 128.193ZM622.046 128.193H584.391L594.729 111.655H629.441L622.046 128.193ZM583.055 128.193H545.52L558.847 111.623H593.401L583.055 128.193ZM544.056 128.193H506.657L522.942 111.623H557.36L544.056 128.193ZM505.042 128.193H467.801L487.044 111.623H521.312L505.042 128.193ZM466.028 128.193H428.946L451.154 111.623H485.256L466.028 128.193ZM427.006 128.193H390.098L415.272 111.623H449.192L427.006 128.193ZM387.977 128.193H351.257L379.382 111.623H413.129L387.977 128.193ZM348.948 128.193H312.409L343.507 111.623H377.058L348.948 128.193ZM309.919 128.193H273.569L307.625 111.623H340.987L309.919 128.193ZM271.132 129.392H307.663L276.572 145.962H237.038L271.132 129.392ZM276.844 147.162H316.726L288.594 163.74H245.723L276.844 147.162ZM288.918 164.939H332.12L306.953 181.509H260.755L288.918 164.939ZM307.331 182.708H353.929L331.72 199.287H282.134L307.331 182.708ZM332.105 200.486H382.084L362.833 217.056H309.866L332.105 200.486ZM308.289 218.255H361.437L342.164 234.842H286.088L308.289 218.255ZM342.594 236.025H399.055L382.77 252.603H323.314L342.594 236.025ZM383.253 253.802H443.05L429.723 270.372H366.938L383.253 253.802ZM365.761 271.611H428.75L415.431 288.174H349.476L365.761 271.611ZM415.951 289.381H482.29L471.891 305.983H402.625L415.951 289.381ZM483.618 289.381H550.025L542.66 305.983H473.235L483.618 289.381ZM551.293 289.381H617.813L613.368 305.983H543.89L551.293 289.381ZM618.99 289.381H685.563L684.054 305.959H614.545L618.99 289.381ZM686.702 289.381H753.29L754.799 305.959H685.216L686.702 289.381ZM755.909 305.983L754.399 289.405H820.972L825.417 305.983H755.909ZM826.624 305.983L822.18 289.405H888.7L896.102 305.983H826.624ZM897.355 305.983L889.952 289.405H956.359L966.758 305.983H897.355ZM968.101 305.983L957.702 289.373H1024.01L1037.37 305.983H968.101ZM1024.56 288.206L1011.28 271.611H1074.27L1090.52 288.174L1024.56 288.206ZM1010.28 270.436L996.943 253.834H1056.76L1073.05 270.404L1010.28 270.436ZM1057.22 252.667L1040.94 236.089H1097.43L1116.68 252.667H1057.22ZM1097.83 234.842L1078.59 218.271H1131.73L1153.94 234.842H1097.83ZM1077.19 217.072L1057.94 200.502H1107.92L1130.13 217.072H1077.19ZM1108.27 199.303L1086.06 182.724H1132.69L1157.86 199.303H1108.27ZM1133.01 181.525L1107.87 164.971H1151.14L1179.27 181.541L1133.01 181.525ZM1151.4 163.756L1123.27 147.178H1163.17L1194.27 163.756H1151.4ZM1163.47 145.979L1132.38 129.408H1168.91L1202.95 145.994L1163.47 145.979ZM1169.16 128.209L1135.11 111.639H1168.31L1205.29 128.209H1169.16ZM1128.59 93.8372L1165.56 110.416H1132.61L1098.55 93.8372H1128.59ZM1095.88 93.8372L1129.94 110.416H1096.79L1065.7 93.8372H1095.88ZM1063.18 93.8372L1094.27 110.416H1060.93L1032.79 93.8372H1063.18ZM1030.47 93.8372L1058.6 110.416H1025.08L999.908 93.8372H1030.47ZM997.765 93.8372L1022.93 110.416H989.223L967.014 93.8372H997.765ZM965.052 93.8372L987.261 110.416H953.378L934.128 93.8372H965.052ZM932.332 93.8372L951.582 110.416H917.534L901.249 93.8372H932.332ZM899.612 93.8372L915.904 110.416H881.697L868.378 93.8372H899.612ZM866.884 93.8372L880.21 110.416H845.875L835.453 93.8772L866.884 93.8372ZM834.148 93.8372L844.509 110.456H810.053L802.65 93.8772L834.148 93.8372ZM801.405 93.8372L808.808 110.416H774.261L769.801 93.8772L801.405 93.8372ZM768.639 93.8372L773.084 110.416H738.447L736.938 93.8372H768.639ZM735.858 93.8372L737.368 110.416H702.685L704.194 93.8372H735.858ZM701.576 110.416H666.939L671.383 93.8372H703.025L701.576 110.416ZM665.792 110.416H631.215L638.618 93.8372H670.191L665.792 110.416ZM629.992 110.416H595.483L605.852 93.8372H637.365L629.992 110.416ZM594.178 110.416H559.843L573.169 93.8372H604.539L594.178 110.416ZM558.356 110.416H524.119L540.396 93.8772H571.637L558.356 110.416ZM522.519 110.416H488.44L507.691 93.8372H538.774L522.519 110.416ZM486.674 110.416H452.792L475 93.8372H505.94L486.674 110.416ZM450.83 110.416H417.091L442.295 93.8772H473.008L450.83 110.416ZM414.978 110.416H381.42L409.552 93.8372H440.114L414.978 110.416ZM379.126 110.416H345.756L376.847 93.8372H407.22L379.126 110.416ZM343.266 110.416H310.085L344.141 93.8372H374.326L343.266 110.416ZM307.406 110.416H274.422L311.398 93.8372H341.394L307.406 110.416ZM271.547 110.416H238.758L278.753 93.8372H308.546L271.547 110.416ZM235.898 111.615H268.868L231.853 128.185H195.896L235.898 111.615ZM232.08 129.384H268.422L234.374 145.954H195.035L232.08 129.384ZM234.615 147.154H274.331L243.241 163.732H200.537L234.615 147.154ZM243.505 164.931H286.586L258.454 181.501H212.422L243.505 164.931ZM258.748 182.7H305.188L280.021 199.279H230.586L258.748 182.7ZM280.345 200.478H330.151L307.942 217.048H255.149L280.345 200.478ZM253.353 218.247H306.327L284.088 234.842H228.148L253.353 218.247ZM284.473 236.017H340.798L321.555 252.635H262.235L284.473 236.017ZM321.955 253.794H381.616L365.324 270.404H302.69L321.955 253.794ZM301.286 271.611H364.124L347.839 288.182H282.036L301.286 271.611ZM348.292 289.381H414.465L401.138 305.983H332.007L348.292 289.381ZM330.83 307.158H400.172L386.845 323.729H314.537L330.83 307.158ZM401.659 307.158H471.144L460.783 323.721H388.34L401.659 307.158ZM472.503 307.158H542.102L534.699 323.729H462.142L472.503 307.158ZM543.354 307.158H613.051L608.606 323.729H535.951L543.354 307.158ZM614.228 307.158H683.978L682.469 323.729H609.821L614.228 307.158ZM685.11 307.158H754.882L756.392 323.729H683.631L685.11 307.158ZM757.501 323.729L755.992 307.158H825.742L830.186 323.729H757.501ZM831.386 323.729L826.941 307.158H896.638L904.041 323.729H831.386ZM905.294 323.729L897.891 307.158H967.512L977.881 323.729H905.294ZM979.247 323.729L968.886 307.158H1038.37L1051.7 323.729H979.247ZM1053.2 323.729L1039.87 307.158H1109.22L1125.5 323.729H1053.2ZM1038.85 305.983L1025.53 289.405H1091.7L1107.99 305.983H1038.85ZM1092.15 288.206L1075.87 271.611H1138.71L1157.96 288.182L1092.15 288.206ZM1074.67 270.404L1058.38 253.834H1118.04L1137.3 270.404H1074.67ZM1118.44 252.635L1099.19 236.057H1155.51L1177.72 252.635H1118.44ZM1155.87 234.858L1133.66 218.287H1186.63L1211.84 234.842L1155.87 234.858ZM1132.05 217.088L1109.84 200.518H1159.65L1184.84 217.088H1132.05ZM1159.97 199.319L1134.8 182.74H1181.24L1209.38 199.319H1159.97ZM1181.54 181.541L1153.41 164.971H1196.49L1227.58 181.541H1181.54ZM1196.75 163.772L1165.66 147.193H1205.38L1239.43 163.772H1196.75ZM1205.62 145.994L1171.57 129.424H1207.91L1244.93 145.994H1205.62ZM1208.14 128.225L1171.12 111.655H1204.09L1244.09 128.225H1208.14ZM1204.31 110.456L1164.31 93.8772H1193.9L1236.84 110.456H1204.31ZM1147.88 76.0838L1190.82 92.6542H1161.45L1121.46 76.0838H1147.88ZM1118.35 76.0838L1158.35 92.6542H1128.77L1091.79 76.0838H1118.35ZM1088.83 76.0838L1125.81 92.6542H1096.1L1062.04 76.0838H1088.83ZM1059.3 76.0838L1093.35 92.6542H1063.39L1032.29 76.0838H1059.3ZM1029.78 76.0838L1060.87 92.6542H1030.68L1002.55 76.0838H1029.78ZM1000.24 76.0838L1028.37 92.6542H998.022L972.855 76.0838H1000.24ZM970.712 76.0838L995.879 92.6542H965.347L943.138 76.0838H970.712ZM941.176 76.0838L963.385 92.6542H932.679L913.429 76.0838H941.176ZM911.633 76.0838L930.883 92.6542H900.011L883.749 76.1078L911.633 76.0838ZM882.089 76.0838L898.374 92.6542H867.351L854.025 76.0838H882.089ZM852.538 76.0838L865.865 92.6542H834.699L824.33 76.0838H852.538ZM822.98 76.0838L833.34 92.6542H802.061L794.704 76.1078L822.98 76.0838ZM793.406 76.0838L800.809 92.6542H769.432L764.994 76.0838H793.406ZM763.817 76.0838L768.254 92.6542H736.854L735.345 76.0838H763.817ZM734.213 76.0838L735.723 92.6542H704.27L705.779 76.0838H734.213ZM703.108 92.6542H671.7L676.138 76.0838H704.609L703.108 92.6542ZM670.5 92.6542H639.153L646.556 76.0838H674.968L670.5 92.6542ZM637.871 92.6542H606.622L616.983 76.0838H645.289L637.871 92.6542ZM605.233 92.6542H574.067L587.394 76.0838H615.632L605.233 92.6542ZM572.581 92.6542H541.588L557.873 76.0838H585.937L572.581 92.6542ZM539.921 92.6542H509.079L528.322 76.1078H556.243L539.921 92.6542ZM507.253 92.6542H476.578L498.786 76.0838H526.534L507.253 92.6542ZM474.585 92.6542H444.083L469.25 76.0838H496.824L474.585 92.6542ZM441.91 92.6542H411.589L439.722 76.0838H467.107L441.91 92.6542ZM409.227 92.6542H379.043L410.133 76.0838H437.299L409.227 92.6542ZM376.545 92.6542H346.609L380.657 76.0838H407.673L376.545 92.6542ZM343.862 92.6542H314.115L351.129 76.0838H377.948L343.862 92.6542ZM311.179 92.6542H281.598L321.593 76.0838H348.209L311.179 92.6542ZM278.497 92.6542H249.112L292.05 76.0838H318.461L278.497 92.6542ZM245.806 92.6542H216.663L262.567 76.0838H288.782L245.806 92.6542ZM213.305 93.8532H242.735L199.797 110.432H167.439L213.305 93.8532ZM199.963 111.631H232.736L192.741 128.201H157.048L199.963 111.631ZM192.968 129.4H229.114L192.1 145.97H153.026L192.968 129.4ZM192.326 147.17H231.846L197.797 163.772H155.342L192.326 147.17ZM198.039 164.947H240.962L209.871 181.541H164.013L198.039 164.947ZM210.113 182.716H256.364L228.231 199.295H179.045L210.113 182.716ZM228.526 200.494H278.165L252.998 217.064H200.416L228.526 200.494ZM198.341 218.263H251.164L226.005 234.842H170.254L198.341 218.263ZM226.262 236.033H282.413L260.205 252.611H201.155L226.262 236.033ZM260.559 253.81H320.061L300.879 270.404H238.419L260.559 253.81ZM236.811 271.611H299.49L280.24 288.182H214.588L236.811 271.611ZM280.64 289.381H346.662L330.369 305.983H261.397L280.64 289.381ZM260.001 307.158H329.192L312.907 323.729H240.75L260.001 307.158ZM313.36 324.928H385.887L372.56 341.506H297.098L313.36 324.928ZM387.374 324.928H460.029L449.668 341.506H374.047L387.374 324.928ZM461.387 324.928H534.163L526.76 341.506H451.026L461.387 324.928ZM535.416 324.928H608.312L603.875 341.506H528.013L535.416 324.928ZM609.459 324.928H682.386L680.877 341.506H605.022L609.459 324.928ZM683.525 324.928H756.467L757.976 341.506H682.046L683.525 324.928ZM759.086 341.506L757.576 324.928H830.503L834.94 341.506H759.086ZM836.148 341.506L831.711 324.928H904.577L911.98 341.506H836.148ZM913.232 341.506L905.83 324.928H978.605L988.966 341.506H913.232ZM990.325 341.506L979.964 324.928H1052.62L1065.95 341.506H990.325ZM1067.43 341.506L1054.11 324.928H1126.63L1142.92 341.506H1067.43ZM1127.05 323.729L1110.76 307.158H1179.95L1199.2 323.729H1127.05ZM1109.62 305.983L1093.33 289.405H1159.35L1178.6 305.983H1109.62ZM1159.75 288.206L1140.5 271.611H1203.18L1225.39 288.182L1159.75 288.206ZM1139.11 270.436L1119.86 253.866H1179.37L1201.57 270.436H1139.11ZM1179.72 252.667L1157.51 236.089H1213.66L1238.84 252.667H1179.72ZM1213.99 234.842L1188.81 218.271H1241.64L1269.74 234.842H1213.99ZM1186.99 217.072L1161.82 200.502H1211.44L1239.58 217.072H1186.99ZM1211.74 199.303L1183.61 182.724H1229.86L1260.95 199.303H1211.74ZM1230.12 181.541L1199.02 164.971H1241.92L1275.96 181.541H1230.12ZM1242.2 163.772L1208.14 147.193H1247.66L1284.64 163.772H1242.2ZM1247.89 145.994L1210.91 129.424H1247.05L1287.05 145.994H1247.89ZM1247.23 128.225L1207.23 111.655H1240.01L1282.94 128.225H1247.23ZM1240.23 110.456L1197.29 93.8772H1226.72L1272.61 110.456H1240.23ZM1226.87 92.6782L1180.97 76.1078H1206.98L1255.85 92.6782H1226.87ZM1154.59 58.3064L1203.45 74.8768H1177.64L1131.75 58.3064H1154.59ZM1128.24 58.3064L1174.14 74.8768H1148.13L1105.19 58.3064H1128.24ZM1101.89 58.3064L1144.83 74.8768H1118.63L1078.63 58.3064H1101.89ZM1075.54 58.3064L1115.53 74.8768H1089.12L1052.14 58.3064H1075.54ZM1049.19 58.3064L1086.17 74.8768H1059.58L1025.52 58.3064H1049.19ZM1022.83 58.3064L1056.89 74.8768H1030.07L998.98 58.3064H1022.83ZM996.482 58.3064L1027.58 74.8768H1000.56L972.433 58.3064H996.482ZM970.131 58.3064L998.263 74.8768H971.097L945.93 58.3064H970.131ZM943.772 58.3064L968.939 74.8768H941.584L919.375 58.3064H943.772ZM917.413 58.3064L939.591 74.9088H912.055L892.805 58.3384L917.413 58.3064ZM891.047 58.3064L910.297 74.8768H882.595L866.31 58.3064H891.047ZM864.68 58.3064L880.965 74.8768H853.112L839.785 58.3064H864.68ZM838.268 58.3064L851.595 74.8768H823.606L813.245 58.3064H838.268ZM811.856 58.3064L822.217 74.8768H794.115L786.712 58.3064H811.856ZM785.445 58.3064L792.848 74.8768H764.647L760.21 58.3064H785.445ZM759.033 58.3064L763.47 74.8768H735.27L733.76 58.3064H759.033ZM732.621 58.3064L734.13 74.8768H705.862L707.371 58.3064H732.621ZM704.7 74.8768H676.47L680.907 58.3064H706.202L704.7 74.8768ZM675.27 74.8768H647.092L654.495 58.3064H679.73L675.27 74.8768ZM645.839 74.8768H617.737L628.098 58.3064H653.242L645.839 74.8768ZM616.409 74.8768H588.39L601.717 58.3064H626.74L616.409 74.8768ZM586.934 74.8768H559.05L575.335 58.3064H600.238L586.934 74.8768ZM557.45 74.8768H529.718L548.969 58.3064H573.705L557.45 74.8768ZM527.96 74.8768H500.401L522.61 58.3064H547.188L527.96 74.8768ZM498.462 74.8768H471.076L496.243 58.3064H520.64L498.462 74.8768ZM468.963 74.8768H441.797L469.929 58.3064H494.145L468.963 74.8768ZM439.458 74.8768H412.435L443.533 58.3064H467.56L439.458 74.8768ZM409.952 74.8768H383.125L417.181 58.3064H441.012L409.952 74.8768ZM380.439 74.8768H353.808L390.784 58.3064H414.427L380.439 74.8768ZM350.933 74.8768H324.521L364.516 58.3064H387.955L350.933 74.8768ZM321.427 74.8768H295.189L338.157 58.3384H361.399L321.427 74.8768ZM291.914 74.8768H265.879L311.745 58.3384H334.792L291.914 74.8768ZM262.401 74.8768H236.57L285.424 58.3064H308.267L262.401 74.8768ZM232.887 74.8768H207.26L259.08 58.3064H281.719L232.887 74.8768ZM203.374 74.8768H177.951L232.729 58.3064H255.149L203.374 74.8768ZM174.019 76.0758H199.624L147.804 92.6462H119.203L174.019 76.0758ZM203.54 76.0758H229.356L180.441 92.6782H151.69L203.54 76.0758ZM180.667 93.8452H209.856L163.96 110.424H131.775L180.667 93.8452ZM164.149 111.623H196.718L153.78 128.193H118.222L164.149 111.623ZM153.976 129.392H189.927L149.932 145.962H111.016L153.976 129.392ZM150.158 147.162H189.481L152.467 163.74H110.208L150.158 147.162ZM152.693 164.939H195.39L161.334 181.509H115.679L152.693 164.939ZM161.575 182.74H207.607L176.517 199.319H127.466L161.575 182.74ZM176.811 200.518H226.247L198.114 217.088H145.728L176.811 200.518ZM143.464 218.287H196.069L167.922 234.842H112.359L143.464 218.287ZM168.231 236.057H224.209L199.035 252.635H140.084L168.231 236.057ZM199.307 253.834H258.635L236.426 270.404H174.17L199.307 253.834ZM172.344 271.611H234.849L212.641 288.182H147.177L172.344 271.611ZM212.995 289.381H278.844L259.601 305.983H190.787L212.995 289.381ZM189.179 307.158H258.205L238.962 323.729H166.971L189.179 307.158ZM239.362 324.928H311.745L295.461 341.506H220.111L239.362 324.928ZM218.723 342.705H294.261L277.976 359.276H199.495L218.723 342.705ZM295.898 342.705H371.594L358.268 359.276H279.613L295.898 342.705ZM373.081 342.705H448.913L438.522 359.268H359.754L373.081 342.705ZM450.271 342.705H526.224L518.821 359.276H439.91L450.271 342.705ZM527.477 342.705H603.52L599.083 359.276H520.074L527.477 342.705ZM604.697 342.705H680.801L679.292 359.276H600.26L604.697 342.705ZM681.933 342.705H758.059L759.569 359.276H680.454L681.933 342.705ZM760.678 359.276L759.169 342.705H835.272L839.717 359.276H760.678ZM840.909 359.276L836.472 342.705H912.516L919.918 359.276H840.909ZM921.171 359.276L913.768 342.705H989.721L1000.08 359.276H921.171ZM1001.44 359.276L991.079 342.705H1066.91L1080.24 359.276H1001.44ZM1081.72 359.276L1068.4 342.705H1144.09L1160.38 359.276H1081.72ZM1162.02 359.276L1145.73 342.705H1221.27L1240.52 359.276H1162.02ZM1144.55 341.506L1128.25 324.92H1200.62L1219.87 341.498L1144.55 341.506ZM1201.03 323.729L1181.83 307.15H1250.85L1273.06 323.721L1201.03 323.729ZM1180.39 305.983L1161.14 289.405H1227L1249.21 305.983H1180.39ZM1227.35 288.206L1205.14 271.611H1267.65L1292.82 288.182L1227.35 288.206ZM1203.54 270.436L1181.33 253.866H1240.69L1265.86 270.436H1203.54ZM1240.98 252.667L1215.78 236.057H1271.75L1299.89 252.635L1240.98 252.667ZM1272.07 234.89L1243.94 218.319H1296.53L1327.62 234.89H1272.07ZM1241.89 217.12L1213.75 200.55H1263.19L1294.28 217.12H1241.89ZM1263.45 199.351L1232.39 182.74H1278.42L1312.47 199.319L1263.45 199.351ZM1278.67 181.573L1244.62 165.003H1287.31L1324.29 181.573H1278.67ZM1287.54 163.804L1250.56 147.225H1289.89L1329.88 163.804H1287.54ZM1290.06 146.026L1250.07 129.456H1286.02L1328.95 146.026H1290.06ZM1286.23 128.257L1243.29 111.687H1275.86L1321.76 128.257H1286.23ZM1276.05 110.488L1230.15 93.9092H1259.34L1308.2 110.488H1276.05ZM1259.55 92.6782L1210.69 76.1078H1236.51L1288.33 92.6782H1259.55ZM1292.24 92.6782L1240.42 76.1078H1266.03L1320.81 92.6782H1292.24ZM1266.18 74.9088L1211.4 58.3384H1233.63L1291.37 74.9088H1266.18ZM1171.71 40.5369L1229.45 57.1153H1207.44L1152.64 40.6009L1171.71 40.5369ZM1148.54 40.5369L1203.32 57.1153H1181.07L1129.26 40.6009L1148.54 40.5369ZM1125.36 40.5369L1177.18 57.1153H1154.76L1105.88 40.6009L1125.36 40.5369ZM1102.19 40.5369L1151.05 57.1153H1128.41L1082.5 40.6009L1102.19 40.5369ZM1079.02 40.5369L1124.92 57.1153H1102.09L1059.13 40.6009L1079.02 40.5369ZM1055.8 40.6009L1098.74 57.1793H1075.72L1035.72 40.6009H1055.8ZM1032.64 40.6009L1072.63 57.1793H1049.4L1012.43 40.6009H1032.64ZM1009.46 40.6009L1046.48 57.1793H1023.05L989.012 40.6009H1009.46ZM986.28 40.6009L1020.34 57.1393H996.716L965.633 40.6009H986.28ZM963.105 40.6009L994.196 57.1793H970.388L942.27 40.6009H963.105ZM939.923 40.6009L968.056 57.1793H944.059L918.9 40.6009H939.923ZM916.741 40.6009L941.916 57.1793H917.768L895.536 40.6009H916.741ZM893.559 40.6009L915.768 57.1793H891.409L872.181 40.6009H893.559ZM870.37 40.6009L889.613 57.1793H865.11L848.825 40.6009H870.37ZM847.173 40.6009L863.457 57.1793H838.781L825.477 40.6009H847.173ZM823.976 40.6009L837.295 57.1793H812.483L802.137 40.6009H823.976ZM800.763 40.6009L811.124 57.1793H786.222L778.811 40.6009H800.763ZM777.544 40.6009L784.947 57.1793H759.923L755.463 40.6009H777.544ZM754.301 40.6009L758.746 57.1793H733.685L732.176 40.6009H754.301ZM731.051 40.6009L732.561 57.1793H707.447L708.956 40.6009H731.051ZM706.292 57.1793H681.231L685.676 40.6009H707.794L706.292 57.1793ZM680.039 57.1793H655.031L662.434 40.6009H684.529L680.039 57.1793ZM653.763 57.1793H628.86L639.252 40.6009H661.219L653.763 57.1793ZM627.479 57.1793H602.675L616.002 40.6009H637.886L627.479 57.1793ZM601.173 57.1793H576.52L592.805 40.6009H614.515L601.173 57.1793ZM574.867 57.1793H550.365L569.607 40.6009H591.167L574.867 57.1793ZM548.553 57.1793H524.209L546.433 40.6009H567.827L548.553 57.1793ZM522.232 57.1793H498.062L523.236 40.6009H544.456L522.232 57.1793ZM495.903 57.1793H471.906L500.054 40.6009H521.093L495.903 57.1793ZM469.575 57.1793H445.781L476.872 40.6009H497.722L469.575 57.1793ZM443.246 57.1793H419.656L453.697 40.6009H474.359L443.246 57.1793ZM416.917 57.1793H393.524L430.5 40.6009H450.966L416.917 57.1793ZM390.581 57.1793H367.369L407.364 40.6009H427.633L390.581 57.1793ZM364.244 57.1793H341.236L384.189 40.6009H404.255L364.244 57.1793ZM337.908 57.1793H315.096L361 40.6009H380.861L337.908 57.1793ZM311.572 57.1793H288.933L337.825 40.6009H357.491L311.572 57.1793ZM285.235 57.1793H262.831L314.651 40.6009H334.112L285.235 57.1793ZM258.899 57.1793H236.698L291.476 40.6009H310.734L258.899 57.1793ZM232.563 57.1793H210.566L268.309 40.6009H287.356L232.563 57.1793ZM206.219 57.1793H184.433L245.135 40.6009H264L206.219 57.1793ZM179.883 57.1793H158.3L221.945 40.6009H240.577L179.883 57.1793ZM153.682 58.3783H175.491L114.789 74.9088H90.0296L153.682 58.3783ZM180.026 58.3783H202.046L144.302 74.9487H119.317L180.026 58.3783ZM144.453 76.1477H169.876L115.091 92.7182H86.7168L144.453 76.1477ZM115.242 93.8772H144.023L92.203 110.456H60.456L115.242 93.8772ZM147.939 93.8772H176.924L128.07 110.456H96.1194L147.939 93.8772ZM128.244 111.655H160.609L114.713 128.225H79.3819L128.244 111.655ZM114.894 129.424H150.641L107.703 145.994H68.9983L114.894 129.424ZM107.907 147.193H147.026L107.031 163.772H64.9837L107.907 147.193ZM107.243 164.971H149.735L112.721 181.541H67.2853L107.243 164.971ZM112.948 182.74H158.821L124.765 199.319H75.9559L112.948 182.74ZM125.021 200.518H174.261L143.163 217.088H90.9805L125.021 200.518ZM88.5053 218.287H140.914L109.838 234.842H54.4643L88.5053 218.287ZM110.095 236.057H165.869L137.744 252.635H79.0121L110.095 236.057ZM138.016 253.834H197.194L172.027 270.404H109.922L138.016 253.834ZM107.831 271.603H170.148L144.981 288.174H79.7517L107.831 271.603ZM145.298 289.373H210.95L188.825 305.983H120.154L145.298 289.373ZM118.313 307.15H187.233L165.024 323.721H93.1915L118.313 307.15ZM165.349 324.92H237.566L218.315 341.498H143.155L165.349 324.92ZM141.533 342.697H216.912L197.661 359.268H119.317L141.533 342.697ZM117.717 360.467H196.288L177.038 377.037H95.5384L117.717 360.467ZM198.061 360.467H276.799L260.514 377.037H178.834L198.061 360.467ZM278.414 360.467H357.302L343.983 377.037H262.144L278.414 360.467ZM358.773 360.467H437.805L427.437 377.037H345.469L358.773 360.467ZM439.148 360.467H518.286L510.883 377.037H428.795L439.148 360.467ZM519.523 360.467H598.759L594.314 377.037H512.135L519.523 360.467ZM599.921 360.467H679.247L677.737 377.037H595.483L599.921 360.467ZM680.333 360.467H759.629L761.138 377.037H678.884L680.333 360.467ZM762.255 377.037L760.746 360.467H839.981L844.426 377.037H762.255ZM845.671 377.037L841.226 360.467H920.462L927.865 377.037H845.671ZM929.102 377.037L921.699 360.467H1000.83L1011.19 377.037H929.102ZM1012.55 377.037L1002.23 360.467H1081.24L1094.56 377.037H1012.55ZM1096 377.037L1082.68 360.467H1161.55L1177.84 377.037H1096ZM1179.47 377.037L1163.19 360.467H1241.91L1261.15 377.037H1179.47ZM1262.95 377.037L1243.7 360.467H1322.26L1344.47 377.037H1262.95ZM1242.31 359.268L1223.06 342.697H1298.44L1320.65 359.268H1242.31ZM1221.67 341.498L1202.42 324.92H1274.64L1296.85 341.498H1221.67ZM1274.98 323.721L1252.76 307.15H1321.61L1346.79 323.721H1274.98ZM1251.17 305.983L1228.96 289.405H1294.61L1319.81 305.983H1251.17ZM1294.94 288.206L1269.79 271.611H1332.11L1360.24 288.182L1294.94 288.206ZM1267.94 270.436L1242.78 253.866H1301.92L1330.05 270.436H1267.94ZM1302.21 252.667L1274.08 236.089H1329.87L1360.96 252.667H1302.21ZM1330.13 234.89L1299.04 218.319H1351.45L1385.53 234.842L1330.13 234.89ZM1296.79 217.12L1265.69 200.55H1314.93L1348.99 217.12H1296.79ZM1315.18 199.351L1281.13 182.772H1327L1363.98 199.351H1315.18ZM1327.26 181.573L1290.28 165.003H1332.75L1372.74 181.573H1327.26ZM1332.95 163.804L1292.96 147.225H1332.08L1375.02 163.804H1332.95ZM1332.3 146.026L1289.36 129.456H1325.11L1371 146.026H1332.3ZM1325.29 128.257L1279.39 111.687H1311.76L1360.62 128.257H1325.29ZM1311.93 110.488L1263.08 93.9092H1292.06L1343.88 110.488H1311.93ZM1347.8 110.488L1295.98 93.9092H1324.76L1379.54 110.488H1347.8ZM1324.92 92.7102L1270.12 76.1078H1295.52L1353.27 92.6782L1324.92 92.7102ZM1295.68 74.9408L1237.94 58.3703H1259.96L1320.68 74.9088L1295.68 74.9408ZM1325.2 74.9408L1264.49 58.3703H1286.3L1349.97 74.9408H1325.2ZM1286.45 57.1713L1222.77 40.6009H1241.19L1307.82 57.1793L1286.45 57.1713ZM1312.78 57.1713L1246.15 40.6009H1264.37L1333.96 57.1793L1312.78 57.1713ZM1339.12 57.1713L1269.53 40.6009H1287.53L1360.08 57.1793L1339.12 57.1713ZM1365.46 57.1713L1292.91 40.6009H1310.71L1386.21 57.1793L1365.46 57.1713ZM1229.74 22.7995L1305.25 39.3699H1287.66L1215.11 22.7995H1229.74ZM1209.75 22.7995L1282.3 39.3699H1264.49L1194.91 22.7995H1209.75ZM1189.75 22.7995L1259.34 39.3699H1241.33L1174.71 22.7995H1189.75ZM1169.75 22.7995L1236.38 39.3699H1218.17L1154.5 22.7995H1169.75ZM1149.76 22.7995L1213.43 39.3699H1195.01L1134.28 22.7915L1149.76 22.7995ZM1129.76 22.7995L1190.47 39.3699H1171.84L1114.1 22.7995H1129.76ZM1109.77 22.7995L1167.49 39.3619H1148.62L1093.84 22.7915L1109.77 22.7995ZM1089.78 22.7995L1144.55 39.3699H1125.52L1073.7 22.7995H1089.78ZM1069.78 22.7995L1121.6 39.3699H1102.35L1053.49 22.7995H1069.78ZM1049.78 22.7995L1098.64 39.3699H1079.2L1033.3 22.7995H1049.78ZM1029.78 22.7995L1075.68 39.3699H1056.06L1013.12 22.7995H1029.78ZM1009.79 22.7995L1052.72 39.3699H1032.86L992.868 22.7995H1009.79ZM989.789 22.7995L1029.78 39.3699H1009.73L972.719 22.7995H989.789ZM969.791 22.7995L1006.77 39.3699H986.514L952.458 22.7995H969.791ZM949.786 22.7995L983.842 39.3699H963.392L932.302 22.7995H949.786ZM929.781 22.7995L960.879 39.3699H940.24L912.108 22.7995H929.781ZM909.776 22.7995L937.909 39.3699H917.089L891.914 22.7995H909.776ZM889.771 22.7995L914.945 39.3699H893.937L871.728 22.7995H889.771ZM869.766 22.7995L891.975 39.3699H870.792L851.542 22.7995H869.766ZM849.754 22.7995L868.996 39.3699H847.648L831.363 22.7995H849.754ZM829.733 22.7995L846.018 39.3619H824.511L811.185 22.7915L829.733 22.7995ZM809.706 22.7995L823.032 39.3699H801.39L791.029 22.7995H809.706ZM789.67 22.7995L800.039 39.3699H778.283L770.88 22.7995H789.67ZM769.628 22.7995L777.031 39.3699H755.184L750.74 22.7995H769.628ZM749.562 22.7995L754.007 39.3699H732.07L730.561 22.7995H749.562ZM729.482 22.7995L730.991 39.3699H709.031L710.541 22.7995H729.482ZM707.922 39.3619H686.038L690.483 22.7915H709.424L707.922 39.3619ZM684.838 39.3619H662.954L670.357 22.7915H689.223L684.838 39.3619ZM661.739 39.3619H639.961L650.329 22.7915H669.12L661.739 39.3619ZM638.633 39.3619H616.968L630.294 22.7915H648.971L638.633 39.3619ZM615.504 39.3619H593.974L610.259 22.7915H628.8L615.504 39.3619ZM592.367 39.3619H571.004L590.254 22.7915H608.637L592.367 39.3619ZM569.23 39.3619H548.025L570.234 22.7915H588.458L569.23 39.3619ZM546.086 39.3619H525.055L550.206 22.7915H568.249L546.086 39.3619ZM522.934 39.3619H502.091L530.224 22.7915H548.086L522.934 39.3619ZM499.782 39.3619H479.121L510.211 22.7915H527.884L499.782 39.3619ZM476.63 39.3619H456.18L490.236 22.7915H507.721L476.63 39.3619ZM453.471 39.3619H433.194L470.171 22.7915H487.467L453.471 39.3619ZM430.312 39.3619H410.239L450.234 22.7915H467.326L430.312 39.3619ZM407.152 39.3619H387.276L430.221 22.7915H447.117L407.152 39.3619ZM383.993 39.3619H364.373L410.269 22.7915H426.961L383.993 39.3619ZM360.834 39.3619H341.357L390.226 22.7915H406.715L360.834 39.3619ZM337.674 39.3619H318.401L370.221 22.7915H386.506L337.674 39.3619ZM314.507 39.3619H295.445L350.231 22.7915H366.305L314.507 39.3619ZM291.348 39.3619H272.505L330.249 22.7915H346.096L291.348 39.3619ZM268.181 39.3619H249.527L310.236 22.7915H325.902L268.181 39.3619ZM245.014 39.3619H226.571L290.239 22.7915H305.708L245.014 39.3619ZM221.855 39.3619H203.615L270.241 22.7915H285.492L221.855 39.3619ZM198.688 39.3619H180.66L250.251 22.7915H265.291L198.688 39.3619ZM175.528 39.3619H157.704L230.246 22.7915H245.082L175.528 39.3619ZM152.361 39.3619H134.749L210.264 22.7915H224.888L152.361 39.3619ZM129.195 39.3619H111.77L190.251 22.7915H204.664L129.195 39.3619ZM106.028 39.3619H88.8373L170.276 22.7915H184.478L106.028 39.3619ZM82.9513 40.6009H100.308L21.8268 57.1793H1.45202L82.9513 40.6009ZM106.118 40.6009H123.708L48.1934 57.1393H27.645L106.118 40.6009ZM129.285 40.6009H147.087L74.5372 57.1793H53.7776L129.285 40.6009ZM74.658 58.3783H95.8402L26.2565 74.9088H2.10855L74.658 58.3783ZM101.002 58.3783H122.395L55.7698 74.9088H31.4105L101.002 58.3783ZM127.353 58.3783H148.951L85.2831 74.9088H60.7201L127.353 58.3783ZM85.4189 76.1477H110.404L49.7026 92.6782H21.7816L85.4189 76.1477ZM114.947 76.1477H140.137L82.3929 92.7182H54.2379L114.947 76.1477ZM82.5438 93.9172H111.121L56.3357 110.496H24.8001L82.5438 93.9172ZM56.4942 111.655H88.4525L36.6325 128.225H1.7086L56.4942 111.655ZM92.369 111.655H124.531L75.6692 128.225H40.549L92.369 111.655ZM75.8427 129.424H111.393L65.4893 145.994H27.0035L75.8427 129.424ZM65.678 147.193H104.594L61.6558 163.772H19.7818L65.678 147.193ZM61.8596 164.971H104.156L64.1612 181.541H18.9517L61.8596 164.971ZM64.3951 182.74H110.065L73.0506 199.319H24.4152L64.3951 182.74ZM73.2846 200.518H122.335L88.2865 217.088H36.2628L73.2846 200.518ZM33.5914 218.287H85.8113L51.7476 234.842H-3.43038L33.5914 218.287ZM52.0042 236.057H107.597L76.5068 252.635H17.9481L52.0042 236.057ZM76.7709 253.834H135.73L107.597 270.404H45.6729L76.7709 253.834ZM43.4241 271.611H105.552L77.4199 288.182H12.3261L43.4241 271.611ZM77.7142 289.381H143.208L118.041 305.983H49.5819L77.7142 289.381ZM47.5293 307.158H116.2L91.0257 323.729H19.4196L47.5293 307.158ZM91.3955 324.92H163.424L141.201 341.498H66.1986L91.3955 324.92ZM64.38 342.697H139.586L117.377 359.268H39.2133L64.38 342.697ZM37.3872 360.467H115.77L93.5537 377.037H12.2205L37.3872 360.467ZM93.9159 378.236H175.642L156.399 394.814H71.7074L93.9159 378.236ZM177.438 378.236H259.337L243.075 394.814H158.195L177.438 378.236ZM260.967 378.236H343.017L329.69 394.814H244.682L260.967 378.236ZM344.503 378.236H426.689L416.321 394.814H331.177L344.503 378.236ZM428.048 378.236H510.347L502.944 394.814H417.672L428.048 378.236ZM511.6 378.236H593.974L589.529 394.814H504.174L511.6 378.236ZM595.174 378.236H677.624L676.115 394.814H590.729L595.174 378.236ZM678.764 378.236H761.229L762.738 394.814H677.277L678.764 378.236ZM763.847 394.814L762.338 378.236H844.788L849.233 394.814H763.847ZM850.44 394.814L845.996 378.236H928.393L935.796 394.814H850.44ZM937.048 394.814L929.645 378.236H1011.94L1022.31 394.814H937.048ZM1023.67 394.814L1013.3 378.236H1095.49L1108.82 394.814H1023.67ZM1110.3 394.814L1096.98 378.236H1179.03L1195.31 394.814H1110.3ZM1196.95 394.814L1180.66 378.236H1262.57L1281.81 394.814H1196.95ZM1283.59 394.814L1264.35 378.236H1346.08L1368.29 394.814H1283.59ZM1346.44 377.037L1324.22 360.467H1402.61L1427.77 377.037H1346.44ZM1322.62 359.268L1300.41 342.697H1375.61L1400.78 359.268H1322.62ZM1298.79 341.498L1276.58 324.92H1348.6L1373.77 341.498H1298.79ZM1348.94 323.721L1323.76 307.15H1392.43L1420.57 323.721H1348.94ZM1321.95 305.983L1296.78 289.405H1362.28L1390.41 305.983H1321.95ZM1362.57 288.206L1334.44 271.611H1396.57L1427.67 288.182L1362.57 288.206ZM1332.39 270.436L1304.26 253.866H1363.21L1394.3 270.436H1332.39ZM1363.48 252.667L1332.39 236.089H1387.98L1422.03 252.667H1363.48ZM1388.23 234.89L1354.17 218.319H1406.39L1443.42 234.842L1388.23 234.89ZM1351.71 217.12L1317.66 200.518H1366.71L1403.68 217.088L1351.71 217.12ZM1366.93 199.351L1329.95 182.772H1375.62L1415.61 199.351H1366.93ZM1375.79 181.573L1335.8 165.003H1378.1L1421.03 181.573H1375.79ZM1378.32 163.804L1335.38 147.225H1374.3L1420.2 163.804H1378.32ZM1374.49 146.026L1328.59 129.456H1364.13L1412.99 146.026H1374.49ZM1364.31 128.257L1315.45 111.687H1347.61L1399.43 128.257H1364.31ZM1403.34 128.257L1351.52 111.687H1383.48L1438.27 128.257H1403.34ZM1383.64 110.488L1328.86 93.9092H1357.43L1415.18 110.488H1383.64ZM1357.58 92.7102L1299.84 76.1398H1325.03L1385.74 92.7102H1357.58ZM1390.27 92.7102L1329.57 76.1398H1354.56L1418.22 92.7102H1390.27ZM1354.69 74.9408L1291.03 58.3703H1312.62L1379.26 74.9408H1354.69ZM1384.21 74.9408L1317.58 58.3703H1338.98L1408.57 74.9408H1384.21ZM1413.72 74.9408L1344.13 58.3703H1365.32L1437.87 74.9408H1413.72ZM1443.24 74.9408L1370.69 58.3703H1391.66L1443.87 69.8249V74.9408H1443.24ZM1391.78 57.1713L1316.28 40.6009H1333.87L1412.35 57.1793L1391.78 57.1713ZM1418.12 57.1713L1339.64 40.5929H1357L1438.43 57.1713H1418.12ZM1357.14 39.3939L1275.7 22.8235H1289.74L1374.13 39.3939H1357.14ZM1380.3 39.3939L1295.92 22.7915H1309.7L1397.06 39.3619L1380.3 39.3939ZM1403.47 39.3939L1316.15 22.7915H1329.73L1420.04 39.3619L1403.47 39.3939ZM1426.63 39.3939L1336.32 22.8235H1349.68L1442.95 39.3939H1426.63ZM1342.93 21.6245H1329.78L1239.48 5.01407H1249.67L1342.93 21.6245ZM1323.15 21.6245H1309.79L1222.43 5.04607H1232.83L1323.15 21.6245ZM1303.37 21.6245H1289.79L1205.39 5.04607H1216L1303.37 21.6245ZM1283.59 21.6245H1269.81L1188.39 5.01407H1199.18L1283.59 21.6245ZM1263.82 21.6245H1249.82L1171.34 5.04607H1182.36L1263.82 21.6245ZM1244.04 21.6245H1229.83L1154.32 5.04607H1165.56L1244.04 21.6245ZM1224.25 21.6245H1209.84L1137.3 5.01407H1148.75L1224.25 21.6245ZM1204.47 21.6245H1189.85L1120.26 5.04607H1131.92L1204.47 21.6245ZM1184.69 21.6245H1169.86L1103.24 5.04607H1115.1L1184.69 21.6245ZM1164.91 21.6245H1149.87L1086.21 5.04607H1098.28L1164.91 21.6245ZM1145.14 21.6245H1129.88L1069.18 5.04607H1081.46L1145.14 21.6245ZM1125.35 21.6245H1109.91L1052.17 5.04607H1064.66L1125.35 21.6245ZM1105.57 21.6245H1089.9L1035.13 5.04607H1047.83L1105.57 21.6245ZM1085.79 21.6245H1069.94L1018.12 5.04607H1031.03L1085.79 21.6245ZM1066.01 21.6245H1049.93L1001.07 5.04607H1014.19L1066.01 21.6245ZM1046.23 21.6245H1029.95L984.054 5.04607H997.365L1046.23 21.6245ZM1026.44 21.6245H1009.97L967.029 5.04607H980.545L1026.44 21.6245ZM1006.65 21.6245H989.978L949.983 5.04607H963.739L1006.65 21.6245ZM986.869 21.6245H969.995L933.019 5.04607H946.934L986.869 21.6245ZM967.09 21.6245H950.013L915.957 5.04607H930.076L967.09 21.6245ZM947.296 21.6245H930.03L898.94 5.04607H913.278L947.296 21.6245ZM927.51 21.6245H910.048L881.916 5.04607H896.419L927.51 21.6245ZM907.724 21.6245H890.088L864.884 5.01407H879.576L907.724 21.6245ZM887.93 21.6245H870.098L847.89 5.04607H862.756L887.93 21.6245ZM868.136 21.6245H850.131L830.926 5.01407H845.973L868.136 21.6245ZM848.335 21.6245H830.171L813.886 5.04607H829.092L848.335 21.6245ZM828.534 21.6245H810.204L796.877 5.04607H812.241L828.534 21.6245ZM808.717 21.6245H790.259L779.891 5.04607H795.391L808.717 21.6245ZM788.901 21.6245H770.322L762.919 5.04607H778.532L788.901 21.6245ZM769.069 21.6245H750.4L745.955 5.04607H761.666L769.069 21.6245ZM749.223 21.6245H730.508L728.999 5.04607H744.763L749.223 21.6245ZM729.354 21.6245H710.624L712.133 5.04607H727.92L729.354 21.6245ZM709.469 21.6245H690.755L695.199 5.04607H710.941L709.469 21.6245ZM689.562 21.6245H670.946L678.349 5.04607H694.06L689.562 21.6245ZM669.64 21.6245H651.076L661.445 5.04607H677.058L669.64 21.6245ZM649.703 21.6245H631.26L644.587 5.04607H660.087L649.703 21.6245ZM629.758 21.6245H611.444L627.736 5.04607H643.1L629.758 21.6245ZM609.799 21.6245H591.642L610.893 5.04607H626.098L609.799 21.6245ZM589.831 21.6245H571.841L594.05 5.04607H609.067L589.831 21.6245ZM569.864 21.6245H552.047L577.222 5.04607H592.088L569.864 21.6245ZM549.889 21.6245H532.254L560.386 5.04607H575.109L549.889 21.6245ZM529.914 21.6245H512.475L543.565 5.04607H558.069L529.914 21.6245ZM509.932 21.6245H492.681L526.73 5.04607H541.068L509.932 21.6245ZM489.949 21.6245H472.887L509.902 5.04607H524.021L489.949 21.6245ZM469.967 21.6245H453.101L493.096 5.04607H507.011L469.967 21.6245ZM449.985 21.6245H433.308L476.253 5.01407H489.972L449.985 21.6245ZM429.995 21.6245H413.536L459.44 5.04607H472.948L429.995 21.6245ZM410.012 21.6245H393.75L442.612 5.04607H455.931L410.012 21.6245ZM390.03 21.6245H373.956L425.776 5.04607H438.892L390.03 21.6245ZM370.04 21.6245H354.193L408.978 5.04607H421.883L370.04 21.6245ZM350.05 21.6245H334.384L392.128 5.04607H404.828L350.05 21.6245ZM330.068 21.6245H314.628L375.33 5.04607H387.826L330.068 21.6245ZM310.078 21.6245H294.834L358.532 5.01407H370.81L310.078 21.6245ZM290.088 21.6245H275.063L341.696 5.04607H353.77L290.088 21.6245ZM270.098 21.6245H255.284L324.876 5.04607H336.738L270.098 21.6245ZM250.108 21.6245H235.528L308.078 5.04607H319.737L250.108 21.6245ZM230.118 21.6245H215.727L291.235 5.04607H302.69L230.118 21.6245ZM210.128 21.6245H195.941L274.422 5.04607H285.666L210.128 21.6245ZM190.145 21.6245H176.162L257.601 5.04607H268.626L190.145 21.6245ZM170.155 21.6245H156.384L240.811 5.01407H251.602L170.155 21.6245ZM150.158 21.6245H136.575L223.93 5.04607H234.54L150.158 21.6245ZM130.168 21.6245H116.826L207.147 5.04607H217.546L130.168 21.6245ZM110.178 21.6245H97.0476L190.327 5.01407H200.514L110.178 21.6245ZM90.1957 21.6245H77.269L173.506 5.04607H183.459L90.1957 21.6245ZM70.1982 21.6245H57.4903L156.693 5.04607H166.458L70.1982 21.6245ZM50.2082 21.6245H37.7116L139.872 5.04607H149.426L50.2082 21.6245ZM30.2182 21.6245H17.933L123.09 5.01407H132.424L30.2182 21.6245ZM10.2283 21.6245H-1.84568L106.246 5.04607H115.37L10.2283 21.6245ZM-3.88316 25.0616L10.3113 22.8235H22.8456L-3.86807 27.124L-3.88316 25.0616ZM-3.88316 28.3709L30.3013 22.8235H43.0468L-3.86807 30.6251L-3.88316 28.3709ZM-3.88316 31.8721L50.2988 22.8235H63.2556L-3.86807 34.35L-3.88316 31.8721ZM-3.88316 35.597L70.2887 22.8075H83.4418L-3.86807 38.3068L-3.88316 35.597ZM-3.88316 43.7663L13.4279 40.5689H30.1881L-3.86807 46.9957L-3.88316 43.7663ZM-3.88316 48.2746L36.6099 40.6009H53.5663L-3.86807 51.8397L-3.88316 48.2746ZM-3.88316 53.0707L59.7768 40.6009H76.952L-3.86807 57.0115L-3.88316 53.0707ZM-3.88316 58.3464H16.1823L-3.86807 62.5669L-3.88316 58.3464ZM-3.88316 63.7979L21.9702 58.3384H42.7374L-3.86807 68.578L-3.88316 63.7979ZM-3.88316 69.793L48.299 58.3464H69.285L-3.26437 74.9088H-3.86807L-3.88316 69.793ZM-3.88316 76.2836L-3.12854 76.1158H21.2156L-3.86807 82.0789L-3.88316 76.2836ZM-3.88316 83.3179L26.3621 76.1238H50.9477L-3.86807 89.7446L-3.88316 83.3179ZM-3.88316 90.9836L55.9282 76.1078H80.6799L17.0123 92.6782H-3.86807L-3.88316 90.9836ZM-3.88316 99.3607L17.1331 93.8852H45.3107L-3.86807 107.306L-3.88316 99.3607ZM-3.88316 108.553L49.8309 93.8852H78.2047L20.461 110.456H-3.86807L-3.88316 108.553ZM-3.88316 118.689L20.6043 111.663H52.374L-2.41164 128.225H-3.86807L-3.88316 118.689ZM-3.88316 129.92L-2.26827 129.432H32.8821L-3.86807 141.174L-3.88316 129.92ZM-3.88316 142.437L36.7835 129.432H72.1224L23.2757 145.994H-3.86807L-3.88316 142.437ZM-3.86807 156.506L23.4795 147.193H62.169L16.2728 163.772H-3.86807V156.506ZM-3.86807 172.349L16.4615 165.011H58.5543L15.6163 181.581H-3.86807V172.349ZM-3.86807 190.382L15.82 182.78H61.2861L21.2911 199.359H-3.86807V190.382ZM-3.86807 211.077L21.525 200.558H70.3717L33.3952 217.128H-3.86807V211.077ZM-3.86807 263.29L15.4805 253.834H74.2429L43.1525 270.404H-3.86807V263.29ZM-3.86807 296.863L10.0774 289.429H75.39L47.2576 305.983H-3.86807V296.863ZM-3.86807 337.493L17.3821 324.976H89.2297L64.0555 341.554H-3.86807V337.493ZM-3.86807 387.684L10.3943 378.292H91.9539L69.7378 394.814H-3.86807V387.684ZM70.085 396.069H155.003L135.752 412.64H47.8915L70.085 396.069ZM156.784 396.069H241.867L225.583 412.64H137.548L156.784 396.069ZM243.49 396.069H328.724L315.398 412.64H227.228L243.49 396.069ZM330.196 396.069H415.574L405.213 412.64H316.922L330.196 396.069ZM416.917 396.069H502.408L495.005 412.64H406.564L416.917 396.069ZM503.646 396.069H589.22L584.775 412.64H496.258L503.646 396.069ZM590.427 396.069H676.039L674.53 412.64H585.968L590.427 396.069ZM677.209 396.069H762.859L764.368 412.64H675.692L677.209 396.069ZM763.991 396.069H849.61L854.055 412.64H765.44L763.991 396.069ZM850.772 396.069H936.346L943.749 412.64H855.202L850.772 396.069ZM937.599 396.069H1023.08L1033.44 412.64H945.002L937.599 396.069ZM1024.43 396.069H1109.8L1123.12 412.64H1034.83L1024.43 396.069ZM1111.28 396.069H1196.5L1212.79 412.64H1124.59L1111.28 396.069ZM1198.14 396.069H1283.21L1302.46 412.64H1214.41L1198.14 396.069ZM1285 396.069H1369.91L1392.12 412.64H1304.23L1285 396.069ZM1371.87 396.069H1443.9V412.64H1394.09L1371.87 396.069ZM1370.27 394.87L1348.05 378.292H1429.61L1443.9 387.7V394.894L1370.27 394.87ZM1431.76 378.292H1443.9V386.285L1431.76 378.292ZM1375.91 341.522L1350.74 324.944H1422.59L1443.86 337.477V341.522H1375.91ZM1424.92 324.944H1443.86V336.135L1424.92 324.944ZM1392.73 305.983L1364.6 289.405H1429.92L1443.88 296.855V305.983H1392.73ZM1432.43 289.405H1443.88V295.512L1432.43 289.405ZM1396.84 270.436L1365.75 253.866H1424.51L1443.88 263.29V270.436H1396.84ZM1427.22 253.866H1443.88V261.939L1427.22 253.866ZM1409.31 218.319H1443.88V233.794L1409.31 218.319ZM1406.64 217.12L1369.62 200.55H1418.47L1443.88 211.085V217.12H1406.64ZM1421.58 200.55H1443.88V209.798L1421.58 200.55ZM1418.68 199.351L1378.68 182.772H1424.15L1443.86 190.382V199.351H1418.68ZM1427.49 182.772H1443.88V189.103L1427.49 182.772ZM1424.38 181.573L1381.44 165.003H1423.53L1443.91 172.349V181.573H1424.38ZM1427.04 165.003H1443.88V171.078L1427.04 165.003ZM1423.72 163.804L1377.82 147.225H1416.51L1443.88 156.506V163.804H1423.72ZM1420.25 147.225H1443.88V155.219L1420.25 147.225ZM1416.72 146.026L1367.85 129.456H1403.19L1443.88 142.469V146.026H1416.72ZM1407.11 129.456H1442.25L1443.88 129.952V141.214L1407.11 129.456ZM1442.4 128.257L1387.62 111.687H1419.37L1443.88 118.721V128.257H1442.4ZM1423.7 111.687H1443.88V117.474L1423.7 111.687ZM1419.52 110.488L1361.77 93.9092H1390.15L1443.88 108.545V110.448L1419.52 110.488ZM1394.68 93.9092H1422.84L1443.88 99.3847V107.378L1394.68 93.9092ZM1427.58 93.9092H1443.88V98.1537L1427.58 93.9092ZM1422.98 92.7102L1359.31 76.1398H1384.06L1443.88 90.9596V92.6542L1422.98 92.7102ZM1389.02 76.1398H1413.59L1443.86 83.3339V89.7286L1389.02 76.1398ZM1418.75 76.1398H1443.11L1443.87 76.3076V82.1189L1418.75 76.1398ZM1397.24 58.3703H1418.02L1443.88 63.8298V68.6259L1397.24 58.3703ZM1423.79 58.3703H1443.86V62.6069L1423.79 58.3703ZM1363.04 40.6009H1380.22L1443.88 53.1027V57.0514L1363.04 40.6009ZM1386.43 40.6009H1403.4L1443.9 48.2826V51.8876L1386.43 40.6009ZM1409.83 40.6009H1426.57L1443.93 43.7983V46.9957L1409.83 40.6009ZM1433.22 40.6009H1443.92V42.5673L1433.22 40.6009ZM1356.57 22.8315H1369.73L1443.92 35.621V38.3627L1356.57 22.8315ZM1376.77 22.8315H1389.72L1443.92 31.888V34.39L1376.77 22.8315ZM1396.98 22.8315H1409.71L1443.92 28.3789V30.6731L1396.98 22.8315ZM1417.18 22.8315H1429.7L1443.92 25.0696V27.1639L1417.18 22.8315ZM1437.39 22.8315H1443.92V23.8147L1437.39 22.8315ZM1341.65 5.01407H1350.57L1443.88 18.9466V20.6893L1341.65 5.01407ZM1358.68 5.01407H1367.39L1443.88 16.141V17.7397L1358.68 5.01407ZM1375.71 5.01407H1384.21L1443.88 13.4711V14.926L1375.71 5.01407ZM38.9341 5.01407H47.235L-3.86807 12.2561V10.9372L38.9341 5.01407ZM-3.86807 396.013H68.138L45.9219 412.584H-3.86807V396.013Z" fill="url(#paint1_linear_5582_15912)"/>
</g>
</g>
</g>
<defs>
<filter id="filter0_d_5582_15912" x="-10" y="-1.16895" width="1460" height="419.952" filterUnits="userSpaceOnUse" color-interpolation-filters="sRGB">
<feFlood flood-opacity="0" result="BackgroundImageFix"/>
<feColorMatrix in="SourceAlpha" type="matrix" values="0 0 0 0 0 0 0 0 0 0 0 0 0 0 0 0 0 0 127 0" result="hardAlpha"/>
<feOffset/>
<feGaussianBlur stdDeviation="2.5"/>
<feComposite in2="hardAlpha" operator="out"/>
<feColorMatrix type="matrix" values="0 0 0 0 0.909804 0 0 0 0 0.262745 0 0 0 0 0.768627 0 0 0 1 0"/>
<feBlend mode="normal" in2="BackgroundImageFix" result="effect1_dropShadow_5582_15912"/>
<feBlend mode="normal" in="SourceGraphic" in2="effect1_dropShadow_5582_15912" result="shape"/>
</filter>
<linearGradient id="paint0_linear_5582_15912" x1="720" y1="0" x2="720" y2="424" gradientUnits="userSpaceOnUse">
<stop stop-opacity="0"/>
<stop offset="0.145833" stop-opacity="0.48"/>
<stop offset="0.265625" stop-opacity="0.28"/>
<stop offset="1" stop-opacity="0"/>
</linearGradient>
<linearGradient id="paint1_linear_5582_15912" x1="720" y1="3.83105" x2="720" y2="413.783" gradientUnits="userSpaceOnUse">
<stop stop-color="#E843C4"/>
<stop offset="0.505208" stop-color="#F79640"/>
<stop offset="0.796875" stop-color="#FFBF00"/>
</linearGradient>
</defs>
</svg>
