<svg width="40" height="41" viewBox="0 0 40 41" fill="none" xmlns="http://www.w3.org/2000/svg">
<path d="M39.5 20.001C39.5 30.7711 30.7695 39.5019 20 39.5019C9.23047 39.5019 0.5 30.7711 0.5 20.001C0.5 9.23085 9.23047 0.5 20 0.5C30.7695 0.5 39.5 9.23085 39.5 20.001Z" fill="#211426" stroke="url(#paint0_linear_7023_11054)"/>
<path d="M27.4076 20.7124C27.4076 22.9102 26.4415 24.883 24.9126 26.2334L21.3585 23.1309H24.8107C25.0899 23.1309 25.3203 22.9058 25.3203 22.6234C25.3203 22.3453 25.0943 22.1159 24.8107 22.1159H15.1897C14.9105 22.1159 14.6801 22.3409 14.6801 22.6234C14.6801 22.9014 14.9061 23.1309 15.1897 23.1309H19.0673L15.2296 26.3526C13.6165 24.9977 12.5928 22.972 12.5928 20.708C12.5928 16.6346 15.9076 13.3335 19.998 13.3335C24.0883 13.3379 27.4076 16.639 27.4076 20.7124Z" fill="url(#paint1_linear_7023_11054)"/>
<defs>
<linearGradient id="paint0_linear_7023_11054" x1="20" y1="0" x2="20" y2="40.0019" gradientUnits="userSpaceOnUse">
<stop stop-color="#FFBF00"/>
<stop offset="1" stop-color="#E843C4"/>
</linearGradient>
<linearGradient id="paint1_linear_7023_11054" x1="20.0002" y1="13.3335" x2="20.0002" y2="26.3526" gradientUnits="userSpaceOnUse">
<stop stop-color="#FFBF00"/>
<stop offset="1" stop-color="#E843C4"/>
</linearGradient>
</defs>
</svg>
