<svg width="540" height="30" viewBox="0 0 540 30" fill="none" xmlns="http://www.w3.org/2000/svg">
<path d="M2 13C0.89543 13 -9.65645e-08 13.8954 0 15C9.65645e-08 16.1046 0.895431 17 2 17L2 13ZM539.414 16.4142C540.195 15.6331 540.195 14.3668 539.414 13.5857L526.686 0.857819C525.905 0.0767698 524.639 0.0767699 523.858 0.857819C523.077 1.63887 523.077 2.9052 523.858 3.68625L535.172 15L523.858 26.3137C523.077 27.0947 523.077 28.361 523.858 29.1421C524.639 29.9231 525.905 29.9231 526.686 29.1421L539.414 16.4142ZM2 17L538 17L538 13L2 13L2 17Z" fill="#FFBF00"/>
</svg>
