<svg width="92" height="103" viewBox="0 0 92 103" fill="none" xmlns="http://www.w3.org/2000/svg">
<path d="M1 55.2709H0V56.2709H1V55.2709ZM84 55.2709H85V54.2709H84V55.2709ZM83.2929 102.707C83.6834 103.098 84.3166 103.098 84.7071 102.707L91.0711 96.3431C91.4616 95.9526 91.4616 95.3195 91.0711 94.9289C90.6805 94.5384 90.0474 94.5384 89.6569 94.9289L84 100.586L78.3431 94.9289C77.9526 94.5384 77.3195 94.5384 76.9289 94.9289C76.5384 95.3195 76.5384 95.9526 76.9289 96.3431L83.2929 102.707ZM0 0V55.2709H2V0H0ZM1 56.2709H84V54.2709H1V56.2709ZM83 55.2709V102H85V55.2709H83Z" fill="#FFBF00"/>
</svg>
