<svg width="289" height="256" viewBox="0 0 289 256" fill="none" xmlns="http://www.w3.org/2000/svg">
<path d="M272.586 255.414C273.367 256.195 274.633 256.195 275.414 255.414L288.142 242.686C288.923 241.905 288.923 240.639 288.142 239.858C287.361 239.077 286.095 239.077 285.314 239.858L274 251.172L262.686 239.858C261.905 239.077 260.639 239.077 259.858 239.858C259.077 240.639 259.077 241.905 259.858 242.686L272.586 255.414ZM0 4H264V0H0V4ZM272 165V254H276V165H272ZM272 12V49H276V12H272ZM264 4C268.418 4 272 7.58172 272 12H276C276 5.37258 270.627 0 264 0V4Z" fill="#FFBF00"/>
</svg>
