<svg width="514" height="192" viewBox="0 0 514 192" fill="none" xmlns="http://www.w3.org/2000/svg">
<g filter="url(#filter0_b_3880_46238)">
<path d="M513.239 43.6447C513.239 67.4631 493.931 86.7718 470.112 86.7718C446.294 86.7718 426.985 67.4631 426.985 43.6447C426.985 19.8262 446.294 0.517578 470.112 0.517578C493.931 0.517578 513.239 19.8262 513.239 43.6447Z" fill="white" fill-opacity="0.05"/>
<path d="M512.948 43.6447C512.948 67.3022 493.77 86.4804 470.112 86.4804C446.455 86.4804 427.277 67.3022 427.277 43.6447C427.277 19.9872 446.455 0.808977 470.112 0.808977C493.77 0.808977 512.948 19.9872 512.948 43.6447Z" stroke="#FCFCFC" stroke-opacity="0.15" stroke-width="0.582799"/>
</g>
<g clip-path="url(#clip0_3880_46238)">
<path d="M455.74 28.3223H484.527V54.4862H455.74V28.3223Z" fill="#211426"/>
<path fill-rule="evenodd" clip-rule="evenodd" d="M446.79 43.6733C446.79 56.5482 457.227 66.9852 470.102 66.9852C482.976 66.9852 493.414 56.5482 493.414 43.6733C493.414 30.7984 482.976 20.3613 470.102 20.3613C457.227 20.3613 446.79 30.7984 446.79 43.6733ZM476.708 52.9502H481.232C482.182 52.9502 482.652 52.9502 482.938 52.7671C483.248 52.5666 483.437 52.2344 483.459 51.8678C483.477 51.5301 483.242 51.1176 482.772 50.293L471.601 30.6029C471.126 29.7668 470.886 29.3487 470.582 29.1941C470.256 29.028 469.866 29.028 469.54 29.1941C469.236 29.3487 468.996 29.7668 468.52 30.6029L466.224 34.6117L466.212 34.6322C465.699 35.5291 465.439 35.984 465.325 36.4614C465.199 36.9826 465.199 37.5324 465.325 38.0535C465.439 38.5346 465.697 38.9927 466.218 39.9033L472.086 50.2758L472.101 50.3024C472.618 51.2068 472.88 51.6651 473.243 52.0109C473.638 52.389 474.113 52.6637 474.634 52.8186C475.11 52.9502 475.642 52.9502 476.708 52.9502ZM465.282 52.9502H458.8C457.843 52.9502 457.362 52.9502 457.076 52.7615C456.767 52.561 456.572 52.223 456.555 51.8567C456.538 51.5298 456.768 51.1334 457.218 50.3567C457.233 50.3302 457.249 50.3033 457.265 50.2759L460.512 44.7209L460.549 44.6584C461.005 43.8867 461.236 43.4971 461.531 43.3465C461.858 43.1804 462.242 43.1804 462.568 43.3465C462.866 43.5011 463.106 43.9077 463.582 44.7266L466.817 50.2817L466.828 50.3008C467.302 51.1184 467.539 51.527 467.522 51.8623C467.499 52.2289 467.31 52.5666 467.001 52.7671C466.72 52.9502 466.239 52.9502 465.282 52.9502Z" fill="url(#paint0_linear_3880_46238)"/>
</g>
<g filter="url(#filter1_b_3880_46238)">
<path d="M86.6221 43.6447C86.6221 67.4631 67.3135 86.7718 43.495 86.7718C19.6766 86.7718 0.36792 67.4631 0.36792 43.6447C0.36792 19.8262 19.6766 0.517578 43.495 0.517578C67.3135 0.517578 86.6221 19.8262 86.6221 43.6447Z" fill="white" fill-opacity="0.05"/>
<path d="M86.3307 43.6447C86.3307 67.3022 67.1525 86.4804 43.495 86.4804C19.8375 86.4804 0.659319 67.3022 0.659319 43.6447C0.659319 19.9872 19.8375 0.808977 43.495 0.808977C67.1525 0.808977 86.3307 19.9872 86.3307 43.6447Z" stroke="#FCFCFC" stroke-opacity="0.15" stroke-width="0.582799"/>
</g>
<path d="M31.8442 31.3648C31.8442 37.4529 37.0739 42.4073 43.5002 42.4073C49.9265 42.4073 55.1562 37.4529 55.1562 31.3648C55.1562 25.2767 49.9265 20.3223 43.5002 20.3223C37.0739 20.3223 31.8442 25.2767 31.8442 31.3648ZM64.2219 66.9462H66.8121V64.4923C66.8121 55.0227 58.6763 47.315 48.6806 47.315H38.3197C28.3215 47.315 20.1882 55.0227 20.1882 64.4923V66.9462H64.2219Z" fill="url(#paint1_linear_3880_46238)"/>
<path d="M100.618 41.891C99.9742 41.891 99.4523 42.4129 99.4523 43.0566C99.4523 43.7004 99.9742 44.2222 100.618 44.2222L100.618 41.891ZM413.822 43.8808C414.277 43.4256 414.277 42.6876 413.822 42.2324L406.404 34.8146C405.949 34.3594 405.211 34.3594 404.756 34.8146C404.301 35.2698 404.301 36.0078 404.756 36.463L411.35 43.0566L404.756 49.6502C404.301 50.1054 404.301 50.8434 404.756 51.2986C405.211 51.7538 405.949 51.7538 406.404 51.2986L413.822 43.8808ZM100.618 44.2222L412.998 44.2222L412.998 41.891L100.618 41.891L100.618 44.2222Z" fill="#FFBF00"/>
<path d="M259.477 190.762C259.932 191.217 260.67 191.217 261.125 190.762L268.543 183.344C268.998 182.889 268.998 182.151 268.543 181.695C268.088 181.24 267.35 181.24 266.894 181.695L260.301 188.289L253.707 181.695C253.252 181.24 252.514 181.24 252.059 181.695C251.604 182.151 251.604 182.889 252.059 183.344L259.477 190.762ZM100.614 44.2379H254.473V41.9067H100.614V44.2379ZM259.135 138.068V189.938H261.466V138.068H259.135ZM259.135 48.9003V70.4638H261.466V48.9003H259.135ZM254.473 44.2379C257.048 44.2379 259.135 46.3253 259.135 48.9003H261.466C261.466 45.0378 258.335 41.9067 254.473 41.9067V44.2379Z" fill="#FFBF00"/>
<path d="M260.305 57.9395V70.761" stroke="#FFBF00" stroke-width="2.33119" stroke-linecap="round"/>
<path d="M260.305 137.486V150.308" stroke="#FFBF00" stroke-width="2.33119" stroke-linecap="round"/>
<path fill-rule="evenodd" clip-rule="evenodd" d="M269.325 91.4361C269.325 96.5862 265.15 100.761 260 100.761C254.85 100.761 250.675 96.5862 250.675 91.4361C250.675 86.286 254.85 82.1113 260 82.1113C265.15 82.1113 269.325 86.286 269.325 91.4361ZM259.516 97.7298C259.571 97.7961 259.65 97.8293 259.752 97.8293H260.281C260.374 97.8293 260.448 97.7961 260.504 97.7298C260.569 97.673 260.601 97.5972 260.601 97.5025V96.522C261.242 96.4652 261.794 96.3184 262.258 96.0816C262.731 95.8447 263.093 95.5274 263.343 95.1295C263.603 94.7317 263.733 94.2628 263.733 93.7228C263.733 93.1829 263.617 92.7424 263.385 92.4014C263.162 92.0509 262.814 91.762 262.341 91.5346C261.868 91.2978 261.26 91.0752 260.518 90.8668C259.905 90.6868 259.409 90.5163 259.029 90.3553C258.648 90.1942 258.37 90.0095 258.194 89.8011C258.017 89.5832 257.929 89.3132 257.929 88.9912C257.929 88.4891 258.115 88.1197 258.486 87.8829C258.866 87.646 259.358 87.5276 259.961 87.5276C260.555 87.5276 261.037 87.6602 261.409 87.9255C261.78 88.1907 261.993 88.5175 262.049 88.9059C262.086 89.0101 262.137 89.0812 262.202 89.1191C262.276 89.1569 262.346 89.1759 262.411 89.1759H263.148C263.25 89.1759 263.325 89.1475 263.371 89.0906C263.417 89.0243 263.441 88.958 263.441 88.8917C263.431 88.5507 263.32 88.2002 263.106 87.8402C262.893 87.4803 262.578 87.1629 262.16 86.8882C261.743 86.6135 261.223 86.4383 260.601 86.3625V85.3678C260.601 85.2731 260.569 85.1973 260.504 85.1405C260.448 85.0742 260.374 85.041 260.281 85.041H259.752C259.65 85.041 259.571 85.0742 259.516 85.1405C259.46 85.1973 259.432 85.2731 259.432 85.3678V86.3483C258.514 86.4335 257.804 86.7272 257.303 87.2292C256.802 87.7218 256.551 88.3139 256.551 89.0054C256.551 89.5453 256.658 89.9905 256.871 90.341C257.094 90.6915 257.428 90.9852 257.873 91.222C258.319 91.4588 258.88 91.6767 259.557 91.8756C260.207 92.0651 260.736 92.2403 261.144 92.4014C261.552 92.5624 261.854 92.7471 262.049 92.9555C262.253 93.1545 262.355 93.4197 262.355 93.7512C262.355 94.2344 262.165 94.6227 261.784 94.9164C261.413 95.2006 260.829 95.3427 260.031 95.3427C259.511 95.3427 259.084 95.2716 258.75 95.1295C258.426 94.978 258.175 94.7933 257.999 94.5754C257.822 94.348 257.706 94.1207 257.651 93.8933C257.632 93.8176 257.595 93.7512 257.539 93.6944C257.484 93.6376 257.4 93.6092 257.289 93.6092H256.579C256.496 93.6092 256.421 93.6423 256.356 93.7086C256.301 93.7655 256.273 93.8318 256.273 93.9075C256.292 94.3244 256.421 94.7175 256.663 95.0869C256.904 95.4563 257.256 95.7737 257.72 96.0389C258.184 96.2947 258.755 96.451 259.432 96.5078V97.5025C259.432 97.5972 259.46 97.673 259.516 97.7298Z" fill="url(#paint2_linear_3880_46238)"/>
<path d="M200.253 124.337C200.129 124.337 200.023 124.294 199.936 124.207C199.849 124.12 199.805 124.014 199.805 123.89V111.749C199.805 111.612 199.849 111.5 199.936 111.413C200.023 111.326 200.129 111.283 200.253 111.283H205.251C206.221 111.283 207.066 111.438 207.788 111.749C208.509 112.047 209.068 112.507 209.466 113.129C209.864 113.738 210.063 114.503 210.063 115.423C210.063 116.355 209.864 117.126 209.466 117.735C209.068 118.332 208.509 118.78 207.788 119.078C207.066 119.377 206.221 119.526 205.251 119.526H202.472V123.89C202.472 124.014 202.429 124.12 202.342 124.207C202.267 124.294 202.162 124.337 202.025 124.337H200.253ZM202.435 117.456H205.158C205.879 117.456 206.432 117.288 206.818 116.952C207.203 116.604 207.396 116.094 207.396 115.423C207.396 114.801 207.216 114.304 206.855 113.931C206.494 113.546 205.929 113.353 205.158 113.353H202.435V117.456ZM212.323 124.337C212.198 124.337 212.093 124.294 212.006 124.207C211.919 124.12 211.875 124.014 211.875 123.89V115.106C211.875 114.969 211.919 114.857 212.006 114.77C212.093 114.683 212.198 114.64 212.323 114.64H213.833C213.958 114.64 214.063 114.683 214.15 114.77C214.25 114.857 214.3 114.969 214.3 115.106V115.871C214.586 115.473 214.952 115.168 215.4 114.957C215.86 114.745 216.388 114.64 216.985 114.64H217.75C217.886 114.64 217.992 114.683 218.067 114.77C218.154 114.857 218.197 114.963 218.197 115.087V116.43C218.197 116.554 218.154 116.66 218.067 116.747C217.992 116.834 217.886 116.878 217.75 116.878H216.295C215.698 116.878 215.232 117.045 214.896 117.381C214.573 117.717 214.411 118.177 214.411 118.761V123.89C214.411 124.014 214.368 124.12 214.281 124.207C214.194 124.294 214.082 124.337 213.945 124.337H212.323ZM223.814 124.524C222.819 124.524 221.98 124.35 221.296 124.002C220.625 123.654 220.109 123.162 219.748 122.528C219.4 121.894 219.201 121.155 219.151 120.309C219.139 120.085 219.133 119.812 219.133 119.489C219.133 119.165 219.139 118.892 219.151 118.668C219.201 117.81 219.406 117.07 219.767 116.449C220.14 115.815 220.662 115.323 221.333 114.975C222.017 114.627 222.844 114.453 223.814 114.453C224.784 114.453 225.604 114.627 226.275 114.975C226.959 115.323 227.481 115.815 227.842 116.449C228.215 117.07 228.426 117.81 228.476 118.668C228.489 118.892 228.495 119.165 228.495 119.489C228.495 119.812 228.489 120.085 228.476 120.309C228.426 121.155 228.221 121.894 227.861 122.528C227.513 123.162 226.997 123.654 226.313 124.002C225.641 124.35 224.808 124.524 223.814 124.524ZM223.814 122.678C224.473 122.678 224.982 122.472 225.343 122.062C225.704 121.639 225.902 121.024 225.94 120.216C225.952 120.029 225.958 119.787 225.958 119.489C225.958 119.19 225.952 118.948 225.94 118.761C225.902 117.965 225.704 117.356 225.343 116.934C224.982 116.511 224.473 116.299 223.814 116.299C223.155 116.299 222.645 116.511 222.284 116.934C221.924 117.356 221.725 117.965 221.688 118.761C221.675 118.948 221.669 119.19 221.669 119.489C221.669 119.787 221.675 120.029 221.688 120.216C221.725 121.024 221.924 121.639 222.284 122.062C222.645 122.472 223.155 122.678 223.814 122.678ZM234.871 124.337C234.125 124.337 233.497 124.207 232.987 123.946C232.478 123.685 232.098 123.299 231.85 122.789C231.601 122.267 231.477 121.621 231.477 120.85V116.616H230.003C229.879 116.616 229.773 116.573 229.686 116.486C229.599 116.399 229.556 116.293 229.556 116.169V115.087C229.556 114.963 229.599 114.857 229.686 114.77C229.773 114.683 229.879 114.64 230.003 114.64H231.477V111.544C231.477 111.419 231.514 111.314 231.589 111.227C231.676 111.14 231.787 111.096 231.924 111.096H233.435C233.559 111.096 233.665 111.14 233.752 111.227C233.839 111.314 233.882 111.419 233.882 111.544V114.64H236.214C236.338 114.64 236.444 114.683 236.531 114.77C236.618 114.857 236.661 114.963 236.661 115.087V116.169C236.661 116.293 236.618 116.399 236.531 116.486C236.444 116.573 236.338 116.616 236.214 116.616H233.882V120.663C233.882 121.173 233.969 121.571 234.144 121.857C234.33 122.143 234.647 122.286 235.095 122.286H236.382C236.506 122.286 236.612 122.329 236.699 122.416C236.786 122.504 236.829 122.609 236.829 122.734V123.89C236.829 124.014 236.786 124.12 236.699 124.207C236.612 124.294 236.506 124.337 236.382 124.337H234.871ZM242.773 124.524C241.778 124.524 240.939 124.35 240.255 124.002C239.584 123.654 239.068 123.162 238.707 122.528C238.359 121.894 238.16 121.155 238.111 120.309C238.098 120.085 238.092 119.812 238.092 119.489C238.092 119.165 238.098 118.892 238.111 118.668C238.16 117.81 238.365 117.07 238.726 116.449C239.099 115.815 239.621 115.323 240.293 114.975C240.976 114.627 241.803 114.453 242.773 114.453C243.743 114.453 244.563 114.627 245.235 114.975C245.918 115.323 246.441 115.815 246.801 116.449C247.174 117.07 247.386 117.81 247.435 118.668C247.448 118.892 247.454 119.165 247.454 119.489C247.454 119.812 247.448 120.085 247.435 120.309C247.386 121.155 247.18 121.894 246.82 122.528C246.472 123.162 245.956 123.654 245.272 124.002C244.601 124.35 243.768 124.524 242.773 124.524ZM242.773 122.678C243.432 122.678 243.942 122.472 244.302 122.062C244.663 121.639 244.862 121.024 244.899 120.216C244.911 120.029 244.918 119.787 244.918 119.489C244.918 119.19 244.911 118.948 244.899 118.761C244.862 117.965 244.663 117.356 244.302 116.934C243.942 116.511 243.432 116.299 242.773 116.299C242.114 116.299 241.604 116.511 241.244 116.934C240.883 117.356 240.684 117.965 240.647 118.761C240.634 118.948 240.628 119.19 240.628 119.489C240.628 119.787 240.634 120.029 240.647 120.216C240.684 121.024 240.883 121.639 241.244 122.062C241.604 122.472 242.114 122.678 242.773 122.678ZM253.716 124.524C252.821 124.524 252.032 124.356 251.348 124.02C250.677 123.685 250.148 123.2 249.763 122.566C249.39 121.919 249.185 121.142 249.147 120.234C249.135 120.048 249.129 119.806 249.129 119.507C249.129 119.196 249.135 118.941 249.147 118.743C249.185 117.835 249.39 117.064 249.763 116.43C250.148 115.783 250.677 115.292 251.348 114.957C252.032 114.621 252.821 114.453 253.716 114.453C254.512 114.453 255.19 114.565 255.749 114.789C256.309 115.013 256.769 115.292 257.129 115.628C257.49 115.964 257.757 116.318 257.931 116.691C258.118 117.052 258.217 117.381 258.23 117.68C258.242 117.816 258.199 117.928 258.099 118.015C258.012 118.09 257.906 118.127 257.782 118.127H256.141C256.017 118.127 255.917 118.096 255.842 118.034C255.78 117.972 255.718 117.878 255.656 117.754C255.469 117.257 255.221 116.909 254.91 116.71C254.612 116.498 254.226 116.393 253.754 116.393C253.132 116.393 252.635 116.592 252.262 116.989C251.901 117.375 251.708 117.99 251.684 118.836C251.659 119.308 251.659 119.743 251.684 120.141C251.708 120.999 251.901 121.621 252.262 122.006C252.635 122.392 253.132 122.584 253.754 122.584C254.239 122.584 254.63 122.485 254.929 122.286C255.227 122.075 255.469 121.72 255.656 121.223C255.718 121.099 255.78 121.005 255.842 120.943C255.917 120.881 256.017 120.85 256.141 120.85H257.782C257.906 120.85 258.012 120.893 258.099 120.98C258.199 121.055 258.242 121.161 258.23 121.298C258.217 121.521 258.155 121.776 258.043 122.062C257.944 122.336 257.776 122.622 257.54 122.92C257.316 123.206 257.03 123.473 256.682 123.722C256.334 123.958 255.911 124.151 255.414 124.3C254.929 124.449 254.363 124.524 253.716 124.524ZM264.464 124.524C263.469 124.524 262.63 124.35 261.946 124.002C261.275 123.654 260.759 123.162 260.398 122.528C260.05 121.894 259.851 121.155 259.802 120.309C259.789 120.085 259.783 119.812 259.783 119.489C259.783 119.165 259.789 118.892 259.802 118.668C259.851 117.81 260.056 117.07 260.417 116.449C260.79 115.815 261.312 115.323 261.984 114.975C262.667 114.627 263.494 114.453 264.464 114.453C265.434 114.453 266.254 114.627 266.926 114.975C267.61 115.323 268.132 115.815 268.492 116.449C268.865 117.07 269.077 117.81 269.126 118.668C269.139 118.892 269.145 119.165 269.145 119.489C269.145 119.812 269.139 120.085 269.126 120.309C269.077 121.155 268.871 121.894 268.511 122.528C268.163 123.162 267.647 123.654 266.963 124.002C266.292 124.35 265.459 124.524 264.464 124.524ZM264.464 122.678C265.123 122.678 265.633 122.472 265.993 122.062C266.354 121.639 266.553 121.024 266.59 120.216C266.602 120.029 266.609 119.787 266.609 119.489C266.609 119.19 266.602 118.948 266.59 118.761C266.553 117.965 266.354 117.356 265.993 116.934C265.633 116.511 265.123 116.299 264.464 116.299C263.805 116.299 263.295 116.511 262.935 116.934C262.574 117.356 262.375 117.965 262.338 118.761C262.325 118.948 262.319 119.19 262.319 119.489C262.319 119.787 262.325 120.029 262.338 120.216C262.375 121.024 262.574 121.639 262.935 122.062C263.295 122.472 263.805 122.678 264.464 122.678ZM271.678 124.337C271.553 124.337 271.448 124.294 271.36 124.207C271.273 124.12 271.23 124.014 271.23 123.89V111.544C271.23 111.419 271.273 111.314 271.36 111.227C271.448 111.14 271.553 111.096 271.678 111.096H273.225C273.35 111.096 273.455 111.14 273.542 111.227C273.63 111.314 273.673 111.419 273.673 111.544V123.89C273.673 124.014 273.63 124.12 273.542 124.207C273.455 124.294 273.35 124.337 273.225 124.337H271.678ZM281.08 124.337C280.956 124.337 280.85 124.294 280.763 124.207C280.676 124.12 280.632 124.014 280.632 123.89V111.749C280.632 111.612 280.676 111.5 280.763 111.413C280.85 111.326 280.956 111.283 281.08 111.283H289.174C289.311 111.283 289.423 111.326 289.51 111.413C289.597 111.5 289.64 111.612 289.64 111.749V113.054C289.64 113.191 289.597 113.303 289.51 113.39C289.423 113.465 289.311 113.502 289.174 113.502H283.187V117.045H288.801C288.938 117.045 289.05 117.089 289.137 117.176C289.224 117.263 289.267 117.375 289.267 117.512V118.817C289.267 118.941 289.224 119.047 289.137 119.134C289.05 119.221 288.938 119.265 288.801 119.265H283.187V123.89C283.187 124.014 283.144 124.12 283.057 124.207C282.97 124.294 282.858 124.337 282.721 124.337H281.08ZM295.605 124.524C294.225 124.524 293.13 124.126 292.322 123.33C291.514 122.535 291.079 121.403 291.017 119.936C291.004 119.812 290.998 119.656 290.998 119.47C290.998 119.271 291.004 119.116 291.017 119.004C291.067 118.071 291.278 117.263 291.651 116.579C292.036 115.895 292.565 115.373 293.236 115.013C293.908 114.64 294.697 114.453 295.605 114.453C296.612 114.453 297.457 114.664 298.141 115.087C298.825 115.498 299.341 116.076 299.689 116.822C300.037 117.555 300.211 118.407 300.211 119.377V119.768C300.211 119.893 300.168 119.998 300.081 120.085C299.993 120.172 299.882 120.216 299.745 120.216H293.553C293.553 120.216 293.553 120.234 293.553 120.272C293.553 120.309 293.553 120.34 293.553 120.365C293.566 120.8 293.646 121.204 293.796 121.577C293.957 121.938 294.187 122.23 294.486 122.454C294.796 122.678 295.163 122.789 295.586 122.789C295.934 122.789 296.226 122.74 296.463 122.64C296.699 122.528 296.891 122.404 297.041 122.267C297.19 122.131 297.296 122.019 297.358 121.932C297.47 121.782 297.557 121.695 297.619 121.671C297.693 121.633 297.799 121.615 297.936 121.615H299.54C299.664 121.615 299.763 121.652 299.838 121.726C299.925 121.801 299.962 121.894 299.95 122.006C299.938 122.205 299.832 122.448 299.633 122.734C299.446 123.02 299.173 123.299 298.812 123.573C298.452 123.846 297.998 124.076 297.451 124.263C296.916 124.437 296.301 124.524 295.605 124.524ZM293.553 118.649H297.675V118.593C297.675 118.108 297.594 117.686 297.432 117.325C297.271 116.965 297.034 116.679 296.724 116.467C296.413 116.256 296.04 116.15 295.605 116.15C295.169 116.15 294.796 116.256 294.486 116.467C294.175 116.679 293.939 116.965 293.777 117.325C293.628 117.686 293.553 118.108 293.553 118.593V118.649ZM306.368 124.524C304.988 124.524 303.894 124.126 303.086 123.33C302.278 122.535 301.843 121.403 301.78 119.936C301.768 119.812 301.762 119.656 301.762 119.47C301.762 119.271 301.768 119.116 301.78 119.004C301.83 118.071 302.041 117.263 302.414 116.579C302.8 115.895 303.328 115.373 304 115.013C304.671 114.64 305.461 114.453 306.368 114.453C307.375 114.453 308.221 114.664 308.905 115.087C309.588 115.498 310.104 116.076 310.452 116.822C310.801 117.555 310.975 118.407 310.975 119.377V119.768C310.975 119.893 310.931 119.998 310.844 120.085C310.757 120.172 310.645 120.216 310.508 120.216H304.317C304.317 120.216 304.317 120.234 304.317 120.272C304.317 120.309 304.317 120.34 304.317 120.365C304.329 120.8 304.41 121.204 304.559 121.577C304.721 121.938 304.951 122.23 305.249 122.454C305.56 122.678 305.927 122.789 306.35 122.789C306.698 122.789 306.99 122.74 307.226 122.64C307.462 122.528 307.655 122.404 307.804 122.267C307.953 122.131 308.059 122.019 308.121 121.932C308.233 121.782 308.32 121.695 308.382 121.671C308.457 121.633 308.563 121.615 308.699 121.615H310.303C310.428 121.615 310.527 121.652 310.602 121.726C310.689 121.801 310.726 121.894 310.714 122.006C310.701 122.205 310.595 122.448 310.397 122.734C310.21 123.02 309.936 123.299 309.576 123.573C309.215 123.846 308.762 124.076 308.215 124.263C307.68 124.437 307.064 124.524 306.368 124.524ZM304.317 118.649H308.438V118.593C308.438 118.108 308.357 117.686 308.196 117.325C308.034 116.965 307.798 116.679 307.487 116.467C307.176 116.256 306.803 116.15 306.368 116.15C305.933 116.15 305.56 116.256 305.249 116.467C304.938 116.679 304.702 116.965 304.541 117.325C304.391 117.686 304.317 118.108 304.317 118.593V118.649ZM316.628 124.524C315.882 124.524 315.242 124.437 314.707 124.263C314.185 124.089 313.756 123.871 313.42 123.61C313.085 123.349 312.836 123.088 312.675 122.827C312.513 122.566 312.426 122.348 312.413 122.174C312.401 122.037 312.438 121.932 312.525 121.857C312.625 121.77 312.73 121.726 312.842 121.726H314.316C314.365 121.726 314.409 121.733 314.446 121.745C314.484 121.758 314.533 121.795 314.595 121.857C314.757 121.994 314.925 122.137 315.099 122.286C315.285 122.435 315.503 122.566 315.752 122.678C316 122.777 316.311 122.827 316.684 122.827C317.169 122.827 317.573 122.734 317.896 122.547C318.232 122.348 318.4 122.068 318.4 121.708C318.4 121.447 318.325 121.235 318.176 121.074C318.039 120.912 317.778 120.769 317.393 120.645C317.007 120.508 316.46 120.365 315.752 120.216C315.055 120.054 314.477 119.849 314.017 119.6C313.557 119.352 313.215 119.041 312.992 118.668C312.768 118.295 312.656 117.86 312.656 117.362C312.656 116.878 312.799 116.418 313.085 115.982C313.383 115.535 313.818 115.168 314.39 114.882C314.975 114.596 315.696 114.453 316.554 114.453C317.225 114.453 317.809 114.54 318.307 114.714C318.804 114.876 319.214 115.081 319.538 115.33C319.873 115.578 320.128 115.833 320.302 116.094C320.476 116.343 320.569 116.561 320.582 116.747C320.594 116.884 320.557 116.996 320.47 117.083C320.383 117.157 320.284 117.195 320.172 117.195H318.792C318.729 117.195 318.673 117.182 318.624 117.157C318.574 117.132 318.524 117.101 318.475 117.064C318.338 116.94 318.189 116.809 318.027 116.672C317.865 116.536 317.666 116.418 317.43 116.318C317.206 116.206 316.908 116.15 316.535 116.15C316.063 116.15 315.702 116.256 315.453 116.467C315.205 116.666 315.08 116.921 315.08 117.232C315.08 117.443 315.136 117.63 315.248 117.791C315.372 117.941 315.615 118.084 315.975 118.22C316.336 118.357 316.883 118.5 317.617 118.649C318.45 118.798 319.109 119.022 319.593 119.321C320.091 119.607 320.439 119.942 320.638 120.328C320.849 120.701 320.955 121.117 320.955 121.577C320.955 122.137 320.787 122.64 320.451 123.088C320.128 123.535 319.643 123.89 318.997 124.151C318.363 124.4 317.573 124.524 316.628 124.524Z" fill="white"/>
<defs>
<filter id="filter0_b_3880_46238" x="418.243" y="-8.2244" width="103.738" height="103.738" filterUnits="userSpaceOnUse" color-interpolation-filters="sRGB">
<feFlood flood-opacity="0" result="BackgroundImageFix"/>
<feGaussianBlur in="BackgroundImageFix" stdDeviation="4.37099"/>
<feComposite in2="SourceAlpha" operator="in" result="effect1_backgroundBlur_3880_46238"/>
<feBlend mode="normal" in="SourceGraphic" in2="effect1_backgroundBlur_3880_46238" result="shape"/>
</filter>
<filter id="filter1_b_3880_46238" x="-8.37406" y="-8.2244" width="103.738" height="103.738" filterUnits="userSpaceOnUse" color-interpolation-filters="sRGB">
<feFlood flood-opacity="0" result="BackgroundImageFix"/>
<feGaussianBlur in="BackgroundImageFix" stdDeviation="4.37099"/>
<feComposite in2="SourceAlpha" operator="in" result="effect1_backgroundBlur_3880_46238"/>
<feBlend mode="normal" in="SourceGraphic" in2="effect1_backgroundBlur_3880_46238" result="shape"/>
</filter>
<linearGradient id="paint0_linear_3880_46238" x1="470.107" y1="66.9947" x2="470.107" y2="20.3661" gradientUnits="userSpaceOnUse">
<stop stop-color="#FFBF00"/>
<stop offset="1" stop-color="#E843C4"/>
</linearGradient>
<linearGradient id="paint1_linear_3880_46238" x1="43.4945" y1="20.3317" x2="43.4945" y2="66.9604" gradientUnits="userSpaceOnUse">
<stop stop-color="#FFBF00"/>
<stop offset="1" stop-color="#E843C4"/>
</linearGradient>
<linearGradient id="paint2_linear_3880_46238" x1="259.998" y1="100.765" x2="259.998" y2="82.1132" gradientUnits="userSpaceOnUse">
<stop stop-color="#FFBF00"/>
<stop offset="1" stop-color="#E843C4"/>
</linearGradient>
<clipPath id="clip0_3880_46238">
<rect width="46.6239" height="46.6239" fill="white" transform="matrix(-1 0 0 1 493.429 20.3223)"/>
</clipPath>
</defs>
</svg>
