<svg width="292" height="166" viewBox="0 0 292 166" fill="none" xmlns="http://www.w3.org/2000/svg">
<g filter="url(#filter0_b_5129_53267)">
<path d="M291.676 47.2812C291.676 62.9005 279.014 75.5624 263.394 75.5624C247.775 75.5624 235.113 62.9005 235.113 47.2812C235.113 31.6619 247.775 19 263.394 19C279.014 19 291.676 31.6619 291.676 47.2812Z" fill="white" fill-opacity="0.05"/>
<path d="M291.443 47.2812C291.443 62.7722 278.885 75.3301 263.394 75.3301C247.903 75.3301 235.346 62.7722 235.346 47.2812C235.346 31.7902 247.903 19.2322 263.394 19.2322C278.885 19.2322 291.443 31.7902 291.443 47.2812Z" stroke="#FCFCFC" stroke-opacity="0.15" stroke-width="0.464448"/>
</g>
<g clip-path="url(#clip0_5129_53267)">
<path d="M252.224 35.3906H274.575V55.7049H252.224V35.3906Z" fill="#211426"/>
<path fill-rule="evenodd" clip-rule="evenodd" d="M245.277 47.3109C245.277 57.3073 253.381 65.4109 263.377 65.4109C273.374 65.4109 281.477 57.3073 281.477 47.3109C281.477 37.3146 273.374 29.2109 263.377 29.2109C253.381 29.2109 245.277 37.3146 245.277 47.3109ZM268.506 54.5138H272.019C272.757 54.5138 273.122 54.5138 273.344 54.3716C273.584 54.2159 273.731 53.958 273.749 53.6734C273.762 53.4111 273.58 53.0909 273.215 52.4506L264.542 37.1627C264.173 36.5136 263.986 36.189 263.75 36.0689C263.497 35.94 263.195 35.94 262.941 36.0689C262.705 36.189 262.519 36.5136 262.15 37.1627L260.367 40.2753L260.358 40.2911C259.959 40.9876 259.757 41.3408 259.669 41.7115C259.571 42.1161 259.571 42.5429 259.669 42.9476C259.757 43.3211 259.958 43.6768 260.362 44.3838L264.918 52.4373L264.93 52.4579C265.331 53.1601 265.534 53.516 265.816 53.7845C266.123 54.078 266.492 54.2913 266.897 54.4116C267.266 54.5138 267.679 54.5138 268.506 54.5138ZM259.636 54.5138H254.602C253.86 54.5138 253.486 54.5138 253.264 54.3672C253.024 54.2115 252.873 53.9491 252.859 53.6647C252.846 53.4109 253.025 53.1031 253.374 52.5C253.386 52.4795 253.398 52.4586 253.411 52.4374L255.932 48.1243L255.96 48.0757C256.315 47.4766 256.494 47.1741 256.723 47.0572C256.977 46.9282 257.275 46.9282 257.528 47.0572C257.759 47.1772 257.946 47.4929 258.315 48.1287L260.827 52.4418L260.836 52.4567C261.204 53.0915 261.387 53.4087 261.374 53.669C261.356 53.9537 261.21 54.2159 260.97 54.3716C260.752 54.5138 260.378 54.5138 259.636 54.5138Z" fill="url(#paint0_linear_5129_53267)"/>
</g>
<g filter="url(#filter1_b_5129_53267)">
<path d="M56.5624 47.2812C56.5624 62.9005 43.9005 75.5624 28.2812 75.5624C12.6619 75.5624 0 62.9005 0 47.2812C0 31.6619 12.6619 19 28.2812 19C43.9005 19 56.5624 31.6619 56.5624 47.2812Z" fill="white" fill-opacity="0.05"/>
<path d="M56.3301 47.2812C56.3301 62.7722 43.7722 75.3301 28.2812 75.3301C12.7902 75.3301 0.232224 62.7722 0.232224 47.2812C0.232224 31.7902 12.7902 19.2322 28.2812 19.2322C43.7722 19.2322 56.3301 31.7902 56.3301 47.2812Z" stroke="#FCFCFC" stroke-opacity="0.15" stroke-width="0.464448"/>
</g>
<path d="M20 36.5789C20 40.7575 23.5893 44.1579 28 44.1579C32.4107 44.1579 36 40.7575 36 36.5789C36 32.4004 32.4107 29 28 29C23.5893 29 20 32.4004 20 36.5789ZM42.2222 61H44V59.3158C44 52.8164 38.416 47.5263 31.5556 47.5263H24.4444C17.5822 47.5263 12 52.8164 12 59.3158V61H42.2222Z" fill="url(#paint1_linear_5129_53267)"/>
<rect x="107.367" width="78.2935" height="29.1467" rx="1.15719" fill="white" fill-opacity="0.05"/>
<path d="M120.281 19.5732C120.188 19.5732 120.113 19.5452 120.057 19.4892C120.001 19.4332 119.973 19.3586 119.973 19.2652V10.0952C119.973 9.99258 120.001 9.91324 120.057 9.85724C120.113 9.80124 120.188 9.77324 120.281 9.77324H123.543C124.523 9.77324 125.303 10.0066 125.881 10.4732C126.469 10.9399 126.763 11.6492 126.763 12.6012C126.763 13.3479 126.577 13.9452 126.203 14.3932C125.83 14.8412 125.312 15.1446 124.649 15.3032L126.903 19.1392C126.931 19.1952 126.945 19.2466 126.945 19.2932C126.945 19.3679 126.917 19.4332 126.861 19.4892C126.805 19.5452 126.74 19.5732 126.665 19.5732H126.497C126.348 19.5732 126.236 19.5359 126.161 19.4612C126.087 19.3772 126.021 19.2886 125.965 19.1952L123.739 15.4292H120.855V19.2652C120.855 19.3586 120.827 19.4332 120.771 19.4892C120.715 19.5452 120.636 19.5732 120.533 19.5732H120.281ZM120.855 14.5892H123.473C124.285 14.5892 124.887 14.4259 125.279 14.0992C125.681 13.7632 125.881 13.2639 125.881 12.6012C125.881 11.9386 125.681 11.4439 125.279 11.1172C124.887 10.7812 124.285 10.6132 123.473 10.6132H120.855V14.5892ZM132.067 19.7132C131.161 19.7132 130.443 19.4192 129.911 18.8312C129.379 18.2339 129.075 17.4546 129.001 16.4932C128.991 16.3532 128.987 16.1666 128.987 15.9332C128.987 15.6999 128.991 15.5132 129.001 15.3732C129.047 14.7386 129.197 14.1786 129.449 13.6932C129.701 13.2079 130.046 12.8299 130.485 12.5592C130.933 12.2886 131.46 12.1532 132.067 12.1532C132.72 12.1532 133.275 12.2979 133.733 12.5872C134.19 12.8766 134.54 13.2919 134.783 13.8332C135.035 14.3746 135.161 15.0186 135.161 15.7652V15.9752C135.161 16.0686 135.128 16.1432 135.063 16.1992C135.007 16.2552 134.932 16.2832 134.839 16.2832H129.855C129.855 16.2832 129.855 16.3019 129.855 16.3392C129.855 16.3766 129.855 16.4046 129.855 16.4232C129.873 16.8432 129.971 17.2446 130.149 17.6272C130.326 18.0006 130.578 18.3086 130.905 18.5512C131.231 18.7846 131.619 18.9012 132.067 18.9012C132.468 18.9012 132.799 18.8406 133.061 18.7192C133.331 18.5979 133.546 18.4672 133.705 18.3272C133.863 18.1779 133.966 18.0659 134.013 17.9912C134.097 17.8699 134.162 17.7999 134.209 17.7812C134.255 17.7532 134.33 17.7392 134.433 17.7392H134.657C134.741 17.7392 134.811 17.7672 134.867 17.8232C134.932 17.8699 134.96 17.9352 134.951 18.0192C134.941 18.1499 134.867 18.3132 134.727 18.5092C134.596 18.6959 134.405 18.8826 134.153 19.0692C133.91 19.2559 133.611 19.4099 133.257 19.5312C132.902 19.6526 132.505 19.7132 132.067 19.7132ZM129.855 15.4992H134.307V15.4432C134.307 14.9766 134.218 14.5566 134.041 14.1832C133.863 13.8099 133.607 13.5159 133.271 13.3012C132.935 13.0772 132.533 12.9652 132.067 12.9652C131.6 12.9652 131.199 13.0772 130.863 13.3012C130.536 13.5159 130.284 13.8099 130.107 14.1832C129.939 14.5566 129.855 14.9766 129.855 15.4432V15.4992ZM140.339 19.7132C139.798 19.7132 139.336 19.6152 138.953 19.4192C138.58 19.2232 138.276 18.9619 138.043 18.6352C137.81 18.3086 137.637 17.9446 137.525 17.5432C137.422 17.1419 137.362 16.7359 137.343 16.3252C137.334 16.1852 137.329 16.0546 137.329 15.9332C137.329 15.8119 137.334 15.6812 137.343 15.5412C137.362 15.1306 137.422 14.7246 137.525 14.3232C137.637 13.9219 137.81 13.5579 138.043 13.2312C138.276 12.9046 138.58 12.6432 138.953 12.4472C139.336 12.2512 139.798 12.1532 140.339 12.1532C140.918 12.1532 141.394 12.2606 141.767 12.4752C142.15 12.6899 142.458 12.9512 142.691 13.2592V9.94124C142.691 9.84791 142.719 9.77324 142.775 9.71724C142.831 9.66124 142.906 9.63324 142.999 9.63324H143.237C143.33 9.63324 143.405 9.66124 143.461 9.71724C143.517 9.77324 143.545 9.84791 143.545 9.94124V19.2652C143.545 19.3586 143.517 19.4332 143.461 19.4892C143.405 19.5452 143.33 19.5732 143.237 19.5732H142.999C142.906 19.5732 142.831 19.5452 142.775 19.4892C142.719 19.4332 142.691 19.3586 142.691 19.2652V18.6072C142.458 18.9246 142.15 19.1906 141.767 19.4052C141.394 19.6106 140.918 19.7132 140.339 19.7132ZM140.423 18.9012C140.955 18.9012 141.384 18.7752 141.711 18.5232C142.038 18.2712 142.28 17.9586 142.439 17.5852C142.598 17.2026 142.682 16.8199 142.691 16.4372C142.7 16.2972 142.705 16.1152 142.705 15.8912C142.705 15.6672 142.7 15.4852 142.691 15.3452C142.682 14.9719 142.593 14.6032 142.425 14.2392C142.266 13.8752 142.024 13.5719 141.697 13.3292C141.37 13.0866 140.946 12.9652 140.423 12.9652C139.882 12.9652 139.448 13.0866 139.121 13.3292C138.804 13.5719 138.575 13.8892 138.435 14.2812C138.295 14.6732 138.216 15.0932 138.197 15.5412C138.188 15.8026 138.188 16.0639 138.197 16.3252C138.216 16.7732 138.295 17.1932 138.435 17.5852C138.575 17.9772 138.804 18.2946 139.121 18.5372C139.448 18.7799 139.882 18.9012 140.423 18.9012ZM149.23 19.7132C148.325 19.7132 147.606 19.4192 147.074 18.8312C146.542 18.2339 146.239 17.4546 146.164 16.4932C146.155 16.3532 146.15 16.1666 146.15 15.9332C146.15 15.6999 146.155 15.5132 146.164 15.3732C146.211 14.7386 146.36 14.1786 146.612 13.6932C146.864 13.2079 147.21 12.8299 147.648 12.5592C148.096 12.2886 148.624 12.1532 149.23 12.1532C149.884 12.1532 150.439 12.2979 150.896 12.5872C151.354 12.8766 151.704 13.2919 151.946 13.8332C152.198 14.3746 152.324 15.0186 152.324 15.7652V15.9752C152.324 16.0686 152.292 16.1432 152.226 16.1992C152.17 16.2552 152.096 16.2832 152.002 16.2832H147.018C147.018 16.2832 147.018 16.3019 147.018 16.3392C147.018 16.3766 147.018 16.4046 147.018 16.4232C147.037 16.8432 147.135 17.2446 147.312 17.6272C147.49 18.0006 147.742 18.3086 148.068 18.5512C148.395 18.7846 148.782 18.9012 149.23 18.9012C149.632 18.9012 149.963 18.8406 150.224 18.7192C150.495 18.5979 150.71 18.4672 150.868 18.3272C151.027 18.1779 151.13 18.0659 151.176 17.9912C151.26 17.8699 151.326 17.7999 151.372 17.7812C151.419 17.7532 151.494 17.7392 151.596 17.7392H151.82C151.904 17.7392 151.974 17.7672 152.03 17.8232C152.096 17.8699 152.124 17.9352 152.114 18.0192C152.105 18.1499 152.03 18.3132 151.89 18.5092C151.76 18.6959 151.568 18.8826 151.316 19.0692C151.074 19.2559 150.775 19.4099 150.42 19.5312C150.066 19.6526 149.669 19.7132 149.23 19.7132ZM147.018 15.4992H151.47V15.4432C151.47 14.9766 151.382 14.5566 151.204 14.1832C151.027 13.8099 150.77 13.5159 150.434 13.3012C150.098 13.0772 149.697 12.9652 149.23 12.9652C148.764 12.9652 148.362 13.0772 148.026 13.3012C147.7 13.5159 147.448 13.8099 147.27 14.1832C147.102 14.5566 147.018 14.9766 147.018 15.4432V15.4992ZM157.573 19.7132C156.667 19.7132 155.949 19.4192 155.417 18.8312C154.885 18.2339 154.581 17.4546 154.507 16.4932C154.497 16.3532 154.493 16.1666 154.493 15.9332C154.493 15.6999 154.497 15.5132 154.507 15.3732C154.553 14.7386 154.703 14.1786 154.955 13.6932C155.207 13.2079 155.552 12.8299 155.991 12.5592C156.439 12.2886 156.966 12.1532 157.573 12.1532C158.226 12.1532 158.781 12.2979 159.239 12.5872C159.696 12.8766 160.046 13.2919 160.289 13.8332C160.541 14.3746 160.667 15.0186 160.667 15.7652V15.9752C160.667 16.0686 160.634 16.1432 160.569 16.1992C160.513 16.2552 160.438 16.2832 160.345 16.2832H155.361C155.361 16.2832 155.361 16.3019 155.361 16.3392C155.361 16.3766 155.361 16.4046 155.361 16.4232C155.379 16.8432 155.477 17.2446 155.655 17.6272C155.832 18.0006 156.084 18.3086 156.411 18.5512C156.737 18.7846 157.125 18.9012 157.573 18.9012C157.974 18.9012 158.305 18.8406 158.567 18.7192C158.837 18.5979 159.052 18.4672 159.211 18.3272C159.369 18.1779 159.472 18.0659 159.519 17.9912C159.603 17.8699 159.668 17.7999 159.715 17.7812C159.761 17.7532 159.836 17.7392 159.939 17.7392H160.163C160.247 17.7392 160.317 17.7672 160.373 17.8232C160.438 17.8699 160.466 17.9352 160.457 18.0192C160.447 18.1499 160.373 18.3132 160.233 18.5092C160.102 18.6959 159.911 18.8826 159.659 19.0692C159.416 19.2559 159.117 19.4099 158.763 19.5312C158.408 19.6526 158.011 19.7132 157.573 19.7132ZM155.361 15.4992H159.813V15.4432C159.813 14.9766 159.724 14.5566 159.547 14.1832C159.369 13.8099 159.113 13.5159 158.777 13.3012C158.441 13.0772 158.039 12.9652 157.573 12.9652C157.106 12.9652 156.705 13.0772 156.369 13.3012C156.042 13.5159 155.79 13.8099 155.613 14.1832C155.445 14.5566 155.361 14.9766 155.361 15.4432V15.4992ZM163.521 19.5732C163.428 19.5732 163.353 19.5452 163.297 19.4892C163.241 19.4332 163.213 19.3586 163.213 19.2652V12.6012C163.213 12.5079 163.241 12.4332 163.297 12.3772C163.353 12.3212 163.428 12.2932 163.521 12.2932H163.759C163.853 12.2932 163.927 12.3212 163.983 12.3772C164.039 12.4332 164.067 12.5079 164.067 12.6012V13.0912C164.301 12.7926 164.576 12.5639 164.893 12.4052C165.22 12.2372 165.612 12.1532 166.069 12.1532C167.115 12.1532 167.861 12.5919 168.309 13.4692C168.524 13.0679 168.837 12.7506 169.247 12.5172C169.667 12.2746 170.148 12.1532 170.689 12.1532C171.184 12.1532 171.627 12.2699 172.019 12.5032C172.421 12.7272 172.733 13.0632 172.957 13.5112C173.191 13.9592 173.307 14.5192 173.307 15.1912V19.2652C173.307 19.3586 173.279 19.4332 173.223 19.4892C173.167 19.5452 173.093 19.5732 172.999 19.5732H172.761C172.668 19.5732 172.593 19.5452 172.537 19.4892C172.481 19.4332 172.453 19.3586 172.453 19.2652V15.3312C172.453 14.7152 172.365 14.2392 172.187 13.9032C172.01 13.5579 171.777 13.3152 171.487 13.1752C171.198 13.0352 170.885 12.9652 170.549 12.9652C170.269 12.9652 169.985 13.0352 169.695 13.1752C169.406 13.3152 169.163 13.5579 168.967 13.9032C168.781 14.2392 168.687 14.7152 168.687 15.3312V19.2652C168.687 19.3586 168.659 19.4332 168.603 19.4892C168.547 19.5452 168.473 19.5732 168.379 19.5732H168.141C168.048 19.5732 167.973 19.5452 167.917 19.4892C167.861 19.4332 167.833 19.3586 167.833 19.2652V15.3312C167.833 14.7152 167.74 14.2392 167.553 13.9032C167.367 13.5579 167.129 13.3152 166.839 13.1752C166.55 13.0352 166.247 12.9652 165.929 12.9652C165.649 12.9652 165.365 13.0352 165.075 13.1752C164.786 13.3152 164.543 13.5579 164.347 13.9032C164.161 14.2392 164.067 14.7106 164.067 15.3172V19.2652C164.067 19.3586 164.039 19.4332 163.983 19.4892C163.927 19.5452 163.853 19.5732 163.759 19.5732H163.521Z" fill="#FCFCFC"/>
<rect x="107.44" y="0.0723243" width="78.1488" height="29.0021" rx="1.08486" stroke="white" stroke-opacity="0.5" stroke-width="0.144649"/>
<path d="M72.7773 46.3211C72.2643 46.3211 71.8484 46.737 71.8484 47.25C71.8484 47.763 72.2643 48.1789 72.7773 48.1789L72.7773 46.3211ZM222.759 47.9068C223.122 47.5441 223.122 46.9559 222.759 46.5932L216.847 40.6817C216.485 40.319 215.896 40.319 215.534 40.6817C215.171 41.0445 215.171 41.6326 215.534 41.9954L220.788 47.25L215.534 52.5046C215.171 52.8674 215.171 53.4555 215.534 53.8183C215.896 54.181 216.485 54.181 216.847 53.8183L222.759 47.9068ZM72.7773 48.1789L222.102 48.1789L222.102 46.3211L72.7773 46.3211L72.7773 48.1789Z" fill="#FFBF00"/>
<path d="M146.317 164.971C146.679 165.334 147.268 165.334 147.63 164.971L153.542 159.06C153.905 158.697 153.905 158.109 153.542 157.746C153.179 157.383 152.591 157.383 152.228 157.746L146.973 163.001L141.719 157.746C141.356 157.383 140.768 157.383 140.405 157.746C140.042 158.109 140.042 158.697 140.405 159.06L146.317 164.971ZM75.6055 48.2023H142.329V46.3445H75.6055V48.2023ZM146.045 122.978V164.314H147.902V122.978H146.045ZM146.045 51.9179V69.1025H147.902V51.9179H146.045ZM142.329 48.2023C144.381 48.2023 146.045 49.8659 146.045 51.9179H147.902C147.902 48.8398 145.407 46.3445 142.329 46.3445V48.2023Z" fill="#FFBF00"/>
<path d="M146.977 59.125V69.3429" stroke="#FFBF00" stroke-width="1.85779" stroke-linecap="round"/>
<path d="M146.977 122.508V132.726" stroke="#FFBF00" stroke-width="1.85779" stroke-linecap="round"/>
<path fill-rule="evenodd" clip-rule="evenodd" d="M153.931 85.814C153.931 89.9182 150.604 93.2451 146.5 93.2451C142.396 93.2451 139.069 89.9182 139.069 85.814C139.069 81.7097 142.396 78.3828 146.5 78.3828C150.604 78.3828 153.931 81.7097 153.931 85.814ZM146.114 90.8308C146.158 90.8836 146.221 90.9101 146.303 90.9101H146.724C146.798 90.9101 146.857 90.8836 146.902 90.8308C146.953 90.7855 146.979 90.7251 146.979 90.6496V89.8683C147.489 89.823 147.929 89.706 148.299 89.5173C148.676 89.3285 148.965 89.0756 149.164 88.7586C149.371 88.4415 149.475 88.0678 149.475 87.6375C149.475 87.2072 149.382 86.8562 149.197 86.5844C149.02 86.3051 148.743 86.0749 148.366 85.8937C147.988 85.7049 147.504 85.5275 146.913 85.3615C146.425 85.218 146.029 85.0821 145.726 84.9538C145.423 84.8255 145.201 84.6783 145.06 84.5122C144.92 84.3386 144.85 84.1234 144.85 83.8667C144.85 83.4666 144.998 83.1722 145.293 82.9835C145.596 82.7948 145.988 82.7004 146.469 82.7004C146.942 82.7004 147.327 82.8061 147.622 83.0175C147.918 83.2288 148.088 83.4893 148.133 83.7988C148.162 83.8818 148.203 83.9384 148.255 83.9686C148.314 83.9988 148.369 84.0139 148.421 84.0139H149.009C149.09 84.0139 149.149 83.9913 149.186 83.946C149.223 83.8932 149.242 83.8403 149.242 83.7875C149.234 83.5157 149.146 83.2364 148.976 82.9495C148.806 82.6626 148.554 82.4098 148.221 82.1908C147.889 81.9719 147.475 81.8322 146.979 81.7719V80.9792C146.979 80.9037 146.953 80.8433 146.902 80.798C146.857 80.7452 146.798 80.7188 146.724 80.7188H146.303C146.221 80.7188 146.158 80.7452 146.114 80.798C146.07 80.8433 146.048 80.9037 146.048 80.9792V81.7605C145.315 81.8285 144.75 82.0625 144.351 82.4626C143.951 82.8552 143.752 83.327 143.752 83.8781C143.752 84.3084 143.837 84.6632 144.007 84.9425C144.184 85.2218 144.45 85.4558 144.805 85.6446C145.16 85.8333 145.608 86.0069 146.147 86.1654C146.665 86.3164 147.086 86.4561 147.412 86.5844C147.737 86.7128 147.977 86.86 148.133 87.026C148.295 87.1846 148.377 87.3959 148.377 87.6602C148.377 88.0452 148.225 88.3547 147.922 88.5887C147.626 88.8152 147.16 88.9284 146.524 88.9284C146.11 88.9284 145.77 88.8718 145.504 88.7586C145.245 88.6378 145.046 88.4906 144.905 88.3169C144.765 88.1358 144.672 87.9546 144.628 87.7734C144.613 87.713 144.583 87.6602 144.539 87.6149C144.495 87.5696 144.428 87.5469 144.339 87.5469H143.774C143.707 87.5469 143.648 87.5734 143.596 87.6262C143.552 87.6715 143.53 87.7243 143.53 87.7847C143.545 88.1169 143.648 88.4302 143.84 88.7246C144.033 89.019 144.314 89.2719 144.683 89.4833C145.053 89.6871 145.508 89.8117 146.048 89.857V90.6496C146.048 90.7251 146.07 90.7855 146.114 90.8308Z" fill="url(#paint2_linear_5129_53267)"/>
<path d="M125.948 112.432C125.254 112.432 124.655 112.348 124.149 112.179C123.644 112.011 123.223 111.793 122.886 111.525C122.559 111.248 122.311 110.951 122.143 110.633C121.974 110.307 121.885 109.984 121.875 109.667C121.875 109.578 121.905 109.509 121.965 109.459C122.034 109.4 122.113 109.37 122.202 109.37H123.54C123.639 109.37 123.723 109.39 123.793 109.43C123.862 109.469 123.921 109.549 123.971 109.667C124.06 109.935 124.204 110.148 124.402 110.307C124.61 110.465 124.848 110.579 125.115 110.648C125.383 110.708 125.665 110.738 125.963 110.738C126.557 110.738 127.028 110.599 127.374 110.321C127.731 110.034 127.909 109.628 127.909 109.103C127.909 108.578 127.746 108.201 127.419 107.973C127.092 107.735 126.636 107.616 126.052 107.616H124.521C124.412 107.616 124.323 107.587 124.253 107.527C124.184 107.458 124.149 107.369 124.149 107.26V106.636C124.149 106.536 124.169 106.452 124.209 106.383C124.258 106.304 124.308 106.239 124.357 106.19L127.018 103.589H122.767C122.658 103.589 122.569 103.554 122.5 103.485C122.44 103.415 122.41 103.331 122.41 103.232V102.251C122.41 102.142 122.44 102.053 122.5 101.984C122.569 101.914 122.658 101.88 122.767 101.88H129.143C129.252 101.88 129.341 101.914 129.411 101.984C129.48 102.053 129.515 102.142 129.515 102.251V103.143C129.515 103.232 129.495 103.311 129.455 103.381C129.416 103.45 129.371 103.509 129.321 103.559L126.75 106.205L126.929 106.219C127.533 106.269 128.068 106.408 128.534 106.636C129.009 106.853 129.376 107.176 129.634 107.602C129.901 108.028 130.035 108.563 130.035 109.207C130.035 109.88 129.856 110.46 129.5 110.946C129.153 111.421 128.672 111.788 128.058 112.045C127.444 112.303 126.74 112.432 125.948 112.432ZM132.322 112.283C132.114 112.283 132.01 112.184 132.01 111.986C132.01 111.927 132.03 111.872 132.069 111.822L139.396 102.162C139.466 102.073 139.535 102.003 139.604 101.954C139.674 101.904 139.773 101.88 139.902 101.88H140.689C140.897 101.88 141.001 101.979 141.001 102.177C141.001 102.236 140.982 102.291 140.942 102.34L133.615 112.001C133.546 112.09 133.476 112.159 133.407 112.209C133.347 112.258 133.248 112.283 133.11 112.283H132.322ZM139.471 112.372C138.807 112.372 138.282 112.189 137.895 111.822C137.509 111.456 137.296 110.975 137.256 110.381C137.246 110.123 137.241 109.9 137.241 109.712C137.241 109.524 137.246 109.291 137.256 109.013C137.296 108.419 137.499 107.938 137.866 107.572C138.242 107.205 138.777 107.022 139.471 107.022C140.174 107.022 140.709 107.205 141.076 107.572C141.452 107.938 141.655 108.419 141.685 109.013C141.705 109.291 141.715 109.524 141.715 109.712C141.715 109.9 141.705 110.123 141.685 110.381C141.655 110.975 141.442 111.456 141.046 111.822C140.66 112.189 140.134 112.372 139.471 112.372ZM139.471 111.213C139.689 111.213 139.857 111.169 139.976 111.079C140.105 110.99 140.199 110.876 140.258 110.738C140.318 110.599 140.348 110.46 140.348 110.321C140.367 110.074 140.377 109.866 140.377 109.697C140.377 109.519 140.367 109.316 140.348 109.088C140.338 108.86 140.268 108.652 140.139 108.464C140.011 108.265 139.788 108.166 139.471 108.166C139.163 108.166 138.946 108.265 138.817 108.464C138.688 108.652 138.614 108.86 138.594 109.088C138.584 109.316 138.579 109.519 138.579 109.697C138.579 109.866 138.584 110.074 138.594 110.321C138.614 110.46 138.648 110.599 138.698 110.738C138.757 110.876 138.846 110.99 138.965 111.079C139.094 111.169 139.263 111.213 139.471 111.213ZM133.541 107.111C132.877 107.111 132.352 106.938 131.965 106.591C131.579 106.244 131.366 105.774 131.326 105.179C131.316 104.921 131.311 104.698 131.311 104.51C131.311 104.312 131.316 104.074 131.326 103.797C131.366 103.202 131.569 102.722 131.935 102.355C132.312 101.989 132.847 101.805 133.541 101.805C134.244 101.805 134.779 101.989 135.146 102.355C135.522 102.722 135.725 103.202 135.755 103.797C135.775 104.074 135.785 104.312 135.785 104.51C135.785 104.698 135.775 104.921 135.755 105.179C135.725 105.774 135.512 106.244 135.116 106.591C134.73 106.938 134.204 107.111 133.541 107.111ZM133.541 106.011C133.759 106.011 133.927 105.967 134.046 105.878C134.175 105.788 134.269 105.674 134.328 105.536C134.388 105.397 134.417 105.253 134.417 105.105C134.437 104.857 134.447 104.649 134.447 104.48C134.447 104.302 134.437 104.099 134.417 103.871C134.408 103.643 134.338 103.435 134.209 103.247C134.081 103.059 133.858 102.965 133.541 102.965C133.233 102.965 133.015 103.059 132.887 103.247C132.758 103.435 132.688 103.643 132.679 103.871C132.669 104.099 132.664 104.302 132.664 104.48C132.664 104.649 132.669 104.857 132.679 105.105C132.688 105.253 132.718 105.397 132.768 105.536C132.827 105.674 132.916 105.788 133.035 105.878C133.164 105.967 133.332 106.011 133.541 106.011ZM147.254 112.283C147.155 112.283 147.071 112.249 147.001 112.179C146.932 112.11 146.897 112.026 146.897 111.927V102.251C146.897 102.142 146.932 102.053 147.001 101.984C147.071 101.914 147.155 101.88 147.254 101.88H153.704C153.813 101.88 153.902 101.914 153.972 101.984C154.041 102.053 154.076 102.142 154.076 102.251V103.291C154.076 103.4 154.041 103.49 153.972 103.559C153.902 103.618 153.813 103.648 153.704 103.648H148.933V106.472H153.407C153.516 106.472 153.605 106.507 153.675 106.576C153.744 106.645 153.779 106.735 153.779 106.844V107.884C153.779 107.983 153.744 108.067 153.675 108.137C153.605 108.206 153.516 108.241 153.407 108.241H148.933V111.927C148.933 112.026 148.899 112.11 148.829 112.179C148.76 112.249 148.671 112.283 148.562 112.283H147.254ZM158.829 112.432C157.729 112.432 156.857 112.115 156.213 111.481C155.569 110.847 155.222 109.945 155.173 108.776C155.163 108.677 155.158 108.553 155.158 108.404C155.158 108.246 155.163 108.122 155.173 108.033C155.213 107.289 155.381 106.645 155.678 106.1C155.985 105.556 156.406 105.139 156.942 104.852C157.477 104.555 158.106 104.406 158.829 104.406C159.632 104.406 160.305 104.575 160.85 104.911C161.395 105.238 161.806 105.699 162.084 106.294C162.361 106.878 162.5 107.557 162.5 108.33V108.642C162.5 108.741 162.465 108.825 162.396 108.895C162.327 108.964 162.237 108.999 162.128 108.999H157.194C157.194 108.999 157.194 109.013 157.194 109.043C157.194 109.073 157.194 109.098 157.194 109.118C157.204 109.464 157.269 109.786 157.387 110.084C157.516 110.371 157.7 110.604 157.937 110.782C158.185 110.96 158.477 111.05 158.814 111.05C159.092 111.05 159.324 111.01 159.513 110.931C159.701 110.842 159.855 110.742 159.973 110.633C160.092 110.524 160.177 110.435 160.226 110.366C160.315 110.247 160.385 110.178 160.434 110.158C160.494 110.128 160.578 110.113 160.687 110.113H161.965C162.064 110.113 162.143 110.143 162.203 110.202C162.272 110.262 162.302 110.336 162.292 110.425C162.282 110.584 162.198 110.777 162.039 111.005C161.891 111.233 161.673 111.456 161.385 111.674C161.098 111.892 160.736 112.075 160.3 112.224C159.874 112.362 159.384 112.432 158.829 112.432ZM157.194 107.75H160.479V107.706C160.479 107.319 160.414 106.982 160.286 106.695C160.157 106.408 159.969 106.18 159.721 106.011C159.473 105.843 159.176 105.759 158.829 105.759C158.482 105.759 158.185 105.843 157.937 106.011C157.69 106.18 157.501 106.408 157.373 106.695C157.254 106.982 157.194 107.319 157.194 107.706V107.75ZM167.407 112.432C166.307 112.432 165.435 112.115 164.791 111.481C164.147 110.847 163.8 109.945 163.751 108.776C163.741 108.677 163.736 108.553 163.736 108.404C163.736 108.246 163.741 108.122 163.751 108.033C163.79 107.289 163.959 106.645 164.256 106.1C164.563 105.556 164.984 105.139 165.519 104.852C166.054 104.555 166.684 104.406 167.407 104.406C168.209 104.406 168.883 104.575 169.428 104.911C169.973 105.238 170.384 105.699 170.662 106.294C170.939 106.878 171.078 107.557 171.078 108.33V108.642C171.078 108.741 171.043 108.825 170.974 108.895C170.904 108.964 170.815 108.999 170.706 108.999H165.772C165.772 108.999 165.772 109.013 165.772 109.043C165.772 109.073 165.772 109.098 165.772 109.118C165.782 109.464 165.846 109.786 165.965 110.084C166.094 110.371 166.277 110.604 166.515 110.782C166.763 110.96 167.055 111.05 167.392 111.05C167.669 111.05 167.902 111.01 168.091 110.931C168.279 110.842 168.432 110.742 168.551 110.633C168.67 110.524 168.754 110.435 168.804 110.366C168.893 110.247 168.962 110.178 169.012 110.158C169.071 110.128 169.156 110.113 169.265 110.113H170.543C170.642 110.113 170.721 110.143 170.781 110.202C170.85 110.262 170.88 110.336 170.87 110.425C170.86 110.584 170.776 110.777 170.617 111.005C170.468 111.233 170.25 111.456 169.963 111.674C169.676 111.892 169.314 112.075 168.878 112.224C168.452 112.362 167.962 112.432 167.407 112.432ZM165.772 107.75H169.057V107.706C169.057 107.319 168.992 106.982 168.863 106.695C168.735 106.408 168.546 106.18 168.299 106.011C168.051 105.843 167.754 105.759 167.407 105.759C167.06 105.759 166.763 105.843 166.515 106.011C166.267 106.18 166.079 106.408 165.95 106.695C165.831 106.982 165.772 107.319 165.772 107.706V107.75Z" fill="white"/>
<defs>
<filter id="filter0_b_5129_53267" x="228.147" y="12.0333" width="70.4957" height="70.4959" filterUnits="userSpaceOnUse" color-interpolation-filters="sRGB">
<feFlood flood-opacity="0" result="BackgroundImageFix"/>
<feGaussianBlur in="BackgroundImage" stdDeviation="3.48336"/>
<feComposite in2="SourceAlpha" operator="in" result="effect1_backgroundBlur_5129_53267"/>
<feBlend mode="normal" in="SourceGraphic" in2="effect1_backgroundBlur_5129_53267" result="shape"/>
</filter>
<filter id="filter1_b_5129_53267" x="-6.96672" y="12.0333" width="70.4957" height="70.4959" filterUnits="userSpaceOnUse" color-interpolation-filters="sRGB">
<feFlood flood-opacity="0" result="BackgroundImageFix"/>
<feGaussianBlur in="BackgroundImage" stdDeviation="3.48336"/>
<feComposite in2="SourceAlpha" operator="in" result="effect1_backgroundBlur_5129_53267"/>
<feBlend mode="normal" in="SourceGraphic" in2="effect1_backgroundBlur_5129_53267" result="shape"/>
</filter>
<linearGradient id="paint0_linear_5129_53267" x1="263.382" y1="65.4182" x2="263.382" y2="29.2146" gradientUnits="userSpaceOnUse">
<stop stop-color="#FFBF00"/>
<stop offset="1" stop-color="#E843C4"/>
</linearGradient>
<linearGradient id="paint1_linear_5129_53267" x1="27.9961" y1="29.0065" x2="27.9961" y2="61.0098" gradientUnits="userSpaceOnUse">
<stop stop-color="#FFBF00"/>
<stop offset="1" stop-color="#E843C4"/>
</linearGradient>
<linearGradient id="paint2_linear_5129_53267" x1="146.498" y1="93.2482" x2="146.498" y2="78.3843" gradientUnits="userSpaceOnUse">
<stop stop-color="#FFBF00"/>
<stop offset="1" stop-color="#E843C4"/>
</linearGradient>
<clipPath id="clip0_5129_53267">
<rect width="36.1999" height="36.1999" fill="white" transform="matrix(-1 0 0 1 281.493 29.1797)"/>
</clipPath>
</defs>
</svg>
