<svg width="746" height="332" viewBox="0 0 746 332" fill="none" xmlns="http://www.w3.org/2000/svg">
<mask id="mask0_4113_43360" style="mask-type:alpha" maskUnits="userSpaceOnUse" x="8" y="8" width="731" height="317">
<path fill-rule="evenodd" clip-rule="evenodd" d="M379.831 9.34235C380.282 9.14697 380.282 8.8302 379.831 8.63482C379.379 8.43944 378.648 8.43944 378.196 8.63482L373.065 10.8567L367.937 8.63612C367.485 8.44075 366.754 8.44075 366.302 8.63613C365.851 8.83151 365.851 9.14828 366.302 9.34366L371.431 11.5642L333.418 28.0235L328.292 25.8041C327.841 25.6087 327.109 25.6087 326.658 25.8041C326.207 25.9995 326.207 26.3163 326.658 26.5116L331.784 28.7311L293.773 45.1892L288.644 42.9681C288.192 42.7728 287.461 42.7728 287.009 42.9682C286.558 43.1635 286.558 43.4803 287.009 43.6757L292.139 45.8968L254.132 62.3532L249.003 60.1322C248.552 59.9368 247.82 59.9368 247.369 60.1322C246.918 60.3276 246.918 60.6444 247.369 60.8398L252.498 63.0608L214.49 79.5181L209.358 77.2963C208.907 77.1009 208.176 77.1009 207.724 77.2963C207.273 77.4917 207.273 77.8084 207.724 78.0038L212.856 80.2256L174.843 96.6849L169.714 94.4642C169.263 94.2689 168.531 94.2689 168.08 94.4643C167.629 94.6596 167.629 94.9764 168.08 95.1718L173.208 97.3925L135.2 113.85L130.069 111.628C129.618 111.433 128.886 111.433 128.435 111.628C127.984 111.824 127.984 112.14 128.435 112.336L133.566 114.557L95.5592 131.014L90.4287 128.792C89.9775 128.597 89.2459 128.597 88.7946 128.792C88.3434 128.988 88.3434 129.305 88.7946 129.5L93.9251 131.721L55.912 148.181L50.7841 145.96C50.3329 145.765 49.6013 145.765 49.1501 145.96C48.6989 146.156 48.6989 146.472 49.1501 146.668L54.2779 148.888L16.2693 165.345L11.1396 163.124C10.6884 162.929 9.95679 162.929 9.50555 163.124C9.05432 163.32 9.05432 163.637 9.50554 163.832L14.6352 166.053L9.50541 168.274C9.05419 168.47 9.05418 168.786 9.50542 168.982C9.95665 169.177 10.6883 169.177 11.1395 168.982L16.2693 166.761L54.2824 183.22L49.1499 185.442C48.6987 185.637 48.6987 185.954 49.15 186.15C49.6012 186.345 50.3328 186.345 50.784 186.15L55.9164 183.927L93.9296 200.387L88.7945 202.61C88.3432 202.805 88.3432 203.122 88.7945 203.318C89.2457 203.513 89.9773 203.513 90.4285 203.318L95.5636 201.094L133.566 217.549L128.435 219.77C127.984 219.966 127.984 220.282 128.435 220.478C128.886 220.673 129.618 220.673 130.069 220.478L135.2 218.256L173.215 234.716L168.084 236.938C167.632 237.134 167.632 237.45 168.084 237.646C168.535 237.841 169.266 237.841 169.718 237.646L174.849 235.424L212.856 251.88L207.724 254.102C207.273 254.298 207.273 254.614 207.724 254.81C208.175 255.005 208.907 255.005 209.358 254.81L214.49 252.588L252.503 269.047L247.369 271.27C246.917 271.466 246.917 271.782 247.369 271.978C247.82 272.173 248.552 272.173 249.003 271.978L254.137 269.755L292.145 286.212L287.013 288.434C286.562 288.63 286.562 288.946 287.013 289.142C287.464 289.337 288.196 289.337 288.647 289.142L293.78 286.92L331.788 303.377L326.658 305.598C326.207 305.794 326.207 306.111 326.658 306.306C327.109 306.501 327.841 306.501 328.292 306.306L333.422 304.084L371.437 320.545L366.306 322.766C365.855 322.962 365.855 323.278 366.306 323.474C366.757 323.669 367.489 323.669 367.94 323.474L373.071 321.252L378.196 323.471C378.648 323.667 379.379 323.667 379.831 323.471C380.282 323.276 380.282 322.959 379.831 322.764L374.705 320.545L412.714 304.087L417.841 306.307C418.292 306.503 419.024 306.503 419.475 306.307C419.926 306.112 419.926 305.795 419.475 305.6L414.348 303.38L452.361 286.92L457.486 289.139C457.937 289.335 458.668 289.335 459.12 289.139C459.571 288.944 459.571 288.627 459.12 288.432L453.995 286.213L492.002 269.756L497.126 271.975C497.577 272.171 498.309 272.171 498.76 271.975C499.211 271.78 499.211 271.463 498.76 271.268L493.636 269.049L531.645 252.592L536.771 254.811C537.222 255.006 537.954 255.006 538.405 254.811C538.856 254.616 538.856 254.299 538.405 254.104L533.279 251.884L571.292 235.425L576.415 237.643C576.866 237.839 577.598 237.839 578.049 237.643C578.501 237.448 578.501 237.131 578.049 236.936L572.926 234.717L610.935 218.26L616.06 220.479C616.511 220.674 617.243 220.674 617.694 220.479C618.145 220.284 618.145 219.967 617.694 219.772L612.569 217.552L650.575 201.096L655.7 203.315C656.152 203.51 656.883 203.51 657.334 203.315C657.786 203.12 657.786 202.803 657.334 202.607L652.209 200.388L690.22 183.93L695.349 186.151C695.8 186.346 696.532 186.346 696.983 186.151C697.434 185.956 697.434 185.639 696.983 185.443L691.854 183.223L729.867 166.763L734.993 168.983C735.445 169.178 736.176 169.178 736.627 168.983C737.079 168.788 737.079 168.471 736.627 168.275L731.501 166.056L736.631 163.835C737.083 163.639 737.083 163.322 736.631 163.127C736.18 162.932 735.449 162.932 734.997 163.127L729.867 165.348L691.852 148.888L696.983 146.667C697.434 146.471 697.434 146.154 696.983 145.959C696.532 145.764 695.8 145.764 695.349 145.959L690.218 148.181L652.209 131.723L657.338 129.503C657.79 129.307 657.79 128.99 657.338 128.795C656.887 128.6 656.156 128.6 655.704 128.795L650.575 131.016L612.567 114.558L617.694 112.338C618.145 112.143 618.145 111.826 617.694 111.631C617.243 111.436 616.511 111.436 616.06 111.631L610.933 113.851L572.92 97.3916L578.049 95.1705C578.501 94.9751 578.501 94.6583 578.049 94.4629C577.598 94.2676 576.866 94.2676 576.415 94.4629L571.285 96.6841L533.279 80.2276L538.409 78.0064C538.86 77.811 538.86 77.4943 538.409 77.2989C537.957 77.1035 537.226 77.1035 536.775 77.2989L531.645 79.5201L493.63 63.0599L498.76 60.8384C499.211 60.6431 499.211 60.3263 498.76 60.1309C498.309 59.9355 497.577 59.9355 497.126 60.1309L491.996 62.3524L453.993 45.8979L459.12 43.6783C459.571 43.4829 459.571 43.1661 459.12 42.9708C458.668 42.7754 457.937 42.7754 457.486 42.9708L452.359 45.1903L414.346 28.7311L419.475 26.5103C419.926 26.3149 419.926 25.9982 419.475 25.8028C419.024 25.6074 418.292 25.6074 417.841 25.8028L412.712 28.0235L374.699 11.5642L379.831 9.34235ZM373.071 319.837L411.08 303.38L373.065 286.92L335.056 303.377L373.071 319.837ZM333.422 302.669L371.431 286.212L333.422 269.755L295.414 286.212L333.422 302.669ZM293.78 285.505L331.788 269.047L293.78 252.59L255.771 269.047L293.78 285.505ZM254.137 268.34L292.146 251.882L254.132 235.423L216.124 251.88L254.137 268.34ZM214.49 251.173L252.498 234.716L214.492 218.259L176.483 234.716L214.49 251.173ZM174.849 234.009L212.858 217.552L174.843 201.091L136.834 217.549L174.849 234.009ZM135.2 216.841L173.208 200.384L135.206 183.929L97.1977 200.387L135.2 216.841ZM95.5636 199.679L133.572 183.222L95.5591 166.762L57.5505 183.22L95.5636 199.679ZM55.9164 182.512L93.9251 166.055L55.9119 149.596L17.9033 166.053L55.9164 182.512ZM95.5591 165.347L57.546 148.888L95.5591 132.429L133.572 148.888L95.5591 165.347ZM135.206 182.514L97.1932 166.055L135.206 149.596L173.219 166.055L135.206 182.514ZM174.843 199.676L136.84 183.222L174.854 166.762L212.856 183.217L174.843 199.676ZM214.492 216.844L176.477 200.384L214.49 183.925L252.505 200.385L214.492 216.844ZM254.132 234.008L216.126 217.552L254.139 201.092L292.146 217.549L254.132 234.008ZM293.78 251.175L255.766 234.716L293.78 218.256L331.793 234.716L293.78 251.175ZM333.422 268.34L295.414 251.882L333.427 235.423L371.435 251.88L333.422 268.34ZM373.065 285.505L335.056 269.047L373.069 252.588L411.078 269.045L373.065 285.505ZM412.714 302.672L374.699 286.212L412.712 269.753L450.727 286.213L412.714 302.672ZM452.361 285.505L490.368 269.049L452.353 252.589L414.346 269.045L452.361 285.505ZM412.712 268.338L450.719 251.881L412.71 235.424L374.704 251.88L412.712 268.338ZM373.069 251.173L411.076 234.716L373.068 218.259L335.061 234.716L373.069 251.173ZM333.427 234.008L371.433 217.552L333.42 201.092L295.414 217.549L333.427 234.008ZM293.78 216.841L331.786 200.385L293.78 183.928L255.773 200.385L293.78 216.841ZM254.139 199.677L292.146 183.221L254.13 166.761L216.124 183.217L254.139 199.677ZM214.49 182.509L252.496 166.053L214.494 149.598L176.488 166.055L214.49 182.509ZM174.854 165.347L212.86 148.891L174.847 132.432L136.84 148.888L174.854 165.347ZM135.206 148.181L173.213 131.724L135.2 115.265L97.1932 131.721L135.206 148.181ZM174.847 131.017L136.834 114.557L174.843 98.1L212.856 114.559L174.847 131.017ZM214.494 148.183L176.481 131.724L214.49 115.267L252.503 131.726L214.494 148.183ZM254.13 165.345L216.128 148.891L254.137 132.434L292.139 148.888L254.13 165.345ZM293.78 182.513L255.765 166.053L293.773 149.596L331.788 166.056L293.78 182.513ZM333.42 199.677L295.414 183.221L333.422 166.763L371.429 183.22L333.42 199.677ZM373.068 216.844L335.054 200.385L373.063 183.927L411.076 200.387L373.068 216.844ZM412.71 234.009L374.702 217.552L412.71 201.094L450.719 217.552L412.71 234.009ZM452.353 251.174L414.344 234.716L452.353 218.259L490.361 234.716L452.353 251.174ZM492.002 268.341L453.987 251.881L491.996 235.424L530.011 251.884L492.002 268.341ZM531.645 251.177L569.658 234.717L531.643 218.257L493.63 234.716L531.645 251.177ZM491.995 234.009L530.009 217.55L492 201.092L453.987 217.552L491.995 234.009ZM452.353 216.844L490.366 200.385L452.357 183.927L414.344 200.387L452.353 216.844ZM412.71 199.679L450.723 183.22L412.71 166.761L374.697 183.22L412.71 199.679ZM373.063 182.512L411.076 166.053L373.069 149.597L335.056 166.056L373.063 182.512ZM333.422 165.348L371.435 148.889L333.42 132.429L295.407 148.888L333.422 165.348ZM293.773 148.181L331.786 131.721L293.784 115.267L255.771 131.726L293.773 148.181ZM254.137 131.019L292.15 114.559L254.137 98.1L216.124 114.559L254.137 131.019ZM214.49 113.852L252.503 97.3925L214.49 80.9332L176.477 97.3925L214.49 113.852ZM254.137 96.6849L216.124 80.2256L254.132 63.7683L292.146 80.2276L254.137 96.6849ZM293.784 113.852L255.771 97.3925L293.78 80.9351L331.793 97.3944L293.784 113.852ZM333.42 131.014L295.418 114.559L333.427 98.1019L371.429 114.556L333.42 131.014ZM373.069 148.181L335.054 131.721L373.063 115.264L411.078 131.724L373.069 148.181ZM412.71 165.345L374.704 148.889L412.712 132.432L450.719 148.888L412.71 165.345ZM452.357 182.512L414.344 166.053L452.353 149.596L490.366 166.055L452.357 182.512ZM492 199.677L453.991 183.22L492 166.763L530.009 183.22L492 199.677ZM531.643 216.842L493.634 200.385L531.643 183.927L569.651 200.385L531.643 216.842ZM571.292 234.01L533.277 217.55L571.285 201.092L609.3 217.552L571.292 234.01ZM610.935 216.845L648.941 200.388L610.926 183.928L572.919 200.385L610.935 216.845ZM571.285 199.677L609.292 183.221L571.283 166.763L533.277 183.22L571.285 199.677ZM531.643 182.512L569.649 166.056L531.641 149.598L493.634 166.055L531.643 182.512ZM492 165.347L530.007 148.891L491.994 132.432L453.987 148.888L492 165.347ZM452.353 148.181L490.36 131.724L452.353 115.268L414.346 131.724L452.353 148.181ZM412.712 131.017L450.719 114.56L412.704 98.1L374.697 114.556L412.712 131.017ZM373.063 113.849L411.07 97.3925L373.068 80.9379L335.061 97.3944L373.063 113.849ZM333.427 96.6869L371.433 80.2304L333.42 63.7711L295.414 80.2276L333.427 96.6869ZM293.78 79.5201L331.786 63.0636L293.773 46.6043L255.766 63.0608L293.78 79.5201ZM333.42 62.356L295.407 45.8968L333.418 29.4386L371.431 45.8979L333.42 62.356ZM373.068 79.5229L335.054 63.0636L373.065 46.6054L411.078 63.0647L373.068 79.5229ZM412.704 96.6849L374.702 80.2304L412.712 63.7722L450.714 80.2268L412.704 96.6849ZM452.353 113.853L414.338 97.3925L452.348 80.9343L490.363 97.3944L452.353 113.853ZM491.994 131.017L453.987 114.56L491.998 98.102L530.004 114.558L491.994 131.017ZM531.641 148.183L493.628 131.724L531.638 115.266L569.651 131.725L531.641 148.183ZM571.283 165.348L533.275 148.891L571.285 132.433L609.294 148.89L571.283 165.348ZM610.926 182.513L572.917 166.056L610.928 149.598L648.937 166.055L610.926 182.513ZM650.575 199.681L612.56 183.221L650.571 166.763L688.586 183.223L650.575 199.681ZM690.22 182.515L728.233 166.056L690.218 149.596L652.205 166.055L690.22 182.515ZM650.571 165.347L688.584 148.888L650.575 132.431L612.562 148.89L650.571 165.347ZM610.928 148.183L648.941 131.723L610.933 115.266L572.92 131.725L610.928 148.183ZM571.285 131.018L609.299 114.558L571.285 98.0992L533.272 114.558L571.285 131.018ZM531.638 113.851L569.651 97.3916L531.645 80.9351L493.632 97.3944L531.638 113.851ZM491.998 96.6869L530.011 80.2276L491.996 63.7675L453.982 80.2268L491.998 96.6869ZM452.348 79.5192L490.361 63.0599L452.359 46.6054L414.346 63.0647L452.348 79.5192ZM412.712 62.3571L450.725 45.8979L412.712 29.4386L374.699 45.8979L412.712 62.3571ZM373.065 45.1903L411.078 28.7311L373.065 12.2718L335.052 28.7311L373.065 45.1903Z" fill="url(#paint0_radial_4113_43360)"/>
<path fill-rule="evenodd" clip-rule="evenodd" d="M380.636 9.70814C381.539 9.31738 381.539 8.68383 380.636 8.29307C379.734 7.90231 378.27 7.90231 377.368 8.29307L373.057 10.1595L368.75 8.29437C367.847 7.90361 366.384 7.90361 365.482 8.29437C364.579 8.68513 364.579 9.31868 365.482 9.70943L369.789 11.5746L333.413 27.3252L329.101 25.4584C328.199 25.0677 326.736 25.0677 325.833 25.4584C324.931 25.8492 324.931 26.4827 325.833 26.8735L330.145 28.7403L293.772 44.4892L289.461 42.6225C288.558 42.2317 287.095 42.2317 286.193 42.6225C285.29 43.0133 285.29 43.6468 286.193 44.0376L290.504 45.9043L254.129 61.6541L249.816 59.7865C248.914 59.3958 247.451 59.3958 246.548 59.7865C245.646 60.1773 245.646 60.8109 246.548 61.2016L250.861 63.0691L214.48 78.8217L210.168 76.9545C209.265 76.5638 207.802 76.5638 206.9 76.9545C205.997 77.3453 205.997 77.9788 206.9 78.3696L211.212 80.2368L174.839 95.9858L170.527 94.1186C169.625 93.7278 168.161 93.7278 167.259 94.1186C166.357 94.5093 166.357 95.1429 167.259 95.5337L171.571 97.4008L135.197 113.151L130.883 111.283C129.98 110.892 128.517 110.892 127.614 111.283C126.712 111.673 126.712 112.307 127.614 112.698L131.929 114.566L95.5495 130.317L91.2381 128.451C90.3356 128.06 88.8724 128.06 87.9699 128.451C87.0675 128.841 87.0675 129.475 87.9699 129.866L92.2814 131.733L55.9024 147.484L51.5936 145.619C50.6911 145.228 49.2279 145.228 48.3254 145.619C47.423 146.009 47.423 146.643 48.3254 147.034L52.6342 148.899L16.2622 164.648L11.9451 162.779C11.0427 162.388 9.57946 162.388 8.67699 162.779C7.77452 163.17 7.77453 163.803 8.67699 164.194L12.9941 166.063L8.67685 167.932C7.77439 168.323 7.77438 168.957 8.67685 169.347C9.57932 169.738 11.0425 169.738 11.945 169.347L16.2622 167.478L52.6387 183.229L48.3253 185.096C47.4228 185.487 47.4228 186.121 48.3253 186.512C49.2278 186.902 50.691 186.902 51.5934 186.512L55.9069 184.644L92.2859 200.396L87.9698 202.264C87.0674 202.655 87.0673 203.289 87.9698 203.68C88.8723 204.07 90.3355 204.07 91.238 203.68L95.554 201.811L131.929 217.56L127.614 219.429C126.712 219.819 126.712 220.453 127.614 220.844C128.517 221.234 129.98 221.234 130.882 220.844L135.197 218.976L171.571 234.725L167.259 236.593C166.356 236.983 166.356 237.617 167.259 238.008C168.161 238.398 169.625 238.398 170.527 238.008L174.839 236.14L211.212 251.889L206.9 253.757C205.997 254.147 205.997 254.781 206.9 255.172C207.802 255.562 209.265 255.562 210.168 255.172L214.48 253.304L250.859 269.056L246.544 270.925C245.642 271.315 245.642 271.949 246.544 272.34C247.447 272.73 248.91 272.73 249.812 272.34L254.127 270.471L290.502 286.221L286.189 288.089C285.286 288.479 285.286 289.113 286.189 289.504C287.091 289.894 288.554 289.894 289.457 289.504L293.77 287.636L330.149 303.388L325.833 305.257C324.931 305.647 324.931 306.281 325.833 306.672C326.736 307.062 328.199 307.062 329.101 306.672L333.417 304.803L369.794 320.554L365.482 322.421C364.579 322.811 364.579 323.445 365.482 323.836C366.384 324.227 367.847 324.227 368.75 323.836L373.062 321.969L377.368 323.833C378.27 324.224 379.734 324.224 380.636 323.833C381.539 323.442 381.539 322.809 380.636 322.418L376.33 320.554L412.702 304.805L417.016 306.673C417.919 307.064 419.382 307.064 420.285 306.673C421.187 306.282 421.187 305.649 420.285 305.258L415.97 303.39L452.349 287.638L456.661 289.505C457.563 289.896 459.027 289.896 459.929 289.505C460.831 289.114 460.831 288.481 459.929 288.09L455.617 286.223L491.996 270.471L496.305 272.337C497.208 272.728 498.671 272.728 499.574 272.337C500.476 271.946 500.476 271.313 499.574 270.922L495.264 269.056L531.639 253.306L535.95 255.173C536.852 255.564 538.316 255.564 539.218 255.173C540.121 254.782 540.121 254.149 539.218 253.758L534.907 251.891L571.28 236.142L575.591 238.009C576.493 238.4 577.956 238.4 578.859 238.009C579.761 237.618 579.761 236.985 578.859 236.594L574.548 234.727L610.929 218.975L615.239 220.841C616.141 221.232 617.605 221.232 618.507 220.841C619.41 220.45 619.41 219.817 618.507 219.426L614.197 217.56L650.572 201.81L654.884 203.677C655.786 204.068 657.249 204.068 658.152 203.677C659.054 203.286 659.054 202.653 658.152 202.262L653.84 200.395L690.212 184.646L694.524 186.513C695.427 186.904 696.89 186.904 697.792 186.513C698.695 186.122 698.695 185.489 697.792 185.098L693.48 183.231L729.857 167.48L734.173 169.349C735.075 169.74 736.538 169.74 737.441 169.349C738.343 168.958 738.343 168.324 737.441 167.934L733.125 166.065L737.441 164.196C738.343 163.806 738.343 163.172 737.441 162.781C736.538 162.391 735.075 162.391 734.173 162.781L729.857 164.65L693.48 148.899L697.792 147.032C698.695 146.642 698.695 146.008 697.792 145.617C696.89 145.227 695.427 145.227 694.524 145.617L690.212 147.484L653.833 131.733L658.148 129.864C659.05 129.474 659.05 128.84 658.148 128.449C657.245 128.059 655.782 128.059 654.88 128.449L650.565 130.317L614.191 114.568L618.503 112.7C619.406 112.31 619.406 111.676 618.503 111.285C617.601 110.895 616.138 110.895 615.235 111.285L610.922 113.153L574.543 97.4008L578.859 95.5324C579.761 95.1416 579.761 94.508 578.859 94.1173C577.956 93.7265 576.493 93.7265 575.591 94.1173L571.275 95.9858L534.903 80.2368L539.218 78.3683C540.121 77.9775 540.121 77.344 539.218 76.9532C538.316 76.5625 536.852 76.5625 535.95 76.9532L531.635 78.8218L495.26 63.072L499.574 61.2042C500.476 60.8135 500.476 60.1799 499.574 59.7892C498.671 59.3984 497.208 59.3984 496.305 59.7892L491.992 61.6569L455.617 45.9071L459.929 44.0402C460.831 43.6494 460.831 43.0159 459.929 42.6251C459.027 42.2343 457.563 42.2343 456.661 42.6251L452.349 44.492L415.97 28.7403L420.285 26.8722C421.187 26.4814 421.187 25.8479 420.285 25.4571C419.382 25.0664 417.919 25.0664 417.016 25.4571L412.702 27.3252L376.326 11.5746L380.636 9.70814ZM373.062 319.139L409.434 303.39L373.057 287.639L336.685 303.388L373.062 319.139ZM333.417 301.973L369.789 286.224L333.41 270.472L297.038 286.221L333.417 301.973ZM293.77 284.806L330.142 269.057L293.767 253.307L257.395 269.056L293.77 284.806ZM254.127 267.641L290.499 251.892L254.12 236.141L217.748 251.889L254.127 267.641ZM214.48 250.474L250.852 234.726L214.48 218.977L178.108 234.725L214.48 250.474ZM174.839 233.31L211.211 217.562L174.837 201.812L138.465 217.56L174.839 233.31ZM135.197 216.145L171.569 200.397L135.194 184.647L98.8222 200.396L135.197 216.145ZM95.554 198.981L131.926 183.232L95.547 167.48L59.175 183.229L95.554 198.981ZM55.9069 181.814L92.2789 166.065L55.9024 150.314L19.5304 166.063L55.9069 181.814ZM95.547 164.65L59.1705 148.899L95.5495 133.148L131.926 148.898L95.547 164.65ZM135.194 181.817L98.8152 166.065L135.194 150.313L171.573 166.065L135.194 181.817ZM174.837 198.982L138.462 183.232L174.841 167.48L211.216 183.23L174.837 198.982ZM214.48 216.147L178.105 200.397L214.484 184.645L250.859 200.395L214.48 216.147ZM254.12 233.311L217.748 217.562L254.127 201.81L290.499 217.559L254.12 233.311ZM293.767 250.477L257.388 234.726L293.767 218.974L330.147 234.726L293.767 250.477ZM333.41 267.642L297.036 251.892L333.415 236.141L369.789 251.89L333.41 267.642ZM373.057 284.809L336.678 269.057L373.057 253.306L409.436 269.057L373.057 284.809ZM412.702 301.975L376.325 286.224L412.705 270.472L449.081 286.223L412.702 301.975ZM452.349 284.808L488.728 269.056L452.352 253.306L415.973 269.057L452.349 284.808ZM412.705 267.642L449.084 251.89L412.705 236.139L376.325 251.89L412.705 267.642ZM373.057 250.475L409.436 234.724L373.062 218.974L336.683 234.726L373.057 250.475ZM333.415 233.311L369.794 217.559L333.415 201.807L297.036 217.559L333.415 233.311ZM293.767 216.144L330.147 200.392L293.774 184.643L257.395 200.395L293.767 216.144ZM254.127 198.98L290.506 183.228L254.131 167.478L217.752 183.23L254.127 198.98ZM214.484 181.815L250.863 166.063L214.489 150.313L178.109 166.065L214.484 181.815ZM174.841 164.65L211.22 148.898L174.841 133.146L138.462 148.898L174.841 164.65ZM135.194 147.483L171.573 131.731L135.197 115.981L98.8177 131.733L135.194 147.483ZM174.841 130.316L138.465 114.566L174.839 98.8159L211.216 114.567L174.841 130.316ZM214.489 147.483L178.11 131.731L214.484 115.982L250.863 131.733L214.489 147.483ZM254.131 164.648L217.757 148.898L254.131 133.148L290.506 148.898L254.131 164.648ZM293.774 181.813L257.399 166.063L293.774 150.313L330.148 166.063L293.774 181.813ZM333.415 198.977L297.042 183.228L333.417 167.478L369.789 183.227L333.415 198.977ZM373.062 216.144L336.683 200.392L373.057 184.642L409.436 200.394L373.062 216.144ZM412.705 233.309L376.33 217.559L412.705 201.809L449.079 217.559L412.705 233.309ZM452.352 250.475L415.973 234.724L452.347 218.974L488.726 234.726L452.352 250.475ZM491.996 267.641L455.62 251.89L491.994 236.141L528.371 251.891L491.996 267.641ZM531.639 250.476L568.012 234.727L531.635 218.977L495.263 234.726L531.639 250.476ZM491.994 233.311L528.367 217.562L491.988 201.81L455.615 217.559L491.994 233.311ZM452.347 216.144L488.72 200.395L452.345 184.645L415.973 200.394L452.347 216.144ZM412.705 198.979L449.077 183.23L412.698 167.478L376.325 183.227L412.705 198.979ZM373.057 181.812L409.43 166.063L373.057 150.314L336.685 166.063L373.057 181.812ZM333.417 164.648L369.789 148.899L333.415 133.149L297.042 148.898L333.417 164.648ZM293.774 147.483L330.147 131.734L293.772 115.984L257.399 131.733L293.774 147.483ZM254.131 130.318L290.504 114.569L254.125 98.8176L217.752 114.567L254.131 130.318ZM214.484 113.151L250.857 97.4025L214.48 81.6519L178.108 97.4008L214.484 113.151ZM254.125 95.9874L217.748 80.2368L254.129 64.4842L290.506 80.2349L254.125 95.9874ZM293.772 113.154L257.393 97.4025L293.774 81.6499L330.153 97.4017L293.772 113.154ZM333.415 130.319L297.04 114.569L333.421 98.8167L369.796 114.567L333.415 130.319ZM373.057 147.484L336.683 131.734L373.064 115.982L409.438 131.731L373.057 147.484ZM412.698 164.648L376.325 148.899L412.706 133.146L449.079 148.895L412.698 164.648ZM452.345 181.815L415.966 166.063L452.347 150.31L488.726 166.062L452.345 181.815ZM491.988 198.98L455.613 183.23L491.994 167.477L528.369 183.227L491.988 198.98ZM531.635 216.147L495.256 200.395L531.637 184.642L568.016 200.394L531.635 216.147ZM571.28 233.312L534.903 217.562L571.284 201.809L607.661 217.56L571.28 233.312ZM610.929 216.145L647.303 200.395L610.927 184.644L574.552 200.394L610.929 216.145ZM571.284 198.979L607.659 183.229L571.28 167.477L534.905 183.227L571.284 198.979ZM531.637 181.812L568.012 166.062L531.637 150.312L495.263 166.062L531.637 181.812ZM491.994 164.647L528.369 148.897L491.99 133.146L455.615 148.895L491.994 164.647ZM452.347 147.48L488.722 131.731L452.349 115.982L415.975 131.731L452.347 147.48ZM412.706 130.316L449.081 114.567L412.706 98.8167L376.332 114.567L412.706 130.316ZM373.064 113.151L409.438 97.4017L373.064 81.6519L336.689 97.4017L373.064 113.151ZM333.421 95.9866L369.796 80.2368L333.417 64.4851L297.042 80.2349L333.421 95.9866ZM293.774 78.8198L330.148 63.07L293.772 47.3194L257.397 63.0691L293.774 78.8198ZM333.417 61.6549L297.04 45.9043L333.413 30.1553L369.789 45.906L333.417 61.6549ZM373.064 78.8217L336.685 63.07L373.057 47.3211L409.436 63.0728L373.064 78.8217ZM412.706 95.9866L376.332 80.2368L412.705 64.4879L449.079 80.2377L412.706 95.9866ZM452.349 113.151L415.975 97.4017L452.347 81.6527L488.722 97.4025L452.349 113.151ZM491.99 130.315L455.617 114.567L491.99 98.8176L528.362 114.567L491.99 130.315ZM531.637 147.482L495.258 131.731L531.631 115.982L568.01 131.733L531.637 147.482ZM571.28 164.647L534.905 148.897L571.278 133.148L607.652 148.898L571.28 164.647ZM610.927 181.814L574.548 166.062L610.92 150.313L647.3 166.065L610.927 181.814ZM650.572 198.98L614.195 183.229L650.568 167.48L686.944 183.231L650.572 198.98ZM690.212 181.816L726.589 166.065L690.212 150.314L653.836 166.065L690.212 181.816ZM650.568 164.65L686.944 148.899L650.565 133.148L614.189 148.898L650.568 164.65ZM610.92 147.483L647.297 131.733L610.922 115.983L574.546 131.733L610.92 147.483ZM571.278 130.318L607.654 114.568L571.275 98.8159L534.899 114.567L571.278 130.318ZM531.631 113.151L568.007 97.4008L531.635 81.6519L495.258 97.4025L531.631 113.151ZM491.99 95.9875L528.366 80.2368L491.992 64.487L455.615 80.2377L491.99 95.9875ZM452.347 78.8226L488.724 63.072L452.349 47.3222L415.973 63.0728L452.347 78.8226ZM412.705 61.6577L449.081 45.9071L412.702 30.1553L376.325 45.906L412.705 61.6577ZM373.057 44.4909L409.434 28.7403L373.057 12.9896L336.681 28.7403L373.057 44.4909Z" fill="url(#paint1_radial_4113_43360)"/>
</mask>
<g mask="url(#mask0_4113_43360)">
<path fill-rule="evenodd" clip-rule="evenodd" d="M379.831 9.34235C380.282 9.14697 380.282 8.8302 379.831 8.63482C379.379 8.43944 378.648 8.43944 378.196 8.63482L373.065 10.8567L367.937 8.63612C367.485 8.44075 366.754 8.44075 366.302 8.63613C365.851 8.83151 365.851 9.14828 366.302 9.34366L371.431 11.5642L333.418 28.0235L328.292 25.8041C327.841 25.6087 327.109 25.6087 326.658 25.8041C326.207 25.9995 326.207 26.3163 326.658 26.5116L331.784 28.7311L293.773 45.1892L288.644 42.9681C288.192 42.7728 287.461 42.7728 287.009 42.9682C286.558 43.1635 286.558 43.4803 287.009 43.6757L292.139 45.8968L254.132 62.3532L249.003 60.1322C248.552 59.9368 247.82 59.9368 247.369 60.1322C246.918 60.3276 246.918 60.6444 247.369 60.8398L252.498 63.0608L214.49 79.5181L209.358 77.2963C208.907 77.1009 208.176 77.1009 207.724 77.2963C207.273 77.4917 207.273 77.8084 207.724 78.0038L212.856 80.2256L174.843 96.6849L169.714 94.4642C169.263 94.2689 168.531 94.2689 168.08 94.4643C167.629 94.6596 167.629 94.9764 168.08 95.1718L173.208 97.3925L135.2 113.85L130.069 111.628C129.618 111.433 128.886 111.433 128.435 111.628C127.984 111.824 127.984 112.14 128.435 112.336L133.566 114.557L95.5592 131.014L90.4287 128.792C89.9775 128.597 89.2459 128.597 88.7946 128.792C88.3434 128.988 88.3434 129.305 88.7946 129.5L93.9251 131.721L55.912 148.181L50.7841 145.96C50.3329 145.765 49.6013 145.765 49.1501 145.96C48.6989 146.156 48.6989 146.472 49.1501 146.668L54.2779 148.888L16.2693 165.345L11.1396 163.124C10.6884 162.929 9.95679 162.929 9.50555 163.124C9.05432 163.32 9.05432 163.637 9.50554 163.832L14.6352 166.053L9.50541 168.274C9.05419 168.47 9.05418 168.786 9.50542 168.982C9.95665 169.177 10.6883 169.177 11.1395 168.982L16.2693 166.761L54.2824 183.22L49.1499 185.442C48.6987 185.637 48.6987 185.954 49.15 186.15C49.6012 186.345 50.3328 186.345 50.784 186.15L55.9164 183.927L93.9296 200.387L88.7945 202.61C88.3432 202.805 88.3432 203.122 88.7945 203.318C89.2457 203.513 89.9773 203.513 90.4285 203.318L95.5636 201.094L133.566 217.549L128.435 219.77C127.984 219.966 127.984 220.282 128.435 220.478C128.886 220.673 129.618 220.673 130.069 220.478L135.2 218.256L173.215 234.716L168.084 236.938C167.632 237.134 167.632 237.45 168.084 237.646C168.535 237.841 169.266 237.841 169.718 237.646L174.849 235.424L212.856 251.88L207.724 254.102C207.273 254.298 207.273 254.614 207.724 254.81C208.175 255.005 208.907 255.005 209.358 254.81L214.49 252.588L252.503 269.047L247.369 271.27C246.917 271.466 246.917 271.782 247.369 271.978C247.82 272.173 248.552 272.173 249.003 271.978L254.137 269.755L292.145 286.212L287.013 288.434C286.562 288.63 286.562 288.946 287.013 289.142C287.464 289.337 288.196 289.337 288.647 289.142L293.78 286.92L331.788 303.377L326.658 305.598C326.207 305.794 326.207 306.111 326.658 306.306C327.109 306.501 327.841 306.501 328.292 306.306L333.422 304.084L371.437 320.545L366.306 322.766C365.855 322.962 365.855 323.278 366.306 323.474C366.757 323.669 367.489 323.669 367.94 323.474L373.071 321.252L378.196 323.471C378.648 323.667 379.379 323.667 379.831 323.471C380.282 323.276 380.282 322.959 379.831 322.764L374.705 320.545L412.714 304.087L417.841 306.307C418.292 306.503 419.024 306.503 419.475 306.307C419.926 306.112 419.926 305.795 419.475 305.6L414.348 303.38L452.361 286.92L457.486 289.139C457.937 289.335 458.668 289.335 459.12 289.139C459.571 288.944 459.571 288.627 459.12 288.432L453.995 286.213L492.002 269.756L497.126 271.975C497.577 272.171 498.309 272.171 498.76 271.975C499.211 271.78 499.211 271.463 498.76 271.268L493.636 269.049L531.645 252.592L536.771 254.811C537.222 255.006 537.954 255.006 538.405 254.811C538.856 254.616 538.856 254.299 538.405 254.104L533.279 251.884L571.292 235.425L576.415 237.643C576.866 237.839 577.598 237.839 578.049 237.643C578.501 237.448 578.501 237.131 578.049 236.936L572.926 234.717L610.935 218.26L616.06 220.479C616.511 220.674 617.243 220.674 617.694 220.479C618.145 220.284 618.145 219.967 617.694 219.772L612.569 217.552L650.575 201.096L655.7 203.315C656.152 203.51 656.883 203.51 657.334 203.315C657.786 203.12 657.786 202.803 657.334 202.607L652.209 200.388L690.22 183.93L695.349 186.151C695.8 186.346 696.532 186.346 696.983 186.151C697.434 185.956 697.434 185.639 696.983 185.443L691.854 183.223L729.867 166.763L734.993 168.983C735.445 169.178 736.176 169.178 736.627 168.983C737.079 168.788 737.079 168.471 736.627 168.275L731.501 166.056L736.631 163.835C737.083 163.639 737.083 163.322 736.631 163.127C736.18 162.932 735.449 162.932 734.997 163.127L729.867 165.348L691.852 148.888L696.983 146.667C697.434 146.471 697.434 146.154 696.983 145.959C696.532 145.764 695.8 145.764 695.349 145.959L690.218 148.181L652.209 131.723L657.338 129.503C657.79 129.307 657.79 128.99 657.338 128.795C656.887 128.6 656.156 128.6 655.704 128.795L650.575 131.016L612.567 114.558L617.694 112.338C618.145 112.143 618.145 111.826 617.694 111.631C617.243 111.436 616.511 111.436 616.06 111.631L610.933 113.851L572.92 97.3916L578.049 95.1705C578.501 94.9751 578.501 94.6583 578.049 94.4629C577.598 94.2676 576.866 94.2676 576.415 94.4629L571.285 96.6841L533.279 80.2276L538.409 78.0064C538.86 77.811 538.86 77.4943 538.409 77.2989C537.957 77.1035 537.226 77.1035 536.775 77.2989L531.645 79.5201L493.63 63.0599L498.76 60.8384C499.211 60.6431 499.211 60.3263 498.76 60.1309C498.309 59.9355 497.577 59.9355 497.126 60.1309L491.996 62.3524L453.993 45.8979L459.12 43.6783C459.571 43.4829 459.571 43.1661 459.12 42.9708C458.668 42.7754 457.937 42.7754 457.486 42.9708L452.359 45.1903L414.346 28.7311L419.475 26.5103C419.926 26.3149 419.926 25.9982 419.475 25.8028C419.024 25.6074 418.292 25.6074 417.841 25.8028L412.712 28.0235L374.699 11.5642L379.831 9.34235ZM373.071 319.837L411.08 303.38L373.065 286.92L335.056 303.377L373.071 319.837ZM333.422 302.669L371.431 286.212L333.422 269.755L295.414 286.212L333.422 302.669ZM293.78 285.505L331.788 269.047L293.78 252.59L255.771 269.047L293.78 285.505ZM254.137 268.34L292.146 251.882L254.132 235.423L216.124 251.88L254.137 268.34ZM214.49 251.173L252.498 234.716L214.492 218.259L176.483 234.716L214.49 251.173ZM174.849 234.009L212.858 217.552L174.843 201.091L136.834 217.549L174.849 234.009ZM135.2 216.841L173.208 200.384L135.206 183.929L97.1977 200.387L135.2 216.841ZM95.5636 199.679L133.572 183.222L95.5591 166.762L57.5505 183.22L95.5636 199.679ZM55.9164 182.512L93.9251 166.055L55.9119 149.596L17.9033 166.053L55.9164 182.512ZM95.5591 165.347L57.546 148.888L95.5591 132.429L133.572 148.888L95.5591 165.347ZM135.206 182.514L97.1932 166.055L135.206 149.596L173.219 166.055L135.206 182.514ZM174.843 199.676L136.84 183.222L174.854 166.762L212.856 183.217L174.843 199.676ZM214.492 216.844L176.477 200.384L214.49 183.925L252.505 200.385L214.492 216.844ZM254.132 234.008L216.126 217.552L254.139 201.092L292.146 217.549L254.132 234.008ZM293.78 251.175L255.766 234.716L293.78 218.256L331.793 234.716L293.78 251.175ZM333.422 268.34L295.414 251.882L333.427 235.423L371.435 251.88L333.422 268.34ZM373.065 285.505L335.056 269.047L373.069 252.588L411.078 269.045L373.065 285.505ZM412.714 302.672L374.699 286.212L412.712 269.753L450.727 286.213L412.714 302.672ZM452.361 285.505L490.368 269.049L452.353 252.589L414.346 269.045L452.361 285.505ZM412.712 268.338L450.719 251.881L412.71 235.424L374.704 251.88L412.712 268.338ZM373.069 251.173L411.076 234.716L373.068 218.259L335.061 234.716L373.069 251.173ZM333.427 234.008L371.433 217.552L333.42 201.092L295.414 217.549L333.427 234.008ZM293.78 216.841L331.786 200.385L293.78 183.928L255.773 200.385L293.78 216.841ZM254.139 199.677L292.146 183.221L254.13 166.761L216.124 183.217L254.139 199.677ZM214.49 182.509L252.496 166.053L214.494 149.598L176.488 166.055L214.49 182.509ZM174.854 165.347L212.86 148.891L174.847 132.432L136.84 148.888L174.854 165.347ZM135.206 148.181L173.213 131.724L135.2 115.265L97.1932 131.721L135.206 148.181ZM174.847 131.017L136.834 114.557L174.843 98.1L212.856 114.559L174.847 131.017ZM214.494 148.183L176.481 131.724L214.49 115.267L252.503 131.726L214.494 148.183ZM254.13 165.345L216.128 148.891L254.137 132.434L292.139 148.888L254.13 165.345ZM293.78 182.513L255.765 166.053L293.773 149.596L331.788 166.056L293.78 182.513ZM333.42 199.677L295.414 183.221L333.422 166.763L371.429 183.22L333.42 199.677ZM373.068 216.844L335.054 200.385L373.063 183.927L411.076 200.387L373.068 216.844ZM412.71 234.009L374.702 217.552L412.71 201.094L450.719 217.552L412.71 234.009ZM452.353 251.174L414.344 234.716L452.353 218.259L490.361 234.716L452.353 251.174ZM492.002 268.341L453.987 251.881L491.996 235.424L530.011 251.884L492.002 268.341ZM531.645 251.177L569.658 234.717L531.643 218.257L493.63 234.716L531.645 251.177ZM491.995 234.009L530.009 217.55L492 201.092L453.987 217.552L491.995 234.009ZM452.353 216.844L490.366 200.385L452.357 183.927L414.344 200.387L452.353 216.844ZM412.71 199.679L450.723 183.22L412.71 166.761L374.697 183.22L412.71 199.679ZM373.063 182.512L411.076 166.053L373.069 149.597L335.056 166.056L373.063 182.512ZM333.422 165.348L371.435 148.889L333.42 132.429L295.407 148.888L333.422 165.348ZM293.773 148.181L331.786 131.721L293.784 115.267L255.771 131.726L293.773 148.181ZM254.137 131.019L292.15 114.559L254.137 98.1L216.124 114.559L254.137 131.019ZM214.49 113.852L252.503 97.3925L214.49 80.9332L176.477 97.3925L214.49 113.852ZM254.137 96.6849L216.124 80.2256L254.132 63.7683L292.146 80.2276L254.137 96.6849ZM293.784 113.852L255.771 97.3925L293.78 80.9351L331.793 97.3944L293.784 113.852ZM333.42 131.014L295.418 114.559L333.427 98.1019L371.429 114.556L333.42 131.014ZM373.069 148.181L335.054 131.721L373.063 115.264L411.078 131.724L373.069 148.181ZM412.71 165.345L374.704 148.889L412.712 132.432L450.719 148.888L412.71 165.345ZM452.357 182.512L414.344 166.053L452.353 149.596L490.366 166.055L452.357 182.512ZM492 199.677L453.991 183.22L492 166.763L530.009 183.22L492 199.677ZM531.643 216.842L493.634 200.385L531.643 183.927L569.651 200.385L531.643 216.842ZM571.292 234.01L533.277 217.55L571.285 201.092L609.3 217.552L571.292 234.01ZM610.935 216.845L648.941 200.388L610.926 183.928L572.919 200.385L610.935 216.845ZM571.285 199.677L609.292 183.221L571.283 166.763L533.277 183.22L571.285 199.677ZM531.643 182.512L569.649 166.056L531.641 149.598L493.634 166.055L531.643 182.512ZM492 165.347L530.007 148.891L491.994 132.432L453.987 148.888L492 165.347ZM452.353 148.181L490.36 131.724L452.353 115.268L414.346 131.724L452.353 148.181ZM412.712 131.017L450.719 114.56L412.704 98.1L374.697 114.556L412.712 131.017ZM373.063 113.849L411.07 97.3925L373.068 80.9379L335.061 97.3944L373.063 113.849ZM333.427 96.6869L371.433 80.2304L333.42 63.7711L295.414 80.2276L333.427 96.6869ZM293.78 79.5201L331.786 63.0636L293.773 46.6043L255.766 63.0608L293.78 79.5201ZM333.42 62.356L295.407 45.8968L333.418 29.4386L371.431 45.8979L333.42 62.356ZM373.068 79.5229L335.054 63.0636L373.065 46.6054L411.078 63.0647L373.068 79.5229ZM412.704 96.6849L374.702 80.2304L412.712 63.7722L450.714 80.2268L412.704 96.6849ZM452.353 113.853L414.338 97.3925L452.348 80.9343L490.363 97.3944L452.353 113.853ZM491.994 131.017L453.987 114.56L491.998 98.102L530.004 114.558L491.994 131.017ZM531.641 148.183L493.628 131.724L531.638 115.266L569.651 131.725L531.641 148.183ZM571.283 165.348L533.275 148.891L571.285 132.433L609.294 148.89L571.283 165.348ZM610.926 182.513L572.917 166.056L610.928 149.598L648.937 166.055L610.926 182.513ZM650.575 199.681L612.56 183.221L650.571 166.763L688.586 183.223L650.575 199.681ZM690.22 182.515L728.233 166.056L690.218 149.596L652.205 166.055L690.22 182.515ZM650.571 165.347L688.584 148.888L650.575 132.431L612.562 148.89L650.571 165.347ZM610.928 148.183L648.941 131.723L610.933 115.266L572.92 131.725L610.928 148.183ZM571.285 131.018L609.299 114.558L571.285 98.0992L533.272 114.558L571.285 131.018ZM531.638 113.851L569.651 97.3916L531.645 80.9351L493.632 97.3944L531.638 113.851ZM491.998 96.6869L530.011 80.2276L491.996 63.7675L453.982 80.2268L491.998 96.6869ZM452.348 79.5192L490.361 63.0599L452.359 46.6054L414.346 63.0647L452.348 79.5192ZM412.712 62.3571L450.725 45.8979L412.712 29.4386L374.699 45.8979L412.712 62.3571ZM373.065 45.1903L411.078 28.7311L373.065 12.2718L335.052 28.7311L373.065 45.1903Z" fill="url(#paint2_linear_4113_43360)"/>
<g filter="url(#filter0_f_4113_43360)">
<path fill-rule="evenodd" clip-rule="evenodd" d="M380.636 9.70814C381.539 9.31738 381.539 8.68383 380.636 8.29307C379.734 7.90231 378.27 7.90231 377.368 8.29307L373.057 10.1595L368.75 8.29437C367.847 7.90361 366.384 7.90361 365.482 8.29437C364.579 8.68513 364.579 9.31868 365.482 9.70943L369.789 11.5746L333.413 27.3252L329.101 25.4584C328.199 25.0677 326.736 25.0677 325.833 25.4584C324.931 25.8492 324.931 26.4827 325.833 26.8735L330.145 28.7403L293.772 44.4892L289.461 42.6225C288.558 42.2317 287.095 42.2317 286.193 42.6225C285.29 43.0133 285.29 43.6468 286.193 44.0376L290.504 45.9043L254.129 61.6541L249.816 59.7865C248.914 59.3958 247.451 59.3958 246.548 59.7865C245.646 60.1773 245.646 60.8109 246.548 61.2016L250.861 63.0691L214.48 78.8217L210.168 76.9545C209.265 76.5638 207.802 76.5638 206.9 76.9545C205.997 77.3453 205.997 77.9788 206.9 78.3696L211.212 80.2368L174.839 95.9858L170.527 94.1186C169.625 93.7278 168.161 93.7278 167.259 94.1186C166.357 94.5093 166.357 95.1429 167.259 95.5337L171.571 97.4008L135.197 113.151L130.883 111.283C129.98 110.892 128.517 110.892 127.614 111.283C126.712 111.673 126.712 112.307 127.614 112.698L131.929 114.566L95.5495 130.317L91.2381 128.451C90.3356 128.06 88.8724 128.06 87.9699 128.451C87.0675 128.841 87.0675 129.475 87.9699 129.866L92.2814 131.733L55.9024 147.484L51.5936 145.619C50.6911 145.228 49.2279 145.228 48.3254 145.619C47.423 146.009 47.423 146.643 48.3254 147.034L52.6342 148.899L16.2622 164.648L11.9451 162.779C11.0427 162.388 9.57946 162.388 8.67699 162.779C7.77452 163.17 7.77453 163.803 8.67699 164.194L12.9941 166.063L8.67685 167.932C7.77439 168.323 7.77438 168.957 8.67685 169.347C9.57932 169.738 11.0425 169.738 11.945 169.347L16.2622 167.478L52.6387 183.229L48.3253 185.096C47.4228 185.487 47.4228 186.121 48.3253 186.512C49.2278 186.902 50.691 186.902 51.5934 186.512L55.9069 184.644L92.2859 200.396L87.9698 202.264C87.0674 202.655 87.0673 203.289 87.9698 203.68C88.8723 204.07 90.3355 204.07 91.238 203.68L95.554 201.811L131.929 217.56L127.614 219.429C126.712 219.819 126.712 220.453 127.614 220.844C128.517 221.234 129.98 221.234 130.882 220.844L135.197 218.976L171.571 234.725L167.259 236.593C166.356 236.983 166.356 237.617 167.259 238.008C168.161 238.398 169.625 238.398 170.527 238.008L174.839 236.14L211.212 251.889L206.9 253.757C205.997 254.147 205.997 254.781 206.9 255.172C207.802 255.562 209.265 255.562 210.168 255.172L214.48 253.304L250.859 269.056L246.544 270.925C245.642 271.315 245.642 271.949 246.544 272.34C247.447 272.73 248.91 272.73 249.812 272.34L254.127 270.471L290.502 286.221L286.189 288.089C285.286 288.479 285.286 289.113 286.189 289.504C287.091 289.894 288.554 289.894 289.457 289.504L293.77 287.636L330.149 303.388L325.833 305.257C324.931 305.647 324.931 306.281 325.833 306.672C326.736 307.062 328.199 307.062 329.101 306.672L333.417 304.803L369.794 320.554L365.482 322.421C364.579 322.811 364.579 323.445 365.482 323.836C366.384 324.227 367.847 324.227 368.75 323.836L373.062 321.969L377.368 323.833C378.27 324.224 379.734 324.224 380.636 323.833C381.539 323.442 381.539 322.809 380.636 322.418L376.33 320.554L412.702 304.805L417.016 306.673C417.919 307.064 419.382 307.064 420.285 306.673C421.187 306.282 421.187 305.649 420.285 305.258L415.97 303.39L452.349 287.638L456.661 289.505C457.563 289.896 459.027 289.896 459.929 289.505C460.831 289.114 460.831 288.481 459.929 288.09L455.617 286.223L491.996 270.471L496.305 272.337C497.208 272.728 498.671 272.728 499.574 272.337C500.476 271.946 500.476 271.313 499.574 270.922L495.264 269.056L531.639 253.306L535.95 255.173C536.852 255.564 538.316 255.564 539.218 255.173C540.121 254.782 540.121 254.149 539.218 253.758L534.907 251.891L571.28 236.142L575.591 238.009C576.493 238.4 577.956 238.4 578.859 238.009C579.761 237.618 579.761 236.985 578.859 236.594L574.548 234.727L610.929 218.975L615.239 220.841C616.141 221.232 617.605 221.232 618.507 220.841C619.41 220.45 619.41 219.817 618.507 219.426L614.197 217.56L650.572 201.81L654.884 203.677C655.786 204.068 657.249 204.068 658.152 203.677C659.054 203.286 659.054 202.653 658.152 202.262L653.84 200.395L690.212 184.646L694.524 186.513C695.427 186.904 696.89 186.904 697.792 186.513C698.695 186.122 698.695 185.489 697.792 185.098L693.48 183.231L729.857 167.48L734.173 169.349C735.075 169.74 736.538 169.74 737.441 169.349C738.343 168.958 738.343 168.324 737.441 167.934L733.125 166.065L737.441 164.196C738.343 163.806 738.343 163.172 737.441 162.781C736.538 162.391 735.075 162.391 734.173 162.781L729.857 164.65L693.48 148.899L697.792 147.032C698.695 146.642 698.695 146.008 697.792 145.617C696.89 145.227 695.427 145.227 694.524 145.617L690.212 147.484L653.833 131.733L658.148 129.864C659.05 129.474 659.05 128.84 658.148 128.449C657.245 128.059 655.782 128.059 654.88 128.449L650.565 130.317L614.191 114.568L618.503 112.7C619.406 112.31 619.406 111.676 618.503 111.285C617.601 110.895 616.138 110.895 615.235 111.285L610.922 113.153L574.543 97.4008L578.859 95.5324C579.761 95.1416 579.761 94.508 578.859 94.1173C577.956 93.7265 576.493 93.7265 575.591 94.1173L571.275 95.9858L534.903 80.2368L539.218 78.3683C540.121 77.9775 540.121 77.344 539.218 76.9532C538.316 76.5625 536.852 76.5625 535.95 76.9532L531.635 78.8218L495.26 63.072L499.574 61.2042C500.476 60.8135 500.476 60.1799 499.574 59.7892C498.671 59.3984 497.208 59.3984 496.305 59.7892L491.992 61.6569L455.617 45.9071L459.929 44.0402C460.831 43.6494 460.831 43.0159 459.929 42.6251C459.027 42.2343 457.563 42.2343 456.661 42.6251L452.349 44.492L415.97 28.7403L420.285 26.8722C421.187 26.4814 421.187 25.8479 420.285 25.4571C419.382 25.0664 417.919 25.0664 417.016 25.4571L412.702 27.3252L376.326 11.5746L380.636 9.70814ZM373.062 319.139L409.434 303.39L373.057 287.639L336.685 303.388L373.062 319.139ZM333.417 301.973L369.789 286.224L333.41 270.472L297.038 286.221L333.417 301.973ZM293.77 284.806L330.142 269.057L293.767 253.307L257.395 269.056L293.77 284.806ZM254.127 267.641L290.499 251.892L254.12 236.141L217.748 251.889L254.127 267.641ZM214.48 250.474L250.852 234.726L214.48 218.977L178.108 234.725L214.48 250.474ZM174.839 233.31L211.211 217.562L174.837 201.812L138.465 217.56L174.839 233.31ZM135.197 216.145L171.569 200.397L135.194 184.647L98.8222 200.396L135.197 216.145ZM95.554 198.981L131.926 183.232L95.547 167.48L59.175 183.229L95.554 198.981ZM55.9069 181.814L92.2789 166.065L55.9024 150.314L19.5304 166.063L55.9069 181.814ZM95.547 164.65L59.1705 148.899L95.5495 133.148L131.926 148.898L95.547 164.65ZM135.194 181.817L98.8152 166.065L135.194 150.313L171.573 166.065L135.194 181.817ZM174.837 198.982L138.462 183.232L174.841 167.48L211.216 183.23L174.837 198.982ZM214.48 216.147L178.105 200.397L214.484 184.645L250.859 200.395L214.48 216.147ZM254.12 233.311L217.748 217.562L254.127 201.81L290.499 217.559L254.12 233.311ZM293.767 250.477L257.388 234.726L293.767 218.974L330.147 234.726L293.767 250.477ZM333.41 267.642L297.036 251.892L333.415 236.141L369.789 251.89L333.41 267.642ZM373.057 284.809L336.678 269.057L373.057 253.306L409.436 269.057L373.057 284.809ZM412.702 301.975L376.325 286.224L412.705 270.472L449.081 286.223L412.702 301.975ZM452.349 284.808L488.728 269.056L452.352 253.306L415.973 269.057L452.349 284.808ZM412.705 267.642L449.084 251.89L412.705 236.139L376.325 251.89L412.705 267.642ZM373.057 250.475L409.436 234.724L373.062 218.974L336.683 234.726L373.057 250.475ZM333.415 233.311L369.794 217.559L333.415 201.807L297.036 217.559L333.415 233.311ZM293.767 216.144L330.147 200.392L293.774 184.643L257.395 200.395L293.767 216.144ZM254.127 198.98L290.506 183.228L254.131 167.478L217.752 183.23L254.127 198.98ZM214.484 181.815L250.863 166.063L214.489 150.313L178.109 166.065L214.484 181.815ZM174.841 164.65L211.22 148.898L174.841 133.146L138.462 148.898L174.841 164.65ZM135.194 147.483L171.573 131.731L135.197 115.981L98.8177 131.733L135.194 147.483ZM174.841 130.316L138.465 114.566L174.839 98.8159L211.216 114.567L174.841 130.316ZM214.489 147.483L178.11 131.731L214.484 115.982L250.863 131.733L214.489 147.483ZM254.131 164.648L217.757 148.898L254.131 133.148L290.506 148.898L254.131 164.648ZM293.774 181.813L257.399 166.063L293.774 150.313L330.148 166.063L293.774 181.813ZM333.415 198.977L297.042 183.228L333.417 167.478L369.789 183.227L333.415 198.977ZM373.062 216.144L336.683 200.392L373.057 184.642L409.436 200.394L373.062 216.144ZM412.705 233.309L376.33 217.559L412.705 201.809L449.079 217.559L412.705 233.309ZM452.352 250.475L415.973 234.724L452.347 218.974L488.726 234.726L452.352 250.475ZM491.996 267.641L455.62 251.89L491.994 236.141L528.371 251.891L491.996 267.641ZM531.639 250.476L568.012 234.727L531.635 218.977L495.263 234.726L531.639 250.476ZM491.994 233.311L528.367 217.562L491.988 201.81L455.615 217.559L491.994 233.311ZM452.347 216.144L488.72 200.395L452.345 184.645L415.973 200.394L452.347 216.144ZM412.705 198.979L449.077 183.23L412.698 167.478L376.325 183.227L412.705 198.979ZM373.057 181.812L409.43 166.063L373.057 150.314L336.685 166.063L373.057 181.812ZM333.417 164.648L369.789 148.899L333.415 133.149L297.042 148.898L333.417 164.648ZM293.774 147.483L330.147 131.734L293.772 115.984L257.399 131.733L293.774 147.483ZM254.131 130.318L290.504 114.569L254.125 98.8176L217.752 114.567L254.131 130.318ZM214.484 113.151L250.857 97.4025L214.48 81.6519L178.108 97.4008L214.484 113.151ZM254.125 95.9874L217.748 80.2368L254.129 64.4842L290.506 80.2349L254.125 95.9874ZM293.772 113.154L257.393 97.4025L293.774 81.6499L330.153 97.4017L293.772 113.154ZM333.415 130.319L297.04 114.569L333.421 98.8167L369.796 114.567L333.415 130.319ZM373.057 147.484L336.683 131.734L373.064 115.982L409.438 131.731L373.057 147.484ZM412.698 164.648L376.325 148.899L412.706 133.146L449.079 148.895L412.698 164.648ZM452.345 181.815L415.966 166.063L452.347 150.31L488.726 166.062L452.345 181.815ZM491.988 198.98L455.613 183.23L491.994 167.477L528.369 183.227L491.988 198.98ZM531.635 216.147L495.256 200.395L531.637 184.642L568.016 200.394L531.635 216.147ZM571.28 233.312L534.903 217.562L571.284 201.809L607.661 217.56L571.28 233.312ZM610.929 216.145L647.303 200.395L610.927 184.644L574.552 200.394L610.929 216.145ZM571.284 198.979L607.659 183.229L571.28 167.477L534.905 183.227L571.284 198.979ZM531.637 181.812L568.012 166.062L531.637 150.312L495.263 166.062L531.637 181.812ZM491.994 164.647L528.369 148.897L491.99 133.146L455.615 148.895L491.994 164.647ZM452.347 147.48L488.722 131.731L452.349 115.982L415.975 131.731L452.347 147.48ZM412.706 130.316L449.081 114.567L412.706 98.8167L376.332 114.567L412.706 130.316ZM373.064 113.151L409.438 97.4017L373.064 81.6519L336.689 97.4017L373.064 113.151ZM333.421 95.9866L369.796 80.2368L333.417 64.4851L297.042 80.2349L333.421 95.9866ZM293.774 78.8198L330.148 63.07L293.772 47.3194L257.397 63.0691L293.774 78.8198ZM333.417 61.6549L297.04 45.9043L333.413 30.1553L369.789 45.906L333.417 61.6549ZM373.064 78.8217L336.685 63.07L373.057 47.3211L409.436 63.0728L373.064 78.8217ZM412.706 95.9866L376.332 80.2368L412.705 64.4879L449.079 80.2377L412.706 95.9866ZM452.349 113.151L415.975 97.4017L452.347 81.6527L488.722 97.4025L452.349 113.151ZM491.99 130.315L455.617 114.567L491.99 98.8176L528.362 114.567L491.99 130.315ZM531.637 147.482L495.258 131.731L531.631 115.982L568.01 131.733L531.637 147.482ZM571.28 164.647L534.905 148.897L571.278 133.148L607.652 148.898L571.28 164.647ZM610.927 181.814L574.548 166.062L610.92 150.313L647.3 166.065L610.927 181.814ZM650.572 198.98L614.195 183.229L650.568 167.48L686.944 183.231L650.572 198.98ZM690.212 181.816L726.589 166.065L690.212 150.314L653.836 166.065L690.212 181.816ZM650.568 164.65L686.944 148.899L650.565 133.148L614.189 148.898L650.568 164.65ZM610.92 147.483L647.297 131.733L610.922 115.983L574.546 131.733L610.92 147.483ZM571.278 130.318L607.654 114.568L571.275 98.8159L534.899 114.567L571.278 130.318ZM531.631 113.151L568.007 97.4008L531.635 81.6519L495.258 97.4025L531.631 113.151ZM491.99 95.9875L528.366 80.2368L491.992 64.487L455.615 80.2377L491.99 95.9875ZM452.347 78.8226L488.724 63.072L452.349 47.3222L415.973 63.0728L452.347 78.8226ZM412.705 61.6577L449.081 45.9071L412.702 30.1553L376.325 45.906L412.705 61.6577ZM373.057 44.4909L409.434 28.7403L373.057 12.9896L336.681 28.7403L373.057 44.4909Z" fill="url(#paint3_linear_4113_43360)"/>
</g>
</g>
<defs>
<filter id="filter0_f_4113_43360" x="0.877326" y="0.877326" width="744.363" height="330.374" filterUnits="userSpaceOnUse" color-interpolation-filters="sRGB">
<feFlood flood-opacity="0" result="BackgroundImageFix"/>
<feBlend mode="normal" in="SourceGraphic" in2="BackgroundImageFix" result="shape"/>
<feGaussianBlur stdDeviation="3.56134" result="effect1_foregroundBlur_4113_43360"/>
</filter>
<radialGradient id="paint0_radial_4113_43360" cx="0" cy="0" r="1" gradientUnits="userSpaceOnUse" gradientTransform="translate(372.98 166.102) rotate(-89.1695) scale(138.069 281.365)">
<stop stop-color="#FFBF00"/>
<stop offset="1" stop-color="#E843C4" stop-opacity="0"/>
</radialGradient>
<radialGradient id="paint1_radial_4113_43360" cx="0" cy="0" r="1" gradientUnits="userSpaceOnUse" gradientTransform="translate(372.97 166.113) rotate(-89.1695) scale(138.505 282.26)">
<stop stop-color="#FFBF00"/>
<stop offset="1" stop-color="#E843C4" stop-opacity="0"/>
</radialGradient>
<linearGradient id="paint2_linear_4113_43360" x1="372.98" y1="323.684" x2="372.98" y2="8.52033" gradientUnits="userSpaceOnUse">
<stop stop-color="#FFBF00"/>
<stop offset="1" stop-color="#E843C4"/>
</linearGradient>
<linearGradient id="paint3_linear_4113_43360" x1="372.97" y1="324.193" x2="372.97" y2="8.03215" gradientUnits="userSpaceOnUse">
<stop stop-color="#FFBF00"/>
<stop offset="1" stop-color="#E843C4"/>
</linearGradient>
</defs>
</svg>
