<svg width="953" height="173" viewBox="0 0 953 173" fill="none" xmlns="http://www.w3.org/2000/svg">
<g filter="url(#filter0_d_6838_12028)">
<circle cx="86.5" cy="82.5" r="81.5" fill="#211426" fill-opacity="0.33" shape-rendering="crispEdges"/>
<circle cx="86.5" cy="82.5" r="81.5" stroke="white" stroke-opacity="0.05" shape-rendering="auto"/>
</g>
<g filter="url(#filter1_d_6838_12028)">
<circle cx="866.5" cy="82.5" r="81.5" fill="#211426" fill-opacity="0.33" shape-rendering="crispEdges"/>
<circle cx="866.5" cy="82.5" r="81.5" stroke="white" stroke-opacity="0.05" shape-rendering="auto"/>
</g>
<g clip-path="url(#clip0_6838_12028)">
<path d="M918.671 100.858C916.321 110.286 906.771 116.024 897.341 113.673C887.916 111.322 882.177 101.772 884.529 92.3443C886.879 82.9146 896.428 77.176 905.855 79.5267C915.284 81.8773 921.022 91.4286 918.671 100.858L918.671 100.858H918.671Z" fill="#F0B90B"/>
<path d="M897.727 95.2446L902 90.972L906.275 95.2464L908.761 92.7604L902 86L895.242 92.7584L897.728 95.2444L897.727 95.2446ZM891 97L893.486 94.5136L895.972 96.9995L893.486 99.4856L891 97ZM897.727 98.7557L902 103.028L906.275 98.7537L908.762 101.238L908.761 101.24L902 108L895.242 101.242L895.238 101.238L897.728 98.7554L897.727 98.7557ZM908.028 97.0011L910.514 94.515L913 97.0009L910.514 99.487L908.028 97.0011Z" fill="black"/>
<path d="M904.521 96.9987H904.522L902 94.4761L900.135 96.34L899.921 96.5543L899.479 96.9961L899.476 96.9996L899.479 97.0032L902 99.5239L904.522 97.0013L904.523 96.9999L904.521 96.9987" fill="black"/>
</g>
<g clip-path="url(#clip1_6838_12028)">
<path d="M887.669 100.858C885.319 110.286 875.769 116.024 866.339 113.673C856.914 111.322 851.175 101.772 853.527 92.3443C855.877 82.9146 865.426 77.176 874.853 79.5267C884.282 81.8773 890.02 91.4286 887.669 100.858L887.669 100.858H887.669Z" fill="black"/>
<g clip-path="url(#clip2_6838_12028)">
<path d="M871.099 87.1094C871.086 87.0848 871.067 87.0631 871.045 87.0457C871.023 87.0283 870.998 87.0156 870.971 87.0081C870.944 87.0007 870.915 86.9989 870.888 87.0026C870.86 87.0064 870.833 87.0157 870.809 87.03C870.774 87.0469 870.746 87.0749 870.729 87.1094L860.029 105.933C860.001 105.982 859.994 106.04 860.009 106.094C860.023 106.149 860.059 106.195 860.108 106.223C860.143 106.24 860.178 106.249 860.213 106.249H881.782C881.819 106.249 881.855 106.239 881.887 106.22C881.918 106.201 881.945 106.175 881.964 106.143C881.982 106.111 881.992 106.075 881.993 106.038C881.993 106.002 881.985 105.965 881.967 105.933L871.099 87.1089V87.1094ZM868.776 99.3151L872.612 98.2677L871.575 102.078L868.776 99.3146V99.3151Z" fill="white"/>
<path d="M860.213 106.258H864.552L868.539 90.9729L860.029 105.941C860.001 105.99 859.994 106.048 860.009 106.103C860.023 106.157 860.059 106.203 860.108 106.231C860.143 106.249 860.178 106.258 860.213 106.258V106.258Z" fill="white"/>
<path d="M879.846 102.254L864.552 106.258H881.782C881.819 106.257 881.855 106.247 881.887 106.229C881.919 106.21 881.945 106.184 881.964 106.152C881.982 106.12 881.992 106.084 881.993 106.047C881.994 106.01 881.985 105.974 881.967 105.941L879.846 102.254V102.254ZM877.497 99.9135L879.847 102.254L871.108 87.1181C871.094 87.0936 871.076 87.072 871.054 87.0547C871.032 87.0374 871.007 87.0247 870.98 87.0174C870.953 87.01 870.924 87.0081 870.897 87.0119C870.869 87.0156 870.842 87.0249 870.818 87.0392C870.784 87.0559 870.756 87.0837 870.739 87.1181L868.547 90.9815L877.497 99.9049V99.9135V99.9135ZM864.552 106.258L867.703 105.431L867.685 94.2375L864.552 106.258Z" fill="white"/>
<path d="M867.684 94.2375L877.496 99.9135L868.538 90.9729L867.684 94.2375H867.684Z" fill="white"/>
<path d="M867.702 105.431L879.846 102.255L877.496 99.9135L867.702 105.431Z" fill="white"/>
<path d="M867.702 105.431L869.806 104.243L867.693 96.6129L867.702 105.431V105.431Z" fill="white"/>
<path d="M877.497 99.9134L875.429 98.7168L869.805 104.243L877.497 99.9129V99.9134ZM867.693 96.6134L875.429 98.7168L867.685 94.2374L867.693 96.6134V96.6134Z" fill="white"/>
<path d="M872.613 98.2684H873.801L867.693 96.6135L868.142 98.2592L872.595 98.2678H872.613V98.2684Z" fill="white"/>
<path d="M868.759 99.2974L868.143 98.2592L869.806 104.243L870.976 103.09L868.776 99.3152L868.759 99.2974V99.2974ZM873.801 98.2677L870.976 103.09L875.429 98.7169L873.801 98.2677Z" fill="white"/>
<path d="M872.613 98.2683L868.143 98.2592L868.776 99.3152L872.612 98.2677L872.613 98.2683Z" fill="white"/>
<path d="M871.574 102.078L868.775 99.3146L870.975 103.09L871.574 102.078ZM873.801 98.2677H872.613L871.574 102.078L873.801 98.2682V98.2677Z" fill="white"/>
<path d="M860.213 106.258H864.552L868.539 90.9729L860.029 105.941C860.001 105.99 859.994 106.048 860.009 106.103C860.023 106.157 860.059 106.203 860.108 106.231C860.143 106.249 860.178 106.258 860.213 106.258V106.258Z" fill="url(#paint0_linear_6838_12028)"/>
<path d="M879.846 102.254L864.552 106.258H881.782C881.819 106.257 881.855 106.247 881.887 106.229C881.919 106.21 881.945 106.184 881.964 106.152C881.982 106.12 881.992 106.084 881.993 106.047C881.994 106.01 881.985 105.974 881.967 105.941L879.846 102.254V102.254Z" fill="url(#paint1_linear_6838_12028)"/>
<path d="M877.497 99.9135L879.846 102.254L871.107 87.1181C871.094 87.0936 871.076 87.072 871.054 87.0547C871.032 87.0374 871.006 87.0247 870.979 87.0174C870.952 87.01 870.924 87.0081 870.896 87.0119C870.869 87.0156 870.842 87.0249 870.818 87.0392C870.783 87.0559 870.755 87.0837 870.738 87.1181L868.547 90.9815L877.497 99.9049V99.9135V99.9135Z" fill="url(#paint2_linear_6838_12028)"/>
<path d="M864.552 106.258L867.703 105.431L867.685 94.2374L864.552 106.258Z" fill="url(#paint3_linear_6838_12028)"/>
<path d="M867.684 94.2375L877.496 99.9135L868.538 90.9729L867.684 94.2375H867.684Z" fill="url(#paint4_linear_6838_12028)"/>
<path d="M867.702 105.431L879.846 102.255L877.496 99.9135L867.702 105.431Z" fill="url(#paint5_linear_6838_12028)"/>
<path d="M867.702 105.431L869.806 104.243L867.693 96.6129L867.702 105.431V105.431Z" fill="url(#paint6_linear_6838_12028)"/>
<path d="M877.496 99.9135L875.428 98.7169L869.805 104.243L877.496 99.913V99.9135Z" fill="url(#paint7_linear_6838_12028)"/>
<path d="M867.693 96.6134L875.429 98.7168L867.685 94.2374L867.693 96.6134V96.6134Z" fill="url(#paint8_linear_6838_12028)"/>
<path d="M872.613 98.2684H873.801L867.693 96.6135L868.142 98.2592L872.595 98.2678H872.613V98.2684Z" fill="url(#paint9_linear_6838_12028)"/>
<path d="M868.759 99.2974L868.143 98.2592L869.806 104.243L870.976 103.09L868.776 99.3152L868.759 99.2974V99.2974Z" fill="url(#paint10_linear_6838_12028)"/>
<path d="M873.801 98.2677L870.976 103.09L875.429 98.7168L873.801 98.2677Z" fill="url(#paint11_linear_6838_12028)"/>
<path d="M872.613 98.2683L868.143 98.2592L868.776 99.3152L872.612 98.2677L872.613 98.2683Z" fill="url(#paint12_linear_6838_12028)"/>
<path d="M871.574 102.078L868.775 99.3146L870.975 103.09L871.574 102.078Z" fill="url(#paint13_linear_6838_12028)"/>
<path d="M873.801 98.2677H872.613L871.574 102.078L873.801 98.2682V98.2677Z" fill="url(#paint14_linear_6838_12028)"/>
</g>
</g>
<g clip-path="url(#clip3_6838_12028)">
<path d="M920.455 58.0424H898.722V77.8087H920.455V58.0424Z" fill="white"/>
<path fill-rule="evenodd" clip-rule="evenodd" d="M927.188 69.6117C927.188 79.3256 919.314 87.2 909.6 87.2C899.886 87.2 892.012 79.3256 892.012 69.6117C892.012 59.898 899.886 52.0234 909.6 52.0234C919.314 52.0234 927.188 59.898 927.188 69.6117ZM904.616 76.611H901.203C900.485 76.611 900.131 76.611 899.915 76.4728C899.682 76.3215 899.539 76.0709 899.522 75.7943C899.509 75.5395 899.686 75.2283 900.04 74.6061L908.468 59.7505C908.827 59.1196 909.008 58.8042 909.237 58.6875C909.484 58.5623 909.778 58.5623 910.024 58.6875C910.253 58.8042 910.434 59.1196 910.793 59.7505L912.526 62.775L912.534 62.7904C912.922 63.4672 913.118 63.8104 913.204 64.1706C913.299 64.5638 913.299 64.9786 913.204 65.3718C913.118 65.7347 912.923 66.0804 912.53 66.7674L908.103 74.5932L908.091 74.6132C907.702 75.2956 907.504 75.6414 907.23 75.9023C906.932 76.1875 906.573 76.3948 906.18 76.5117C905.821 76.611 905.42 76.611 904.616 76.611ZM913.236 76.611H918.127C918.848 76.611 919.212 76.611 919.428 76.4686C919.661 76.3173 919.808 76.0623 919.821 75.7859C919.833 75.5393 919.66 75.2402 919.32 74.6542C919.309 74.6342 919.297 74.6139 919.285 74.5933L916.835 70.4021L916.807 70.355C916.463 69.7728 916.289 69.4788 916.066 69.3652C915.82 69.2398 915.53 69.2398 915.284 69.3652C915.059 69.4818 914.878 69.7886 914.519 70.4065L912.078 74.5976L912.07 74.612C911.712 75.2289 911.534 75.5372 911.547 75.7901C911.564 76.0667 911.706 76.3215 911.94 76.4728C912.151 76.611 912.514 76.611 913.236 76.611Z" fill="#E84142"/>
</g>
<g clip-path="url(#clip4_6838_12028)">
<path d="M846.855 79.5267L846.855 79.5268L846.855 79.5267ZM858.701 100.616L858.68 100.698C856.429 109.542 847.45 114.914 838.583 112.703C829.693 110.486 824.281 101.478 826.499 92.5863L826.499 92.586C828.715 83.6923 837.722 78.28 846.613 80.4969L846.613 80.497C855.506 82.7139 860.918 91.7224 858.701 100.616Z" fill="#FEE4F0" stroke="url(#paint15_linear_6838_12028)" stroke-width="2"/>
<g clip-path="url(#clip5_6838_12028)">
<path d="M840.492 91.0062C840.254 90.9721 840.242 90.9608 840.356 90.9494C840.572 90.9154 841.071 90.9608 841.423 91.0402C842.24 91.2332 842.978 91.7327 843.761 92.6068L843.966 92.8452L844.261 92.7998C845.521 92.5955 846.815 92.7544 847.894 93.2539C848.189 93.3901 848.654 93.6625 848.711 93.7306C848.734 93.7533 848.768 93.9009 848.79 94.0485C848.87 94.582 848.836 94.9794 848.666 95.2859C848.575 95.4561 848.575 95.5015 848.631 95.6491C848.677 95.7626 848.813 95.8421 848.938 95.8421C849.21 95.8421 849.494 95.4107 849.63 94.8091L849.687 94.5707L849.789 94.6842C850.368 95.3313 850.822 96.2281 850.89 96.8638L850.913 97.034L850.811 96.8865C850.641 96.6254 850.482 96.4551 850.266 96.3075C849.88 96.0464 849.471 95.967 848.393 95.9102C847.417 95.8534 846.861 95.774 846.316 95.5924C845.385 95.2859 844.908 94.8885 843.807 93.4241C843.319 92.7771 843.012 92.4252 842.706 92.13C842.036 91.483 841.366 91.1424 840.492 91.0062Z" fill="#FF007A"/>
<path d="M848.949 92.4479C848.972 92.0166 849.029 91.7328 849.154 91.4717C849.199 91.3695 849.244 91.2787 849.256 91.2787C849.267 91.2787 849.244 91.3581 849.21 91.449C849.119 91.6987 849.108 92.0506 849.165 92.4479C849.244 92.9588 849.278 93.0269 849.823 93.5831C850.073 93.8442 850.368 94.1734 850.482 94.3096L850.675 94.5594L850.482 94.3778C850.243 94.1507 849.698 93.7193 849.574 93.6626C849.494 93.6172 849.483 93.6172 849.426 93.6739C849.381 93.7193 849.369 93.7875 849.369 94.1167C849.358 94.6275 849.29 94.9454 849.119 95.2746C849.029 95.4448 849.017 95.4108 849.097 95.2178C849.154 95.0702 849.165 95.0021 849.165 94.514C849.165 93.5264 849.051 93.288 848.359 92.8907C848.189 92.7885 847.893 92.6409 847.723 92.5615C847.542 92.482 847.405 92.4139 847.417 92.4139C847.439 92.3912 848.109 92.5842 848.37 92.6977C848.768 92.8566 848.836 92.868 848.881 92.8566C848.915 92.8225 848.938 92.7317 848.949 92.4479Z" fill="#FF007A"/>
<path d="M840.958 94.1394C840.481 93.481 840.175 92.4593 840.243 91.6987L840.266 91.4603L840.379 91.483C840.583 91.5171 840.935 91.6533 841.106 91.7555C841.56 92.0279 841.764 92.4025 841.957 93.3334C842.014 93.6058 842.093 93.9237 842.127 94.0259C842.184 94.1961 842.4 94.5935 842.581 94.8432C842.706 95.0248 842.627 95.1156 842.343 95.0929C841.912 95.0475 841.333 94.6502 840.958 94.1394Z" fill="#FF007A"/>
<path d="M848.37 99.0774C846.123 98.1693 845.328 97.386 845.328 96.0578C845.328 95.8649 845.339 95.7059 845.339 95.7059C845.351 95.7059 845.43 95.774 845.532 95.8535C845.987 96.2168 846.497 96.3757 847.916 96.58C848.745 96.7049 849.222 96.7957 849.653 96.9433C851.027 97.3974 851.878 98.3282 852.083 99.5883C852.139 99.9515 852.105 100.644 852.014 101.007C851.935 101.291 851.708 101.813 851.651 101.825C851.64 101.825 851.617 101.768 851.617 101.677C851.594 101.2 851.356 100.746 850.959 100.394C850.482 99.9856 849.869 99.6791 848.37 99.0774Z" fill="#FF007A"/>
<path d="M846.782 99.452C846.759 99.2817 846.702 99.066 846.668 98.9752L846.611 98.8049L846.714 98.9298C846.861 99.1001 846.975 99.3044 847.077 99.5882C847.156 99.8039 847.156 99.872 847.156 100.224C847.156 100.564 847.145 100.644 847.077 100.837C846.963 101.143 846.827 101.359 846.6 101.598C846.191 102.018 845.658 102.245 844.897 102.347C844.761 102.358 844.375 102.392 844.034 102.415C843.183 102.46 842.616 102.551 842.105 102.733C842.037 102.755 841.968 102.778 841.957 102.767C841.934 102.744 842.286 102.54 842.57 102.403C842.967 102.211 843.376 102.108 844.273 101.949C844.716 101.881 845.17 101.79 845.283 101.745C846.407 101.393 846.963 100.519 846.782 99.452Z" fill="#FF007A"/>
<path d="M847.814 101.28C847.519 100.633 847.451 100.02 847.61 99.4407C847.633 99.3839 847.655 99.3271 847.678 99.3271C847.701 99.3271 847.769 99.3612 847.837 99.4066C847.973 99.4974 848.257 99.6564 848.983 100.054C849.903 100.553 850.425 100.939 850.788 101.382C851.106 101.768 851.299 102.211 851.39 102.755C851.447 103.062 851.413 103.8 851.333 104.106C851.083 105.071 850.516 105.843 849.687 106.286C849.562 106.354 849.46 106.399 849.449 106.399C849.437 106.399 849.483 106.286 849.551 106.15C849.823 105.571 849.857 105.014 849.653 104.39C849.528 104.004 849.267 103.539 848.745 102.755C848.121 101.847 847.973 101.609 847.814 101.28Z" fill="#FF007A"/>
<path d="M839.358 104.753C840.198 104.05 841.231 103.55 842.184 103.391C842.593 103.323 843.274 103.346 843.649 103.448C844.25 103.607 844.795 103.947 845.079 104.367C845.351 104.776 845.476 105.128 845.601 105.911C845.646 106.218 845.703 106.536 845.715 106.604C845.805 107.012 845.987 107.33 846.214 107.5C846.566 107.762 847.179 107.773 847.781 107.546C847.883 107.512 847.974 107.478 847.974 107.489C847.996 107.512 847.69 107.716 847.485 107.818C847.202 107.966 846.975 108.011 846.668 108.011C846.123 108.011 845.658 107.728 845.283 107.16C845.204 107.046 845.045 106.717 844.909 106.411C844.511 105.491 844.307 105.219 843.842 104.912C843.433 104.651 842.911 104.594 842.513 104.787C841.991 105.037 841.855 105.707 842.218 106.116C842.366 106.286 842.638 106.422 842.865 106.456C843.285 106.513 843.649 106.184 843.649 105.764C843.649 105.491 843.546 105.332 843.274 105.207C842.911 105.048 842.513 105.23 842.525 105.582C842.525 105.73 842.593 105.82 842.74 105.889C842.831 105.934 842.831 105.934 842.763 105.923C842.434 105.854 842.354 105.446 842.616 105.185C842.933 104.867 843.603 105.003 843.83 105.446C843.921 105.627 843.932 105.991 843.853 106.218C843.66 106.717 843.115 106.978 842.559 106.831C842.184 106.729 842.025 106.626 841.571 106.161C840.777 105.344 840.47 105.185 839.335 105.014L839.119 104.98L839.358 104.753Z" fill="#FF007A"/>
<path fill-rule="evenodd" clip-rule="evenodd" d="M833.385 86.4881C836.03 89.7007 840.106 94.6956 840.31 94.968C840.48 95.195 840.412 95.4107 840.129 95.5697C839.97 95.6605 839.64 95.7513 839.481 95.7513C839.3 95.7513 839.084 95.6605 838.937 95.5129C838.834 95.4107 838.392 94.7637 837.393 93.2085C836.632 92.0165 835.985 91.0289 835.974 91.0175C835.928 90.9948 835.928 90.9948 837.313 93.4696C838.187 95.0248 838.471 95.581 838.471 95.6491C838.471 95.7967 838.426 95.8762 838.244 96.0805C837.938 96.4211 837.801 96.807 837.699 97.613C837.586 98.5098 837.279 99.1455 836.405 100.224C835.894 100.86 835.815 100.973 835.69 101.234C835.531 101.552 835.486 101.734 835.463 102.142C835.44 102.574 835.486 102.846 835.61 103.255C835.724 103.618 835.849 103.857 836.155 104.322C836.416 104.731 836.575 105.037 836.575 105.151C836.575 105.241 836.598 105.241 837.007 105.151C837.983 104.924 838.789 104.538 839.232 104.061C839.504 103.766 839.572 103.607 839.572 103.198C839.572 102.937 839.561 102.88 839.493 102.721C839.379 102.472 839.164 102.267 838.698 101.949C838.085 101.529 837.824 101.189 837.756 100.735C837.699 100.349 837.767 100.088 838.108 99.3725C838.46 98.6347 838.551 98.3282 838.607 97.5789C838.641 97.1022 838.698 96.9092 838.834 96.7616C838.982 96.6027 839.107 96.5459 839.459 96.5005C840.038 96.4211 840.412 96.2735 840.707 95.9897C840.969 95.7513 841.082 95.5129 841.093 95.161L841.105 94.8999L840.957 94.741C840.424 94.128 833.034 86 833 86C832.988 86 833.17 86.2157 833.385 86.4881ZM836.871 102.631C836.995 102.415 836.927 102.142 836.723 102.006C836.53 101.881 836.235 101.938 836.235 102.108C836.235 102.154 836.258 102.199 836.326 102.222C836.428 102.279 836.439 102.335 836.36 102.46C836.28 102.585 836.28 102.699 836.382 102.778C836.541 102.903 836.757 102.835 836.871 102.631Z" fill="#FF007A"/>
<path fill-rule="evenodd" clip-rule="evenodd" d="M841.468 96.6595C841.196 96.7389 840.935 97.0341 840.855 97.3292C840.81 97.5109 840.832 97.8401 840.912 97.9422C841.037 98.1012 841.15 98.1466 841.468 98.1466C842.093 98.1466 842.626 97.8741 842.683 97.5449C842.74 97.2725 842.501 96.8979 842.172 96.7276C842.002 96.6368 841.65 96.6027 841.468 96.6595ZM842.195 97.2271C842.286 97.0908 842.251 96.9433 842.081 96.8411C841.775 96.6481 841.309 96.807 841.309 97.1022C841.309 97.2498 841.548 97.4087 841.775 97.4087C841.922 97.4087 842.127 97.3179 842.195 97.2271Z" fill="#FF007A"/>
</g>
</g>
<g clip-path="url(#clip6_6838_12028)">
<path d="M898.669 73.8575C896.319 83.2862 886.769 89.0243 877.339 86.6731C867.914 84.3225 862.175 74.7722 864.527 65.3443C866.877 55.9146 876.426 50.176 885.853 52.5267C895.282 54.8773 901.02 64.4286 898.669 73.8577L898.669 73.8575H898.669Z" fill="#ECEFF0"/>
<g clip-path="url(#clip7_6838_12028)">
<path opacity="0.600006" d="M881.902 67.2374L875.391 70.1968L881.902 74.0454L888.412 70.1968L881.902 67.2374Z" fill="#010101"/>
<path opacity="0.449997" d="M875.391 70.1968L881.902 74.0454V67.2374V59.3936L875.391 70.1968Z" fill="#010101"/>
<path opacity="0.800003" d="M881.901 59.3936V67.2374V74.0454L888.412 70.1968L881.901 59.3936Z" fill="#010101"/>
<path opacity="0.449997" d="M875.391 71.4314L881.902 80.6064V75.2781L875.391 71.4314Z" fill="#010101"/>
<path opacity="0.800003" d="M881.901 75.2782V80.6066L888.416 71.4315L881.901 75.2782Z" fill="#010101"/>
</g>
</g>
<path d="M853.6 86.672C863.029 86.672 870.672 79.0286 870.672 69.6C870.672 60.1713 863.029 52.528 853.6 52.528C844.172 52.528 836.528 60.1713 836.528 69.6C836.528 79.0286 844.172 86.672 853.6 86.672Z" fill="url(#paint16_linear_6838_12028)"/>
<path d="M861.071 76.4015L855.297 62.4465C854.97 61.7254 854.488 61.3719 853.849 61.3719H853.339C852.7 61.3719 852.218 61.7254 851.892 62.4465L849.381 68.5263H847.479C847.206 68.5274 846.943 68.6364 846.749 68.8296C846.556 69.0228 846.446 69.2848 846.444 69.5585V69.5726C846.446 69.8464 846.556 70.1083 846.749 70.3015C846.943 70.4947 847.206 70.6037 847.479 70.6048H848.501L846.103 76.4015C846.058 76.5287 846.034 76.6625 846.032 76.7975C846.032 77.1227 846.132 77.3772 846.316 77.5752C846.5 77.7731 846.756 77.8719 847.082 77.8719C847.296 77.869 847.504 77.7999 847.678 77.6739C847.862 77.5467 847.99 77.3629 848.089 77.1508L850.728 70.6045H852.558C852.832 70.6035 853.094 70.4945 853.288 70.3013C853.482 70.108 853.592 69.8461 853.594 69.5724V69.5441C853.592 69.2704 853.482 69.0085 853.288 68.8152C853.094 68.622 852.832 68.513 852.558 68.512H851.579L853.594 63.4927L859.085 77.1509C859.184 77.3629 859.312 77.5469 859.496 77.674C859.669 77.8 859.878 77.8691 860.092 77.872C860.418 77.872 860.674 77.773 860.858 77.5751C861.043 77.3771 861.142 77.1226 861.142 76.7974C861.147 76.6618 861.123 76.5267 861.071 76.4015Z" fill="white"/>
<g clip-path="url(#clip8_6838_12028)">
<path d="M842.671 73.8575C840.321 83.2862 830.771 89.0243 821.341 86.6731C811.916 84.3225 806.177 74.7722 808.529 65.3443C810.879 55.9146 820.428 50.176 829.855 52.5267C839.284 54.8773 845.022 64.4286 842.671 73.8577L842.671 73.8575H842.671Z" fill="#F7931A"/>
<path d="M833.361 67.0924C833.711 64.7503 831.928 63.4913 829.489 62.6514L830.28 59.4787L828.349 58.9975L827.579 62.0866C827.071 61.96 826.55 61.8407 826.032 61.7224L826.807 58.6128L824.877 58.1316L824.086 61.3032C823.666 61.2076 823.253 61.113 822.852 61.0134L822.855 61.0034L820.191 60.3384L819.678 62.4011C819.678 62.4011 821.111 62.7296 821.08 62.7498C821.862 62.945 822.004 63.4627 821.98 63.873L821.079 67.4875C821.133 67.5012 821.203 67.5209 821.28 67.5519C821.216 67.5359 821.147 67.5184 821.076 67.5014L819.813 72.5647C819.717 72.8023 819.475 73.1589 818.928 73.0235C818.947 73.0515 817.524 72.6732 817.524 72.6732L816.565 74.8839L819.079 75.5105C819.546 75.6277 820.004 75.7504 820.456 75.8658L819.656 79.0748L821.586 79.5561L822.377 76.3811C822.904 76.5241 823.415 76.6561 823.916 76.7805L823.127 79.9405L825.059 80.4218L825.858 77.2187C829.151 77.842 831.627 77.5907 832.67 74.6119C833.51 72.2136 832.628 70.8303 830.895 69.9282C832.157 69.6372 833.108 68.8072 833.361 67.0927L833.361 67.0923L833.361 67.0924ZM828.948 73.28C828.351 75.6783 824.313 74.3819 823.004 74.0568L824.065 69.8053C825.374 70.1321 829.572 70.7789 828.948 73.28H828.948ZM829.545 67.0577C829.001 69.2392 825.64 68.1309 824.55 67.8591L825.511 64.0033C826.601 64.2751 830.112 64.7823 829.545 67.0577H829.545Z" fill="white"/>
</g>
<g filter="url(#filter2_d_6838_12028)">
<circle cx="476.5" cy="82.5" r="81.5" fill="#211426" fill-opacity="0.33" shape-rendering="crispEdges"/>
<circle cx="476.5" cy="82.5" r="81.5" stroke="url(#paint17_linear_6838_12028)" shape-rendering="auto"/>
</g>
<g filter="url(#filter3_f_6838_12028)">
<path fill-rule="evenodd" clip-rule="evenodd" d="M476.892 39.3273C459.145 39.3275 444.763 54.8029 444.763 73.8992C444.763 84.3121 449.037 93.6492 455.81 99.9979L471.088 86.1394H455.63C454.031 86.1394 452.759 84.7419 452.759 83.0508C452.759 81.3311 454.058 79.9622 455.63 79.9622H498.174C499.773 79.9622 501.045 81.3597 501.045 83.0508C501.045 84.7705 499.746 86.1394 498.174 86.1394H484.548L498.619 99.4115C505.02 93.0929 509.041 84.0131 509.041 73.9203C509.041 54.8246 494.64 39.3481 476.892 39.3273ZM443.529 73.8992C443.529 54.07 458.464 38 476.892 38H476.893C495.32 38.0215 510.275 54.0904 510.275 73.9203C510.275 84.6193 505.921 94.2231 499.034 100.796L498.627 101.184L481.269 84.8121H498.174C499.072 84.8121 499.811 84.0302 499.811 83.0508C499.811 82.085 499.084 81.2895 498.174 81.2895H455.63C454.733 81.2895 453.993 82.0714 453.993 83.0508C453.993 84.0166 454.72 84.8121 455.63 84.8121H474.466L455.806 101.737L455.408 101.376C448.142 94.782 443.529 84.9205 443.529 73.8992Z" fill="url(#paint18_linear_6838_12028)"/>
</g>
<g filter="url(#filter4_d_6838_12028)">
<path fill-rule="evenodd" clip-rule="evenodd" d="M475.989 39.0546C457.236 39.0547 442.039 54.4841 442.039 73.5237C442.039 83.9461 446.591 93.2877 453.796 99.6186L470.236 85.5489H453.608C451.998 85.5489 450.716 84.2206 450.716 82.6131C450.716 80.9786 452.024 79.6773 453.608 79.6773H498.392C500.002 79.6773 501.284 81.0055 501.284 82.6131C501.284 84.2475 499.976 85.5489 498.392 85.5489H483.703L498.862 99.0396C505.676 92.7368 509.961 83.6499 509.961 73.5446C509.961 54.5056 494.743 39.0754 475.989 39.0546ZM441 73.5237C441 53.9018 456.663 38 475.99 38H475.99C495.316 38.0213 511 53.9222 511 73.5446C511 84.1317 506.435 93.6348 499.211 100.139L498.869 100.448L480.942 84.4943H498.392C499.408 84.4943 500.245 83.6594 500.245 82.6131C500.245 81.5818 499.423 80.7319 498.392 80.7319H453.608C452.592 80.7319 451.755 81.5668 451.755 82.6131C451.755 83.6444 452.578 84.4943 453.608 84.4943H473.08L453.793 101L453.458 100.713C445.838 94.1878 441 84.4296 441 73.5237Z" fill="url(#paint19_linear_6838_12028)"/>
</g>
<g filter="url(#filter5_d_6838_12028)">
<path d="M374.354 78.3536C374.549 78.1583 374.549 77.8417 374.354 77.6464L371.172 74.4645C370.976 74.2692 370.66 74.2692 370.464 74.4645C370.269 74.6597 370.269 74.9763 370.464 75.1716L373.293 78L370.464 80.8284C370.269 81.0237 370.269 81.3403 370.464 81.5355C370.66 81.7308 370.976 81.7308 371.172 81.5355L374.354 78.3536ZM189 78.5H374V77.5H189V78.5Z" fill="url(#paint20_linear_6838_12028)"/>
</g>
<g filter="url(#filter6_d_6838_12028)">
<path d="M764.354 78.3536C764.549 78.1583 764.549 77.8417 764.354 77.6464L761.172 74.4645C760.976 74.2692 760.66 74.2692 760.464 74.4645C760.269 74.6597 760.269 74.9763 760.464 75.1716L763.293 78L760.464 80.8284C760.269 81.0237 760.269 81.3403 760.464 81.5355C760.66 81.7308 760.976 81.7308 761.172 81.5355L764.354 78.3536ZM579 78.5H764V77.5H579V78.5Z" fill="url(#paint21_linear_6838_12028)"/>
</g>
<g filter="url(#filter7_d_6838_12028)">
<circle cx="281.5" cy="77.5" r="24.5" fill="#211426"/>
</g>
<g clip-path="url(#clip9_6838_12028)" filter="url(#filter8_d_6838_12028)">
<path d="M266.202 139.081C266.192 139.063 266.178 139.047 266.162 139.034C266.146 139.021 266.127 139.012 266.107 139.006C266.087 139.001 266.066 138.999 266.046 139.002C266.025 139.005 266.005 139.012 265.987 139.022C265.962 139.035 265.941 139.055 265.929 139.081L258.021 152.992C258 153.028 257.995 153.071 258.006 153.111C258.017 153.151 258.043 153.185 258.079 153.206C258.105 153.219 258.131 153.226 258.157 153.226H274.097C274.124 153.225 274.151 153.218 274.174 153.204C274.198 153.19 274.217 153.171 274.231 153.147C274.245 153.124 274.252 153.097 274.253 153.07C274.253 153.043 274.247 153.016 274.234 152.992L266.202 139.081V139.081ZM264.485 148.101L267.32 147.327L266.553 150.143L264.485 148.101V148.101Z" fill="white"/>
<path d="M258.157 153.232H261.364L264.309 141.936L258.021 152.998C258 153.034 257.995 153.077 258.006 153.117C258.017 153.158 258.043 153.192 258.079 153.212C258.105 153.226 258.131 153.232 258.157 153.232V153.232Z" fill="white"/>
<path d="M272.666 150.273L261.363 153.232H274.097C274.124 153.232 274.151 153.224 274.174 153.21C274.198 153.197 274.217 153.177 274.231 153.154C274.245 153.13 274.252 153.104 274.253 153.076C274.253 153.049 274.247 153.022 274.234 152.998L272.666 150.273V150.273ZM270.93 148.543L272.667 150.273L266.208 139.087C266.198 139.069 266.185 139.053 266.169 139.04C266.152 139.028 266.134 139.018 266.114 139.013C266.094 139.007 266.073 139.006 266.052 139.009C266.032 139.011 266.012 139.018 265.994 139.029C265.969 139.041 265.948 139.062 265.936 139.087L264.316 141.942L270.93 148.537V148.543V148.543ZM261.363 153.232L263.692 152.621L263.679 144.349L261.363 153.232Z" fill="white"/>
<path d="M263.679 144.349L270.93 148.543L264.31 141.936L263.679 144.349H263.679Z" fill="white"/>
<path d="M263.692 152.621L272.667 150.274L270.931 148.543L263.692 152.621Z" fill="white"/>
<path d="M263.692 152.621L265.247 151.743L263.686 146.104L263.692 152.621V152.621Z" fill="white"/>
<path d="M270.93 148.543L269.402 147.659L265.246 151.743L270.93 148.543V148.543ZM263.685 146.105L269.402 147.659L263.679 144.349L263.685 146.105V146.105Z" fill="white"/>
<path d="M267.321 147.328H268.199L263.686 146.105L264.017 147.321L267.308 147.327H267.321V147.328Z" fill="white"/>
<path d="M264.473 148.088L264.018 147.321L265.247 151.743L266.111 150.891L264.486 148.101L264.473 148.088V148.088ZM268.199 147.327L266.111 150.891L269.402 147.659L268.199 147.327Z" fill="white"/>
<path d="M267.321 147.328L264.018 147.321L264.486 148.101L267.321 147.327L267.321 147.328Z" fill="white"/>
<path d="M266.554 150.143L264.485 148.101L266.111 150.891L266.554 150.143ZM268.199 147.327H267.321L266.554 150.143L268.199 147.328V147.327Z" fill="white"/>
<path d="M258.157 153.232H261.364L264.309 141.936L258.021 152.998C258 153.034 257.995 153.077 258.006 153.117C258.017 153.158 258.043 153.192 258.079 153.212C258.105 153.226 258.131 153.232 258.157 153.232V153.232Z" fill="url(#paint22_linear_6838_12028)"/>
<path d="M272.666 150.273L261.363 153.232H274.097C274.124 153.232 274.151 153.224 274.174 153.211C274.198 153.197 274.217 153.177 274.231 153.154C274.245 153.13 274.252 153.104 274.253 153.076C274.253 153.049 274.247 153.022 274.234 152.998L272.666 150.273V150.273Z" fill="url(#paint23_linear_6838_12028)"/>
<path d="M270.93 148.543L272.667 150.273L266.209 139.087C266.199 139.069 266.185 139.053 266.169 139.04C266.153 139.028 266.134 139.018 266.114 139.013C266.094 139.007 266.073 139.006 266.053 139.009C266.032 139.011 266.012 139.018 265.995 139.029C265.969 139.041 265.948 139.062 265.936 139.087L264.316 141.942L270.93 148.537V148.543V148.543Z" fill="url(#paint24_linear_6838_12028)"/>
<path d="M261.363 153.232L263.692 152.621L263.679 144.349L261.363 153.232Z" fill="url(#paint25_linear_6838_12028)"/>
<path d="M263.679 144.349L270.93 148.543L264.31 141.936L263.679 144.349H263.679Z" fill="url(#paint26_linear_6838_12028)"/>
<path d="M263.692 152.621L272.667 150.274L270.931 148.543L263.692 152.621Z" fill="url(#paint27_linear_6838_12028)"/>
<path d="M263.692 152.621L265.247 151.743L263.686 146.104L263.692 152.621V152.621Z" fill="url(#paint28_linear_6838_12028)"/>
<path d="M270.93 148.543L269.402 147.659L265.246 151.743L270.93 148.543V148.543Z" fill="url(#paint29_linear_6838_12028)"/>
<path d="M263.685 146.105L269.402 147.659L263.679 144.349L263.685 146.105V146.105Z" fill="url(#paint30_linear_6838_12028)"/>
<path d="M267.321 147.328H268.199L263.686 146.105L264.017 147.321L267.308 147.327H267.321V147.328Z" fill="url(#paint31_linear_6838_12028)"/>
<path d="M264.473 148.088L264.018 147.321L265.247 151.743L266.111 150.891L264.486 148.101L264.473 148.088V148.088Z" fill="url(#paint32_linear_6838_12028)"/>
<path d="M268.199 147.327L266.111 150.891L269.402 147.659L268.199 147.327Z" fill="url(#paint33_linear_6838_12028)"/>
<path d="M267.321 147.328L264.018 147.321L264.486 148.101L267.321 147.327L267.321 147.328Z" fill="url(#paint34_linear_6838_12028)"/>
<path d="M266.554 150.143L264.485 148.101L266.111 150.891L266.554 150.143Z" fill="url(#paint35_linear_6838_12028)"/>
<path d="M268.199 147.327H267.321L266.554 150.143L268.199 147.328V147.327Z" fill="url(#paint36_linear_6838_12028)"/>
<path d="M281.83 141.793C281.732 141.727 281.616 141.695 281.498 141.702C281.387 141.704 281.278 141.733 281.18 141.786C281.08 141.847 281.003 141.938 280.959 142.046L277.135 150.546H277.681C277.98 150.546 278.247 150.371 278.37 150.097L279.177 148.27H283.859L284.659 150.091C284.718 150.225 284.814 150.339 284.937 150.419C285.059 150.498 285.202 150.541 285.349 150.54H285.882L282.058 142.04C282.005 141.939 281.927 141.853 281.83 141.793V141.793ZM283.482 147.438H279.541L279.554 147.412L281.505 142.977L283.469 147.412L283.482 147.438V147.438ZM292.776 142.443C292.268 142.001 291.559 141.773 290.642 141.773H287.716C287.647 141.769 287.578 141.78 287.513 141.803C287.449 141.827 287.389 141.863 287.339 141.91C287.241 142.001 287.189 142.131 287.196 142.268V150.546H287.456C287.872 150.546 288.21 150.208 288.21 149.792V146.911H290.643C291.547 146.911 292.255 146.683 292.769 146.235C293.283 145.779 293.537 145.149 293.537 144.329C293.53 143.516 293.276 142.885 292.775 142.443H292.776ZM290.545 146.078H288.21V142.619H290.545C291.871 142.619 292.534 143.191 292.534 144.336C292.534 145.493 291.864 146.078 290.545 146.078H290.545ZM295.546 141.773H295.286V149.798C295.286 150.214 295.624 150.552 296.04 150.552H296.301V142.528C296.301 142.112 295.962 141.774 295.546 141.774V141.773ZM303.578 146.82C303.304 146.456 302.901 146.202 302.374 146.053C302.802 145.902 303.17 145.617 303.421 145.24C303.675 144.85 303.812 144.388 303.799 143.926C303.799 143.249 303.565 142.716 303.103 142.313C302.635 141.91 302.01 141.715 301.217 141.715C300.71 141.715 300.202 141.806 299.728 141.988C299.526 142.059 299.331 142.151 299.142 142.261C299.057 142.31 298.983 142.375 298.923 142.453C298.863 142.531 298.819 142.62 298.794 142.715C298.768 142.81 298.762 142.909 298.775 143.006C298.788 143.103 298.82 143.197 298.869 143.282C298.878 143.299 298.889 143.314 298.902 143.328L298.98 143.445C299.306 143.17 299.672 142.947 300.066 142.781C300.424 142.639 300.806 142.566 301.191 142.567C301.705 142.567 302.095 142.69 302.374 142.944C302.654 143.198 302.797 143.555 302.797 144.023C302.797 144.557 302.622 144.966 302.277 145.253C301.932 145.539 301.438 145.682 300.794 145.682H300.339C300.285 145.679 300.231 145.686 300.18 145.704C300.129 145.722 300.082 145.75 300.042 145.786C300.002 145.823 299.97 145.867 299.947 145.916C299.924 145.965 299.912 146.018 299.91 146.072V146.105C299.91 146.215 299.949 146.326 300.027 146.41C300.105 146.501 300.222 146.547 300.339 146.54H300.996C302.329 146.54 302.999 147.074 302.999 148.134C302.999 148.66 302.843 149.064 302.524 149.343C302.206 149.623 301.744 149.766 301.132 149.766C300.736 149.766 300.332 149.701 299.962 149.558C299.56 149.395 299.185 149.171 298.85 148.895L298.772 149.012C298.716 149.094 298.677 149.186 298.657 149.283C298.637 149.38 298.637 149.48 298.656 149.577C298.674 149.674 298.712 149.767 298.766 149.849C298.821 149.932 298.891 150.003 298.973 150.059C298.993 150.072 299.012 150.085 299.032 150.091C299.214 150.195 299.409 150.28 299.604 150.351C300.098 150.534 300.619 150.624 301.145 150.624C302.03 150.624 302.726 150.403 303.233 149.967C303.74 149.532 304 148.934 304 148.179C303.987 147.633 303.851 147.178 303.578 146.82Z" fill="white"/>
</g>
<g filter="url(#filter9_d_6838_12028)">
<circle cx="671.5" cy="77.5" r="24.5" fill="#211426"/>
</g>
<g filter="url(#filter10_d_6838_12028)">
<path d="M615.029 129C614.954 129 614.889 128.972 614.833 128.916C614.777 128.86 614.749 128.795 614.749 128.72L614.777 128.566L618.319 119.48C618.394 119.293 618.529 119.2 618.725 119.2H619.201C619.397 119.2 619.532 119.293 619.607 119.48L623.149 128.566L623.177 128.72C623.177 128.795 623.149 128.86 623.093 128.916C623.037 128.972 622.972 129 622.897 129H622.617C622.533 129 622.463 128.977 622.407 128.93C622.36 128.883 622.328 128.837 622.309 128.79L621.441 126.55H616.485L615.617 128.79C615.598 128.837 615.561 128.883 615.505 128.93C615.458 128.977 615.393 129 615.309 129H615.029ZM621.105 125.71L618.963 120.194L616.821 125.71H621.105ZM625.143 129C625.049 129 624.975 128.972 624.919 128.916C624.863 128.86 624.835 128.785 624.835 128.692V119.522C624.835 119.429 624.863 119.354 624.919 119.298C624.975 119.233 625.049 119.2 625.143 119.2H628.125C629.095 119.2 629.861 119.345 630.421 119.634C630.99 119.914 631.391 120.329 631.625 120.88C631.867 121.431 631.998 122.131 632.017 122.98C632.026 123.26 632.031 123.629 632.031 124.086C632.031 124.553 632.026 124.926 632.017 125.206C631.998 126.102 631.867 126.825 631.625 127.376C631.391 127.917 630.999 128.323 630.449 128.594C629.898 128.865 629.147 129 628.195 129H625.143ZM628.125 128.16C628.871 128.16 629.459 128.062 629.889 127.866C630.318 127.661 630.626 127.343 630.813 126.914C631.009 126.475 631.116 125.883 631.135 125.136C631.144 124.856 631.149 124.506 631.149 124.086C631.149 123.675 631.144 123.33 631.135 123.05C631.116 122.005 630.869 121.244 630.393 120.768C629.926 120.283 629.147 120.04 628.055 120.04H625.717V128.16H628.125ZM637.025 129.14C636.054 129.14 635.252 128.902 634.617 128.426C633.992 127.941 633.66 127.227 633.623 126.284C633.623 126.191 633.646 126.116 633.693 126.06C633.749 126.004 633.824 125.976 633.917 125.976H634.197C634.29 125.976 634.36 126.004 634.407 126.06C634.463 126.116 634.496 126.186 634.505 126.27C634.561 126.961 634.818 127.474 635.275 127.81C635.742 128.137 636.325 128.3 637.025 128.3C637.828 128.3 638.444 128.039 638.873 127.516C639.312 126.984 639.531 126.284 639.531 125.416V120.04H634.365C634.272 120.04 634.197 120.012 634.141 119.956C634.085 119.9 634.057 119.825 634.057 119.732V119.508C634.057 119.415 634.085 119.34 634.141 119.284C634.197 119.228 634.272 119.2 634.365 119.2H640.091C640.194 119.2 640.273 119.228 640.329 119.284C640.385 119.34 640.413 119.419 640.413 119.522V125.43C640.413 126.55 640.114 127.451 639.517 128.132C638.929 128.804 638.098 129.14 637.025 129.14ZM646.491 129.14C645.325 129.14 644.429 128.818 643.803 128.174C643.187 127.521 642.879 126.531 642.879 125.206V119.522C642.879 119.429 642.907 119.354 642.963 119.298C643.019 119.233 643.094 119.2 643.187 119.2H643.439C643.542 119.2 643.621 119.228 643.677 119.284C643.733 119.34 643.761 119.419 643.761 119.522V125.248C643.761 126.275 643.999 127.04 644.475 127.544C644.951 128.048 645.623 128.3 646.491 128.3C647.35 128.3 648.017 128.048 648.493 127.544C648.969 127.04 649.207 126.275 649.207 125.248V119.522C649.207 119.419 649.235 119.34 649.291 119.284C649.357 119.228 649.436 119.2 649.529 119.2H649.781C649.875 119.2 649.949 119.233 650.005 119.298C650.061 119.354 650.089 119.429 650.089 119.522V125.206C650.089 126.541 649.781 127.53 649.165 128.174C648.549 128.818 647.658 129.14 646.491 129.14ZM655.583 129.14C654.855 129.14 654.22 129.023 653.679 128.79C653.147 128.547 652.736 128.235 652.447 127.852C652.167 127.469 652.018 127.059 651.999 126.62C651.999 126.545 652.027 126.48 652.083 126.424C652.139 126.368 652.209 126.34 652.293 126.34H652.573C652.741 126.34 652.844 126.433 652.881 126.62C652.946 127.068 653.203 127.46 653.651 127.796C654.099 128.132 654.743 128.3 655.583 128.3C656.47 128.3 657.128 128.141 657.557 127.824C657.996 127.497 658.215 127.045 658.215 126.466C658.215 126.111 658.108 125.822 657.893 125.598C657.688 125.365 657.384 125.164 656.983 124.996C656.582 124.819 655.975 124.599 655.163 124.338C654.444 124.105 653.88 123.876 653.469 123.652C653.068 123.428 652.769 123.153 652.573 122.826C652.377 122.499 652.279 122.084 652.279 121.58C652.279 121.104 652.405 120.675 652.657 120.292C652.918 119.909 653.292 119.611 653.777 119.396C654.262 119.172 654.841 119.06 655.513 119.06C656.204 119.06 656.796 119.186 657.291 119.438C657.786 119.681 658.159 119.993 658.411 120.376C658.663 120.749 658.798 121.127 658.817 121.51C658.817 121.585 658.789 121.65 658.733 121.706C658.686 121.762 658.616 121.79 658.523 121.79H658.243C658.178 121.79 658.112 121.771 658.047 121.734C657.982 121.687 657.944 121.613 657.935 121.51C657.879 121.043 657.627 120.661 657.179 120.362C656.74 120.054 656.185 119.9 655.513 119.9C654.794 119.9 654.22 120.04 653.791 120.32C653.371 120.6 653.161 121.02 653.161 121.58C653.161 121.944 653.254 122.247 653.441 122.49C653.637 122.723 653.926 122.929 654.309 123.106C654.692 123.274 655.256 123.479 656.003 123.722C656.768 123.965 657.366 124.198 657.795 124.422C658.224 124.646 658.546 124.917 658.761 125.234C658.985 125.551 659.097 125.962 659.097 126.466C659.097 127.306 658.784 127.964 658.159 128.44C657.534 128.907 656.675 129.14 655.583 129.14ZM663.46 129C663.367 129 663.292 128.972 663.236 128.916C663.18 128.86 663.152 128.785 663.152 128.692V120.04H660.38C660.287 120.04 660.212 120.012 660.156 119.956C660.1 119.9 660.072 119.825 660.072 119.732V119.522C660.072 119.429 660.1 119.354 660.156 119.298C660.212 119.233 660.287 119.2 660.38 119.2H666.792C666.895 119.2 666.974 119.228 667.03 119.284C667.086 119.34 667.114 119.419 667.114 119.522V119.732C667.114 119.825 667.082 119.9 667.016 119.956C666.96 120.012 666.886 120.04 666.792 120.04H664.034V128.692C664.034 128.785 664.002 128.86 663.936 128.916C663.88 128.972 663.806 129 663.712 129H663.46ZM673.464 129C673.352 129 673.263 128.977 673.198 128.93C673.142 128.874 673.1 128.785 673.072 128.664L671.154 119.648L671.126 119.48C671.126 119.405 671.154 119.34 671.21 119.284C671.266 119.228 671.331 119.2 671.406 119.2H671.7C671.877 119.2 671.98 119.27 672.008 119.41L673.646 127.39L675.382 121.692C675.457 121.477 675.601 121.37 675.816 121.37H676.124C676.339 121.37 676.483 121.477 676.558 121.692L678.294 127.39L679.932 119.41C679.96 119.27 680.063 119.2 680.24 119.2H680.534C680.609 119.2 680.674 119.228 680.73 119.284C680.786 119.34 680.814 119.405 680.814 119.48L680.786 119.648L678.868 128.664C678.84 128.785 678.793 128.874 678.728 128.93C678.672 128.977 678.588 129 678.476 129H678.266C678.051 129 677.907 128.888 677.832 128.664L675.97 122.756L674.108 128.664C674.043 128.888 673.898 129 673.674 129H673.464ZM683.111 129C683.018 129 682.943 128.972 682.887 128.916C682.831 128.86 682.803 128.785 682.803 128.692V119.522C682.803 119.429 682.831 119.354 682.887 119.298C682.943 119.233 683.018 119.2 683.111 119.2H688.571C688.674 119.2 688.753 119.228 688.809 119.284C688.865 119.34 688.893 119.419 688.893 119.522V119.732C688.893 119.825 688.861 119.9 688.795 119.956C688.739 120.012 688.665 120.04 688.571 120.04H683.685V123.61H688.263C688.366 123.61 688.445 123.638 688.501 123.694C688.557 123.75 688.585 123.829 688.585 123.932V124.142C688.585 124.235 688.553 124.31 688.487 124.366C688.431 124.422 688.357 124.45 688.263 124.45H683.685V128.16H688.683C688.786 128.16 688.865 128.188 688.921 128.244C688.977 128.3 689.005 128.379 689.005 128.482V128.692C689.005 128.785 688.973 128.86 688.907 128.916C688.851 128.972 688.777 129 688.683 129H683.111ZM691.396 129C691.303 129 691.228 128.972 691.172 128.916C691.116 128.86 691.088 128.785 691.088 128.692V119.508C691.088 119.415 691.116 119.34 691.172 119.284C691.228 119.228 691.303 119.2 691.396 119.2H691.662C691.756 119.2 691.83 119.228 691.886 119.284C691.942 119.34 691.97 119.415 691.97 119.508V128.692C691.97 128.785 691.942 128.86 691.886 128.916C691.83 128.972 691.756 129 691.662 129H691.396ZM697.962 129.14C696.795 129.14 695.89 128.804 695.246 128.132C694.602 127.46 694.261 126.559 694.224 125.43C694.215 125.15 694.21 124.707 694.21 124.1C694.21 123.493 694.215 123.05 694.224 122.77C694.261 121.641 694.602 120.74 695.246 120.068C695.89 119.396 696.795 119.06 697.962 119.06C698.755 119.06 699.423 119.209 699.964 119.508C700.505 119.807 700.907 120.161 701.168 120.572C701.439 120.973 701.583 121.333 701.602 121.65V121.678C701.602 121.753 701.574 121.813 701.518 121.86C701.462 121.907 701.392 121.93 701.308 121.93H701C700.916 121.93 700.855 121.911 700.818 121.874C700.781 121.837 700.743 121.762 700.706 121.65C700.547 121.155 700.239 120.74 699.782 120.404C699.334 120.068 698.727 119.9 697.962 119.9C697.094 119.9 696.408 120.138 695.904 120.614C695.409 121.09 695.143 121.832 695.106 122.84C695.097 123.12 695.092 123.54 695.092 124.1C695.092 124.66 695.097 125.08 695.106 125.36C695.143 126.368 695.409 127.11 695.904 127.586C696.408 128.062 697.094 128.3 697.962 128.3C698.83 128.3 699.53 128.053 700.062 127.558C700.594 127.063 700.86 126.331 700.86 125.36V124.646H698.424C698.331 124.646 698.256 124.618 698.2 124.562C698.144 124.497 698.116 124.417 698.116 124.324V124.128C698.116 124.035 698.144 123.96 698.2 123.904C698.256 123.839 698.331 123.806 698.424 123.806H701.42C701.523 123.806 701.602 123.834 701.658 123.89C701.714 123.946 701.742 124.025 701.742 124.128V125.36C701.742 126.107 701.593 126.765 701.294 127.334C700.995 127.903 700.561 128.347 699.992 128.664C699.423 128.981 698.746 129.14 697.962 129.14ZM704.207 129C704.114 129 704.039 128.972 703.983 128.916C703.927 128.86 703.899 128.785 703.899 128.692V119.522C703.899 119.429 703.927 119.354 703.983 119.298C704.039 119.233 704.114 119.2 704.207 119.2H704.459C704.562 119.2 704.641 119.228 704.697 119.284C704.753 119.34 704.781 119.419 704.781 119.522V123.61H710.185V119.522C710.185 119.429 710.213 119.354 710.269 119.298C710.325 119.233 710.4 119.2 710.493 119.2H710.745C710.848 119.2 710.927 119.228 710.983 119.284C711.039 119.34 711.067 119.419 711.067 119.522V128.692C711.067 128.785 711.034 128.86 710.969 128.916C710.913 128.972 710.838 129 710.745 129H710.493C710.4 129 710.325 128.972 710.269 128.916C710.213 128.86 710.185 128.785 710.185 128.692V124.45H704.781V128.692C704.781 128.785 704.748 128.86 704.683 128.916C704.627 128.972 704.552 129 704.459 129H704.207ZM716.152 129C716.058 129 715.984 128.972 715.928 128.916C715.872 128.86 715.844 128.785 715.844 128.692V120.04H713.072C712.978 120.04 712.904 120.012 712.848 119.956C712.792 119.9 712.764 119.825 712.764 119.732V119.522C712.764 119.429 712.792 119.354 712.848 119.298C712.904 119.233 712.978 119.2 713.072 119.2H719.484C719.586 119.2 719.666 119.228 719.722 119.284C719.778 119.34 719.806 119.419 719.806 119.522V119.732C719.806 119.825 719.773 119.9 719.708 119.956C719.652 120.012 719.577 120.04 719.484 120.04H716.726V128.692C716.726 128.785 716.693 128.86 716.628 128.916C716.572 128.972 716.497 129 716.404 129H716.152ZM724.366 129.14C723.638 129.14 723.004 129.023 722.462 128.79C721.93 128.547 721.52 128.235 721.23 127.852C720.95 127.469 720.801 127.059 720.782 126.62C720.782 126.545 720.81 126.48 720.866 126.424C720.922 126.368 720.992 126.34 721.076 126.34H721.356C721.524 126.34 721.627 126.433 721.664 126.62C721.73 127.068 721.986 127.46 722.434 127.796C722.882 128.132 723.526 128.3 724.366 128.3C725.253 128.3 725.911 128.141 726.34 127.824C726.779 127.497 726.998 127.045 726.998 126.466C726.998 126.111 726.891 125.822 726.676 125.598C726.471 125.365 726.168 125.164 725.766 124.996C725.365 124.819 724.758 124.599 723.946 124.338C723.228 124.105 722.663 123.876 722.252 123.652C721.851 123.428 721.552 123.153 721.356 122.826C721.16 122.499 721.062 122.084 721.062 121.58C721.062 121.104 721.188 120.675 721.44 120.292C721.702 119.909 722.075 119.611 722.56 119.396C723.046 119.172 723.624 119.06 724.296 119.06C724.987 119.06 725.58 119.186 726.074 119.438C726.569 119.681 726.942 119.993 727.194 120.376C727.446 120.749 727.582 121.127 727.6 121.51C727.6 121.585 727.572 121.65 727.516 121.706C727.47 121.762 727.4 121.79 727.306 121.79H727.026C726.961 121.79 726.896 121.771 726.83 121.734C726.765 121.687 726.728 121.613 726.718 121.51C726.662 121.043 726.41 120.661 725.962 120.362C725.524 120.054 724.968 119.9 724.296 119.9C723.578 119.9 723.004 120.04 722.574 120.32C722.154 120.6 721.944 121.02 721.944 121.58C721.944 121.944 722.038 122.247 722.224 122.49C722.42 122.723 722.71 122.929 723.092 123.106C723.475 123.274 724.04 123.479 724.786 123.722C725.552 123.965 726.149 124.198 726.578 124.422C727.008 124.646 727.33 124.917 727.544 125.234C727.768 125.551 727.88 125.962 727.88 126.466C727.88 127.306 727.568 127.964 726.942 128.44C726.317 128.907 725.458 129.14 724.366 129.14Z" fill="white"/>
</g>
<g filter="url(#filter11_d_6838_12028)">
<path d="M240.921 129C240.828 129 240.753 128.972 240.697 128.916C240.641 128.86 240.613 128.785 240.613 128.692V119.508C240.613 119.415 240.641 119.34 240.697 119.284C240.753 119.228 240.828 119.2 240.921 119.2H241.187C241.28 119.2 241.355 119.228 241.411 119.284C241.467 119.34 241.495 119.415 241.495 119.508V128.692C241.495 128.785 241.467 128.86 241.411 128.916C241.355 128.972 241.28 129 241.187 129H240.921ZM244.435 129C244.341 129 244.267 128.972 244.211 128.916C244.155 128.86 244.127 128.785 244.127 128.692V119.522C244.127 119.429 244.155 119.354 244.211 119.298C244.267 119.233 244.341 119.2 244.435 119.2H244.729C244.85 119.2 244.948 119.256 245.023 119.368L250.189 127.264V119.522C250.189 119.429 250.217 119.354 250.273 119.298C250.329 119.233 250.403 119.2 250.497 119.2H250.749C250.851 119.2 250.931 119.228 250.987 119.284C251.043 119.34 251.071 119.419 251.071 119.522V128.678C251.071 128.771 251.043 128.851 250.987 128.916C250.931 128.972 250.856 129 250.763 129H250.455C250.333 129 250.235 128.944 250.161 128.832L245.009 120.964V128.692C245.009 128.785 244.976 128.86 244.911 128.916C244.855 128.972 244.78 129 244.687 129H244.435ZM256.147 129C256.054 129 255.979 128.972 255.923 128.916C255.867 128.86 255.839 128.785 255.839 128.692V120.04H253.067C252.974 120.04 252.899 120.012 252.843 119.956C252.787 119.9 252.759 119.825 252.759 119.732V119.522C252.759 119.429 252.787 119.354 252.843 119.298C252.899 119.233 252.974 119.2 253.067 119.2H259.479C259.582 119.2 259.661 119.228 259.717 119.284C259.773 119.34 259.801 119.419 259.801 119.522V119.732C259.801 119.825 259.768 119.9 259.703 119.956C259.647 120.012 259.572 120.04 259.479 120.04H256.721V128.692C256.721 128.785 256.688 128.86 256.623 128.916C256.567 128.972 256.492 129 256.399 129H256.147ZM261.798 129C261.704 129 261.63 128.972 261.574 128.916C261.518 128.86 261.49 128.785 261.49 128.692V119.522C261.49 119.429 261.518 119.354 261.574 119.298C261.63 119.233 261.704 119.2 261.798 119.2H267.258C267.36 119.2 267.44 119.228 267.496 119.284C267.552 119.34 267.58 119.419 267.58 119.522V119.732C267.58 119.825 267.547 119.9 267.482 119.956C267.426 120.012 267.351 120.04 267.258 120.04H262.372V123.61H266.95C267.052 123.61 267.132 123.638 267.188 123.694C267.244 123.75 267.272 123.829 267.272 123.932V124.142C267.272 124.235 267.239 124.31 267.174 124.366C267.118 124.422 267.043 124.45 266.95 124.45H262.372V128.16H267.37C267.472 128.16 267.552 128.188 267.608 128.244C267.664 128.3 267.692 128.379 267.692 128.482V128.692C267.692 128.785 267.659 128.86 267.594 128.916C267.538 128.972 267.463 129 267.37 129H261.798ZM270.083 129C269.99 129 269.915 128.972 269.859 128.916C269.803 128.86 269.775 128.785 269.775 128.692V119.508C269.775 119.415 269.803 119.34 269.859 119.284C269.915 119.228 269.99 119.2 270.083 119.2H270.349C270.442 119.2 270.517 119.228 270.573 119.284C270.629 119.34 270.657 119.415 270.657 119.508V128.16H275.487C275.59 128.16 275.669 128.188 275.725 128.244C275.781 128.3 275.809 128.379 275.809 128.482V128.692C275.809 128.785 275.776 128.86 275.711 128.916C275.655 128.972 275.58 129 275.487 129H270.083ZM280.979 129C280.886 129 280.811 128.972 280.755 128.916C280.699 128.86 280.671 128.785 280.671 128.692V119.508C280.671 119.415 280.699 119.34 280.755 119.284C280.811 119.228 280.886 119.2 280.979 119.2H281.245C281.339 119.2 281.413 119.228 281.469 119.284C281.525 119.34 281.553 119.415 281.553 119.508V128.692C281.553 128.785 281.525 128.86 281.469 128.916C281.413 128.972 281.339 129 281.245 129H280.979ZM284.493 129C284.4 129 284.325 128.972 284.269 128.916C284.213 128.86 284.185 128.785 284.185 128.692V119.522C284.185 119.429 284.213 119.354 284.269 119.298C284.325 119.233 284.4 119.2 284.493 119.2H284.787C284.908 119.2 285.006 119.256 285.081 119.368L290.247 127.264V119.522C290.247 119.429 290.275 119.354 290.331 119.298C290.387 119.233 290.462 119.2 290.555 119.2H290.807C290.91 119.2 290.989 119.228 291.045 119.284C291.101 119.34 291.129 119.419 291.129 119.522V128.678C291.129 128.771 291.101 128.851 291.045 128.916C290.989 128.972 290.914 129 290.821 129H290.513C290.392 129 290.294 128.944 290.219 128.832L285.067 120.964V128.692C285.067 128.785 285.034 128.86 284.969 128.916C284.913 128.972 284.838 129 284.745 129H284.493ZM294.063 129C293.97 129 293.895 128.972 293.839 128.916C293.783 128.86 293.755 128.785 293.755 128.692V119.522C293.755 119.429 293.783 119.354 293.839 119.298C293.895 119.233 293.97 119.2 294.063 119.2H297.465C298.464 119.2 299.248 119.452 299.817 119.956C300.396 120.451 300.685 121.165 300.685 122.098C300.685 123.031 300.396 123.75 299.817 124.254C299.248 124.749 298.464 124.996 297.465 124.996H294.637V128.692C294.637 128.785 294.605 128.86 294.539 128.916C294.483 128.972 294.409 129 294.315 129H294.063ZM297.395 124.156C298.198 124.156 298.8 123.983 299.201 123.638C299.603 123.283 299.803 122.77 299.803 122.098C299.803 121.426 299.603 120.917 299.201 120.572C298.8 120.217 298.198 120.04 297.395 120.04H294.637V124.156H297.395ZM306.074 129.14C304.908 129.14 304.012 128.818 303.386 128.174C302.77 127.521 302.462 126.531 302.462 125.206V119.522C302.462 119.429 302.49 119.354 302.546 119.298C302.602 119.233 302.677 119.2 302.77 119.2H303.022C303.125 119.2 303.204 119.228 303.26 119.284C303.316 119.34 303.344 119.419 303.344 119.522V125.248C303.344 126.275 303.582 127.04 304.058 127.544C304.534 128.048 305.206 128.3 306.074 128.3C306.933 128.3 307.6 128.048 308.076 127.544C308.552 127.04 308.79 126.275 308.79 125.248V119.522C308.79 119.419 308.818 119.34 308.874 119.284C308.94 119.228 309.019 119.2 309.112 119.2H309.364C309.458 119.2 309.532 119.233 309.588 119.298C309.644 119.354 309.672 119.429 309.672 119.522V125.206C309.672 126.541 309.364 127.53 308.748 128.174C308.132 128.818 307.241 129.14 306.074 129.14ZM314.676 129C314.583 129 314.508 128.972 314.452 128.916C314.396 128.86 314.368 128.785 314.368 128.692V120.04H311.596C311.503 120.04 311.428 120.012 311.372 119.956C311.316 119.9 311.288 119.825 311.288 119.732V119.522C311.288 119.429 311.316 119.354 311.372 119.298C311.428 119.233 311.503 119.2 311.596 119.2H318.008C318.111 119.2 318.19 119.228 318.246 119.284C318.302 119.34 318.33 119.419 318.33 119.522V119.732C318.33 119.825 318.297 119.9 318.232 119.956C318.176 120.012 318.101 120.04 318.008 120.04H315.25V128.692C315.25 128.785 315.217 128.86 315.152 128.916C315.096 128.972 315.021 129 314.928 129H314.676Z" fill="white"/>
</g>
<path d="M458.52 130.4C458.426 130.4 458.352 130.372 458.296 130.316C458.24 130.26 458.212 130.185 458.212 130.092V129.112C457.577 129.065 457.026 128.921 456.56 128.678C456.093 128.435 455.734 128.137 455.482 127.782C455.239 127.418 455.108 127.031 455.09 126.62C455.09 126.545 455.118 126.48 455.174 126.424C455.23 126.368 455.3 126.34 455.384 126.34H455.664C455.832 126.34 455.934 126.433 455.972 126.62C456.037 127.068 456.294 127.46 456.742 127.796C457.19 128.132 457.834 128.3 458.674 128.3C459.56 128.3 460.218 128.141 460.648 127.824C461.086 127.497 461.306 127.045 461.306 126.466C461.306 126.111 461.198 125.822 460.984 125.598C460.778 125.365 460.475 125.164 460.074 124.996C459.672 124.819 459.066 124.599 458.254 124.338C457.535 124.105 456.97 123.876 456.56 123.652C456.158 123.428 455.86 123.153 455.664 122.826C455.468 122.499 455.37 122.084 455.37 121.58C455.37 120.899 455.617 120.329 456.112 119.872C456.616 119.405 457.316 119.139 458.212 119.074V118.108C458.212 118.015 458.24 117.94 458.296 117.884C458.352 117.828 458.426 117.8 458.52 117.8H458.786C458.879 117.8 458.954 117.828 459.01 117.884C459.066 117.94 459.094 118.015 459.094 118.108V119.088C459.682 119.144 460.186 119.298 460.606 119.55C461.026 119.802 461.343 120.105 461.558 120.46C461.772 120.805 461.889 121.155 461.908 121.51C461.908 121.585 461.88 121.65 461.824 121.706C461.777 121.762 461.707 121.79 461.614 121.79H461.334C461.268 121.79 461.203 121.771 461.138 121.734C461.072 121.687 461.035 121.613 461.026 121.51C460.97 121.043 460.718 120.661 460.27 120.362C459.831 120.054 459.276 119.9 458.604 119.9C457.885 119.9 457.311 120.04 456.882 120.32C456.462 120.6 456.252 121.02 456.252 121.58C456.252 121.944 456.345 122.247 456.532 122.49C456.728 122.723 457.017 122.929 457.4 123.106C457.782 123.274 458.347 123.479 459.094 123.722C459.859 123.965 460.456 124.198 460.886 124.422C461.315 124.646 461.637 124.917 461.852 125.234C462.076 125.551 462.188 125.962 462.188 126.466C462.188 127.25 461.912 127.875 461.362 128.342C460.82 128.799 460.064 129.061 459.094 129.126V130.092C459.094 130.185 459.066 130.26 459.01 130.316C458.954 130.372 458.879 130.4 458.786 130.4H458.52ZM464.437 129C464.344 129 464.269 128.972 464.213 128.916C464.157 128.86 464.129 128.785 464.129 128.692V119.522C464.129 119.429 464.157 119.354 464.213 119.298C464.269 119.233 464.344 119.2 464.437 119.2H464.689C464.792 119.2 464.871 119.228 464.927 119.284C464.983 119.34 465.011 119.419 465.011 119.522V123.162L469.253 119.41C469.328 119.354 469.403 119.307 469.477 119.27C469.561 119.223 469.664 119.2 469.785 119.2H470.009C470.084 119.2 470.149 119.228 470.205 119.284C470.261 119.34 470.289 119.405 470.289 119.48C470.289 119.555 470.266 119.615 470.219 119.662L465.473 123.89L470.513 128.524C470.569 128.58 470.597 128.645 470.597 128.72C470.597 128.795 470.569 128.86 470.513 128.916C470.457 128.972 470.392 129 470.317 129H470.079C469.958 129 469.855 128.981 469.771 128.944C469.697 128.897 469.622 128.846 469.547 128.79L465.011 124.646V128.692C465.011 128.785 464.979 128.86 464.913 128.916C464.857 128.972 464.783 129 464.689 129H464.437ZM471.482 129C471.408 129 471.342 128.972 471.286 128.916C471.23 128.86 471.202 128.795 471.202 128.72L471.23 128.566L474.772 119.48C474.847 119.293 474.982 119.2 475.178 119.2H475.654C475.85 119.2 475.986 119.293 476.06 119.48L479.602 128.566L479.63 128.72C479.63 128.795 479.602 128.86 479.546 128.916C479.49 128.972 479.425 129 479.35 129H479.07C478.986 129 478.916 128.977 478.86 128.93C478.814 128.883 478.781 128.837 478.762 128.79L477.894 126.55H472.938L472.07 128.79C472.052 128.837 472.014 128.883 471.958 128.93C471.912 128.977 471.846 129 471.762 129H471.482ZM477.558 125.71L475.416 120.194L473.274 125.71H477.558ZM484.442 129.14C483.228 129.14 482.318 128.799 481.712 128.118C481.105 127.427 480.778 126.503 480.732 125.346C480.722 125.094 480.718 124.683 480.718 124.114C480.718 123.535 480.722 123.115 480.732 122.854C480.778 121.697 481.105 120.777 481.712 120.096C482.318 119.405 483.228 119.06 484.442 119.06C485.272 119.06 485.963 119.214 486.514 119.522C487.064 119.821 487.47 120.203 487.732 120.67C488.002 121.127 488.152 121.599 488.18 122.084V122.112C488.18 122.187 488.152 122.247 488.096 122.294C488.04 122.341 487.97 122.364 487.886 122.364H487.606C487.438 122.364 487.335 122.266 487.298 122.07C487.12 121.277 486.798 120.717 486.332 120.39C485.865 120.063 485.235 119.9 484.442 119.9C483.564 119.9 482.883 120.147 482.398 120.642C481.912 121.137 481.651 121.897 481.614 122.924C481.604 123.176 481.6 123.563 481.6 124.086C481.6 124.609 481.604 125.005 481.614 125.276C481.651 126.303 481.912 127.063 482.398 127.558C482.883 128.053 483.564 128.3 484.442 128.3C485.235 128.3 485.865 128.137 486.332 127.81C486.798 127.483 487.12 126.923 487.298 126.13C487.335 125.934 487.438 125.836 487.606 125.836H487.886C487.97 125.836 488.04 125.864 488.096 125.92C488.161 125.967 488.189 126.032 488.18 126.116C488.152 126.601 488.002 127.077 487.732 127.544C487.47 128.001 487.064 128.384 486.514 128.692C485.963 128.991 485.272 129.14 484.442 129.14ZM492.965 129C492.871 129 492.797 128.972 492.741 128.916C492.685 128.86 492.657 128.785 492.657 128.692V125.262L489.241 119.662C489.203 119.587 489.185 119.527 489.185 119.48C489.185 119.405 489.213 119.34 489.269 119.284C489.325 119.228 489.39 119.2 489.465 119.2H489.745C489.875 119.2 489.983 119.27 490.067 119.41L493.105 124.352L496.143 119.41C496.227 119.27 496.334 119.2 496.465 119.2H496.745C496.819 119.2 496.885 119.228 496.941 119.284C496.997 119.34 497.025 119.405 497.025 119.48C497.025 119.527 497.006 119.587 496.969 119.662L493.553 125.262V128.692C493.553 128.785 493.52 128.86 493.455 128.916C493.399 128.972 493.324 129 493.231 129H492.965Z" fill="white"/>
<g filter="url(#filter12_d_6838_12028)">
<path d="M107.429 58H87.7857C86.8388 58.0009 85.9309 58.3775 85.2614 59.0471C84.5918 59.7167 84.2152 60.6245 84.2143 61.5714V72.2857H64.5714C63.6245 72.2867 62.7167 72.6632 62.0471 73.3328C61.3775 74.0024 61.0009 74.9102 61 75.8571V104.429C61.0009 105.375 61.3775 106.283 62.0471 106.953C62.7167 107.622 63.6245 107.999 64.5714 108H84.2143C85.1612 107.999 86.0691 107.622 86.7386 106.953C87.4082 106.283 87.7848 105.375 87.7857 104.429V93.7143H107.429C108.375 93.7129 109.283 93.3361 109.952 92.6667C110.622 91.9972 110.999 91.0896 111 90.1429V61.5714C110.999 60.6245 110.622 59.7167 109.953 59.0471C109.283 58.3775 108.375 58.0009 107.429 58ZM107.429 61.5714V68.7143H87.7857V61.5714H107.429ZM84.2143 93.7143H64.5714V86.5714H84.2143V93.7143ZM87.7857 72.2857H107.429L107.43 79.4286H87.7857V72.2857ZM84.2143 75.8571V83H64.5714V75.8571H84.2143ZM64.5714 104.429V97.2857H84.2161V104.429H64.5714ZM87.7857 90.1429V83H107.432V90.1429H87.7857Z" fill="url(#paint37_linear_6838_12028)"/>
</g>
<g clip-path="url(#clip10_6838_12028)">
<g filter="url(#filter13_d_6838_12028)">
<path d="M281 69C278.9 69 277.375 69.8505 276.389 71.055C275.644 71.9833 275.177 73.1035 275.042 74.286C271.947 74.6025 270.5 76.983 270.5 78.75C270.5 79.6095 270.713 80.748 271.529 81.681C272.363 82.635 273.719 83.25 275.75 83.25H276.717C276.484 82.4663 276.437 81.6388 276.579 80.8336C276.722 80.0284 277.051 79.2676 277.54 78.612C278.028 77.9564 278.664 77.424 279.395 77.0573C280.126 76.6906 280.932 76.4998 281.75 76.5H287.75C289.186 76.5 290.486 77.076 291.434 78.009C291.236 76.9335 290.617 76.053 289.802 75.423C288.975 74.8001 287.996 74.4101 286.967 74.2935C286.797 72.5535 286.01 71.2605 284.943 70.389C283.761 69.42 282.275 69 281 69ZM281.75 78C280.755 78 279.802 78.3951 279.098 79.0983C278.395 79.8016 278 80.7554 278 81.75C278 82.7446 278.395 83.6984 279.098 84.4017C279.802 85.1049 280.755 85.5 281.75 85.5H282.5C282.699 85.5 282.89 85.421 283.03 85.2803C283.171 85.1397 283.25 84.9489 283.25 84.75C283.25 84.5511 283.171 84.3603 283.03 84.2197C282.89 84.079 282.699 84 282.5 84H281.75C281.153 84 280.581 83.7629 280.159 83.341C279.737 82.919 279.5 82.3467 279.5 81.75C279.5 81.1533 279.737 80.581 280.159 80.159C280.581 79.7371 281.153 79.5 281.75 79.5H282.5C282.699 79.5 282.89 79.421 283.03 79.2803C283.171 79.1397 283.25 78.9489 283.25 78.75C283.25 78.5511 283.171 78.3603 283.03 78.2197C282.89 78.079 282.699 78 282.5 78H281.75ZM287 78C286.801 78 286.61 78.079 286.47 78.2197C286.329 78.3603 286.25 78.5511 286.25 78.75C286.25 78.9489 286.329 79.1397 286.47 79.2803C286.61 79.421 286.801 79.5 287 79.5H287.75C288.347 79.5 288.919 79.7371 289.341 80.159C289.763 80.581 290 81.1533 290 81.75C290 82.3467 289.763 82.919 289.341 83.341C288.919 83.7629 288.347 84 287.75 84H287C286.801 84 286.61 84.079 286.47 84.2197C286.329 84.3603 286.25 84.5511 286.25 84.75C286.25 84.9489 286.329 85.1397 286.47 85.2803C286.61 85.421 286.801 85.5 287 85.5H287.75C288.745 85.5 289.698 85.1049 290.402 84.4017C291.105 83.6984 291.5 82.7446 291.5 81.75C291.5 80.7554 291.105 79.8016 290.402 79.0983C289.698 78.3951 288.745 78 287.75 78H287ZM281.75 81C281.551 81 281.36 81.079 281.22 81.2197C281.079 81.3603 281 81.5511 281 81.75C281 81.9489 281.079 82.1397 281.22 82.2803C281.36 82.421 281.551 82.5 281.75 82.5H287.75C287.949 82.5 288.14 82.421 288.28 82.2803C288.421 82.1397 288.5 81.9489 288.5 81.75C288.5 81.5511 288.421 81.3603 288.28 81.2197C288.14 81.079 287.949 81 287.75 81H281.75Z" fill="url(#paint38_linear_6838_12028)"/>
</g>
</g>
<path fill-rule="evenodd" clip-rule="evenodd" d="M674.357 76.0249H676.037C676.213 76.0249 676.382 76.0947 676.506 76.219C676.63 76.3432 676.7 76.5117 676.7 76.6874C676.7 76.8631 676.63 77.0316 676.506 77.1559C676.382 77.2801 676.213 77.3499 676.037 77.3499H666.762C666.587 77.3499 666.418 77.2801 666.294 77.1559C666.17 77.0316 666.1 76.8631 666.1 76.6874C666.1 76.5117 666.17 76.3432 666.294 76.219C666.418 76.0947 666.587 76.0249 666.762 76.0249H667.765C667.578 75.8169 667.461 75.5548 667.432 75.2763C667.402 74.9978 667.462 74.7171 667.602 74.4747L670.915 68.7374C671.091 68.4331 671.38 68.211 671.719 68.1201C672.059 68.0292 672.42 68.0768 672.725 68.2525L676.167 70.24C676.471 70.4157 676.694 70.7051 676.784 71.0445C676.875 71.3839 676.828 71.7456 676.652 72.0499L674.357 76.0249ZM675.505 71.3874L672.062 69.3999L668.75 75.1372L670.287 76.0249H672.828L675.505 71.3874ZM676.647 74.7L677.411 73.375C677.609 73.3824 677.802 73.4338 677.977 73.5255C678.152 73.6172 678.304 73.7469 678.422 73.905L681.735 78.3212C681.907 78.5505 682 78.8295 682 79.1162V85.3C682 85.6514 681.86 85.9884 681.612 86.2369C681.363 86.4854 681.026 86.625 680.675 86.625H662.125C661.773 86.625 661.436 86.4854 661.188 86.2369C660.939 85.9884 660.8 85.6514 660.8 85.3V79.1162C660.8 78.8295 660.893 78.5505 661.065 78.3212L664.377 73.905C664.501 73.7404 664.661 73.6068 664.845 73.5148C665.029 73.4229 665.232 73.375 665.437 73.375H666.715L666.079 74.4747C666.036 74.5476 666.002 74.6231 665.975 74.7H665.437L662.456 78.675H680.344L677.362 74.7H676.647Z" fill="url(#paint39_linear_6838_12028)"/>
<defs>
<filter id="filter0_d_6838_12028" x="0.5" y="0.5" width="172" height="172" filterUnits="userSpaceOnUse" color-interpolation-filters="sRGB">
<feFlood flood-opacity="0" result="BackgroundImageFix"/>
<feColorMatrix in="SourceAlpha" type="matrix" values="0 0 0 0 0 0 0 0 0 0 0 0 0 0 0 0 0 0 127 0" result="hardAlpha"/>
<feOffset dy="4"/>
<feGaussianBlur stdDeviation="2"/>
<feComposite in2="hardAlpha" operator="out"/>
<feColorMatrix type="matrix" values="0 0 0 0 0 0 0 0 0 0 0 0 0 0 0 0 0 0 0.25 0"/>
<feBlend mode="normal" in2="BackgroundImageFix" result="effect1_dropShadow_6838_12028"/>
<feBlend mode="normal" in="SourceGraphic" in2="effect1_dropShadow_6838_12028" result="shape"/>
</filter>
<filter id="filter1_d_6838_12028" x="780.5" y="0.5" width="172" height="172" filterUnits="userSpaceOnUse" color-interpolation-filters="sRGB">
<feFlood flood-opacity="0" result="BackgroundImageFix"/>
<feColorMatrix in="SourceAlpha" type="matrix" values="0 0 0 0 0 0 0 0 0 0 0 0 0 0 0 0 0 0 127 0" result="hardAlpha"/>
<feOffset dy="4"/>
<feGaussianBlur stdDeviation="2"/>
<feComposite in2="hardAlpha" operator="out"/>
<feColorMatrix type="matrix" values="0 0 0 0 0 0 0 0 0 0 0 0 0 0 0 0 0 0 0.25 0"/>
<feBlend mode="normal" in2="BackgroundImageFix" result="effect1_dropShadow_6838_12028"/>
<feBlend mode="normal" in="SourceGraphic" in2="effect1_dropShadow_6838_12028" result="shape"/>
</filter>
<filter id="filter2_d_6838_12028" x="390.5" y="0.5" width="172" height="172" filterUnits="userSpaceOnUse" color-interpolation-filters="sRGB">
<feFlood flood-opacity="0" result="BackgroundImageFix"/>
<feColorMatrix in="SourceAlpha" type="matrix" values="0 0 0 0 0 0 0 0 0 0 0 0 0 0 0 0 0 0 127 0" result="hardAlpha"/>
<feOffset dy="4"/>
<feGaussianBlur stdDeviation="2"/>
<feComposite in2="hardAlpha" operator="out"/>
<feColorMatrix type="matrix" values="0 0 0 0 0 0 0 0 0 0 0 0 0 0 0 0 0 0 0.25 0"/>
<feBlend mode="normal" in2="BackgroundImageFix" result="effect1_dropShadow_6838_12028"/>
<feBlend mode="normal" in="SourceGraphic" in2="effect1_dropShadow_6838_12028" result="shape"/>
</filter>
<filter id="filter3_f_6838_12028" x="423.529" y="18" width="106.745" height="103.737" filterUnits="userSpaceOnUse" color-interpolation-filters="sRGB">
<feFlood flood-opacity="0" result="BackgroundImageFix"/>
<feBlend mode="normal" in="SourceGraphic" in2="BackgroundImageFix" result="shape"/>
<feGaussianBlur stdDeviation="10" result="effect1_foregroundBlur_6838_12028"/>
</filter>
<filter id="filter4_d_6838_12028" x="437" y="38" width="78" height="71" filterUnits="userSpaceOnUse" color-interpolation-filters="sRGB">
<feFlood flood-opacity="0" result="BackgroundImageFix"/>
<feColorMatrix in="SourceAlpha" type="matrix" values="0 0 0 0 0 0 0 0 0 0 0 0 0 0 0 0 0 0 127 0" result="hardAlpha"/>
<feOffset dy="4"/>
<feGaussianBlur stdDeviation="2"/>
<feComposite in2="hardAlpha" operator="out"/>
<feColorMatrix type="matrix" values="0 0 0 0 0 0 0 0 0 0 0 0 0 0 0 0 0 0 0.25 0"/>
<feBlend mode="normal" in2="BackgroundImageFix" result="effect1_dropShadow_6838_12028"/>
<feBlend mode="normal" in="SourceGraphic" in2="effect1_dropShadow_6838_12028" result="shape"/>
</filter>
<filter id="filter5_d_6838_12028" x="185" y="74.318" width="193.5" height="15.364" filterUnits="userSpaceOnUse" color-interpolation-filters="sRGB">
<feFlood flood-opacity="0" result="BackgroundImageFix"/>
<feColorMatrix in="SourceAlpha" type="matrix" values="0 0 0 0 0 0 0 0 0 0 0 0 0 0 0 0 0 0 127 0" result="hardAlpha"/>
<feOffset dy="4"/>
<feGaussianBlur stdDeviation="2"/>
<feComposite in2="hardAlpha" operator="out"/>
<feColorMatrix type="matrix" values="0 0 0 0 0 0 0 0 0 0 0 0 0 0 0 0 0 0 0.25 0"/>
<feBlend mode="normal" in2="BackgroundImageFix" result="effect1_dropShadow_6838_12028"/>
<feBlend mode="normal" in="SourceGraphic" in2="effect1_dropShadow_6838_12028" result="shape"/>
</filter>
<filter id="filter6_d_6838_12028" x="575" y="74.318" width="193.5" height="15.364" filterUnits="userSpaceOnUse" color-interpolation-filters="sRGB">
<feFlood flood-opacity="0" result="BackgroundImageFix"/>
<feColorMatrix in="SourceAlpha" type="matrix" values="0 0 0 0 0 0 0 0 0 0 0 0 0 0 0 0 0 0 127 0" result="hardAlpha"/>
<feOffset dy="4"/>
<feGaussianBlur stdDeviation="2"/>
<feComposite in2="hardAlpha" operator="out"/>
<feColorMatrix type="matrix" values="0 0 0 0 0 0 0 0 0 0 0 0 0 0 0 0 0 0 0.25 0"/>
<feBlend mode="normal" in2="BackgroundImageFix" result="effect1_dropShadow_6838_12028"/>
<feBlend mode="normal" in="SourceGraphic" in2="effect1_dropShadow_6838_12028" result="shape"/>
</filter>
<filter id="filter7_d_6838_12028" x="253" y="53" width="57" height="57" filterUnits="userSpaceOnUse" color-interpolation-filters="sRGB">
<feFlood flood-opacity="0" result="BackgroundImageFix"/>
<feColorMatrix in="SourceAlpha" type="matrix" values="0 0 0 0 0 0 0 0 0 0 0 0 0 0 0 0 0 0 127 0" result="hardAlpha"/>
<feOffset dy="4"/>
<feGaussianBlur stdDeviation="2"/>
<feComposite in2="hardAlpha" operator="out"/>
<feColorMatrix type="matrix" values="0 0 0 0 0 0 0 0 0 0 0 0 0 0 0 0 0 0 0.25 0"/>
<feBlend mode="normal" in2="BackgroundImageFix" result="effect1_dropShadow_6838_12028"/>
<feBlend mode="normal" in="SourceGraphic" in2="effect1_dropShadow_6838_12028" result="shape"/>
</filter>
<filter id="filter8_d_6838_12028" x="254" y="139" width="54" height="22.2759" filterUnits="userSpaceOnUse" color-interpolation-filters="sRGB">
<feFlood flood-opacity="0" result="BackgroundImageFix"/>
<feColorMatrix in="SourceAlpha" type="matrix" values="0 0 0 0 0 0 0 0 0 0 0 0 0 0 0 0 0 0 127 0" result="hardAlpha"/>
<feOffset dy="4"/>
<feGaussianBlur stdDeviation="2"/>
<feComposite in2="hardAlpha" operator="out"/>
<feColorMatrix type="matrix" values="0 0 0 0 0 0 0 0 0 0 0 0 0 0 0 0 0 0 0.25 0"/>
<feBlend mode="normal" in2="BackgroundImageFix" result="effect1_dropShadow_6838_12028"/>
<feBlend mode="normal" in="SourceGraphic" in2="effect1_dropShadow_6838_12028" result="shape"/>
</filter>
<filter id="filter9_d_6838_12028" x="643" y="53" width="57" height="57" filterUnits="userSpaceOnUse" color-interpolation-filters="sRGB">
<feFlood flood-opacity="0" result="BackgroundImageFix"/>
<feColorMatrix in="SourceAlpha" type="matrix" values="0 0 0 0 0 0 0 0 0 0 0 0 0 0 0 0 0 0 127 0" result="hardAlpha"/>
<feOffset dy="4"/>
<feGaussianBlur stdDeviation="2"/>
<feComposite in2="hardAlpha" operator="out"/>
<feColorMatrix type="matrix" values="0 0 0 0 0 0 0 0 0 0 0 0 0 0 0 0 0 0 0.25 0"/>
<feBlend mode="normal" in2="BackgroundImageFix" result="effect1_dropShadow_6838_12028"/>
<feBlend mode="normal" in="SourceGraphic" in2="effect1_dropShadow_6838_12028" result="shape"/>
</filter>
<filter id="filter10_d_6838_12028" x="610.749" y="119.06" width="121.131" height="18.08" filterUnits="userSpaceOnUse" color-interpolation-filters="sRGB">
<feFlood flood-opacity="0" result="BackgroundImageFix"/>
<feColorMatrix in="SourceAlpha" type="matrix" values="0 0 0 0 0 0 0 0 0 0 0 0 0 0 0 0 0 0 127 0" result="hardAlpha"/>
<feOffset dy="4"/>
<feGaussianBlur stdDeviation="2"/>
<feComposite in2="hardAlpha" operator="out"/>
<feColorMatrix type="matrix" values="0 0 0 0 0 0 0 0 0 0 0 0 0 0 0 0 0 0 0.25 0"/>
<feBlend mode="normal" in2="BackgroundImageFix" result="effect1_dropShadow_6838_12028"/>
<feBlend mode="normal" in="SourceGraphic" in2="effect1_dropShadow_6838_12028" result="shape"/>
</filter>
<filter id="filter11_d_6838_12028" x="236.613" y="119.2" width="85.7168" height="17.9401" filterUnits="userSpaceOnUse" color-interpolation-filters="sRGB">
<feFlood flood-opacity="0" result="BackgroundImageFix"/>
<feColorMatrix in="SourceAlpha" type="matrix" values="0 0 0 0 0 0 0 0 0 0 0 0 0 0 0 0 0 0 127 0" result="hardAlpha"/>
<feOffset dy="4"/>
<feGaussianBlur stdDeviation="2"/>
<feComposite in2="hardAlpha" operator="out"/>
<feColorMatrix type="matrix" values="0 0 0 0 0 0 0 0 0 0 0 0 0 0 0 0 0 0 0.25 0"/>
<feBlend mode="normal" in2="BackgroundImageFix" result="effect1_dropShadow_6838_12028"/>
<feBlend mode="normal" in="SourceGraphic" in2="effect1_dropShadow_6838_12028" result="shape"/>
</filter>
<filter id="filter12_d_6838_12028" x="57" y="58" width="58" height="58" filterUnits="userSpaceOnUse" color-interpolation-filters="sRGB">
<feFlood flood-opacity="0" result="BackgroundImageFix"/>
<feColorMatrix in="SourceAlpha" type="matrix" values="0 0 0 0 0 0 0 0 0 0 0 0 0 0 0 0 0 0 127 0" result="hardAlpha"/>
<feOffset dy="4"/>
<feGaussianBlur stdDeviation="2"/>
<feComposite in2="hardAlpha" operator="out"/>
<feColorMatrix type="matrix" values="0 0 0 0 0 0 0 0 0 0 0 0 0 0 0 0 0 0 0.25 0"/>
<feBlend mode="normal" in2="BackgroundImageFix" result="effect1_dropShadow_6838_12028"/>
<feBlend mode="normal" in="SourceGraphic" in2="effect1_dropShadow_6838_12028" result="shape"/>
</filter>
<filter id="filter13_d_6838_12028" x="266.5" y="69" width="29" height="24.5" filterUnits="userSpaceOnUse" color-interpolation-filters="sRGB">
<feFlood flood-opacity="0" result="BackgroundImageFix"/>
<feColorMatrix in="SourceAlpha" type="matrix" values="0 0 0 0 0 0 0 0 0 0 0 0 0 0 0 0 0 0 127 0" result="hardAlpha"/>
<feOffset dy="4"/>
<feGaussianBlur stdDeviation="2"/>
<feComposite in2="hardAlpha" operator="out"/>
<feColorMatrix type="matrix" values="0 0 0 0 0 0 0 0 0 0 0 0 0 0 0 0 0 0 0.25 0"/>
<feBlend mode="normal" in2="BackgroundImageFix" result="effect1_dropShadow_6838_12028"/>
<feBlend mode="normal" in="SourceGraphic" in2="effect1_dropShadow_6838_12028" result="shape"/>
</filter>
<linearGradient id="paint0_linear_6838_12028" x1="865.078" y1="106.202" x2="863.533" y2="91.4961" gradientUnits="userSpaceOnUse">
<stop stop-color="#C3C4C3"/>
<stop offset="0.09" stop-color="#D8D8D8"/>
<stop offset="0.21" stop-color="#E9EAE9"/>
<stop offset="0.36" stop-color="#F6F6F6"/>
<stop offset="0.55" stop-color="#FDFDFD"/>
<stop offset="1" stop-color="white"/>
</linearGradient>
<linearGradient id="paint1_linear_6838_12028" x1="879.458" y1="101.715" x2="867.542" y2="110.373" gradientUnits="userSpaceOnUse">
<stop stop-color="#C3C4C3"/>
<stop offset="0.09" stop-color="#D8D8D8"/>
<stop offset="0.21" stop-color="#E9EAE9"/>
<stop offset="0.36" stop-color="#F6F6F6"/>
<stop offset="0.55" stop-color="#FDFDFD"/>
<stop offset="1" stop-color="white"/>
</linearGradient>
<linearGradient id="paint2_linear_6838_12028" x1="868.316" y1="91.4719" x2="881.943" y2="97.5391" gradientUnits="userSpaceOnUse">
<stop stop-color="#C3C4C3"/>
<stop offset="0.09" stop-color="#D8D8D8"/>
<stop offset="0.21" stop-color="#E9EAE9"/>
<stop offset="0.36" stop-color="#F6F6F6"/>
<stop offset="0.55" stop-color="#FDFDFD"/>
<stop offset="1" stop-color="white"/>
</linearGradient>
<linearGradient id="paint3_linear_6838_12028" x1="866.727" y1="106.029" x2="865.511" y2="94.4676" gradientUnits="userSpaceOnUse">
<stop stop-color="#B7B8B8"/>
<stop offset="0.11" stop-color="#C9CACA"/>
<stop offset="0.3" stop-color="#E1E1E1"/>
<stop offset="0.51" stop-color="#F2F2F2"/>
<stop offset="0.73" stop-color="#FCFCFC"/>
<stop offset="1" stop-color="white"/>
</linearGradient>
<linearGradient id="paint4_linear_6838_12028" x1="867.617" y1="93.0355" x2="878.417" y2="97.8439" gradientUnits="userSpaceOnUse">
<stop stop-color="#B7B8B8"/>
<stop offset="0.11" stop-color="#C9CACA"/>
<stop offset="0.3" stop-color="#E1E1E1"/>
<stop offset="0.51" stop-color="#F2F2F2"/>
<stop offset="0.73" stop-color="#FCFCFC"/>
<stop offset="1" stop-color="white"/>
</linearGradient>
<linearGradient id="paint5_linear_6838_12028" x1="878.504" y1="100.404" x2="869.044" y2="107.278" gradientUnits="userSpaceOnUse">
<stop stop-color="#B7B8B8"/>
<stop offset="0.11" stop-color="#C9CACA"/>
<stop offset="0.3" stop-color="#E1E1E1"/>
<stop offset="0.51" stop-color="#F2F2F2"/>
<stop offset="0.73" stop-color="#FCFCFC"/>
<stop offset="1" stop-color="white"/>
</linearGradient>
<linearGradient id="paint6_linear_6838_12028" x1="868.865" y1="105.098" x2="866.527" y2="96.9467" gradientUnits="userSpaceOnUse">
<stop stop-color="#B7B8B8"/>
<stop offset="0.21" stop-color="#CECFCF"/>
<stop offset="0.52" stop-color="#E9E9E9"/>
<stop offset="0.79" stop-color="#F9F9F9"/>
<stop offset="1" stop-color="white"/>
</linearGradient>
<linearGradient id="paint7_linear_6838_12028" x1="876.591" y1="99.0335" x2="870.71" y2="105.122" gradientUnits="userSpaceOnUse">
<stop stop-color="#B7B8B8"/>
<stop offset="0.21" stop-color="#CECFCF"/>
<stop offset="0.52" stop-color="#E9E9E9"/>
<stop offset="0.79" stop-color="#F9F9F9"/>
<stop offset="1" stop-color="white"/>
</linearGradient>
<linearGradient id="paint8_linear_6838_12028" x1="867.387" y1="95.4367" x2="875.731" y2="97.517" gradientUnits="userSpaceOnUse">
<stop stop-color="#B7B8B8"/>
<stop offset="0.21" stop-color="#CECFCF"/>
<stop offset="0.52" stop-color="#E9E9E9"/>
<stop offset="0.79" stop-color="#F9F9F9"/>
<stop offset="1" stop-color="white"/>
</linearGradient>
<linearGradient id="paint9_linear_6838_12028" x1="867.626" y1="97.4136" x2="873.827" y2="97.9019" gradientUnits="userSpaceOnUse">
<stop stop-color="#ABACAC"/>
<stop offset="0.19" stop-color="#BDBEBE"/>
<stop offset="0.73" stop-color="#EDEDED"/>
<stop offset="1" stop-color="white"/>
</linearGradient>
<linearGradient id="paint10_linear_6838_12028" x1="870.507" y1="103.904" x2="867.83" y2="98.4132" gradientUnits="userSpaceOnUse">
<stop stop-color="#ABACAC"/>
<stop offset="0.19" stop-color="#BDBEBE"/>
<stop offset="0.73" stop-color="#EDEDED"/>
<stop offset="1" stop-color="white"/>
</linearGradient>
<linearGradient id="paint11_linear_6838_12028" x1="874.768" y1="98.2666" x2="871.346" y2="103.338" gradientUnits="userSpaceOnUse">
<stop stop-color="#ABACAC"/>
<stop offset="0.19" stop-color="#BDBEBE"/>
<stop offset="0.73" stop-color="#EDEDED"/>
<stop offset="1" stop-color="white"/>
</linearGradient>
<linearGradient id="paint12_linear_6838_12028" x1="868.421" y1="98.9954" x2="872.334" y2="97.5332" gradientUnits="userSpaceOnUse">
<stop stop-color="#9FA0A0"/>
<stop offset="0.17" stop-color="#A5A6A6"/>
<stop offset="0.4" stop-color="#B5B6B6"/>
<stop offset="0.66" stop-color="#D0D1D1"/>
<stop offset="0.94" stop-color="#F6F6F6"/>
<stop offset="1" stop-color="white"/>
</linearGradient>
<linearGradient id="paint13_linear_6838_12028" x1="871.453" y1="102.528" x2="868.301" y2="99.8823" gradientUnits="userSpaceOnUse">
<stop stop-color="#9FA0A0"/>
<stop offset="0.17" stop-color="#A5A6A6"/>
<stop offset="0.4" stop-color="#B5B6B6"/>
<stop offset="0.66" stop-color="#D0D1D1"/>
<stop offset="0.94" stop-color="#F6F6F6"/>
<stop offset="1" stop-color="white"/>
</linearGradient>
<linearGradient id="paint14_linear_6838_12028" x1="873.043" y1="98.1384" x2="872.325" y2="102.212" gradientUnits="userSpaceOnUse">
<stop stop-color="#9FA0A0"/>
<stop offset="0.17" stop-color="#A5A6A6"/>
<stop offset="0.4" stop-color="#B5B6B6"/>
<stop offset="0.66" stop-color="#D0D1D1"/>
<stop offset="0.94" stop-color="#F6F6F6"/>
<stop offset="1" stop-color="white"/>
</linearGradient>
<linearGradient id="paint15_linear_6838_12028" x1="830.5" y1="83" x2="855.5" y2="109" gradientUnits="userSpaceOnUse">
<stop stop-color="#FCC0DB" stop-opacity="0.1"/>
<stop offset="1" stop-color="#FCC0DB"/>
</linearGradient>
<linearGradient id="paint16_linear_6838_12028" x1="867.497" y1="60.2786" x2="842.094" y2="81.6528" gradientUnits="userSpaceOnUse">
<stop stop-color="#B6509E"/>
<stop offset="1" stop-color="#2EBAC6"/>
</linearGradient>
<linearGradient id="paint17_linear_6838_12028" x1="476.5" y1="1" x2="476.5" y2="164" gradientUnits="userSpaceOnUse">
<stop stop-color="#FFBF00"/>
<stop offset="1" stop-color="#E843C4"/>
</linearGradient>
<linearGradient id="paint18_linear_6838_12028" x1="476.953" y1="9.82198" x2="476.953" y2="122.652" gradientUnits="userSpaceOnUse">
<stop stop-color="#FFBF00"/>
<stop offset="1" stop-color="#E843C4"/>
</linearGradient>
<linearGradient id="paint19_linear_6838_12028" x1="476" y1="38.5273" x2="476" y2="100.31" gradientUnits="userSpaceOnUse">
<stop stop-color="#FFBF00"/>
<stop offset="1" stop-color="#E843C4"/>
</linearGradient>
<linearGradient id="paint20_linear_6838_12028" x1="189" y1="78" x2="374" y2="78" gradientUnits="userSpaceOnUse">
<stop stop-color="#E843C4"/>
<stop offset="1" stop-color="#FFCC4D"/>
</linearGradient>
<linearGradient id="paint21_linear_6838_12028" x1="579" y1="78" x2="764" y2="78" gradientUnits="userSpaceOnUse">
<stop stop-color="#E843C4"/>
<stop offset="1" stop-color="#FFCC4D"/>
</linearGradient>
<linearGradient id="paint22_linear_6838_12028" x1="261.752" y1="153.191" x2="260.61" y2="142.323" gradientUnits="userSpaceOnUse">
<stop stop-color="#C3C4C3"/>
<stop offset="0.09" stop-color="#D8D8D8"/>
<stop offset="0.21" stop-color="#E9EAE9"/>
<stop offset="0.36" stop-color="#F6F6F6"/>
<stop offset="0.55" stop-color="#FDFDFD"/>
<stop offset="1" stop-color="white"/>
</linearGradient>
<linearGradient id="paint23_linear_6838_12028" x1="272.379" y1="149.875" x2="263.573" y2="156.273" gradientUnits="userSpaceOnUse">
<stop stop-color="#C3C4C3"/>
<stop offset="0.09" stop-color="#D8D8D8"/>
<stop offset="0.21" stop-color="#E9EAE9"/>
<stop offset="0.36" stop-color="#F6F6F6"/>
<stop offset="0.55" stop-color="#FDFDFD"/>
<stop offset="1" stop-color="white"/>
</linearGradient>
<linearGradient id="paint24_linear_6838_12028" x1="264.146" y1="142.305" x2="274.217" y2="146.789" gradientUnits="userSpaceOnUse">
<stop stop-color="#C3C4C3"/>
<stop offset="0.09" stop-color="#D8D8D8"/>
<stop offset="0.21" stop-color="#E9EAE9"/>
<stop offset="0.36" stop-color="#F6F6F6"/>
<stop offset="0.55" stop-color="#FDFDFD"/>
<stop offset="1" stop-color="white"/>
</linearGradient>
<linearGradient id="paint25_linear_6838_12028" x1="262.971" y1="153.063" x2="262.072" y2="144.519" gradientUnits="userSpaceOnUse">
<stop stop-color="#B7B8B8"/>
<stop offset="0.11" stop-color="#C9CACA"/>
<stop offset="0.3" stop-color="#E1E1E1"/>
<stop offset="0.51" stop-color="#F2F2F2"/>
<stop offset="0.73" stop-color="#FCFCFC"/>
<stop offset="1" stop-color="white"/>
</linearGradient>
<linearGradient id="paint26_linear_6838_12028" x1="263.63" y1="143.46" x2="271.611" y2="147.014" gradientUnits="userSpaceOnUse">
<stop stop-color="#B7B8B8"/>
<stop offset="0.11" stop-color="#C9CACA"/>
<stop offset="0.3" stop-color="#E1E1E1"/>
<stop offset="0.51" stop-color="#F2F2F2"/>
<stop offset="0.73" stop-color="#FCFCFC"/>
<stop offset="1" stop-color="white"/>
</linearGradient>
<linearGradient id="paint27_linear_6838_12028" x1="271.675" y1="148.906" x2="264.684" y2="153.986" gradientUnits="userSpaceOnUse">
<stop stop-color="#B7B8B8"/>
<stop offset="0.11" stop-color="#C9CACA"/>
<stop offset="0.3" stop-color="#E1E1E1"/>
<stop offset="0.51" stop-color="#F2F2F2"/>
<stop offset="0.73" stop-color="#FCFCFC"/>
<stop offset="1" stop-color="white"/>
</linearGradient>
<linearGradient id="paint28_linear_6838_12028" x1="264.551" y1="152.375" x2="262.824" y2="146.351" gradientUnits="userSpaceOnUse">
<stop stop-color="#B7B8B8"/>
<stop offset="0.21" stop-color="#CECFCF"/>
<stop offset="0.52" stop-color="#E9E9E9"/>
<stop offset="0.79" stop-color="#F9F9F9"/>
<stop offset="1" stop-color="white"/>
</linearGradient>
<linearGradient id="paint29_linear_6838_12028" x1="270.262" y1="147.893" x2="265.915" y2="152.393" gradientUnits="userSpaceOnUse">
<stop stop-color="#B7B8B8"/>
<stop offset="0.21" stop-color="#CECFCF"/>
<stop offset="0.52" stop-color="#E9E9E9"/>
<stop offset="0.79" stop-color="#F9F9F9"/>
<stop offset="1" stop-color="white"/>
</linearGradient>
<linearGradient id="paint30_linear_6838_12028" x1="263.459" y1="145.235" x2="269.625" y2="146.772" gradientUnits="userSpaceOnUse">
<stop stop-color="#B7B8B8"/>
<stop offset="0.21" stop-color="#CECFCF"/>
<stop offset="0.52" stop-color="#E9E9E9"/>
<stop offset="0.79" stop-color="#F9F9F9"/>
<stop offset="1" stop-color="white"/>
</linearGradient>
<linearGradient id="paint31_linear_6838_12028" x1="263.636" y1="146.696" x2="268.219" y2="147.057" gradientUnits="userSpaceOnUse">
<stop stop-color="#ABACAC"/>
<stop offset="0.19" stop-color="#BDBEBE"/>
<stop offset="0.73" stop-color="#EDEDED"/>
<stop offset="1" stop-color="white"/>
</linearGradient>
<linearGradient id="paint32_linear_6838_12028" x1="265.765" y1="151.493" x2="263.786" y2="147.435" gradientUnits="userSpaceOnUse">
<stop stop-color="#ABACAC"/>
<stop offset="0.19" stop-color="#BDBEBE"/>
<stop offset="0.73" stop-color="#EDEDED"/>
<stop offset="1" stop-color="white"/>
</linearGradient>
<linearGradient id="paint33_linear_6838_12028" x1="268.914" y1="147.326" x2="266.385" y2="151.074" gradientUnits="userSpaceOnUse">
<stop stop-color="#ABACAC"/>
<stop offset="0.19" stop-color="#BDBEBE"/>
<stop offset="0.73" stop-color="#EDEDED"/>
<stop offset="1" stop-color="white"/>
</linearGradient>
<linearGradient id="paint34_linear_6838_12028" x1="264.223" y1="147.865" x2="267.115" y2="146.784" gradientUnits="userSpaceOnUse">
<stop stop-color="#9FA0A0"/>
<stop offset="0.17" stop-color="#A5A6A6"/>
<stop offset="0.4" stop-color="#B5B6B6"/>
<stop offset="0.66" stop-color="#D0D1D1"/>
<stop offset="0.94" stop-color="#F6F6F6"/>
<stop offset="1" stop-color="white"/>
</linearGradient>
<linearGradient id="paint35_linear_6838_12028" x1="266.464" y1="150.475" x2="264.135" y2="148.52" gradientUnits="userSpaceOnUse">
<stop stop-color="#9FA0A0"/>
<stop offset="0.17" stop-color="#A5A6A6"/>
<stop offset="0.4" stop-color="#B5B6B6"/>
<stop offset="0.66" stop-color="#D0D1D1"/>
<stop offset="0.94" stop-color="#F6F6F6"/>
<stop offset="1" stop-color="white"/>
</linearGradient>
<linearGradient id="paint36_linear_6838_12028" x1="267.639" y1="147.232" x2="267.109" y2="150.242" gradientUnits="userSpaceOnUse">
<stop stop-color="#9FA0A0"/>
<stop offset="0.17" stop-color="#A5A6A6"/>
<stop offset="0.4" stop-color="#B5B6B6"/>
<stop offset="0.66" stop-color="#D0D1D1"/>
<stop offset="0.94" stop-color="#F6F6F6"/>
<stop offset="1" stop-color="white"/>
</linearGradient>
<linearGradient id="paint37_linear_6838_12028" x1="86" y1="58" x2="86" y2="108" gradientUnits="userSpaceOnUse">
<stop stop-color="#E843C4"/>
<stop offset="1" stop-color="#FFBF00"/>
</linearGradient>
<linearGradient id="paint38_linear_6838_12028" x1="281" y1="69" x2="281" y2="85.5" gradientUnits="userSpaceOnUse">
<stop stop-color="#FFBF00"/>
<stop offset="1" stop-color="#F4900C"/>
</linearGradient>
<linearGradient id="paint39_linear_6838_12028" x1="671.4" y1="68.075" x2="671.4" y2="86.625" gradientUnits="userSpaceOnUse">
<stop stop-color="#FFBF00"/>
<stop offset="1" stop-color="#F4900C"/>
</linearGradient>
<clipPath id="clip0_6838_12028">
<rect width="35.2" height="35.2" fill="white" transform="translate(884 79)"/>
</clipPath>
<clipPath id="clip1_6838_12028">
<rect width="35.2" height="35.2" fill="white" transform="translate(853 79)"/>
</clipPath>
<clipPath id="clip2_6838_12028">
<rect width="22" height="19.3171" fill="white" transform="translate(860 87)"/>
</clipPath>
<clipPath id="clip3_6838_12028">
<rect width="35.2" height="35.2234" fill="white" transform="translate(892 52)"/>
</clipPath>
<clipPath id="clip4_6838_12028">
<rect width="35.2" height="35.2" fill="white" transform="translate(825 79)"/>
</clipPath>
<clipPath id="clip5_6838_12028">
<rect width="19.1053" height="22" fill="white" transform="translate(833 86)"/>
</clipPath>
<clipPath id="clip6_6838_12028">
<rect width="35.2" height="35.2" fill="white" transform="translate(864 52)"/>
</clipPath>
<clipPath id="clip7_6838_12028">
<rect width="13.8073" height="22" fill="white" transform="translate(875 59)"/>
</clipPath>
<clipPath id="clip8_6838_12028">
<rect width="35.2" height="35.2" fill="white" transform="translate(808 52)"/>
</clipPath>
<clipPath id="clip9_6838_12028">
<rect width="46" height="14.2759" fill="white" transform="translate(258 139)"/>
</clipPath>
<clipPath id="clip10_6838_12028">
<rect width="24" height="24" fill="white" transform="translate(269 66)"/>
</clipPath>
</defs>
</svg>
