<svg width="42" height="48" viewBox="0 0 42 48" fill="none" xmlns="http://www.w3.org/2000/svg">
<path d="M41.2555 20.3623C38.5098 17.5318 34.9926 15.5709 31.1413 14.7237C28.3138 14.013 25.4143 13.6278 22.4994 13.5753V5.77255C22.4532 4.44999 21.8853 3.1995 20.9197 2.29457C19.954 1.38965 18.6694 0.903938 17.3466 0.943665C16.0238 0.903938 14.7391 1.38965 13.7735 2.29457C12.8079 3.1995 12.2399 4.44999 12.1938 5.77255V20.4948L9.83825 18.1687C8.80061 17.1508 7.40509 16.5806 5.95158 16.5806C4.49806 16.5806 3.10255 17.1508 2.06491 18.1687C1.54503 18.6709 1.13122 19.2724 0.847994 19.9375C0.564766 20.6026 0.417876 21.3177 0.416023 22.0406C0.389029 23.4422 0.918392 24.7973 1.88825 25.8095L8.7488 33.9362C9.07978 36.0126 9.79365 38.0094 10.8541 39.8251C11.6288 41.2213 12.623 42.4839 13.7985 43.5645V46.3912C13.7939 46.7942 13.944 47.1837 14.2178 47.4795C14.4917 47.7753 14.8685 47.9548 15.2707 47.9812H35.7494C36.1516 47.9548 36.5284 47.7753 36.8023 47.4795C37.0761 47.1837 37.2262 46.7942 37.2216 46.3912V42.4162C40.1145 38.9716 41.6809 34.6064 41.6382 30.1084V21.2751C41.6198 20.9357 41.4846 20.6132 41.2555 20.3623ZM38.6938 30.182C38.7879 34.0962 37.4236 37.9057 34.866 40.8703C34.541 41.1351 34.3302 41.5146 34.2771 41.9303V45.1103H16.8166V42.9314C16.8169 42.6903 16.7581 42.4527 16.6451 42.2397C16.5322 42.0266 16.3686 41.8445 16.1688 41.7095C15.0655 40.8049 14.1544 39.6887 13.4894 38.4264C12.5515 36.8384 11.9502 35.0744 11.7227 33.2442C11.7069 32.9256 11.5881 32.6208 11.3841 32.3756L4.14075 23.8073C3.90483 23.5745 3.71751 23.2971 3.58965 22.9913C3.4618 22.6855 3.39596 22.3573 3.39596 22.0259C3.39596 21.6944 3.4618 21.3663 3.58965 21.0605C3.71751 20.7547 3.90483 20.4773 4.14075 20.2445C4.62549 19.7671 5.27857 19.4995 5.95894 19.4995C6.63931 19.4995 7.29239 19.7671 7.77713 20.2445L12.1938 24.6612V29.2839L15.1382 27.8117V5.77255C15.1906 5.2336 15.4501 4.736 15.862 4.38451C16.2739 4.03302 16.8061 3.85506 17.3466 3.88811C17.8871 3.85506 18.4193 4.03302 18.8312 4.38451C19.2431 4.736 19.5025 5.2336 19.5549 5.77255V23.1448L22.4994 23.7778V16.5345C23.7349 16.5589 24.9683 16.6473 26.1946 16.7995V24.4992L28.5502 25.0145V17.1381C29.1538 17.2559 29.7721 17.3884 30.4052 17.5503C31.1685 17.7501 31.9204 17.9909 32.6577 18.2717V25.8537L35.0132 26.3689V19.3464C36.3515 20.022 37.59 20.879 38.6938 21.8934V30.182Z" fill="white"/>
</svg>
