<svg width="186" height="21" viewBox="0 0 186 21" fill="none" xmlns="http://www.w3.org/2000/svg">
<path d="M15.1629 5.04483L11.5299 5.04483L2.37158 13.9094L2.37158 0.822266L0 0.822266L0 20.3971H2.37158V17.4329L7.72023 12.2595L14.1033 20.3971H17.2318L9.51153 10.4978L15.1629 5.04483Z" fill="white"/>
<path d="M31.123 5.04483H18.5082V7.67345H31.123C32.5611 7.67345 33.7216 8.98776 33.7216 10.5817V11.3927L22.5449 11.3927C20.2995 11.3927 18.5082 13.4061 18.5082 15.8949C18.5082 18.3837 20.2995 20.3971 22.5449 20.3971H36.1184V10.5817C36.1184 7.53363 33.8982 5.04483 31.123 5.04483ZM33.7216 17.7405H22.5449C21.6115 17.7405 20.8798 16.9295 20.8798 15.8949C20.8798 14.8882 21.6115 14.0492 22.5449 14.0492L33.7216 14.0492V17.7405Z" fill="white"/>
<path d="M53.4726 11.3927H43.9358C43.0276 11.3927 42.2959 10.5537 42.2959 9.51907C42.2959 8.51237 43.0276 7.67345 43.9358 7.67345H57.5093V5.04483H43.9358C41.7156 5.04483 39.8991 7.03028 39.8991 9.51907C39.8991 12.0358 41.7156 14.0492 43.9358 14.0492H53.4726C54.4061 14.0492 55.1377 14.8882 55.1377 15.8949C55.1377 16.9295 54.4061 17.7405 53.4726 17.7405H39.8991V20.3971H53.4726C55.718 20.3971 57.5093 18.3837 57.5093 15.8949C57.5093 13.4061 55.718 11.3927 53.4726 11.3927Z" fill="white"/>
<path d="M74.8635 11.3927H65.3267C64.4185 11.3927 63.6868 10.5537 63.6868 9.51907C63.6868 8.51237 64.4185 7.67345 65.3267 7.67345L78.9002 7.67345V5.04483L65.3267 5.04483C63.1065 5.04483 61.29 7.03028 61.29 9.51907C61.29 12.0358 63.1065 14.0492 65.3267 14.0492H74.8635C75.797 14.0492 76.5286 14.8882 76.5286 15.8949C76.5286 16.9295 75.797 17.7405 74.8635 17.7405H61.29V20.3971H74.8635C77.1089 20.3971 78.9002 18.3837 78.9002 15.8949C78.9002 13.4061 77.1089 11.3927 74.8635 11.3927Z" fill="white"/>
<path d="M95.2957 5.04483H82.6809V7.67345H95.2957C96.7337 7.67345 97.8943 8.98776 97.8943 10.5817V11.3927H86.7176C84.4722 11.3927 82.6809 13.4061 82.6809 15.8949C82.6809 18.3837 84.4722 20.3971 86.7176 20.3971H100.291V10.5817C100.291 7.53363 98.0709 5.04483 95.2957 5.04483ZM97.8943 17.7405H86.7176C85.7841 17.7405 85.0525 16.9295 85.0525 15.8949C85.0525 14.8882 85.7841 14.0492 86.7176 14.0492H97.8943V17.7405Z" fill="white"/>
<path d="M116.712 5.04483H104.072V20.3971H106.443V7.67345H116.712C118.125 7.67345 119.31 8.98776 119.31 10.5817V20.3971H121.682V10.5817C121.682 7.53363 119.437 5.04483 116.712 5.04483Z" fill="white"/>
<path d="M140.701 5.04483H130.458C127.708 5.04483 125.463 7.53363 125.463 10.5817V14.8322C125.463 17.9083 127.708 20.3971 130.458 20.3971H143.098V0.822266L140.701 0.822266V5.04483ZM140.701 17.7405H130.458C129.02 17.7405 127.834 16.4262 127.834 14.8322V10.5817C127.834 8.98776 129.02 7.67345 130.458 7.67345H140.701V17.7405Z" fill="white"/>
<path d="M146.878 10.5817V20.3971H149.25V10.5817C149.25 8.98776 150.41 7.67345 151.874 7.67345L164.514 7.67345V5.04483L151.874 5.04483C149.098 5.04483 146.878 7.53363 146.878 10.5817Z" fill="white"/>
<path d="M180.908 5.04483H168.294V7.67345H180.908C182.347 7.67345 183.507 8.98776 183.507 10.5817V11.3927H172.33C170.085 11.3927 168.294 13.4061 168.294 15.8949C168.294 18.3837 170.085 20.3971 172.33 20.3971L185.904 20.3971V10.5817C185.904 7.53363 183.684 5.04483 180.908 5.04483ZM183.507 17.7405L172.33 17.7405C171.397 17.7405 170.665 16.9295 170.665 15.8949C170.665 14.8882 171.397 14.0492 172.33 14.0492H183.507V17.7405Z" fill="white"/>
</svg>
