<svg width="368" height="312" viewBox="0 0 368 312" fill="none" xmlns="http://www.w3.org/2000/svg">
<g filter="url(#filter0_f_5129_51454)">
<circle cx="212.414" cy="156" r="153" stroke="url(#paint0_linear_5129_51454)" stroke-width="0.854749"/>
</g>
<circle cx="212.414" cy="156" r="153" fill="url(#paint1_linear_5129_51454)" fill-opacity="0.08"/>
<g filter="url(#filter1_f_5129_51454)">
<circle cx="184.211" cy="156" r="153" stroke="url(#paint2_linear_5129_51454)" stroke-width="0.854749"/>
</g>
<circle cx="184.211" cy="156" r="153" fill="url(#paint3_linear_5129_51454)" fill-opacity="0.08"/>
<g filter="url(#filter2_f_5129_51454)">
<circle cx="156" cy="156" r="153" stroke="url(#paint4_linear_5129_51454)" stroke-width="0.854749"/>
</g>
<circle cx="156" cy="156" r="153" fill="url(#paint5_linear_5129_51454)" fill-opacity="0.08"/>
<g filter="url(#filter3_f_5129_51454)">
<path d="M257.492 159.867C257.492 190.325 244.152 217.664 223.041 236.379L173.966 193.383H221.634C225.489 193.383 228.671 190.264 228.671 186.349C228.671 182.496 225.55 179.316 221.634 179.316H88.7878C84.9327 179.316 81.7508 182.435 81.7508 186.349C81.7508 190.203 84.8715 193.383 88.7878 193.383H142.33L89.3385 238.031C67.0649 219.254 52.9297 191.181 52.9297 159.806C52.9297 103.354 98.7007 57.6055 155.18 57.6055C211.66 57.6666 257.492 103.415 257.492 159.867Z" stroke="url(#paint6_linear_5129_51454)" stroke-width="8.05363" stroke-miterlimit="10"/>
</g>
<path d="M257.492 159.867C257.492 190.325 244.152 217.664 223.041 236.379L173.966 193.383H221.634C225.489 193.383 228.671 190.264 228.671 186.349C228.671 182.496 225.55 179.316 221.634 179.316H88.7878C84.9327 179.316 81.7508 182.435 81.7508 186.349C81.7508 190.203 84.8715 193.383 88.7878 193.383H142.33L89.3385 238.031C67.0649 219.254 52.9297 191.181 52.9297 159.806C52.9297 103.354 98.7007 57.6055 155.18 57.6055C211.66 57.6666 257.492 103.415 257.492 159.867Z" stroke="url(#paint7_linear_5129_51454)" stroke-width="3.78197" stroke-miterlimit="10"/>
<defs>
<filter id="filter0_f_5129_51454" x="57.2773" y="0.862768" width="310.273" height="310.274" filterUnits="userSpaceOnUse" color-interpolation-filters="sRGB">
<feFlood flood-opacity="0" result="BackgroundImageFix"/>
<feBlend mode="normal" in="SourceGraphic" in2="BackgroundImageFix" result="shape"/>
<feGaussianBlur stdDeviation="0.854749" result="effect1_foregroundBlur_5129_51454"/>
</filter>
<filter id="filter1_f_5129_51454" x="29.0742" y="0.862768" width="310.273" height="310.274" filterUnits="userSpaceOnUse" color-interpolation-filters="sRGB">
<feFlood flood-opacity="0" result="BackgroundImageFix"/>
<feBlend mode="normal" in="SourceGraphic" in2="BackgroundImageFix" result="shape"/>
<feGaussianBlur stdDeviation="0.854749" result="effect1_foregroundBlur_5129_51454"/>
</filter>
<filter id="filter2_f_5129_51454" x="0.863256" y="0.862768" width="310.273" height="310.274" filterUnits="userSpaceOnUse" color-interpolation-filters="sRGB">
<feFlood flood-opacity="0" result="BackgroundImageFix"/>
<feBlend mode="normal" in="SourceGraphic" in2="BackgroundImageFix" result="shape"/>
<feGaussianBlur stdDeviation="0.854749" result="effect1_foregroundBlur_5129_51454"/>
</filter>
<filter id="filter3_f_5129_51454" x="32.7956" y="37.4718" width="244.83" height="221.932" filterUnits="userSpaceOnUse" color-interpolation-filters="sRGB">
<feFlood flood-opacity="0" result="BackgroundImageFix"/>
<feBlend mode="normal" in="SourceGraphic" in2="BackgroundImageFix" result="shape"/>
<feGaussianBlur stdDeviation="8.05363" result="effect1_foregroundBlur_5129_51454"/>
</filter>
<linearGradient id="paint0_linear_5129_51454" x1="435.076" y1="156" x2="212.414" y2="156" gradientUnits="userSpaceOnUse">
<stop stop-color="white"/>
<stop offset="0.759236" stop-color="white" stop-opacity="0"/>
</linearGradient>
<linearGradient id="paint1_linear_5129_51454" x1="365.414" y1="156" x2="212.414" y2="156" gradientUnits="userSpaceOnUse">
<stop stop-color="#FCFCFC"/>
<stop offset="1" stop-color="#FCFCFC" stop-opacity="0"/>
</linearGradient>
<linearGradient id="paint2_linear_5129_51454" x1="406.873" y1="156" x2="184.211" y2="156" gradientUnits="userSpaceOnUse">
<stop stop-color="white"/>
<stop offset="0.759236" stop-color="white" stop-opacity="0"/>
</linearGradient>
<linearGradient id="paint3_linear_5129_51454" x1="337.211" y1="156" x2="184.211" y2="156" gradientUnits="userSpaceOnUse">
<stop stop-color="#FCFCFC"/>
<stop offset="1" stop-color="#FCFCFC" stop-opacity="0"/>
</linearGradient>
<linearGradient id="paint4_linear_5129_51454" x1="378.662" y1="156" x2="156" y2="156" gradientUnits="userSpaceOnUse">
<stop stop-color="white"/>
<stop offset="0.759236" stop-color="white" stop-opacity="0"/>
</linearGradient>
<linearGradient id="paint5_linear_5129_51454" x1="309" y1="156" x2="156" y2="156" gradientUnits="userSpaceOnUse">
<stop stop-color="#FCFCFC"/>
<stop offset="1" stop-color="#FCFCFC" stop-opacity="0"/>
</linearGradient>
<linearGradient id="paint6_linear_5129_51454" x1="155.371" y1="-26.0491" x2="155.371" y2="301.211" gradientUnits="userSpaceOnUse">
<stop stop-color="#FFBF00"/>
<stop offset="1" stop-color="#E843C4"/>
</linearGradient>
<linearGradient id="paint7_linear_5129_51454" x1="155.211" y1="57.6055" x2="155.211" y2="238.031" gradientUnits="userSpaceOnUse">
<stop stop-color="#FFBF00"/>
<stop offset="1" stop-color="#E843C4"/>
</linearGradient>
</defs>
</svg>
