<svg width="501" height="474" viewBox="0 0 501 474" fill="none" xmlns="http://www.w3.org/2000/svg">
<path d="M95.7138 168.267C116.919 168.267 127.993 152.202 120.449 132.384C112.905 112.566 89.6006 96.501 68.395 96.501C47.1894 96.501 36.1153 112.566 43.6594 132.384C51.2035 152.202 74.5082 168.267 95.7138 168.267Z" fill="white" fill-opacity="0.05" stroke="white" stroke-opacity="0.15" stroke-width="0.840233" stroke-linecap="round" stroke-linejoin="round"/>
<path d="M145.817 160.587C144.701 160.587 143.691 160.406 142.786 160.042C141.89 159.668 141.12 159.14 140.479 158.459C139.833 157.767 139.32 156.938 138.941 155.974C138.769 155.508 138.592 155.009 138.409 154.475C138.226 153.942 138.056 153.431 137.901 152.943C137.621 151.99 137.567 151.167 137.737 150.475C137.919 149.782 138.332 149.255 138.976 148.891C139.627 148.517 140.505 148.33 141.609 148.33C142.425 148.33 143.192 148.432 143.91 148.636C144.628 148.84 145.277 149.124 145.858 149.487C146.435 149.839 146.931 150.253 147.347 150.73C147.763 151.207 148.072 151.723 148.275 152.279C148.322 152.381 148.315 152.467 148.254 152.535C148.206 152.603 148.128 152.637 148.02 152.637H146.31C146.178 152.637 146.06 152.608 145.956 152.552C145.849 152.484 145.752 152.376 145.665 152.228C145.216 151.479 144.711 150.968 144.149 150.696C143.588 150.424 142.959 150.287 142.263 150.287C141.459 150.287 140.891 150.503 140.559 150.934C140.223 151.354 140.205 152.052 140.504 153.028C140.788 153.959 141.115 154.912 141.486 155.889C141.857 156.865 142.357 157.568 142.985 158C143.609 158.419 144.323 158.629 145.127 158.629C145.823 158.629 146.358 158.493 146.733 158.221C147.103 157.937 147.258 157.426 147.197 156.689C147.178 156.53 147.201 156.422 147.266 156.365C147.33 156.308 147.428 156.28 147.56 156.28H149.27C149.378 156.28 149.48 156.314 149.576 156.382C149.683 156.45 149.748 156.535 149.771 156.638C149.95 157.194 149.995 157.71 149.907 158.187C149.819 158.664 149.609 159.083 149.278 159.447C148.942 159.798 148.486 160.077 147.908 160.281C147.33 160.485 146.633 160.587 145.817 160.587ZM153.42 160.417C153.3 160.417 153.184 160.377 153.073 160.298C152.961 160.218 152.886 160.122 152.847 160.008L150.094 151.99C150.051 151.865 150.058 151.763 150.115 151.683C150.172 151.604 150.26 151.564 150.38 151.564H151.838C151.958 151.564 152.074 151.604 152.185 151.683C152.308 151.763 152.391 151.865 152.434 151.99L152.674 152.688C152.825 152.325 153.084 152.047 153.449 151.854C153.827 151.661 154.304 151.564 154.88 151.564H155.618C155.75 151.564 155.866 151.604 155.965 151.683C156.076 151.763 156.151 151.859 156.19 151.973L156.611 153.199C156.65 153.312 156.641 153.409 156.584 153.488C156.54 153.568 156.451 153.607 156.319 153.607H154.915C154.339 153.607 153.942 153.76 153.723 154.067C153.516 154.373 153.505 154.793 153.688 155.327L155.295 160.008C155.334 160.122 155.325 160.218 155.269 160.298C155.212 160.377 155.118 160.417 154.986 160.417H153.42ZM164.461 160.587C163.129 160.587 161.948 160.224 160.919 159.498C159.889 158.771 159.115 157.739 158.595 156.399C158.544 156.286 158.489 156.144 158.431 155.974C158.368 155.792 158.326 155.65 158.303 155.548C158.058 154.697 158.009 153.959 158.155 153.335C158.312 152.711 158.659 152.234 159.194 151.905C159.725 151.564 160.428 151.394 161.304 151.394C162.276 151.394 163.159 151.587 163.951 151.973C164.74 152.347 165.419 152.875 165.989 153.556C166.555 154.226 166.99 155.003 167.293 155.889L167.416 156.246C167.455 156.36 167.446 156.456 167.39 156.535C167.333 156.615 167.239 156.655 167.107 156.655H161.131C161.131 156.655 161.136 156.672 161.148 156.706C161.16 156.74 161.17 156.768 161.177 156.791C161.326 157.188 161.53 157.557 161.791 157.897C162.06 158.227 162.374 158.493 162.732 158.698C163.102 158.902 163.491 159.004 163.899 159.004C164.235 159.004 164.502 158.959 164.698 158.868C164.891 158.766 165.038 158.652 165.14 158.527C165.241 158.402 165.308 158.3 165.34 158.221C165.402 158.085 165.458 158.005 165.51 157.983C165.571 157.948 165.667 157.931 165.799 157.931H167.347C167.467 157.931 167.575 157.966 167.67 158.034C167.777 158.102 167.843 158.187 167.866 158.289C167.916 158.471 167.89 158.692 167.788 158.953C167.697 159.214 167.521 159.469 167.259 159.719C166.996 159.969 166.631 160.179 166.161 160.349C165.7 160.508 165.133 160.587 164.461 160.587ZM160.64 155.225H164.618L164.6 155.173C164.448 154.731 164.238 154.345 163.968 154.016C163.699 153.687 163.382 153.426 163.016 153.233C162.649 153.04 162.256 152.943 161.836 152.943C161.416 152.943 161.089 153.04 160.856 153.233C160.622 153.426 160.483 153.687 160.44 154.016C160.41 154.345 160.47 154.731 160.622 155.173L160.64 155.225ZM173.535 160.587C172.911 160.587 172.309 160.474 171.727 160.247C171.141 160.008 170.632 159.696 170.199 159.31C169.775 158.913 169.479 158.471 169.311 157.983C169.038 157.188 169.158 156.558 169.67 156.093C170.191 155.616 170.982 155.298 172.043 155.139L174.392 154.799L174.269 154.441C174.106 153.965 173.853 153.596 173.511 153.335C173.17 153.074 172.693 152.943 172.081 152.943C171.649 152.943 171.324 153.028 171.107 153.199C170.897 153.358 170.773 153.573 170.735 153.846C170.689 153.993 170.577 154.067 170.397 154.067H168.975C168.843 154.067 168.729 154.033 168.634 153.965C168.55 153.897 168.489 153.806 168.45 153.692C168.4 153.511 168.402 153.289 168.456 153.028C168.511 152.767 168.653 152.518 168.883 152.279C169.109 152.03 169.439 151.82 169.873 151.649C170.306 151.479 170.871 151.394 171.567 151.394C172.323 151.394 172.99 151.485 173.569 151.666C174.155 151.837 174.655 152.069 175.068 152.364C175.481 152.66 175.828 153.006 176.109 153.403C176.389 153.8 176.605 154.22 176.757 154.663L178.593 160.008C178.632 160.122 178.623 160.218 178.566 160.298C178.509 160.377 178.421 160.417 178.301 160.417H176.843C176.711 160.417 176.589 160.377 176.478 160.298C176.379 160.218 176.31 160.122 176.271 160.008L176.043 159.344C175.961 159.56 175.821 159.764 175.623 159.957C175.422 160.139 175.15 160.292 174.809 160.417C174.476 160.531 174.051 160.587 173.535 160.587ZM173.592 158.97C174.012 158.97 174.361 158.885 174.638 158.715C174.928 158.544 175.108 158.283 175.18 157.931C175.259 157.568 175.205 157.114 175.018 156.569L174.895 156.212L173.189 156.484C172.516 156.587 172.044 156.751 171.774 156.978C171.504 157.205 171.426 157.483 171.539 157.812C171.624 158.062 171.776 158.278 171.995 158.459C172.221 158.629 172.476 158.76 172.759 158.851C173.039 158.93 173.316 158.97 173.592 158.97ZM185.184 160.417C184.464 160.417 183.817 160.298 183.244 160.06C182.67 159.821 182.183 159.469 181.783 159.004C181.38 158.527 181.057 157.937 180.815 157.233L179.488 153.369H178.066C177.946 153.369 177.831 153.329 177.719 153.25C177.608 153.17 177.533 153.074 177.494 152.96L177.155 151.973C177.116 151.859 177.125 151.763 177.182 151.683C177.238 151.604 177.327 151.564 177.447 151.564H178.869L177.898 148.738C177.859 148.625 177.862 148.528 177.907 148.449C177.964 148.369 178.058 148.33 178.19 148.33H179.648C179.768 148.33 179.884 148.369 179.995 148.449C180.106 148.528 180.181 148.625 180.22 148.738L181.191 151.564H183.441C183.561 151.564 183.676 151.604 183.788 151.683C183.899 151.763 183.974 151.859 184.013 151.973L184.352 152.96C184.391 153.074 184.382 153.17 184.325 153.25C184.269 153.329 184.18 153.369 184.06 153.369H181.81L183.079 157.063C183.239 157.529 183.447 157.892 183.705 158.153C183.975 158.414 184.325 158.544 184.757 158.544H185.999C186.119 158.544 186.235 158.584 186.346 158.664C186.458 158.743 186.533 158.839 186.572 158.953L186.934 160.008C186.973 160.122 186.964 160.218 186.907 160.298C186.851 160.377 186.762 160.417 186.642 160.417H185.184ZM192.762 160.587C191.43 160.587 190.249 160.224 189.219 159.498C188.19 158.771 187.415 157.739 186.896 156.399C186.845 156.286 186.79 156.144 186.731 155.974C186.669 155.792 186.626 155.65 186.603 155.548C186.359 154.697 186.31 153.959 186.455 153.335C186.613 152.711 186.959 152.234 187.494 151.905C188.026 151.564 188.729 151.394 189.605 151.394C190.577 151.394 191.459 151.587 192.252 151.973C193.04 152.347 193.72 152.875 194.289 153.556C194.855 154.226 195.29 155.003 195.594 155.889L195.717 156.246C195.756 156.36 195.747 156.456 195.69 156.535C195.634 156.615 195.539 156.655 195.407 156.655H189.431C189.431 156.655 189.437 156.672 189.449 156.706C189.461 156.74 189.47 156.768 189.478 156.791C189.626 157.188 189.831 157.557 190.092 157.897C190.361 158.227 190.675 158.493 191.033 158.698C191.403 158.902 191.792 159.004 192.2 159.004C192.536 159.004 192.802 158.959 192.999 158.868C193.192 158.766 193.339 158.652 193.44 158.527C193.541 158.402 193.608 158.3 193.641 158.221C193.702 158.085 193.759 158.005 193.811 157.983C193.872 157.948 193.968 157.931 194.1 157.931H195.648C195.768 157.931 195.875 157.966 195.971 158.034C196.078 158.102 196.143 158.187 196.166 158.289C196.217 158.471 196.191 158.692 196.088 158.953C195.998 159.214 195.822 159.469 195.559 159.719C195.297 159.969 194.931 160.179 194.462 160.349C194 160.508 193.434 160.587 192.762 160.587ZM188.94 155.225H192.918L192.901 155.173C192.749 154.731 192.538 154.345 192.269 154.016C192 153.687 191.683 153.426 191.316 153.233C190.95 153.04 190.557 152.943 190.137 152.943C189.717 152.943 189.39 153.04 189.156 153.233C188.923 153.426 188.784 153.687 188.741 154.016C188.71 154.345 188.771 154.731 188.923 155.173L188.94 155.225Z" fill="white"/>
<g clip-path="url(#clip0_3880_51552)">
<path d="M95.7132 156.267C116.919 156.267 127.993 140.202 120.449 120.384C112.905 100.566 89.6001 84.501 68.3947 84.501C47.1893 84.501 36.1153 100.566 43.6593 120.384C51.2033 140.202 74.5079 156.267 95.7132 156.267Z" fill="url(#paint0_linear_3880_51552)"/>
<path d="M89.3447 141.916C88.977 141.916 88.6503 141.804 88.3648 141.581C88.0913 141.39 87.8939 141.134 87.7725 140.815L86.4977 137.466C83.9845 137.275 81.7284 136.749 79.7291 135.888C77.7178 134.994 76.0408 133.926 74.6981 132.682C73.3554 131.438 72.3836 130.114 71.7825 128.711C71.6854 128.456 71.7006 128.233 71.8284 128.041C71.9774 127.818 72.2023 127.706 72.5032 127.706H75.0604C75.4616 127.706 75.7988 127.802 76.0723 127.993C76.3457 128.185 76.5644 128.408 76.7284 128.663C77.2203 129.429 77.9296 130.194 78.8561 130.96C79.7705 131.693 80.9098 132.315 82.2741 132.826C83.6596 133.304 85.2884 133.543 87.1604 133.543C90.0352 133.543 91.959 133.065 92.9319 132.108C93.9261 131.119 94.1136 129.811 93.4943 128.185C93.0694 127.068 92.3617 126.175 91.3713 125.505C90.4022 124.804 89.079 124.182 87.4018 123.64C85.7245 123.097 83.5945 122.507 81.0117 121.869C78.3165 121.199 76.0148 120.466 74.1067 119.668C72.1986 118.871 70.6188 117.882 69.3673 116.702C68.1492 115.522 67.1941 114.023 66.5021 112.205C65.6157 109.876 65.7594 107.883 66.9332 106.224C68.0948 104.534 70.2757 103.545 73.4758 103.258L72.2192 99.9569C72.0977 99.6379 72.1009 99.3827 72.2286 99.1914C72.3442 98.9681 72.5858 98.8564 72.9535 98.8564H74.859C75.1932 98.8564 75.5032 98.9681 75.7887 99.1914C76.0956 99.3827 76.3097 99.6379 76.4311 99.9569L77.706 103.306C80.0428 103.561 82.1394 104.151 83.9958 105.076C85.8521 106.001 87.3954 107.07 88.6257 108.282C89.8559 109.494 90.7063 110.674 91.1768 111.822C91.2618 112.045 91.2632 112.269 91.1811 112.492C91.0868 112.683 90.8558 112.779 90.4881 112.779H87.8305C87.5965 112.779 87.3215 112.715 87.0055 112.588C86.723 112.46 86.4481 112.221 86.1808 111.87C85.4824 110.562 84.2947 109.462 82.6176 108.569C80.9405 107.676 79.0323 107.229 76.8928 107.229C74.72 107.229 73.1001 107.628 72.0331 108.425C70.9995 109.223 70.8044 110.467 71.4479 112.157C71.8608 113.241 72.5244 114.15 73.4387 114.884C74.341 115.586 75.5806 116.208 77.1576 116.75C78.7345 117.292 80.7415 117.866 83.1784 118.472C86.1198 119.174 88.5947 119.924 90.6031 120.721C92.5993 121.487 94.2232 122.459 95.4747 123.64C96.7475 124.788 97.7299 126.271 98.422 128.089C99.1141 129.907 99.2471 131.486 98.821 132.826C98.4284 134.165 97.5315 135.234 96.1302 136.031C94.7623 136.828 92.9615 137.323 90.7278 137.514L91.9845 140.815C92.1059 141.134 92.086 141.39 91.9249 141.581C91.8093 141.804 91.5844 141.916 91.2501 141.916H89.3447Z" fill="black"/>
</g>
<g filter="url(#filter0_f_3880_51552)">
<circle r="11.2796" transform="matrix(1 0 0.35576 0.934578 17.2691 87.7159)" stroke="white" stroke-width="1.44081"/>
<path d="M15.5625 83.2275L18.9778 92.1995" stroke="white" stroke-width="1.29078" stroke-linecap="round"/>
<path d="M12.4688 87.7158H22.0688" stroke="white" stroke-width="1.29078" stroke-linecap="round"/>
</g>
<g filter="url(#filter1_d_3880_51552)">
<circle r="11" transform="matrix(1 0 0.35576 0.934578 17.2691 87.7159)" stroke="white" stroke-width="2"/>
<path d="M15.5625 83.2275L18.9778 92.1995" stroke="white" stroke-width="1.29078" stroke-linecap="round"/>
<path d="M12.4688 87.7158H22.0688" stroke="white" stroke-width="1.29078" stroke-linecap="round"/>
</g>
<path d="M259.821 400.002C218.475 378.68 178.494 346.41 145.914 308.064C113.334 269.719 89.9241 227.378 79.2183 187.436" stroke="url(#paint1_linear_3880_51552)" stroke-width="5.54452"/>
<path d="M98.2432 71.7432C116.841 53.1441 144.463 44.3818 177.701 46.5371C210.939 48.6925 248.34 61.6712 285.291 83.8723" stroke="url(#paint2_linear_3880_51552)" stroke-width="5.54452"/>
<path d="M98.2432 71.7432C116.943 53.0415 144.765 44.2877 178.239 46.573C211.714 48.8582 249.361 62.0814 286.487 84.5942" stroke="url(#paint3_linear_3880_51552)" stroke-width="5.54452"/>
<path d="M415.229 213.204C434.471 244.856 447.019 276.992 451.721 306.664C456.424 336.335 453.131 362.594 442.144 383.032" stroke="url(#paint4_linear_3880_51552)" stroke-width="5.54452"/>
<path d="M406.073 171.092C405.977 171.092 405.876 171.058 405.768 170.99C405.673 170.922 405.608 170.836 405.573 170.734C405.557 170.689 405.551 170.638 405.556 170.581L406.124 159.6C406.121 159.487 406.154 159.39 406.222 159.311C406.299 159.22 406.428 159.175 406.608 159.175H408.57C408.75 159.175 408.903 159.22 409.03 159.311C409.154 159.39 409.259 159.487 409.346 159.6L417.454 170.581C417.485 170.638 417.509 170.689 417.525 170.734C417.56 170.836 417.553 170.922 417.504 170.99C417.456 171.058 417.383 171.092 417.287 171.092H415.721C415.553 171.092 415.416 171.058 415.308 170.99C415.209 170.91 415.136 170.836 415.088 170.768L413.529 168.691H408.183L408.05 170.768C408.05 170.836 408.021 170.91 407.964 170.99C407.916 171.058 407.807 171.092 407.639 171.092H406.073ZM408.141 166.734H412.227L408.369 161.473L408.141 166.734ZM422.539 171.262C421.915 171.262 421.33 171.166 420.783 170.973C420.245 170.768 419.758 170.485 419.321 170.121C418.884 169.758 418.498 169.333 418.163 168.845C417.823 168.345 417.54 167.8 417.314 167.21C417.231 167.006 417.163 166.824 417.109 166.665C417.05 166.495 416.992 166.308 416.934 166.104C416.763 165.536 416.672 165.008 416.66 164.52C416.66 164.032 416.754 163.607 416.942 163.244C417.137 162.869 417.434 162.58 417.831 162.375C418.241 162.171 418.758 162.069 419.382 162.069C420.03 162.069 420.613 162.177 421.131 162.392C421.657 162.597 422.127 162.863 422.54 163.192L421.242 159.413C421.203 159.3 421.206 159.203 421.251 159.124C421.308 159.044 421.402 159.004 421.534 159.004H423.064C423.184 159.004 423.3 159.044 423.411 159.124C423.522 159.203 423.597 159.3 423.636 159.413L427.506 170.683C427.545 170.797 427.536 170.893 427.479 170.973C427.423 171.052 427.334 171.092 427.214 171.092H425.792C425.66 171.092 425.539 171.052 425.427 170.973C425.328 170.893 425.259 170.797 425.22 170.683L425.004 170.053C424.825 170.405 424.54 170.695 424.15 170.922C423.772 171.149 423.235 171.262 422.539 171.262ZM422.579 169.44C423.083 169.44 423.448 169.333 423.674 169.117C423.9 168.901 424.029 168.629 424.06 168.3C424.087 167.959 424.046 167.613 423.937 167.261C423.879 167.057 423.811 166.841 423.733 166.614C423.651 166.376 423.569 166.155 423.487 165.95C423.358 165.61 423.163 165.287 422.902 164.98C422.637 164.662 422.319 164.401 421.949 164.197C421.579 163.993 421.154 163.89 420.674 163.89C420.17 163.89 419.805 163.998 419.579 164.214C419.361 164.418 419.244 164.691 419.229 165.031C419.214 165.372 419.265 165.746 419.381 166.155C419.486 166.495 419.603 166.836 419.732 167.176C419.896 167.585 420.103 167.959 420.352 168.3C420.601 168.64 420.906 168.918 421.268 169.134C421.638 169.338 422.075 169.44 422.579 169.44ZM429.608 174.326C429.488 174.326 429.372 174.287 429.261 174.207C429.15 174.128 429.075 174.031 429.036 173.918L428.697 172.93C428.658 172.817 428.667 172.721 428.723 172.641C428.78 172.562 428.868 172.522 428.988 172.522H429.456C429.828 172.522 430.083 172.459 430.22 172.335C430.357 172.21 430.417 172.034 430.399 171.807C430.385 171.591 430.331 171.347 430.238 171.075L427.344 162.648C427.305 162.534 427.314 162.438 427.371 162.358C427.427 162.279 427.516 162.239 427.636 162.239H429.202C429.322 162.239 429.437 162.279 429.549 162.358C429.66 162.438 429.735 162.534 429.774 162.648L432.679 171.109C432.909 171.778 432.974 172.352 432.874 172.828C432.785 173.305 432.528 173.674 432.102 173.935C431.687 174.196 431.084 174.326 430.292 174.326H429.608ZM427.061 160.775C426.929 160.775 426.809 160.741 426.702 160.673C426.591 160.593 426.514 160.491 426.471 160.366L426.05 159.141C426.011 159.027 426.02 158.931 426.077 158.851C426.133 158.772 426.228 158.732 426.36 158.732H428.052C428.184 158.732 428.305 158.772 428.417 158.851C428.528 158.931 428.603 159.027 428.642 159.141L429.063 160.366C429.106 160.491 429.099 160.593 429.042 160.673C428.981 160.741 428.885 160.775 428.753 160.775H427.061ZM438.605 171.262C437.873 171.262 437.185 171.109 436.539 170.802C435.902 170.485 435.342 170.042 434.859 169.475C434.373 168.896 433.995 168.215 433.726 167.432L432.083 162.648C432.044 162.534 432.053 162.438 432.11 162.358C432.167 162.279 432.255 162.239 432.375 162.239H433.959C434.091 162.239 434.207 162.279 434.306 162.358C434.417 162.438 434.492 162.534 434.531 162.648L436.139 167.329C436.622 168.737 437.518 169.44 438.826 169.44C439.45 169.44 439.877 169.253 440.109 168.879C440.352 168.504 440.361 167.988 440.135 167.329L438.527 162.648C438.488 162.534 438.497 162.438 438.554 162.358C438.611 162.279 438.699 162.239 438.819 162.239H440.403C440.523 162.239 440.639 162.279 440.75 162.358C440.861 162.438 440.936 162.534 440.975 162.648L443.734 170.683C443.773 170.797 443.765 170.893 443.708 170.973C443.651 171.052 443.563 171.092 443.443 171.092H441.985C441.853 171.092 441.731 171.052 441.62 170.973C441.521 170.893 441.451 170.797 441.412 170.683L441.173 169.985C440.985 170.382 440.69 170.695 440.288 170.922C439.886 171.149 439.325 171.262 438.605 171.262ZM449.857 171.262C449.137 171.262 448.492 171.183 447.921 171.024C447.362 170.865 446.88 170.666 446.474 170.428C446.069 170.19 445.747 169.951 445.509 169.713C445.271 169.475 445.119 169.276 445.052 169.117C444.997 168.992 445 168.896 445.061 168.828C445.13 168.748 445.218 168.708 445.326 168.708H446.748C446.796 168.708 446.84 168.714 446.88 168.725C446.92 168.737 446.979 168.771 447.059 168.828C447.258 168.952 447.465 169.083 447.679 169.219C447.906 169.355 448.157 169.475 448.432 169.577C448.703 169.667 449.019 169.713 449.379 169.713C449.847 169.713 450.208 169.628 450.461 169.457C450.723 169.276 450.797 169.021 450.684 168.691C450.602 168.453 450.464 168.26 450.269 168.113C450.087 167.965 449.79 167.834 449.379 167.721C448.964 167.596 448.391 167.466 447.661 167.329C446.938 167.182 446.316 166.995 445.794 166.768C445.272 166.541 444.844 166.257 444.511 165.916C444.179 165.576 443.934 165.179 443.778 164.725C443.626 164.282 443.62 163.862 443.76 163.465C443.907 163.056 444.212 162.721 444.675 162.46C445.149 162.199 445.8 162.069 446.628 162.069C447.276 162.069 447.868 162.148 448.402 162.307C448.933 162.455 449.393 162.642 449.783 162.869C450.185 163.096 450.511 163.329 450.761 163.567C451.007 163.794 451.165 163.993 451.235 164.163C451.29 164.288 451.289 164.39 451.233 164.469C451.172 164.537 451.088 164.571 450.98 164.571H449.648C449.588 164.571 449.53 164.56 449.474 164.537C449.418 164.515 449.36 164.486 449.301 164.452C449.13 164.339 448.945 164.22 448.746 164.095C448.547 163.97 448.318 163.862 448.059 163.771C447.808 163.669 447.502 163.618 447.142 163.618C446.686 163.618 446.371 163.715 446.198 163.908C446.02 164.089 445.98 164.322 446.077 164.606C446.144 164.798 446.256 164.969 446.415 165.116C446.581 165.252 446.86 165.383 447.251 165.508C447.642 165.633 448.215 165.763 448.97 165.899C449.82 166.036 450.526 166.24 451.088 166.512C451.658 166.773 452.099 167.08 452.412 167.432C452.733 167.772 452.965 168.152 453.109 168.572C453.285 169.083 453.28 169.543 453.097 169.951C452.925 170.36 452.568 170.683 452.026 170.922C451.492 171.149 450.769 171.262 449.857 171.262ZM460.027 171.092C459.307 171.092 458.66 170.973 458.087 170.734C457.513 170.496 457.026 170.144 456.626 169.679C456.222 169.202 455.9 168.612 455.658 167.908L454.331 164.044H452.909C452.789 164.044 452.674 164.004 452.562 163.925C452.451 163.845 452.376 163.749 452.337 163.635L451.998 162.648C451.959 162.534 451.968 162.438 452.025 162.358C452.081 162.279 452.17 162.239 452.29 162.239H453.712L452.741 159.413C452.702 159.3 452.705 159.203 452.75 159.124C452.807 159.044 452.901 159.004 453.033 159.004H454.491C454.611 159.004 454.727 159.044 454.838 159.124C454.949 159.203 455.024 159.3 455.063 159.413L456.034 162.239H458.284C458.404 162.239 458.519 162.279 458.631 162.358C458.742 162.438 458.817 162.534 458.856 162.648L459.195 163.635C459.234 163.749 459.225 163.845 459.168 163.925C459.112 164.004 459.023 164.044 458.903 164.044H456.653L457.922 167.738C458.082 168.203 458.29 168.567 458.548 168.828C458.818 169.089 459.168 169.219 459.6 169.219H460.842C460.962 169.219 461.078 169.259 461.189 169.338C461.301 169.418 461.376 169.514 461.415 169.628L461.777 170.683C461.816 170.797 461.807 170.893 461.75 170.973C461.694 171.052 461.605 171.092 461.485 171.092H460.027Z" fill="white"/>
<g filter="url(#filter2_b_3880_51552)">
<path fill-rule="evenodd" clip-rule="evenodd" d="M313.921 134.908C313.39 133.578 311.798 132.501 310.367 132.501C308.936 132.501 308.206 133.578 308.737 134.908L316.472 154.254C317.003 155.584 318.594 156.661 320.025 156.661C321.457 156.661 322.187 155.584 321.655 154.254L313.921 134.908ZM354.879 155.261C354.473 156.146 353.527 156.661 352.309 156.661H339.811C338.453 156.661 336.936 156.057 335.732 155.036C334.94 154.365 334.335 153.557 334.004 152.729L333.113 150.499C332.771 149.644 332.778 148.818 333.132 148.177C333.548 147.427 334.404 146.997 335.484 146.997H348.446C349.664 146.997 351.022 147.512 352.134 148.397C352.962 149.055 353.596 149.871 353.932 150.712L354.825 152.946C355.161 153.787 355.18 154.603 354.879 155.261ZM334.756 169.757C334.35 170.642 333.405 171.157 332.186 171.157H319.455C318.236 171.157 316.879 170.642 315.766 169.757C314.938 169.099 314.305 168.283 313.968 167.442L313.075 165.208C312.739 164.367 312.72 163.551 313.022 162.893C313.427 162.008 314.373 161.493 315.591 161.493H328.323C329.541 161.493 330.899 162.008 332.012 162.893C332.839 163.551 333.473 164.367 333.81 165.208L334.702 167.442C335.039 168.283 335.058 169.099 334.756 169.757ZM339.839 134.908C339.307 133.578 337.716 132.501 336.285 132.501C334.853 132.501 334.124 133.578 334.655 134.908L336.594 139.758C337.126 141.088 338.717 142.165 340.148 142.165C341.58 142.165 342.309 141.088 341.778 139.758L339.839 134.908ZM346.245 163.9C345.714 162.57 346.443 161.493 347.875 161.493C349.306 161.493 350.897 162.57 351.429 163.9L361.095 188.078C361.626 189.408 360.896 190.485 359.465 190.485C358.034 190.485 356.442 189.408 355.911 188.078L346.245 163.9ZM331.306 178.396C330.775 177.066 329.184 175.989 327.752 175.989C326.321 175.989 325.591 177.066 326.123 178.396L329.993 188.078C330.525 189.408 332.116 190.485 333.547 190.485C334.979 190.485 335.708 189.408 335.177 188.078L331.306 178.396ZM369.533 174.589C370.646 175.474 372.004 175.989 373.222 175.989H385.902C387.12 175.989 388.066 175.474 388.471 174.589C388.773 173.931 388.754 173.115 388.418 172.274L387.621 170.282C387.285 169.441 386.651 168.624 385.824 167.966C384.711 167.082 383.353 166.567 382.135 166.567H369.455C368.237 166.567 367.291 167.082 366.885 167.966C366.584 168.624 366.603 169.441 366.939 170.282L367.735 172.274C368.072 173.115 368.705 173.931 369.533 174.589ZM365.756 134.908C365.225 133.578 363.634 132.501 362.202 132.501C360.771 132.501 360.041 133.578 360.573 134.908L370.239 159.086C370.77 160.416 372.361 161.493 373.793 161.493C375.224 161.493 375.954 160.416 375.422 159.086L365.756 134.908ZM379.89 183.228C379.358 181.898 380.088 180.821 381.519 180.821C382.951 180.821 384.542 181.898 385.073 183.228L387.012 188.078C387.544 189.408 386.814 190.485 385.383 190.485C383.951 190.485 382.36 189.408 381.829 188.078L379.89 183.228Z" fill="white" fill-opacity="0.05"/>
<path d="M310.553 132.965C311.708 132.965 312.992 133.835 313.421 134.908L321.155 154.254C321.584 155.327 320.995 156.197 319.84 156.197C318.685 156.197 317.4 155.327 316.972 154.254L309.237 134.908C308.809 133.835 309.397 132.965 310.553 132.965ZM354.372 154.972C354.017 155.746 353.189 156.197 352.123 156.197H339.625C338.428 156.197 337.09 155.664 336.028 154.763C335.329 154.172 334.796 153.459 334.504 152.729L333.613 150.499C333.316 149.757 333.322 149.041 333.63 148.485C333.99 147.834 334.733 147.461 335.67 147.461H348.631C349.697 147.461 350.885 147.912 351.859 148.686C352.583 149.262 353.138 149.976 353.432 150.712L354.325 152.946C354.619 153.682 354.636 154.396 354.372 154.972ZM334.249 169.468C333.894 170.242 333.067 170.693 332.001 170.693H319.269C318.203 170.693 317.015 170.242 316.041 169.468C315.317 168.892 314.762 168.178 314.468 167.442L313.575 165.208C313.281 164.472 313.265 163.758 313.528 163.182C313.883 162.408 314.711 161.957 315.777 161.957H328.509C329.575 161.957 330.763 162.408 331.736 163.182C332.461 163.758 333.015 164.472 333.31 165.208L334.202 167.442C334.497 168.178 334.513 168.892 334.249 169.468ZM336.47 132.965C337.626 132.965 338.91 133.835 339.339 134.908L341.278 139.758C341.707 140.831 341.118 141.701 339.963 141.701C338.807 141.701 337.523 140.831 337.094 139.758L335.155 134.908C334.726 133.835 335.315 132.965 336.47 132.965ZM346.745 163.9C346.316 162.827 346.905 161.957 348.06 161.957C349.216 161.957 350.5 162.827 350.929 163.9L360.595 188.078C361.023 189.151 360.435 190.021 359.279 190.021C358.124 190.021 356.84 189.151 356.411 188.078L346.745 163.9ZM327.938 176.453C329.093 176.453 330.377 177.323 330.806 178.396L334.677 188.078C335.106 189.151 334.517 190.021 333.362 190.021C332.206 190.021 330.922 189.151 330.493 188.078L326.623 178.396C326.194 177.323 326.783 176.453 327.938 176.453ZM373.036 175.525C371.97 175.525 370.782 175.074 369.808 174.3C369.084 173.724 368.53 173.01 368.235 172.274L367.439 170.282C367.145 169.546 367.128 168.831 367.392 168.256C367.747 167.482 368.575 167.031 369.64 167.031H382.32C383.386 167.031 384.575 167.482 385.548 168.256C386.272 168.831 386.827 169.546 387.121 170.282L387.918 172.274C388.212 173.01 388.228 173.724 387.964 174.3C387.61 175.074 386.782 175.525 385.716 175.525H373.036ZM362.388 132.965C363.543 132.965 364.827 133.835 365.256 134.908L374.922 159.086C375.351 160.159 374.762 161.029 373.607 161.029C372.452 161.029 371.168 160.159 370.739 159.086L361.073 134.908C360.644 133.835 361.233 132.965 362.388 132.965ZM380.39 183.228C379.961 182.155 380.55 181.285 381.705 181.285C382.86 181.285 384.144 182.155 384.573 183.228L386.512 188.078C386.941 189.151 386.352 190.021 385.197 190.021C384.042 190.021 382.758 189.151 382.329 188.078L380.39 183.228Z" stroke="white" stroke-opacity="0.08"/>
</g>
<g filter="url(#filter3_f_3880_51552)">
<path fill-rule="evenodd" clip-rule="evenodd" d="M271.271 115.001C269.225 109.627 272.228 105.27 277.979 105.27C283.729 105.27 290.049 109.627 292.095 115.001C294.14 120.375 291.137 124.732 285.387 124.732C279.636 124.732 273.316 120.375 271.271 115.001ZM277.305 103.501C270.509 103.501 266.96 108.65 269.378 115.001C271.795 121.352 279.264 126.501 286.06 126.501C292.856 126.501 296.405 121.352 293.988 115.001C291.57 108.65 284.101 103.501 277.305 103.501ZM286.865 120.032C287.329 120.352 287.884 120.352 288.105 120.032C288.325 119.712 288.128 119.194 287.664 118.874L282.542 115.338L280.172 109.111C279.999 108.658 279.466 108.29 278.98 108.29C278.495 108.29 278.242 108.658 278.414 109.111L280.74 115.221C280.935 115.732 281.339 116.223 281.863 116.584L286.865 120.032Z" fill="#FCFCFC"/>
</g>
<path fill-rule="evenodd" clip-rule="evenodd" d="M271.271 115.001C269.225 109.627 272.228 105.27 277.979 105.27C283.729 105.27 290.049 109.627 292.095 115.001C294.14 120.375 291.137 124.732 285.387 124.732C279.636 124.732 273.316 120.375 271.271 115.001ZM277.305 103.501C270.509 103.501 266.96 108.65 269.378 115.001C271.795 121.352 279.264 126.501 286.06 126.501C292.856 126.501 296.405 121.352 293.988 115.001C291.57 108.65 284.101 103.501 277.305 103.501ZM286.865 120.032C287.329 120.352 287.884 120.352 288.105 120.032C288.325 119.712 288.128 119.194 287.664 118.874L282.542 115.338L280.172 109.111C279.999 108.658 279.466 108.29 278.98 108.29C278.495 108.29 278.242 108.658 278.414 109.111L280.74 115.221C280.935 115.732 281.339 116.223 281.863 116.584L286.865 120.032Z" fill="#FCFCFC"/>
<g filter="url(#filter4_b_3880_51552)">
<path fill-rule="evenodd" clip-rule="evenodd" d="M313.921 116.908C313.39 115.578 311.798 114.501 310.367 114.501C308.936 114.501 308.206 115.578 308.737 116.908L316.472 136.254C317.003 137.584 318.594 138.661 320.025 138.661C321.457 138.661 322.187 137.584 321.655 136.254L313.921 116.908ZM354.879 137.261C354.473 138.146 353.527 138.661 352.309 138.661H339.811C338.453 138.661 336.936 138.057 335.732 137.036C334.94 136.365 334.335 135.557 334.004 134.729L333.113 132.499C332.771 131.644 332.778 130.818 333.132 130.177C333.548 129.427 334.404 128.997 335.484 128.997H348.446C349.664 128.997 351.022 129.512 352.134 130.397C352.962 131.055 353.596 131.871 353.932 132.712L354.825 134.946C355.161 135.787 355.18 136.603 354.879 137.261ZM334.756 151.757C334.35 152.642 333.405 153.157 332.186 153.157H319.455C318.236 153.157 316.879 152.642 315.766 151.757C314.938 151.099 314.305 150.283 313.968 149.442L313.075 147.208C312.739 146.367 312.72 145.551 313.022 144.893C313.427 144.008 314.373 143.493 315.591 143.493H328.323C329.541 143.493 330.899 144.008 332.012 144.893C332.839 145.551 333.473 146.367 333.81 147.208L334.702 149.442C335.039 150.283 335.058 151.099 334.756 151.757ZM339.839 116.908C339.307 115.578 337.716 114.501 336.285 114.501C334.853 114.501 334.124 115.578 334.655 116.908L336.594 121.758C337.126 123.088 338.717 124.165 340.148 124.165C341.58 124.165 342.309 123.088 341.778 121.758L339.839 116.908ZM346.245 145.9C345.714 144.57 346.443 143.493 347.875 143.493C349.306 143.493 350.897 144.57 351.429 145.9L361.095 170.078C361.626 171.408 360.896 172.485 359.465 172.485C358.034 172.485 356.442 171.408 355.911 170.078L346.245 145.9ZM331.306 160.396C330.775 159.066 329.184 157.989 327.752 157.989C326.321 157.989 325.591 159.066 326.123 160.396L329.993 170.078C330.525 171.408 332.116 172.485 333.547 172.485C334.979 172.485 335.708 171.408 335.177 170.078L331.306 160.396ZM369.533 156.589C370.646 157.474 372.004 157.989 373.222 157.989H385.902C387.12 157.989 388.066 157.474 388.471 156.589C388.773 155.931 388.754 155.115 388.418 154.274L387.621 152.282C387.285 151.441 386.651 150.624 385.824 149.966C384.711 149.082 383.353 148.567 382.135 148.567H369.455C368.237 148.567 367.291 149.082 366.885 149.966C366.584 150.624 366.603 151.441 366.939 152.282L367.735 154.274C368.072 155.115 368.705 155.931 369.533 156.589ZM365.756 116.908C365.225 115.578 363.634 114.501 362.202 114.501C360.771 114.501 360.041 115.578 360.573 116.908L370.239 141.086C370.77 142.416 372.361 143.493 373.793 143.493C375.224 143.493 375.954 142.416 375.422 141.086L365.756 116.908ZM379.89 165.228C379.358 163.898 380.088 162.821 381.519 162.821C382.951 162.821 384.542 163.898 385.073 165.228L387.012 170.078C387.544 171.408 386.814 172.485 385.383 172.485C383.951 172.485 382.36 171.408 381.829 170.078L379.89 165.228Z" fill="url(#paint5_linear_3880_51552)"/>
</g>
<g filter="url(#filter5_f_3880_51552)">
<path d="M314.392 237.115C318.997 249.212 317.461 260.07 311.319 267.503L283.964 250.427H304.221C305.859 250.427 306.74 249.188 306.148 247.633C305.565 246.103 303.758 244.84 302.094 244.84H245.639C244.001 244.84 243.12 246.079 243.712 247.633C244.295 249.164 246.102 250.427 247.766 250.427H270.52L254.75 268.159C242.446 260.702 232.195 249.552 227.451 237.091C218.916 214.671 231.451 196.501 255.453 196.501C279.464 196.525 305.857 214.695 314.392 237.115Z" stroke="url(#paint6_linear_3880_51552)" stroke-width="3" stroke-miterlimit="10"/>
</g>
<path d="M314.392 237.115C318.997 249.212 317.461 260.07 311.319 267.503L283.964 250.427H304.221C305.859 250.427 306.74 249.188 306.148 247.633C305.565 246.103 303.758 244.84 302.094 244.84H245.639C244.001 244.84 243.12 246.079 243.712 247.633C244.295 249.164 246.102 250.427 247.766 250.427H270.519L254.75 268.159C242.446 260.702 232.195 249.552 227.451 237.091C218.916 214.671 231.451 196.501 255.453 196.501C279.464 196.525 305.857 214.695 314.392 237.115Z" stroke="url(#paint7_linear_3880_51552)" stroke-width="2" stroke-miterlimit="10"/>
<path d="M421.051 457.092C420.931 457.092 420.816 457.052 420.704 456.973C420.593 456.893 420.518 456.797 420.479 456.683L417.247 447.269H413.917C413.797 447.269 413.681 447.229 413.57 447.15C413.458 447.07 413.383 446.974 413.344 446.86L412.912 445.6C412.869 445.475 412.876 445.373 412.932 445.294C412.989 445.214 413.078 445.175 413.198 445.175H422.378C422.51 445.175 422.631 445.214 422.742 445.294C422.854 445.373 422.931 445.475 422.974 445.6L423.406 446.86C423.445 446.974 423.436 447.07 423.38 447.15C423.323 447.229 423.229 447.269 423.097 447.269H419.785L423.017 456.683C423.056 456.797 423.047 456.893 422.99 456.973C422.934 457.052 422.839 457.092 422.707 457.092H421.051ZM427.766 457.092C427.646 457.092 427.531 457.052 427.42 456.973C427.308 456.893 427.233 456.797 427.194 456.683L424.441 448.665C424.398 448.54 424.405 448.438 424.462 448.358C424.518 448.279 424.607 448.239 424.727 448.239H426.185C426.305 448.239 426.42 448.279 426.532 448.358C426.655 448.438 426.738 448.54 426.781 448.665L427.021 449.363C427.172 449 427.43 448.721 427.796 448.529C428.174 448.336 428.651 448.239 429.227 448.239H429.965C430.097 448.239 430.212 448.279 430.312 448.358C430.423 448.438 430.498 448.534 430.537 448.648L430.958 449.873C430.997 449.987 430.988 450.083 430.931 450.163C430.887 450.242 430.798 450.282 430.666 450.282H429.262C428.686 450.282 428.289 450.435 428.07 450.742C427.863 451.048 427.852 451.468 428.035 452.002L429.642 456.683C429.681 456.797 429.672 456.893 429.616 456.973C429.559 457.052 429.464 457.092 429.332 457.092H427.766ZM437.476 457.262C436.852 457.262 436.249 457.149 435.667 456.922C435.081 456.683 434.572 456.371 434.14 455.985C433.715 455.588 433.419 455.145 433.252 454.657C432.979 453.863 433.099 453.233 433.611 452.768C434.131 452.291 434.922 451.973 435.984 451.814L438.333 451.474L438.21 451.116C438.046 450.64 437.794 450.271 437.452 450.01C437.11 449.749 436.634 449.618 436.022 449.618C435.59 449.618 435.265 449.703 435.047 449.873C434.838 450.032 434.714 450.248 434.675 450.52C434.63 450.668 434.517 450.742 434.337 450.742H432.915C432.783 450.742 432.67 450.708 432.574 450.64C432.491 450.571 432.43 450.481 432.391 450.367C432.34 450.186 432.342 449.964 432.397 449.703C432.451 449.442 432.593 449.192 432.824 448.954C433.05 448.704 433.38 448.494 433.813 448.324C434.247 448.154 434.812 448.069 435.508 448.069C436.264 448.069 436.931 448.16 437.509 448.341C438.096 448.512 438.595 448.744 439.009 449.039C439.422 449.334 439.769 449.681 440.049 450.078C440.33 450.475 440.546 450.895 440.698 451.338L442.533 456.683C442.572 456.797 442.563 456.893 442.507 456.973C442.45 457.052 442.362 457.092 442.242 457.092H440.784C440.652 457.092 440.53 457.052 440.419 456.973C440.319 456.893 440.25 456.797 440.211 456.683L439.983 456.019C439.901 456.235 439.762 456.439 439.564 456.632C439.362 456.814 439.091 456.967 438.75 457.092C438.417 457.205 437.992 457.262 437.476 457.262ZM437.533 455.645C437.953 455.645 438.302 455.56 438.579 455.389C438.869 455.219 439.049 454.958 439.12 454.606C439.2 454.243 439.146 453.789 438.959 453.244L438.836 452.887L437.129 453.159C436.456 453.261 435.985 453.426 435.715 453.653C435.445 453.88 435.366 454.158 435.479 454.487C435.565 454.737 435.717 454.952 435.935 455.134C436.162 455.304 436.417 455.435 436.7 455.526C436.979 455.605 437.257 455.645 437.533 455.645ZM449.091 457.262C448.227 457.262 447.413 457.109 446.648 456.802C445.894 456.496 445.232 456.053 444.662 455.475C444.099 454.884 443.657 454.175 443.337 453.346C443.266 453.176 443.184 452.955 443.091 452.683C442.994 452.399 442.92 452.166 442.869 451.985C442.621 451.156 442.577 450.452 442.738 449.873C442.908 449.283 443.264 448.835 443.807 448.529C444.361 448.222 445.071 448.069 445.935 448.069C446.703 448.069 447.392 448.171 448.002 448.375C448.612 448.58 449.144 448.835 449.597 449.141C450.05 449.448 450.419 449.771 450.704 450.112C450.997 450.441 451.197 450.742 451.302 451.014C451.357 451.139 451.35 451.241 451.281 451.321C451.221 451.389 451.13 451.423 451.01 451.423H449.426C449.306 451.423 449.201 451.394 449.109 451.338C449.03 451.281 448.94 451.196 448.841 451.082C448.506 450.628 448.156 450.31 447.794 450.129C447.44 449.936 447.035 449.839 446.579 449.839C445.979 449.839 445.561 450.021 445.326 450.384C445.099 450.736 445.106 451.298 445.346 452.07C445.471 452.501 445.607 452.898 445.756 453.261C446.049 454.044 446.429 454.612 446.898 454.964C447.379 455.316 447.919 455.492 448.519 455.492C448.987 455.492 449.334 455.401 449.56 455.219C449.782 455.026 449.905 454.703 449.929 454.249C449.95 454.135 449.981 454.05 450.021 453.993C450.074 453.937 450.16 453.908 450.28 453.908H451.864C451.984 453.908 452.099 453.948 452.211 454.027C452.33 454.096 452.405 454.192 452.436 454.317C452.494 454.521 452.514 454.754 452.496 455.015C452.485 455.265 452.413 455.526 452.279 455.798C452.152 456.059 451.96 456.303 451.702 456.53C451.44 456.746 451.092 456.922 450.659 457.058C450.238 457.194 449.715 457.262 449.091 457.262ZM455.716 457.092C455.596 457.092 455.48 457.052 455.369 456.973C455.258 456.893 455.183 456.797 455.144 456.683L451.274 445.413C451.235 445.3 451.244 445.203 451.301 445.124C451.358 445.044 451.446 445.004 451.566 445.004H453.024C453.156 445.004 453.272 445.044 453.371 445.124C453.482 445.203 453.557 445.3 453.596 445.413L455.595 451.235L457.69 448.529C457.767 448.438 457.839 448.37 457.908 448.324C457.972 448.267 458.088 448.239 458.256 448.239H459.93C460.05 448.239 460.158 448.273 460.254 448.341C460.349 448.409 460.416 448.5 460.455 448.614C460.471 448.659 460.476 448.71 460.472 448.767C460.467 448.824 460.437 448.875 460.38 448.92L457.8 452.206L463.408 456.428C463.567 456.541 463.66 456.638 463.687 456.717C463.726 456.831 463.716 456.922 463.655 456.99C463.606 457.058 463.528 457.092 463.42 457.092H461.71C461.53 457.092 461.39 457.069 461.291 457.024C461.199 456.967 461.084 456.893 460.945 456.802L456.332 453.381L457.466 456.683C457.505 456.797 457.496 456.893 457.439 456.973C457.394 457.052 457.306 457.092 457.174 457.092H455.716Z" fill="white"/>
<path fill-rule="evenodd" clip-rule="evenodd" d="M392.606 416.735C397.911 430.671 393.087 444.597 382.215 460.368C360.862 445.648 343.911 430.671 338.606 416.735C333.3 402.798 341.088 391.501 356 391.501C370.912 391.501 387.3 402.798 392.606 416.735ZM370.406 429.352C377.862 429.352 381.756 423.703 379.104 416.735C376.451 409.767 368.257 404.118 360.801 404.118C353.345 404.118 349.451 409.767 352.104 416.735C354.756 423.703 362.95 429.352 370.406 429.352Z" fill="white" fill-opacity="0.05"/>
<path d="M382.215 460.368L381.987 460.698C382.252 460.881 382.569 460.881 382.694 460.698L382.215 460.368ZM382.694 460.698C393.568 444.923 398.489 430.877 393.106 416.735H392.106C397.332 430.465 392.605 444.27 381.736 460.037L382.694 460.698ZM338.106 416.735C340.802 423.819 346.445 431.133 354.058 438.501C361.673 445.871 371.29 453.324 381.987 460.698L382.443 460.037C371.787 452.691 362.252 445.297 354.726 438.014C347.199 430.73 341.714 423.586 339.106 416.735H338.106ZM355.822 391.034C340.634 391.034 332.702 402.54 338.106 416.735H339.106C333.899 403.056 341.542 391.968 356.178 391.968L355.822 391.034ZM393.106 416.735C387.702 402.54 371.01 391.034 355.822 391.034L356.178 391.968C370.814 391.968 386.899 403.056 392.106 416.735H393.106ZM378.604 416.735C381.158 423.445 377.408 428.884 370.228 428.884L370.584 429.819C378.316 429.819 382.354 423.961 379.604 416.735H378.604ZM360.979 404.585C368.158 404.585 376.049 410.025 378.604 416.735H379.604C376.853 409.509 368.355 403.651 360.623 403.651L360.979 404.585ZM352.604 416.735C350.049 410.025 353.799 404.585 360.979 404.585L360.623 403.651C352.891 403.651 348.853 409.509 351.604 416.735H352.604ZM370.228 428.884C363.049 428.884 355.158 423.445 352.604 416.735H351.604C354.354 423.961 362.852 429.819 370.584 429.819L370.228 428.884Z" fill="white" fill-opacity="0.08"/>
<path fill-rule="evenodd" clip-rule="evenodd" d="M393.606 407.735C398.911 421.671 394.087 435.597 383.215 451.368C361.862 436.648 344.911 421.671 339.606 407.735C334.3 393.798 342.088 382.501 357 382.501C371.912 382.501 388.3 393.798 393.606 407.735ZM371.406 420.352C378.862 420.352 382.756 414.703 380.104 407.735C377.451 400.767 369.257 395.118 361.801 395.118C354.345 395.118 350.451 400.767 353.104 407.735C355.756 414.703 363.95 420.352 371.406 420.352Z" fill="url(#paint8_linear_3880_51552)"/>
<path d="M321.277 393.635C327.905 393.635 331.2 388.68 328.639 382.568C326.077 376.456 318.627 371.501 312 371.501C305.373 371.501 302.077 376.456 304.639 382.568C307.2 388.68 314.65 393.635 321.277 393.635Z" stroke="#FCFCFC" stroke-width="2" stroke-linecap="round" stroke-linejoin="round"/>
<g filter="url(#filter6_f_3880_51552)">
<path d="M321.277 393.635C327.905 393.635 331.2 388.68 328.639 382.568C326.077 376.456 318.627 371.501 312 371.501C305.373 371.501 302.077 376.456 304.639 382.568C307.2 388.68 314.65 393.635 321.277 393.635Z" stroke="#FCFCFC" stroke-width="2" stroke-linecap="round" stroke-linejoin="round"/>
</g>
<path d="M318.492 386.995L321.437 382.568L314.781 378.142" stroke="#FCFCFC" stroke-linecap="round" stroke-linejoin="round"/>
<path d="M311.84 382.567H321.44" stroke="#FCFCFC" stroke-linecap="round" stroke-linejoin="round"/>
<defs>
<filter id="filter0_f_3880_51552" x="0.528809" y="72.501" width="33.4805" height="30.4297" filterUnits="userSpaceOnUse" color-interpolation-filters="sRGB">
<feFlood flood-opacity="0" result="BackgroundImageFix"/>
<feBlend mode="normal" in="SourceGraphic" in2="BackgroundImageFix" result="shape"/>
<feGaussianBlur stdDeviation="2" result="effect1_foregroundBlur_3880_51552"/>
</filter>
<filter id="filter1_d_3880_51552" x="0.528809" y="76.501" width="33.4805" height="30.4297" filterUnits="userSpaceOnUse" color-interpolation-filters="sRGB">
<feFlood flood-opacity="0" result="BackgroundImageFix"/>
<feColorMatrix in="SourceAlpha" type="matrix" values="0 0 0 0 0 0 0 0 0 0 0 0 0 0 0 0 0 0 127 0" result="hardAlpha"/>
<feOffset dy="4"/>
<feGaussianBlur stdDeviation="2"/>
<feComposite in2="hardAlpha" operator="out"/>
<feColorMatrix type="matrix" values="0 0 0 0 0 0 0 0 0 0 0 0 0 0 0 0 0 0 0.25 0"/>
<feBlend mode="normal" in2="BackgroundImageFix" result="effect1_dropShadow_3880_51552"/>
<feBlend mode="normal" in="SourceGraphic" in2="effect1_dropShadow_3880_51552" result="shape"/>
</filter>
<filter id="filter2_b_3880_51552" x="295.249" y="119.186" width="106.751" height="84.6152" filterUnits="userSpaceOnUse" color-interpolation-filters="sRGB">
<feFlood flood-opacity="0" result="BackgroundImageFix"/>
<feGaussianBlur in="BackgroundImage" stdDeviation="6.6577"/>
<feComposite in2="SourceAlpha" operator="in" result="effect1_backgroundBlur_3880_51552"/>
<feBlend mode="normal" in="SourceGraphic" in2="effect1_backgroundBlur_3880_51552" result="shape"/>
</filter>
<filter id="filter3_f_3880_51552" x="265.869" y="100.751" width="31.6279" height="28.5" filterUnits="userSpaceOnUse" color-interpolation-filters="sRGB">
<feFlood flood-opacity="0" result="BackgroundImageFix"/>
<feBlend mode="normal" in="SourceGraphic" in2="BackgroundImageFix" result="shape"/>
<feGaussianBlur stdDeviation="1.375" result="effect1_foregroundBlur_3880_51552"/>
</filter>
<filter id="filter4_b_3880_51552" x="295.249" y="101.186" width="106.751" height="84.6152" filterUnits="userSpaceOnUse" color-interpolation-filters="sRGB">
<feFlood flood-opacity="0" result="BackgroundImageFix"/>
<feGaussianBlur in="BackgroundImage" stdDeviation="6.6577"/>
<feComposite in2="SourceAlpha" operator="in" result="effect1_backgroundBlur_3880_51552"/>
<feBlend mode="normal" in="SourceGraphic" in2="effect1_backgroundBlur_3880_51552" result="shape"/>
</filter>
<filter id="filter5_f_3880_51552" x="218.037" y="189.956" width="105.768" height="85.1796" filterUnits="userSpaceOnUse" color-interpolation-filters="sRGB">
<feFlood flood-opacity="0" result="BackgroundImageFix"/>
<feBlend mode="normal" in="SourceGraphic" in2="BackgroundImageFix" result="shape"/>
<feGaussianBlur stdDeviation="2.57152" result="effect1_foregroundBlur_3880_51552"/>
</filter>
<filter id="filter6_f_3880_51552" x="298.697" y="366.579" width="35.8823" height="31.9785" filterUnits="userSpaceOnUse" color-interpolation-filters="sRGB">
<feFlood flood-opacity="0" result="BackgroundImageFix"/>
<feBlend mode="normal" in="SourceGraphic" in2="BackgroundImageFix" result="shape"/>
<feGaussianBlur stdDeviation="2" result="effect1_foregroundBlur_3880_51552"/>
</filter>
<linearGradient id="paint0_linear_3880_51552" x1="95.7095" y1="156.281" x2="95.7095" y2="84.5083" gradientUnits="userSpaceOnUse">
<stop stop-color="#FFBF00"/>
<stop offset="1" stop-color="#E843C4"/>
</linearGradient>
<linearGradient id="paint1_linear_3880_51552" x1="452.868" y1="431.917" x2="307.059" y2="41.1073" gradientUnits="userSpaceOnUse">
<stop stop-color="#FFBF00" stop-opacity="0"/>
<stop offset="1" stop-color="#E843C4"/>
</linearGradient>
<linearGradient id="paint2_linear_3880_51552" x1="213.242" y1="49.9681" x2="126.579" y2="373.399" gradientUnits="userSpaceOnUse">
<stop stop-color="#FFBF00" stop-opacity="0"/>
<stop offset="1" stop-color="#E843C4"/>
</linearGradient>
<linearGradient id="paint3_linear_3880_51552" x1="371.364" y1="117.543" x2="97.5241" y2="-158.13" gradientUnits="userSpaceOnUse">
<stop offset="0.127985" stop-color="#E843C4"/>
<stop offset="0.828074" stop-color="#FFBF00" stop-opacity="0"/>
</linearGradient>
<linearGradient id="paint4_linear_3880_51552" x1="443.5" y1="388.501" x2="560.894" y2="200.79" gradientUnits="userSpaceOnUse">
<stop offset="0.0864582" stop-color="#E843C4"/>
<stop offset="0.828074" stop-color="#FFBF00" stop-opacity="0"/>
</linearGradient>
<linearGradient id="paint5_linear_3880_51552" x1="336.259" y1="114.501" x2="336.259" y2="172.485" gradientUnits="userSpaceOnUse">
<stop stop-color="#FFBF00"/>
<stop offset="1" stop-color="#E843C4"/>
</linearGradient>
<linearGradient id="paint6_linear_3880_51552" x1="242.887" y1="163.277" x2="242.887" y2="293.252" gradientUnits="userSpaceOnUse">
<stop stop-color="#FFBF00"/>
<stop offset="1" stop-color="#E843C4"/>
</linearGradient>
<linearGradient id="paint7_linear_3880_51552" x1="255.466" y1="196.501" x2="255.466" y2="268.159" gradientUnits="userSpaceOnUse">
<stop stop-color="#FFBF00"/>
<stop offset="1" stop-color="#E843C4"/>
</linearGradient>
<linearGradient id="paint8_linear_3880_51552" x1="383.214" y1="451.382" x2="383.214" y2="382.508" gradientUnits="userSpaceOnUse">
<stop stop-color="#FFBF00"/>
<stop offset="1" stop-color="#E843C4"/>
</linearGradient>
<clipPath id="clip0_3880_51552">
<rect width="76.7894" height="76.7894" fill="white" transform="matrix(1 0 0.35576 0.934578 30 84.501)"/>
</clipPath>
</defs>
</svg>
