<svg width="78" height="612" viewBox="0 0 78 612" fill="none" xmlns="http://www.w3.org/2000/svg">
<path d="M47.5 0.5C46.6716 0.5 46 1.17157 46 2C46 2.82843 46.6716 3.5 47.5 3.5V0.5ZM0.93934 599.439C0.353553 600.025 0.353553 600.975 0.93934 601.561L10.4853 611.107C11.0711 611.692 12.0208 611.692 12.6066 611.107C13.1924 610.521 13.1924 609.571 12.6066 608.985L4.12132 600.5L12.6066 592.015C13.1924 591.429 13.1924 590.479 12.6066 589.893C12.0208 589.308 11.0711 589.308 10.4853 589.893L0.93934 599.439ZM47.5 217C46.6716 217 46 217.672 46 218.5C46 219.328 46.6716 220 47.5 220V217ZM47.5 429C46.6716 429 46 429.672 46 430.5C46 431.328 46.6716 432 47.5 432V429ZM47.5 3.5H66V0.5H47.5V3.5ZM66 599H2V602H66V599ZM74.5 12V218.5H77.5V12H74.5ZM76 217H47.5V220H76V217ZM74.5 218.5V430.5H77.5V218.5H74.5ZM74.5 430.5V590.5H77.5V430.5H74.5ZM76 429H47.5V432H76V429ZM66 602C72.3513 602 77.5 596.851 77.5 590.5H74.5C74.5 595.194 70.6944 599 66 599V602ZM66 3.5C70.6944 3.5 74.5 7.30558 74.5 12H77.5C77.5 5.64873 72.3513 0.5 66 0.5V3.5Z" fill="#FFBF00"/>
</svg>
