<svg width="1022" height="174" viewBox="0 0 1022 174" fill="none" xmlns="http://www.w3.org/2000/svg">
<g filter="url(#filter0_d_4956_49649)">
<circle cx="935" cy="83" r="82" fill="#211426" fill-opacity="0.33" shape-rendering="crispEdges"/>
<circle cx="935" cy="83" r="82" stroke="white" stroke-opacity="0.05" shape-rendering="crispEdges"/>
</g>
<path d="M968.635 83.3217C968.635 89.9144 966.68 96.359 963.018 101.841C959.355 107.322 954.149 111.595 948.058 114.118C941.967 116.641 935.265 117.301 928.799 116.014C922.333 114.728 916.394 111.554 911.732 106.892C907.07 102.23 903.895 96.2907 902.609 89.8247C901.323 83.3586 901.983 76.6564 904.506 70.5656C907.029 64.4747 911.301 59.2688 916.783 55.606C922.265 51.9433 928.709 49.9884 935.302 49.9884C939.682 49.9781 944.021 50.8333 948.07 52.5049C952.119 54.1764 955.798 56.6313 958.895 59.7286C961.992 62.8259 964.447 66.5046 966.119 70.5535C967.79 74.6023 968.646 78.9414 968.635 83.3217V83.3217Z" fill="url(#paint0_linear_4956_49649)" stroke="url(#paint1_linear_4956_49649)" stroke-width="4.3906"/>
<path d="M940.929 95.8077H929.596C925.851 95.7659 922.173 96.7975 918.995 98.7804C915.818 100.763 913.276 103.615 911.668 106.997C918.013 113.059 926.473 116.405 935.247 116.323C944.021 116.241 952.417 112.738 958.648 106.559C956.994 103.291 954.457 100.551 951.325 98.6511C948.194 96.7508 944.592 95.7658 940.929 95.8077V95.8077ZM935.263 66.3242C928.393 66.3242 922.844 71.6183 922.844 78.0889C922.844 84.5594 928.4 89.8535 935.263 89.8535C942.125 89.8535 947.681 84.5594 947.681 78.0889C947.681 71.6183 942.125 66.3242 935.263 66.3242Z" fill="#1E1322"/>
<path d="M968.635 83.3217C968.635 89.9144 966.68 96.359 963.018 101.841C959.355 107.322 954.149 111.595 948.058 114.118C941.967 116.641 935.265 117.301 928.799 116.014C922.333 114.728 916.394 111.554 911.732 106.892C907.07 102.23 903.895 96.2907 902.609 89.8247C901.323 83.3586 901.983 76.6564 904.506 70.5656C907.029 64.4747 911.301 59.2688 916.783 55.606C922.265 51.9433 928.709 49.9884 935.302 49.9884C939.682 49.9781 944.021 50.8333 948.07 52.5049C952.119 54.1764 955.798 56.6313 958.895 59.7286C961.992 62.8259 964.447 66.5046 966.119 70.5535C967.79 74.6023 968.646 78.9414 968.635 83.3217V83.3217Z" stroke="url(#paint2_linear_4956_49649)" stroke-width="1.17778"/>
<g filter="url(#filter1_d_4956_49649)">
<circle cx="511.5" cy="82.5" r="81.5" fill="#211426" fill-opacity="0.33" shape-rendering="crispEdges"/>
<circle cx="511.5" cy="82.5" r="81.5" stroke="url(#paint3_linear_4956_49649)" shape-rendering="crispEdges"/>
</g>
<g filter="url(#filter2_f_4956_49649)">
<path fill-rule="evenodd" clip-rule="evenodd" d="M512.894 35.3273C495.147 35.3275 480.765 50.8029 480.765 69.8992C480.765 80.3121 485.039 89.6492 491.812 95.9979L507.09 82.1394H491.632C490.033 82.1394 488.761 80.7419 488.761 79.0508C488.761 77.3311 490.06 75.9622 491.632 75.9622H534.176C535.775 75.9622 537.047 77.3597 537.047 79.0508C537.047 80.7705 535.748 82.1394 534.176 82.1394H520.55L534.621 95.4115C541.022 89.0929 545.043 80.0131 545.043 69.9203C545.043 50.8246 530.642 35.3481 512.894 35.3273ZM479.531 69.8992C479.531 50.07 494.466 34 512.894 34H512.895C531.322 34.0215 546.277 50.0904 546.277 69.9203C546.277 80.6193 541.923 90.2231 535.036 96.796L534.629 97.1844L517.271 80.8121H534.176C535.074 80.8121 535.813 80.0302 535.813 79.0508C535.813 78.085 535.086 77.2895 534.176 77.2895H491.632C490.735 77.2895 489.995 78.0714 489.995 79.0508C489.995 80.0166 490.722 80.8121 491.632 80.8121H510.468L491.808 97.7371L491.41 97.3762C484.144 90.782 479.531 80.9205 479.531 69.8992Z" fill="url(#paint4_linear_4956_49649)"/>
</g>
<g filter="url(#filter3_d_4956_49649)">
<path fill-rule="evenodd" clip-rule="evenodd" d="M511.989 35.0546C493.236 35.0547 478.039 50.4841 478.039 69.5237C478.039 79.9461 482.591 89.2877 489.796 95.6186L506.236 81.5489H489.608C487.998 81.5489 486.716 80.2206 486.716 78.6131C486.716 76.9786 488.024 75.6773 489.608 75.6773H534.392C536.002 75.6773 537.284 77.0055 537.284 78.6131C537.284 80.2475 535.976 81.5489 534.392 81.5489H519.703L534.862 95.0396C541.676 88.7368 545.961 79.6499 545.961 69.5446C545.961 50.5056 530.743 35.0754 511.989 35.0546ZM477 69.5237C477 49.9018 492.663 34 511.99 34H511.99C531.316 34.0213 547 49.9222 547 69.5446C547 80.1317 542.435 89.6348 535.211 96.1392L534.869 96.4478L516.942 80.4943H534.392C535.408 80.4943 536.245 79.6594 536.245 78.6131C536.245 77.5818 535.423 76.7319 534.392 76.7319H489.608C488.592 76.7319 487.755 77.5668 487.755 78.6131C487.755 79.6444 488.578 80.4943 489.608 80.4943H509.08L489.793 97L489.458 96.7133C481.838 90.1878 477 80.4296 477 69.5237Z" fill="url(#paint5_linear_4956_49649)"/>
</g>
<path d="M465.298 110.386H463.07L457.454 114.968V108.203H456V118.321H457.454V116.789L460.734 114.115L464.648 118.321H466.567L461.833 113.204L465.298 110.386Z" fill="url(#paint6_linear_4956_49649)"/>
<path d="M475.085 110.386H467.35V111.745H475.085C475.967 111.745 476.679 112.424 476.679 113.248V113.667H469.825C468.448 113.667 467.35 114.708 467.35 115.994C467.35 117.281 468.448 118.321 469.825 118.321H478.149V113.248C478.149 111.672 476.787 110.386 475.085 110.386ZM476.679 116.948H469.825C469.253 116.948 468.804 116.529 468.804 115.994C468.804 115.474 469.253 115.04 469.825 115.04H476.679V116.948Z" fill="url(#paint7_linear_4956_49649)"/>
<path d="M488.79 113.667H482.942C482.385 113.667 481.937 113.233 481.937 112.699C481.937 112.178 482.385 111.745 482.942 111.745H491.266V110.386H482.942C481.581 110.386 480.467 111.412 480.467 112.699C480.467 113.999 481.581 115.04 482.942 115.04H488.79C489.363 115.04 489.812 115.474 489.812 115.994C489.812 116.529 489.363 116.948 488.79 116.948H480.467V118.321H488.79C490.167 118.321 491.266 117.281 491.266 115.994C491.266 114.708 490.167 113.667 488.79 113.667Z" fill="url(#paint8_linear_4956_49649)"/>
<path d="M501.908 113.667H496.06C495.503 113.667 495.054 113.233 495.054 112.699C495.054 112.178 495.503 111.745 496.06 111.745H504.383V110.386H496.06C494.698 110.386 493.584 111.412 493.584 112.699C493.584 113.999 494.698 115.04 496.06 115.04H501.908C502.48 115.04 502.929 115.474 502.929 115.994C502.929 116.529 502.48 116.948 501.908 116.948H493.584V118.321H501.908C503.285 118.321 504.383 117.281 504.383 115.994C504.383 114.708 503.285 113.667 501.908 113.667Z" fill="url(#paint9_linear_4956_49649)"/>
<path d="M514.437 110.386H506.702V111.745H514.437C515.319 111.745 516.031 112.424 516.031 113.248V113.667H509.177C507.8 113.667 506.702 114.708 506.702 115.994C506.702 117.281 507.8 118.321 509.177 118.321H517.5V113.248C517.5 111.672 516.139 110.386 514.437 110.386ZM516.031 116.948H509.177C508.605 116.948 508.156 116.529 508.156 115.994C508.156 115.474 508.605 115.04 509.177 115.04H516.031V116.948Z" fill="url(#paint10_linear_4956_49649)"/>
<path d="M527.57 110.386H519.819V118.321H521.273V111.745H527.57C528.436 111.745 529.164 112.424 529.164 113.248V118.321H530.618V113.248C530.618 111.672 529.241 110.386 527.57 110.386Z" fill="url(#paint11_linear_4956_49649)"/>
<path d="M542.281 110.386H536C534.313 110.386 532.936 111.672 532.936 113.248V115.445C532.936 117.035 534.313 118.321 536 118.321H543.751V108.203H542.281V110.386ZM542.281 116.948H536C535.118 116.948 534.391 116.269 534.391 115.445V113.248C534.391 112.424 535.118 111.745 536 111.745H542.281V116.948Z" fill="url(#paint12_linear_4956_49649)"/>
<path d="M546.069 113.248V118.321H547.523V113.248C547.523 112.424 548.235 111.745 549.132 111.745H556.883V110.386H549.132C547.43 110.386 546.069 111.672 546.069 113.248Z" fill="url(#paint13_linear_4956_49649)"/>
<path d="M566.937 110.386H559.201V111.745H566.937C567.819 111.745 568.53 112.424 568.53 113.248V113.667H561.676C560.3 113.667 559.201 114.708 559.201 115.994C559.201 117.281 560.3 118.321 561.676 118.321H570V113.248C570 111.672 568.639 110.386 566.937 110.386ZM568.53 116.948H561.676C561.104 116.948 560.655 116.529 560.655 115.994C560.655 115.474 561.104 115.04 561.676 115.04H568.53V116.948Z" fill="url(#paint14_linear_4956_49649)"/>
<g filter="url(#filter4_d_4956_49649)">
<circle cx="87" cy="83" r="82" fill="#211426" fill-opacity="0.33" shape-rendering="crispEdges"/>
<circle cx="87" cy="83" r="82" stroke="white" stroke-opacity="0.05" shape-rendering="crispEdges"/>
</g>
<path d="M79.93 74.6667C81.61 72.6333 84.1533 71.3333 87 71.3333C89.8467 71.3333 92.39 72.6333 94.07 74.6667C95.1761 76.0077 95.878 77.6356 96.094 79.3605C96.3099 81.0853 96.031 82.836 95.2897 84.4084C94.5484 85.9807 93.3753 87.3099 91.9072 88.2408C90.4392 89.1717 88.7367 89.6659 86.9983 89.6659C85.26 89.6659 83.5575 89.1717 82.0894 88.2408C80.6214 87.3099 79.4483 85.9807 78.707 84.4084C77.9657 82.836 77.6867 81.0853 77.9027 79.3605C78.1186 77.6356 78.8206 76.0077 79.9267 74.6667H79.93ZM99.5 80.5C99.5 78.3933 98.98 76.4067 98.06 74.6667H112C113.326 74.6667 114.598 75.1934 115.536 76.1311C116.473 77.0688 117 78.3406 117 79.6667V81.3333C117 86.6233 112.98 92.04 105.95 93.9467C105.228 92.6489 104.171 91.5679 102.891 90.8154C101.61 90.0629 100.152 89.6663 98.6667 89.6667H95.5C96.7634 88.4977 97.7711 87.0797 98.4595 85.502C99.148 83.9244 99.5022 82.2213 99.5 80.5ZM98.6667 93C99.3238 92.9982 99.9747 93.1264 100.582 93.377C101.19 93.6277 101.741 93.9959 102.206 94.4605C102.671 94.9252 103.039 95.4771 103.29 96.0845C103.54 96.6919 103.668 97.3429 103.667 98V99.6667C103.667 106.237 97.4667 113 87 113C76.5333 113 70.3333 106.237 70.3333 99.6667V98C70.3316 97.3429 70.4597 96.6919 70.7104 96.0845C70.961 95.4771 71.3292 94.9252 71.7939 94.4605C72.2585 93.9959 72.8104 93.6277 73.4178 93.377C74.0253 93.1264 74.6762 92.9982 75.3333 93H98.6667ZM57 81.3333C57 86.6233 61.02 92.04 68.05 93.9467C68.7724 92.6489 69.8286 91.5679 71.1091 90.8154C72.3897 90.0629 73.8481 89.6663 75.3333 89.6667H78.5C77.2366 88.4977 76.2289 87.0797 75.5405 85.502C74.852 83.9244 74.4978 82.2213 74.5 80.5C74.5 78.3933 75.02 76.4067 75.9433 74.6667H62C60.6739 74.6667 59.4021 75.1934 58.4645 76.1311C57.5268 77.0688 57 78.3406 57 79.6667V81.3333ZM82.8333 62.1667C82.8333 59.7355 81.8676 57.4039 80.1485 55.6849C78.4294 53.9658 76.0978 53 73.6667 53C71.2355 53 68.9039 53.9658 67.1849 55.6849C65.4658 57.4039 64.5 59.7355 64.5 62.1667C64.5 64.5978 65.4658 66.9294 67.1849 68.6485C68.9039 70.3676 71.2355 71.3333 73.6667 71.3333C76.0978 71.3333 78.4294 70.3676 80.1485 68.6485C81.8676 66.9294 82.8333 64.5978 82.8333 62.1667V62.1667ZM109.5 62.1667C109.5 59.7355 108.534 57.4039 106.815 55.6849C105.096 53.9658 102.764 53 100.333 53C97.9022 53 95.5706 53.9658 93.8515 55.6849C92.1324 57.4039 91.1667 59.7355 91.1667 62.1667C91.1667 64.5978 92.1324 66.9294 93.8515 68.6485C95.5706 70.3676 97.9022 71.3333 100.333 71.3333C102.764 71.3333 105.096 70.3676 106.815 68.6485C108.534 66.9294 109.5 64.5978 109.5 62.1667V62.1667Z" fill="url(#paint15_linear_4956_49649)"/>
<g filter="url(#filter5_d_4956_49649)">
<path d="M254.456 131C254.368 131 254.3 130.976 254.252 130.928C254.204 130.872 254.18 130.804 254.18 130.724V122.888C254.18 122.8 254.204 122.732 254.252 122.684C254.3 122.628 254.368 122.6 254.456 122.6H257.744C258.344 122.6 258.832 122.7 259.208 122.9C259.592 123.092 259.872 123.356 260.048 123.692C260.232 124.028 260.324 124.404 260.324 124.82C260.324 125.148 260.268 125.432 260.156 125.672C260.052 125.904 259.92 126.096 259.76 126.248C259.6 126.392 259.444 126.504 259.292 126.584C259.604 126.736 259.88 126.984 260.12 127.328C260.368 127.672 260.492 128.088 260.492 128.576C260.492 129.016 260.392 129.42 260.192 129.788C259.992 130.156 259.692 130.452 259.292 130.676C258.9 130.892 258.412 131 257.828 131H254.456ZM255.356 130.028H257.672C258.192 130.028 258.592 129.888 258.872 129.608C259.152 129.328 259.292 128.984 259.292 128.576C259.292 128.152 259.152 127.804 258.872 127.532C258.592 127.252 258.192 127.112 257.672 127.112H255.356V130.028ZM255.356 126.152H257.564C258.076 126.152 258.464 126.036 258.728 125.804C258.992 125.564 259.124 125.24 259.124 124.832C259.124 124.424 258.992 124.112 258.728 123.896C258.464 123.68 258.076 123.572 257.564 123.572H255.356V126.152ZM268.003 131.12C267.331 131.12 266.751 131 266.263 130.76C265.783 130.52 265.411 130.156 265.147 129.668C264.891 129.172 264.763 128.536 264.763 127.76V122.888C264.763 122.8 264.787 122.732 264.835 122.684C264.883 122.628 264.951 122.6 265.039 122.6H265.651C265.739 122.6 265.807 122.628 265.855 122.684C265.911 122.732 265.939 122.8 265.939 122.888V127.784C265.939 128.568 266.123 129.148 266.491 129.524C266.859 129.9 267.363 130.088 268.003 130.088C268.635 130.088 269.135 129.9 269.503 129.524C269.879 129.148 270.067 128.568 270.067 127.784V122.888C270.067 122.8 270.091 122.732 270.139 122.684C270.195 122.628 270.263 122.6 270.343 122.6H270.967C271.047 122.6 271.111 122.628 271.159 122.684C271.215 122.732 271.243 122.8 271.243 122.888V127.76C271.243 128.536 271.111 129.172 270.847 129.668C270.591 130.156 270.223 130.52 269.743 130.76C269.263 131 268.683 131.12 268.003 131.12ZM278.409 131C278.329 131 278.261 130.976 278.205 130.928C278.157 130.872 278.133 130.804 278.133 130.724V127.892L275.241 122.996C275.233 122.972 275.225 122.948 275.217 122.924C275.209 122.9 275.205 122.872 275.205 122.84C275.205 122.776 275.229 122.72 275.277 122.672C275.325 122.624 275.381 122.6 275.445 122.6H276.069C276.141 122.6 276.205 122.62 276.261 122.66C276.317 122.692 276.357 122.74 276.381 122.804L278.721 126.692L281.061 122.804C281.101 122.74 281.145 122.692 281.193 122.66C281.249 122.62 281.313 122.6 281.385 122.6H281.997C282.069 122.6 282.129 122.624 282.177 122.672C282.225 122.72 282.249 122.776 282.249 122.84C282.249 122.872 282.245 122.9 282.237 122.924C282.229 122.948 282.217 122.972 282.201 122.996L279.321 127.892V130.724C279.321 130.804 279.293 130.872 279.237 130.928C279.189 130.976 279.121 131 279.033 131H278.409ZM290.648 131C290.584 131 290.528 130.976 290.48 130.928C290.432 130.88 290.408 130.824 290.408 130.76C290.408 130.72 290.412 130.676 290.42 130.628L293.396 122.864C293.428 122.784 293.472 122.72 293.528 122.672C293.584 122.624 293.668 122.6 293.78 122.6H294.596C294.7 122.6 294.78 122.624 294.836 122.672C294.9 122.72 294.948 122.784 294.98 122.864L297.944 130.628C297.96 130.676 297.968 130.72 297.968 130.76C297.968 130.824 297.944 130.88 297.896 130.928C297.848 130.976 297.792 131 297.728 131H297.116C297.02 131 296.948 130.976 296.9 130.928C296.86 130.88 296.832 130.836 296.816 130.796L296.156 129.092H292.22L291.56 130.796C291.552 130.836 291.524 130.88 291.476 130.928C291.428 130.976 291.356 131 291.26 131H290.648ZM292.568 128.06H295.808L294.188 123.8L292.568 128.06ZM304.474 131.12C303.778 131.12 303.194 131.016 302.722 130.808C302.25 130.592 301.886 130.316 301.63 129.98C301.382 129.636 301.25 129.272 301.234 128.888C301.234 128.824 301.258 128.768 301.306 128.72C301.362 128.664 301.426 128.636 301.498 128.636H302.11C302.206 128.636 302.278 128.66 302.326 128.708C302.374 128.756 302.406 128.812 302.422 128.876C302.462 129.068 302.558 129.26 302.71 129.452C302.87 129.636 303.09 129.792 303.37 129.92C303.658 130.04 304.026 130.1 304.474 130.1C305.162 130.1 305.666 129.98 305.986 129.74C306.314 129.492 306.478 129.164 306.478 128.756C306.478 128.476 306.39 128.252 306.214 128.084C306.046 127.908 305.786 127.752 305.434 127.616C305.082 127.48 304.626 127.332 304.066 127.172C303.482 127.004 302.998 126.82 302.614 126.62C302.23 126.42 301.942 126.172 301.75 125.876C301.566 125.58 301.474 125.204 301.474 124.748C301.474 124.316 301.59 123.932 301.822 123.596C302.054 123.252 302.386 122.98 302.818 122.78C303.258 122.58 303.79 122.48 304.414 122.48C304.91 122.48 305.342 122.548 305.71 122.684C306.086 122.812 306.398 122.988 306.646 123.212C306.894 123.428 307.082 123.664 307.21 123.92C307.338 124.168 307.406 124.412 307.414 124.652C307.414 124.708 307.394 124.764 307.354 124.82C307.314 124.868 307.25 124.892 307.162 124.892H306.526C306.47 124.892 306.41 124.876 306.346 124.844C306.29 124.812 306.246 124.752 306.214 124.664C306.166 124.336 305.982 124.06 305.662 123.836C305.342 123.612 304.926 123.5 304.414 123.5C303.894 123.5 303.47 123.6 303.142 123.8C302.822 124 302.662 124.312 302.662 124.736C302.662 125.008 302.738 125.236 302.89 125.42C303.042 125.596 303.282 125.752 303.61 125.888C303.938 126.024 304.366 126.168 304.894 126.32C305.534 126.496 306.058 126.684 306.466 126.884C306.874 127.076 307.174 127.32 307.366 127.616C307.566 127.904 307.666 128.276 307.666 128.732C307.666 129.236 307.534 129.668 307.27 130.028C307.006 130.38 306.634 130.652 306.154 130.844C305.682 131.028 305.122 131.12 304.474 131.12ZM314.579 131.12C313.883 131.12 313.299 131.016 312.827 130.808C312.355 130.592 311.991 130.316 311.735 129.98C311.487 129.636 311.355 129.272 311.339 128.888C311.339 128.824 311.363 128.768 311.411 128.72C311.467 128.664 311.531 128.636 311.603 128.636H312.215C312.311 128.636 312.383 128.66 312.431 128.708C312.479 128.756 312.511 128.812 312.527 128.876C312.567 129.068 312.663 129.26 312.815 129.452C312.975 129.636 313.195 129.792 313.475 129.92C313.763 130.04 314.131 130.1 314.579 130.1C315.267 130.1 315.771 129.98 316.091 129.74C316.419 129.492 316.583 129.164 316.583 128.756C316.583 128.476 316.495 128.252 316.319 128.084C316.151 127.908 315.891 127.752 315.539 127.616C315.187 127.48 314.731 127.332 314.171 127.172C313.587 127.004 313.103 126.82 312.719 126.62C312.335 126.42 312.047 126.172 311.855 125.876C311.671 125.58 311.579 125.204 311.579 124.748C311.579 124.316 311.695 123.932 311.927 123.596C312.159 123.252 312.491 122.98 312.923 122.78C313.363 122.58 313.895 122.48 314.519 122.48C315.015 122.48 315.447 122.548 315.815 122.684C316.191 122.812 316.503 122.988 316.751 123.212C316.999 123.428 317.187 123.664 317.315 123.92C317.443 124.168 317.511 124.412 317.519 124.652C317.519 124.708 317.499 124.764 317.459 124.82C317.419 124.868 317.355 124.892 317.267 124.892H316.631C316.575 124.892 316.515 124.876 316.451 124.844C316.395 124.812 316.351 124.752 316.319 124.664C316.271 124.336 316.087 124.06 315.767 123.836C315.447 123.612 315.031 123.5 314.519 123.5C313.999 123.5 313.575 123.6 313.247 123.8C312.927 124 312.767 124.312 312.767 124.736C312.767 125.008 312.843 125.236 312.995 125.42C313.147 125.596 313.387 125.752 313.715 125.888C314.043 126.024 314.471 126.168 314.999 126.32C315.639 126.496 316.163 126.684 316.571 126.884C316.979 127.076 317.279 127.32 317.471 127.616C317.671 127.904 317.771 128.276 317.771 128.732C317.771 129.236 317.639 129.668 317.375 130.028C317.111 130.38 316.739 130.652 316.259 130.844C315.787 131.028 315.227 131.12 314.579 131.12ZM322.26 131C322.172 131 322.104 130.976 322.056 130.928C322.008 130.872 321.984 130.804 321.984 130.724V122.888C321.984 122.8 322.008 122.732 322.056 122.684C322.104 122.628 322.172 122.6 322.26 122.6H327.216C327.304 122.6 327.372 122.628 327.42 122.684C327.468 122.732 327.492 122.8 327.492 122.888V123.344C327.492 123.432 327.468 123.5 327.42 123.548C327.372 123.596 327.304 123.62 327.216 123.62H323.136V126.248H326.952C327.04 126.248 327.108 126.276 327.156 126.332C327.204 126.38 327.228 126.448 327.228 126.536V126.98C327.228 127.06 327.204 127.128 327.156 127.184C327.108 127.232 327.04 127.256 326.952 127.256H323.136V129.98H327.312C327.4 129.98 327.468 130.004 327.516 130.052C327.564 130.1 327.588 130.168 327.588 130.256V130.724C327.588 130.804 327.564 130.872 327.516 130.928C327.468 130.976 327.4 131 327.312 131H322.26ZM334.013 131C333.933 131 333.865 130.976 333.809 130.928C333.761 130.872 333.737 130.804 333.737 130.724V123.668H331.433C331.353 123.668 331.285 123.644 331.229 123.596C331.181 123.54 331.157 123.472 331.157 123.392V122.888C331.157 122.8 331.181 122.732 331.229 122.684C331.285 122.628 331.353 122.6 331.433 122.6H337.217C337.305 122.6 337.373 122.628 337.421 122.684C337.477 122.732 337.505 122.8 337.505 122.888V123.392C337.505 123.472 337.477 123.54 337.421 123.596C337.373 123.644 337.305 123.668 337.217 123.668H334.925V130.724C334.925 130.804 334.897 130.872 334.841 130.928C334.793 130.976 334.725 131 334.637 131H334.013ZM344.144 131.12C343.448 131.12 342.864 131.016 342.392 130.808C341.92 130.592 341.556 130.316 341.3 129.98C341.052 129.636 340.92 129.272 340.904 128.888C340.904 128.824 340.928 128.768 340.976 128.72C341.032 128.664 341.096 128.636 341.168 128.636H341.78C341.876 128.636 341.948 128.66 341.996 128.708C342.044 128.756 342.076 128.812 342.092 128.876C342.132 129.068 342.228 129.26 342.38 129.452C342.54 129.636 342.76 129.792 343.04 129.92C343.328 130.04 343.696 130.1 344.144 130.1C344.832 130.1 345.336 129.98 345.656 129.74C345.984 129.492 346.148 129.164 346.148 128.756C346.148 128.476 346.06 128.252 345.884 128.084C345.716 127.908 345.456 127.752 345.104 127.616C344.752 127.48 344.296 127.332 343.736 127.172C343.152 127.004 342.668 126.82 342.284 126.62C341.9 126.42 341.612 126.172 341.42 125.876C341.236 125.58 341.144 125.204 341.144 124.748C341.144 124.316 341.26 123.932 341.492 123.596C341.724 123.252 342.056 122.98 342.488 122.78C342.928 122.58 343.46 122.48 344.084 122.48C344.58 122.48 345.012 122.548 345.38 122.684C345.756 122.812 346.068 122.988 346.316 123.212C346.564 123.428 346.752 123.664 346.88 123.92C347.008 124.168 347.076 124.412 347.084 124.652C347.084 124.708 347.064 124.764 347.024 124.82C346.984 124.868 346.92 124.892 346.832 124.892H346.196C346.14 124.892 346.08 124.876 346.016 124.844C345.96 124.812 345.916 124.752 345.884 124.664C345.836 124.336 345.652 124.06 345.332 123.836C345.012 123.612 344.596 123.5 344.084 123.5C343.564 123.5 343.14 123.6 342.812 123.8C342.492 124 342.332 124.312 342.332 124.736C342.332 125.008 342.408 125.236 342.56 125.42C342.712 125.596 342.952 125.752 343.28 125.888C343.608 126.024 344.036 126.168 344.564 126.32C345.204 126.496 345.728 126.684 346.136 126.884C346.544 127.076 346.844 127.32 347.036 127.616C347.236 127.904 347.336 128.276 347.336 128.732C347.336 129.236 347.204 129.668 346.94 130.028C346.676 130.38 346.304 130.652 345.824 130.844C345.352 131.028 344.792 131.12 344.144 131.12Z" fill="#FCFCFC"/>
</g>
<g filter="url(#filter6_d_4956_49649)">
<path d="M202 82C201.448 82 201 82.4477 201 83C201 83.5523 201.448 84 202 84V82ZM398.707 83.7071C399.098 83.3166 399.098 82.6834 398.707 82.2929L392.343 75.9289C391.953 75.5384 391.319 75.5384 390.929 75.9289C390.538 76.3195 390.538 76.9526 390.929 77.3431L396.586 83L390.929 88.6569C390.538 89.0474 390.538 89.6805 390.929 90.0711C391.319 90.4616 391.953 90.4616 392.343 90.0711L398.707 83.7071ZM202 84H398V82H202V84Z" fill="url(#paint16_linear_4956_49649)"/>
</g>
<g filter="url(#filter7_d_4956_49649)">
<circle cx="300.5" cy="82.5" r="24.5" fill="#211426"/>
</g>
<path d="M301.003 94.6693C307.446 94.6693 312.669 89.4461 312.669 83.0026C312.669 76.5591 307.446 71.3359 301.003 71.3359C294.559 71.3359 289.336 76.5591 289.336 83.0026C289.336 89.4461 294.559 94.6693 301.003 94.6693Z" fill="url(#paint17_linear_4956_49649)"/>
<path d="M300.727 89.9961C300.615 89.9961 300.529 89.9598 300.468 89.8872C300.407 89.825 300.377 89.742 300.377 89.6383V88.5494C299.635 88.4872 299.01 88.3161 298.503 88.0361C297.995 87.7457 297.609 87.3983 297.345 86.9939C297.08 86.5894 296.938 86.1591 296.918 85.7028C296.918 85.6198 296.948 85.5472 297.009 85.485C297.08 85.4124 297.162 85.3761 297.253 85.3761H298.03C298.152 85.3761 298.244 85.4072 298.304 85.4694C298.365 85.5316 298.406 85.6042 298.426 85.6872C298.487 85.9361 298.614 86.185 298.807 86.4339C299 86.6724 299.275 86.8746 299.63 87.0405C299.996 87.1961 300.463 87.2739 301.032 87.2739C301.905 87.2739 302.545 87.1183 302.952 86.8072C303.368 86.4857 303.576 86.0605 303.576 85.5316C303.576 85.1687 303.465 84.8783 303.241 84.6605C303.028 84.4324 302.698 84.2302 302.251 84.0539C301.804 83.8776 301.225 83.6857 300.514 83.4783C299.772 83.2605 299.158 83.022 298.67 82.7628C298.183 82.5035 297.817 82.182 297.573 81.7983C297.34 81.4146 297.223 80.9272 297.223 80.3361C297.223 79.5791 297.497 78.9309 298.045 78.3916C298.594 77.842 299.371 77.5205 300.377 77.4272V76.3539C300.377 76.2502 300.407 76.1672 300.468 76.105C300.529 76.0324 300.615 75.9961 300.727 75.9961H301.306C301.408 75.9961 301.489 76.0324 301.55 76.105C301.621 76.1672 301.656 76.2502 301.656 76.3539V77.4428C302.337 77.5257 302.906 77.7176 303.363 78.0183C303.82 78.3191 304.165 78.6665 304.399 79.0605C304.633 79.4546 304.755 79.8383 304.765 80.2116C304.765 80.2842 304.739 80.3568 304.688 80.4294C304.638 80.4916 304.556 80.5228 304.445 80.5228H303.637C303.566 80.5228 303.49 80.502 303.409 80.4605C303.338 80.4191 303.282 80.3413 303.241 80.2272C303.18 79.802 302.946 79.4442 302.54 79.1539C302.134 78.8635 301.606 78.7183 300.956 78.7183C300.295 78.7183 299.757 78.8479 299.341 79.1072C298.934 79.3665 298.731 79.7709 298.731 80.3205C298.731 80.6731 298.828 80.9687 299.021 81.2072C299.214 81.4354 299.518 81.6376 299.935 81.8139C300.351 81.9902 300.895 82.1768 301.565 82.3739C302.378 82.602 303.043 82.8457 303.561 83.105C304.079 83.3539 304.46 83.6702 304.704 84.0539C304.958 84.4272 305.085 84.9094 305.085 85.5005C305.085 86.0916 304.942 86.605 304.658 87.0405C304.384 87.4761 303.988 87.8235 303.47 88.0828C302.962 88.342 302.357 88.5028 301.656 88.565V89.6383C301.656 89.742 301.621 89.825 301.55 89.8872C301.489 89.9598 301.408 89.9961 301.306 89.9961H300.727Z" fill="black"/>
<g filter="url(#filter8_d_4956_49649)">
<path d="M639.685 131C639.597 131 639.529 130.976 639.481 130.928C639.433 130.872 639.409 130.804 639.409 130.724V122.888C639.409 122.8 639.433 122.732 639.481 122.684C639.529 122.628 639.597 122.6 639.685 122.6H642.409C643.233 122.6 643.897 122.724 644.401 122.972C644.905 123.22 645.273 123.588 645.505 124.076C645.737 124.556 645.857 125.148 645.865 125.852C645.873 126.212 645.877 126.528 645.877 126.8C645.877 127.072 645.873 127.384 645.865 127.736C645.849 128.472 645.725 129.084 645.493 129.572C645.269 130.052 644.909 130.412 644.413 130.652C643.925 130.884 643.277 131 642.469 131H639.685ZM640.585 129.98H642.409C642.961 129.98 643.401 129.904 643.729 129.752C644.057 129.6 644.293 129.356 644.437 129.02C644.589 128.684 644.669 128.24 644.677 127.688C644.693 127.448 644.701 127.24 644.701 127.064C644.701 126.88 644.701 126.7 644.701 126.524C644.701 126.34 644.693 126.132 644.677 125.9C644.661 125.124 644.477 124.552 644.125 124.184C643.773 123.808 643.181 123.62 642.349 123.62H640.585V129.98ZM650.598 131C650.51 131 650.442 130.976 650.394 130.928C650.346 130.872 650.322 130.804 650.322 130.724V122.888C650.322 122.8 650.346 122.732 650.394 122.684C650.442 122.628 650.51 122.6 650.598 122.6H655.554C655.642 122.6 655.71 122.628 655.758 122.684C655.806 122.732 655.83 122.8 655.83 122.888V123.344C655.83 123.432 655.806 123.5 655.758 123.548C655.71 123.596 655.642 123.62 655.554 123.62H651.474V126.248H655.29C655.378 126.248 655.446 126.276 655.494 126.332C655.542 126.38 655.566 126.448 655.566 126.536V126.98C655.566 127.06 655.542 127.128 655.494 127.184C655.446 127.232 655.378 127.256 655.29 127.256H651.474V129.98H655.65C655.738 129.98 655.806 130.004 655.854 130.052C655.902 130.1 655.926 130.168 655.926 130.256V130.724C655.926 130.804 655.902 130.872 655.854 130.928C655.806 130.976 655.738 131 655.65 131H650.598ZM662.642 131C662.522 131 662.426 130.972 662.354 130.916C662.29 130.86 662.238 130.784 662.198 130.688L659.522 122.972C659.506 122.924 659.498 122.88 659.498 122.84C659.498 122.776 659.522 122.72 659.57 122.672C659.618 122.624 659.674 122.6 659.738 122.6H660.362C660.458 122.6 660.53 122.628 660.578 122.684C660.634 122.732 660.666 122.776 660.674 122.816L663.026 129.62L665.378 122.816C665.394 122.776 665.426 122.732 665.474 122.684C665.522 122.628 665.594 122.6 665.69 122.6H666.314C666.378 122.6 666.434 122.624 666.482 122.672C666.538 122.72 666.566 122.776 666.566 122.84C666.566 122.88 666.558 122.924 666.542 122.972L663.854 130.688C663.822 130.784 663.77 130.86 663.698 130.916C663.634 130.972 663.542 131 663.422 131H662.642ZM670.913 131C670.825 131 670.757 130.976 670.709 130.928C670.661 130.872 670.637 130.804 670.637 130.724V122.888C670.637 122.8 670.661 122.732 670.709 122.684C670.757 122.628 670.825 122.6 670.913 122.6H675.869C675.957 122.6 676.025 122.628 676.073 122.684C676.121 122.732 676.145 122.8 676.145 122.888V123.344C676.145 123.432 676.121 123.5 676.073 123.548C676.025 123.596 675.957 123.62 675.869 123.62H671.789V126.248H675.605C675.693 126.248 675.761 126.276 675.809 126.332C675.857 126.38 675.881 126.448 675.881 126.536V126.98C675.881 127.06 675.857 127.128 675.809 127.184C675.761 127.232 675.693 127.256 675.605 127.256H671.789V129.98H675.965C676.053 129.98 676.121 130.004 676.169 130.052C676.217 130.1 676.241 130.168 676.241 130.256V130.724C676.241 130.804 676.217 130.872 676.169 130.928C676.121 130.976 676.053 131 675.965 131H670.913ZM680.831 131C680.743 131 680.675 130.976 680.627 130.928C680.579 130.872 680.555 130.804 680.555 130.724V122.876C680.555 122.796 680.579 122.732 680.627 122.684C680.675 122.628 680.743 122.6 680.831 122.6H681.467C681.547 122.6 681.611 122.628 681.659 122.684C681.707 122.732 681.731 122.796 681.731 122.876V129.956H685.727C685.815 129.956 685.883 129.984 685.931 130.04C685.979 130.088 686.003 130.156 686.003 130.244V130.724C686.003 130.804 685.979 130.872 685.931 130.928C685.883 130.976 685.815 131 685.727 131H680.831ZM692.851 131.12C692.171 131.12 691.587 131.004 691.099 130.772C690.611 130.532 690.235 130.168 689.971 129.68C689.707 129.184 689.559 128.564 689.527 127.82C689.519 127.468 689.515 127.132 689.515 126.812C689.515 126.484 689.519 126.144 689.527 125.792C689.559 125.056 689.711 124.444 689.983 123.956C690.263 123.46 690.647 123.092 691.135 122.852C691.631 122.604 692.203 122.48 692.851 122.48C693.507 122.48 694.079 122.604 694.567 122.852C695.063 123.092 695.451 123.46 695.731 123.956C696.011 124.444 696.163 125.056 696.187 125.792C696.203 126.144 696.211 126.484 696.211 126.812C696.211 127.132 696.203 127.468 696.187 127.82C696.163 128.564 696.015 129.184 695.743 129.68C695.479 130.168 695.103 130.532 694.615 130.772C694.127 131.004 693.539 131.12 692.851 131.12ZM692.851 130.1C693.467 130.1 693.967 129.916 694.351 129.548C694.743 129.18 694.955 128.584 694.987 127.76C695.003 127.4 695.011 127.08 695.011 126.8C695.011 126.512 695.003 126.192 694.987 125.84C694.971 125.288 694.867 124.84 694.675 124.496C694.491 124.152 694.243 123.9 693.931 123.74C693.619 123.58 693.259 123.5 692.851 123.5C692.459 123.5 692.107 123.58 691.795 123.74C691.483 123.9 691.231 124.152 691.039 124.496C690.855 124.84 690.751 125.288 690.727 125.84C690.719 126.192 690.715 126.512 690.715 126.8C690.715 127.08 690.719 127.4 690.727 127.76C690.759 128.584 690.971 129.18 691.363 129.548C691.755 129.916 692.251 130.1 692.851 130.1ZM700.876 131C700.788 131 700.72 130.976 700.672 130.928C700.624 130.872 700.6 130.804 700.6 130.724V122.888C700.6 122.8 700.624 122.732 700.672 122.684C700.72 122.628 700.788 122.6 700.876 122.6H703.924C704.516 122.6 705.028 122.696 705.46 122.888C705.9 123.08 706.24 123.368 706.48 123.752C706.72 124.128 706.84 124.6 706.84 125.168C706.84 125.736 706.72 126.208 706.48 126.584C706.24 126.96 705.9 127.244 705.46 127.436C705.028 127.628 704.516 127.724 703.924 127.724H701.8V130.724C701.8 130.804 701.772 130.872 701.716 130.928C701.668 130.976 701.6 131 701.512 131H700.876ZM701.788 126.716H703.864C704.456 126.716 704.9 126.584 705.196 126.32C705.492 126.056 705.64 125.672 705.64 125.168C705.64 124.672 705.496 124.288 705.208 124.016C704.92 123.744 704.472 123.608 703.864 123.608H701.788V126.716ZM718.951 131.12C718.255 131.12 717.671 131.016 717.199 130.808C716.727 130.592 716.363 130.316 716.107 129.98C715.859 129.636 715.727 129.272 715.711 128.888C715.711 128.824 715.735 128.768 715.783 128.72C715.839 128.664 715.903 128.636 715.975 128.636H716.587C716.683 128.636 716.755 128.66 716.803 128.708C716.851 128.756 716.883 128.812 716.899 128.876C716.939 129.068 717.035 129.26 717.187 129.452C717.347 129.636 717.567 129.792 717.847 129.92C718.135 130.04 718.503 130.1 718.951 130.1C719.639 130.1 720.143 129.98 720.463 129.74C720.791 129.492 720.955 129.164 720.955 128.756C720.955 128.476 720.867 128.252 720.691 128.084C720.523 127.908 720.263 127.752 719.911 127.616C719.559 127.48 719.103 127.332 718.543 127.172C717.959 127.004 717.475 126.82 717.091 126.62C716.707 126.42 716.419 126.172 716.227 125.876C716.043 125.58 715.951 125.204 715.951 124.748C715.951 124.316 716.067 123.932 716.299 123.596C716.531 123.252 716.863 122.98 717.295 122.78C717.735 122.58 718.267 122.48 718.891 122.48C719.387 122.48 719.819 122.548 720.187 122.684C720.563 122.812 720.875 122.988 721.123 123.212C721.371 123.428 721.559 123.664 721.687 123.92C721.815 124.168 721.883 124.412 721.891 124.652C721.891 124.708 721.871 124.764 721.831 124.82C721.791 124.868 721.727 124.892 721.639 124.892H721.003C720.947 124.892 720.887 124.876 720.823 124.844C720.767 124.812 720.723 124.752 720.691 124.664C720.643 124.336 720.459 124.06 720.139 123.836C719.819 123.612 719.403 123.5 718.891 123.5C718.371 123.5 717.947 123.6 717.619 123.8C717.299 124 717.139 124.312 717.139 124.736C717.139 125.008 717.215 125.236 717.367 125.42C717.519 125.596 717.759 125.752 718.087 125.888C718.415 126.024 718.843 126.168 719.371 126.32C720.011 126.496 720.535 126.684 720.943 126.884C721.351 127.076 721.651 127.32 721.843 127.616C722.043 127.904 722.143 128.276 722.143 128.732C722.143 129.236 722.011 129.668 721.747 130.028C721.483 130.38 721.111 130.652 720.631 130.844C720.159 131.028 719.599 131.12 718.951 131.12ZM728.374 131C728.294 131 728.226 130.976 728.17 130.928C728.122 130.872 728.098 130.804 728.098 130.724V123.668H725.794C725.714 123.668 725.646 123.644 725.59 123.596C725.542 123.54 725.518 123.472 725.518 123.392V122.888C725.518 122.8 725.542 122.732 725.59 122.684C725.646 122.628 725.714 122.6 725.794 122.6H731.578C731.666 122.6 731.734 122.628 731.782 122.684C731.838 122.732 731.866 122.8 731.866 122.888V123.392C731.866 123.472 731.838 123.54 731.782 123.596C731.734 123.644 731.666 123.668 731.578 123.668H729.286V130.724C729.286 130.804 729.258 130.872 729.202 130.928C729.154 130.976 729.086 131 728.998 131H728.374ZM736.128 131C736.04 131 735.972 130.976 735.924 130.928C735.876 130.872 735.852 130.804 735.852 130.724V122.888C735.852 122.8 735.876 122.732 735.924 122.684C735.972 122.628 736.04 122.6 736.128 122.6H739.056C739.96 122.6 740.676 122.812 741.204 123.236C741.732 123.66 741.996 124.288 741.996 125.12C741.996 125.736 741.84 126.24 741.528 126.632C741.224 127.016 740.808 127.284 740.28 127.436L742.128 130.628C742.152 130.676 742.164 130.72 742.164 130.76C742.164 130.824 742.136 130.88 742.08 130.928C742.032 130.976 741.976 131 741.912 131H741.336C741.2 131 741.1 130.964 741.036 130.892C740.972 130.82 740.916 130.748 740.868 130.676L739.128 127.628H737.028V130.724C737.028 130.804 737 130.872 736.944 130.928C736.896 130.976 736.828 131 736.74 131H736.128ZM737.028 126.608H739.008C739.608 126.608 740.056 126.484 740.352 126.236C740.648 125.98 740.796 125.604 740.796 125.108C740.796 124.62 740.648 124.248 740.352 123.992C740.064 123.736 739.616 123.608 739.008 123.608H737.028V126.608ZM745.791 131C745.727 131 745.671 130.976 745.623 130.928C745.575 130.88 745.551 130.824 745.551 130.76C745.551 130.72 745.555 130.676 745.563 130.628L748.539 122.864C748.571 122.784 748.615 122.72 748.671 122.672C748.727 122.624 748.811 122.6 748.923 122.6H749.739C749.843 122.6 749.923 122.624 749.979 122.672C750.043 122.72 750.091 122.784 750.123 122.864L753.087 130.628C753.103 130.676 753.111 130.72 753.111 130.76C753.111 130.824 753.087 130.88 753.039 130.928C752.991 130.976 752.935 131 752.871 131H752.259C752.163 131 752.091 130.976 752.043 130.928C752.003 130.88 751.975 130.836 751.959 130.796L751.299 129.092H747.363L746.703 130.796C746.695 130.836 746.667 130.88 746.619 130.928C746.571 130.976 746.499 131 746.403 131H745.791ZM747.711 128.06H750.951L749.331 123.8L747.711 128.06ZM758.255 131C758.175 131 758.107 130.976 758.051 130.928C758.003 130.872 757.979 130.804 757.979 130.724V123.668H755.675C755.595 123.668 755.527 123.644 755.471 123.596C755.423 123.54 755.399 123.472 755.399 123.392V122.888C755.399 122.8 755.423 122.732 755.471 122.684C755.527 122.628 755.595 122.6 755.675 122.6H761.459C761.547 122.6 761.615 122.628 761.663 122.684C761.719 122.732 761.747 122.8 761.747 122.888V123.392C761.747 123.472 761.719 123.54 761.663 123.596C761.615 123.644 761.547 123.668 761.459 123.668H759.167V130.724C759.167 130.804 759.139 130.872 759.083 130.928C759.035 130.976 758.967 131 758.879 131H758.255ZM766.009 131C765.921 131 765.853 130.976 765.805 130.928C765.757 130.872 765.733 130.804 765.733 130.724V122.888C765.733 122.8 765.757 122.732 765.805 122.684C765.853 122.628 765.921 122.6 766.009 122.6H770.965C771.053 122.6 771.121 122.628 771.169 122.684C771.217 122.732 771.241 122.8 771.241 122.888V123.344C771.241 123.432 771.217 123.5 771.169 123.548C771.121 123.596 771.053 123.62 770.965 123.62H766.885V126.248H770.701C770.789 126.248 770.857 126.276 770.905 126.332C770.953 126.38 770.977 126.448 770.977 126.536V126.98C770.977 127.06 770.953 127.128 770.905 127.184C770.857 127.232 770.789 127.256 770.701 127.256H766.885V129.98H771.061C771.149 129.98 771.217 130.004 771.265 130.052C771.313 130.1 771.337 130.168 771.337 130.256V130.724C771.337 130.804 771.313 130.872 771.265 130.928C771.217 130.976 771.149 131 771.061 131H766.009ZM778.616 131.12C777.912 131.12 777.312 130.988 776.816 130.724C776.328 130.46 775.952 130.088 775.688 129.608C775.432 129.128 775.288 128.564 775.256 127.916C775.248 127.564 775.244 127.192 775.244 126.8C775.244 126.4 775.248 126.02 775.256 125.66C775.288 125.012 775.432 124.452 775.688 123.98C775.952 123.508 776.332 123.14 776.828 122.876C777.324 122.612 777.92 122.48 778.616 122.48C779.184 122.48 779.676 122.56 780.092 122.72C780.508 122.88 780.848 123.084 781.112 123.332C781.384 123.572 781.584 123.824 781.712 124.088C781.848 124.352 781.92 124.584 781.928 124.784C781.936 124.856 781.916 124.916 781.868 124.964C781.82 125.004 781.756 125.024 781.676 125.024H780.968C780.888 125.024 780.828 125.008 780.788 124.976C780.756 124.944 780.724 124.888 780.692 124.808C780.62 124.6 780.5 124.396 780.332 124.196C780.172 123.996 779.952 123.832 779.672 123.704C779.4 123.568 779.048 123.5 778.616 123.5C777.984 123.5 777.472 123.672 777.08 124.016C776.696 124.36 776.488 124.928 776.456 125.72C776.432 126.432 776.432 127.144 776.456 127.856C776.488 128.656 776.7 129.232 777.092 129.584C777.484 129.928 777.996 130.1 778.628 130.1C779.052 130.1 779.428 130.024 779.756 129.872C780.092 129.712 780.356 129.468 780.548 129.14C780.74 128.812 780.836 128.396 780.836 127.892V127.388H779.036C778.956 127.388 778.888 127.364 778.832 127.316C778.784 127.26 778.76 127.188 778.76 127.1V126.716C778.76 126.628 778.784 126.56 778.832 126.512C778.888 126.456 778.956 126.428 779.036 126.428H781.748C781.836 126.428 781.904 126.456 781.952 126.512C782 126.56 782.024 126.628 782.024 126.716V127.868C782.024 128.524 781.888 129.096 781.616 129.584C781.352 130.072 780.964 130.452 780.452 130.724C779.94 130.988 779.328 131.12 778.616 131.12ZM786.652 131C786.564 131 786.496 130.976 786.448 130.928C786.4 130.872 786.376 130.804 786.376 130.724V122.876C786.376 122.796 786.4 122.732 786.448 122.684C786.496 122.628 786.564 122.6 786.652 122.6H787.288C787.368 122.6 787.432 122.628 787.48 122.684C787.536 122.732 787.564 122.796 787.564 122.876V130.724C787.564 130.804 787.536 130.872 787.48 130.928C787.432 130.976 787.368 131 787.288 131H786.652ZM792.573 131C792.485 131 792.417 130.976 792.369 130.928C792.321 130.872 792.297 130.804 792.297 130.724V122.888C792.297 122.8 792.321 122.732 792.369 122.684C792.417 122.628 792.485 122.6 792.573 122.6H797.529C797.617 122.6 797.685 122.628 797.733 122.684C797.781 122.732 797.805 122.8 797.805 122.888V123.344C797.805 123.432 797.781 123.5 797.733 123.548C797.685 123.596 797.617 123.62 797.529 123.62H793.449V126.248H797.265C797.353 126.248 797.421 126.276 797.469 126.332C797.517 126.38 797.541 126.448 797.541 126.536V126.98C797.541 127.06 797.517 127.128 797.469 127.184C797.421 127.232 797.353 127.256 797.265 127.256H793.449V129.98H797.625C797.713 129.98 797.781 130.004 797.829 130.052C797.877 130.1 797.901 130.168 797.901 130.256V130.724C797.901 130.804 797.877 130.872 797.829 130.928C797.781 130.976 797.713 131 797.625 131H792.573ZM804.914 131.12C804.218 131.12 803.634 131.016 803.162 130.808C802.69 130.592 802.326 130.316 802.07 129.98C801.822 129.636 801.69 129.272 801.674 128.888C801.674 128.824 801.698 128.768 801.746 128.72C801.802 128.664 801.866 128.636 801.938 128.636H802.55C802.646 128.636 802.718 128.66 802.766 128.708C802.814 128.756 802.846 128.812 802.862 128.876C802.902 129.068 802.998 129.26 803.15 129.452C803.31 129.636 803.53 129.792 803.81 129.92C804.098 130.04 804.466 130.1 804.914 130.1C805.602 130.1 806.106 129.98 806.426 129.74C806.754 129.492 806.918 129.164 806.918 128.756C806.918 128.476 806.83 128.252 806.654 128.084C806.486 127.908 806.226 127.752 805.874 127.616C805.522 127.48 805.066 127.332 804.506 127.172C803.922 127.004 803.438 126.82 803.054 126.62C802.67 126.42 802.382 126.172 802.19 125.876C802.006 125.58 801.914 125.204 801.914 124.748C801.914 124.316 802.03 123.932 802.262 123.596C802.494 123.252 802.826 122.98 803.258 122.78C803.698 122.58 804.23 122.48 804.854 122.48C805.35 122.48 805.782 122.548 806.15 122.684C806.526 122.812 806.838 122.988 807.086 123.212C807.334 123.428 807.522 123.664 807.65 123.92C807.778 124.168 807.846 124.412 807.854 124.652C807.854 124.708 807.834 124.764 807.794 124.82C807.754 124.868 807.69 124.892 807.602 124.892H806.966C806.91 124.892 806.85 124.876 806.786 124.844C806.73 124.812 806.686 124.752 806.654 124.664C806.606 124.336 806.422 124.06 806.102 123.836C805.782 123.612 805.366 123.5 804.854 123.5C804.334 123.5 803.91 123.6 803.582 123.8C803.262 124 803.102 124.312 803.102 124.736C803.102 125.008 803.178 125.236 803.33 125.42C803.482 125.596 803.722 125.752 804.05 125.888C804.378 126.024 804.806 126.168 805.334 126.32C805.974 126.496 806.498 126.684 806.906 126.884C807.314 127.076 807.614 127.32 807.806 127.616C808.006 127.904 808.106 128.276 808.106 128.732C808.106 129.236 807.974 129.668 807.71 130.028C807.446 130.38 807.074 130.652 806.594 130.844C806.122 131.028 805.562 131.12 804.914 131.12Z" fill="#FCFCFC"/>
</g>
<g filter="url(#filter9_d_4956_49649)">
<path d="M821 84C821.552 84 822 83.5523 822 83C822 82.4477 821.552 82 821 82V84ZM624.293 82.2929C623.902 82.6834 623.902 83.3166 624.293 83.7071L630.657 90.0711C631.047 90.4616 631.681 90.4616 632.071 90.0711C632.462 89.6805 632.462 89.0474 632.071 88.6569L626.414 83L632.071 77.3431C632.462 76.9526 632.462 76.3195 632.071 75.9289C631.681 75.5384 631.047 75.5384 630.657 75.9289L624.293 82.2929ZM821 82L625 82V84L821 84V82Z" fill="url(#paint18_linear_4956_49649)"/>
</g>
<g filter="url(#filter10_d_4956_49649)">
<circle cx="723.5" cy="82.5" r="24.5" fill="#211426"/>
</g>
<path d="M713.906 93.3354L719.624 83.9741C719.812 84.037 720.031 84.0997 720.282 84.0997C720.816 84.0997 721.286 83.8798 721.631 83.5343L725.145 85.9217C724.988 86.2359 724.957 86.6128 725.02 86.9584C725.145 87.7437 725.772 88.372 726.557 88.4976C726.651 88.4976 726.745 88.529 726.839 88.529C727.372 88.529 727.906 88.2777 728.251 87.8693C728.596 87.4609 728.753 86.8955 728.69 86.3615C728.659 86.0787 728.533 85.7961 728.345 85.5447L732.831 78.4454C732.925 78.4768 733.02 78.5083 733.114 78.5083C733.208 78.5083 733.302 78.5397 733.396 78.5397C733.929 78.5397 734.463 78.2885 734.808 77.8801C735.153 77.4717 735.31 76.9063 735.247 76.3722C735.122 75.5869 734.494 74.9586 733.71 74.833C733.082 74.7388 732.424 74.9587 732.016 75.4613C731.671 75.8697 731.514 76.4351 731.576 76.9692C731.639 77.346 731.796 77.6917 732.047 77.943L727.592 84.9478C727.436 84.8849 727.279 84.8222 727.122 84.7908C726.62 84.7279 726.118 84.8537 725.71 85.1363L722.071 82.6547C722.102 82.4977 722.134 82.3719 722.134 82.2149C722.134 81.1782 721.286 80.3615 720.283 80.3615C719.279 80.3615 718.432 81.2097 718.432 82.2149C718.432 82.686 718.588 83.0944 718.871 83.4086L713.307 92.3341V71.6535C713.307 71.2926 713.014 71.0001 712.653 71.0002V71.0002C712.292 71.0003 712 71.2928 712 71.6535V94C712 94.5523 712.448 95 713 95H735.168C735.627 95 736 94.6274 736 94.1677V94.1677C736 93.708 735.627 93.3354 735.168 93.3354H713.906ZM734.055 77.2833C733.836 77.5345 733.522 77.6288 733.208 77.5975C732.832 77.5345 732.518 77.2206 732.455 76.8435C732.424 76.7179 732.455 76.5923 732.455 76.498C732.487 76.341 732.549 76.2152 732.644 76.1211C732.769 75.9642 732.926 75.8699 733.114 75.8383C733.177 75.807 733.271 75.807 733.334 75.807H733.49C733.522 75.807 733.553 75.807 733.585 75.8383C733.93 75.9326 734.181 76.2152 734.243 76.5609C734.306 76.8121 734.244 77.0949 734.055 77.2833ZM726.965 85.7335C726.997 85.7335 727.028 85.7335 727.059 85.7649C727.404 85.8591 727.655 86.1417 727.718 86.4874C727.749 86.7702 727.687 87.0214 727.499 87.2413C727.279 87.4926 726.965 87.5869 726.651 87.5555C726.275 87.4926 725.961 87.1786 725.898 86.8016C725.867 86.6759 725.898 86.5503 725.898 86.456C725.93 86.2991 725.993 86.1732 726.087 86.0792C726.212 85.9222 726.369 85.8279 726.557 85.7964C726.62 85.765 726.714 85.765 726.777 85.765C726.871 85.7335 726.903 85.7335 726.965 85.7335ZM719.342 82.2153C719.342 81.7126 719.75 81.3044 720.251 81.3044C720.691 81.3044 721.067 81.6185 721.161 82.0583C721.161 82.1212 721.192 82.1526 721.192 82.2153C721.192 82.5295 721.036 82.7807 720.816 82.9379C720.659 83.0635 720.471 83.1264 720.283 83.1264H720.157C719.812 83.0635 719.53 82.8436 719.436 82.5297C719.373 82.4352 719.342 82.3409 719.342 82.2153Z" fill="url(#paint19_linear_4956_49649)"/>
<defs>
<filter id="filter0_d_4956_49649" x="848.5" y="0.5" width="173" height="173" filterUnits="userSpaceOnUse" color-interpolation-filters="sRGB">
<feFlood flood-opacity="0" result="BackgroundImageFix"/>
<feColorMatrix in="SourceAlpha" type="matrix" values="0 0 0 0 0 0 0 0 0 0 0 0 0 0 0 0 0 0 127 0" result="hardAlpha"/>
<feOffset dy="4"/>
<feGaussianBlur stdDeviation="2"/>
<feComposite in2="hardAlpha" operator="out"/>
<feColorMatrix type="matrix" values="0 0 0 0 0 0 0 0 0 0 0 0 0 0 0 0 0 0 0.25 0"/>
<feBlend mode="normal" in2="BackgroundImageFix" result="effect1_dropShadow_4956_49649"/>
<feBlend mode="normal" in="SourceGraphic" in2="effect1_dropShadow_4956_49649" result="shape"/>
</filter>
<filter id="filter1_d_4956_49649" x="425.5" y="0.5" width="172" height="172" filterUnits="userSpaceOnUse" color-interpolation-filters="sRGB">
<feFlood flood-opacity="0" result="BackgroundImageFix"/>
<feColorMatrix in="SourceAlpha" type="matrix" values="0 0 0 0 0 0 0 0 0 0 0 0 0 0 0 0 0 0 127 0" result="hardAlpha"/>
<feOffset dy="4"/>
<feGaussianBlur stdDeviation="2"/>
<feComposite in2="hardAlpha" operator="out"/>
<feColorMatrix type="matrix" values="0 0 0 0 0 0 0 0 0 0 0 0 0 0 0 0 0 0 0.25 0"/>
<feBlend mode="normal" in2="BackgroundImageFix" result="effect1_dropShadow_4956_49649"/>
<feBlend mode="normal" in="SourceGraphic" in2="effect1_dropShadow_4956_49649" result="shape"/>
</filter>
<filter id="filter2_f_4956_49649" x="459.531" y="14" width="106.746" height="103.737" filterUnits="userSpaceOnUse" color-interpolation-filters="sRGB">
<feFlood flood-opacity="0" result="BackgroundImageFix"/>
<feBlend mode="normal" in="SourceGraphic" in2="BackgroundImageFix" result="shape"/>
<feGaussianBlur stdDeviation="10" result="effect1_foregroundBlur_4956_49649"/>
</filter>
<filter id="filter3_d_4956_49649" x="473" y="34" width="78" height="71" filterUnits="userSpaceOnUse" color-interpolation-filters="sRGB">
<feFlood flood-opacity="0" result="BackgroundImageFix"/>
<feColorMatrix in="SourceAlpha" type="matrix" values="0 0 0 0 0 0 0 0 0 0 0 0 0 0 0 0 0 0 127 0" result="hardAlpha"/>
<feOffset dy="4"/>
<feGaussianBlur stdDeviation="2"/>
<feComposite in2="hardAlpha" operator="out"/>
<feColorMatrix type="matrix" values="0 0 0 0 0 0 0 0 0 0 0 0 0 0 0 0 0 0 0.25 0"/>
<feBlend mode="normal" in2="BackgroundImageFix" result="effect1_dropShadow_4956_49649"/>
<feBlend mode="normal" in="SourceGraphic" in2="effect1_dropShadow_4956_49649" result="shape"/>
</filter>
<filter id="filter4_d_4956_49649" x="0.5" y="0.5" width="173" height="173" filterUnits="userSpaceOnUse" color-interpolation-filters="sRGB">
<feFlood flood-opacity="0" result="BackgroundImageFix"/>
<feColorMatrix in="SourceAlpha" type="matrix" values="0 0 0 0 0 0 0 0 0 0 0 0 0 0 0 0 0 0 127 0" result="hardAlpha"/>
<feOffset dy="4"/>
<feGaussianBlur stdDeviation="2"/>
<feComposite in2="hardAlpha" operator="out"/>
<feColorMatrix type="matrix" values="0 0 0 0 0 0 0 0 0 0 0 0 0 0 0 0 0 0 0.25 0"/>
<feBlend mode="normal" in2="BackgroundImageFix" result="effect1_dropShadow_4956_49649"/>
<feBlend mode="normal" in="SourceGraphic" in2="effect1_dropShadow_4956_49649" result="shape"/>
</filter>
<filter id="filter5_d_4956_49649" x="250.18" y="122.48" width="101.156" height="16.6396" filterUnits="userSpaceOnUse" color-interpolation-filters="sRGB">
<feFlood flood-opacity="0" result="BackgroundImageFix"/>
<feColorMatrix in="SourceAlpha" type="matrix" values="0 0 0 0 0 0 0 0 0 0 0 0 0 0 0 0 0 0 127 0" result="hardAlpha"/>
<feOffset dy="4"/>
<feGaussianBlur stdDeviation="2"/>
<feComposite in2="hardAlpha" operator="out"/>
<feColorMatrix type="matrix" values="0 0 0 0 0 0 0 0 0 0 0 0 0 0 0 0 0 0 0.25 0"/>
<feBlend mode="normal" in2="BackgroundImageFix" result="effect1_dropShadow_4956_49649"/>
<feBlend mode="normal" in="SourceGraphic" in2="effect1_dropShadow_4956_49649" result="shape"/>
</filter>
<filter id="filter6_d_4956_49649" x="197" y="75.6357" width="206" height="22.7285" filterUnits="userSpaceOnUse" color-interpolation-filters="sRGB">
<feFlood flood-opacity="0" result="BackgroundImageFix"/>
<feColorMatrix in="SourceAlpha" type="matrix" values="0 0 0 0 0 0 0 0 0 0 0 0 0 0 0 0 0 0 127 0" result="hardAlpha"/>
<feOffset dy="4"/>
<feGaussianBlur stdDeviation="2"/>
<feComposite in2="hardAlpha" operator="out"/>
<feColorMatrix type="matrix" values="0 0 0 0 0 0 0 0 0 0 0 0 0 0 0 0 0 0 0.25 0"/>
<feBlend mode="normal" in2="BackgroundImageFix" result="effect1_dropShadow_4956_49649"/>
<feBlend mode="normal" in="SourceGraphic" in2="effect1_dropShadow_4956_49649" result="shape"/>
</filter>
<filter id="filter7_d_4956_49649" x="272" y="58" width="57" height="57" filterUnits="userSpaceOnUse" color-interpolation-filters="sRGB">
<feFlood flood-opacity="0" result="BackgroundImageFix"/>
<feColorMatrix in="SourceAlpha" type="matrix" values="0 0 0 0 0 0 0 0 0 0 0 0 0 0 0 0 0 0 127 0" result="hardAlpha"/>
<feOffset dy="4"/>
<feGaussianBlur stdDeviation="2"/>
<feComposite in2="hardAlpha" operator="out"/>
<feColorMatrix type="matrix" values="0 0 0 0 0 0 0 0 0 0 0 0 0 0 0 0 0 0 0.25 0"/>
<feBlend mode="normal" in2="BackgroundImageFix" result="effect1_dropShadow_4956_49649"/>
<feBlend mode="normal" in="SourceGraphic" in2="effect1_dropShadow_4956_49649" result="shape"/>
</filter>
<filter id="filter8_d_4956_49649" x="635.409" y="122.48" width="176.698" height="16.6396" filterUnits="userSpaceOnUse" color-interpolation-filters="sRGB">
<feFlood flood-opacity="0" result="BackgroundImageFix"/>
<feColorMatrix in="SourceAlpha" type="matrix" values="0 0 0 0 0 0 0 0 0 0 0 0 0 0 0 0 0 0 127 0" result="hardAlpha"/>
<feOffset dy="4"/>
<feGaussianBlur stdDeviation="2"/>
<feComposite in2="hardAlpha" operator="out"/>
<feColorMatrix type="matrix" values="0 0 0 0 0 0 0 0 0 0 0 0 0 0 0 0 0 0 0.25 0"/>
<feBlend mode="normal" in2="BackgroundImageFix" result="effect1_dropShadow_4956_49649"/>
<feBlend mode="normal" in="SourceGraphic" in2="effect1_dropShadow_4956_49649" result="shape"/>
</filter>
<filter id="filter9_d_4956_49649" x="620" y="75.6357" width="206" height="22.7285" filterUnits="userSpaceOnUse" color-interpolation-filters="sRGB">
<feFlood flood-opacity="0" result="BackgroundImageFix"/>
<feColorMatrix in="SourceAlpha" type="matrix" values="0 0 0 0 0 0 0 0 0 0 0 0 0 0 0 0 0 0 127 0" result="hardAlpha"/>
<feOffset dy="4"/>
<feGaussianBlur stdDeviation="2"/>
<feComposite in2="hardAlpha" operator="out"/>
<feColorMatrix type="matrix" values="0 0 0 0 0 0 0 0 0 0 0 0 0 0 0 0 0 0 0.25 0"/>
<feBlend mode="normal" in2="BackgroundImageFix" result="effect1_dropShadow_4956_49649"/>
<feBlend mode="normal" in="SourceGraphic" in2="effect1_dropShadow_4956_49649" result="shape"/>
</filter>
<filter id="filter10_d_4956_49649" x="695" y="58" width="57" height="57" filterUnits="userSpaceOnUse" color-interpolation-filters="sRGB">
<feFlood flood-opacity="0" result="BackgroundImageFix"/>
<feColorMatrix in="SourceAlpha" type="matrix" values="0 0 0 0 0 0 0 0 0 0 0 0 0 0 0 0 0 0 127 0" result="hardAlpha"/>
<feOffset dy="4"/>
<feGaussianBlur stdDeviation="2"/>
<feComposite in2="hardAlpha" operator="out"/>
<feColorMatrix type="matrix" values="0 0 0 0 0 0 0 0 0 0 0 0 0 0 0 0 0 0 0.25 0"/>
<feBlend mode="normal" in2="BackgroundImageFix" result="effect1_dropShadow_4956_49649"/>
<feBlend mode="normal" in="SourceGraphic" in2="effect1_dropShadow_4956_49649" result="shape"/>
</filter>
<linearGradient id="paint0_linear_4956_49649" x1="935.294" y1="116.668" x2="935.294" y2="49.9951" gradientUnits="userSpaceOnUse">
<stop stop-color="#FFBF00"/>
<stop offset="1" stop-color="#E843C4"/>
</linearGradient>
<linearGradient id="paint1_linear_4956_49649" x1="935.294" y1="116.668" x2="935.294" y2="49.9951" gradientUnits="userSpaceOnUse">
<stop stop-color="#FFBF00"/>
<stop offset="1" stop-color="#E843C4"/>
</linearGradient>
<linearGradient id="paint2_linear_4956_49649" x1="935.294" y1="116.668" x2="935.294" y2="49.9951" gradientUnits="userSpaceOnUse">
<stop stop-color="#FFBF00"/>
<stop offset="1" stop-color="#E843C4"/>
</linearGradient>
<linearGradient id="paint3_linear_4956_49649" x1="511.5" y1="1" x2="511.5" y2="164" gradientUnits="userSpaceOnUse">
<stop stop-color="#FFBF00"/>
<stop offset="1" stop-color="#E843C4"/>
</linearGradient>
<linearGradient id="paint4_linear_4956_49649" x1="512.955" y1="5.82198" x2="512.955" y2="118.652" gradientUnits="userSpaceOnUse">
<stop stop-color="#FFBF00"/>
<stop offset="1" stop-color="#E843C4"/>
</linearGradient>
<linearGradient id="paint5_linear_4956_49649" x1="512" y1="34.5273" x2="512" y2="96.3102" gradientUnits="userSpaceOnUse">
<stop stop-color="#FFBF00"/>
<stop offset="1" stop-color="#E843C4"/>
</linearGradient>
<linearGradient id="paint6_linear_4956_49649" x1="516.596" y1="107.48" x2="516.596" y2="121.935" gradientUnits="userSpaceOnUse">
<stop stop-color="#E843C4"/>
<stop offset="1" stop-color="#FFBF00"/>
</linearGradient>
<linearGradient id="paint7_linear_4956_49649" x1="516.596" y1="107.48" x2="516.596" y2="121.935" gradientUnits="userSpaceOnUse">
<stop stop-color="#E843C4"/>
<stop offset="1" stop-color="#FFBF00"/>
</linearGradient>
<linearGradient id="paint8_linear_4956_49649" x1="516.596" y1="107.48" x2="516.596" y2="121.935" gradientUnits="userSpaceOnUse">
<stop stop-color="#E843C4"/>
<stop offset="1" stop-color="#FFBF00"/>
</linearGradient>
<linearGradient id="paint9_linear_4956_49649" x1="516.596" y1="107.48" x2="516.596" y2="121.935" gradientUnits="userSpaceOnUse">
<stop stop-color="#E843C4"/>
<stop offset="1" stop-color="#FFBF00"/>
</linearGradient>
<linearGradient id="paint10_linear_4956_49649" x1="516.596" y1="107.48" x2="516.596" y2="121.935" gradientUnits="userSpaceOnUse">
<stop stop-color="#E843C4"/>
<stop offset="1" stop-color="#FFBF00"/>
</linearGradient>
<linearGradient id="paint11_linear_4956_49649" x1="516.596" y1="107.48" x2="516.596" y2="121.935" gradientUnits="userSpaceOnUse">
<stop stop-color="#E843C4"/>
<stop offset="1" stop-color="#FFBF00"/>
</linearGradient>
<linearGradient id="paint12_linear_4956_49649" x1="516.596" y1="107.48" x2="516.596" y2="121.935" gradientUnits="userSpaceOnUse">
<stop stop-color="#E843C4"/>
<stop offset="1" stop-color="#FFBF00"/>
</linearGradient>
<linearGradient id="paint13_linear_4956_49649" x1="516.596" y1="107.48" x2="516.596" y2="121.935" gradientUnits="userSpaceOnUse">
<stop stop-color="#E843C4"/>
<stop offset="1" stop-color="#FFBF00"/>
</linearGradient>
<linearGradient id="paint14_linear_4956_49649" x1="516.596" y1="107.48" x2="516.596" y2="121.935" gradientUnits="userSpaceOnUse">
<stop stop-color="#E843C4"/>
<stop offset="1" stop-color="#FFBF00"/>
</linearGradient>
<linearGradient id="paint15_linear_4956_49649" x1="86.9927" y1="113.012" x2="86.9927" y2="53.0061" gradientUnits="userSpaceOnUse">
<stop stop-color="#FFBF00"/>
<stop offset="1" stop-color="#E843C4"/>
</linearGradient>
<linearGradient id="paint16_linear_4956_49649" x1="202" y1="83" x2="398" y2="83" gradientUnits="userSpaceOnUse">
<stop stop-color="#E843C4"/>
<stop offset="1" stop-color="#FFCC4D"/>
</linearGradient>
<linearGradient id="paint17_linear_4956_49649" x1="301" y1="94.674" x2="301" y2="71.3383" gradientUnits="userSpaceOnUse">
<stop stop-color="#FFBF00"/>
<stop offset="1" stop-color="#E843C4"/>
</linearGradient>
<linearGradient id="paint18_linear_4956_49649" x1="821" y1="83" x2="625" y2="83" gradientUnits="userSpaceOnUse">
<stop stop-color="#E843C4"/>
<stop offset="1" stop-color="#FFCC4D"/>
</linearGradient>
<linearGradient id="paint19_linear_4956_49649" x1="723.997" y1="71.0049" x2="723.997" y2="95.0073" gradientUnits="userSpaceOnUse">
<stop stop-color="#FFBF00"/>
<stop offset="1" stop-color="#E843C4"/>
</linearGradient>
</defs>
</svg>
