<svg width="565" height="329" viewBox="0 0 565 329" fill="none" xmlns="http://www.w3.org/2000/svg">
<rect x="29.002" y="1.62012" width="10.7635" height="10.7601" rx="3.10734" fill="#E843C4"/>
<path d="M47.52 12C47.4173 12 47.338 11.972 47.282 11.916C47.226 11.8507 47.198 11.7713 47.198 11.678V2.536C47.198 2.43333 47.226 2.354 47.282 2.298C47.338 2.23267 47.4173 2.2 47.52 2.2H50.698C51.6593 2.2 52.434 2.34467 53.022 2.634C53.61 2.92333 54.0393 3.35267 54.31 3.922C54.5806 4.482 54.7206 5.17267 54.73 5.994C54.7393 6.414 54.744 6.78267 54.744 7.1C54.744 7.41733 54.7393 7.78133 54.73 8.192C54.7113 9.05067 54.5666 9.76467 54.296 10.334C54.0346 10.894 53.6146 11.314 53.036 11.594C52.4666 11.8647 51.7106 12 50.768 12H47.52ZM48.57 10.81H50.698C51.342 10.81 51.8553 10.7213 52.238 10.544C52.6206 10.3667 52.896 10.082 53.064 9.69C53.2413 9.298 53.3346 8.78 53.344 8.136C53.3626 7.856 53.372 7.61333 53.372 7.408C53.372 7.19333 53.372 6.98333 53.372 6.778C53.372 6.56333 53.3626 6.32067 53.344 6.05C53.3253 5.14467 53.1106 4.47733 52.7 4.048C52.2893 3.60933 51.5986 3.39 50.628 3.39H48.57V10.81ZM56.7283 12C56.6536 12 56.5883 11.972 56.5323 11.916C56.4763 11.86 56.4483 11.7947 56.4483 11.72C56.4483 11.6733 56.4529 11.622 56.4623 11.566L59.9343 2.508C59.9716 2.41467 60.0229 2.34 60.0883 2.284C60.1536 2.228 60.2516 2.2 60.3823 2.2H61.3343C61.4556 2.2 61.5489 2.228 61.6143 2.284C61.6889 2.34 61.7449 2.41467 61.7823 2.508L65.2403 11.566C65.2589 11.622 65.2683 11.6733 65.2683 11.72C65.2683 11.7947 65.2403 11.86 65.1843 11.916C65.1283 11.972 65.0629 12 64.9883 12H64.2743C64.1623 12 64.0783 11.972 64.0223 11.916C63.9756 11.86 63.9429 11.8087 63.9243 11.762L63.1543 9.774H58.5623L57.7923 11.762C57.7829 11.8087 57.7503 11.86 57.6943 11.916C57.6383 11.972 57.5543 12 57.4423 12H56.7283ZM58.9683 8.57H62.7483L60.8583 3.6L58.9683 8.57ZM70.8014 12.14C70.0081 12.14 69.3268 12.0047 68.7574 11.734C68.1881 11.454 67.7494 11.0293 67.4414 10.46C67.1334 9.88133 66.9608 9.158 66.9234 8.29C66.9141 7.87933 66.9094 7.48733 66.9094 7.114C66.9094 6.73133 66.9141 6.33467 66.9234 5.924C66.9608 5.06533 67.1381 4.35133 67.4554 3.782C67.7821 3.20333 68.2301 2.774 68.7994 2.494C69.3781 2.20467 70.0454 2.06 70.8014 2.06C71.5668 2.06 72.2341 2.20467 72.8034 2.494C73.3821 2.774 73.8348 3.20333 74.1614 3.782C74.4881 4.35133 74.6654 5.06533 74.6934 5.924C74.7121 6.33467 74.7214 6.73133 74.7214 7.114C74.7214 7.48733 74.7121 7.87933 74.6934 8.29C74.6654 9.158 74.4928 9.88133 74.1754 10.46C73.8674 11.0293 73.4288 11.454 72.8594 11.734C72.2901 12.0047 71.6041 12.14 70.8014 12.14ZM70.8014 10.95C71.5201 10.95 72.1034 10.7353 72.5514 10.306C73.0088 9.87667 73.2561 9.18133 73.2934 8.22C73.3121 7.8 73.3214 7.42667 73.3214 7.1C73.3214 6.764 73.3121 6.39067 73.2934 5.98C73.2748 5.336 73.1534 4.81333 72.9294 4.412C72.7148 4.01067 72.4254 3.71667 72.0614 3.53C71.6974 3.34333 71.2774 3.25 70.8014 3.25C70.3441 3.25 69.9334 3.34333 69.5694 3.53C69.2054 3.71667 68.9114 4.01067 68.6874 4.412C68.4728 4.81333 68.3514 5.336 68.3234 5.98C68.3141 6.39067 68.3094 6.764 68.3094 7.1C68.3094 7.42667 68.3141 7.8 68.3234 8.22C68.3608 9.18133 68.6081 9.87667 69.0654 10.306C69.5228 10.7353 70.1014 10.95 70.8014 10.95ZM84.3937 12.14C83.7497 12.14 83.185 12.0233 82.6997 11.79C82.2143 11.5567 81.8363 11.2347 81.5657 10.824C81.295 10.404 81.1597 9.92333 81.1597 9.382C81.1597 8.95267 81.2483 8.57933 81.4257 8.262C81.6123 7.93533 81.855 7.646 82.1537 7.394C82.4523 7.142 82.779 6.91333 83.1337 6.708C82.695 6.24133 82.3823 5.83067 82.1957 5.476C82.0183 5.12133 81.9297 4.75267 81.9297 4.37C81.9297 3.95 82.037 3.56733 82.2517 3.222C82.4663 2.87667 82.7697 2.59667 83.1617 2.382C83.5537 2.16733 84.0157 2.06 84.5477 2.06C85.061 2.06 85.509 2.16267 85.8917 2.368C86.2837 2.57333 86.587 2.84867 86.8017 3.194C87.0163 3.53933 87.1237 3.92667 87.1237 4.356C87.1237 4.76667 87.0257 5.126 86.8297 5.434C86.6337 5.742 86.3723 6.01733 86.0457 6.26C85.7283 6.50267 85.3783 6.73133 84.9957 6.946L87.3757 9.284C87.525 9.02267 87.665 8.71933 87.7957 8.374C87.9357 8.02867 88.043 7.62267 88.1177 7.156C88.1457 6.96933 88.2484 6.876 88.4257 6.876H89.0417C89.1257 6.876 89.1957 6.904 89.2517 6.96C89.3077 7.016 89.3357 7.086 89.3357 7.17C89.3264 7.37533 89.2937 7.59467 89.2377 7.828C89.191 8.06133 89.1163 8.30867 89.0137 8.57C88.9204 8.83133 88.8037 9.09267 88.6637 9.354C88.533 9.606 88.379 9.858 88.2017 10.11L89.6297 11.524C89.7137 11.5987 89.7557 11.6687 89.7557 11.734C89.7557 11.818 89.7323 11.8833 89.6857 11.93C89.639 11.9767 89.569 12 89.4757 12H88.6917C88.5984 12 88.519 11.986 88.4537 11.958C88.3977 11.93 88.351 11.8973 88.3137 11.86L87.3897 10.95C87.0257 11.3047 86.5963 11.594 86.1017 11.818C85.607 12.0327 85.0377 12.14 84.3937 12.14ZM84.3937 11.02C84.767 11.02 85.1403 10.9453 85.5137 10.796C85.887 10.6373 86.2323 10.404 86.5497 10.096L83.9317 7.534C83.5303 7.758 83.1803 8.01467 82.8817 8.304C82.5923 8.584 82.4477 8.934 82.4477 9.354C82.4477 9.70867 82.5363 10.012 82.7137 10.264C82.9003 10.5067 83.143 10.6933 83.4417 10.824C83.7403 10.9547 84.0577 11.02 84.3937 11.02ZM84.2257 6.134C84.5243 5.966 84.7997 5.798 85.0517 5.63C85.313 5.462 85.5183 5.27533 85.6677 5.07C85.8263 4.86467 85.9057 4.63133 85.9057 4.37C85.9057 3.99667 85.775 3.698 85.5137 3.474C85.2523 3.25 84.9303 3.138 84.5477 3.138C84.1837 3.138 83.8617 3.25 83.5817 3.474C83.311 3.68867 83.1757 3.992 83.1757 4.384C83.1757 4.54267 83.2037 4.706 83.2597 4.874C83.325 5.03267 83.4323 5.21 83.5817 5.406C83.731 5.602 83.9457 5.84467 84.2257 6.134ZM96.468 12C96.3654 12 96.286 11.972 96.23 11.916C96.174 11.8507 96.146 11.7713 96.146 11.678V2.536C96.146 2.43333 96.174 2.354 96.23 2.298C96.286 2.23267 96.3654 2.2 96.468 2.2H99.884C100.939 2.2 101.774 2.44733 102.39 2.942C103.006 3.43667 103.314 4.16933 103.314 5.14C103.314 5.85867 103.132 6.44667 102.768 6.904C102.413 7.352 101.928 7.66467 101.312 7.842L103.468 11.566C103.496 11.622 103.51 11.6733 103.51 11.72C103.51 11.7947 103.477 11.86 103.412 11.916C103.356 11.972 103.291 12 103.216 12H102.544C102.385 12 102.269 11.958 102.194 11.874C102.119 11.79 102.054 11.706 101.998 11.622L99.968 8.066H97.518V11.678C97.518 11.7713 97.4854 11.8507 97.42 11.916C97.364 11.972 97.2847 12 97.182 12H96.468ZM97.518 6.876H99.828C100.528 6.876 101.051 6.73133 101.396 6.442C101.741 6.14333 101.914 5.70467 101.914 5.126C101.914 4.55667 101.741 4.12267 101.396 3.824C101.06 3.52533 100.537 3.376 99.828 3.376H97.518V6.876ZM108.654 12.14C107.692 12.14 106.927 11.846 106.358 11.258C105.788 10.6607 105.476 9.84867 105.42 8.822C105.41 8.70067 105.406 8.54667 105.406 8.36C105.406 8.164 105.41 8.00533 105.42 7.884C105.457 7.22133 105.611 6.64267 105.882 6.148C106.152 5.644 106.521 5.25667 106.988 4.986C107.464 4.71533 108.019 4.58 108.654 4.58C109.363 4.58 109.956 4.72933 110.432 5.028C110.917 5.32667 111.286 5.75133 111.538 6.302C111.79 6.85267 111.916 7.49667 111.916 8.234V8.472C111.916 8.57467 111.883 8.654 111.818 8.71C111.762 8.766 111.687 8.794 111.594 8.794H106.75C106.75 8.80333 106.75 8.822 106.75 8.85C106.75 8.878 106.75 8.90133 106.75 8.92C106.768 9.30267 106.852 9.662 107.002 9.998C107.151 10.3247 107.366 10.5907 107.646 10.796C107.926 11.0013 108.262 11.104 108.654 11.104C108.99 11.104 109.27 11.0527 109.494 10.95C109.718 10.8473 109.9 10.7353 110.04 10.614C110.18 10.4833 110.273 10.3853 110.32 10.32C110.404 10.1987 110.469 10.1287 110.516 10.11C110.562 10.082 110.637 10.068 110.74 10.068H111.412C111.505 10.068 111.58 10.096 111.636 10.152C111.701 10.1987 111.729 10.2687 111.72 10.362C111.71 10.502 111.636 10.6747 111.496 10.88C111.356 11.076 111.155 11.272 110.894 11.468C110.632 11.664 110.315 11.8273 109.942 11.958C109.568 12.0793 109.139 12.14 108.654 12.14ZM106.75 7.828H110.586V7.786C110.586 7.366 110.506 6.99267 110.348 6.666C110.198 6.33933 109.979 6.08267 109.69 5.896C109.4 5.7 109.055 5.602 108.654 5.602C108.252 5.602 107.907 5.7 107.618 5.896C107.338 6.08267 107.123 6.33933 106.974 6.666C106.824 6.99267 106.75 7.366 106.75 7.786V7.828ZM116.03 12C115.909 12 115.816 11.972 115.75 11.916C115.685 11.8507 115.629 11.762 115.582 11.65L113.594 5.154C113.576 5.10733 113.566 5.06067 113.566 5.014C113.566 4.93 113.594 4.86 113.65 4.804C113.716 4.748 113.786 4.72 113.86 4.72H114.476C114.579 4.72 114.658 4.748 114.714 4.804C114.77 4.86 114.808 4.91133 114.826 4.958L116.38 10.236L118.046 5.014C118.065 4.94867 118.102 4.88333 118.158 4.818C118.224 4.75267 118.317 4.72 118.438 4.72H118.914C119.036 4.72 119.129 4.75267 119.194 4.818C119.26 4.88333 119.297 4.94867 119.306 5.014L120.972 10.236L122.526 4.958C122.536 4.91133 122.568 4.86 122.624 4.804C122.68 4.748 122.76 4.72 122.862 4.72H123.478C123.562 4.72 123.632 4.748 123.688 4.804C123.744 4.86 123.772 4.93 123.772 5.014C123.772 5.06067 123.763 5.10733 123.744 5.154L121.756 11.65C121.728 11.762 121.677 11.8507 121.602 11.916C121.537 11.972 121.439 12 121.308 12H120.762C120.641 12 120.538 11.972 120.454 11.916C120.38 11.8507 120.328 11.762 120.3 11.65L118.676 6.638L117.052 11.65C117.015 11.762 116.959 11.8507 116.884 11.916C116.81 11.972 116.707 12 116.576 12H116.03ZM127.848 12.14C127.381 12.14 126.957 12.0467 126.574 11.86C126.191 11.6733 125.883 11.4213 125.65 11.104C125.417 10.7867 125.3 10.4273 125.3 10.026C125.3 9.382 125.561 8.86867 126.084 8.486C126.607 8.10333 127.288 7.85133 128.128 7.73L130.214 7.436V7.03C130.214 6.582 130.083 6.232 129.822 5.98C129.57 5.728 129.155 5.602 128.576 5.602C128.156 5.602 127.815 5.686 127.554 5.854C127.302 6.022 127.125 6.23667 127.022 6.498C126.966 6.638 126.868 6.708 126.728 6.708H126.098C125.995 6.708 125.916 6.68 125.86 6.624C125.813 6.55867 125.79 6.484 125.79 6.4C125.79 6.26 125.841 6.08733 125.944 5.882C126.056 5.67667 126.224 5.476 126.448 5.28C126.672 5.084 126.957 4.92067 127.302 4.79C127.657 4.65 128.086 4.58 128.59 4.58C129.15 4.58 129.621 4.65467 130.004 4.804C130.387 4.944 130.685 5.13533 130.9 5.378C131.124 5.62067 131.283 5.896 131.376 6.204C131.479 6.512 131.53 6.82467 131.53 7.142V11.678C131.53 11.7713 131.497 11.8507 131.432 11.916C131.376 11.972 131.301 12 131.208 12H130.564C130.461 12 130.382 11.972 130.326 11.916C130.27 11.8507 130.242 11.7713 130.242 11.678V11.076C130.121 11.244 129.957 11.412 129.752 11.58C129.547 11.7387 129.29 11.874 128.982 11.986C128.674 12.0887 128.296 12.14 127.848 12.14ZM128.142 11.09C128.525 11.09 128.875 11.0107 129.192 10.852C129.509 10.684 129.757 10.4273 129.934 10.082C130.121 9.73667 130.214 9.30267 130.214 8.78V8.388L128.59 8.626C127.927 8.71933 127.428 8.878 127.092 9.102C126.756 9.31667 126.588 9.592 126.588 9.928C126.588 10.1893 126.663 10.4087 126.812 10.586C126.971 10.754 127.167 10.88 127.4 10.964C127.643 11.048 127.89 11.09 128.142 11.09ZM134.565 12C134.471 12 134.392 11.972 134.327 11.916C134.271 11.8507 134.243 11.7713 134.243 11.678V5.056C134.243 4.96267 134.271 4.88333 134.327 4.818C134.392 4.75267 134.471 4.72 134.565 4.72H135.209C135.302 4.72 135.381 4.75267 135.447 4.818C135.512 4.88333 135.545 4.96267 135.545 5.056V5.672C135.731 5.35467 135.988 5.11667 136.315 4.958C136.641 4.79933 137.033 4.72 137.491 4.72H138.051C138.144 4.72 138.219 4.75267 138.275 4.818C138.331 4.874 138.359 4.94867 138.359 5.042V5.616C138.359 5.70933 138.331 5.784 138.275 5.84C138.219 5.896 138.144 5.924 138.051 5.924H137.211C136.707 5.924 136.31 6.07333 136.021 6.372C135.731 6.66133 135.587 7.058 135.587 7.562V11.678C135.587 11.7713 135.554 11.8507 135.489 11.916C135.423 11.972 135.344 12 135.251 12H134.565ZM142.771 12.14C142.257 12.14 141.814 12.0513 141.441 11.874C141.067 11.6873 140.759 11.44 140.517 11.132C140.283 10.8147 140.106 10.4553 139.985 10.054C139.873 9.65267 139.807 9.228 139.789 8.78C139.779 8.63067 139.775 8.49067 139.775 8.36C139.775 8.22933 139.779 8.08933 139.789 7.94C139.807 7.50133 139.873 7.08133 139.985 6.68C140.106 6.27867 140.283 5.91933 140.517 5.602C140.759 5.28467 141.067 5.03733 141.441 4.86C141.814 4.67333 142.257 4.58 142.771 4.58C143.321 4.58 143.779 4.678 144.143 4.874C144.507 5.07 144.805 5.31267 145.039 5.602V2.382C145.039 2.28867 145.067 2.214 145.123 2.158C145.188 2.09267 145.267 2.06 145.361 2.06H146.033C146.126 2.06 146.201 2.09267 146.257 2.158C146.322 2.214 146.355 2.28867 146.355 2.382V11.678C146.355 11.7713 146.322 11.8507 146.257 11.916C146.201 11.972 146.126 12 146.033 12H145.403C145.3 12 145.221 11.972 145.165 11.916C145.109 11.8507 145.081 11.7713 145.081 11.678V11.09C144.847 11.3887 144.544 11.6407 144.171 11.846C143.797 12.042 143.331 12.14 142.771 12.14ZM143.065 11.006C143.531 11.006 143.905 10.8987 144.185 10.684C144.465 10.4693 144.675 10.1987 144.815 9.872C144.955 9.536 145.029 9.19533 145.039 8.85C145.048 8.70067 145.053 8.52333 145.053 8.318C145.053 8.10333 145.048 7.92133 145.039 7.772C145.029 7.44533 144.95 7.12333 144.801 6.806C144.661 6.48867 144.446 6.22733 144.157 6.022C143.877 5.81667 143.513 5.714 143.065 5.714C142.589 5.714 142.211 5.82133 141.931 6.036C141.651 6.24133 141.45 6.51667 141.329 6.862C141.207 7.198 141.137 7.562 141.119 7.954C141.109 8.22467 141.109 8.49533 141.119 8.766C141.137 9.158 141.207 9.52667 141.329 9.872C141.45 10.208 141.651 10.4833 141.931 10.698C142.211 10.9033 142.589 11.006 143.065 11.006ZM151.657 12.14C151.134 12.14 150.686 12.0747 150.313 11.944C149.939 11.8133 149.636 11.6547 149.403 11.468C149.169 11.2813 148.992 11.0947 148.871 10.908C148.759 10.7213 148.698 10.572 148.689 10.46C148.679 10.3573 148.712 10.278 148.787 10.222C148.861 10.166 148.936 10.138 149.011 10.138H149.627C149.683 10.138 149.725 10.1473 149.753 10.166C149.79 10.1753 149.837 10.2127 149.893 10.278C150.014 10.4087 150.149 10.5393 150.299 10.67C150.448 10.8007 150.63 10.908 150.845 10.992C151.069 11.076 151.344 11.118 151.671 11.118C152.147 11.118 152.539 11.0293 152.847 10.852C153.155 10.6653 153.309 10.3947 153.309 10.04C153.309 9.80667 153.243 9.62 153.113 9.48C152.991 9.34 152.767 9.214 152.441 9.102C152.123 8.99 151.685 8.87333 151.125 8.752C150.565 8.62133 150.121 8.46267 149.795 8.276C149.468 8.08 149.235 7.85133 149.095 7.59C148.955 7.31933 148.885 7.016 148.885 6.68C148.885 6.33467 148.987 6.00333 149.193 5.686C149.398 5.35933 149.697 5.09333 150.089 4.888C150.49 4.68267 150.989 4.58 151.587 4.58C152.072 4.58 152.487 4.64067 152.833 4.762C153.178 4.88333 153.463 5.03733 153.687 5.224C153.911 5.40133 154.079 5.57867 154.191 5.756C154.303 5.93333 154.363 6.08267 154.373 6.204C154.382 6.29733 154.354 6.37667 154.289 6.442C154.223 6.498 154.149 6.526 154.065 6.526H153.477C153.411 6.526 153.355 6.512 153.309 6.484C153.271 6.456 153.234 6.42333 153.197 6.386C153.103 6.26467 152.991 6.14333 152.861 6.022C152.739 5.90067 152.576 5.80267 152.371 5.728C152.175 5.644 151.913 5.602 151.587 5.602C151.12 5.602 150.77 5.7 150.537 5.896C150.303 6.092 150.187 6.33933 150.187 6.638C150.187 6.81533 150.238 6.974 150.341 7.114C150.443 7.254 150.639 7.38 150.929 7.492C151.218 7.604 151.647 7.72533 152.217 7.856C152.833 7.97733 153.318 8.14067 153.673 8.346C154.027 8.55133 154.279 8.78933 154.429 9.06C154.578 9.33067 154.653 9.64333 154.653 9.998C154.653 10.39 154.536 10.7493 154.303 11.076C154.079 11.4027 153.743 11.664 153.295 11.86C152.856 12.0467 152.31 12.14 151.657 12.14Z" fill="#FCFCFC"/>
<rect x="208.676" y="1.62012" width="10.7635" height="10.7601" rx="3.10734" fill="#FBBC04"/>
<path d="M229.336 12C229.242 12 229.163 11.972 229.098 11.916C229.042 11.8507 229.014 11.7713 229.014 11.678V3.446H226.326C226.232 3.446 226.153 3.418 226.088 3.362C226.032 3.29667 226.004 3.21733 226.004 3.124V2.536C226.004 2.43333 226.032 2.354 226.088 2.298C226.153 2.23267 226.232 2.2 226.326 2.2H233.074C233.176 2.2 233.256 2.23267 233.312 2.298C233.377 2.354 233.41 2.43333 233.41 2.536V3.124C233.41 3.21733 233.377 3.29667 233.312 3.362C233.256 3.418 233.176 3.446 233.074 3.446H230.4V11.678C230.4 11.7713 230.367 11.8507 230.302 11.916C230.246 11.972 230.166 12 230.064 12H229.336ZM237.055 12.14C236.094 12.14 235.329 11.846 234.759 11.258C234.19 10.6607 233.877 9.84867 233.821 8.822C233.812 8.70067 233.807 8.54667 233.807 8.36C233.807 8.164 233.812 8.00533 233.821 7.884C233.859 7.22133 234.013 6.64267 234.283 6.148C234.554 5.644 234.923 5.25667 235.389 4.986C235.865 4.71533 236.421 4.58 237.055 4.58C237.765 4.58 238.357 4.72933 238.833 5.028C239.319 5.32667 239.687 5.75133 239.939 6.302C240.191 6.85267 240.317 7.49667 240.317 8.234V8.472C240.317 8.57467 240.285 8.654 240.219 8.71C240.163 8.766 240.089 8.794 239.995 8.794H235.151C235.151 8.80333 235.151 8.822 235.151 8.85C235.151 8.878 235.151 8.90133 235.151 8.92C235.17 9.30267 235.254 9.662 235.403 9.998C235.553 10.3247 235.767 10.5907 236.047 10.796C236.327 11.0013 236.663 11.104 237.055 11.104C237.391 11.104 237.671 11.0527 237.895 10.95C238.119 10.8473 238.301 10.7353 238.441 10.614C238.581 10.4833 238.675 10.3853 238.721 10.32C238.805 10.1987 238.871 10.1287 238.917 10.11C238.964 10.082 239.039 10.068 239.141 10.068H239.813C239.907 10.068 239.981 10.096 240.037 10.152C240.103 10.1987 240.131 10.2687 240.121 10.362C240.112 10.502 240.037 10.6747 239.897 10.88C239.757 11.076 239.557 11.272 239.295 11.468C239.034 11.664 238.717 11.8273 238.343 11.958C237.97 12.0793 237.541 12.14 237.055 12.14ZM235.151 7.828H238.987V7.786C238.987 7.366 238.908 6.99267 238.749 6.666C238.6 6.33933 238.381 6.08267 238.091 5.896C237.802 5.7 237.457 5.602 237.055 5.602C236.654 5.602 236.309 5.7 236.019 5.896C235.739 6.08267 235.525 6.33933 235.375 6.666C235.226 6.99267 235.151 7.366 235.151 7.786V7.828ZM244.721 12.14C244.255 12.14 243.83 12.0467 243.447 11.86C243.065 11.6733 242.757 11.4213 242.523 11.104C242.29 10.7867 242.173 10.4273 242.173 10.026C242.173 9.382 242.435 8.86867 242.957 8.486C243.48 8.10333 244.161 7.85133 245.001 7.73L247.087 7.436V7.03C247.087 6.582 246.957 6.232 246.695 5.98C246.443 5.728 246.028 5.602 245.449 5.602C245.029 5.602 244.689 5.686 244.427 5.854C244.175 6.022 243.998 6.23667 243.895 6.498C243.839 6.638 243.741 6.708 243.601 6.708H242.971C242.869 6.708 242.789 6.68 242.733 6.624C242.687 6.55867 242.663 6.484 242.663 6.4C242.663 6.26 242.715 6.08733 242.817 5.882C242.929 5.67667 243.097 5.476 243.321 5.28C243.545 5.084 243.83 4.92067 244.175 4.79C244.53 4.65 244.959 4.58 245.463 4.58C246.023 4.58 246.495 4.65467 246.877 4.804C247.26 4.944 247.559 5.13533 247.773 5.378C247.997 5.62067 248.156 5.896 248.249 6.204C248.352 6.512 248.403 6.82467 248.403 7.142V11.678C248.403 11.7713 248.371 11.8507 248.305 11.916C248.249 11.972 248.175 12 248.081 12H247.437C247.335 12 247.255 11.972 247.199 11.916C247.143 11.8507 247.115 11.7713 247.115 11.678V11.076C246.994 11.244 246.831 11.412 246.625 11.58C246.42 11.7387 246.163 11.874 245.855 11.986C245.547 12.0887 245.169 12.14 244.721 12.14ZM245.015 11.09C245.398 11.09 245.748 11.0107 246.065 10.852C246.383 10.684 246.63 10.4273 246.807 10.082C246.994 9.73667 247.087 9.30267 247.087 8.78V8.388L245.463 8.626C244.801 8.71933 244.301 8.878 243.965 9.102C243.629 9.31667 243.461 9.592 243.461 9.928C243.461 10.1893 243.536 10.4087 243.685 10.586C243.844 10.754 244.04 10.88 244.273 10.964C244.516 11.048 244.763 11.09 245.015 11.09ZM251.438 12C251.345 12 251.265 11.972 251.2 11.916C251.144 11.8507 251.116 11.7713 251.116 11.678V5.042C251.116 4.94867 251.144 4.874 251.2 4.818C251.265 4.75267 251.345 4.72 251.438 4.72H252.068C252.161 4.72 252.236 4.75267 252.292 4.818C252.357 4.874 252.39 4.94867 252.39 5.042V5.532C252.605 5.24267 252.875 5.014 253.202 4.846C253.529 4.66867 253.921 4.58 254.378 4.58C255.433 4.57067 256.179 5 256.618 5.868C256.833 5.476 257.145 5.16333 257.556 4.93C257.967 4.69667 258.433 4.58 258.956 4.58C259.441 4.58 259.88 4.692 260.272 4.916C260.673 5.14 260.986 5.48067 261.21 5.938C261.443 6.386 261.56 6.95067 261.56 7.632V11.678C261.56 11.7713 261.527 11.8507 261.462 11.916C261.406 11.972 261.331 12 261.238 12H260.58C260.487 12 260.407 11.972 260.342 11.916C260.286 11.8507 260.258 11.7713 260.258 11.678V7.758C260.258 7.23533 260.183 6.82467 260.034 6.526C259.885 6.22733 259.684 6.01733 259.432 5.896C259.18 5.77467 258.905 5.714 258.606 5.714C258.363 5.714 258.116 5.77467 257.864 5.896C257.612 6.01733 257.402 6.22733 257.234 6.526C257.075 6.82467 256.996 7.23533 256.996 7.758V11.678C256.996 11.7713 256.963 11.8507 256.898 11.916C256.842 11.972 256.767 12 256.674 12H256.016C255.923 12 255.843 11.972 255.778 11.916C255.722 11.8507 255.694 11.7713 255.694 11.678V7.758C255.694 7.23533 255.615 6.82467 255.456 6.526C255.297 6.22733 255.092 6.01733 254.84 5.896C254.588 5.77467 254.322 5.714 254.042 5.714C253.799 5.714 253.552 5.77467 253.3 5.896C253.048 6.01733 252.838 6.22733 252.67 6.526C252.511 6.82467 252.432 7.23067 252.432 7.744V11.678C252.432 11.7713 252.399 11.8507 252.334 11.916C252.278 11.972 252.203 12 252.11 12H251.438Z" fill="#FCFCFC"/>
<rect x="315.35" y="1.62012" width="10.7635" height="10.7601" rx="3.10734" fill="#26DBDB"/>
<path d="M333.868 12C333.765 12 333.686 11.972 333.63 11.916C333.574 11.8507 333.546 11.7713 333.546 11.678V2.536C333.546 2.43333 333.574 2.354 333.63 2.298C333.686 2.23267 333.765 2.2 333.868 2.2H337.424C338.114 2.2 338.712 2.312 339.216 2.536C339.729 2.76 340.126 3.096 340.406 3.544C340.686 3.98267 340.826 4.53333 340.826 5.196C340.826 5.85867 340.686 6.40933 340.406 6.848C340.126 7.28667 339.729 7.618 339.216 7.842C338.712 8.066 338.114 8.178 337.424 8.178H334.946V11.678C334.946 11.7713 334.913 11.8507 334.848 11.916C334.792 11.972 334.712 12 334.61 12H333.868ZM334.932 7.002H337.354C338.044 7.002 338.562 6.848 338.908 6.54C339.253 6.232 339.426 5.784 339.426 5.196C339.426 4.61733 339.258 4.16933 338.922 3.852C338.586 3.53467 338.063 3.376 337.354 3.376H334.932V7.002ZM343.368 12C343.275 12 343.195 11.972 343.13 11.916C343.074 11.8507 343.046 11.7713 343.046 11.678V5.056C343.046 4.96267 343.074 4.88333 343.13 4.818C343.195 4.75267 343.275 4.72 343.368 4.72H344.012C344.105 4.72 344.185 4.75267 344.25 4.818C344.315 4.88333 344.348 4.96267 344.348 5.056V5.672C344.535 5.35467 344.791 5.11667 345.118 4.958C345.445 4.79933 345.837 4.72 346.294 4.72H346.854C346.947 4.72 347.022 4.75267 347.078 4.818C347.134 4.874 347.162 4.94867 347.162 5.042V5.616C347.162 5.70933 347.134 5.784 347.078 5.84C347.022 5.896 346.947 5.924 346.854 5.924H346.014C345.51 5.924 345.113 6.07333 344.824 6.372C344.535 6.66133 344.39 7.058 344.39 7.562V11.678C344.39 11.7713 344.357 11.8507 344.292 11.916C344.227 11.972 344.147 12 344.054 12H343.368ZM349.386 12C349.293 12 349.214 11.972 349.148 11.916C349.092 11.8507 349.064 11.7713 349.064 11.678V5.042C349.064 4.94867 349.092 4.874 349.148 4.818C349.214 4.75267 349.293 4.72 349.386 4.72H350.058C350.152 4.72 350.226 4.75267 350.282 4.818C350.338 4.874 350.366 4.94867 350.366 5.042V11.678C350.366 11.7713 350.338 11.8507 350.282 11.916C350.226 11.972 350.152 12 350.058 12H349.386ZM349.274 3.362C349.181 3.362 349.102 3.334 349.036 3.278C348.98 3.21267 348.952 3.13333 348.952 3.04V2.284C348.952 2.19067 348.98 2.116 349.036 2.06C349.102 1.99467 349.181 1.962 349.274 1.962H350.156C350.25 1.962 350.324 1.99467 350.38 2.06C350.446 2.116 350.478 2.19067 350.478 2.284V3.04C350.478 3.13333 350.446 3.21267 350.38 3.278C350.324 3.334 350.25 3.362 350.156 3.362H349.274ZM355.689 12C355.549 12 355.437 11.9673 355.353 11.902C355.278 11.8367 355.218 11.7527 355.171 11.65L352.581 5.154C352.562 5.10733 352.553 5.06067 352.553 5.014C352.553 4.93 352.581 4.86 352.637 4.804C352.693 4.748 352.763 4.72 352.847 4.72H353.519C353.622 4.72 353.701 4.748 353.757 4.804C353.813 4.86 353.846 4.91133 353.855 4.958L355.997 10.474L358.125 4.958C358.144 4.91133 358.176 4.86 358.223 4.804C358.279 4.748 358.358 4.72 358.461 4.72H359.147C359.222 4.72 359.287 4.748 359.343 4.804C359.408 4.86 359.441 4.93 359.441 5.014C359.441 5.06067 359.432 5.10733 359.413 5.154L356.809 11.65C356.772 11.7527 356.711 11.8367 356.627 11.902C356.552 11.9673 356.44 12 356.291 12H355.689ZM363.364 12.14C362.897 12.14 362.472 12.0467 362.09 11.86C361.707 11.6733 361.399 11.4213 361.166 11.104C360.932 10.7867 360.816 10.4273 360.816 10.026C360.816 9.382 361.077 8.86867 361.6 8.486C362.122 8.10333 362.804 7.85133 363.644 7.73L365.73 7.436V7.03C365.73 6.582 365.599 6.232 365.338 5.98C365.086 5.728 364.67 5.602 364.092 5.602C363.672 5.602 363.331 5.686 363.07 5.854C362.818 6.022 362.64 6.23667 362.538 6.498C362.482 6.638 362.384 6.708 362.244 6.708H361.614C361.511 6.708 361.432 6.68 361.376 6.624C361.329 6.55867 361.306 6.484 361.306 6.4C361.306 6.26 361.357 6.08733 361.46 5.882C361.572 5.67667 361.74 5.476 361.964 5.28C362.188 5.084 362.472 4.92067 362.818 4.79C363.172 4.65 363.602 4.58 364.106 4.58C364.666 4.58 365.137 4.65467 365.52 4.804C365.902 4.944 366.201 5.13533 366.416 5.378C366.64 5.62067 366.798 5.896 366.892 6.204C366.994 6.512 367.046 6.82467 367.046 7.142V11.678C367.046 11.7713 367.013 11.8507 366.948 11.916C366.892 11.972 366.817 12 366.724 12H366.08C365.977 12 365.898 11.972 365.842 11.916C365.786 11.8507 365.758 11.7713 365.758 11.678V11.076C365.636 11.244 365.473 11.412 365.268 11.58C365.062 11.7387 364.806 11.874 364.498 11.986C364.19 12.0887 363.812 12.14 363.364 12.14ZM363.658 11.09C364.04 11.09 364.39 11.0107 364.708 10.852C365.025 10.684 365.272 10.4273 365.45 10.082C365.636 9.73667 365.73 9.30267 365.73 8.78V8.388L364.106 8.626C363.443 8.71933 362.944 8.878 362.608 9.102C362.272 9.31667 362.104 9.592 362.104 9.928C362.104 10.1893 362.178 10.4087 362.328 10.586C362.486 10.754 362.682 10.88 362.916 10.964C363.158 11.048 363.406 11.09 363.658 11.09ZM372.532 12C372.009 12 371.584 11.902 371.258 11.706C370.931 11.5007 370.693 11.216 370.544 10.852C370.394 10.4787 370.32 10.04 370.32 9.536V5.84H369.228C369.134 5.84 369.055 5.812 368.99 5.756C368.934 5.69067 368.906 5.61133 368.906 5.518V5.042C368.906 4.94867 368.934 4.874 368.99 4.818C369.055 4.75267 369.134 4.72 369.228 4.72H370.32V2.382C370.32 2.28867 370.348 2.214 370.404 2.158C370.469 2.09267 370.548 2.06 370.642 2.06H371.3C371.393 2.06 371.468 2.09267 371.524 2.158C371.589 2.214 371.622 2.28867 371.622 2.382V4.72H373.358C373.451 4.72 373.526 4.75267 373.582 4.818C373.647 4.874 373.68 4.94867 373.68 5.042V5.518C373.68 5.61133 373.647 5.69067 373.582 5.756C373.526 5.812 373.451 5.84 373.358 5.84H371.622V9.438C371.622 9.87667 371.696 10.222 371.846 10.474C371.995 10.726 372.261 10.852 372.644 10.852H373.498C373.591 10.852 373.666 10.8847 373.722 10.95C373.787 11.006 373.82 11.0807 373.82 11.174V11.678C373.82 11.7713 373.787 11.8507 373.722 11.916C373.666 11.972 373.591 12 373.498 12H372.532ZM378.757 12.14C377.795 12.14 377.03 11.846 376.461 11.258C375.891 10.6607 375.579 9.84867 375.523 8.822C375.513 8.70067 375.509 8.54667 375.509 8.36C375.509 8.164 375.513 8.00533 375.523 7.884C375.56 7.22133 375.714 6.64267 375.985 6.148C376.255 5.644 376.624 5.25667 377.091 4.986C377.567 4.71533 378.122 4.58 378.757 4.58C379.466 4.58 380.059 4.72933 380.535 5.028C381.02 5.32667 381.389 5.75133 381.641 6.302C381.893 6.85267 382.019 7.49667 382.019 8.234V8.472C382.019 8.57467 381.986 8.654 381.921 8.71C381.865 8.766 381.79 8.794 381.697 8.794H376.853C376.853 8.80333 376.853 8.822 376.853 8.85C376.853 8.878 376.853 8.90133 376.853 8.92C376.871 9.30267 376.955 9.662 377.105 9.998C377.254 10.3247 377.469 10.5907 377.749 10.796C378.029 11.0013 378.365 11.104 378.757 11.104C379.093 11.104 379.373 11.0527 379.597 10.95C379.821 10.8473 380.003 10.7353 380.143 10.614C380.283 10.4833 380.376 10.3853 380.423 10.32C380.507 10.1987 380.572 10.1287 380.619 10.11C380.665 10.082 380.74 10.068 380.843 10.068H381.515C381.608 10.068 381.683 10.096 381.739 10.152C381.804 10.1987 381.832 10.2687 381.823 10.362C381.813 10.502 381.739 10.6747 381.599 10.88C381.459 11.076 381.258 11.272 380.997 11.468C380.735 11.664 380.418 11.8273 380.045 11.958C379.671 12.0793 379.242 12.14 378.757 12.14ZM376.853 7.828H380.689V7.786C380.689 7.366 380.609 6.99267 380.451 6.666C380.301 6.33933 380.082 6.08267 379.793 5.896C379.503 5.7 379.158 5.602 378.757 5.602C378.355 5.602 378.01 5.7 377.721 5.896C377.441 6.08267 377.226 6.33933 377.077 6.666C376.927 6.99267 376.853 7.366 376.853 7.786V7.828ZM391.856 12.14C391.044 12.14 390.363 12.0187 389.812 11.776C389.262 11.524 388.837 11.202 388.538 10.81C388.249 10.4087 388.095 9.984 388.076 9.536C388.076 9.46133 388.104 9.396 388.16 9.34C388.226 9.27467 388.3 9.242 388.384 9.242H389.098C389.21 9.242 389.294 9.27 389.35 9.326C389.406 9.382 389.444 9.44733 389.462 9.522C389.509 9.746 389.621 9.97 389.798 10.194C389.985 10.4087 390.242 10.5907 390.568 10.74C390.904 10.88 391.334 10.95 391.856 10.95C392.659 10.95 393.247 10.81 393.62 10.53C394.003 10.2407 394.194 9.858 394.194 9.382C394.194 9.05533 394.092 8.794 393.886 8.598C393.69 8.39267 393.387 8.21067 392.976 8.052C392.566 7.89333 392.034 7.72067 391.38 7.534C390.699 7.338 390.134 7.12333 389.686 6.89C389.238 6.65667 388.902 6.36733 388.678 6.022C388.464 5.67667 388.356 5.238 388.356 4.706C388.356 4.202 388.492 3.754 388.762 3.362C389.033 2.96067 389.42 2.64333 389.924 2.41C390.438 2.17667 391.058 2.06 391.786 2.06C392.365 2.06 392.869 2.13933 393.298 2.298C393.737 2.44733 394.101 2.65267 394.39 2.914C394.68 3.166 394.899 3.44133 395.048 3.74C395.198 4.02933 395.277 4.314 395.286 4.594C395.286 4.65933 395.263 4.72467 395.216 4.79C395.17 4.846 395.095 4.874 394.992 4.874H394.25C394.185 4.874 394.115 4.85533 394.04 4.818C393.975 4.78067 393.924 4.71067 393.886 4.608C393.83 4.22533 393.616 3.90333 393.242 3.642C392.869 3.38067 392.384 3.25 391.786 3.25C391.18 3.25 390.685 3.36667 390.302 3.6C389.929 3.83333 389.742 4.19733 389.742 4.692C389.742 5.00933 389.831 5.27533 390.008 5.49C390.186 5.69533 390.466 5.87733 390.848 6.036C391.231 6.19467 391.73 6.36267 392.346 6.54C393.093 6.74533 393.704 6.96467 394.18 7.198C394.656 7.422 395.006 7.70667 395.23 8.052C395.464 8.388 395.58 8.822 395.58 9.354C395.58 9.942 395.426 10.446 395.118 10.866C394.81 11.2767 394.376 11.594 393.816 11.818C393.266 12.0327 392.612 12.14 391.856 12.14ZM399.963 12.14C399.497 12.14 399.072 12.0467 398.689 11.86C398.307 11.6733 397.999 11.4213 397.765 11.104C397.532 10.7867 397.415 10.4273 397.415 10.026C397.415 9.382 397.677 8.86867 398.199 8.486C398.722 8.10333 399.403 7.85133 400.243 7.73L402.329 7.436V7.03C402.329 6.582 402.199 6.232 401.937 5.98C401.685 5.728 401.27 5.602 400.691 5.602C400.271 5.602 399.931 5.686 399.669 5.854C399.417 6.022 399.24 6.23667 399.137 6.498C399.081 6.638 398.983 6.708 398.843 6.708H398.213C398.111 6.708 398.031 6.68 397.975 6.624C397.929 6.55867 397.905 6.484 397.905 6.4C397.905 6.26 397.957 6.08733 398.059 5.882C398.171 5.67667 398.339 5.476 398.563 5.28C398.787 5.084 399.072 4.92067 399.417 4.79C399.772 4.65 400.201 4.58 400.705 4.58C401.265 4.58 401.737 4.65467 402.119 4.804C402.502 4.944 402.801 5.13533 403.015 5.378C403.239 5.62067 403.398 5.896 403.491 6.204C403.594 6.512 403.645 6.82467 403.645 7.142V11.678C403.645 11.7713 403.613 11.8507 403.547 11.916C403.491 11.972 403.417 12 403.323 12H402.679C402.577 12 402.497 11.972 402.441 11.916C402.385 11.8507 402.357 11.7713 402.357 11.678V11.076C402.236 11.244 402.073 11.412 401.867 11.58C401.662 11.7387 401.405 11.874 401.097 11.986C400.789 12.0887 400.411 12.14 399.963 12.14ZM400.257 11.09C400.64 11.09 400.99 11.0107 401.307 10.852C401.625 10.684 401.872 10.4273 402.049 10.082C402.236 9.73667 402.329 9.30267 402.329 8.78V8.388L400.705 8.626C400.043 8.71933 399.543 8.878 399.207 9.102C398.871 9.31667 398.703 9.592 398.703 9.928C398.703 10.1893 398.778 10.4087 398.927 10.586C399.086 10.754 399.282 10.88 399.515 10.964C399.758 11.048 400.005 11.09 400.257 11.09ZM406.694 12C406.6 12 406.521 11.972 406.456 11.916C406.4 11.8507 406.372 11.7713 406.372 11.678V2.382C406.372 2.28867 406.4 2.214 406.456 2.158C406.521 2.09267 406.6 2.06 406.694 2.06H407.352C407.454 2.06 407.534 2.09267 407.59 2.158C407.646 2.214 407.674 2.28867 407.674 2.382V11.678C407.674 11.7713 407.646 11.8507 407.59 11.916C407.534 11.972 407.454 12 407.352 12H406.694ZM413.36 12.14C412.399 12.14 411.633 11.846 411.064 11.258C410.495 10.6607 410.182 9.84867 410.126 8.822C410.117 8.70067 410.112 8.54667 410.112 8.36C410.112 8.164 410.117 8.00533 410.126 7.884C410.163 7.22133 410.317 6.64267 410.588 6.148C410.859 5.644 411.227 5.25667 411.694 4.986C412.17 4.71533 412.725 4.58 413.36 4.58C414.069 4.58 414.662 4.72933 415.138 5.028C415.623 5.32667 415.992 5.75133 416.244 6.302C416.496 6.85267 416.622 7.49667 416.622 8.234V8.472C416.622 8.57467 416.589 8.654 416.524 8.71C416.468 8.766 416.393 8.794 416.3 8.794H411.456C411.456 8.80333 411.456 8.822 411.456 8.85C411.456 8.878 411.456 8.90133 411.456 8.92C411.475 9.30267 411.559 9.662 411.708 9.998C411.857 10.3247 412.072 10.5907 412.352 10.796C412.632 11.0013 412.968 11.104 413.36 11.104C413.696 11.104 413.976 11.0527 414.2 10.95C414.424 10.8473 414.606 10.7353 414.746 10.614C414.886 10.4833 414.979 10.3853 415.026 10.32C415.11 10.1987 415.175 10.1287 415.222 10.11C415.269 10.082 415.343 10.068 415.446 10.068H416.118C416.211 10.068 416.286 10.096 416.342 10.152C416.407 10.1987 416.435 10.2687 416.426 10.362C416.417 10.502 416.342 10.6747 416.202 10.88C416.062 11.076 415.861 11.272 415.6 11.468C415.339 11.664 415.021 11.8273 414.648 11.958C414.275 12.0793 413.845 12.14 413.36 12.14ZM411.456 7.828H415.292V7.786C415.292 7.366 415.213 6.99267 415.054 6.666C414.905 6.33933 414.685 6.08267 414.396 5.896C414.107 5.7 413.761 5.602 413.36 5.602C412.959 5.602 412.613 5.7 412.324 5.896C412.044 6.08267 411.829 6.33933 411.68 6.666C411.531 6.99267 411.456 7.366 411.456 7.786V7.828Z" fill="#FCFCFC"/>
<rect x="470.024" y="1.62012" width="10.7635" height="10.7601" rx="3.10734" fill="#0C3DDC"/>
<path d="M491.37 12.14C490.558 12.14 489.877 12.0187 489.326 11.776C488.775 11.524 488.351 11.202 488.052 10.81C487.763 10.4087 487.609 9.984 487.59 9.536C487.59 9.46133 487.618 9.396 487.674 9.34C487.739 9.27467 487.814 9.242 487.898 9.242H488.612C488.724 9.242 488.808 9.27 488.864 9.326C488.92 9.382 488.957 9.44733 488.976 9.522C489.023 9.746 489.135 9.97 489.312 10.194C489.499 10.4087 489.755 10.5907 490.082 10.74C490.418 10.88 490.847 10.95 491.37 10.95C492.173 10.95 492.761 10.81 493.134 10.53C493.517 10.2407 493.708 9.858 493.708 9.382C493.708 9.05533 493.605 8.794 493.4 8.598C493.204 8.39267 492.901 8.21067 492.49 8.052C492.079 7.89333 491.547 7.72067 490.894 7.534C490.213 7.338 489.648 7.12333 489.2 6.89C488.752 6.65667 488.416 6.36733 488.192 6.022C487.977 5.67667 487.87 5.238 487.87 4.706C487.87 4.202 488.005 3.754 488.276 3.362C488.547 2.96067 488.934 2.64333 489.438 2.41C489.951 2.17667 490.572 2.06 491.3 2.06C491.879 2.06 492.383 2.13933 492.812 2.298C493.251 2.44733 493.615 2.65267 493.904 2.914C494.193 3.166 494.413 3.44133 494.562 3.74C494.711 4.02933 494.791 4.314 494.8 4.594C494.8 4.65933 494.777 4.72467 494.73 4.79C494.683 4.846 494.609 4.874 494.506 4.874H493.764C493.699 4.874 493.629 4.85533 493.554 4.818C493.489 4.78067 493.437 4.71067 493.4 4.608C493.344 4.22533 493.129 3.90333 492.756 3.642C492.383 3.38067 491.897 3.25 491.3 3.25C490.693 3.25 490.199 3.36667 489.816 3.6C489.443 3.83333 489.256 4.19733 489.256 4.692C489.256 5.00933 489.345 5.27533 489.522 5.49C489.699 5.69533 489.979 5.87733 490.362 6.036C490.745 6.19467 491.244 6.36267 491.86 6.54C492.607 6.74533 493.218 6.96467 493.694 7.198C494.17 7.422 494.52 7.70667 494.744 8.052C494.977 8.388 495.094 8.822 495.094 9.354C495.094 9.942 494.94 10.446 494.632 10.866C494.324 11.2767 493.89 11.594 493.33 11.818C492.779 12.0327 492.126 12.14 491.37 12.14ZM500.345 12.14C499.384 12.14 498.618 11.846 498.049 11.258C497.48 10.6607 497.167 9.84867 497.111 8.822C497.102 8.70067 497.097 8.54667 497.097 8.36C497.097 8.164 497.102 8.00533 497.111 7.884C497.148 7.22133 497.302 6.64267 497.573 6.148C497.844 5.644 498.212 5.25667 498.679 4.986C499.155 4.71533 499.71 4.58 500.345 4.58C501.054 4.58 501.647 4.72933 502.123 5.028C502.608 5.32667 502.977 5.75133 503.229 6.302C503.481 6.85267 503.607 7.49667 503.607 8.234V8.472C503.607 8.57467 503.574 8.654 503.509 8.71C503.453 8.766 503.378 8.794 503.285 8.794H498.441C498.441 8.80333 498.441 8.822 498.441 8.85C498.441 8.878 498.441 8.90133 498.441 8.92C498.46 9.30267 498.544 9.662 498.693 9.998C498.842 10.3247 499.057 10.5907 499.337 10.796C499.617 11.0013 499.953 11.104 500.345 11.104C500.681 11.104 500.961 11.0527 501.185 10.95C501.409 10.8473 501.591 10.7353 501.731 10.614C501.871 10.4833 501.964 10.3853 502.011 10.32C502.095 10.1987 502.16 10.1287 502.207 10.11C502.254 10.082 502.328 10.068 502.431 10.068H503.103C503.196 10.068 503.271 10.096 503.327 10.152C503.392 10.1987 503.42 10.2687 503.411 10.362C503.402 10.502 503.327 10.6747 503.187 10.88C503.047 11.076 502.846 11.272 502.585 11.468C502.324 11.664 502.006 11.8273 501.633 11.958C501.26 12.0793 500.83 12.14 500.345 12.14ZM498.441 7.828H502.277V7.786C502.277 7.366 502.198 6.99267 502.039 6.666C501.89 6.33933 501.67 6.08267 501.381 5.896C501.092 5.7 500.746 5.602 500.345 5.602C499.944 5.602 499.598 5.7 499.309 5.896C499.029 6.08267 498.814 6.33933 498.665 6.666C498.516 6.99267 498.441 7.366 498.441 7.786V7.828ZM508.879 12.14C507.918 12.14 507.152 11.846 506.583 11.258C506.014 10.6607 505.701 9.84867 505.645 8.822C505.636 8.70067 505.631 8.54667 505.631 8.36C505.631 8.164 505.636 8.00533 505.645 7.884C505.682 7.22133 505.836 6.64267 506.107 6.148C506.378 5.644 506.746 5.25667 507.213 4.986C507.689 4.71533 508.244 4.58 508.879 4.58C509.588 4.58 510.181 4.72933 510.657 5.028C511.142 5.32667 511.511 5.75133 511.763 6.302C512.015 6.85267 512.141 7.49667 512.141 8.234V8.472C512.141 8.57467 512.108 8.654 512.043 8.71C511.987 8.766 511.912 8.794 511.819 8.794H506.975C506.975 8.80333 506.975 8.822 506.975 8.85C506.975 8.878 506.975 8.90133 506.975 8.92C506.994 9.30267 507.078 9.662 507.227 9.998C507.376 10.3247 507.591 10.5907 507.871 10.796C508.151 11.0013 508.487 11.104 508.879 11.104C509.215 11.104 509.495 11.0527 509.719 10.95C509.943 10.8473 510.125 10.7353 510.265 10.614C510.405 10.4833 510.498 10.3853 510.545 10.32C510.629 10.1987 510.694 10.1287 510.741 10.11C510.788 10.082 510.862 10.068 510.965 10.068H511.637C511.73 10.068 511.805 10.096 511.861 10.152C511.926 10.1987 511.954 10.2687 511.945 10.362C511.936 10.502 511.861 10.6747 511.721 10.88C511.581 11.076 511.38 11.272 511.119 11.468C510.858 11.664 510.54 11.8273 510.167 11.958C509.794 12.0793 509.364 12.14 508.879 12.14ZM506.975 7.828H510.811V7.786C510.811 7.366 510.732 6.99267 510.573 6.666C510.424 6.33933 510.204 6.08267 509.915 5.896C509.626 5.7 509.28 5.602 508.879 5.602C508.478 5.602 508.132 5.7 507.843 5.896C507.563 6.08267 507.348 6.33933 507.199 6.666C507.05 6.99267 506.975 7.366 506.975 7.786V7.828ZM517.175 12.14C516.662 12.14 516.218 12.0513 515.845 11.874C515.472 11.6873 515.164 11.44 514.921 11.132C514.688 10.8147 514.51 10.4553 514.389 10.054C514.277 9.65267 514.212 9.228 514.193 8.78C514.184 8.63067 514.179 8.49067 514.179 8.36C514.179 8.22933 514.184 8.08933 514.193 7.94C514.212 7.50133 514.277 7.08133 514.389 6.68C514.51 6.27867 514.688 5.91933 514.921 5.602C515.164 5.28467 515.472 5.03733 515.845 4.86C516.218 4.67333 516.662 4.58 517.175 4.58C517.726 4.58 518.183 4.678 518.547 4.874C518.911 5.07 519.21 5.31267 519.443 5.602V2.382C519.443 2.28867 519.471 2.214 519.527 2.158C519.592 2.09267 519.672 2.06 519.765 2.06H520.437C520.53 2.06 520.605 2.09267 520.661 2.158C520.726 2.214 520.759 2.28867 520.759 2.382V11.678C520.759 11.7713 520.726 11.8507 520.661 11.916C520.605 11.972 520.53 12 520.437 12H519.807C519.704 12 519.625 11.972 519.569 11.916C519.513 11.8507 519.485 11.7713 519.485 11.678V11.09C519.252 11.3887 518.948 11.6407 518.575 11.846C518.202 12.042 517.735 12.14 517.175 12.14ZM517.469 11.006C517.936 11.006 518.309 10.8987 518.589 10.684C518.869 10.4693 519.079 10.1987 519.219 9.872C519.359 9.536 519.434 9.19533 519.443 8.85C519.452 8.70067 519.457 8.52333 519.457 8.318C519.457 8.10333 519.452 7.92133 519.443 7.772C519.434 7.44533 519.354 7.12333 519.205 6.806C519.065 6.48867 518.85 6.22733 518.561 6.022C518.281 5.81667 517.917 5.714 517.469 5.714C516.993 5.714 516.615 5.82133 516.335 6.036C516.055 6.24133 515.854 6.51667 515.733 6.862C515.612 7.198 515.542 7.562 515.523 7.954C515.514 8.22467 515.514 8.49533 515.523 8.766C515.542 9.158 515.612 9.52667 515.733 9.872C515.854 10.208 516.055 10.4833 516.335 10.698C516.615 10.9033 516.993 11.006 517.469 11.006ZM531.005 12.14C530.193 12.14 529.511 12.0187 528.961 11.776C528.41 11.524 527.985 11.202 527.687 10.81C527.397 10.4087 527.243 9.984 527.225 9.536C527.225 9.46133 527.253 9.396 527.309 9.34C527.374 9.27467 527.449 9.242 527.533 9.242H528.247C528.359 9.242 528.443 9.27 528.499 9.326C528.555 9.382 528.592 9.44733 528.611 9.522C528.657 9.746 528.769 9.97 528.947 10.194C529.133 10.4087 529.39 10.5907 529.717 10.74C530.053 10.88 530.482 10.95 531.005 10.95C531.807 10.95 532.395 10.81 532.769 10.53C533.151 10.2407 533.343 9.858 533.343 9.382C533.343 9.05533 533.24 8.794 533.035 8.598C532.839 8.39267 532.535 8.21067 532.125 8.052C531.714 7.89333 531.182 7.72067 530.529 7.534C529.847 7.338 529.283 7.12333 528.835 6.89C528.387 6.65667 528.051 6.36733 527.827 6.022C527.612 5.67667 527.505 5.238 527.505 4.706C527.505 4.202 527.64 3.754 527.911 3.362C528.181 2.96067 528.569 2.64333 529.073 2.41C529.586 2.17667 530.207 2.06 530.935 2.06C531.513 2.06 532.017 2.13933 532.447 2.298C532.885 2.44733 533.249 2.65267 533.539 2.914C533.828 3.166 534.047 3.44133 534.197 3.74C534.346 4.02933 534.425 4.314 534.435 4.594C534.435 4.65933 534.411 4.72467 534.365 4.79C534.318 4.846 534.243 4.874 534.141 4.874H533.399C533.333 4.874 533.263 4.85533 533.189 4.818C533.123 4.78067 533.072 4.71067 533.035 4.608C532.979 4.22533 532.764 3.90333 532.391 3.642C532.017 3.38067 531.532 3.25 530.935 3.25C530.328 3.25 529.833 3.36667 529.451 3.6C529.077 3.83333 528.891 4.19733 528.891 4.692C528.891 5.00933 528.979 5.27533 529.157 5.49C529.334 5.69533 529.614 5.87733 529.997 6.036C530.379 6.19467 530.879 6.36267 531.495 6.54C532.241 6.74533 532.853 6.96467 533.329 7.198C533.805 7.422 534.155 7.70667 534.379 8.052C534.612 8.388 534.729 8.822 534.729 9.354C534.729 9.942 534.575 10.446 534.267 10.866C533.959 11.2767 533.525 11.594 532.965 11.818C532.414 12.0327 531.761 12.14 531.005 12.14ZM539.112 12.14C538.645 12.14 538.22 12.0467 537.838 11.86C537.455 11.6733 537.147 11.4213 536.914 11.104C536.68 10.7867 536.564 10.4273 536.564 10.026C536.564 9.382 536.825 8.86867 537.348 8.486C537.87 8.10333 538.552 7.85133 539.392 7.73L541.478 7.436V7.03C541.478 6.582 541.347 6.232 541.086 5.98C540.834 5.728 540.418 5.602 539.84 5.602C539.42 5.602 539.079 5.686 538.818 5.854C538.566 6.022 538.388 6.23667 538.286 6.498C538.23 6.638 538.132 6.708 537.992 6.708H537.362C537.259 6.708 537.18 6.68 537.124 6.624C537.077 6.55867 537.054 6.484 537.054 6.4C537.054 6.26 537.105 6.08733 537.208 5.882C537.32 5.67667 537.488 5.476 537.712 5.28C537.936 5.084 538.22 4.92067 538.566 4.79C538.92 4.65 539.35 4.58 539.854 4.58C540.414 4.58 540.885 4.65467 541.268 4.804C541.65 4.944 541.949 5.13533 542.164 5.378C542.388 5.62067 542.546 5.896 542.64 6.204C542.742 6.512 542.794 6.82467 542.794 7.142V11.678C542.794 11.7713 542.761 11.8507 542.696 11.916C542.64 11.972 542.565 12 542.472 12H541.828C541.725 12 541.646 11.972 541.59 11.916C541.534 11.8507 541.506 11.7713 541.506 11.678V11.076C541.384 11.244 541.221 11.412 541.016 11.58C540.81 11.7387 540.554 11.874 540.246 11.986C539.938 12.0887 539.56 12.14 539.112 12.14ZM539.406 11.09C539.788 11.09 540.138 11.0107 540.456 10.852C540.773 10.684 541.02 10.4273 541.198 10.082C541.384 9.73667 541.478 9.30267 541.478 8.78V8.388L539.854 8.626C539.191 8.71933 538.692 8.878 538.356 9.102C538.02 9.31667 537.852 9.592 537.852 9.928C537.852 10.1893 537.926 10.4087 538.076 10.586C538.234 10.754 538.43 10.88 538.664 10.964C538.906 11.048 539.154 11.09 539.406 11.09ZM545.842 12C545.749 12 545.67 11.972 545.604 11.916C545.548 11.8507 545.52 11.7713 545.52 11.678V2.382C545.52 2.28867 545.548 2.214 545.604 2.158C545.67 2.09267 545.749 2.06 545.842 2.06H546.5C546.603 2.06 546.682 2.09267 546.738 2.158C546.794 2.214 546.822 2.28867 546.822 2.382V11.678C546.822 11.7713 546.794 11.8507 546.738 11.916C546.682 11.972 546.603 12 546.5 12H545.842ZM552.509 12.14C551.547 12.14 550.782 11.846 550.213 11.258C549.643 10.6607 549.331 9.84867 549.275 8.822C549.265 8.70067 549.261 8.54667 549.261 8.36C549.261 8.164 549.265 8.00533 549.275 7.884C549.312 7.22133 549.466 6.64267 549.737 6.148C550.007 5.644 550.376 5.25667 550.843 4.986C551.319 4.71533 551.874 4.58 552.509 4.58C553.218 4.58 553.811 4.72933 554.287 5.028C554.772 5.32667 555.141 5.75133 555.393 6.302C555.645 6.85267 555.771 7.49667 555.771 8.234V8.472C555.771 8.57467 555.738 8.654 555.673 8.71C555.617 8.766 555.542 8.794 555.449 8.794H550.605C550.605 8.80333 550.605 8.822 550.605 8.85C550.605 8.878 550.605 8.90133 550.605 8.92C550.623 9.30267 550.707 9.662 550.857 9.998C551.006 10.3247 551.221 10.5907 551.501 10.796C551.781 11.0013 552.117 11.104 552.509 11.104C552.845 11.104 553.125 11.0527 553.349 10.95C553.573 10.8473 553.755 10.7353 553.895 10.614C554.035 10.4833 554.128 10.3853 554.175 10.32C554.259 10.1987 554.324 10.1287 554.371 10.11C554.417 10.082 554.492 10.068 554.595 10.068H555.267C555.36 10.068 555.435 10.096 555.491 10.152C555.556 10.1987 555.584 10.2687 555.575 10.362C555.565 10.502 555.491 10.6747 555.351 10.88C555.211 11.076 555.01 11.272 554.749 11.468C554.487 11.664 554.17 11.8273 553.797 11.958C553.423 12.0793 552.994 12.14 552.509 12.14ZM550.605 7.828H554.441V7.786C554.441 7.366 554.361 6.99267 554.203 6.666C554.053 6.33933 553.834 6.08267 553.545 5.896C553.255 5.7 552.91 5.602 552.509 5.602C552.107 5.602 551.762 5.7 551.473 5.896C551.193 6.08267 550.978 6.33933 550.829 6.666C550.679 6.99267 550.605 7.366 550.605 7.786V7.828Z" fill="#FCFCFC"/>
<path d="M29 37H557" stroke="#FAFAFA" stroke-opacity="0.1" stroke-width="0.870605" stroke-linecap="round"/>
<path d="M29 105H557" stroke="#FAFAFA" stroke-opacity="0.1" stroke-width="0.870605" stroke-linecap="round"/>
<path d="M29 173H557" stroke="#FAFAFA" stroke-opacity="0.1" stroke-width="0.870605" stroke-linecap="round"/>
<path d="M29 241H557" stroke="#FAFAFA" stroke-opacity="0.1" stroke-width="0.870605" stroke-linecap="round"/>
<path d="M116.617 36.9648L116.617 307.723" stroke="#FAFAFA" stroke-opacity="0.1" stroke-width="0.870605" stroke-linecap="round"/>
<path d="M214.992 36.9648L214.992 307.723" stroke="#FAFAFA" stroke-opacity="0.1" stroke-width="0.870605" stroke-linecap="round"/>
<path d="M310.758 36.9648L310.758 307.723" stroke="#FAFAFA" stroke-opacity="0.1" stroke-width="0.870605" stroke-linecap="round"/>
<path d="M409.137 36.9648L409.137 307.723" stroke="#FAFAFA" stroke-opacity="0.1" stroke-width="0.870605" stroke-linecap="round"/>
<path d="M504.906 36.9648L504.906 307.723" stroke="#FAFAFA" stroke-opacity="0.1" stroke-width="0.870605" stroke-linecap="round"/>
<path d="M4.96991 40.12C4.50591 40.12 4.07791 40.064 3.68591 39.952C3.30191 39.832 2.96991 39.664 2.68991 39.448C2.41791 39.224 2.20591 38.956 2.05391 38.644C1.90191 38.332 1.82591 37.98 1.82591 37.588C1.82591 37.1 1.94191 36.68 2.17391 36.328C2.41391 35.976 2.72991 35.708 3.12191 35.524C2.80991 35.34 2.56591 35.1 2.38991 34.804C2.21391 34.508 2.12591 34.156 2.12591 33.748C2.12591 33.268 2.24191 32.864 2.47391 32.536C2.71391 32.2 3.04591 31.94 3.46991 31.756C3.90191 31.572 4.40191 31.48 4.96991 31.48C5.52991 31.48 6.02191 31.572 6.44591 31.756C6.87791 31.932 7.20991 32.188 7.44191 32.524C7.68191 32.86 7.80191 33.264 7.80191 33.736C7.80191 34.144 7.71391 34.5 7.53791 34.804C7.36191 35.1 7.12191 35.34 6.81791 35.524C7.20991 35.708 7.52191 35.976 7.75391 36.328C7.99391 36.68 8.11391 37.1 8.11391 37.588C8.11391 38.108 7.98191 38.56 7.71791 38.944C7.45391 39.32 7.08591 39.612 6.61391 39.82C6.14191 40.02 5.59391 40.12 4.96991 40.12ZM4.96991 39.16C5.33791 39.16 5.66991 39.096 5.96591 38.968C6.26191 38.84 6.49791 38.66 6.67391 38.428C6.84991 38.188 6.93791 37.908 6.93791 37.588C6.93791 37.26 6.84991 36.984 6.67391 36.76C6.49791 36.528 6.26191 36.352 5.96591 36.232C5.66991 36.104 5.33791 36.04 4.96991 36.04C4.60191 36.04 4.26591 36.104 3.96191 36.232C3.66591 36.352 3.42991 36.528 3.25391 36.76C3.07791 36.984 2.98991 37.26 2.98991 37.588C2.98991 37.908 3.07791 38.188 3.25391 38.428C3.42991 38.66 3.66591 38.84 3.96191 38.968C4.26591 39.096 4.60191 39.16 4.96991 39.16ZM4.96991 35.092C5.27391 35.092 5.55391 35.036 5.80991 34.924C6.07391 34.812 6.28191 34.66 6.43391 34.468C6.59391 34.276 6.67391 34.044 6.67391 33.772C6.67391 33.5 6.59791 33.264 6.44591 33.064C6.30191 32.864 6.09791 32.712 5.83391 32.608C5.57791 32.496 5.28991 32.44 4.96991 32.44C4.64991 32.44 4.35791 32.496 4.09391 32.608C3.83791 32.712 3.63391 32.864 3.48191 33.064C3.32991 33.264 3.25391 33.5 3.25391 33.772C3.25391 34.052 3.32991 34.292 3.48191 34.492C3.63391 34.684 3.83791 34.832 4.09391 34.936C4.35791 35.04 4.64991 35.092 4.96991 35.092ZM13.1868 40.12C12.6348 40.12 12.1668 40.036 11.7828 39.868C11.4068 39.692 11.0988 39.452 10.8588 39.148C10.6188 38.844 10.4428 38.496 10.3308 38.104C10.2268 37.712 10.1668 37.296 10.1508 36.856C10.1428 36.64 10.1348 36.412 10.1268 36.172C10.1268 35.932 10.1268 35.692 10.1268 35.452C10.1348 35.204 10.1428 34.968 10.1508 34.744C10.1588 34.304 10.2188 33.888 10.3308 33.496C10.4508 33.096 10.6268 32.748 10.8588 32.452C11.0988 32.148 11.4108 31.912 11.7948 31.744C12.1788 31.568 12.6428 31.48 13.1868 31.48C13.7388 31.48 14.2028 31.568 14.5788 31.744C14.9628 31.912 15.2748 32.148 15.5148 32.452C15.7548 32.748 15.9308 33.096 16.0428 33.496C16.1628 33.888 16.2268 34.304 16.2348 34.744C16.2428 34.968 16.2468 35.204 16.2468 35.452C16.2548 35.692 16.2548 35.932 16.2468 36.172C16.2468 36.412 16.2428 36.64 16.2348 36.856C16.2268 37.296 16.1628 37.712 16.0428 38.104C15.9308 38.496 15.7548 38.844 15.5148 39.148C15.2828 39.452 14.9748 39.692 14.5908 39.868C14.2148 40.036 13.7468 40.12 13.1868 40.12ZM13.1868 39.1C13.8108 39.1 14.2708 38.896 14.5668 38.488C14.8708 38.072 15.0268 37.508 15.0348 36.796C15.0508 36.564 15.0588 36.34 15.0588 36.124C15.0588 35.9 15.0588 35.68 15.0588 35.464C15.0588 35.24 15.0508 35.02 15.0348 34.804C15.0268 34.108 14.8708 33.552 14.5668 33.136C14.2708 32.712 13.8108 32.5 13.1868 32.5C12.5708 32.5 12.1108 32.712 11.8068 33.136C11.5108 33.552 11.3548 34.108 11.3388 34.804C11.3388 35.02 11.3348 35.24 11.3268 35.464C11.3268 35.68 11.3268 35.9 11.3268 36.124C11.3348 36.34 11.3388 36.564 11.3388 36.796C11.3548 37.508 11.5148 38.072 11.8188 38.488C12.1228 38.896 12.5788 39.1 13.1868 39.1Z" fill="#FCFCFC"/>
<path d="M4.24834 108.026C3.58434 108.026 3.02034 107.894 2.55634 107.63C2.09234 107.358 1.73634 107.006 1.48834 106.574C1.24834 106.134 1.12834 105.658 1.12834 105.146C1.12834 104.906 1.15634 104.678 1.21234 104.462C1.27634 104.238 1.35234 104.03 1.44034 103.838C1.53634 103.638 1.62834 103.462 1.71634 103.31C1.81234 103.15 1.89634 103.022 1.96834 102.926L4.24834 99.7462C4.28834 99.7062 4.33634 99.6582 4.39234 99.6022C4.44834 99.5382 4.53234 99.5062 4.64434 99.5062H5.28034C5.35234 99.5062 5.40834 99.5342 5.44834 99.5902C5.49634 99.6382 5.52034 99.6982 5.52034 99.7702C5.52034 99.8022 5.51634 99.8342 5.50834 99.8662C5.50034 99.8902 5.48834 99.9102 5.47234 99.9262L3.72034 102.374C3.81634 102.342 3.92434 102.322 4.04434 102.314C4.17234 102.298 4.29234 102.29 4.40434 102.29C4.84434 102.298 5.24434 102.378 5.60434 102.53C5.96434 102.682 6.27234 102.89 6.52834 103.154C6.79234 103.41 6.99234 103.71 7.12834 104.054C7.26434 104.39 7.33234 104.75 7.33234 105.134C7.33234 105.638 7.21234 106.11 6.97234 106.55C6.73234 106.99 6.38034 107.346 5.91634 107.618C5.46034 107.89 4.90434 108.026 4.24834 108.026ZM4.23634 107.006C4.57234 107.006 4.88434 106.934 5.17234 106.79C5.46034 106.646 5.69234 106.438 5.86834 106.166C6.05234 105.886 6.14434 105.546 6.14434 105.146C6.14434 104.738 6.05634 104.398 5.88034 104.126C5.70434 103.846 5.46834 103.638 5.17234 103.502C4.88434 103.358 4.57234 103.286 4.23634 103.286C3.90034 103.286 3.58834 103.358 3.30034 103.502C3.01234 103.638 2.77634 103.846 2.59234 104.126C2.41634 104.398 2.32834 104.738 2.32834 105.146C2.32834 105.546 2.41634 105.886 2.59234 106.166C2.77634 106.438 3.01234 106.646 3.30034 106.79C3.58834 106.934 3.90034 107.006 4.23634 107.006ZM12.1868 108.026C11.6348 108.026 11.1668 107.942 10.7828 107.774C10.4068 107.598 10.0988 107.358 9.85881 107.054C9.61881 106.75 9.44281 106.402 9.33081 106.01C9.22681 105.618 9.16681 105.202 9.15081 104.762C9.14281 104.546 9.13481 104.318 9.12681 104.078C9.12681 103.838 9.12681 103.598 9.12681 103.358C9.13481 103.11 9.14281 102.874 9.15081 102.65C9.15881 102.21 9.21881 101.794 9.33081 101.402C9.45081 101.002 9.62681 100.654 9.85881 100.358C10.0988 100.054 10.4108 99.8182 10.7948 99.6502C11.1788 99.4742 11.6428 99.3862 12.1868 99.3862C12.7388 99.3862 13.2028 99.4742 13.5788 99.6502C13.9628 99.8182 14.2748 100.054 14.5148 100.358C14.7548 100.654 14.9308 101.002 15.0428 101.402C15.1628 101.794 15.2268 102.21 15.2348 102.65C15.2428 102.874 15.2468 103.11 15.2468 103.358C15.2548 103.598 15.2548 103.838 15.2468 104.078C15.2468 104.318 15.2428 104.546 15.2348 104.762C15.2268 105.202 15.1628 105.618 15.0428 106.01C14.9308 106.402 14.7548 106.75 14.5148 107.054C14.2828 107.358 13.9748 107.598 13.5908 107.774C13.2148 107.942 12.7468 108.026 12.1868 108.026ZM12.1868 107.006C12.8108 107.006 13.2708 106.802 13.5668 106.394C13.8708 105.978 14.0268 105.414 14.0348 104.702C14.0508 104.47 14.0588 104.246 14.0588 104.03C14.0588 103.806 14.0588 103.586 14.0588 103.37C14.0588 103.146 14.0508 102.926 14.0348 102.71C14.0268 102.014 13.8708 101.458 13.5668 101.042C13.2708 100.618 12.8108 100.406 12.1868 100.406C11.5708 100.406 11.1108 100.618 10.8068 101.042C10.5108 101.458 10.3548 102.014 10.3388 102.71C10.3388 102.926 10.3348 103.146 10.3268 103.37C10.3268 103.586 10.3268 103.806 10.3268 104.03C10.3348 104.246 10.3388 104.47 10.3388 104.702C10.3548 105.414 10.5148 105.978 10.8188 106.394C11.1228 106.802 11.5788 107.006 12.1868 107.006Z" fill="#FCFCFC"/>
<path d="M5.14169 175.816C5.06169 175.816 4.99369 175.792 4.93769 175.744C4.88969 175.688 4.86569 175.62 4.86569 175.54V173.812H0.977687C0.897687 173.812 0.829687 173.788 0.773687 173.74C0.725687 173.684 0.701687 173.616 0.701687 173.536V173.056C0.701687 173.024 0.709687 172.976 0.725687 172.912C0.749687 172.84 0.785687 172.768 0.833687 172.696L4.43369 167.62C4.52969 167.484 4.67769 167.416 4.87769 167.416H5.74169C5.82169 167.416 5.88569 167.444 5.93369 167.5C5.98969 167.548 6.01769 167.612 6.01769 167.692V172.768H7.09769C7.18569 172.768 7.25369 172.796 7.30169 172.852C7.35769 172.9 7.38569 172.964 7.38569 173.044V173.536C7.38569 173.616 7.35769 173.684 7.30169 173.74C7.25369 173.788 7.18969 173.812 7.10969 173.812H6.01769V175.54C6.01769 175.62 5.98969 175.688 5.93369 175.744C5.88569 175.792 5.82169 175.816 5.74169 175.816H5.14169ZM1.98569 172.792H4.87769V168.676L1.98569 172.792ZM12.1868 175.936C11.6348 175.936 11.1668 175.852 10.7828 175.684C10.4068 175.508 10.0988 175.268 9.85881 174.964C9.61881 174.66 9.44281 174.312 9.33081 173.92C9.22681 173.528 9.16681 173.112 9.15081 172.672C9.14281 172.456 9.13481 172.228 9.12681 171.988C9.12681 171.748 9.12681 171.508 9.12681 171.268C9.13481 171.02 9.14281 170.784 9.15081 170.56C9.15881 170.12 9.21881 169.704 9.33081 169.312C9.45081 168.912 9.62681 168.564 9.85881 168.268C10.0988 167.964 10.4108 167.728 10.7948 167.56C11.1788 167.384 11.6428 167.296 12.1868 167.296C12.7388 167.296 13.2028 167.384 13.5788 167.56C13.9628 167.728 14.2748 167.964 14.5148 168.268C14.7548 168.564 14.9308 168.912 15.0428 169.312C15.1628 169.704 15.2268 170.12 15.2348 170.56C15.2428 170.784 15.2468 171.02 15.2468 171.268C15.2548 171.508 15.2548 171.748 15.2468 171.988C15.2468 172.228 15.2428 172.456 15.2348 172.672C15.2268 173.112 15.1628 173.528 15.0428 173.92C14.9308 174.312 14.7548 174.66 14.5148 174.964C14.2828 175.268 13.9748 175.508 13.5908 175.684C13.2148 175.852 12.7468 175.936 12.1868 175.936ZM12.1868 174.916C12.8108 174.916 13.2708 174.712 13.5668 174.304C13.8708 173.888 14.0268 173.324 14.0348 172.612C14.0508 172.38 14.0588 172.156 14.0588 171.94C14.0588 171.716 14.0588 171.496 14.0588 171.28C14.0588 171.056 14.0508 170.836 14.0348 170.62C14.0268 169.924 13.8708 169.368 13.5668 168.952C13.2708 168.528 12.8108 168.316 12.1868 168.316C11.5708 168.316 11.1108 168.528 10.8068 168.952C10.5108 169.368 10.3548 169.924 10.3388 170.62C10.3388 170.836 10.3348 171.056 10.3268 171.28C10.3268 171.496 10.3268 171.716 10.3268 171.94C10.3348 172.156 10.3388 172.38 10.3388 172.612C10.3548 173.324 10.5148 173.888 10.8188 174.304C11.1228 174.712 11.5788 174.916 12.1868 174.916Z" fill="#FCFCFC"/>
<path d="M2.47494 243.723C2.39494 243.723 2.32694 243.699 2.27094 243.651C2.22294 243.595 2.19894 243.527 2.19894 243.447V243.063C2.19894 242.991 2.21894 242.911 2.25894 242.823C2.29894 242.735 2.37894 242.639 2.49894 242.535L5.04294 239.991C5.45094 239.647 5.77094 239.355 6.00294 239.115C6.24294 238.867 6.41094 238.631 6.50694 238.407C6.61094 238.183 6.66294 237.951 6.66294 237.711C6.66294 237.255 6.53494 236.895 6.27894 236.631C6.02294 236.359 5.64294 236.223 5.13894 236.223C4.81894 236.223 4.54294 236.291 4.31094 236.427C4.07894 236.555 3.89494 236.735 3.75894 236.967C3.63094 237.191 3.54694 237.447 3.50694 237.735C3.49094 237.839 3.44694 237.911 3.37494 237.951C3.31094 237.991 3.25094 238.011 3.19494 238.011H2.57094C2.49894 238.011 2.43894 237.991 2.39094 237.951C2.34294 237.903 2.31894 237.847 2.31894 237.783C2.32694 237.479 2.39094 237.175 2.51094 236.871C2.63094 236.559 2.80694 236.279 3.03894 236.031C3.27894 235.783 3.57094 235.583 3.91494 235.431C4.26694 235.271 4.67494 235.191 5.13894 235.191C5.77094 235.191 6.28694 235.307 6.68694 235.539C7.09494 235.763 7.39494 236.063 7.58694 236.439C7.77894 236.815 7.87494 237.227 7.87494 237.675C7.87494 238.027 7.81494 238.351 7.69494 238.647C7.57494 238.935 7.39894 239.219 7.16694 239.499C6.94294 239.771 6.66294 240.051 6.32694 240.339L4.02294 242.679H7.76694C7.85494 242.679 7.92294 242.703 7.97094 242.751C8.02694 242.799 8.05494 242.867 8.05494 242.955V243.447C8.05494 243.527 8.02694 243.595 7.97094 243.651C7.92294 243.699 7.85494 243.723 7.76694 243.723H2.47494ZM13.0579 243.843C12.5059 243.843 12.0379 243.759 11.6539 243.591C11.2779 243.415 10.9699 243.175 10.7299 242.871C10.4899 242.567 10.3139 242.219 10.2019 241.827C10.0979 241.435 10.0379 241.019 10.0219 240.579C10.0139 240.363 10.0059 240.135 9.99791 239.895C9.99791 239.655 9.99791 239.415 9.99791 239.175C10.0059 238.927 10.0139 238.691 10.0219 238.467C10.0299 238.027 10.0899 237.611 10.2019 237.219C10.3219 236.819 10.4979 236.471 10.7299 236.175C10.9699 235.871 11.2819 235.635 11.6659 235.467C12.0499 235.291 12.5139 235.203 13.0579 235.203C13.6099 235.203 14.0739 235.291 14.4499 235.467C14.8339 235.635 15.1459 235.871 15.3859 236.175C15.6259 236.471 15.8019 236.819 15.9139 237.219C16.0339 237.611 16.0979 238.027 16.1059 238.467C16.1139 238.691 16.1179 238.927 16.1179 239.175C16.1259 239.415 16.1259 239.655 16.1179 239.895C16.1179 240.135 16.1139 240.363 16.1059 240.579C16.0979 241.019 16.0339 241.435 15.9139 241.827C15.8019 242.219 15.6259 242.567 15.3859 242.871C15.1539 243.175 14.8459 243.415 14.4619 243.591C14.0859 243.759 13.6179 243.843 13.0579 243.843ZM13.0579 242.823C13.6819 242.823 14.1419 242.619 14.4379 242.211C14.7419 241.795 14.8979 241.231 14.9059 240.519C14.9219 240.287 14.9299 240.063 14.9299 239.847C14.9299 239.623 14.9299 239.403 14.9299 239.187C14.9299 238.963 14.9219 238.743 14.9059 238.527C14.8979 237.831 14.7419 237.275 14.4379 236.859C14.1419 236.435 13.6819 236.223 13.0579 236.223C12.4419 236.223 11.9819 236.435 11.6779 236.859C11.3819 237.275 11.2259 237.831 11.2099 238.527C11.2099 238.743 11.2059 238.963 11.1979 239.187C11.1979 239.403 11.1979 239.623 11.1979 239.847C11.2059 240.063 11.2099 240.287 11.2099 240.519C11.2259 241.231 11.3859 241.795 11.6899 242.211C11.9939 242.619 12.4499 242.823 13.0579 242.823Z" fill="#FCFCFC"/>
<path d="M12.8938 311.753C12.3418 311.753 11.8738 311.669 11.4898 311.501C11.1138 311.325 10.8058 311.085 10.5658 310.781C10.3258 310.477 10.1498 310.129 10.0378 309.737C9.93384 309.345 9.87384 308.929 9.85784 308.489C9.84984 308.273 9.84184 308.045 9.83384 307.805C9.83384 307.565 9.83384 307.325 9.83384 307.085C9.84184 306.837 9.84984 306.601 9.85784 306.377C9.86584 305.937 9.92584 305.521 10.0378 305.129C10.1578 304.729 10.3338 304.381 10.5658 304.085C10.8058 303.781 11.1178 303.545 11.5018 303.377C11.8858 303.201 12.3498 303.113 12.8938 303.113C13.4458 303.113 13.9098 303.201 14.2858 303.377C14.6698 303.545 14.9818 303.781 15.2218 304.085C15.4618 304.381 15.6378 304.729 15.7498 305.129C15.8698 305.521 15.9338 305.937 15.9418 306.377C15.9498 306.601 15.9538 306.837 15.9538 307.085C15.9618 307.325 15.9618 307.565 15.9538 307.805C15.9538 308.045 15.9498 308.273 15.9418 308.489C15.9338 308.929 15.8698 309.345 15.7498 309.737C15.6378 310.129 15.4618 310.477 15.2218 310.781C14.9898 311.085 14.6818 311.325 14.2978 311.501C13.9218 311.669 13.4538 311.753 12.8938 311.753ZM12.8938 310.733C13.5178 310.733 13.9778 310.529 14.2738 310.121C14.5778 309.705 14.7338 309.141 14.7418 308.429C14.7578 308.197 14.7658 307.973 14.7658 307.757C14.7658 307.533 14.7658 307.313 14.7658 307.097C14.7658 306.873 14.7578 306.653 14.7418 306.437C14.7338 305.741 14.5778 305.185 14.2738 304.769C13.9778 304.345 13.5178 304.133 12.8938 304.133C12.2778 304.133 11.8178 304.345 11.5138 304.769C11.2178 305.185 11.0618 305.741 11.0458 306.437C11.0458 306.653 11.0418 306.873 11.0338 307.097C11.0338 307.313 11.0338 307.533 11.0338 307.757C11.0418 307.973 11.0458 308.197 11.0458 308.429C11.0618 309.141 11.2218 309.705 11.5258 310.121C11.8298 310.529 12.2858 310.733 12.8938 310.733Z" fill="#FCFCFC"/>
<path d="M22.7276 326.55C22.2236 326.55 21.7836 326.49 21.4076 326.37C21.0316 326.242 20.7156 326.074 20.4596 325.866C20.2036 325.658 20.0076 325.43 19.8716 325.182C19.7436 324.934 19.6756 324.678 19.6676 324.414C19.6676 324.342 19.6916 324.286 19.7396 324.246C19.7876 324.206 19.8476 324.186 19.9196 324.186H20.5076C20.5796 324.186 20.6436 324.202 20.6996 324.234C20.7556 324.266 20.8036 324.334 20.8436 324.438C20.9236 324.726 21.0596 324.95 21.2516 325.11C21.4516 325.27 21.6796 325.382 21.9356 325.446C22.1996 325.502 22.4636 325.53 22.7276 325.53C23.2796 325.53 23.7276 325.398 24.0716 325.134C24.4156 324.87 24.5876 324.482 24.5876 323.97C24.5876 323.45 24.4316 323.078 24.1196 322.854C23.8076 322.63 23.3756 322.518 22.8236 322.518H21.6836C21.6036 322.518 21.5356 322.494 21.4796 322.446C21.4316 322.398 21.4076 322.33 21.4076 322.242V321.918C21.4076 321.846 21.4196 321.786 21.4436 321.738C21.4756 321.682 21.5076 321.634 21.5396 321.594L23.8676 319.05H20.3276C20.2476 319.05 20.1796 319.026 20.1236 318.978C20.0756 318.93 20.0516 318.862 20.0516 318.774V318.318C20.0516 318.23 20.0756 318.162 20.1236 318.114C20.1796 318.058 20.2476 318.03 20.3276 318.03H25.1156C25.2036 318.03 25.2716 318.058 25.3196 318.114C25.3756 318.162 25.4036 318.23 25.4036 318.318V318.75C25.4036 318.806 25.3876 318.858 25.3556 318.906C25.3316 318.946 25.3036 318.986 25.2716 319.026L22.9556 321.606L23.1476 321.618C23.6756 321.634 24.1356 321.73 24.5276 321.906C24.9276 322.082 25.2356 322.346 25.4516 322.698C25.6756 323.042 25.7876 323.478 25.7876 324.006C25.7876 324.542 25.6556 325.002 25.3916 325.386C25.1276 325.762 24.7636 326.05 24.2996 326.25C23.8356 326.45 23.3116 326.55 22.7276 326.55ZM31.664 326.43C31.584 326.43 31.516 326.406 31.46 326.358C31.412 326.302 31.388 326.234 31.388 326.154V320.466C31.388 320.386 31.412 320.322 31.46 320.274C31.516 320.218 31.584 320.19 31.664 320.19H32.204C32.284 320.19 32.348 320.218 32.396 320.274C32.452 320.322 32.48 320.386 32.48 320.466V320.886C32.664 320.638 32.896 320.442 33.176 320.298C33.456 320.146 33.792 320.07 34.184 320.07C35.088 320.062 35.728 320.43 36.104 321.174C36.288 320.838 36.556 320.57 36.908 320.37C37.26 320.17 37.66 320.07 38.108 320.07C38.524 320.07 38.9 320.166 39.236 320.358C39.58 320.55 39.848 320.842 40.04 321.234C40.24 321.618 40.34 322.102 40.34 322.686V326.154C40.34 326.234 40.312 326.302 40.256 326.358C40.208 326.406 40.144 326.43 40.064 326.43H39.5C39.42 326.43 39.352 326.406 39.296 326.358C39.248 326.302 39.224 326.234 39.224 326.154V322.794C39.224 322.346 39.16 321.994 39.032 321.738C38.904 321.482 38.732 321.302 38.516 321.198C38.3 321.094 38.064 321.042 37.808 321.042C37.6 321.042 37.388 321.094 37.172 321.198C36.956 321.302 36.776 321.482 36.632 321.738C36.496 321.994 36.428 322.346 36.428 322.794V326.154C36.428 326.234 36.4 326.302 36.344 326.358C36.296 326.406 36.232 326.43 36.152 326.43H35.588C35.508 326.43 35.44 326.406 35.384 326.358C35.336 326.302 35.312 326.234 35.312 326.154V322.794C35.312 322.346 35.244 321.994 35.108 321.738C34.972 321.482 34.796 321.302 34.58 321.198C34.364 321.094 34.136 321.042 33.896 321.042C33.688 321.042 33.476 321.094 33.26 321.198C33.044 321.302 32.864 321.482 32.72 321.738C32.584 321.994 32.516 322.342 32.516 322.782V326.154C32.516 326.234 32.488 326.302 32.432 326.358C32.384 326.406 32.32 326.43 32.24 326.43H31.664ZM45.2081 326.55C44.6001 326.55 44.0921 326.434 43.6841 326.202C43.2761 325.97 42.9641 325.65 42.7481 325.242C42.5321 324.826 42.4121 324.354 42.3881 323.826C42.3801 323.69 42.3761 323.518 42.3761 323.31C42.3761 323.094 42.3801 322.922 42.3881 322.794C42.4121 322.258 42.5321 321.786 42.7481 321.378C42.9721 320.97 43.2881 320.65 43.6961 320.418C44.1041 320.186 44.6081 320.07 45.2081 320.07C45.8081 320.07 46.3121 320.186 46.7201 320.418C47.1281 320.65 47.4401 320.97 47.6561 321.378C47.8801 321.786 48.0041 322.258 48.0281 322.794C48.0361 322.922 48.0401 323.094 48.0401 323.31C48.0401 323.518 48.0361 323.69 48.0281 323.826C48.0041 324.354 47.8841 324.826 47.6681 325.242C47.4521 325.65 47.1401 325.97 46.7321 326.202C46.3241 326.434 45.8161 326.55 45.2081 326.55ZM45.2081 325.626C45.7041 325.626 46.1001 325.47 46.3961 325.158C46.6921 324.838 46.8521 324.374 46.8761 323.766C46.8841 323.646 46.8881 323.494 46.8881 323.31C46.8881 323.126 46.8841 322.974 46.8761 322.854C46.8521 322.246 46.6921 321.786 46.3961 321.474C46.1001 321.154 45.7041 320.994 45.2081 320.994C44.7121 320.994 44.3121 321.154 44.0081 321.474C43.7121 321.786 43.5561 322.246 43.5401 322.854C43.5321 322.974 43.5281 323.126 43.5281 323.31C43.5281 323.494 43.5321 323.646 43.5401 323.766C43.5561 324.374 43.7121 324.838 44.0081 325.158C44.3121 325.47 44.7121 325.626 45.2081 325.626ZM50.4187 326.43C50.3387 326.43 50.2707 326.406 50.2147 326.358C50.1667 326.302 50.1427 326.234 50.1427 326.154V320.466C50.1427 320.386 50.1667 320.322 50.2147 320.274C50.2707 320.218 50.3387 320.19 50.4187 320.19H50.9827C51.0627 320.19 51.1267 320.218 51.1747 320.274C51.2307 320.322 51.2587 320.386 51.2587 320.466V320.994C51.4667 320.722 51.7267 320.502 52.0387 320.334C52.3587 320.158 52.7667 320.07 53.2627 320.07C53.7827 320.07 54.2227 320.186 54.5827 320.418C54.9507 320.642 55.2267 320.958 55.4107 321.366C55.5947 321.766 55.6867 322.234 55.6867 322.77V326.154C55.6867 326.234 55.6627 326.302 55.6147 326.358C55.5667 326.406 55.5027 326.43 55.4227 326.43H54.8227C54.7427 326.43 54.6747 326.406 54.6187 326.358C54.5707 326.302 54.5467 326.234 54.5467 326.154V322.83C54.5467 322.27 54.4107 321.834 54.1387 321.522C53.8667 321.202 53.4667 321.042 52.9387 321.042C52.4427 321.042 52.0427 321.202 51.7387 321.522C51.4427 321.834 51.2947 322.27 51.2947 322.83V326.154C51.2947 326.234 51.2667 326.302 51.2107 326.358C51.1627 326.406 51.0987 326.43 51.0187 326.43H50.4187ZM60.374 326.43C59.926 326.43 59.562 326.346 59.282 326.178C59.002 326.002 58.798 325.758 58.67 325.446C58.542 325.126 58.478 324.75 58.478 324.318V321.15H57.542C57.462 321.15 57.394 321.126 57.338 321.078C57.29 321.022 57.266 320.954 57.266 320.874V320.466C57.266 320.386 57.29 320.322 57.338 320.274C57.394 320.218 57.462 320.19 57.542 320.19H58.478V318.186C58.478 318.106 58.502 318.042 58.55 317.994C58.606 317.938 58.674 317.91 58.754 317.91H59.318C59.398 317.91 59.462 317.938 59.51 317.994C59.566 318.042 59.594 318.106 59.594 318.186V320.19H61.082C61.162 320.19 61.226 320.218 61.274 320.274C61.33 320.322 61.358 320.386 61.358 320.466V320.874C61.358 320.954 61.33 321.022 61.274 321.078C61.226 321.126 61.162 321.15 61.082 321.15H59.594V324.234C59.594 324.61 59.658 324.906 59.786 325.122C59.914 325.338 60.142 325.446 60.47 325.446H61.202C61.282 325.446 61.346 325.474 61.394 325.53C61.45 325.578 61.478 325.642 61.478 325.722V326.154C61.478 326.234 61.45 326.302 61.394 326.358C61.346 326.406 61.282 326.43 61.202 326.43H60.374ZM63.5135 326.43C63.4335 326.43 63.3655 326.406 63.3095 326.358C63.2615 326.302 63.2375 326.234 63.2375 326.154V318.186C63.2375 318.106 63.2615 318.042 63.3095 317.994C63.3655 317.938 63.4335 317.91 63.5135 317.91H64.1135C64.2015 317.91 64.2695 317.938 64.3175 317.994C64.3655 318.042 64.3895 318.106 64.3895 318.186V320.982C64.6055 320.71 64.8695 320.49 65.1815 320.322C65.4935 320.154 65.8895 320.07 66.3695 320.07C66.8895 320.07 67.3295 320.186 67.6895 320.418C68.0575 320.642 68.3335 320.958 68.5175 321.366C68.7095 321.766 68.8055 322.234 68.8055 322.77V326.154C68.8055 326.234 68.7815 326.302 68.7335 326.358C68.6855 326.406 68.6175 326.43 68.5295 326.43H67.9295C67.8495 326.43 67.7815 326.406 67.7255 326.358C67.6775 326.302 67.6535 326.234 67.6535 326.154V322.83C67.6535 322.27 67.5175 321.834 67.2455 321.522C66.9735 321.202 66.5735 321.042 66.0455 321.042C65.5495 321.042 65.1495 321.202 64.8455 321.522C64.5415 321.834 64.3895 322.27 64.3895 322.83V326.154C64.3895 326.234 64.3655 326.302 64.3175 326.358C64.2695 326.406 64.2015 326.43 64.1135 326.43H63.5135ZM73.298 326.55C72.85 326.55 72.466 326.494 72.146 326.382C71.826 326.27 71.566 326.134 71.366 325.974C71.166 325.814 71.014 325.654 70.91 325.494C70.814 325.334 70.762 325.206 70.754 325.11C70.746 325.022 70.774 324.954 70.838 324.906C70.902 324.858 70.966 324.834 71.03 324.834H71.558C71.606 324.834 71.642 324.842 71.666 324.858C71.698 324.866 71.738 324.898 71.786 324.954C71.89 325.066 72.006 325.178 72.134 325.29C72.262 325.402 72.418 325.494 72.602 325.566C72.794 325.638 73.03 325.674 73.31 325.674C73.718 325.674 74.054 325.598 74.318 325.446C74.582 325.286 74.714 325.054 74.714 324.75C74.714 324.55 74.658 324.39 74.546 324.27C74.442 324.15 74.25 324.042 73.97 323.946C73.698 323.85 73.322 323.75 72.842 323.646C72.362 323.534 71.982 323.398 71.702 323.238C71.422 323.07 71.222 322.874 71.102 322.65C70.982 322.418 70.922 322.158 70.922 321.87C70.922 321.574 71.01 321.29 71.186 321.018C71.362 320.738 71.618 320.51 71.954 320.334C72.298 320.158 72.726 320.07 73.238 320.07C73.654 320.07 74.01 320.122 74.306 320.226C74.602 320.33 74.846 320.462 75.038 320.622C75.23 320.774 75.374 320.926 75.47 321.078C75.566 321.23 75.618 321.358 75.626 321.462C75.634 321.542 75.61 321.61 75.554 321.666C75.498 321.714 75.434 321.738 75.362 321.738H74.858C74.802 321.738 74.754 321.726 74.714 321.702C74.682 321.678 74.65 321.65 74.618 321.618C74.538 321.514 74.442 321.41 74.33 321.306C74.226 321.202 74.086 321.118 73.91 321.054C73.742 320.982 73.518 320.946 73.238 320.946C72.838 320.946 72.538 321.03 72.338 321.198C72.138 321.366 72.038 321.578 72.038 321.834C72.038 321.986 72.082 322.122 72.17 322.242C72.258 322.362 72.426 322.47 72.674 322.566C72.922 322.662 73.29 322.766 73.778 322.878C74.306 322.982 74.722 323.122 75.026 323.298C75.33 323.474 75.546 323.678 75.674 323.91C75.802 324.142 75.866 324.41 75.866 324.714C75.866 325.05 75.766 325.358 75.566 325.638C75.374 325.918 75.086 326.142 74.702 326.31C74.326 326.47 73.858 326.55 73.298 326.55Z" fill="#FCFCFC"/>
<path d="M166.16 326.43C166.08 326.43 166.012 326.406 165.956 326.358C165.908 326.302 165.884 326.234 165.884 326.154V319.434L163.892 320.97C163.828 321.018 163.76 321.038 163.688 321.03C163.616 321.022 163.556 320.986 163.508 320.922L163.196 320.526C163.148 320.454 163.128 320.382 163.136 320.31C163.152 320.238 163.192 320.178 163.256 320.13L165.872 318.114C165.928 318.074 165.98 318.05 166.028 318.042C166.076 318.034 166.128 318.03 166.184 318.03H166.796C166.876 318.03 166.94 318.058 166.988 318.114C167.036 318.162 167.06 318.226 167.06 318.306V326.154C167.06 326.234 167.036 326.302 166.988 326.358C166.94 326.406 166.876 326.43 166.796 326.43H166.16ZM173.774 328.71C173.71 328.71 173.654 328.686 173.606 328.638C173.558 328.59 173.534 328.534 173.534 328.47C173.534 328.438 173.538 328.406 173.546 328.374C173.554 328.342 173.57 328.302 173.594 328.254L174.518 326.058L172.226 320.646C172.186 320.55 172.166 320.482 172.166 320.442C172.166 320.37 172.19 320.31 172.238 320.262C172.286 320.214 172.346 320.19 172.418 320.19H173.006C173.086 320.19 173.15 320.21 173.198 320.25C173.246 320.29 173.278 320.338 173.294 320.394L175.118 324.762L176.99 320.394C177.014 320.338 177.046 320.29 177.086 320.25C177.134 320.21 177.202 320.19 177.29 320.19H177.854C177.926 320.19 177.986 320.214 178.034 320.262C178.082 320.31 178.106 320.366 178.106 320.43C178.106 320.47 178.086 320.542 178.046 320.646L174.638 328.506C174.614 328.562 174.578 328.61 174.53 328.65C174.49 328.69 174.426 328.71 174.338 328.71H173.774ZM182.164 326.55C181.34 326.55 180.684 326.298 180.196 325.794C179.708 325.282 179.44 324.586 179.392 323.706C179.384 323.602 179.38 323.47 179.38 323.31C179.38 323.142 179.384 323.006 179.392 322.902C179.424 322.334 179.556 321.838 179.788 321.414C180.02 320.982 180.336 320.65 180.736 320.418C181.144 320.186 181.62 320.07 182.164 320.07C182.772 320.07 183.28 320.198 183.688 320.454C184.104 320.71 184.42 321.074 184.636 321.546C184.852 322.018 184.96 322.57 184.96 323.202V323.406C184.96 323.494 184.932 323.562 184.876 323.61C184.828 323.658 184.764 323.682 184.684 323.682H180.532C180.532 323.69 180.532 323.706 180.532 323.73C180.532 323.754 180.532 323.774 180.532 323.79C180.548 324.118 180.62 324.426 180.748 324.714C180.876 324.994 181.06 325.222 181.3 325.398C181.54 325.574 181.828 325.662 182.164 325.662C182.452 325.662 182.692 325.618 182.884 325.53C183.076 325.442 183.232 325.346 183.352 325.242C183.472 325.13 183.552 325.046 183.592 324.99C183.664 324.886 183.72 324.826 183.76 324.81C183.8 324.786 183.864 324.774 183.952 324.774H184.528C184.608 324.774 184.672 324.798 184.72 324.846C184.776 324.886 184.8 324.946 184.792 325.026C184.784 325.146 184.72 325.294 184.6 325.47C184.48 325.638 184.308 325.806 184.084 325.974C183.86 326.142 183.588 326.282 183.268 326.394C182.948 326.498 182.58 326.55 182.164 326.55ZM180.532 322.854H183.82V322.818C183.82 322.458 183.752 322.138 183.616 321.858C183.488 321.578 183.3 321.358 183.052 321.198C182.804 321.03 182.508 320.946 182.164 320.946C181.82 320.946 181.524 321.03 181.276 321.198C181.036 321.358 180.852 321.578 180.724 321.858C180.596 322.138 180.532 322.458 180.532 322.818V322.854ZM188.735 326.55C188.335 326.55 187.971 326.47 187.643 326.31C187.315 326.15 187.051 325.934 186.851 325.662C186.651 325.39 186.551 325.082 186.551 324.738C186.551 324.186 186.775 323.746 187.223 323.418C187.671 323.09 188.255 322.874 188.975 322.77L190.763 322.518V322.17C190.763 321.786 190.651 321.486 190.427 321.27C190.211 321.054 189.855 320.946 189.359 320.946C188.999 320.946 188.707 321.018 188.483 321.162C188.267 321.306 188.115 321.49 188.027 321.714C187.979 321.834 187.895 321.894 187.775 321.894H187.235C187.147 321.894 187.079 321.87 187.031 321.822C186.991 321.766 186.971 321.702 186.971 321.63C186.971 321.51 187.015 321.362 187.103 321.186C187.199 321.01 187.343 320.838 187.535 320.67C187.727 320.502 187.971 320.362 188.267 320.25C188.571 320.13 188.939 320.07 189.371 320.07C189.851 320.07 190.255 320.134 190.583 320.262C190.911 320.382 191.167 320.546 191.351 320.754C191.543 320.962 191.679 321.198 191.759 321.462C191.847 321.726 191.891 321.994 191.891 322.266V326.154C191.891 326.234 191.863 326.302 191.807 326.358C191.759 326.406 191.695 326.43 191.615 326.43H191.063C190.975 326.43 190.907 326.406 190.859 326.358C190.811 326.302 190.787 326.234 190.787 326.154V325.638C190.683 325.782 190.543 325.926 190.367 326.07C190.191 326.206 189.971 326.322 189.707 326.418C189.443 326.506 189.119 326.55 188.735 326.55ZM188.987 325.65C189.315 325.65 189.615 325.582 189.887 325.446C190.159 325.302 190.371 325.082 190.523 324.786C190.683 324.49 190.763 324.118 190.763 323.67V323.334L189.371 323.538C188.803 323.618 188.375 323.754 188.087 323.946C187.799 324.13 187.655 324.366 187.655 324.654C187.655 324.878 187.719 325.066 187.847 325.218C187.983 325.362 188.151 325.47 188.351 325.542C188.559 325.614 188.771 325.65 188.987 325.65ZM194.492 326.43C194.412 326.43 194.344 326.406 194.288 326.358C194.24 326.302 194.216 326.234 194.216 326.154V320.478C194.216 320.398 194.24 320.33 194.288 320.274C194.344 320.218 194.412 320.19 194.492 320.19H195.044C195.124 320.19 195.192 320.218 195.248 320.274C195.304 320.33 195.332 320.398 195.332 320.478V321.006C195.492 320.734 195.712 320.53 195.992 320.394C196.272 320.258 196.608 320.19 197 320.19H197.48C197.56 320.19 197.624 320.218 197.672 320.274C197.72 320.322 197.744 320.386 197.744 320.466V320.958C197.744 321.038 197.72 321.102 197.672 321.15C197.624 321.198 197.56 321.222 197.48 321.222H196.76C196.328 321.222 195.988 321.35 195.74 321.606C195.492 321.854 195.368 322.194 195.368 322.626V326.154C195.368 326.234 195.34 326.302 195.284 326.358C195.228 326.406 195.16 326.43 195.08 326.43H194.492Z" fill="#FCFCFC"/>
<path d="M339.151 326.43C339.071 326.43 339.003 326.406 338.947 326.358C338.899 326.302 338.875 326.234 338.875 326.154V325.77C338.875 325.698 338.895 325.618 338.935 325.53C338.975 325.442 339.055 325.346 339.175 325.242L341.719 322.698C342.127 322.354 342.447 322.062 342.679 321.822C342.919 321.574 343.087 321.338 343.183 321.114C343.287 320.89 343.339 320.658 343.339 320.418C343.339 319.962 343.211 319.602 342.955 319.338C342.699 319.066 342.319 318.93 341.815 318.93C341.495 318.93 341.219 318.998 340.987 319.134C340.755 319.262 340.571 319.442 340.435 319.674C340.307 319.898 340.223 320.154 340.183 320.442C340.167 320.546 340.123 320.618 340.051 320.658C339.987 320.698 339.927 320.718 339.871 320.718H339.247C339.175 320.718 339.115 320.698 339.067 320.658C339.019 320.61 338.995 320.554 338.995 320.49C339.003 320.186 339.067 319.882 339.187 319.578C339.307 319.266 339.483 318.986 339.715 318.738C339.955 318.49 340.247 318.29 340.591 318.138C340.943 317.978 341.351 317.898 341.815 317.898C342.447 317.898 342.963 318.014 343.363 318.246C343.771 318.47 344.071 318.77 344.263 319.146C344.455 319.522 344.551 319.934 344.551 320.382C344.551 320.734 344.491 321.058 344.371 321.354C344.251 321.642 344.075 321.926 343.843 322.206C343.619 322.478 343.339 322.758 343.003 323.046L340.699 325.386H344.443C344.531 325.386 344.599 325.41 344.647 325.458C344.703 325.506 344.731 325.574 344.731 325.662V326.154C344.731 326.234 344.703 326.302 344.647 326.358C344.599 326.406 344.531 326.43 344.443 326.43H339.151ZM351.123 328.71C351.059 328.71 351.003 328.686 350.955 328.638C350.907 328.59 350.883 328.534 350.883 328.47C350.883 328.438 350.887 328.406 350.895 328.374C350.903 328.342 350.919 328.302 350.943 328.254L351.867 326.058L349.575 320.646C349.535 320.55 349.515 320.482 349.515 320.442C349.515 320.37 349.539 320.31 349.587 320.262C349.635 320.214 349.695 320.19 349.767 320.19H350.355C350.435 320.19 350.499 320.21 350.547 320.25C350.595 320.29 350.627 320.338 350.643 320.394L352.467 324.762L354.339 320.394C354.363 320.338 354.395 320.29 354.435 320.25C354.483 320.21 354.551 320.19 354.639 320.19H355.203C355.275 320.19 355.335 320.214 355.383 320.262C355.431 320.31 355.455 320.366 355.455 320.43C355.455 320.47 355.435 320.542 355.395 320.646L351.987 328.506C351.963 328.562 351.927 328.61 351.879 328.65C351.839 328.69 351.775 328.71 351.687 328.71H351.123ZM359.513 326.55C358.689 326.55 358.033 326.298 357.545 325.794C357.057 325.282 356.789 324.586 356.741 323.706C356.733 323.602 356.729 323.47 356.729 323.31C356.729 323.142 356.733 323.006 356.741 322.902C356.773 322.334 356.905 321.838 357.137 321.414C357.369 320.982 357.685 320.65 358.085 320.418C358.493 320.186 358.969 320.07 359.513 320.07C360.121 320.07 360.629 320.198 361.037 320.454C361.453 320.71 361.769 321.074 361.985 321.546C362.201 322.018 362.309 322.57 362.309 323.202V323.406C362.309 323.494 362.281 323.562 362.225 323.61C362.177 323.658 362.113 323.682 362.033 323.682H357.881C357.881 323.69 357.881 323.706 357.881 323.73C357.881 323.754 357.881 323.774 357.881 323.79C357.897 324.118 357.969 324.426 358.097 324.714C358.225 324.994 358.409 325.222 358.649 325.398C358.889 325.574 359.177 325.662 359.513 325.662C359.801 325.662 360.041 325.618 360.233 325.53C360.425 325.442 360.581 325.346 360.701 325.242C360.821 325.13 360.901 325.046 360.941 324.99C361.013 324.886 361.069 324.826 361.109 324.81C361.149 324.786 361.213 324.774 361.301 324.774H361.877C361.957 324.774 362.021 324.798 362.069 324.846C362.125 324.886 362.149 324.946 362.141 325.026C362.133 325.146 362.069 325.294 361.949 325.47C361.829 325.638 361.657 325.806 361.433 325.974C361.209 326.142 360.937 326.282 360.617 326.394C360.297 326.498 359.929 326.55 359.513 326.55ZM357.881 322.854H361.169V322.818C361.169 322.458 361.101 322.138 360.965 321.858C360.837 321.578 360.649 321.358 360.401 321.198C360.153 321.03 359.857 320.946 359.513 320.946C359.169 320.946 358.873 321.03 358.625 321.198C358.385 321.358 358.201 321.578 358.073 321.858C357.945 322.138 357.881 322.458 357.881 322.818V322.854ZM366.084 326.55C365.684 326.55 365.32 326.47 364.992 326.31C364.664 326.15 364.4 325.934 364.2 325.662C364 325.39 363.9 325.082 363.9 324.738C363.9 324.186 364.124 323.746 364.572 323.418C365.02 323.09 365.604 322.874 366.324 322.77L368.112 322.518V322.17C368.112 321.786 368 321.486 367.776 321.27C367.56 321.054 367.204 320.946 366.708 320.946C366.348 320.946 366.056 321.018 365.832 321.162C365.616 321.306 365.464 321.49 365.376 321.714C365.328 321.834 365.244 321.894 365.124 321.894H364.584C364.496 321.894 364.428 321.87 364.38 321.822C364.34 321.766 364.32 321.702 364.32 321.63C364.32 321.51 364.364 321.362 364.452 321.186C364.548 321.01 364.692 320.838 364.884 320.67C365.076 320.502 365.32 320.362 365.616 320.25C365.92 320.13 366.288 320.07 366.72 320.07C367.2 320.07 367.604 320.134 367.932 320.262C368.26 320.382 368.516 320.546 368.7 320.754C368.892 320.962 369.028 321.198 369.108 321.462C369.196 321.726 369.24 321.994 369.24 322.266V326.154C369.24 326.234 369.212 326.302 369.156 326.358C369.108 326.406 369.044 326.43 368.964 326.43H368.412C368.324 326.43 368.256 326.406 368.208 326.358C368.16 326.302 368.136 326.234 368.136 326.154V325.638C368.032 325.782 367.892 325.926 367.716 326.07C367.54 326.206 367.32 326.322 367.056 326.418C366.792 326.506 366.468 326.55 366.084 326.55ZM366.336 325.65C366.664 325.65 366.964 325.582 367.236 325.446C367.508 325.302 367.72 325.082 367.872 324.786C368.032 324.49 368.112 324.118 368.112 323.67V323.334L366.72 323.538C366.152 323.618 365.724 323.754 365.436 323.946C365.148 324.13 365.004 324.366 365.004 324.654C365.004 324.878 365.068 325.066 365.196 325.218C365.332 325.362 365.5 325.47 365.7 325.542C365.908 325.614 366.12 325.65 366.336 325.65ZM371.841 326.43C371.761 326.43 371.693 326.406 371.637 326.358C371.589 326.302 371.565 326.234 371.565 326.154V320.478C371.565 320.398 371.589 320.33 371.637 320.274C371.693 320.218 371.761 320.19 371.841 320.19H372.393C372.473 320.19 372.541 320.218 372.597 320.274C372.653 320.33 372.681 320.398 372.681 320.478V321.006C372.841 320.734 373.061 320.53 373.341 320.394C373.621 320.258 373.957 320.19 374.349 320.19H374.829C374.909 320.19 374.973 320.218 375.021 320.274C375.069 320.322 375.093 320.386 375.093 320.466V320.958C375.093 321.038 375.069 321.102 375.021 321.15C374.973 321.198 374.909 321.222 374.829 321.222H374.109C373.677 321.222 373.337 321.35 373.089 321.606C372.841 321.854 372.717 322.194 372.717 322.626V326.154C372.717 326.234 372.689 326.302 372.633 326.358C372.577 326.406 372.509 326.43 372.429 326.43H371.841ZM378.884 326.55C378.436 326.55 378.052 326.494 377.732 326.382C377.412 326.27 377.152 326.134 376.952 325.974C376.752 325.814 376.6 325.654 376.496 325.494C376.4 325.334 376.348 325.206 376.34 325.11C376.332 325.022 376.36 324.954 376.424 324.906C376.488 324.858 376.552 324.834 376.616 324.834H377.144C377.192 324.834 377.228 324.842 377.252 324.858C377.284 324.866 377.324 324.898 377.372 324.954C377.476 325.066 377.592 325.178 377.72 325.29C377.848 325.402 378.004 325.494 378.188 325.566C378.38 325.638 378.616 325.674 378.896 325.674C379.304 325.674 379.64 325.598 379.904 325.446C380.168 325.286 380.3 325.054 380.3 324.75C380.3 324.55 380.244 324.39 380.132 324.27C380.028 324.15 379.836 324.042 379.556 323.946C379.284 323.85 378.908 323.75 378.428 323.646C377.948 323.534 377.568 323.398 377.288 323.238C377.008 323.07 376.808 322.874 376.688 322.65C376.568 322.418 376.508 322.158 376.508 321.87C376.508 321.574 376.596 321.29 376.772 321.018C376.948 320.738 377.204 320.51 377.54 320.334C377.884 320.158 378.312 320.07 378.824 320.07C379.24 320.07 379.596 320.122 379.892 320.226C380.188 320.33 380.432 320.462 380.624 320.622C380.816 320.774 380.96 320.926 381.056 321.078C381.152 321.23 381.204 321.358 381.212 321.462C381.22 321.542 381.196 321.61 381.14 321.666C381.084 321.714 381.02 321.738 380.948 321.738H380.444C380.388 321.738 380.34 321.726 380.3 321.702C380.268 321.678 380.236 321.65 380.204 321.618C380.124 321.514 380.028 321.41 379.916 321.306C379.812 321.202 379.672 321.118 379.496 321.054C379.328 320.982 379.104 320.946 378.824 320.946C378.424 320.946 378.124 321.03 377.924 321.198C377.724 321.366 377.624 321.578 377.624 321.834C377.624 321.986 377.668 322.122 377.756 322.242C377.844 322.362 378.012 322.47 378.26 322.566C378.508 322.662 378.876 322.766 379.364 322.878C379.892 322.982 380.308 323.122 380.612 323.298C380.916 323.474 381.132 323.678 381.26 323.91C381.388 324.142 381.452 324.41 381.452 324.714C381.452 325.05 381.352 325.358 381.152 325.638C380.96 325.918 380.672 326.142 380.288 326.31C379.912 326.47 379.444 326.55 378.884 326.55Z" fill="#FCFCFC"/>
<path d="M516.746 326.55C516.242 326.55 515.802 326.49 515.426 326.37C515.05 326.242 514.734 326.074 514.478 325.866C514.222 325.658 514.026 325.43 513.89 325.182C513.762 324.934 513.694 324.678 513.686 324.414C513.686 324.342 513.71 324.286 513.758 324.246C513.806 324.206 513.866 324.186 513.938 324.186H514.526C514.598 324.186 514.662 324.202 514.718 324.234C514.774 324.266 514.822 324.334 514.862 324.438C514.942 324.726 515.078 324.95 515.27 325.11C515.47 325.27 515.698 325.382 515.954 325.446C516.218 325.502 516.482 325.53 516.746 325.53C517.298 325.53 517.746 325.398 518.09 325.134C518.434 324.87 518.606 324.482 518.606 323.97C518.606 323.45 518.45 323.078 518.138 322.854C517.826 322.63 517.394 322.518 516.842 322.518H515.702C515.622 322.518 515.554 322.494 515.498 322.446C515.45 322.398 515.426 322.33 515.426 322.242V321.918C515.426 321.846 515.438 321.786 515.462 321.738C515.494 321.682 515.526 321.634 515.558 321.594L517.886 319.05H514.346C514.266 319.05 514.198 319.026 514.142 318.978C514.094 318.93 514.07 318.862 514.07 318.774V318.318C514.07 318.23 514.094 318.162 514.142 318.114C514.198 318.058 514.266 318.03 514.346 318.03H519.134C519.222 318.03 519.29 318.058 519.338 318.114C519.394 318.162 519.422 318.23 519.422 318.318V318.75C519.422 318.806 519.406 318.858 519.374 318.906C519.35 318.946 519.322 318.986 519.29 319.026L516.974 321.606L517.166 321.618C517.694 321.634 518.154 321.73 518.546 321.906C518.946 322.082 519.254 322.346 519.47 322.698C519.694 323.042 519.806 323.478 519.806 324.006C519.806 324.542 519.674 325.002 519.41 325.386C519.146 325.762 518.782 326.05 518.318 326.25C517.854 326.45 517.33 326.55 516.746 326.55ZM526.17 328.71C526.106 328.71 526.05 328.686 526.002 328.638C525.954 328.59 525.93 328.534 525.93 328.47C525.93 328.438 525.934 328.406 525.942 328.374C525.95 328.342 525.966 328.302 525.99 328.254L526.914 326.058L524.622 320.646C524.582 320.55 524.562 320.482 524.562 320.442C524.562 320.37 524.586 320.31 524.634 320.262C524.682 320.214 524.742 320.19 524.814 320.19H525.402C525.482 320.19 525.546 320.21 525.594 320.25C525.642 320.29 525.674 320.338 525.69 320.394L527.514 324.762L529.386 320.394C529.41 320.338 529.442 320.29 529.482 320.25C529.53 320.21 529.598 320.19 529.686 320.19H530.25C530.322 320.19 530.382 320.214 530.43 320.262C530.478 320.31 530.502 320.366 530.502 320.43C530.502 320.47 530.482 320.542 530.442 320.646L527.034 328.506C527.01 328.562 526.974 328.61 526.926 328.65C526.886 328.69 526.822 328.71 526.734 328.71H526.17ZM534.56 326.55C533.736 326.55 533.08 326.298 532.592 325.794C532.104 325.282 531.836 324.586 531.788 323.706C531.78 323.602 531.776 323.47 531.776 323.31C531.776 323.142 531.78 323.006 531.788 322.902C531.82 322.334 531.952 321.838 532.184 321.414C532.416 320.982 532.732 320.65 533.132 320.418C533.54 320.186 534.016 320.07 534.56 320.07C535.168 320.07 535.676 320.198 536.084 320.454C536.5 320.71 536.816 321.074 537.032 321.546C537.248 322.018 537.356 322.57 537.356 323.202V323.406C537.356 323.494 537.328 323.562 537.272 323.61C537.224 323.658 537.16 323.682 537.08 323.682H532.928C532.928 323.69 532.928 323.706 532.928 323.73C532.928 323.754 532.928 323.774 532.928 323.79C532.944 324.118 533.016 324.426 533.144 324.714C533.272 324.994 533.456 325.222 533.696 325.398C533.936 325.574 534.224 325.662 534.56 325.662C534.848 325.662 535.088 325.618 535.28 325.53C535.472 325.442 535.628 325.346 535.748 325.242C535.868 325.13 535.948 325.046 535.988 324.99C536.06 324.886 536.116 324.826 536.156 324.81C536.196 324.786 536.26 324.774 536.348 324.774H536.924C537.004 324.774 537.068 324.798 537.116 324.846C537.172 324.886 537.196 324.946 537.188 325.026C537.18 325.146 537.116 325.294 536.996 325.47C536.876 325.638 536.704 325.806 536.48 325.974C536.256 326.142 535.984 326.282 535.664 326.394C535.344 326.498 534.976 326.55 534.56 326.55ZM532.928 322.854H536.216V322.818C536.216 322.458 536.148 322.138 536.012 321.858C535.884 321.578 535.696 321.358 535.448 321.198C535.2 321.03 534.904 320.946 534.56 320.946C534.216 320.946 533.92 321.03 533.672 321.198C533.432 321.358 533.248 321.578 533.12 321.858C532.992 322.138 532.928 322.458 532.928 322.818V322.854ZM541.131 326.55C540.731 326.55 540.367 326.47 540.039 326.31C539.711 326.15 539.447 325.934 539.247 325.662C539.047 325.39 538.947 325.082 538.947 324.738C538.947 324.186 539.171 323.746 539.619 323.418C540.067 323.09 540.651 322.874 541.371 322.77L543.159 322.518V322.17C543.159 321.786 543.047 321.486 542.823 321.27C542.607 321.054 542.251 320.946 541.755 320.946C541.395 320.946 541.103 321.018 540.879 321.162C540.663 321.306 540.511 321.49 540.423 321.714C540.375 321.834 540.291 321.894 540.171 321.894H539.631C539.543 321.894 539.475 321.87 539.427 321.822C539.387 321.766 539.367 321.702 539.367 321.63C539.367 321.51 539.411 321.362 539.499 321.186C539.595 321.01 539.739 320.838 539.931 320.67C540.123 320.502 540.367 320.362 540.663 320.25C540.967 320.13 541.335 320.07 541.767 320.07C542.247 320.07 542.651 320.134 542.979 320.262C543.307 320.382 543.563 320.546 543.747 320.754C543.939 320.962 544.075 321.198 544.155 321.462C544.243 321.726 544.287 321.994 544.287 322.266V326.154C544.287 326.234 544.259 326.302 544.203 326.358C544.155 326.406 544.091 326.43 544.011 326.43H543.459C543.371 326.43 543.303 326.406 543.255 326.358C543.207 326.302 543.183 326.234 543.183 326.154V325.638C543.079 325.782 542.939 325.926 542.763 326.07C542.587 326.206 542.367 326.322 542.103 326.418C541.839 326.506 541.515 326.55 541.131 326.55ZM541.383 325.65C541.711 325.65 542.011 325.582 542.283 325.446C542.555 325.302 542.767 325.082 542.919 324.786C543.079 324.49 543.159 324.118 543.159 323.67V323.334L541.767 323.538C541.199 323.618 540.771 323.754 540.483 323.946C540.195 324.13 540.051 324.366 540.051 324.654C540.051 324.878 540.115 325.066 540.243 325.218C540.379 325.362 540.547 325.47 540.747 325.542C540.955 325.614 541.167 325.65 541.383 325.65ZM546.888 326.43C546.808 326.43 546.74 326.406 546.684 326.358C546.636 326.302 546.612 326.234 546.612 326.154V320.478C546.612 320.398 546.636 320.33 546.684 320.274C546.74 320.218 546.808 320.19 546.888 320.19H547.44C547.52 320.19 547.588 320.218 547.644 320.274C547.7 320.33 547.728 320.398 547.728 320.478V321.006C547.888 320.734 548.108 320.53 548.388 320.394C548.668 320.258 549.004 320.19 549.396 320.19H549.876C549.956 320.19 550.02 320.218 550.068 320.274C550.116 320.322 550.14 320.386 550.14 320.466V320.958C550.14 321.038 550.116 321.102 550.068 321.15C550.02 321.198 549.956 321.222 549.876 321.222H549.156C548.724 321.222 548.384 321.35 548.136 321.606C547.888 321.854 547.764 322.194 547.764 322.626V326.154C547.764 326.234 547.736 326.302 547.68 326.358C547.624 326.406 547.556 326.43 547.476 326.43H546.888ZM553.931 326.55C553.483 326.55 553.099 326.494 552.779 326.382C552.459 326.27 552.199 326.134 551.999 325.974C551.799 325.814 551.647 325.654 551.543 325.494C551.447 325.334 551.395 325.206 551.387 325.11C551.379 325.022 551.407 324.954 551.471 324.906C551.535 324.858 551.599 324.834 551.663 324.834H552.191C552.239 324.834 552.275 324.842 552.299 324.858C552.331 324.866 552.371 324.898 552.419 324.954C552.523 325.066 552.639 325.178 552.767 325.29C552.895 325.402 553.051 325.494 553.235 325.566C553.427 325.638 553.663 325.674 553.943 325.674C554.351 325.674 554.687 325.598 554.951 325.446C555.215 325.286 555.347 325.054 555.347 324.75C555.347 324.55 555.291 324.39 555.179 324.27C555.075 324.15 554.883 324.042 554.603 323.946C554.331 323.85 553.955 323.75 553.475 323.646C552.995 323.534 552.615 323.398 552.335 323.238C552.055 323.07 551.855 322.874 551.735 322.65C551.615 322.418 551.555 322.158 551.555 321.87C551.555 321.574 551.643 321.29 551.819 321.018C551.995 320.738 552.251 320.51 552.587 320.334C552.931 320.158 553.359 320.07 553.871 320.07C554.287 320.07 554.643 320.122 554.939 320.226C555.235 320.33 555.479 320.462 555.671 320.622C555.863 320.774 556.007 320.926 556.103 321.078C556.199 321.23 556.251 321.358 556.259 321.462C556.267 321.542 556.243 321.61 556.187 321.666C556.131 321.714 556.067 321.738 555.995 321.738H555.491C555.435 321.738 555.387 321.726 555.347 321.702C555.315 321.678 555.283 321.65 555.251 321.618C555.171 321.514 555.075 321.41 554.963 321.306C554.859 321.202 554.719 321.118 554.543 321.054C554.375 320.982 554.151 320.946 553.871 320.946C553.471 320.946 553.171 321.03 552.971 321.198C552.771 321.366 552.671 321.578 552.671 321.834C552.671 321.986 552.715 322.122 552.803 322.242C552.891 322.362 553.059 322.47 553.307 322.566C553.555 322.662 553.923 322.766 554.411 322.878C554.939 322.982 555.355 323.122 555.659 323.298C555.963 323.474 556.179 323.678 556.307 323.91C556.435 324.142 556.499 324.41 556.499 324.714C556.499 325.05 556.399 325.358 556.199 325.638C556.007 325.918 555.719 326.142 555.335 326.31C554.959 326.47 554.491 326.55 553.931 326.55Z" fill="#FCFCFC"/>
<path d="M71.1626 275.099L29 309.054H557V45.6875L372.103 89.6544L199.585 158.434L71.1626 275.099Z" fill="#E88CD4"/>
<path d="M71.1626 275.099L29 309.054H557V45.6875L372.103 89.6544L199.585 158.434L71.1626 275.099Z" fill="#E88CD4"/>
<g filter="url(#filter0_f_5129_51352)">
<path d="M29 309.054L71.1626 275.479L199.585 158.621L372.103 89.7272L557 45.6875" stroke="#E843C4" stroke-width="3.36212"/>
</g>
<path d="M29 309.054L71.1626 275.479L199.585 158.621L372.103 89.7272L557 45.6875" stroke="#E843C4" stroke-width="1.74121"/>
<path d="M90.0097 288.133L39.1328 309.463H557.002V215.438H355.149L174.391 243.297L90.0097 288.133Z" fill="#FEEBB3"/>
<g filter="url(#filter1_f_5129_51352)">
<path d="M38.5056 307.033C37.6442 307.379 37.2267 308.358 37.5731 309.219C37.9195 310.081 38.8986 310.498 39.76 310.152L38.5056 307.033ZM90.0097 288.133L90.6369 289.693L90.7197 289.659L90.7985 289.617L90.0097 288.133ZM174.391 243.297L174.135 241.635L173.854 241.679L173.602 241.812L174.391 243.297ZM355.149 215.438V213.756H355.02L354.893 213.776L355.149 215.438ZM39.76 310.152L90.6369 289.693L89.3825 286.573L38.5056 307.033L39.76 310.152ZM90.7985 289.617L175.18 244.781L173.602 241.812L89.2209 286.648L90.7985 289.617ZM174.647 244.958L355.405 217.099L354.893 213.776L174.135 241.635L174.647 244.958ZM355.149 217.119H557.002V213.756H355.149V217.119Z" fill="#FFBF00"/>
</g>
<path d="M38.808 307.784C38.3619 307.964 38.1457 308.471 38.3251 308.917C38.5045 309.363 39.0115 309.579 39.4576 309.4L38.808 307.784ZM90.0097 288.133L90.3345 288.941L90.3774 288.923L90.4182 288.902L90.0097 288.133ZM174.391 243.297L174.258 242.436L174.113 242.459L173.982 242.528L174.391 243.297ZM355.149 215.438V214.567H355.082L355.016 214.577L355.149 215.438ZM39.4576 309.4L90.3345 288.941L89.6849 287.325L38.808 307.784L39.4576 309.4ZM90.4182 288.902L174.799 244.066L173.982 242.528L89.6012 287.364L90.4182 288.902ZM174.524 244.157L355.281 216.298L355.016 214.577L174.258 242.436L174.524 244.157ZM355.149 216.308H557.002V214.567H355.149V216.308Z" fill="#FFBF00"/>
<path d="M95.4223 288.131L40 308.591H556.999V257.66H355.163H174.42L95.4223 288.131Z" fill="#92EAEA"/>
<g filter="url(#filter2_f_5129_51352)">
<path d="M39.4178 307.013L37.8408 307.596L39.0051 310.75L40.5822 310.168L39.4178 307.013ZM95.4223 288.131L96.0045 289.708L96.0159 289.704L96.0273 289.7L95.4223 288.131ZM174.42 257.66V255.979H174.107L173.815 256.092L174.42 257.66ZM40.5822 310.168L96.0045 289.708L94.8401 286.554L39.4178 307.013L40.5822 310.168ZM96.0273 289.7L175.025 259.229L173.815 256.092L94.8173 286.563L96.0273 289.7ZM174.42 259.341H355.163V255.979H174.42V259.341ZM355.163 259.341H556.999V255.979H355.163V259.341Z" fill="#26DBDB"/>
</g>
<path d="M39.6985 307.774L38.8818 308.075L39.4848 309.709L40.3015 309.407L39.6985 307.774ZM95.4223 288.131L95.7238 288.948L95.7356 288.944L95.4223 288.131ZM174.42 257.66V256.79H174.258L174.106 256.848L174.42 257.66ZM40.3015 309.407L95.7238 288.948L95.1208 287.315L39.6985 307.774L40.3015 309.407ZM95.7356 288.944L174.733 258.472L174.106 256.848L95.109 287.319L95.7356 288.944ZM174.42 258.531H355.163V256.79H174.42V258.531ZM355.163 258.531H556.999V256.79H355.163V258.531Z" fill="#26DBDB"/>
<path d="M88.3364 301.627L40.4375 308.592H557.002V292.051H352.606H171.334L88.3364 301.627Z" fill="#6484ED"/>
<path d="M40.3122 307.731L39.4507 307.856L39.7012 309.579L40.5628 309.454L40.3122 307.731ZM88.3364 301.627L88.2366 300.763L88.2238 300.764L88.2111 300.766L88.3364 301.627ZM171.334 292.051V291.18H171.283L171.234 291.186L171.334 292.051ZM40.5628 309.454L88.4616 302.489L88.2111 300.766L40.3122 307.731L40.5628 309.454ZM88.4362 302.492L171.433 292.916L171.234 291.186L88.2366 300.763L88.4362 302.492ZM171.334 292.921H352.606V291.18H171.334V292.921ZM352.606 292.921H557.002V291.18H352.606V292.921Z" fill="#0C3DDC"/>
<path d="M557 309H29V37" stroke="white" stroke-width="1.74121" stroke-linecap="round"/>
<defs>
<filter id="filter0_f_5129_51352" x="21.2284" y="37.3275" width="542.885" height="279.765" filterUnits="userSpaceOnUse" color-interpolation-filters="sRGB">
<feFlood flood-opacity="0" result="BackgroundImageFix"/>
<feBlend mode="normal" in="SourceGraphic" in2="BackgroundImageFix" result="shape"/>
<feGaussianBlur stdDeviation="3.36212" result="effect1_foregroundBlur_5129_51352"/>
</filter>
<filter id="filter1_f_5129_51352" x="30.7269" y="207.033" width="532.999" height="109.965" filterUnits="userSpaceOnUse" color-interpolation-filters="sRGB">
<feFlood flood-opacity="0" result="BackgroundImageFix"/>
<feBlend mode="normal" in="SourceGraphic" in2="BackgroundImageFix" result="shape"/>
<feGaussianBlur stdDeviation="3.36212" result="effect1_foregroundBlur_5129_51352"/>
</filter>
<filter id="filter2_f_5129_51352" x="31.1166" y="249.255" width="532.607" height="68.219" filterUnits="userSpaceOnUse" color-interpolation-filters="sRGB">
<feFlood flood-opacity="0" result="BackgroundImageFix"/>
<feBlend mode="normal" in="SourceGraphic" in2="BackgroundImageFix" result="shape"/>
<feGaussianBlur stdDeviation="3.36212" result="effect1_foregroundBlur_5129_51352"/>
</filter>
</defs>
</svg>
