<svg width="924" height="344" viewBox="0 0 924 344" fill="none" xmlns="http://www.w3.org/2000/svg">
<rect x="784" y="222.074" width="13.8555" height="13.8512" rx="4" fill="#4285F4"/>
<path d="M807.395 234C807.302 234 807.223 233.972 807.157 233.916C807.101 233.851 807.073 233.771 807.073 233.678V224.536C807.073 224.433 807.101 224.354 807.157 224.298C807.223 224.233 807.302 224.2 807.395 224.2H813.107C813.21 224.2 813.289 224.233 813.345 224.298C813.411 224.354 813.443 224.433 813.443 224.536V225.096C813.443 225.189 813.411 225.269 813.345 225.334C813.289 225.39 813.21 225.418 813.107 225.418H808.431V228.68H812.827C812.93 228.68 813.009 228.713 813.065 228.778C813.131 228.834 813.163 228.913 813.163 229.016V229.576C813.163 229.669 813.131 229.749 813.065 229.814C813 229.87 812.921 229.898 812.827 229.898H808.431V233.678C808.431 233.771 808.399 233.851 808.333 233.916C808.268 233.972 808.189 234 808.095 234H807.395ZM817.387 234.14C816.93 234.14 816.505 234.047 816.113 233.86C815.721 233.673 815.408 233.421 815.175 233.104C814.951 232.777 814.839 232.418 814.839 232.026C814.839 231.41 815.091 230.906 815.595 230.514C816.108 230.113 816.799 229.851 817.667 229.73L819.753 229.436V229.03C819.753 228.078 819.207 227.602 818.115 227.602C817.704 227.602 817.368 227.691 817.107 227.868C816.846 228.036 816.65 228.237 816.519 228.47C816.491 228.554 816.454 228.615 816.407 228.652C816.37 228.689 816.314 228.708 816.239 228.708H815.637C815.553 228.708 815.478 228.68 815.413 228.624C815.357 228.559 815.329 228.484 815.329 228.4C815.338 228.176 815.441 227.924 815.637 227.644C815.842 227.355 816.155 227.107 816.575 226.902C816.995 226.687 817.513 226.58 818.129 226.58C819.174 226.58 819.926 226.827 820.383 227.322C820.84 227.807 821.069 228.414 821.069 229.142V233.678C821.069 233.771 821.036 233.851 820.971 233.916C820.915 233.972 820.84 234 820.747 234H820.103C820.01 234 819.93 233.972 819.865 233.916C819.809 233.851 819.781 233.771 819.781 233.678V233.076C819.576 233.375 819.277 233.627 818.885 233.832C818.493 234.037 817.994 234.14 817.387 234.14ZM817.681 233.09C818.288 233.09 818.782 232.894 819.165 232.502C819.557 232.101 819.753 231.527 819.753 230.78V230.388L818.129 230.626C817.466 230.719 816.967 230.878 816.631 231.102C816.295 231.317 816.127 231.592 816.127 231.928C816.127 232.301 816.281 232.591 816.589 232.796C816.897 232.992 817.261 233.09 817.681 233.09ZM824.104 234C824.01 234 823.931 233.972 823.866 233.916C823.81 233.851 823.782 233.771 823.782 233.678V227.042C823.782 226.949 823.81 226.874 823.866 226.818C823.931 226.753 824.01 226.72 824.104 226.72H824.734C824.827 226.72 824.902 226.753 824.958 226.818C825.023 226.874 825.056 226.949 825.056 227.042V227.532C825.541 226.897 826.218 226.58 827.086 226.58C828.122 226.58 828.854 227.009 829.284 227.868C829.508 227.476 829.825 227.163 830.236 226.93C830.646 226.697 831.108 226.58 831.622 226.58C832.387 226.58 833.012 226.841 833.498 227.364C833.983 227.887 834.226 228.643 834.226 229.632V233.678C834.226 233.771 834.193 233.851 834.128 233.916C834.072 233.972 833.997 234 833.904 234H833.246C833.152 234 833.073 233.972 833.008 233.916C832.952 233.851 832.924 233.771 832.924 233.678V229.758C832.924 229.03 832.77 228.507 832.462 228.19C832.163 227.873 831.766 227.714 831.272 227.714C830.833 227.714 830.455 227.877 830.138 228.204C829.82 228.521 829.662 229.039 829.662 229.758V233.678C829.662 233.771 829.629 233.851 829.564 233.916C829.508 233.972 829.433 234 829.34 234H828.682C828.588 234 828.509 233.972 828.444 233.916C828.388 233.851 828.36 233.771 828.36 233.678V229.758C828.36 229.03 828.201 228.507 827.884 228.19C827.576 227.873 827.184 227.714 826.708 227.714C826.269 227.714 825.891 227.877 825.574 228.204C825.256 228.521 825.098 229.035 825.098 229.744V233.678C825.098 233.771 825.065 233.851 825 233.916C824.944 233.972 824.869 234 824.776 234H824.104ZM837.133 225.362C837.04 225.362 836.96 225.334 836.895 225.278C836.839 225.213 836.811 225.133 836.811 225.04V224.284C836.811 224.191 836.839 224.111 836.895 224.046C836.96 223.981 837.04 223.948 837.133 223.948H838.015C838.108 223.948 838.188 223.981 838.253 224.046C838.318 224.111 838.351 224.191 838.351 224.284V225.04C838.351 225.133 838.318 225.213 838.253 225.278C838.188 225.334 838.108 225.362 838.015 225.362H837.133ZM837.245 234C837.152 234 837.072 233.972 837.007 233.916C836.951 233.851 836.923 233.771 836.923 233.678V227.042C836.923 226.949 836.951 226.874 837.007 226.818C837.072 226.753 837.152 226.72 837.245 226.72H837.917C838.01 226.72 838.085 226.753 838.141 226.818C838.206 226.874 838.239 226.949 838.239 227.042V233.678C838.239 233.771 838.206 233.851 838.141 233.916C838.085 233.972 838.01 234 837.917 234H837.245ZM841.35 234C841.256 234 841.177 233.972 841.112 233.916C841.056 233.851 841.028 233.771 841.028 233.678V224.382C841.028 224.289 841.056 224.214 841.112 224.158C841.177 224.093 841.256 224.06 841.35 224.06H842.008C842.101 224.06 842.176 224.093 842.232 224.158C842.297 224.214 842.33 224.289 842.33 224.382V233.678C842.33 233.771 842.297 233.851 842.232 233.916C842.176 233.972 842.101 234 842.008 234H841.35ZM846.392 236.66C846.317 236.66 846.252 236.632 846.196 236.576C846.14 236.52 846.112 236.455 846.112 236.38C846.112 236.315 846.135 236.231 846.182 236.128L847.26 233.566L844.586 227.252C844.539 227.131 844.516 227.051 844.516 227.014C844.516 226.93 844.544 226.86 844.6 226.804C844.656 226.748 844.726 226.72 844.81 226.72H845.496C845.645 226.72 845.757 226.799 845.832 226.958L847.96 232.054L850.144 226.958C850.219 226.799 850.335 226.72 850.494 226.72H851.152C851.236 226.72 851.306 226.748 851.362 226.804C851.418 226.86 851.446 226.925 851.446 227C851.446 227.028 851.423 227.112 851.376 227.252L847.4 236.422C847.325 236.581 847.209 236.66 847.05 236.66H846.392ZM860.287 234.14C859.652 234.14 859.088 234.023 858.593 233.79C858.108 233.557 857.73 233.23 857.459 232.81C857.188 232.39 857.053 231.914 857.053 231.382C857.053 230.794 857.226 230.295 857.571 229.884C857.916 229.464 858.402 229.072 859.027 228.708C858.588 228.241 858.276 227.835 858.089 227.49C857.912 227.135 857.823 226.762 857.823 226.37C857.823 225.95 857.93 225.567 858.145 225.222C858.36 224.867 858.668 224.587 859.069 224.382C859.47 224.167 859.928 224.06 860.441 224.06C860.945 224.06 861.393 224.163 861.785 224.368C862.177 224.564 862.48 224.839 862.695 225.194C862.91 225.539 863.017 225.927 863.017 226.356C863.017 226.925 862.835 227.401 862.471 227.784C862.107 228.167 861.58 228.554 860.889 228.946L863.269 231.284C863.642 230.659 863.894 229.949 864.025 229.156C864.034 229.072 864.062 229.007 864.109 228.96C864.165 228.904 864.235 228.876 864.319 228.876H864.935C865.019 228.876 865.089 228.904 865.145 228.96C865.201 229.016 865.229 229.086 865.229 229.17C865.22 229.581 865.112 230.052 864.907 230.584C864.711 231.107 864.44 231.611 864.095 232.096L865.523 233.524C865.607 233.608 865.649 233.678 865.649 233.734C865.649 233.911 865.556 234 865.369 234H864.585C864.408 234 864.282 233.953 864.207 233.86L863.283 232.95C862.471 233.743 861.472 234.14 860.287 234.14ZM860.119 228.134C860.679 227.826 861.099 227.546 861.379 227.294C861.659 227.042 861.799 226.734 861.799 226.37C861.799 226.006 861.668 225.712 861.407 225.488C861.146 225.255 860.824 225.138 860.441 225.138C860.068 225.138 859.746 225.255 859.475 225.488C859.214 225.712 859.083 226.011 859.083 226.384C859.083 226.636 859.153 226.888 859.293 227.14C859.442 227.383 859.718 227.714 860.119 228.134ZM860.287 233.02C860.67 233.02 861.048 232.941 861.421 232.782C861.794 232.623 862.135 232.39 862.443 232.082L859.825 229.534C859.349 229.805 858.98 230.08 858.719 230.36C858.467 230.64 858.341 230.971 858.341 231.354C858.341 231.867 858.532 232.273 858.915 232.572C859.298 232.871 859.755 233.02 860.287 233.02ZM872.361 234C872.268 234 872.189 233.972 872.123 233.916C872.067 233.851 872.039 233.771 872.039 233.678V224.536C872.039 224.433 872.067 224.354 872.123 224.298C872.189 224.233 872.268 224.2 872.361 224.2H878.073C878.176 224.2 878.255 224.233 878.311 224.298C878.377 224.354 878.409 224.433 878.409 224.536V225.096C878.409 225.189 878.377 225.269 878.311 225.334C878.255 225.39 878.176 225.418 878.073 225.418H873.397V228.68H877.793C877.896 228.68 877.975 228.713 878.031 228.778C878.097 228.834 878.129 228.913 878.129 229.016V229.576C878.129 229.669 878.097 229.749 878.031 229.814C877.966 229.87 877.887 229.898 877.793 229.898H873.397V233.678C873.397 233.771 873.365 233.851 873.299 233.916C873.234 233.972 873.155 234 873.061 234H872.361ZM880.864 234C880.771 234 880.691 233.972 880.626 233.916C880.57 233.851 880.542 233.771 880.542 233.678V227.056C880.542 226.963 880.57 226.883 880.626 226.818C880.691 226.753 880.771 226.72 880.864 226.72H881.508C881.601 226.72 881.681 226.753 881.746 226.818C881.811 226.883 881.844 226.963 881.844 227.056V227.672C882.227 227.037 882.88 226.72 883.804 226.72H884.35C884.443 226.72 884.518 226.753 884.574 226.818C884.639 226.874 884.672 226.949 884.672 227.042V227.616C884.672 227.709 884.639 227.784 884.574 227.84C884.518 227.896 884.443 227.924 884.35 227.924H883.51C883.006 227.924 882.609 228.073 882.32 228.372C882.031 228.661 881.886 229.058 881.886 229.562V233.678C881.886 233.771 881.853 233.851 881.788 233.916C881.723 233.972 881.643 234 881.55 234H880.864ZM886.77 225.362C886.677 225.362 886.598 225.334 886.532 225.278C886.476 225.213 886.448 225.133 886.448 225.04V224.284C886.448 224.191 886.476 224.111 886.532 224.046C886.598 223.981 886.677 223.948 886.77 223.948H887.652C887.746 223.948 887.825 223.981 887.89 224.046C887.956 224.111 887.988 224.191 887.988 224.284V225.04C887.988 225.133 887.956 225.213 887.89 225.278C887.825 225.334 887.746 225.362 887.652 225.362H886.77ZM886.882 234C886.789 234 886.71 233.972 886.644 233.916C886.588 233.851 886.56 233.771 886.56 233.678V227.042C886.56 226.949 886.588 226.874 886.644 226.818C886.71 226.753 886.789 226.72 886.882 226.72H887.554C887.648 226.72 887.722 226.753 887.778 226.818C887.844 226.874 887.876 226.949 887.876 227.042V233.678C887.876 233.771 887.844 233.851 887.778 233.916C887.722 233.972 887.648 234 887.554 234H886.882ZM893.563 234.14C892.602 234.14 891.832 233.846 891.253 233.258C890.684 232.661 890.371 231.849 890.315 230.822L890.301 230.346L890.315 229.884C890.38 228.876 890.698 228.073 891.267 227.476C891.846 226.879 892.606 226.58 893.549 226.58C894.585 226.58 895.388 226.911 895.957 227.574C896.526 228.227 896.811 229.114 896.811 230.234V230.472C896.811 230.565 896.778 230.645 896.713 230.71C896.657 230.766 896.582 230.794 896.489 230.794H891.645V230.92C891.673 231.527 891.855 232.045 892.191 232.474C892.536 232.894 892.989 233.104 893.549 233.104C893.978 233.104 894.328 233.02 894.599 232.852C894.879 232.675 895.084 232.493 895.215 232.306C895.299 232.194 895.36 232.129 895.397 232.11C895.444 232.082 895.523 232.068 895.635 232.068H896.321C896.405 232.068 896.475 232.091 896.531 232.138C896.587 232.185 896.615 232.25 896.615 232.334C896.615 232.539 896.484 232.787 896.223 233.076C895.971 233.365 895.612 233.617 895.145 233.832C894.688 234.037 894.16 234.14 893.563 234.14ZM895.481 229.828V229.786C895.481 229.142 895.304 228.619 894.949 228.218C894.604 227.807 894.137 227.602 893.549 227.602C892.961 227.602 892.494 227.807 892.149 228.218C891.813 228.619 891.645 229.142 891.645 229.786V229.828H895.481ZM899.507 234C899.413 234 899.334 233.972 899.269 233.916C899.213 233.851 899.185 233.771 899.185 233.678V227.042C899.185 226.949 899.213 226.874 899.269 226.818C899.334 226.753 899.413 226.72 899.507 226.72H900.165C900.258 226.72 900.333 226.753 900.389 226.818C900.454 226.874 900.487 226.949 900.487 227.042V227.658C900.757 227.313 901.075 227.047 901.439 226.86C901.812 226.673 902.274 226.58 902.825 226.58C903.721 226.58 904.416 226.869 904.911 227.448C905.415 228.017 905.667 228.778 905.667 229.73V233.678C905.667 233.771 905.634 233.851 905.569 233.916C905.513 233.972 905.438 234 905.345 234H904.645C904.551 234 904.472 233.972 904.407 233.916C904.351 233.851 904.323 233.771 904.323 233.678V229.8C904.323 229.137 904.159 228.624 903.833 228.26C903.515 227.896 903.053 227.714 902.447 227.714C901.859 227.714 901.392 227.901 901.047 228.274C900.701 228.638 900.529 229.147 900.529 229.8V233.678C900.529 233.771 900.496 233.851 900.431 233.916C900.375 233.972 900.3 234 900.207 234H899.507ZM911.035 234.14C910.064 234.14 909.332 233.823 908.837 233.188C908.342 232.553 908.081 231.751 908.053 230.78L908.039 230.36L908.053 229.94C908.081 228.979 908.342 228.181 908.837 227.546C909.332 226.902 910.064 226.58 911.035 226.58C911.996 226.58 912.752 226.921 913.303 227.602V224.382C913.303 224.289 913.331 224.214 913.387 224.158C913.452 224.093 913.532 224.06 913.625 224.06H914.297C914.39 224.06 914.465 224.093 914.521 224.158C914.586 224.214 914.619 224.289 914.619 224.382V233.678C914.619 233.771 914.586 233.851 914.521 233.916C914.465 233.972 914.39 234 914.297 234H913.667C913.574 234 913.494 233.972 913.429 233.916C913.373 233.851 913.345 233.771 913.345 233.678V233.09C912.804 233.79 912.034 234.14 911.035 234.14ZM911.329 233.006C911.973 233.006 912.454 232.796 912.771 232.376C913.098 231.947 913.275 231.438 913.303 230.85C913.312 230.747 913.317 230.57 913.317 230.318C913.317 230.057 913.312 229.875 913.303 229.772C913.284 229.221 913.107 228.741 912.771 228.33C912.435 227.919 911.954 227.714 911.329 227.714C910.666 227.714 910.181 227.919 909.873 228.33C909.574 228.741 909.411 229.282 909.383 229.954L909.369 230.36C909.369 232.124 910.022 233.006 911.329 233.006ZM919.921 234.14C919.268 234.14 918.717 234.037 918.269 233.832C917.831 233.617 917.499 233.375 917.275 233.104C917.061 232.833 916.953 232.609 916.953 232.432C916.953 232.339 916.986 232.269 917.051 232.222C917.126 232.166 917.201 232.138 917.275 232.138H917.905C917.999 232.138 918.083 232.185 918.157 232.278C918.381 232.539 918.624 232.745 918.885 232.894C919.147 233.043 919.497 233.118 919.935 233.118C920.421 233.118 920.813 233.025 921.111 232.838C921.419 232.642 921.573 232.376 921.573 232.04C921.573 231.816 921.508 231.634 921.377 231.494C921.256 231.345 921.041 231.219 920.733 231.116C920.435 231.004 919.987 230.883 919.389 230.752C918.577 230.575 917.999 230.318 917.653 229.982C917.317 229.646 917.149 229.212 917.149 228.68C917.149 228.325 917.252 227.989 917.457 227.672C917.672 227.345 917.98 227.084 918.381 226.888C918.792 226.683 919.282 226.58 919.851 226.58C920.449 226.58 920.957 226.678 921.377 226.874C921.797 227.07 922.11 227.303 922.315 227.574C922.53 227.835 922.637 228.055 922.637 228.232C922.637 228.316 922.605 228.386 922.539 228.442C922.483 228.498 922.413 228.526 922.329 228.526H921.741C921.629 228.526 921.536 228.479 921.461 228.386C921.312 228.209 921.181 228.073 921.069 227.98C920.967 227.877 920.813 227.789 920.607 227.714C920.411 227.639 920.159 227.602 919.851 227.602C919.403 227.602 919.058 227.7 918.815 227.896C918.573 228.083 918.451 228.33 918.451 228.638C918.451 228.834 918.503 229.002 918.605 229.142C918.708 229.273 918.904 229.394 919.193 229.506C919.492 229.618 919.921 229.735 920.481 229.856C921.368 230.043 921.993 230.313 922.357 230.668C922.731 231.013 922.917 231.457 922.917 231.998C922.917 232.399 922.801 232.763 922.567 233.09C922.334 233.417 921.989 233.673 921.531 233.86C921.083 234.047 920.547 234.14 919.921 234.14Z" fill="#FCFCFC"/>
<rect x="784" y="184.074" width="13.8555" height="13.8512" rx="4" fill="#EA4335"/>
<path d="M810.223 196.14C809.449 196.14 808.777 196.019 808.207 195.776C807.647 195.533 807.218 195.216 806.919 194.824C806.621 194.423 806.462 193.993 806.443 193.536C806.443 193.461 806.471 193.396 806.527 193.34C806.593 193.275 806.667 193.242 806.751 193.242H807.465C807.643 193.242 807.764 193.335 807.829 193.522C807.913 193.914 808.151 194.25 808.543 194.53C808.945 194.81 809.505 194.95 810.223 194.95C810.998 194.95 811.581 194.815 811.973 194.544C812.365 194.264 812.561 193.877 812.561 193.382C812.561 193.065 812.463 192.808 812.267 192.612C812.081 192.416 811.801 192.243 811.427 192.094C811.054 191.945 810.494 191.758 809.747 191.534C809.019 191.329 808.441 191.109 808.011 190.876C807.582 190.643 807.26 190.353 807.045 190.008C806.831 189.663 806.723 189.229 806.723 188.706C806.723 188.202 806.859 187.749 807.129 187.348C807.409 186.947 807.806 186.634 808.319 186.41C808.833 186.177 809.444 186.06 810.153 186.06C810.881 186.06 811.507 186.191 812.029 186.452C812.552 186.704 812.949 187.026 813.219 187.418C813.49 187.81 813.635 188.202 813.653 188.594C813.653 188.669 813.625 188.734 813.569 188.79C813.523 188.846 813.453 188.874 813.359 188.874H812.617C812.421 188.874 812.3 188.785 812.253 188.608C812.197 188.216 811.978 187.894 811.595 187.642C811.213 187.381 810.732 187.25 810.153 187.25C809.519 187.25 809.019 187.371 808.655 187.614C808.291 187.857 808.109 188.216 808.109 188.692C808.109 189.009 808.193 189.271 808.361 189.476C808.539 189.681 808.805 189.863 809.159 190.022C809.514 190.171 810.032 190.344 810.713 190.54C811.507 190.755 812.132 190.979 812.589 191.212C813.047 191.436 813.387 191.721 813.611 192.066C813.835 192.402 813.947 192.831 813.947 193.354C813.947 194.222 813.611 194.903 812.939 195.398C812.267 195.893 811.362 196.14 810.223 196.14ZM819.212 196.14C818.251 196.14 817.481 195.846 816.902 195.258C816.333 194.661 816.02 193.849 815.964 192.822L815.95 192.346L815.964 191.884C816.03 190.876 816.347 190.073 816.916 189.476C817.495 188.879 818.256 188.58 819.198 188.58C820.234 188.58 821.037 188.911 821.606 189.574C822.176 190.227 822.46 191.114 822.46 192.234V192.472C822.46 192.565 822.428 192.645 822.362 192.71C822.306 192.766 822.232 192.794 822.138 192.794H817.294V192.92C817.322 193.527 817.504 194.045 817.84 194.474C818.186 194.894 818.638 195.104 819.198 195.104C819.628 195.104 819.978 195.02 820.248 194.852C820.528 194.675 820.734 194.493 820.864 194.306C820.948 194.194 821.009 194.129 821.046 194.11C821.093 194.082 821.172 194.068 821.284 194.068H821.97C822.054 194.068 822.124 194.091 822.18 194.138C822.236 194.185 822.264 194.25 822.264 194.334C822.264 194.539 822.134 194.787 821.872 195.076C821.62 195.365 821.261 195.617 820.794 195.832C820.337 196.037 819.81 196.14 819.212 196.14ZM821.13 191.828V191.786C821.13 191.142 820.953 190.619 820.598 190.218C820.253 189.807 819.786 189.602 819.198 189.602C818.61 189.602 818.144 189.807 817.798 190.218C817.462 190.619 817.294 191.142 817.294 191.786V191.828H821.13ZM827.746 196.14C826.785 196.14 826.015 195.846 825.436 195.258C824.867 194.661 824.554 193.849 824.498 192.822L824.484 192.346L824.498 191.884C824.564 190.876 824.881 190.073 825.45 189.476C826.029 188.879 826.79 188.58 827.732 188.58C828.768 188.58 829.571 188.911 830.14 189.574C830.71 190.227 830.994 191.114 830.994 192.234V192.472C830.994 192.565 830.962 192.645 830.896 192.71C830.84 192.766 830.766 192.794 830.672 192.794H825.828V192.92C825.856 193.527 826.038 194.045 826.374 194.474C826.72 194.894 827.172 195.104 827.732 195.104C828.162 195.104 828.512 195.02 828.782 194.852C829.062 194.675 829.268 194.493 829.398 194.306C829.482 194.194 829.543 194.129 829.58 194.11C829.627 194.082 829.706 194.068 829.818 194.068H830.504C830.588 194.068 830.658 194.091 830.714 194.138C830.77 194.185 830.798 194.25 830.798 194.334C830.798 194.539 830.668 194.787 830.406 195.076C830.154 195.365 829.795 195.617 829.328 195.832C828.871 196.037 828.344 196.14 827.746 196.14ZM829.664 191.828V191.786C829.664 191.142 829.487 190.619 829.132 190.218C828.787 189.807 828.32 189.602 827.732 189.602C827.144 189.602 826.678 189.807 826.332 190.218C825.996 190.619 825.828 191.142 825.828 191.786V191.828H829.664ZM836.028 196.14C835.058 196.14 834.325 195.823 833.83 195.188C833.336 194.553 833.074 193.751 833.046 192.78L833.032 192.36L833.046 191.94C833.074 190.979 833.336 190.181 833.83 189.546C834.325 188.902 835.058 188.58 836.028 188.58C836.99 188.58 837.746 188.921 838.296 189.602V186.382C838.296 186.289 838.324 186.214 838.38 186.158C838.446 186.093 838.525 186.06 838.618 186.06H839.29C839.384 186.06 839.458 186.093 839.514 186.158C839.58 186.214 839.612 186.289 839.612 186.382V195.678C839.612 195.771 839.58 195.851 839.514 195.916C839.458 195.972 839.384 196 839.29 196H838.66C838.567 196 838.488 195.972 838.422 195.916C838.366 195.851 838.338 195.771 838.338 195.678V195.09C837.797 195.79 837.027 196.14 836.028 196.14ZM836.322 195.006C836.966 195.006 837.447 194.796 837.764 194.376C838.091 193.947 838.268 193.438 838.296 192.85C838.306 192.747 838.31 192.57 838.31 192.318C838.31 192.057 838.306 191.875 838.296 191.772C838.278 191.221 838.1 190.741 837.764 190.33C837.428 189.919 836.948 189.714 836.322 189.714C835.66 189.714 835.174 189.919 834.866 190.33C834.568 190.741 834.404 191.282 834.376 191.954L834.362 192.36C834.362 194.124 835.016 195.006 836.322 195.006ZM849.858 196.14C849.084 196.14 848.412 196.019 847.842 195.776C847.282 195.533 846.853 195.216 846.554 194.824C846.256 194.423 846.097 193.993 846.078 193.536C846.078 193.461 846.106 193.396 846.162 193.34C846.228 193.275 846.302 193.242 846.386 193.242H847.1C847.278 193.242 847.399 193.335 847.464 193.522C847.548 193.914 847.786 194.25 848.178 194.53C848.58 194.81 849.14 194.95 849.858 194.95C850.633 194.95 851.216 194.815 851.608 194.544C852 194.264 852.196 193.877 852.196 193.382C852.196 193.065 852.098 192.808 851.902 192.612C851.716 192.416 851.436 192.243 851.062 192.094C850.689 191.945 850.129 191.758 849.382 191.534C848.654 191.329 848.076 191.109 847.646 190.876C847.217 190.643 846.895 190.353 846.68 190.008C846.466 189.663 846.358 189.229 846.358 188.706C846.358 188.202 846.494 187.749 846.764 187.348C847.044 186.947 847.441 186.634 847.954 186.41C848.468 186.177 849.079 186.06 849.788 186.06C850.516 186.06 851.142 186.191 851.664 186.452C852.187 186.704 852.584 187.026 852.854 187.418C853.125 187.81 853.27 188.202 853.288 188.594C853.288 188.669 853.26 188.734 853.204 188.79C853.158 188.846 853.088 188.874 852.994 188.874H852.252C852.056 188.874 851.935 188.785 851.888 188.608C851.832 188.216 851.613 187.894 851.23 187.642C850.848 187.381 850.367 187.25 849.788 187.25C849.154 187.25 848.654 187.371 848.29 187.614C847.926 187.857 847.744 188.216 847.744 188.692C847.744 189.009 847.828 189.271 847.996 189.476C848.174 189.681 848.44 189.863 848.794 190.022C849.149 190.171 849.667 190.344 850.348 190.54C851.142 190.755 851.767 190.979 852.224 191.212C852.682 191.436 853.022 191.721 853.246 192.066C853.47 192.402 853.582 192.831 853.582 193.354C853.582 194.222 853.246 194.903 852.574 195.398C851.902 195.893 850.997 196.14 849.858 196.14ZM857.965 196.14C857.508 196.14 857.083 196.047 856.691 195.86C856.299 195.673 855.987 195.421 855.753 195.104C855.529 194.777 855.417 194.418 855.417 194.026C855.417 193.41 855.669 192.906 856.173 192.514C856.687 192.113 857.377 191.851 858.245 191.73L860.331 191.436V191.03C860.331 190.078 859.785 189.602 858.693 189.602C858.283 189.602 857.947 189.691 857.685 189.868C857.424 190.036 857.228 190.237 857.097 190.47C857.069 190.554 857.032 190.615 856.985 190.652C856.948 190.689 856.892 190.708 856.817 190.708H856.215C856.131 190.708 856.057 190.68 855.991 190.624C855.935 190.559 855.907 190.484 855.907 190.4C855.917 190.176 856.019 189.924 856.215 189.644C856.421 189.355 856.733 189.107 857.153 188.902C857.573 188.687 858.091 188.58 858.707 188.58C859.753 188.58 860.504 188.827 860.961 189.322C861.419 189.807 861.647 190.414 861.647 191.142V195.678C861.647 195.771 861.615 195.851 861.549 195.916C861.493 195.972 861.419 196 861.325 196H860.681C860.588 196 860.509 195.972 860.443 195.916C860.387 195.851 860.359 195.771 860.359 195.678V195.076C860.154 195.375 859.855 195.627 859.463 195.832C859.071 196.037 858.572 196.14 857.965 196.14ZM858.259 195.09C858.866 195.09 859.361 194.894 859.743 194.502C860.135 194.101 860.331 193.527 860.331 192.78V192.388L858.707 192.626C858.045 192.719 857.545 192.878 857.209 193.102C856.873 193.317 856.705 193.592 856.705 193.928C856.705 194.301 856.859 194.591 857.167 194.796C857.475 194.992 857.839 195.09 858.259 195.09ZM864.696 196C864.602 196 864.523 195.972 864.458 195.916C864.402 195.851 864.374 195.771 864.374 195.678V186.382C864.374 186.289 864.402 186.214 864.458 186.158C864.523 186.093 864.602 186.06 864.696 186.06H865.354C865.447 186.06 865.522 186.093 865.578 186.158C865.643 186.214 865.676 186.289 865.676 186.382V195.678C865.676 195.771 865.643 195.851 865.578 195.916C865.522 195.972 865.447 196 865.354 196H864.696ZM871.376 196.14C870.415 196.14 869.645 195.846 869.066 195.258C868.497 194.661 868.184 193.849 868.128 192.822L868.114 192.346L868.128 191.884C868.193 190.876 868.511 190.073 869.08 189.476C869.659 188.879 870.419 188.58 871.362 188.58C872.398 188.58 873.201 188.911 873.77 189.574C874.339 190.227 874.624 191.114 874.624 192.234V192.472C874.624 192.565 874.591 192.645 874.526 192.71C874.47 192.766 874.395 192.794 874.302 192.794H869.458V192.92C869.486 193.527 869.668 194.045 870.004 194.474C870.349 194.894 870.802 195.104 871.362 195.104C871.791 195.104 872.141 195.02 872.412 194.852C872.692 194.675 872.897 194.493 873.028 194.306C873.112 194.194 873.173 194.129 873.21 194.11C873.257 194.082 873.336 194.068 873.448 194.068H874.134C874.218 194.068 874.288 194.091 874.344 194.138C874.4 194.185 874.428 194.25 874.428 194.334C874.428 194.539 874.297 194.787 874.036 195.076C873.784 195.365 873.425 195.617 872.958 195.832C872.501 196.037 871.973 196.14 871.376 196.14ZM873.294 191.828V191.786C873.294 191.142 873.117 190.619 872.762 190.218C872.417 189.807 871.95 189.602 871.362 189.602C870.774 189.602 870.307 189.807 869.962 190.218C869.626 190.619 869.458 191.142 869.458 191.786V191.828H873.294Z" fill="#FCFCFC"/>
<rect x="784" y="146.074" width="13.8555" height="13.8512" rx="4" fill="#FBBC04"/>
<path d="M809.537 158C809.444 158 809.365 157.972 809.299 157.916C809.243 157.851 809.215 157.771 809.215 157.678V149.446H806.527C806.434 149.446 806.355 149.418 806.289 149.362C806.233 149.297 806.205 149.217 806.205 149.124V148.536C806.205 148.443 806.233 148.363 806.289 148.298C806.355 148.233 806.434 148.2 806.527 148.2H813.275C813.378 148.2 813.457 148.233 813.513 148.298C813.579 148.354 813.611 148.433 813.611 148.536V149.124C813.611 149.217 813.579 149.297 813.513 149.362C813.448 149.418 813.369 149.446 813.275 149.446H810.601V157.678C810.601 157.771 810.569 157.851 810.503 157.916C810.438 157.972 810.359 158 810.265 158H809.537ZM817.271 158.14C816.31 158.14 815.54 157.846 814.961 157.258C814.392 156.661 814.079 155.849 814.023 154.822L814.009 154.346L814.023 153.884C814.088 152.876 814.406 152.073 814.975 151.476C815.554 150.879 816.314 150.58 817.257 150.58C818.293 150.58 819.096 150.911 819.665 151.574C820.234 152.227 820.519 153.114 820.519 154.234V154.472C820.519 154.565 820.486 154.645 820.421 154.71C820.365 154.766 820.29 154.794 820.197 154.794H815.353V154.92C815.381 155.527 815.563 156.045 815.899 156.474C816.244 156.894 816.697 157.104 817.257 157.104C817.686 157.104 818.036 157.02 818.307 156.852C818.587 156.675 818.792 156.493 818.923 156.306C819.007 156.194 819.068 156.129 819.105 156.11C819.152 156.082 819.231 156.068 819.343 156.068H820.029C820.113 156.068 820.183 156.091 820.239 156.138C820.295 156.185 820.323 156.25 820.323 156.334C820.323 156.539 820.192 156.787 819.931 157.076C819.679 157.365 819.32 157.617 818.853 157.832C818.396 158.037 817.868 158.14 817.271 158.14ZM819.189 153.828V153.786C819.189 153.142 819.012 152.619 818.657 152.218C818.312 151.807 817.845 151.602 817.257 151.602C816.669 151.602 816.202 151.807 815.857 152.218C815.521 152.619 815.353 153.142 815.353 153.786V153.828H819.189ZM824.923 158.14C824.466 158.14 824.041 158.047 823.649 157.86C823.257 157.673 822.944 157.421 822.711 157.104C822.487 156.777 822.375 156.418 822.375 156.026C822.375 155.41 822.627 154.906 823.131 154.514C823.644 154.113 824.335 153.851 825.203 153.73L827.289 153.436V153.03C827.289 152.078 826.743 151.602 825.651 151.602C825.24 151.602 824.904 151.691 824.643 151.868C824.382 152.036 824.186 152.237 824.055 152.47C824.027 152.554 823.99 152.615 823.943 152.652C823.906 152.689 823.85 152.708 823.775 152.708H823.173C823.089 152.708 823.014 152.68 822.949 152.624C822.893 152.559 822.865 152.484 822.865 152.4C822.874 152.176 822.977 151.924 823.173 151.644C823.378 151.355 823.691 151.107 824.111 150.902C824.531 150.687 825.049 150.58 825.665 150.58C826.71 150.58 827.462 150.827 827.919 151.322C828.376 151.807 828.605 152.414 828.605 153.142V157.678C828.605 157.771 828.572 157.851 828.507 157.916C828.451 157.972 828.376 158 828.283 158H827.639C827.546 158 827.466 157.972 827.401 157.916C827.345 157.851 827.317 157.771 827.317 157.678V157.076C827.112 157.375 826.813 157.627 826.421 157.832C826.029 158.037 825.53 158.14 824.923 158.14ZM825.217 157.09C825.824 157.09 826.318 156.894 826.701 156.502C827.093 156.101 827.289 155.527 827.289 154.78V154.388L825.665 154.626C825.002 154.719 824.503 154.878 824.167 155.102C823.831 155.317 823.663 155.592 823.663 155.928C823.663 156.301 823.817 156.591 824.125 156.796C824.433 156.992 824.797 157.09 825.217 157.09ZM831.64 158C831.546 158 831.467 157.972 831.402 157.916C831.346 157.851 831.318 157.771 831.318 157.678V151.042C831.318 150.949 831.346 150.874 831.402 150.818C831.467 150.753 831.546 150.72 831.64 150.72H832.27C832.363 150.72 832.438 150.753 832.494 150.818C832.559 150.874 832.592 150.949 832.592 151.042V151.532C833.077 150.897 833.754 150.58 834.622 150.58C835.658 150.58 836.39 151.009 836.82 151.868C837.044 151.476 837.361 151.163 837.772 150.93C838.182 150.697 838.644 150.58 839.158 150.58C839.923 150.58 840.548 150.841 841.034 151.364C841.519 151.887 841.762 152.643 841.762 153.632V157.678C841.762 157.771 841.729 157.851 841.664 157.916C841.608 157.972 841.533 158 841.44 158H840.782C840.688 158 840.609 157.972 840.544 157.916C840.488 157.851 840.46 157.771 840.46 157.678V153.758C840.46 153.03 840.306 152.507 839.998 152.19C839.699 151.873 839.302 151.714 838.808 151.714C838.369 151.714 837.991 151.877 837.674 152.204C837.356 152.521 837.198 153.039 837.198 153.758V157.678C837.198 157.771 837.165 157.851 837.1 157.916C837.044 157.972 836.969 158 836.876 158H836.218C836.124 158 836.045 157.972 835.98 157.916C835.924 157.851 835.896 157.771 835.896 157.678V153.758C835.896 153.03 835.737 152.507 835.42 152.19C835.112 151.873 834.72 151.714 834.244 151.714C833.805 151.714 833.427 151.877 833.11 152.204C832.792 152.521 832.634 153.035 832.634 153.744V157.678C832.634 157.771 832.601 157.851 832.536 157.916C832.48 157.972 832.405 158 832.312 158H831.64Z" fill="#FCFCFC"/>
<rect x="784" y="108.074" width="13.8555" height="13.8512" rx="4" fill="#34A853"/>
<path d="M807.395 120C807.302 120 807.223 119.972 807.157 119.916C807.101 119.851 807.073 119.771 807.073 119.678V110.536C807.073 110.433 807.101 110.354 807.157 110.298C807.223 110.233 807.302 110.2 807.395 110.2H810.573C811.983 110.2 813 110.517 813.625 111.152C814.251 111.777 814.577 112.725 814.605 113.994C814.615 114.265 814.619 114.629 814.619 115.086C814.619 115.543 814.615 115.912 814.605 116.192C814.577 117.079 814.428 117.802 814.157 118.362C813.896 118.913 813.481 119.323 812.911 119.594C812.342 119.865 811.586 120 810.643 120H807.395ZM810.573 118.81C811.217 118.81 811.726 118.721 812.099 118.544C812.482 118.367 812.757 118.087 812.925 117.704C813.103 117.312 813.201 116.789 813.219 116.136C813.238 115.576 813.247 115.226 813.247 115.086C813.247 114.937 813.238 114.591 813.219 114.05C813.201 113.126 812.981 112.454 812.561 112.034C812.141 111.605 811.455 111.39 810.503 111.39H808.445V118.81H810.573ZM816.604 120C816.529 120 816.464 119.972 816.408 119.916C816.352 119.86 816.324 119.795 816.324 119.72C816.324 119.645 816.328 119.594 816.338 119.566L819.81 110.508C819.884 110.303 820.034 110.2 820.258 110.2H821.21C821.434 110.2 821.583 110.303 821.658 110.508L825.116 119.566L825.144 119.72C825.144 119.795 825.116 119.86 825.06 119.916C825.004 119.972 824.938 120 824.864 120H824.15C824.047 120 823.968 119.977 823.912 119.93C823.856 119.874 823.818 119.818 823.8 119.762L823.03 117.774H818.438L817.668 119.762C817.649 119.818 817.607 119.874 817.542 119.93C817.486 119.977 817.411 120 817.318 120H816.604ZM822.624 116.57L820.734 111.6L818.844 116.57H822.624ZM830.691 120.14C829.468 120.14 828.521 119.823 827.849 119.188C827.186 118.544 826.836 117.578 826.799 116.29C826.79 116.01 826.785 115.613 826.785 115.1C826.785 114.587 826.79 114.195 826.799 113.924C826.836 112.664 827.2 111.707 827.891 111.054C828.582 110.391 829.515 110.06 830.691 110.06C831.858 110.06 832.786 110.391 833.477 111.054C834.168 111.707 834.532 112.664 834.569 113.924C834.588 114.465 834.597 114.857 834.597 115.1C834.597 115.333 834.588 115.73 834.569 116.29C834.532 117.578 834.177 118.544 833.505 119.188C832.842 119.823 831.904 120.14 830.691 120.14ZM830.691 118.95C831.428 118.95 832.016 118.726 832.455 118.278C832.894 117.83 833.132 117.144 833.169 116.22C833.188 115.66 833.197 115.287 833.197 115.1C833.197 114.895 833.188 114.521 833.169 113.98C833.132 113.056 832.889 112.37 832.441 111.922C832.002 111.474 831.419 111.25 830.691 111.25C829.954 111.25 829.361 111.474 828.913 111.922C828.474 112.37 828.236 113.056 828.199 113.98C828.19 114.251 828.185 114.624 828.185 115.1C828.185 115.567 828.19 115.94 828.199 116.22C828.236 117.144 828.474 117.83 828.913 118.278C829.361 118.726 829.954 118.95 830.691 118.95ZM844.269 120.14C843.635 120.14 843.07 120.023 842.575 119.79C842.09 119.557 841.712 119.23 841.441 118.81C841.171 118.39 841.035 117.914 841.035 117.382C841.035 116.794 841.208 116.295 841.553 115.884C841.899 115.464 842.384 115.072 843.009 114.708C842.571 114.241 842.258 113.835 842.071 113.49C841.894 113.135 841.805 112.762 841.805 112.37C841.805 111.95 841.913 111.567 842.127 111.222C842.342 110.867 842.65 110.587 843.051 110.382C843.453 110.167 843.91 110.06 844.423 110.06C844.927 110.06 845.375 110.163 845.767 110.368C846.159 110.564 846.463 110.839 846.677 111.194C846.892 111.539 846.999 111.927 846.999 112.356C846.999 112.925 846.817 113.401 846.453 113.784C846.089 114.167 845.562 114.554 844.871 114.946L847.251 117.284C847.625 116.659 847.877 115.949 848.007 115.156C848.017 115.072 848.045 115.007 848.091 114.96C848.147 114.904 848.217 114.876 848.301 114.876H848.917C849.001 114.876 849.071 114.904 849.127 114.96C849.183 115.016 849.211 115.086 849.211 115.17C849.202 115.581 849.095 116.052 848.889 116.584C848.693 117.107 848.423 117.611 848.077 118.096L849.505 119.524C849.589 119.608 849.631 119.678 849.631 119.734C849.631 119.911 849.538 120 849.351 120H848.567C848.39 120 848.264 119.953 848.189 119.86L847.265 118.95C846.453 119.743 845.455 120.14 844.269 120.14ZM844.101 114.134C844.661 113.826 845.081 113.546 845.361 113.294C845.641 113.042 845.781 112.734 845.781 112.37C845.781 112.006 845.651 111.712 845.389 111.488C845.128 111.255 844.806 111.138 844.423 111.138C844.05 111.138 843.728 111.255 843.457 111.488C843.196 111.712 843.065 112.011 843.065 112.384C843.065 112.636 843.135 112.888 843.275 113.14C843.425 113.383 843.7 113.714 844.101 114.134ZM844.269 119.02C844.652 119.02 845.03 118.941 845.403 118.782C845.777 118.623 846.117 118.39 846.425 118.082L843.807 115.534C843.331 115.805 842.963 116.08 842.701 116.36C842.449 116.64 842.323 116.971 842.323 117.354C842.323 117.867 842.515 118.273 842.897 118.572C843.28 118.871 843.737 119.02 844.269 119.02ZM856.344 120C856.25 120 856.171 119.972 856.106 119.916C856.05 119.851 856.022 119.771 856.022 119.678V110.536C856.022 110.433 856.05 110.354 856.106 110.298C856.171 110.233 856.25 110.2 856.344 110.2H859.76C860.833 110.2 861.673 110.452 862.28 110.956C862.886 111.46 863.19 112.188 863.19 113.14C863.19 113.849 863.012 114.433 862.658 114.89C862.312 115.347 861.822 115.665 861.188 115.842L863.344 119.566C863.372 119.622 863.386 119.673 863.386 119.72C863.386 119.795 863.353 119.86 863.288 119.916C863.232 119.972 863.166 120 863.092 120H862.42C862.28 120 862.168 119.967 862.084 119.902C862.009 119.837 861.939 119.743 861.874 119.622L859.844 116.066H857.394V119.678C857.394 119.771 857.361 119.851 857.296 119.916C857.23 119.972 857.151 120 857.058 120H856.344ZM859.704 114.876C861.094 114.876 861.79 114.293 861.79 113.126C861.79 111.959 861.094 111.376 859.704 111.376H857.394V114.876H859.704ZM868.543 120.14C867.582 120.14 866.812 119.846 866.233 119.258C865.664 118.661 865.351 117.849 865.295 116.822L865.281 116.346L865.295 115.884C865.361 114.876 865.678 114.073 866.247 113.476C866.826 112.879 867.587 112.58 868.529 112.58C869.565 112.58 870.368 112.911 870.937 113.574C871.507 114.227 871.791 115.114 871.791 116.234V116.472C871.791 116.565 871.759 116.645 871.693 116.71C871.637 116.766 871.563 116.794 871.469 116.794H866.625V116.92C866.653 117.527 866.835 118.045 867.171 118.474C867.517 118.894 867.969 119.104 868.529 119.104C868.959 119.104 869.309 119.02 869.579 118.852C869.859 118.675 870.065 118.493 870.195 118.306C870.279 118.194 870.34 118.129 870.377 118.11C870.424 118.082 870.503 118.068 870.615 118.068H871.301C871.385 118.068 871.455 118.091 871.511 118.138C871.567 118.185 871.595 118.25 871.595 118.334C871.595 118.539 871.465 118.787 871.203 119.076C870.951 119.365 870.592 119.617 870.125 119.832C869.668 120.037 869.141 120.14 868.543 120.14ZM870.461 115.828V115.786C870.461 115.142 870.284 114.619 869.929 114.218C869.584 113.807 869.117 113.602 868.529 113.602C867.941 113.602 867.475 113.807 867.129 114.218C866.793 114.619 866.625 115.142 866.625 115.786V115.828H870.461ZM875.906 120C875.785 120 875.691 119.972 875.626 119.916C875.561 119.86 875.505 119.771 875.458 119.65L873.47 113.154L873.442 113.014C873.442 112.93 873.47 112.86 873.526 112.804C873.591 112.748 873.661 112.72 873.736 112.72H874.352C874.445 112.72 874.52 112.748 874.576 112.804C874.641 112.851 874.683 112.902 874.702 112.958L876.256 118.236L877.922 113.014C877.941 112.939 877.983 112.874 878.048 112.818C878.113 112.753 878.202 112.72 878.314 112.72H878.79C878.902 112.72 878.991 112.753 879.056 112.818C879.121 112.874 879.163 112.939 879.182 113.014L880.848 118.236L882.402 112.958C882.411 112.911 882.444 112.86 882.5 112.804C882.565 112.748 882.645 112.72 882.738 112.72H883.368C883.443 112.72 883.508 112.748 883.564 112.804C883.62 112.86 883.648 112.93 883.648 113.014L883.62 113.154L881.646 119.65C881.599 119.771 881.543 119.86 881.478 119.916C881.413 119.972 881.315 120 881.184 120H880.638C880.386 120 880.232 119.883 880.176 119.65L878.552 114.638L876.928 119.65C876.853 119.883 876.695 120 876.452 120H875.906ZM887.723 120.14C887.266 120.14 886.841 120.047 886.449 119.86C886.057 119.673 885.745 119.421 885.511 119.104C885.287 118.777 885.175 118.418 885.175 118.026C885.175 117.41 885.427 116.906 885.931 116.514C886.445 116.113 887.135 115.851 888.003 115.73L890.089 115.436V115.03C890.089 114.078 889.543 113.602 888.451 113.602C888.041 113.602 887.705 113.691 887.443 113.868C887.182 114.036 886.986 114.237 886.855 114.47C886.827 114.554 886.79 114.615 886.743 114.652C886.706 114.689 886.65 114.708 886.575 114.708H885.973C885.889 114.708 885.815 114.68 885.749 114.624C885.693 114.559 885.665 114.484 885.665 114.4C885.675 114.176 885.777 113.924 885.973 113.644C886.179 113.355 886.491 113.107 886.911 112.902C887.331 112.687 887.849 112.58 888.465 112.58C889.511 112.58 890.262 112.827 890.719 113.322C891.177 113.807 891.405 114.414 891.405 115.142V119.678C891.405 119.771 891.373 119.851 891.307 119.916C891.251 119.972 891.177 120 891.083 120H890.439C890.346 120 890.267 119.972 890.201 119.916C890.145 119.851 890.117 119.771 890.117 119.678V119.076C889.912 119.375 889.613 119.627 889.221 119.832C888.829 120.037 888.33 120.14 887.723 120.14ZM888.017 119.09C888.624 119.09 889.119 118.894 889.501 118.502C889.893 118.101 890.089 117.527 890.089 116.78V116.388L888.465 116.626C887.803 116.719 887.303 116.878 886.967 117.102C886.631 117.317 886.463 117.592 886.463 117.928C886.463 118.301 886.617 118.591 886.925 118.796C887.233 118.992 887.597 119.09 888.017 119.09ZM894.44 120C894.347 120 894.267 119.972 894.202 119.916C894.146 119.851 894.118 119.771 894.118 119.678V113.056C894.118 112.963 894.146 112.883 894.202 112.818C894.267 112.753 894.347 112.72 894.44 112.72H895.084C895.177 112.72 895.257 112.753 895.322 112.818C895.387 112.883 895.42 112.963 895.42 113.056V113.672C895.803 113.037 896.456 112.72 897.38 112.72H897.926C898.019 112.72 898.094 112.753 898.15 112.818C898.215 112.874 898.248 112.949 898.248 113.042V113.616C898.248 113.709 898.215 113.784 898.15 113.84C898.094 113.896 898.019 113.924 897.926 113.924H897.086C896.582 113.924 896.185 114.073 895.896 114.372C895.607 114.661 895.462 115.058 895.462 115.562V119.678C895.462 119.771 895.429 119.851 895.364 119.916C895.299 119.972 895.219 120 895.126 120H894.44ZM902.646 120.14C901.675 120.14 900.943 119.823 900.448 119.188C899.953 118.553 899.692 117.751 899.664 116.78L899.65 116.36L899.664 115.94C899.692 114.979 899.953 114.181 900.448 113.546C900.943 112.902 901.675 112.58 902.646 112.58C903.607 112.58 904.363 112.921 904.914 113.602V110.382C904.914 110.289 904.942 110.214 904.998 110.158C905.063 110.093 905.143 110.06 905.236 110.06H905.908C906.001 110.06 906.076 110.093 906.132 110.158C906.197 110.214 906.23 110.289 906.23 110.382V119.678C906.23 119.771 906.197 119.851 906.132 119.916C906.076 119.972 906.001 120 905.908 120H905.278C905.185 120 905.105 119.972 905.04 119.916C904.984 119.851 904.956 119.771 904.956 119.678V119.09C904.415 119.79 903.645 120.14 902.646 120.14ZM902.94 119.006C903.584 119.006 904.065 118.796 904.382 118.376C904.709 117.947 904.886 117.438 904.914 116.85C904.923 116.747 904.928 116.57 904.928 116.318C904.928 116.057 904.923 115.875 904.914 115.772C904.895 115.221 904.718 114.741 904.382 114.33C904.046 113.919 903.565 113.714 902.94 113.714C902.277 113.714 901.792 113.919 901.484 114.33C901.185 114.741 901.022 115.282 900.994 115.954L900.98 116.36C900.98 118.124 901.633 119.006 902.94 119.006ZM911.532 120.14C910.879 120.14 910.328 120.037 909.88 119.832C909.442 119.617 909.11 119.375 908.886 119.104C908.672 118.833 908.564 118.609 908.564 118.432C908.564 118.339 908.597 118.269 908.662 118.222C908.737 118.166 908.812 118.138 908.886 118.138H909.516C909.61 118.138 909.694 118.185 909.768 118.278C909.992 118.539 910.235 118.745 910.496 118.894C910.758 119.043 911.108 119.118 911.546 119.118C912.032 119.118 912.424 119.025 912.722 118.838C913.03 118.642 913.184 118.376 913.184 118.04C913.184 117.816 913.119 117.634 912.988 117.494C912.867 117.345 912.652 117.219 912.344 117.116C912.046 117.004 911.598 116.883 911 116.752C910.188 116.575 909.61 116.318 909.264 115.982C908.928 115.646 908.76 115.212 908.76 114.68C908.76 114.325 908.863 113.989 909.068 113.672C909.283 113.345 909.591 113.084 909.992 112.888C910.403 112.683 910.893 112.58 911.462 112.58C912.06 112.58 912.568 112.678 912.988 112.874C913.408 113.07 913.721 113.303 913.926 113.574C914.141 113.835 914.248 114.055 914.248 114.232C914.248 114.316 914.216 114.386 914.15 114.442C914.094 114.498 914.024 114.526 913.94 114.526H913.352C913.24 114.526 913.147 114.479 913.072 114.386C912.923 114.209 912.792 114.073 912.68 113.98C912.578 113.877 912.424 113.789 912.218 113.714C912.022 113.639 911.77 113.602 911.462 113.602C911.014 113.602 910.669 113.7 910.426 113.896C910.184 114.083 910.062 114.33 910.062 114.638C910.062 114.834 910.114 115.002 910.216 115.142C910.319 115.273 910.515 115.394 910.804 115.506C911.103 115.618 911.532 115.735 912.092 115.856C912.979 116.043 913.604 116.313 913.968 116.668C914.342 117.013 914.528 117.457 914.528 117.998C914.528 118.399 914.412 118.763 914.178 119.09C913.945 119.417 913.6 119.673 913.142 119.86C912.694 120.047 912.158 120.14 911.532 120.14Z" fill="#FCFCFC"/>
<path d="M29 8H711" stroke="#FAFAFA" stroke-opacity="0.1" stroke-linecap="round"/>
<path d="M29 86H711" stroke="#FAFAFA" stroke-opacity="0.1" stroke-linecap="round"/>
<path d="M29 164H711" stroke="#FAFAFA" stroke-opacity="0.1" stroke-linecap="round"/>
<path d="M29 242H711" stroke="#FAFAFA" stroke-opacity="0.1" stroke-linecap="round"/>
<path d="M63 8L63 319" stroke="#FAFAFA" stroke-opacity="0.1" stroke-linecap="round"/>
<path d="M173 8L173 319" stroke="#FAFAFA" stroke-opacity="0.1" stroke-linecap="round"/>
<path d="M286 8L286 319" stroke="#FAFAFA" stroke-opacity="0.1" stroke-linecap="round"/>
<path d="M396 8L396 319" stroke="#FAFAFA" stroke-opacity="0.1" stroke-linecap="round"/>
<path d="M509 8L509 319" stroke="#FAFAFA" stroke-opacity="0.1" stroke-linecap="round"/>
<path d="M619 8L619 319" stroke="#FAFAFA" stroke-opacity="0.1" stroke-linecap="round"/>
<path d="M4.96489 12.14C4.23689 12.14 3.59756 12.0233 3.04689 11.79C2.49622 11.5473 2.06689 11.202 1.75889 10.754C1.45089 10.306 1.29689 9.78333 1.29689 9.186C1.29689 8.63533 1.43222 8.15467 1.70289 7.744C1.97356 7.324 2.34222 7.002 2.80889 6.778C2.43556 6.56333 2.14622 6.28333 1.94089 5.938C1.74489 5.58333 1.64689 5.17267 1.64689 4.706C1.64689 3.88467 1.94556 3.24067 2.54289 2.774C3.14956 2.298 3.95689 2.06 4.96489 2.06C5.96356 2.06 6.76156 2.298 7.35889 2.774C7.96556 3.24067 8.26889 3.88 8.26889 4.692C8.26889 5.15867 8.16622 5.56933 7.96089 5.924C7.76489 6.26933 7.48489 6.554 7.12089 6.778C7.58756 7.002 7.95622 7.324 8.22689 7.744C8.49756 8.15467 8.63289 8.63533 8.63289 9.186C8.63289 9.78333 8.47889 10.306 8.17089 10.754C7.86289 11.202 7.42889 11.5473 6.86889 11.79C6.31822 12.0233 5.68356 12.14 4.96489 12.14ZM4.96489 6.274C5.52489 6.26467 5.99622 6.12 6.37889 5.84C6.76156 5.56 6.95289 5.19133 6.95289 4.734C6.95289 4.26733 6.76156 3.894 6.37889 3.614C6.00556 3.32467 5.53422 3.18 4.96489 3.18C4.38622 3.18 3.90556 3.32 3.52289 3.6C3.14956 3.88 2.96289 4.258 2.96289 4.734C2.96289 5.20067 3.14956 5.574 3.52289 5.854C3.90556 6.134 4.38622 6.274 4.96489 6.274ZM4.96489 11.02C5.61822 11.02 6.16422 10.852 6.60289 10.516C7.04156 10.18 7.26089 9.73667 7.26089 9.186C7.26089 8.63533 7.04156 8.19667 6.60289 7.87C6.16422 7.54333 5.61822 7.38 4.96489 7.38C4.30222 7.38 3.75156 7.54333 3.31289 7.87C2.87422 8.19667 2.65489 8.63533 2.65489 9.186C2.65489 9.73667 2.87422 10.18 3.31289 10.516C3.75156 10.852 4.30222 11.02 4.96489 11.02ZM14.5513 12.14C13.3473 12.14 12.4653 11.79 11.9053 11.09C11.3453 10.39 11.0466 9.47067 11.0093 8.332C10.9999 8.08 10.9953 7.674 10.9953 7.114C10.9953 6.53533 10.9999 6.11533 11.0093 5.854C11.0373 4.734 11.3359 3.824 11.9053 3.124C12.4746 2.41467 13.3566 2.06 14.5513 2.06C15.7553 2.06 16.6419 2.41467 17.2113 3.124C17.7806 3.824 18.0793 4.734 18.1073 5.854C18.1259 6.37667 18.1353 6.79667 18.1353 7.114C18.1353 7.422 18.1259 7.828 18.1073 8.332C18.0699 9.47067 17.7713 10.39 17.2113 11.09C16.6513 11.79 15.7646 12.14 14.5513 12.14ZM14.5513 10.936C15.2513 10.936 15.7786 10.7027 16.1333 10.236C16.4973 9.76933 16.6886 9.11133 16.7073 8.262C16.7259 7.72067 16.7353 7.32867 16.7353 7.086C16.7353 6.82467 16.7259 6.442 16.7073 5.938C16.6886 5.098 16.5019 4.44 16.1473 3.964C15.7926 3.488 15.2606 3.25 14.5513 3.25C13.8513 3.25 13.3193 3.488 12.9553 3.964C12.6006 4.44 12.4139 5.098 12.3953 5.938L12.3813 7.086L12.3953 8.262C12.4139 9.11133 12.6006 9.76933 12.9553 10.236C13.3193 10.7027 13.8513 10.936 14.5513 10.936Z" fill="#FCFCFC"/>
<path d="M5.28973 90.14C4.54307 90.14 3.8944 89.9907 3.34373 89.692C2.79307 89.384 2.37307 88.9733 2.08373 88.46C1.7944 87.9467 1.64973 87.3867 1.64973 86.78C1.64973 86.2853 1.74773 85.8187 1.94373 85.38C2.14907 84.932 2.37773 84.5353 2.62973 84.19L5.28973 80.48C5.29907 80.4707 5.32707 80.438 5.37373 80.382C5.41107 80.326 5.4624 80.284 5.52773 80.256C5.59307 80.2187 5.66773 80.2 5.75173 80.2H6.49373C6.57773 80.2 6.64307 80.2327 6.68973 80.298C6.74573 80.354 6.77373 80.424 6.77373 80.508C6.77373 80.5733 6.75507 80.634 6.71773 80.69L4.67373 83.546C4.87907 83.4807 5.14507 83.448 5.47173 83.448C6.14373 83.4573 6.7364 83.6113 7.24973 83.91C7.7724 84.2087 8.17373 84.61 8.45373 85.114C8.74307 85.618 8.88773 86.1687 8.88773 86.766C8.88773 87.3633 8.74307 87.9233 8.45373 88.446C8.17373 88.9593 7.7584 89.37 7.20773 89.678C6.6664 89.986 6.02707 90.14 5.28973 90.14ZM5.27573 88.95C5.67707 88.95 6.04573 88.866 6.38173 88.698C6.72707 88.53 6.99773 88.2827 7.19373 87.956C7.39907 87.62 7.50173 87.2233 7.50173 86.766C7.50173 86.318 7.39907 85.9307 7.19373 85.604C6.99773 85.2773 6.72707 85.03 6.38173 84.862C6.04573 84.694 5.67707 84.61 5.27573 84.61C4.88373 84.61 4.51507 84.694 4.16973 84.862C3.83373 85.03 3.56307 85.2773 3.35773 85.604C3.1524 85.9307 3.04973 86.318 3.04973 86.766C3.04973 87.2233 3.1524 87.62 3.35773 87.956C3.56307 88.2827 3.83373 88.53 4.16973 88.698C4.50573 88.866 4.8744 88.95 5.27573 88.95ZM14.5513 90.14C13.3473 90.14 12.4653 89.79 11.9053 89.09C11.3453 88.39 11.0466 87.4707 11.0093 86.332C10.9999 86.08 10.9953 85.674 10.9953 85.114C10.9953 84.5353 10.9999 84.1153 11.0093 83.854C11.0373 82.734 11.3359 81.824 11.9053 81.124C12.4746 80.4147 13.3566 80.06 14.5513 80.06C15.7553 80.06 16.6419 80.4147 17.2113 81.124C17.7806 81.824 18.0793 82.734 18.1073 83.854C18.1259 84.3767 18.1353 84.7967 18.1353 85.114C18.1353 85.422 18.1259 85.828 18.1073 86.332C18.0699 87.4707 17.7713 88.39 17.2113 89.09C16.6513 89.79 15.7646 90.14 14.5513 90.14ZM14.5513 88.936C15.2513 88.936 15.7786 88.7027 16.1333 88.236C16.4973 87.7693 16.6886 87.1113 16.7073 86.262C16.7259 85.7207 16.7353 85.3287 16.7353 85.086C16.7353 84.8247 16.7259 84.442 16.7073 83.938C16.6886 83.098 16.5019 82.44 16.1473 81.964C15.7926 81.488 15.2606 81.25 14.5513 81.25C13.8513 81.25 13.3193 81.488 12.9553 81.964C12.6006 82.44 12.4139 83.098 12.3953 83.938L12.3813 85.086L12.3953 86.262C12.4139 87.1113 12.6006 87.7693 12.9553 88.236C13.3193 88.7027 13.8513 88.936 14.5513 88.936Z" fill="#FCFCFC"/>
<path d="M6.33197 168C6.23864 168 6.1593 167.972 6.09397 167.916C6.03797 167.851 6.00997 167.771 6.00997 167.678V165.662H1.47397C1.38063 165.662 1.3013 165.634 1.23597 165.578C1.17997 165.513 1.15197 165.433 1.15197 165.34V164.78C1.15197 164.64 1.2033 164.5 1.30597 164.36L5.50597 158.438C5.55263 158.363 5.62263 158.307 5.71597 158.27C5.8093 158.223 5.91197 158.2 6.02397 158.2H7.03197C7.1253 158.2 7.19997 158.233 7.25597 158.298C7.3213 158.354 7.35397 158.429 7.35397 158.522V164.444H8.61397C8.7073 164.444 8.78663 164.477 8.85197 164.542C8.9173 164.598 8.94997 164.673 8.94997 164.766V165.34C8.94997 165.433 8.9173 165.513 8.85197 165.578C8.79597 165.634 8.7213 165.662 8.62797 165.662H7.35397V167.678C7.35397 167.771 7.3213 167.851 7.25597 167.916C7.19997 167.972 7.1253 168 7.03197 168H6.33197ZM6.02397 164.472V159.67L2.64997 164.472H6.02397ZM14.5513 168.14C13.3473 168.14 12.4653 167.79 11.9053 167.09C11.3453 166.39 11.0466 165.471 11.0093 164.332C10.9999 164.08 10.9953 163.674 10.9953 163.114C10.9953 162.535 10.9999 162.115 11.0093 161.854C11.0373 160.734 11.3359 159.824 11.9053 159.124C12.4746 158.415 13.3566 158.06 14.5513 158.06C15.7553 158.06 16.6419 158.415 17.2113 159.124C17.7806 159.824 18.0793 160.734 18.1073 161.854C18.1259 162.377 18.1353 162.797 18.1353 163.114C18.1353 163.422 18.1259 163.828 18.1073 164.332C18.0699 165.471 17.7713 166.39 17.2113 167.09C16.6513 167.79 15.7646 168.14 14.5513 168.14ZM14.5513 166.936C15.2513 166.936 15.7786 166.703 16.1333 166.236C16.4973 165.769 16.6886 165.111 16.7073 164.262C16.7259 163.721 16.7353 163.329 16.7353 163.086C16.7353 162.825 16.7259 162.442 16.7073 161.938C16.6886 161.098 16.5019 160.44 16.1473 159.964C15.7926 159.488 15.2606 159.25 14.5513 159.25C13.8513 159.25 13.3193 159.488 12.9553 159.964C12.6006 160.44 12.4139 161.098 12.3953 161.938L12.3813 163.086L12.3953 164.262C12.4139 165.111 12.6006 165.769 12.9553 166.236C13.3193 166.703 13.8513 166.936 14.5513 166.936Z" fill="#FCFCFC"/>
<path d="M2.20448 246C2.11115 246 2.03182 245.972 1.96648 245.916C1.91048 245.851 1.88248 245.771 1.88248 245.678V245.23C1.88248 245.015 1.99915 244.81 2.23248 244.614L5.20048 241.646C5.91915 241.049 6.41382 240.563 6.68448 240.19C6.95515 239.807 7.09048 239.406 7.09048 238.986C7.09048 238.445 6.93648 238.02 6.62848 237.712C6.32982 237.404 5.89115 237.25 5.31248 237.25C4.77115 237.25 4.33715 237.413 4.01048 237.74C3.68382 238.057 3.48315 238.482 3.40848 239.014C3.38982 239.126 3.34315 239.21 3.26848 239.266C3.20315 239.313 3.12848 239.336 3.04448 239.336H2.31648C2.23248 239.336 2.16248 239.313 2.10648 239.266C2.05048 239.21 2.02248 239.145 2.02248 239.07C2.04115 238.566 2.17648 238.085 2.42848 237.628C2.68048 237.161 3.04915 236.783 3.53448 236.494C4.02915 236.195 4.62182 236.046 5.31248 236.046C6.36715 236.046 7.16048 236.321 7.69248 236.872C8.23382 237.413 8.50448 238.104 8.50448 238.944C8.50448 239.532 8.35515 240.064 8.05648 240.54C7.76715 241.007 7.31448 241.511 6.69848 242.052L4.01048 244.782H8.37848C8.48115 244.782 8.56048 244.815 8.61648 244.88C8.68182 244.936 8.71448 245.011 8.71448 245.104V245.678C8.71448 245.771 8.68182 245.851 8.61648 245.916C8.55115 245.972 8.47182 246 8.37848 246H2.20448ZM14.5513 246.14C13.3473 246.14 12.4653 245.79 11.9053 245.09C11.3453 244.39 11.0466 243.471 11.0093 242.332C10.9999 242.08 10.9953 241.674 10.9953 241.114C10.9953 240.535 10.9999 240.115 11.0093 239.854C11.0373 238.734 11.3359 237.824 11.9053 237.124C12.4746 236.415 13.3566 236.06 14.5513 236.06C15.7553 236.06 16.6419 236.415 17.2113 237.124C17.7806 237.824 18.0793 238.734 18.1073 239.854C18.1259 240.377 18.1353 240.797 18.1353 241.114C18.1353 241.422 18.1259 241.828 18.1073 242.332C18.0699 243.471 17.7713 244.39 17.2113 245.09C16.6513 245.79 15.7646 246.14 14.5513 246.14ZM14.5513 244.936C15.2513 244.936 15.7786 244.703 16.1333 244.236C16.4973 243.769 16.6886 243.111 16.7073 242.262C16.7259 241.721 16.7353 241.329 16.7353 241.086C16.7353 240.825 16.7259 240.442 16.7073 239.938C16.6886 239.098 16.5019 238.44 16.1473 237.964C15.7926 237.488 15.2606 237.25 14.5513 237.25C13.8513 237.25 13.3193 237.488 12.9553 237.964C12.6006 238.44 12.4139 239.098 12.3953 239.938L12.3813 241.086L12.3953 242.262C12.4139 243.111 12.6006 243.769 12.9553 244.236C13.3193 244.703 13.8513 244.936 14.5513 244.936Z" fill="#FCFCFC"/>
<path d="M14.5513 324.14C13.3473 324.14 12.4653 323.79 11.9053 323.09C11.3453 322.39 11.0466 321.471 11.0093 320.332C10.9999 320.08 10.9953 319.674 10.9953 319.114C10.9953 318.535 10.9999 318.115 11.0093 317.854C11.0373 316.734 11.3359 315.824 11.9053 315.124C12.4746 314.415 13.3566 314.06 14.5513 314.06C15.7553 314.06 16.6419 314.415 17.2113 315.124C17.7806 315.824 18.0793 316.734 18.1073 317.854C18.1259 318.377 18.1353 318.797 18.1353 319.114C18.1353 319.422 18.1259 319.828 18.1073 320.332C18.0699 321.471 17.7713 322.39 17.2113 323.09C16.6513 323.79 15.7646 324.14 14.5513 324.14ZM14.5513 322.936C15.2513 322.936 15.7786 322.703 16.1333 322.236C16.4973 321.769 16.6886 321.111 16.7073 320.262C16.7259 319.721 16.7353 319.329 16.7353 319.086C16.7353 318.825 16.7259 318.442 16.7073 317.938C16.6886 317.098 16.5019 316.44 16.1473 315.964C15.7926 315.488 15.2606 315.25 14.5513 315.25C13.8513 315.25 13.3193 315.488 12.9553 315.964C12.6006 316.44 12.4139 317.098 12.3953 317.938L12.3813 319.086L12.3953 320.262C12.4139 321.111 12.6006 321.769 12.9553 322.236C13.3193 322.703 13.8513 322.936 14.5513 322.936Z" fill="#FCFCFC"/>
<path d="M63.4204 341.14C62.6831 341.14 62.0438 341.023 61.5024 340.79C60.9704 340.547 60.5644 340.235 60.2844 339.852C60.0138 339.469 59.8691 339.068 59.8504 338.648C59.8504 338.564 59.8784 338.499 59.9344 338.452C59.9904 338.396 60.0604 338.368 60.1444 338.368H60.8304C61.0264 338.368 61.1571 338.471 61.2224 338.676C61.3438 339.143 61.6051 339.474 62.0064 339.67C62.4078 339.857 62.8791 339.95 63.4204 339.95C64.0831 339.95 64.6104 339.796 65.0024 339.488C65.3944 339.171 65.5904 338.718 65.5904 338.13C65.5904 337.001 64.9044 336.436 63.5324 336.436H62.2024C62.1091 336.436 62.0298 336.408 61.9644 336.352C61.9084 336.287 61.8804 336.207 61.8804 336.114V335.736C61.8804 335.605 61.9318 335.479 62.0344 335.358L64.7504 332.39H60.6204C60.5271 332.39 60.4478 332.362 60.3824 332.306C60.3264 332.241 60.2984 332.161 60.2984 332.068V331.536C60.2984 331.443 60.3264 331.363 60.3824 331.298C60.4478 331.233 60.5271 331.2 60.6204 331.2H66.2064C66.3091 331.2 66.3884 331.233 66.4444 331.298C66.5098 331.354 66.5424 331.433 66.5424 331.536V332.04C66.5424 332.152 66.4911 332.259 66.3884 332.362L63.6864 335.372L63.9104 335.386C64.8624 335.414 65.6138 335.661 66.1644 336.128C66.7151 336.595 66.9904 337.276 66.9904 338.172C66.9904 338.779 66.8364 339.306 66.5284 339.754C66.2204 340.202 65.7958 340.547 65.2544 340.79C64.7131 341.023 64.1018 341.14 63.4204 341.14ZM73.8463 341C73.7529 341 73.6736 340.972 73.6083 340.916C73.5523 340.851 73.5243 340.771 73.5243 340.678V334.042C73.5243 333.949 73.5523 333.874 73.6083 333.818C73.6736 333.753 73.7529 333.72 73.8463 333.72H74.4763C74.5696 333.72 74.6443 333.753 74.7003 333.818C74.7656 333.874 74.7983 333.949 74.7983 334.042V334.532C75.2836 333.897 75.9603 333.58 76.8283 333.58C77.8643 333.58 78.5969 334.009 79.0263 334.868C79.2503 334.476 79.5676 334.163 79.9783 333.93C80.3889 333.697 80.8509 333.58 81.3643 333.58C82.1296 333.58 82.7549 333.841 83.2403 334.364C83.7256 334.887 83.9683 335.643 83.9683 336.632V340.678C83.9683 340.771 83.9356 340.851 83.8703 340.916C83.8143 340.972 83.7396 341 83.6463 341H82.9883C82.8949 341 82.8156 340.972 82.7503 340.916C82.6943 340.851 82.6663 340.771 82.6663 340.678V336.758C82.6663 336.03 82.5123 335.507 82.2043 335.19C81.9056 334.873 81.5089 334.714 81.0143 334.714C80.5756 334.714 80.1976 334.877 79.8803 335.204C79.5629 335.521 79.4043 336.039 79.4043 336.758V340.678C79.4043 340.771 79.3716 340.851 79.3063 340.916C79.2503 340.972 79.1756 341 79.0823 341H78.4243C78.3309 341 78.2516 340.972 78.1863 340.916C78.1303 340.851 78.1023 340.771 78.1023 340.678V336.758C78.1023 336.03 77.9436 335.507 77.6263 335.19C77.3183 334.873 76.9263 334.714 76.4503 334.714C76.0116 334.714 75.6336 334.877 75.3163 335.204C74.9989 335.521 74.8403 336.035 74.8403 336.744V340.678C74.8403 340.771 74.8076 340.851 74.7423 340.916C74.6863 340.972 74.6116 341 74.5183 341H73.8463ZM89.6477 341.14C88.621 341.14 87.823 340.851 87.2537 340.272C86.6937 339.693 86.395 338.923 86.3577 337.962L86.3437 337.36L86.3577 336.758C86.395 335.806 86.6984 335.041 87.2677 334.462C87.837 333.874 88.6304 333.58 89.6477 333.58C90.665 333.58 91.4584 333.874 92.0277 334.462C92.597 335.041 92.9004 335.806 92.9377 336.758C92.947 336.861 92.9517 337.061 92.9517 337.36C92.9517 337.659 92.947 337.859 92.9377 337.962C92.9004 338.923 92.597 339.693 92.0277 340.272C91.4677 340.851 90.6744 341.14 89.6477 341.14ZM89.6477 340.062C90.2357 340.062 90.6977 339.875 91.0337 339.502C91.379 339.129 91.5657 338.592 91.5937 337.892C91.603 337.799 91.6077 337.621 91.6077 337.36C91.6077 337.099 91.603 336.921 91.5937 336.828C91.5657 336.128 91.379 335.591 91.0337 335.218C90.6977 334.845 90.2357 334.658 89.6477 334.658C89.0597 334.658 88.593 334.845 88.2477 335.218C87.9024 335.591 87.7204 336.128 87.7017 336.828L87.6877 337.36L87.7017 337.892C87.7204 338.592 87.9024 339.129 88.2477 339.502C88.593 339.875 89.0597 340.062 89.6477 340.062ZM95.7267 341C95.6334 341 95.5541 340.972 95.4887 340.916C95.4327 340.851 95.4047 340.771 95.4047 340.678V334.042C95.4047 333.949 95.4327 333.874 95.4887 333.818C95.5541 333.753 95.6334 333.72 95.7267 333.72H96.3847C96.4781 333.72 96.5527 333.753 96.6087 333.818C96.6741 333.874 96.7067 333.949 96.7067 334.042V334.658C96.9774 334.313 97.2947 334.047 97.6587 333.86C98.0321 333.673 98.4941 333.58 99.0447 333.58C99.9407 333.58 100.636 333.869 101.131 334.448C101.635 335.017 101.887 335.778 101.887 336.73V340.678C101.887 340.771 101.854 340.851 101.789 340.916C101.733 340.972 101.658 341 101.565 341H100.865C100.771 341 100.692 340.972 100.627 340.916C100.571 340.851 100.543 340.771 100.543 340.678V336.8C100.543 336.137 100.379 335.624 100.053 335.26C99.7354 334.896 99.2734 334.714 98.6667 334.714C98.0787 334.714 97.6121 334.901 97.2667 335.274C96.9214 335.638 96.7487 336.147 96.7487 336.8V340.678C96.7487 340.771 96.7161 340.851 96.6507 340.916C96.5947 340.972 96.5201 341 96.4267 341H95.7267ZM107.341 341C105.867 341 105.129 340.179 105.129 338.536V334.84H104.037C103.944 334.84 103.865 334.812 103.799 334.756C103.743 334.691 103.715 334.611 103.715 334.518V334.042C103.715 333.949 103.743 333.874 103.799 333.818C103.865 333.753 103.944 333.72 104.037 333.72H105.129V331.382C105.129 331.289 105.157 331.214 105.213 331.158C105.279 331.093 105.358 331.06 105.451 331.06H106.109C106.203 331.06 106.277 331.093 106.333 331.158C106.399 331.214 106.431 331.289 106.431 331.382V333.72H108.167C108.261 333.72 108.335 333.753 108.391 333.818C108.457 333.874 108.489 333.949 108.489 334.042V334.518C108.489 334.611 108.457 334.691 108.391 334.756C108.335 334.812 108.261 334.84 108.167 334.84H106.431V338.438C106.431 338.905 106.511 339.259 106.669 339.502C106.828 339.735 107.089 339.852 107.453 339.852H108.307C108.401 339.852 108.475 339.885 108.531 339.95C108.597 340.006 108.629 340.081 108.629 340.174V340.678C108.629 340.771 108.597 340.851 108.531 340.916C108.475 340.972 108.401 341 108.307 341H107.341ZM111.004 341C110.911 341 110.831 340.972 110.766 340.916C110.71 340.851 110.682 340.771 110.682 340.678V331.382C110.682 331.289 110.71 331.214 110.766 331.158C110.831 331.093 110.911 331.06 111.004 331.06H111.704C111.797 331.06 111.872 331.093 111.928 331.158C111.993 331.214 112.026 331.289 112.026 331.382V334.644C112.297 334.299 112.614 334.037 112.978 333.86C113.342 333.673 113.795 333.58 114.336 333.58C115.232 333.58 115.927 333.869 116.422 334.448C116.926 335.017 117.178 335.778 117.178 336.73V340.678C117.178 340.771 117.145 340.851 117.08 340.916C117.024 340.972 116.949 341 116.856 341H116.156C116.063 341 115.983 340.972 115.918 340.916C115.862 340.851 115.834 340.771 115.834 340.678V336.8C115.834 336.137 115.671 335.624 115.344 335.26C115.027 334.896 114.565 334.714 113.958 334.714C113.37 334.714 112.899 334.901 112.544 335.274C112.199 335.638 112.026 336.147 112.026 336.8V340.678C112.026 340.771 111.993 340.851 111.928 340.916C111.872 340.972 111.797 341 111.704 341H111.004ZM122.419 341.14C121.766 341.14 121.215 341.037 120.767 340.832C120.329 340.617 119.997 340.375 119.773 340.104C119.559 339.833 119.451 339.609 119.451 339.432C119.451 339.339 119.484 339.269 119.549 339.222C119.624 339.166 119.699 339.138 119.773 339.138H120.403C120.497 339.138 120.581 339.185 120.655 339.278C120.879 339.539 121.122 339.745 121.383 339.894C121.645 340.043 121.995 340.118 122.433 340.118C122.919 340.118 123.311 340.025 123.609 339.838C123.917 339.642 124.071 339.376 124.071 339.04C124.071 338.816 124.006 338.634 123.875 338.494C123.754 338.345 123.539 338.219 123.231 338.116C122.933 338.004 122.485 337.883 121.887 337.752C121.075 337.575 120.497 337.318 120.151 336.982C119.815 336.646 119.647 336.212 119.647 335.68C119.647 335.325 119.75 334.989 119.955 334.672C120.17 334.345 120.478 334.084 120.879 333.888C121.29 333.683 121.78 333.58 122.349 333.58C122.947 333.58 123.455 333.678 123.875 333.874C124.295 334.07 124.608 334.303 124.813 334.574C125.028 334.835 125.135 335.055 125.135 335.232C125.135 335.316 125.103 335.386 125.037 335.442C124.981 335.498 124.911 335.526 124.827 335.526H124.239C124.127 335.526 124.034 335.479 123.959 335.386C123.81 335.209 123.679 335.073 123.567 334.98C123.465 334.877 123.311 334.789 123.105 334.714C122.909 334.639 122.657 334.602 122.349 334.602C121.901 334.602 121.556 334.7 121.313 334.896C121.071 335.083 120.949 335.33 120.949 335.638C120.949 335.834 121.001 336.002 121.103 336.142C121.206 336.273 121.402 336.394 121.691 336.506C121.99 336.618 122.419 336.735 122.979 336.856C123.866 337.043 124.491 337.313 124.855 337.668C125.229 338.013 125.415 338.457 125.415 338.998C125.415 339.399 125.299 339.763 125.065 340.09C124.832 340.417 124.487 340.673 124.029 340.86C123.581 341.047 123.045 341.14 122.419 341.14Z" fill="#FCFCFC"/>
<path d="M228.971 341C228.878 341 228.799 340.972 228.733 340.916C228.677 340.851 228.649 340.771 228.649 340.678V332.838L226.325 334.63C226.26 334.686 226.19 334.714 226.115 334.714C226.031 334.714 225.952 334.667 225.877 334.574L225.513 334.112C225.467 334.047 225.443 333.981 225.443 333.916C225.443 333.804 225.49 333.715 225.583 333.65L228.635 331.298C228.738 331.233 228.859 331.2 228.999 331.2H229.713C229.807 331.2 229.881 331.233 229.937 331.298C230.003 331.354 230.035 331.429 230.035 331.522V340.678C230.035 340.771 230.003 340.851 229.937 340.916C229.881 340.972 229.807 341 229.713 341H228.971ZM237.855 343.66C237.78 343.66 237.715 343.632 237.659 343.576C237.603 343.52 237.575 343.455 237.575 343.38C237.575 343.315 237.598 343.231 237.645 343.128L238.723 340.566L236.049 334.252C236.002 334.131 235.979 334.051 235.979 334.014C235.979 333.93 236.007 333.86 236.063 333.804C236.119 333.748 236.189 333.72 236.273 333.72H236.959C237.108 333.72 237.22 333.799 237.295 333.958L239.423 339.054L241.607 333.958C241.681 333.799 241.798 333.72 241.957 333.72H242.615C242.699 333.72 242.769 333.748 242.825 333.804C242.881 333.86 242.909 333.925 242.909 334C242.909 334.028 242.885 334.112 242.839 334.252L238.863 343.422C238.788 343.581 238.671 343.66 238.513 343.66H237.855ZM247.671 341.14C246.71 341.14 245.94 340.846 245.361 340.258C244.792 339.661 244.479 338.849 244.423 337.822L244.409 337.346L244.423 336.884C244.488 335.876 244.806 335.073 245.375 334.476C245.954 333.879 246.714 333.58 247.657 333.58C248.693 333.58 249.496 333.911 250.065 334.574C250.634 335.227 250.919 336.114 250.919 337.234V337.472C250.919 337.565 250.886 337.645 250.821 337.71C250.765 337.766 250.69 337.794 250.597 337.794H245.753V337.92C245.781 338.527 245.963 339.045 246.299 339.474C246.644 339.894 247.097 340.104 247.657 340.104C248.086 340.104 248.436 340.02 248.707 339.852C248.987 339.675 249.192 339.493 249.323 339.306C249.407 339.194 249.468 339.129 249.505 339.11C249.552 339.082 249.631 339.068 249.743 339.068H250.429C250.513 339.068 250.583 339.091 250.639 339.138C250.695 339.185 250.723 339.25 250.723 339.334C250.723 339.539 250.592 339.787 250.331 340.076C250.079 340.365 249.72 340.617 249.253 340.832C248.796 341.037 248.268 341.14 247.671 341.14ZM249.589 336.828V336.786C249.589 336.142 249.412 335.619 249.057 335.218C248.712 334.807 248.245 334.602 247.657 334.602C247.069 334.602 246.602 334.807 246.257 335.218C245.921 335.619 245.753 336.142 245.753 336.786V336.828H249.589ZM255.323 341.14C254.866 341.14 254.441 341.047 254.049 340.86C253.657 340.673 253.344 340.421 253.111 340.104C252.887 339.777 252.775 339.418 252.775 339.026C252.775 338.41 253.027 337.906 253.531 337.514C254.044 337.113 254.735 336.851 255.603 336.73L257.689 336.436V336.03C257.689 335.078 257.143 334.602 256.051 334.602C255.64 334.602 255.304 334.691 255.043 334.868C254.782 335.036 254.586 335.237 254.455 335.47C254.427 335.554 254.39 335.615 254.343 335.652C254.306 335.689 254.25 335.708 254.175 335.708H253.573C253.489 335.708 253.414 335.68 253.349 335.624C253.293 335.559 253.265 335.484 253.265 335.4C253.274 335.176 253.377 334.924 253.573 334.644C253.778 334.355 254.091 334.107 254.511 333.902C254.931 333.687 255.449 333.58 256.065 333.58C257.11 333.58 257.862 333.827 258.319 334.322C258.776 334.807 259.005 335.414 259.005 336.142V340.678C259.005 340.771 258.972 340.851 258.907 340.916C258.851 340.972 258.776 341 258.683 341H258.039C257.946 341 257.866 340.972 257.801 340.916C257.745 340.851 257.717 340.771 257.717 340.678V340.076C257.512 340.375 257.213 340.627 256.821 340.832C256.429 341.037 255.93 341.14 255.323 341.14ZM255.617 340.09C256.224 340.09 256.718 339.894 257.101 339.502C257.493 339.101 257.689 338.527 257.689 337.78V337.388L256.065 337.626C255.402 337.719 254.903 337.878 254.567 338.102C254.231 338.317 254.063 338.592 254.063 338.928C254.063 339.301 254.217 339.591 254.525 339.796C254.833 339.992 255.197 340.09 255.617 340.09ZM262.04 341C261.946 341 261.867 340.972 261.802 340.916C261.746 340.851 261.718 340.771 261.718 340.678V334.056C261.718 333.963 261.746 333.883 261.802 333.818C261.867 333.753 261.946 333.72 262.04 333.72H262.684C262.777 333.72 262.856 333.753 262.922 333.818C262.987 333.883 263.02 333.963 263.02 334.056V334.672C263.402 334.037 264.056 333.72 264.98 333.72H265.526C265.619 333.72 265.694 333.753 265.75 333.818C265.815 333.874 265.848 333.949 265.848 334.042V334.616C265.848 334.709 265.815 334.784 265.75 334.84C265.694 334.896 265.619 334.924 265.526 334.924H264.686C264.182 334.924 263.785 335.073 263.496 335.372C263.206 335.661 263.062 336.058 263.062 336.562V340.678C263.062 340.771 263.029 340.851 262.964 340.916C262.898 340.972 262.819 341 262.726 341H262.04Z" fill="#FCFCFC"/>
<path d="M448.05 341C447.957 341 447.878 340.972 447.812 340.916C447.756 340.851 447.728 340.771 447.728 340.678V340.23C447.728 340.015 447.845 339.81 448.078 339.614L451.046 336.646C451.765 336.049 452.26 335.563 452.53 335.19C452.801 334.807 452.936 334.406 452.936 333.986C452.936 333.445 452.782 333.02 452.474 332.712C452.176 332.404 451.737 332.25 451.158 332.25C450.617 332.25 450.183 332.413 449.856 332.74C449.53 333.057 449.329 333.482 449.254 334.014C449.236 334.126 449.189 334.21 449.114 334.266C449.049 334.313 448.974 334.336 448.89 334.336H448.162C448.078 334.336 448.008 334.313 447.952 334.266C447.896 334.21 447.868 334.145 447.868 334.07C447.887 333.566 448.022 333.085 448.274 332.628C448.526 332.161 448.895 331.783 449.38 331.494C449.875 331.195 450.468 331.046 451.158 331.046C452.213 331.046 453.006 331.321 453.538 331.872C454.08 332.413 454.35 333.104 454.35 333.944C454.35 334.532 454.201 335.064 453.902 335.54C453.613 336.007 453.16 336.511 452.544 337.052L449.856 339.782H454.224C454.327 339.782 454.406 339.815 454.462 339.88C454.528 339.936 454.56 340.011 454.56 340.104V340.678C454.56 340.771 454.528 340.851 454.462 340.916C454.397 340.972 454.318 341 454.224 341H448.05ZM462.018 343.66C461.943 343.66 461.878 343.632 461.822 343.576C461.766 343.52 461.738 343.455 461.738 343.38C461.738 343.315 461.761 343.231 461.808 343.128L462.886 340.566L460.212 334.252C460.165 334.131 460.142 334.051 460.142 334.014C460.142 333.93 460.17 333.86 460.226 333.804C460.282 333.748 460.352 333.72 460.436 333.72H461.122C461.271 333.72 461.383 333.799 461.458 333.958L463.586 339.054L465.77 333.958C465.844 333.799 465.961 333.72 466.12 333.72H466.778C466.862 333.72 466.932 333.748 466.988 333.804C467.044 333.86 467.072 333.925 467.072 334C467.072 334.028 467.048 334.112 467.002 334.252L463.026 343.422C462.951 343.581 462.834 343.66 462.676 343.66H462.018ZM471.834 341.14C470.873 341.14 470.103 340.846 469.524 340.258C468.955 339.661 468.642 338.849 468.586 337.822L468.572 337.346L468.586 336.884C468.652 335.876 468.969 335.073 469.538 334.476C470.117 333.879 470.878 333.58 471.82 333.58C472.856 333.58 473.659 333.911 474.228 334.574C474.798 335.227 475.082 336.114 475.082 337.234V337.472C475.082 337.565 475.05 337.645 474.984 337.71C474.928 337.766 474.854 337.794 474.76 337.794H469.916V337.92C469.944 338.527 470.126 339.045 470.462 339.474C470.808 339.894 471.26 340.104 471.82 340.104C472.25 340.104 472.6 340.02 472.87 339.852C473.15 339.675 473.356 339.493 473.486 339.306C473.57 339.194 473.631 339.129 473.668 339.11C473.715 339.082 473.794 339.068 473.906 339.068H474.592C474.676 339.068 474.746 339.091 474.802 339.138C474.858 339.185 474.886 339.25 474.886 339.334C474.886 339.539 474.756 339.787 474.494 340.076C474.242 340.365 473.883 340.617 473.416 340.832C472.959 341.037 472.432 341.14 471.834 341.14ZM473.752 336.828V336.786C473.752 336.142 473.575 335.619 473.22 335.218C472.875 334.807 472.408 334.602 471.82 334.602C471.232 334.602 470.766 334.807 470.42 335.218C470.084 335.619 469.916 336.142 469.916 336.786V336.828H473.752ZM479.486 341.14C479.029 341.14 478.604 341.047 478.212 340.86C477.82 340.673 477.508 340.421 477.274 340.104C477.05 339.777 476.938 339.418 476.938 339.026C476.938 338.41 477.19 337.906 477.694 337.514C478.208 337.113 478.898 336.851 479.766 336.73L481.852 336.436V336.03C481.852 335.078 481.306 334.602 480.214 334.602C479.804 334.602 479.468 334.691 479.206 334.868C478.945 335.036 478.749 335.237 478.618 335.47C478.59 335.554 478.553 335.615 478.506 335.652C478.469 335.689 478.413 335.708 478.338 335.708H477.736C477.652 335.708 477.578 335.68 477.512 335.624C477.456 335.559 477.428 335.484 477.428 335.4C477.438 335.176 477.54 334.924 477.736 334.644C477.942 334.355 478.254 334.107 478.674 333.902C479.094 333.687 479.612 333.58 480.228 333.58C481.274 333.58 482.025 333.827 482.482 334.322C482.94 334.807 483.168 335.414 483.168 336.142V340.678C483.168 340.771 483.136 340.851 483.07 340.916C483.014 340.972 482.94 341 482.846 341H482.202C482.109 341 482.03 340.972 481.964 340.916C481.908 340.851 481.88 340.771 481.88 340.678V340.076C481.675 340.375 481.376 340.627 480.984 340.832C480.592 341.037 480.093 341.14 479.486 341.14ZM479.78 340.09C480.387 340.09 480.882 339.894 481.264 339.502C481.656 339.101 481.852 338.527 481.852 337.78V337.388L480.228 337.626C479.566 337.719 479.066 337.878 478.73 338.102C478.394 338.317 478.226 338.592 478.226 338.928C478.226 339.301 478.38 339.591 478.688 339.796C478.996 339.992 479.36 340.09 479.78 340.09ZM486.203 341C486.11 341 486.03 340.972 485.965 340.916C485.909 340.851 485.881 340.771 485.881 340.678V334.056C485.881 333.963 485.909 333.883 485.965 333.818C486.03 333.753 486.11 333.72 486.203 333.72H486.847C486.94 333.72 487.02 333.753 487.085 333.818C487.15 333.883 487.183 333.963 487.183 334.056V334.672C487.566 334.037 488.219 333.72 489.143 333.72H489.689C489.782 333.72 489.857 333.753 489.913 333.818C489.978 333.874 490.011 333.949 490.011 334.042V334.616C490.011 334.709 489.978 334.784 489.913 334.84C489.857 334.896 489.782 334.924 489.689 334.924H488.849C488.345 334.924 487.948 335.073 487.659 335.372C487.37 335.661 487.225 336.058 487.225 336.562V340.678C487.225 340.771 487.192 340.851 487.127 340.916C487.062 340.972 486.982 341 486.889 341H486.203ZM494.419 341.14C493.766 341.14 493.215 341.037 492.767 340.832C492.329 340.617 491.997 340.375 491.773 340.104C491.559 339.833 491.451 339.609 491.451 339.432C491.451 339.339 491.484 339.269 491.549 339.222C491.624 339.166 491.699 339.138 491.773 339.138H492.403C492.497 339.138 492.581 339.185 492.655 339.278C492.879 339.539 493.122 339.745 493.383 339.894C493.645 340.043 493.995 340.118 494.433 340.118C494.919 340.118 495.311 340.025 495.609 339.838C495.917 339.642 496.071 339.376 496.071 339.04C496.071 338.816 496.006 338.634 495.875 338.494C495.754 338.345 495.539 338.219 495.231 338.116C494.933 338.004 494.485 337.883 493.887 337.752C493.075 337.575 492.497 337.318 492.151 336.982C491.815 336.646 491.647 336.212 491.647 335.68C491.647 335.325 491.75 334.989 491.955 334.672C492.17 334.345 492.478 334.084 492.879 333.888C493.29 333.683 493.78 333.58 494.349 333.58C494.947 333.58 495.455 333.678 495.875 333.874C496.295 334.07 496.608 334.303 496.813 334.574C497.028 334.835 497.135 335.055 497.135 335.232C497.135 335.316 497.103 335.386 497.037 335.442C496.981 335.498 496.911 335.526 496.827 335.526H496.239C496.127 335.526 496.034 335.479 495.959 335.386C495.81 335.209 495.679 335.073 495.567 334.98C495.465 334.877 495.311 334.789 495.105 334.714C494.909 334.639 494.657 334.602 494.349 334.602C493.901 334.602 493.556 334.7 493.313 334.896C493.071 335.083 492.949 335.33 492.949 335.638C492.949 335.834 493.001 336.002 493.103 336.142C493.206 336.273 493.402 336.394 493.691 336.506C493.99 336.618 494.419 336.735 494.979 336.856C495.866 337.043 496.491 337.313 496.855 337.668C497.229 338.013 497.415 338.457 497.415 338.998C497.415 339.399 497.299 339.763 497.065 340.09C496.832 340.417 496.487 340.673 496.029 340.86C495.581 341.047 495.045 341.14 494.419 341.14Z" fill="#FCFCFC"/>
<path d="M671.023 341.14C670.285 341.14 669.646 341.023 669.105 340.79C668.573 340.547 668.167 340.235 667.887 339.852C667.616 339.469 667.471 339.068 667.453 338.648C667.453 338.564 667.481 338.499 667.537 338.452C667.593 338.396 667.663 338.368 667.747 338.368H668.433C668.629 338.368 668.759 338.471 668.825 338.676C668.946 339.143 669.207 339.474 669.609 339.67C670.01 339.857 670.481 339.95 671.023 339.95C671.685 339.95 672.213 339.796 672.605 339.488C672.997 339.171 673.193 338.718 673.193 338.13C673.193 337.001 672.507 336.436 671.135 336.436H669.805C669.711 336.436 669.632 336.408 669.567 336.352C669.511 336.287 669.483 336.207 669.483 336.114V335.736C669.483 335.605 669.534 335.479 669.637 335.358L672.353 332.39H668.223C668.129 332.39 668.05 332.362 667.985 332.306C667.929 332.241 667.901 332.161 667.901 332.068V331.536C667.901 331.443 667.929 331.363 667.985 331.298C668.05 331.233 668.129 331.2 668.223 331.2H673.809C673.911 331.2 673.991 331.233 674.047 331.298C674.112 331.354 674.145 331.433 674.145 331.536V332.04C674.145 332.152 674.093 332.259 673.991 332.362L671.289 335.372L671.513 335.386C672.465 335.414 673.216 335.661 673.767 336.128C674.317 336.595 674.593 337.276 674.593 338.172C674.593 338.779 674.439 339.306 674.131 339.754C673.823 340.202 673.398 340.547 672.857 340.79C672.315 341.023 671.704 341.14 671.023 341.14ZM682.018 343.66C681.943 343.66 681.878 343.632 681.822 343.576C681.766 343.52 681.738 343.455 681.738 343.38C681.738 343.315 681.761 343.231 681.808 343.128L682.886 340.566L680.212 334.252C680.165 334.131 680.142 334.051 680.142 334.014C680.142 333.93 680.17 333.86 680.226 333.804C680.282 333.748 680.352 333.72 680.436 333.72H681.122C681.271 333.72 681.383 333.799 681.458 333.958L683.586 339.054L685.77 333.958C685.844 333.799 685.961 333.72 686.12 333.72H686.778C686.862 333.72 686.932 333.748 686.988 333.804C687.044 333.86 687.072 333.925 687.072 334C687.072 334.028 687.048 334.112 687.002 334.252L683.026 343.422C682.951 343.581 682.834 343.66 682.676 343.66H682.018ZM691.834 341.14C690.873 341.14 690.103 340.846 689.524 340.258C688.955 339.661 688.642 338.849 688.586 337.822L688.572 337.346L688.586 336.884C688.652 335.876 688.969 335.073 689.538 334.476C690.117 333.879 690.878 333.58 691.82 333.58C692.856 333.58 693.659 333.911 694.228 334.574C694.798 335.227 695.082 336.114 695.082 337.234V337.472C695.082 337.565 695.05 337.645 694.984 337.71C694.928 337.766 694.854 337.794 694.76 337.794H689.916V337.92C689.944 338.527 690.126 339.045 690.462 339.474C690.808 339.894 691.26 340.104 691.82 340.104C692.25 340.104 692.6 340.02 692.87 339.852C693.15 339.675 693.356 339.493 693.486 339.306C693.57 339.194 693.631 339.129 693.668 339.11C693.715 339.082 693.794 339.068 693.906 339.068H694.592C694.676 339.068 694.746 339.091 694.802 339.138C694.858 339.185 694.886 339.25 694.886 339.334C694.886 339.539 694.756 339.787 694.494 340.076C694.242 340.365 693.883 340.617 693.416 340.832C692.959 341.037 692.432 341.14 691.834 341.14ZM693.752 336.828V336.786C693.752 336.142 693.575 335.619 693.22 335.218C692.875 334.807 692.408 334.602 691.82 334.602C691.232 334.602 690.766 334.807 690.42 335.218C690.084 335.619 689.916 336.142 689.916 336.786V336.828H693.752ZM699.486 341.14C699.029 341.14 698.604 341.047 698.212 340.86C697.82 340.673 697.508 340.421 697.274 340.104C697.05 339.777 696.938 339.418 696.938 339.026C696.938 338.41 697.19 337.906 697.694 337.514C698.208 337.113 698.898 336.851 699.766 336.73L701.852 336.436V336.03C701.852 335.078 701.306 334.602 700.214 334.602C699.804 334.602 699.468 334.691 699.206 334.868C698.945 335.036 698.749 335.237 698.618 335.47C698.59 335.554 698.553 335.615 698.506 335.652C698.469 335.689 698.413 335.708 698.338 335.708H697.736C697.652 335.708 697.578 335.68 697.512 335.624C697.456 335.559 697.428 335.484 697.428 335.4C697.438 335.176 697.54 334.924 697.736 334.644C697.942 334.355 698.254 334.107 698.674 333.902C699.094 333.687 699.612 333.58 700.228 333.58C701.274 333.58 702.025 333.827 702.482 334.322C702.94 334.807 703.168 335.414 703.168 336.142V340.678C703.168 340.771 703.136 340.851 703.07 340.916C703.014 340.972 702.94 341 702.846 341H702.202C702.109 341 702.03 340.972 701.964 340.916C701.908 340.851 701.88 340.771 701.88 340.678V340.076C701.675 340.375 701.376 340.627 700.984 340.832C700.592 341.037 700.093 341.14 699.486 341.14ZM699.78 340.09C700.387 340.09 700.882 339.894 701.264 339.502C701.656 339.101 701.852 338.527 701.852 337.78V337.388L700.228 337.626C699.566 337.719 699.066 337.878 698.73 338.102C698.394 338.317 698.226 338.592 698.226 338.928C698.226 339.301 698.38 339.591 698.688 339.796C698.996 339.992 699.36 340.09 699.78 340.09ZM706.203 341C706.11 341 706.03 340.972 705.965 340.916C705.909 340.851 705.881 340.771 705.881 340.678V334.056C705.881 333.963 705.909 333.883 705.965 333.818C706.03 333.753 706.11 333.72 706.203 333.72H706.847C706.94 333.72 707.02 333.753 707.085 333.818C707.15 333.883 707.183 333.963 707.183 334.056V334.672C707.566 334.037 708.219 333.72 709.143 333.72H709.689C709.782 333.72 709.857 333.753 709.913 333.818C709.978 333.874 710.011 333.949 710.011 334.042V334.616C710.011 334.709 709.978 334.784 709.913 334.84C709.857 334.896 709.782 334.924 709.689 334.924H708.849C708.345 334.924 707.948 335.073 707.659 335.372C707.37 335.661 707.225 336.058 707.225 336.562V340.678C707.225 340.771 707.192 340.851 707.127 340.916C707.062 340.972 706.982 341 706.889 341H706.203ZM714.419 341.14C713.766 341.14 713.215 341.037 712.767 340.832C712.329 340.617 711.997 340.375 711.773 340.104C711.559 339.833 711.451 339.609 711.451 339.432C711.451 339.339 711.484 339.269 711.549 339.222C711.624 339.166 711.699 339.138 711.773 339.138H712.403C712.497 339.138 712.581 339.185 712.655 339.278C712.879 339.539 713.122 339.745 713.383 339.894C713.645 340.043 713.995 340.118 714.433 340.118C714.919 340.118 715.311 340.025 715.609 339.838C715.917 339.642 716.071 339.376 716.071 339.04C716.071 338.816 716.006 338.634 715.875 338.494C715.754 338.345 715.539 338.219 715.231 338.116C714.933 338.004 714.485 337.883 713.887 337.752C713.075 337.575 712.497 337.318 712.151 336.982C711.815 336.646 711.647 336.212 711.647 335.68C711.647 335.325 711.75 334.989 711.955 334.672C712.17 334.345 712.478 334.084 712.879 333.888C713.29 333.683 713.78 333.58 714.349 333.58C714.947 333.58 715.455 333.678 715.875 333.874C716.295 334.07 716.608 334.303 716.813 334.574C717.028 334.835 717.135 335.055 717.135 335.232C717.135 335.316 717.103 335.386 717.037 335.442C716.981 335.498 716.911 335.526 716.827 335.526H716.239C716.127 335.526 716.034 335.479 715.959 335.386C715.81 335.209 715.679 335.073 715.567 334.98C715.465 334.877 715.311 334.789 715.105 334.714C714.909 334.639 714.657 334.602 714.349 334.602C713.901 334.602 713.556 334.7 713.313 334.896C713.071 335.083 712.949 335.33 712.949 335.638C712.949 335.834 713.001 336.002 713.103 336.142C713.206 336.273 713.402 336.394 713.691 336.506C713.99 336.618 714.419 336.735 714.979 336.856C715.866 337.043 716.491 337.313 716.855 337.668C717.229 338.013 717.415 338.457 717.415 338.998C717.415 339.399 717.299 339.763 717.065 340.09C716.832 340.417 716.487 340.673 716.029 340.86C715.581 341.047 715.045 341.14 714.419 341.14Z" fill="#FCFCFC"/>
<path d="M82.5 281.5L28 320.5H710.5V18L471.5 68.5L248.5 147.5L82.5 281.5Z" fill="#C2E5CB"/>
<path d="M28 320L82.5 281.5L248.5 147.5L471.5 68.5L710.5 18" stroke="#34A853" stroke-width="2"/>
<path d="M145.5 296.5L84 321H710V213H466L247.5 245L145.5 296.5Z" fill="#FEEBB3"/>
<path d="M83.6431 319.066C83.1272 319.263 82.8687 319.841 83.0659 320.357C83.263 320.873 83.841 321.131 84.3569 320.934L83.6431 319.066ZM145.5 296.5L145.857 297.434L145.905 297.416L145.951 297.393L145.5 296.5ZM247.5 245L247.355 244.011L247.194 244.034L247.049 244.107L247.5 245ZM466 213V212H465.927L465.855 212.011L466 213ZM84.3569 320.934L145.857 297.434L145.143 295.566L83.6431 319.066L84.3569 320.934ZM145.951 297.393L247.951 245.893L247.049 244.107L145.049 295.607L145.951 297.393ZM247.645 245.989L466.145 213.989L465.855 212.011L247.355 244.011L247.645 245.989ZM466 214H710V212H466V214Z" fill="#FFBF00"/>
<path d="M152 296.5L85 320H710V261.5H466H247.5L152 296.5Z" fill="#F9C6C2"/>
<path d="M84.669 319.056L83.7254 319.387L84.3873 321.275L85.331 320.944L84.669 319.056ZM152 296.5L152.331 297.444L152.344 297.439L152 296.5ZM247.5 261.5V260.5H247.323L247.156 260.561L247.5 261.5ZM85.331 320.944L152.331 297.444L151.669 295.556L84.669 319.056L85.331 320.944ZM152.344 297.439L247.844 262.439L247.156 260.561L151.656 295.561L152.344 297.439ZM247.5 262.5H466V260.5H247.5V262.5ZM466 262.5H710V260.5H466V262.5Z" fill="#EA4335"/>
<path d="M143.407 312L85.5 320H710V301H462.896H243.747L143.407 312Z" fill="#C6DAFC"/>
<path d="M85.3631 319.009L84.3726 319.146L84.6463 321.127L85.6369 320.991L85.3631 319.009ZM143.407 312L143.298 311.006L143.284 311.007L143.27 311.009L143.407 312ZM243.747 301V300H243.692L243.638 300.006L243.747 301ZM85.6369 320.991L143.544 312.991L143.27 311.009L85.3631 319.009L85.6369 320.991ZM143.516 312.994L243.856 301.994L243.638 300.006L143.298 311.006L143.516 312.994ZM243.747 302H462.896V300H243.747V302ZM462.896 302H710V300H462.896V302Z" fill="#4285F4"/>
<path d="M711 320H28V8" stroke="white" stroke-width="2" stroke-linecap="round"/>
</svg>
