<svg width="300" height="230" viewBox="0 0 300 230" fill="none" xmlns="http://www.w3.org/2000/svg">
<path d="M16 5H299" stroke="#FAFAFA" stroke-opacity="0.1" stroke-width="0.41691" stroke-linecap="round"/>
<path d="M16 38H299" stroke="#FAFAFA" stroke-opacity="0.1" stroke-width="0.41691" stroke-linecap="round"/>
<path d="M16 70H299" stroke="#FAFAFA" stroke-opacity="0.1" stroke-width="0.41691" stroke-linecap="round"/>
<path d="M16 103H299" stroke="#FAFAFA" stroke-opacity="0.1" stroke-width="0.41691" stroke-linecap="round"/>
<path d="M29.2646 5.33496L29.2646 134.994" stroke="#FAFAFA" stroke-opacity="0.1" stroke-width="0.41691" stroke-linecap="round"/>
<path d="M75.125 5.33496L75.125 134.994" stroke="#FAFAFA" stroke-opacity="0.1" stroke-width="0.41691" stroke-linecap="round"/>
<path d="M122.236 5.33496L122.236 134.994" stroke="#FAFAFA" stroke-opacity="0.1" stroke-width="0.41691" stroke-linecap="round"/>
<path d="M168.097 5.33496L168.097 134.994" stroke="#FAFAFA" stroke-opacity="0.1" stroke-width="0.41691" stroke-linecap="round"/>
<path d="M215.207 5.33496L215.207 134.994" stroke="#FAFAFA" stroke-opacity="0.1" stroke-width="0.41691" stroke-linecap="round"/>
<path d="M261.067 5.33496L261.067 134.994" stroke="#FAFAFA" stroke-opacity="0.1" stroke-width="0.41691" stroke-linecap="round"/>
<path d="M2.97994 7.08C2.56394 7.08 2.1986 7.01333 1.88394 6.88C1.56927 6.74133 1.32394 6.544 1.14794 6.288C0.971938 6.032 0.883938 5.73333 0.883938 5.392C0.883938 5.07733 0.961271 4.80267 1.11594 4.568C1.2706 4.328 1.48127 4.144 1.74794 4.016C1.5346 3.89333 1.36927 3.73333 1.25194 3.536C1.13994 3.33333 1.08394 3.09867 1.08394 2.832C1.08394 2.36267 1.2546 1.99467 1.59594 1.728C1.9426 1.456 2.40394 1.32 2.97994 1.32C3.5506 1.32 4.0066 1.456 4.34794 1.728C4.6946 1.99467 4.86794 2.36 4.86794 2.824C4.86794 3.09067 4.80927 3.32533 4.69194 3.528C4.57994 3.72533 4.41994 3.888 4.21194 4.016C4.4786 4.144 4.68927 4.328 4.84394 4.568C4.9986 4.80267 5.07594 5.07733 5.07594 5.392C5.07594 5.73333 4.98794 6.032 4.81194 6.288C4.63594 6.544 4.38794 6.74133 4.06794 6.88C3.75327 7.01333 3.3906 7.08 2.97994 7.08ZM2.97994 3.728C3.29994 3.72267 3.56927 3.64 3.78794 3.48C4.0066 3.32 4.11594 3.10933 4.11594 2.848C4.11594 2.58133 4.0066 2.368 3.78794 2.208C3.5746 2.04267 3.30527 1.96 2.97994 1.96C2.64927 1.96 2.3746 2.04 2.15594 2.2C1.9426 2.36 1.83594 2.576 1.83594 2.848C1.83594 3.11467 1.9426 3.328 2.15594 3.488C2.3746 3.648 2.64927 3.728 2.97994 3.728ZM2.97994 6.44C3.35327 6.44 3.66527 6.344 3.91594 6.152C4.1666 5.96 4.29194 5.70667 4.29194 5.392C4.29194 5.07733 4.1666 4.82667 3.91594 4.64C3.66527 4.45333 3.35327 4.36 2.97994 4.36C2.60127 4.36 2.2866 4.45333 2.03594 4.64C1.78527 4.82667 1.65994 5.07733 1.65994 5.392C1.65994 5.70667 1.78527 5.96 2.03594 6.152C2.2866 6.344 2.60127 6.44 2.97994 6.44ZM8.45788 7.08C7.76988 7.08 7.26588 6.88 6.94588 6.48C6.62588 6.08 6.45521 5.55467 6.43388 4.904C6.42854 4.76 6.42588 4.528 6.42588 4.208C6.42588 3.87733 6.42854 3.63733 6.43388 3.488C6.44988 2.848 6.62054 2.328 6.94588 1.928C7.27121 1.52267 7.77521 1.32 8.45788 1.32C9.14588 1.32 9.65254 1.52267 9.97788 1.928C10.3032 2.328 10.4739 2.848 10.4899 3.488C10.5005 3.78667 10.5059 4.02667 10.5059 4.208C10.5059 4.384 10.5005 4.616 10.4899 4.904C10.4685 5.55467 10.2979 6.08 9.97788 6.48C9.65788 6.88 9.15121 7.08 8.45788 7.08ZM8.45788 6.392C8.85788 6.392 9.15921 6.25867 9.36188 5.992C9.56988 5.72533 9.67921 5.34933 9.68988 4.864C9.70054 4.55467 9.70588 4.33067 9.70588 4.192C9.70588 4.04267 9.70054 3.824 9.68988 3.536C9.67921 3.056 9.57254 2.68 9.36988 2.408C9.16721 2.136 8.86321 2 8.45788 2C8.05788 2 7.75388 2.136 7.54588 2.408C7.34321 2.68 7.23654 3.056 7.22588 3.536L7.21788 4.192L7.22588 4.864C7.23654 5.34933 7.34321 5.72533 7.54588 5.992C7.75388 6.25867 8.05788 6.392 8.45788 6.392Z" fill="#FCFCFC"/>
<path d="M3.16556 39.599C2.7389 39.599 2.36823 39.5137 2.05356 39.343C1.7389 39.167 1.4989 38.9324 1.33356 38.639C1.16823 38.3457 1.08556 38.0257 1.08556 37.679C1.08556 37.3964 1.14156 37.1297 1.25356 36.879C1.3709 36.623 1.50156 36.3964 1.64556 36.199L3.16556 34.079C3.1709 34.0737 3.1869 34.055 3.21356 34.023C3.2349 33.991 3.26423 33.967 3.30156 33.951C3.3389 33.9297 3.38156 33.919 3.42956 33.919H3.85356C3.90156 33.919 3.9389 33.9377 3.96556 33.975C3.99756 34.007 4.01356 34.047 4.01356 34.095C4.01356 34.1324 4.0029 34.167 3.98156 34.199L2.81356 35.831C2.9309 35.7937 3.0829 35.775 3.26956 35.775C3.65356 35.7804 3.99223 35.8684 4.28556 36.039C4.58423 36.2097 4.81356 36.439 4.97356 36.727C5.1389 37.015 5.22156 37.3297 5.22156 37.671C5.22156 38.0124 5.1389 38.3324 4.97356 38.631C4.81356 38.9244 4.57623 39.159 4.26156 39.335C3.95223 39.511 3.5869 39.599 3.16556 39.599ZM3.15756 38.919C3.3869 38.919 3.59756 38.871 3.78956 38.775C3.9869 38.679 4.14156 38.5377 4.25356 38.351C4.3709 38.159 4.42956 37.9324 4.42956 37.671C4.42956 37.415 4.3709 37.1937 4.25356 37.007C4.14156 36.8204 3.9869 36.679 3.78956 36.583C3.59756 36.487 3.3869 36.439 3.15756 36.439C2.93356 36.439 2.7229 36.487 2.52556 36.583C2.33356 36.679 2.1789 36.8204 2.06156 37.007C1.94423 37.1937 1.88556 37.415 1.88556 37.671C1.88556 37.9324 1.94423 38.159 2.06156 38.351C2.1789 38.5377 2.33356 38.679 2.52556 38.775C2.71756 38.871 2.92823 38.919 3.15756 38.919ZM8.45788 39.599C7.76988 39.599 7.26588 39.399 6.94588 38.999C6.62588 38.599 6.45521 38.0737 6.43388 37.423C6.42854 37.279 6.42588 37.047 6.42588 36.727C6.42588 36.3964 6.42854 36.1564 6.43388 36.007C6.44988 35.367 6.62054 34.847 6.94588 34.447C7.27121 34.0417 7.77521 33.839 8.45788 33.839C9.14588 33.839 9.65254 34.0417 9.97788 34.447C10.3032 34.847 10.4739 35.367 10.4899 36.007C10.5005 36.3057 10.5059 36.5457 10.5059 36.727C10.5059 36.903 10.5005 37.135 10.4899 37.423C10.4685 38.0737 10.2979 38.599 9.97788 38.999C9.65788 39.399 9.15121 39.599 8.45788 39.599ZM8.45788 38.911C8.85788 38.911 9.15921 38.7777 9.36188 38.511C9.56988 38.2444 9.67921 37.8684 9.68988 37.383C9.70054 37.0737 9.70588 36.8497 9.70588 36.711C9.70588 36.5617 9.70054 36.343 9.68988 36.055C9.67921 35.575 9.57254 35.199 9.36988 34.927C9.16721 34.655 8.86321 34.519 8.45788 34.519C8.05788 34.519 7.75388 34.655 7.54588 34.927C7.34321 35.199 7.23654 35.575 7.22588 36.055L7.21788 36.711L7.22588 37.383C7.23654 37.8684 7.34321 38.2444 7.54588 38.511C7.75388 38.7777 8.05788 38.911 8.45788 38.911Z" fill="#FCFCFC"/>
<path d="M3.76113 72.0381C3.70779 72.0381 3.66246 72.0221 3.62513 71.9901C3.59313 71.9528 3.57713 71.9074 3.57713 71.8541V70.7021H0.985125C0.931792 70.7021 0.886459 70.6861 0.849125 70.6541C0.817125 70.6168 0.801125 70.5714 0.801125 70.5181V70.1981C0.801125 70.1181 0.830459 70.0381 0.889125 69.9581L3.28913 66.5741C3.31579 66.5314 3.35579 66.4994 3.40913 66.4781C3.46246 66.4514 3.52113 66.4381 3.58513 66.4381H4.16113C4.21446 66.4381 4.25713 66.4568 4.28913 66.4941C4.32646 66.5261 4.34513 66.5688 4.34513 66.6221V70.0061H5.06513C5.11846 70.0061 5.16379 70.0248 5.20113 70.0621C5.23846 70.0941 5.25713 70.1368 5.25713 70.1901V70.5181C5.25713 70.5714 5.23846 70.6168 5.20113 70.6541C5.16913 70.6861 5.12646 70.7021 5.07313 70.7021H4.34513V71.8541C4.34513 71.9074 4.32646 71.9528 4.28913 71.9901C4.25713 72.0221 4.21446 72.0381 4.16113 72.0381H3.76113ZM3.58513 70.0221V67.2781L1.65713 70.0221H3.58513ZM8.45788 72.1181C7.76988 72.1181 7.26588 71.9181 6.94588 71.5181C6.62588 71.1181 6.45521 70.5928 6.43388 69.9421C6.42854 69.7981 6.42588 69.5661 6.42588 69.2461C6.42588 68.9154 6.42854 68.6754 6.43388 68.5261C6.44988 67.8861 6.62054 67.3661 6.94588 66.9661C7.27121 66.5608 7.77521 66.3581 8.45788 66.3581C9.14588 66.3581 9.65254 66.5608 9.97788 66.9661C10.3032 67.3661 10.4739 67.8861 10.4899 68.5261C10.5005 68.8248 10.5059 69.0648 10.5059 69.2461C10.5059 69.4221 10.5005 69.6541 10.4899 69.9421C10.4685 70.5928 10.2979 71.1181 9.97788 71.5181C9.65788 71.9181 9.15121 72.1181 8.45788 72.1181ZM8.45788 71.4301C8.85788 71.4301 9.15921 71.2968 9.36188 71.0301C9.56988 70.7634 9.67921 70.3874 9.68988 69.9021C9.70054 69.5928 9.70588 69.3688 9.70588 69.2301C9.70588 69.0808 9.70054 68.8621 9.68988 68.5741C9.67921 68.0941 9.57254 67.7181 9.36988 67.4461C9.16721 67.1741 8.86321 67.0381 8.45788 67.0381C8.05788 67.0381 7.75388 67.1741 7.54588 67.4461C7.34321 67.7181 7.23654 68.0941 7.22588 68.5741L7.21788 69.2301L7.22588 69.9021C7.23654 70.3874 7.34321 70.7634 7.54588 71.0301C7.75388 71.2968 8.05788 71.4301 8.45788 71.4301Z" fill="#FCFCFC"/>
<path d="M1.81956 104.557C1.76622 104.557 1.72089 104.541 1.68356 104.509C1.65156 104.472 1.63556 104.426 1.63556 104.373V104.117C1.63556 103.994 1.70222 103.877 1.83556 103.765L3.53156 102.069C3.94222 101.728 4.22489 101.45 4.37956 101.237C4.53422 101.018 4.61156 100.789 4.61156 100.549C4.61156 100.24 4.52356 99.9971 4.34756 99.8211C4.17689 99.6451 3.92622 99.5571 3.59556 99.5571C3.28622 99.5571 3.03822 99.6505 2.85156 99.8371C2.66489 100.018 2.55022 100.261 2.50756 100.565C2.49689 100.629 2.47022 100.677 2.42756 100.709C2.39022 100.736 2.34756 100.749 2.29956 100.749H1.88356C1.83556 100.749 1.79556 100.736 1.76356 100.709C1.73156 100.677 1.71556 100.64 1.71556 100.597C1.72622 100.309 1.80356 100.034 1.94756 99.7731C2.09156 99.5065 2.30222 99.2905 2.57956 99.1251C2.86222 98.9545 3.20089 98.8691 3.59556 98.8691C4.19822 98.8691 4.65156 99.0265 4.95556 99.3411C5.26489 99.6505 5.41956 100.045 5.41956 100.525C5.41956 100.861 5.33422 101.165 5.16356 101.437C4.99822 101.704 4.73956 101.992 4.38756 102.301L2.85156 103.861H5.34756C5.40622 103.861 5.45156 103.88 5.48356 103.917C5.52089 103.949 5.53956 103.992 5.53956 104.045V104.373C5.53956 104.426 5.52089 104.472 5.48356 104.509C5.44622 104.541 5.40089 104.557 5.34756 104.557H1.81956ZM8.87487 104.637C8.18687 104.637 7.68287 104.437 7.36287 104.037C7.04287 103.637 6.8722 103.112 6.85087 102.461C6.84553 102.317 6.84287 102.085 6.84287 101.765C6.84287 101.434 6.84553 101.194 6.85087 101.045C6.86687 100.405 7.03753 99.8851 7.36287 99.4851C7.6882 99.0798 8.1922 98.8771 8.87487 98.8771C9.56287 98.8771 10.0695 99.0798 10.3949 99.4851C10.7202 99.8851 10.8909 100.405 10.9069 101.045C10.9175 101.344 10.9229 101.584 10.9229 101.765C10.9229 101.941 10.9175 102.173 10.9069 102.461C10.8855 103.112 10.7149 103.637 10.3949 104.037C10.0749 104.437 9.5682 104.637 8.87487 104.637ZM8.87487 103.949C9.27487 103.949 9.5762 103.816 9.77887 103.549C9.98687 103.282 10.0962 102.906 10.1069 102.421C10.1175 102.112 10.1229 101.888 10.1229 101.749C10.1229 101.6 10.1175 101.381 10.1069 101.093C10.0962 100.613 9.98953 100.237 9.78687 99.9651C9.5842 99.6931 9.2802 99.5571 8.87487 99.5571C8.47487 99.5571 8.17087 99.6931 7.96287 99.9651C7.7602 100.237 7.65353 100.613 7.64287 101.093L7.63487 101.749L7.64287 102.421C7.65353 102.906 7.7602 103.282 7.96287 103.549C8.17087 103.816 8.47487 103.949 8.87487 103.949Z" fill="#FCFCFC"/>
<path d="M8.62682 137.156C7.93882 137.156 7.43482 136.956 7.11482 136.556C6.79482 136.156 6.62415 135.63 6.60282 134.98C6.59749 134.836 6.59482 134.604 6.59482 134.284C6.59482 133.953 6.59749 133.713 6.60282 133.564C6.61882 132.924 6.78949 132.404 7.11482 132.004C7.44015 131.598 7.94415 131.396 8.62682 131.396C9.31482 131.396 9.82149 131.598 10.1468 132.004C10.4722 132.404 10.6428 132.924 10.6588 133.564C10.6695 133.862 10.6748 134.102 10.6748 134.284C10.6748 134.46 10.6695 134.692 10.6588 134.98C10.6375 135.63 10.4668 136.156 10.1468 136.556C9.82682 136.956 9.32015 137.156 8.62682 137.156ZM8.62682 136.468C9.02682 136.468 9.32815 136.334 9.53082 136.068C9.73882 135.801 9.84815 135.425 9.85882 134.94C9.86949 134.63 9.87482 134.406 9.87482 134.268C9.87482 134.118 9.86949 133.9 9.85882 133.612C9.84815 133.132 9.74149 132.756 9.53882 132.484C9.33615 132.212 9.03215 132.076 8.62682 132.076C8.22682 132.076 7.92282 132.212 7.71482 132.484C7.51215 132.756 7.40549 133.132 7.39482 133.612L7.38682 134.268L7.39482 134.94C7.40549 135.425 7.51215 135.801 7.71482 136.068C7.92282 136.334 8.22682 136.468 8.62682 136.468Z" fill="#FCFCFC"/>
<path d="M18.2403 150.08C17.8189 150.08 17.4536 150.013 17.1443 149.88C16.8403 149.741 16.6083 149.563 16.4483 149.344C16.2936 149.125 16.2109 148.896 16.2003 148.656C16.2003 148.608 16.2163 148.571 16.2483 148.544C16.2803 148.512 16.3203 148.496 16.3683 148.496H16.7603C16.8723 148.496 16.9469 148.555 16.9843 148.672C17.0536 148.939 17.2029 149.128 17.4323 149.24C17.6616 149.347 17.9309 149.4 18.2403 149.4C18.6189 149.4 18.9203 149.312 19.1443 149.136C19.3683 148.955 19.4803 148.696 19.4803 148.36C19.4803 147.715 19.0883 147.392 18.3043 147.392H17.5443C17.4909 147.392 17.4456 147.376 17.4083 147.344C17.3763 147.307 17.3603 147.261 17.3603 147.208V146.992C17.3603 146.917 17.3896 146.845 17.4483 146.776L19.0003 145.08H16.6403C16.5869 145.08 16.5416 145.064 16.5043 145.032C16.4723 144.995 16.4563 144.949 16.4563 144.896V144.592C16.4563 144.539 16.4723 144.493 16.5043 144.456C16.5416 144.419 16.5869 144.4 16.6403 144.4H19.8323C19.8909 144.4 19.9363 144.419 19.9683 144.456C20.0056 144.488 20.0243 144.533 20.0243 144.592V144.88C20.0243 144.944 19.9949 145.005 19.9363 145.064L18.3923 146.784L18.5203 146.792C19.0643 146.808 19.4936 146.949 19.8083 147.216C20.1229 147.483 20.2803 147.872 20.2803 148.384C20.2803 148.731 20.1923 149.032 20.0163 149.288C19.8403 149.544 19.5976 149.741 19.2883 149.88C18.9789 150.013 18.6296 150.08 18.2403 150.08ZM24.1979 150C24.1445 150 24.0992 149.984 24.0619 149.952C24.0299 149.915 24.0139 149.869 24.0139 149.816V146.024C24.0139 145.971 24.0299 145.928 24.0619 145.896C24.0992 145.859 24.1445 145.84 24.1979 145.84H24.5579C24.6112 145.84 24.6539 145.859 24.6859 145.896C24.7232 145.928 24.7419 145.971 24.7419 146.024V146.304C25.0192 145.941 25.4059 145.76 25.9019 145.76C26.4939 145.76 26.9125 146.005 27.1579 146.496C27.2859 146.272 27.4672 146.093 27.7019 145.96C27.9365 145.827 28.2005 145.76 28.4939 145.76C28.9312 145.76 29.2885 145.909 29.5659 146.208C29.8432 146.507 29.9819 146.939 29.9819 147.504V149.816C29.9819 149.869 29.9632 149.915 29.9259 149.952C29.8939 149.984 29.8512 150 29.7979 150H29.4219C29.3685 150 29.3232 149.984 29.2859 149.952C29.2539 149.915 29.2379 149.869 29.2379 149.816V147.576C29.2379 147.16 29.1499 146.861 28.9739 146.68C28.8032 146.499 28.5765 146.408 28.2939 146.408C28.0432 146.408 27.8272 146.501 27.6459 146.688C27.4645 146.869 27.3739 147.165 27.3739 147.576V149.816C27.3739 149.869 27.3552 149.915 27.3179 149.952C27.2859 149.984 27.2432 150 27.1899 150H26.8139C26.7605 150 26.7152 149.984 26.6779 149.952C26.6459 149.915 26.6299 149.869 26.6299 149.816V147.576C26.6299 147.16 26.5392 146.861 26.3579 146.68C26.1819 146.499 25.9579 146.408 25.6859 146.408C25.4352 146.408 25.2192 146.501 25.0379 146.688C24.8565 146.869 24.7659 147.163 24.7659 147.568V149.816C24.7659 149.869 24.7472 149.915 24.7099 149.952C24.6779 149.984 24.6352 150 24.5819 150H24.1979ZM33.2273 150.08C32.6406 150.08 32.1846 149.915 31.8593 149.584C31.5393 149.253 31.3686 148.813 31.3473 148.264L31.3393 147.92L31.3473 147.576C31.3686 147.032 31.5419 146.595 31.8673 146.264C32.1926 145.928 32.6459 145.76 33.2273 145.76C33.8086 145.76 34.2619 145.928 34.5873 146.264C34.9126 146.595 35.0859 147.032 35.1073 147.576C35.1126 147.635 35.1153 147.749 35.1153 147.92C35.1153 148.091 35.1126 148.205 35.1073 148.264C35.0859 148.813 34.9126 149.253 34.5873 149.584C34.2673 149.915 33.8139 150.08 33.2273 150.08ZM33.2273 149.464C33.5633 149.464 33.8273 149.357 34.0193 149.144C34.2166 148.931 34.3233 148.624 34.3393 148.224C34.3446 148.171 34.3473 148.069 34.3473 147.92C34.3473 147.771 34.3446 147.669 34.3393 147.616C34.3233 147.216 34.2166 146.909 34.0193 146.696C33.8273 146.483 33.5633 146.376 33.2273 146.376C32.8913 146.376 32.6246 146.483 32.4273 146.696C32.2299 146.909 32.1259 147.216 32.1153 147.616L32.1073 147.92L32.1153 148.224C32.1259 148.624 32.2299 148.931 32.4273 149.144C32.6246 149.357 32.8913 149.464 33.2273 149.464ZM36.701 150C36.6477 150 36.6023 149.984 36.565 149.952C36.533 149.915 36.517 149.869 36.517 149.816V146.024C36.517 145.971 36.533 145.928 36.565 145.896C36.6023 145.859 36.6477 145.84 36.701 145.84H37.077C37.1303 145.84 37.173 145.859 37.205 145.896C37.2423 145.928 37.261 145.971 37.261 146.024V146.376C37.4157 146.179 37.597 146.027 37.805 145.92C38.0183 145.813 38.2823 145.76 38.597 145.76C39.109 145.76 39.5063 145.925 39.789 146.256C40.077 146.581 40.221 147.016 40.221 147.56V149.816C40.221 149.869 40.2023 149.915 40.165 149.952C40.133 149.984 40.0903 150 40.037 150H39.637C39.5837 150 39.5383 149.984 39.501 149.952C39.469 149.915 39.453 149.869 39.453 149.816V147.6C39.453 147.221 39.3597 146.928 39.173 146.72C38.9917 146.512 38.7277 146.408 38.381 146.408C38.045 146.408 37.7783 146.515 37.581 146.728C37.3837 146.936 37.285 147.227 37.285 147.6V149.816C37.285 149.869 37.2663 149.915 37.229 149.952C37.197 149.984 37.1543 150 37.101 150H36.701ZM43.3379 150C42.4952 150 42.0739 149.531 42.0739 148.592V146.48H41.4499C41.3965 146.48 41.3512 146.464 41.3139 146.432C41.2819 146.395 41.2659 146.349 41.2659 146.296V146.024C41.2659 145.971 41.2819 145.928 41.3139 145.896C41.3512 145.859 41.3965 145.84 41.4499 145.84H42.0739V144.504C42.0739 144.451 42.0899 144.408 42.1219 144.376C42.1592 144.339 42.2045 144.32 42.2579 144.32H42.6339C42.6872 144.32 42.7299 144.339 42.7619 144.376C42.7992 144.408 42.8179 144.451 42.8179 144.504V145.84H43.8099C43.8632 145.84 43.9059 145.859 43.9379 145.896C43.9752 145.928 43.9939 145.971 43.9939 146.024V146.296C43.9939 146.349 43.9752 146.395 43.9379 146.432C43.9059 146.464 43.8632 146.48 43.8099 146.48H42.8179V148.536C42.8179 148.803 42.8632 149.005 42.9539 149.144C43.0445 149.277 43.1939 149.344 43.4019 149.344H43.8899C43.9432 149.344 43.9859 149.363 44.0179 149.4C44.0552 149.432 44.0739 149.475 44.0739 149.528V149.816C44.0739 149.869 44.0552 149.915 44.0179 149.952C43.9859 149.984 43.9432 150 43.8899 150H43.3379ZM45.4309 150C45.3775 150 45.3322 149.984 45.2949 149.952C45.2629 149.915 45.2469 149.869 45.2469 149.816V144.504C45.2469 144.451 45.2629 144.408 45.2949 144.376C45.3322 144.339 45.3775 144.32 45.4309 144.32H45.8309C45.8842 144.32 45.9269 144.339 45.9589 144.376C45.9962 144.408 46.0149 144.451 46.0149 144.504V146.368C46.1695 146.171 46.3509 146.021 46.5589 145.92C46.7669 145.813 47.0255 145.76 47.3349 145.76C47.8469 145.76 48.2442 145.925 48.5269 146.256C48.8149 146.581 48.9589 147.016 48.9589 147.56V149.816C48.9589 149.869 48.9402 149.915 48.9029 149.952C48.8709 149.984 48.8282 150 48.7749 150H48.3749C48.3215 150 48.2762 149.984 48.2389 149.952C48.2069 149.915 48.1909 149.869 48.1909 149.816V147.6C48.1909 147.221 48.0975 146.928 47.9109 146.72C47.7295 146.512 47.4655 146.408 47.1189 146.408C46.7829 146.408 46.5135 146.515 46.3109 146.728C46.1135 146.936 46.0149 147.227 46.0149 147.6V149.816C46.0149 149.869 45.9962 149.915 45.9589 149.952C45.9269 149.984 45.8842 150 45.8309 150H45.4309ZM51.9539 150.08C51.5805 150.08 51.2659 150.021 51.0099 149.904C50.7592 149.781 50.5699 149.643 50.4419 149.488C50.3192 149.333 50.2579 149.205 50.2579 149.104C50.2579 149.051 50.2765 149.011 50.3139 148.984C50.3565 148.952 50.3992 148.936 50.4419 148.936H50.8019C50.8552 148.936 50.9032 148.963 50.9459 149.016C51.0739 149.165 51.2125 149.283 51.3619 149.368C51.5112 149.453 51.7112 149.496 51.9619 149.496C52.2392 149.496 52.4632 149.443 52.6339 149.336C52.8099 149.224 52.8979 149.072 52.8979 148.88C52.8979 148.752 52.8605 148.648 52.7859 148.568C52.7165 148.483 52.5939 148.411 52.4179 148.352C52.2472 148.288 51.9912 148.219 51.6499 148.144C51.1859 148.043 50.8552 147.896 50.6579 147.704C50.4659 147.512 50.3699 147.264 50.3699 146.96C50.3699 146.757 50.4285 146.565 50.5459 146.384C50.6685 146.197 50.8445 146.048 51.0739 145.936C51.3085 145.819 51.5885 145.76 51.9139 145.76C52.2552 145.76 52.5459 145.816 52.7859 145.928C53.0259 146.04 53.2045 146.173 53.3219 146.328C53.4445 146.477 53.5059 146.603 53.5059 146.704C53.5059 146.752 53.4872 146.792 53.4499 146.824C53.4179 146.856 53.3779 146.872 53.3299 146.872H52.9939C52.9299 146.872 52.8765 146.845 52.8339 146.792C52.7485 146.691 52.6739 146.613 52.6099 146.56C52.5512 146.501 52.4632 146.451 52.3459 146.408C52.2339 146.365 52.0899 146.344 51.9139 146.344C51.6579 146.344 51.4605 146.4 51.3219 146.512C51.1832 146.619 51.1139 146.76 51.1139 146.936C51.1139 147.048 51.1432 147.144 51.2019 147.224C51.2605 147.299 51.3725 147.368 51.5379 147.432C51.7085 147.496 51.9539 147.563 52.2739 147.632C52.7805 147.739 53.1379 147.893 53.3459 148.096C53.5592 148.293 53.6659 148.547 53.6659 148.856C53.6659 149.085 53.5992 149.293 53.4659 149.48C53.3325 149.667 53.1352 149.813 52.8739 149.92C52.6179 150.027 52.3112 150.08 51.9539 150.08Z" fill="#FCFCFC"/>
<path d="M91.8408 150C91.7875 150 91.7421 149.984 91.7048 149.952C91.6728 149.915 91.6568 149.869 91.6568 149.816V145.336L90.3288 146.36C90.2915 146.392 90.2515 146.408 90.2088 146.408C90.1608 146.408 90.1155 146.381 90.0728 146.328L89.8648 146.064C89.8381 146.027 89.8248 145.989 89.8248 145.952C89.8248 145.888 89.8515 145.837 89.9048 145.8L91.6488 144.456C91.7075 144.419 91.7768 144.4 91.8568 144.4H92.2648C92.3181 144.4 92.3608 144.419 92.3928 144.456C92.4301 144.488 92.4488 144.531 92.4488 144.584V149.816C92.4488 149.869 92.4301 149.915 92.3928 149.952C92.3608 149.984 92.3181 150 92.2648 150H91.8408ZM96.9169 151.52C96.8742 151.52 96.8369 151.504 96.8049 151.472C96.7729 151.44 96.7569 151.403 96.7569 151.36C96.7569 151.323 96.7702 151.275 96.7969 151.216L97.4129 149.752L95.8849 146.144C95.8582 146.075 95.8449 146.029 95.8449 146.008C95.8449 145.96 95.8609 145.92 95.8929 145.888C95.9249 145.856 95.9649 145.84 96.0129 145.84H96.4049C96.4902 145.84 96.5542 145.885 96.5969 145.976L97.8129 148.888L99.0609 145.976C99.1035 145.885 99.1702 145.84 99.2609 145.84H99.6369C99.6849 145.84 99.7249 145.856 99.7569 145.888C99.7889 145.92 99.8049 145.957 99.8049 146C99.8049 146.016 99.7915 146.064 99.7649 146.144L97.4929 151.384C97.4502 151.475 97.3835 151.52 97.2929 151.52H96.9169ZM102.526 150.08C101.977 150.08 101.537 149.912 101.206 149.576C100.881 149.235 100.702 148.771 100.67 148.184L100.662 147.912L100.67 147.648C100.708 147.072 100.889 146.613 101.214 146.272C101.545 145.931 101.98 145.76 102.518 145.76C103.11 145.76 103.569 145.949 103.894 146.328C104.22 146.701 104.382 147.208 104.382 147.848V147.984C104.382 148.037 104.364 148.083 104.326 148.12C104.294 148.152 104.252 148.168 104.198 148.168H101.43V148.24C101.446 148.587 101.55 148.883 101.742 149.128C101.94 149.368 102.198 149.488 102.518 149.488C102.764 149.488 102.964 149.44 103.118 149.344C103.278 149.243 103.396 149.139 103.47 149.032C103.518 148.968 103.553 148.931 103.574 148.92C103.601 148.904 103.646 148.896 103.71 148.896H104.102C104.15 148.896 104.19 148.909 104.222 148.936C104.254 148.963 104.27 149 104.27 149.048C104.27 149.165 104.196 149.307 104.046 149.472C103.902 149.637 103.697 149.781 103.43 149.904C103.169 150.021 102.868 150.08 102.526 150.08ZM103.622 147.616V147.592C103.622 147.224 103.521 146.925 103.318 146.696C103.121 146.461 102.854 146.344 102.518 146.344C102.182 146.344 101.916 146.461 101.718 146.696C101.526 146.925 101.43 147.224 101.43 147.592V147.616H103.622ZM106.899 150.08C106.638 150.08 106.395 150.027 106.171 149.92C105.947 149.813 105.768 149.669 105.635 149.488C105.507 149.301 105.443 149.096 105.443 148.872C105.443 148.52 105.587 148.232 105.875 148.008C106.168 147.779 106.563 147.629 107.059 147.56L108.251 147.392V147.16C108.251 146.616 107.939 146.344 107.315 146.344C107.08 146.344 106.888 146.395 106.739 146.496C106.59 146.592 106.478 146.707 106.403 146.84C106.387 146.888 106.366 146.923 106.339 146.944C106.318 146.965 106.286 146.976 106.243 146.976H105.899C105.851 146.976 105.808 146.96 105.771 146.928C105.739 146.891 105.723 146.848 105.723 146.8C105.728 146.672 105.787 146.528 105.899 146.368C106.016 146.203 106.195 146.061 106.435 145.944C106.675 145.821 106.971 145.76 107.323 145.76C107.92 145.76 108.35 145.901 108.611 146.184C108.872 146.461 109.003 146.808 109.003 147.224V149.816C109.003 149.869 108.984 149.915 108.947 149.952C108.915 149.984 108.872 150 108.819 150H108.451C108.398 150 108.352 149.984 108.315 149.952C108.283 149.915 108.267 149.869 108.267 149.816V149.472C108.15 149.643 107.979 149.787 107.755 149.904C107.531 150.021 107.246 150.08 106.899 150.08ZM107.067 149.48C107.414 149.48 107.696 149.368 107.915 149.144C108.139 148.915 108.251 148.587 108.251 148.16V147.936L107.323 148.072C106.944 148.125 106.659 148.216 106.467 148.344C106.275 148.467 106.179 148.624 106.179 148.816C106.179 149.029 106.267 149.195 106.443 149.312C106.619 149.424 106.827 149.48 107.067 149.48ZM110.737 150C110.684 150 110.638 149.984 110.601 149.952C110.569 149.915 110.553 149.869 110.553 149.816V146.032C110.553 145.979 110.569 145.933 110.601 145.896C110.638 145.859 110.684 145.84 110.737 145.84H111.105C111.158 145.84 111.204 145.859 111.241 145.896C111.278 145.933 111.297 145.979 111.297 146.032V146.384C111.516 146.021 111.889 145.84 112.417 145.84H112.729C112.782 145.84 112.825 145.859 112.857 145.896C112.894 145.928 112.913 145.971 112.913 146.024V146.352C112.913 146.405 112.894 146.448 112.857 146.48C112.825 146.512 112.782 146.528 112.729 146.528H112.249C111.961 146.528 111.734 146.613 111.569 146.784C111.404 146.949 111.321 147.176 111.321 147.464V149.816C111.321 149.869 111.302 149.915 111.265 149.952C111.228 149.984 111.182 150 111.129 150H110.737Z" fill="#FCFCFC"/>
<path d="M181.457 150C181.404 150 181.359 149.984 181.321 149.952C181.289 149.915 181.273 149.869 181.273 149.816V149.56C181.273 149.437 181.34 149.32 181.473 149.208L183.169 147.512C183.58 147.171 183.863 146.893 184.017 146.68C184.172 146.461 184.249 146.232 184.249 145.992C184.249 145.683 184.161 145.44 183.985 145.264C183.815 145.088 183.564 145 183.233 145C182.924 145 182.676 145.093 182.489 145.28C182.303 145.461 182.188 145.704 182.145 146.008C182.135 146.072 182.108 146.12 182.065 146.152C182.028 146.179 181.985 146.192 181.937 146.192H181.521C181.473 146.192 181.433 146.179 181.401 146.152C181.369 146.12 181.353 146.083 181.353 146.04C181.364 145.752 181.441 145.477 181.585 145.216C181.729 144.949 181.94 144.733 182.217 144.568C182.5 144.397 182.839 144.312 183.233 144.312C183.836 144.312 184.289 144.469 184.593 144.784C184.903 145.093 185.057 145.488 185.057 145.968C185.057 146.304 184.972 146.608 184.801 146.88C184.636 147.147 184.377 147.435 184.025 147.744L182.489 149.304H184.985C185.044 149.304 185.089 149.323 185.121 149.36C185.159 149.392 185.177 149.435 185.177 149.488V149.816C185.177 149.869 185.159 149.915 185.121 149.952C185.084 149.984 185.039 150 184.985 150H181.457ZM189.439 151.52C189.396 151.52 189.359 151.504 189.327 151.472C189.295 151.44 189.279 151.403 189.279 151.36C189.279 151.323 189.292 151.275 189.319 151.216L189.935 149.752L188.407 146.144C188.38 146.075 188.367 146.029 188.367 146.008C188.367 145.96 188.383 145.92 188.415 145.888C188.447 145.856 188.487 145.84 188.535 145.84H188.927C189.012 145.84 189.076 145.885 189.119 145.976L190.335 148.888L191.583 145.976C191.625 145.885 191.692 145.84 191.783 145.84H192.159C192.207 145.84 192.247 145.856 192.279 145.888C192.311 145.92 192.327 145.957 192.327 146C192.327 146.016 192.313 146.064 192.287 146.144L190.015 151.384C189.972 151.475 189.905 151.52 189.815 151.52H189.439ZM195.048 150.08C194.499 150.08 194.059 149.912 193.728 149.576C193.403 149.235 193.224 148.771 193.192 148.184L193.184 147.912L193.192 147.648C193.23 147.072 193.411 146.613 193.736 146.272C194.067 145.931 194.502 145.76 195.04 145.76C195.632 145.76 196.091 145.949 196.416 146.328C196.742 146.701 196.904 147.208 196.904 147.848V147.984C196.904 148.037 196.886 148.083 196.848 148.12C196.816 148.152 196.774 148.168 196.72 148.168H193.952V148.24C193.968 148.587 194.072 148.883 194.264 149.128C194.462 149.368 194.72 149.488 195.04 149.488C195.286 149.488 195.486 149.44 195.64 149.344C195.8 149.243 195.918 149.139 195.992 149.032C196.04 148.968 196.075 148.931 196.096 148.92C196.123 148.904 196.168 148.896 196.232 148.896H196.624C196.672 148.896 196.712 148.909 196.744 148.936C196.776 148.963 196.792 149 196.792 149.048C196.792 149.165 196.718 149.307 196.568 149.472C196.424 149.637 196.219 149.781 195.952 149.904C195.691 150.021 195.39 150.08 195.048 150.08ZM196.144 147.616V147.592C196.144 147.224 196.043 146.925 195.84 146.696C195.643 146.461 195.376 146.344 195.04 146.344C194.704 146.344 194.438 146.461 194.24 146.696C194.048 146.925 193.952 147.224 193.952 147.592V147.616H196.144ZM199.421 150.08C199.159 150.08 198.917 150.027 198.693 149.92C198.469 149.813 198.29 149.669 198.157 149.488C198.029 149.301 197.965 149.096 197.965 148.872C197.965 148.52 198.109 148.232 198.397 148.008C198.69 147.779 199.085 147.629 199.581 147.56L200.773 147.392V147.16C200.773 146.616 200.461 146.344 199.837 146.344C199.602 146.344 199.41 146.395 199.261 146.496C199.111 146.592 198.999 146.707 198.925 146.84C198.909 146.888 198.887 146.923 198.861 146.944C198.839 146.965 198.807 146.976 198.765 146.976H198.421C198.373 146.976 198.33 146.96 198.293 146.928C198.261 146.891 198.245 146.848 198.245 146.8C198.25 146.672 198.309 146.528 198.421 146.368C198.538 146.203 198.717 146.061 198.957 145.944C199.197 145.821 199.493 145.76 199.845 145.76C200.442 145.76 200.871 145.901 201.133 146.184C201.394 146.461 201.525 146.808 201.525 147.224V149.816C201.525 149.869 201.506 149.915 201.469 149.952C201.437 149.984 201.394 150 201.341 150H200.973C200.919 150 200.874 149.984 200.837 149.952C200.805 149.915 200.789 149.869 200.789 149.816V149.472C200.671 149.643 200.501 149.787 200.277 149.904C200.053 150.021 199.767 150.08 199.421 150.08ZM199.589 149.48C199.935 149.48 200.218 149.368 200.437 149.144C200.661 148.915 200.773 148.587 200.773 148.16V147.936L199.845 148.072C199.466 148.125 199.181 148.216 198.989 148.344C198.797 148.467 198.701 148.624 198.701 148.816C198.701 149.029 198.789 149.195 198.965 149.312C199.141 149.424 199.349 149.48 199.589 149.48ZM203.259 150C203.205 150 203.16 149.984 203.123 149.952C203.091 149.915 203.075 149.869 203.075 149.816V146.032C203.075 145.979 203.091 145.933 203.123 145.896C203.16 145.859 203.205 145.84 203.259 145.84H203.627C203.68 145.84 203.725 145.859 203.763 145.896C203.8 145.933 203.819 145.979 203.819 146.032V146.384C204.037 146.021 204.411 145.84 204.939 145.84H205.251C205.304 145.84 205.347 145.859 205.379 145.896C205.416 145.928 205.435 145.971 205.435 146.024V146.352C205.435 146.405 205.416 146.448 205.379 146.48C205.347 146.512 205.304 146.528 205.251 146.528H204.771C204.483 146.528 204.256 146.613 204.091 146.784C203.925 146.949 203.843 147.176 203.843 147.464V149.816C203.843 149.869 203.824 149.915 203.787 149.952C203.749 149.984 203.704 150 203.651 150H203.259ZM207.954 150.08C207.581 150.08 207.266 150.021 207.01 149.904C206.759 149.781 206.57 149.643 206.442 149.488C206.319 149.333 206.258 149.205 206.258 149.104C206.258 149.051 206.277 149.011 206.314 148.984C206.357 148.952 206.399 148.936 206.442 148.936H206.802C206.855 148.936 206.903 148.963 206.946 149.016C207.074 149.165 207.213 149.283 207.362 149.368C207.511 149.453 207.711 149.496 207.962 149.496C208.239 149.496 208.463 149.443 208.634 149.336C208.81 149.224 208.898 149.072 208.898 148.88C208.898 148.752 208.861 148.648 208.786 148.568C208.717 148.483 208.594 148.411 208.418 148.352C208.247 148.288 207.991 148.219 207.65 148.144C207.186 148.043 206.855 147.896 206.658 147.704C206.466 147.512 206.37 147.264 206.37 146.96C206.37 146.757 206.429 146.565 206.546 146.384C206.669 146.197 206.845 146.048 207.074 145.936C207.309 145.819 207.589 145.76 207.914 145.76C208.255 145.76 208.546 145.816 208.786 145.928C209.026 146.04 209.205 146.173 209.322 146.328C209.445 146.477 209.506 146.603 209.506 146.704C209.506 146.752 209.487 146.792 209.45 146.824C209.418 146.856 209.378 146.872 209.33 146.872H208.994C208.93 146.872 208.877 146.845 208.834 146.792C208.749 146.691 208.674 146.613 208.61 146.56C208.551 146.501 208.463 146.451 208.346 146.408C208.234 146.365 208.09 146.344 207.914 146.344C207.658 146.344 207.461 146.4 207.322 146.512C207.183 146.619 207.114 146.76 207.114 146.936C207.114 147.048 207.143 147.144 207.202 147.224C207.261 147.299 207.373 147.368 207.538 147.432C207.709 147.496 207.954 147.563 208.274 147.632C208.781 147.739 209.138 147.893 209.346 148.096C209.559 148.293 209.666 148.547 209.666 148.856C209.666 149.085 209.599 149.293 209.466 149.48C209.333 149.667 209.135 149.813 208.874 149.92C208.618 150.027 208.311 150.08 207.954 150.08Z" fill="#FCFCFC"/>
<path d="M271.156 150.08C270.735 150.08 270.369 150.013 270.06 149.88C269.756 149.741 269.524 149.563 269.364 149.344C269.209 149.125 269.127 148.896 269.116 148.656C269.116 148.608 269.132 148.571 269.164 148.544C269.196 148.512 269.236 148.496 269.284 148.496H269.676C269.788 148.496 269.863 148.555 269.9 148.672C269.969 148.939 270.119 149.128 270.348 149.24C270.577 149.347 270.847 149.4 271.156 149.4C271.535 149.4 271.836 149.312 272.06 149.136C272.284 148.955 272.396 148.696 272.396 148.36C272.396 147.715 272.004 147.392 271.22 147.392H270.46C270.407 147.392 270.361 147.376 270.324 147.344C270.292 147.307 270.276 147.261 270.276 147.208V146.992C270.276 146.917 270.305 146.845 270.364 146.776L271.916 145.08H269.556C269.503 145.08 269.457 145.064 269.42 145.032C269.388 144.995 269.372 144.949 269.372 144.896V144.592C269.372 144.539 269.388 144.493 269.42 144.456C269.457 144.419 269.503 144.4 269.556 144.4H272.748C272.807 144.4 272.852 144.419 272.884 144.456C272.921 144.488 272.94 144.533 272.94 144.592V144.88C272.94 144.944 272.911 145.005 272.852 145.064L271.308 146.784L271.436 146.792C271.98 146.808 272.409 146.949 272.724 147.216C273.039 147.483 273.196 147.872 273.196 148.384C273.196 148.731 273.108 149.032 272.932 149.288C272.756 149.544 272.513 149.741 272.204 149.88C271.895 150.013 271.545 150.08 271.156 150.08ZM277.439 151.52C277.396 151.52 277.359 151.504 277.327 151.472C277.295 151.44 277.279 151.403 277.279 151.36C277.279 151.323 277.292 151.275 277.319 151.216L277.935 149.752L276.407 146.144C276.38 146.075 276.367 146.029 276.367 146.008C276.367 145.96 276.383 145.92 276.415 145.888C276.447 145.856 276.487 145.84 276.535 145.84H276.927C277.012 145.84 277.076 145.885 277.119 145.976L278.335 148.888L279.583 145.976C279.625 145.885 279.692 145.84 279.783 145.84H280.159C280.207 145.84 280.247 145.856 280.279 145.888C280.311 145.92 280.327 145.957 280.327 146C280.327 146.016 280.313 146.064 280.287 146.144L278.015 151.384C277.972 151.475 277.905 151.52 277.815 151.52H277.439ZM283.048 150.08C282.499 150.08 282.059 149.912 281.728 149.576C281.403 149.235 281.224 148.771 281.192 148.184L281.184 147.912L281.192 147.648C281.23 147.072 281.411 146.613 281.736 146.272C282.067 145.931 282.502 145.76 283.04 145.76C283.632 145.76 284.091 145.949 284.416 146.328C284.742 146.701 284.904 147.208 284.904 147.848V147.984C284.904 148.037 284.886 148.083 284.848 148.12C284.816 148.152 284.774 148.168 284.72 148.168H281.952V148.24C281.968 148.587 282.072 148.883 282.264 149.128C282.462 149.368 282.72 149.488 283.04 149.488C283.286 149.488 283.486 149.44 283.64 149.344C283.8 149.243 283.918 149.139 283.992 149.032C284.04 148.968 284.075 148.931 284.096 148.92C284.123 148.904 284.168 148.896 284.232 148.896H284.624C284.672 148.896 284.712 148.909 284.744 148.936C284.776 148.963 284.792 149 284.792 149.048C284.792 149.165 284.718 149.307 284.568 149.472C284.424 149.637 284.219 149.781 283.952 149.904C283.691 150.021 283.39 150.08 283.048 150.08ZM284.144 147.616V147.592C284.144 147.224 284.043 146.925 283.84 146.696C283.643 146.461 283.376 146.344 283.04 146.344C282.704 146.344 282.438 146.461 282.24 146.696C282.048 146.925 281.952 147.224 281.952 147.592V147.616H284.144ZM287.421 150.08C287.159 150.08 286.917 150.027 286.693 149.92C286.469 149.813 286.29 149.669 286.157 149.488C286.029 149.301 285.965 149.096 285.965 148.872C285.965 148.52 286.109 148.232 286.397 148.008C286.69 147.779 287.085 147.629 287.581 147.56L288.773 147.392V147.16C288.773 146.616 288.461 146.344 287.837 146.344C287.602 146.344 287.41 146.395 287.261 146.496C287.111 146.592 286.999 146.707 286.925 146.84C286.909 146.888 286.887 146.923 286.861 146.944C286.839 146.965 286.807 146.976 286.765 146.976H286.421C286.373 146.976 286.33 146.96 286.293 146.928C286.261 146.891 286.245 146.848 286.245 146.8C286.25 146.672 286.309 146.528 286.421 146.368C286.538 146.203 286.717 146.061 286.957 145.944C287.197 145.821 287.493 145.76 287.845 145.76C288.442 145.76 288.871 145.901 289.133 146.184C289.394 146.461 289.525 146.808 289.525 147.224V149.816C289.525 149.869 289.506 149.915 289.469 149.952C289.437 149.984 289.394 150 289.341 150H288.973C288.919 150 288.874 149.984 288.837 149.952C288.805 149.915 288.789 149.869 288.789 149.816V149.472C288.671 149.643 288.501 149.787 288.277 149.904C288.053 150.021 287.767 150.08 287.421 150.08ZM287.589 149.48C287.935 149.48 288.218 149.368 288.437 149.144C288.661 148.915 288.773 148.587 288.773 148.16V147.936L287.845 148.072C287.466 148.125 287.181 148.216 286.989 148.344C286.797 148.467 286.701 148.624 286.701 148.816C286.701 149.029 286.789 149.195 286.965 149.312C287.141 149.424 287.349 149.48 287.589 149.48ZM291.259 150C291.205 150 291.16 149.984 291.123 149.952C291.091 149.915 291.075 149.869 291.075 149.816V146.032C291.075 145.979 291.091 145.933 291.123 145.896C291.16 145.859 291.205 145.84 291.259 145.84H291.627C291.68 145.84 291.725 145.859 291.763 145.896C291.8 145.933 291.819 145.979 291.819 146.032V146.384C292.037 146.021 292.411 145.84 292.939 145.84H293.251C293.304 145.84 293.347 145.859 293.379 145.896C293.416 145.928 293.435 145.971 293.435 146.024V146.352C293.435 146.405 293.416 146.448 293.379 146.48C293.347 146.512 293.304 146.528 293.251 146.528H292.771C292.483 146.528 292.256 146.613 292.091 146.784C291.925 146.949 291.843 147.176 291.843 147.464V149.816C291.843 149.869 291.824 149.915 291.787 149.952C291.749 149.984 291.704 150 291.651 150H291.259ZM295.954 150.08C295.581 150.08 295.266 150.021 295.01 149.904C294.759 149.781 294.57 149.643 294.442 149.488C294.319 149.333 294.258 149.205 294.258 149.104C294.258 149.051 294.277 149.011 294.314 148.984C294.357 148.952 294.399 148.936 294.442 148.936H294.802C294.855 148.936 294.903 148.963 294.946 149.016C295.074 149.165 295.213 149.283 295.362 149.368C295.511 149.453 295.711 149.496 295.962 149.496C296.239 149.496 296.463 149.443 296.634 149.336C296.81 149.224 296.898 149.072 296.898 148.88C296.898 148.752 296.861 148.648 296.786 148.568C296.717 148.483 296.594 148.411 296.418 148.352C296.247 148.288 295.991 148.219 295.65 148.144C295.186 148.043 294.855 147.896 294.658 147.704C294.466 147.512 294.37 147.264 294.37 146.96C294.37 146.757 294.429 146.565 294.546 146.384C294.669 146.197 294.845 146.048 295.074 145.936C295.309 145.819 295.589 145.76 295.914 145.76C296.255 145.76 296.546 145.816 296.786 145.928C297.026 146.04 297.205 146.173 297.322 146.328C297.445 146.477 297.506 146.603 297.506 146.704C297.506 146.752 297.487 146.792 297.45 146.824C297.418 146.856 297.378 146.872 297.33 146.872H296.994C296.93 146.872 296.877 146.845 296.834 146.792C296.749 146.691 296.674 146.613 296.61 146.56C296.551 146.501 296.463 146.451 296.346 146.408C296.234 146.365 296.09 146.344 295.914 146.344C295.658 146.344 295.461 146.4 295.322 146.512C295.183 146.619 295.114 146.76 295.114 146.936C295.114 147.048 295.143 147.144 295.202 147.224C295.261 147.299 295.373 147.368 295.538 147.432C295.709 147.496 295.954 147.563 296.274 147.632C296.781 147.739 297.138 147.893 297.346 148.096C297.559 148.293 297.666 148.547 297.666 148.856C297.666 149.085 297.599 149.293 297.466 149.48C297.333 149.667 297.135 149.813 296.874 149.92C296.618 150.027 296.311 150.08 295.954 150.08Z" fill="#FCFCFC"/>
<path d="M38.9161 118.835L16.6055 134.796H296V11L198.161 31.6667L106.871 63.9969L38.9161 118.835Z" fill="#C2E5CB"/>
<path d="M16.6055 134.591L38.9161 118.835L106.871 63.9969L198.161 31.6667L296 11" stroke="#34A853" stroke-width="0.818485"/>
<path d="M64.7195 124.974L39.5225 135H296V90.8018H196.031L106.51 103.898L64.7195 124.974Z" fill="#FEEBB3"/>
<path d="M39.3765 134.208C39.1654 134.289 39.0595 134.525 39.1401 134.737C39.2207 134.948 39.4572 135.054 39.6684 134.973L39.3765 134.208ZM64.7195 124.974L64.8655 125.356L64.8851 125.348L64.9038 125.339L64.7195 124.974ZM106.51 103.898L106.451 103.493L106.385 103.502L106.326 103.532L106.51 103.898ZM196.031 90.8018V90.3925H196.001L195.972 90.3968L196.031 90.8018ZM39.6684 134.973L64.8655 125.356L64.5736 124.591L39.3765 134.208L39.6684 134.973ZM64.9038 125.339L106.694 104.263L106.326 103.532L64.5353 124.608L64.9038 125.339ZM106.569 104.302L196.09 91.2067L195.972 90.3968L106.451 103.493L106.569 104.302ZM196.031 91.211H296V90.3925H196.031V91.211Z" fill="#FFBF00"/>
<path d="M67.4432 125.359L40 135H296V111H196.058H106.56L67.4432 125.359Z" fill="#F9C6C2"/>
<path d="M39.8644 134.614L39.4782 134.75L39.7495 135.522L40.1356 135.386L39.8644 134.614ZM67.4432 125.359L67.5789 125.745L67.5842 125.743L67.4432 125.359ZM106.56 111V110.591H106.487L106.419 110.616L106.56 111ZM40.1356 135.386L67.5788 125.745L67.3076 124.973L39.8644 134.614L40.1356 135.386ZM67.5842 125.743L106.701 111.384L106.419 110.616L67.3022 124.975L67.5842 125.743ZM106.56 111.409H196.058V110.591H106.56V111.409ZM196.058 111.409H296V110.591H196.058V111.409Z" fill="#EA4335"/>
<path d="M63.861 131.317L40.1357 134.591H296V126.815H194.759H104.971L63.861 131.317Z" fill="#C6DAFC"/>
<path d="M40.0798 134.186L39.6744 134.242L39.7863 135.052L40.1917 134.996L40.0798 134.186ZM63.861 131.317L63.8164 130.91L63.805 130.912L63.861 131.317ZM104.971 126.815V126.406H104.949L104.926 126.409L104.971 126.815ZM40.1917 134.996L63.9169 131.722L63.805 130.912L40.0798 134.186L40.1917 134.996ZM63.9055 131.724L105.016 127.222L104.926 126.409L63.8164 130.91L63.9055 131.724ZM104.971 127.225H194.759V126.406H104.971V127.225ZM194.759 127.225H296V126.406H194.759V127.225Z" fill="#4285F4"/>
<path d="M295 135H16V5" stroke="white" stroke-width="0.833819" stroke-linecap="round"/>
<rect x="158" y="216.002" width="12" height="11.9963" rx="2" fill="#4285F4"/>
<path d="M179.54 227C179.447 227 179.367 226.972 179.302 226.916C179.246 226.851 179.218 226.771 179.218 226.678V217.536C179.218 217.433 179.246 217.354 179.302 217.298C179.367 217.233 179.447 217.2 179.54 217.2H185.252C185.355 217.2 185.434 217.233 185.49 217.298C185.555 217.354 185.588 217.433 185.588 217.536V218.096C185.588 218.189 185.555 218.269 185.49 218.334C185.434 218.39 185.355 218.418 185.252 218.418H180.576V221.68H184.972C185.075 221.68 185.154 221.713 185.21 221.778C185.275 221.834 185.308 221.913 185.308 222.016V222.576C185.308 222.669 185.275 222.749 185.21 222.814C185.145 222.87 185.065 222.898 184.972 222.898H180.576V226.678C180.576 226.771 180.543 226.851 180.478 226.916C180.413 226.972 180.333 227 180.24 227H179.54ZM189.532 227.14C189.074 227.14 188.65 227.047 188.258 226.86C187.866 226.673 187.553 226.421 187.32 226.104C187.096 225.777 186.984 225.418 186.984 225.026C186.984 224.41 187.236 223.906 187.74 223.514C188.253 223.113 188.944 222.851 189.812 222.73L191.898 222.436V222.03C191.898 221.078 191.352 220.602 190.26 220.602C189.849 220.602 189.513 220.691 189.252 220.868C188.99 221.036 188.794 221.237 188.664 221.47C188.636 221.554 188.598 221.615 188.552 221.652C188.514 221.689 188.458 221.708 188.384 221.708H187.782C187.698 221.708 187.623 221.68 187.558 221.624C187.502 221.559 187.474 221.484 187.474 221.4C187.483 221.176 187.586 220.924 187.782 220.644C187.987 220.355 188.3 220.107 188.72 219.902C189.14 219.687 189.658 219.58 190.274 219.58C191.319 219.58 192.07 219.827 192.528 220.322C192.985 220.807 193.214 221.414 193.214 222.142V226.678C193.214 226.771 193.181 226.851 193.116 226.916C193.06 226.972 192.985 227 192.892 227H192.248C192.154 227 192.075 226.972 192.01 226.916C191.954 226.851 191.926 226.771 191.926 226.678V226.076C191.72 226.375 191.422 226.627 191.03 226.832C190.638 227.037 190.138 227.14 189.532 227.14ZM189.826 226.09C190.432 226.09 190.927 225.894 191.31 225.502C191.702 225.101 191.898 224.527 191.898 223.78V223.388L190.274 223.626C189.611 223.719 189.112 223.878 188.776 224.102C188.44 224.317 188.272 224.592 188.272 224.928C188.272 225.301 188.426 225.591 188.734 225.796C189.042 225.992 189.406 226.09 189.826 226.09ZM196.248 227C196.155 227 196.076 226.972 196.01 226.916C195.954 226.851 195.926 226.771 195.926 226.678V220.042C195.926 219.949 195.954 219.874 196.01 219.818C196.076 219.753 196.155 219.72 196.248 219.72H196.878C196.972 219.72 197.046 219.753 197.102 219.818C197.168 219.874 197.2 219.949 197.2 220.042V220.532C197.686 219.897 198.362 219.58 199.23 219.58C200.266 219.58 200.999 220.009 201.428 220.868C201.652 220.476 201.97 220.163 202.38 219.93C202.791 219.697 203.253 219.58 203.766 219.58C204.532 219.58 205.157 219.841 205.642 220.364C206.128 220.887 206.37 221.643 206.37 222.632V226.678C206.37 226.771 206.338 226.851 206.272 226.916C206.216 226.972 206.142 227 206.048 227H205.39C205.297 227 205.218 226.972 205.152 226.916C205.096 226.851 205.068 226.771 205.068 226.678V222.758C205.068 222.03 204.914 221.507 204.606 221.19C204.308 220.873 203.911 220.714 203.416 220.714C202.978 220.714 202.6 220.877 202.282 221.204C201.965 221.521 201.806 222.039 201.806 222.758V226.678C201.806 226.771 201.774 226.851 201.708 226.916C201.652 226.972 201.578 227 201.484 227H200.826C200.733 227 200.654 226.972 200.588 226.916C200.532 226.851 200.504 226.771 200.504 226.678V222.758C200.504 222.03 200.346 221.507 200.028 221.19C199.72 220.873 199.328 220.714 198.852 220.714C198.414 220.714 198.036 220.877 197.718 221.204C197.401 221.521 197.242 222.035 197.242 222.744V226.678C197.242 226.771 197.21 226.851 197.144 226.916C197.088 226.972 197.014 227 196.92 227H196.248ZM209.278 218.362C209.184 218.362 209.105 218.334 209.04 218.278C208.984 218.213 208.956 218.133 208.956 218.04V217.284C208.956 217.191 208.984 217.111 209.04 217.046C209.105 216.981 209.184 216.948 209.278 216.948H210.16C210.253 216.948 210.332 216.981 210.398 217.046C210.463 217.111 210.496 217.191 210.496 217.284V218.04C210.496 218.133 210.463 218.213 210.398 218.278C210.332 218.334 210.253 218.362 210.16 218.362H209.278ZM209.39 227C209.296 227 209.217 226.972 209.152 226.916C209.096 226.851 209.068 226.771 209.068 226.678V220.042C209.068 219.949 209.096 219.874 209.152 219.818C209.217 219.753 209.296 219.72 209.39 219.72H210.062C210.155 219.72 210.23 219.753 210.286 219.818C210.351 219.874 210.384 219.949 210.384 220.042V226.678C210.384 226.771 210.351 226.851 210.286 226.916C210.23 226.972 210.155 227 210.062 227H209.39ZM213.494 227C213.401 227 213.322 226.972 213.256 226.916C213.2 226.851 213.172 226.771 213.172 226.678V217.382C213.172 217.289 213.2 217.214 213.256 217.158C213.322 217.093 213.401 217.06 213.494 217.06H214.152C214.246 217.06 214.32 217.093 214.376 217.158C214.442 217.214 214.474 217.289 214.474 217.382V226.678C214.474 226.771 214.442 226.851 214.376 226.916C214.32 226.972 214.246 227 214.152 227H213.494ZM218.537 229.66C218.462 229.66 218.397 229.632 218.341 229.576C218.285 229.52 218.257 229.455 218.257 229.38C218.257 229.315 218.28 229.231 218.327 229.128L219.405 226.566L216.731 220.252C216.684 220.131 216.661 220.051 216.661 220.014C216.661 219.93 216.689 219.86 216.745 219.804C216.801 219.748 216.871 219.72 216.955 219.72H217.641C217.79 219.72 217.902 219.799 217.977 219.958L220.105 225.054L222.289 219.958C222.363 219.799 222.48 219.72 222.639 219.72H223.297C223.381 219.72 223.451 219.748 223.507 219.804C223.563 219.86 223.591 219.925 223.591 220C223.591 220.028 223.567 220.112 223.521 220.252L219.545 229.422C219.47 229.581 219.353 229.66 219.195 229.66H218.537ZM232.432 227.14C231.797 227.14 231.232 227.023 230.738 226.79C230.252 226.557 229.874 226.23 229.604 225.81C229.333 225.39 229.198 224.914 229.198 224.382C229.198 223.794 229.37 223.295 229.716 222.884C230.061 222.464 230.546 222.072 231.172 221.708C230.733 221.241 230.42 220.835 230.234 220.49C230.056 220.135 229.968 219.762 229.968 219.37C229.968 218.95 230.075 218.567 230.29 218.222C230.504 217.867 230.812 217.587 231.214 217.382C231.615 217.167 232.072 217.06 232.586 217.06C233.09 217.06 233.538 217.163 233.93 217.368C234.322 217.564 234.625 217.839 234.84 218.194C235.054 218.539 235.162 218.927 235.162 219.356C235.162 219.925 234.98 220.401 234.616 220.784C234.252 221.167 233.724 221.554 233.034 221.946L235.414 224.284C235.787 223.659 236.039 222.949 236.17 222.156C236.179 222.072 236.207 222.007 236.254 221.96C236.31 221.904 236.38 221.876 236.464 221.876H237.08C237.164 221.876 237.234 221.904 237.29 221.96C237.346 222.016 237.374 222.086 237.374 222.17C237.364 222.581 237.257 223.052 237.052 223.584C236.856 224.107 236.585 224.611 236.24 225.096L237.668 226.524C237.752 226.608 237.794 226.678 237.794 226.734C237.794 226.911 237.7 227 237.514 227H236.73C236.552 227 236.426 226.953 236.352 226.86L235.428 225.95C234.616 226.743 233.617 227.14 232.432 227.14ZM232.264 221.134C232.824 220.826 233.244 220.546 233.524 220.294C233.804 220.042 233.944 219.734 233.944 219.37C233.944 219.006 233.813 218.712 233.552 218.488C233.29 218.255 232.968 218.138 232.586 218.138C232.212 218.138 231.89 218.255 231.62 218.488C231.358 218.712 231.228 219.011 231.228 219.384C231.228 219.636 231.298 219.888 231.438 220.14C231.587 220.383 231.862 220.714 232.264 221.134ZM232.432 226.02C232.814 226.02 233.192 225.941 233.566 225.782C233.939 225.623 234.28 225.39 234.588 225.082L231.97 222.534C231.494 222.805 231.125 223.08 230.864 223.36C230.612 223.64 230.486 223.971 230.486 224.354C230.486 224.867 230.677 225.273 231.06 225.572C231.442 225.871 231.9 226.02 232.432 226.02ZM244.506 227C244.413 227 244.333 226.972 244.268 226.916C244.212 226.851 244.184 226.771 244.184 226.678V217.536C244.184 217.433 244.212 217.354 244.268 217.298C244.333 217.233 244.413 217.2 244.506 217.2H250.218C250.321 217.2 250.4 217.233 250.456 217.298C250.521 217.354 250.554 217.433 250.554 217.536V218.096C250.554 218.189 250.521 218.269 250.456 218.334C250.4 218.39 250.321 218.418 250.218 218.418H245.542V221.68H249.938C250.041 221.68 250.12 221.713 250.176 221.778C250.241 221.834 250.274 221.913 250.274 222.016V222.576C250.274 222.669 250.241 222.749 250.176 222.814C250.111 222.87 250.031 222.898 249.938 222.898H245.542V226.678C245.542 226.771 245.509 226.851 245.444 226.916C245.379 226.972 245.299 227 245.206 227H244.506ZM253.008 227C252.915 227 252.836 226.972 252.77 226.916C252.714 226.851 252.686 226.771 252.686 226.678V220.056C252.686 219.963 252.714 219.883 252.77 219.818C252.836 219.753 252.915 219.72 253.008 219.72H253.652C253.746 219.72 253.825 219.753 253.89 219.818C253.956 219.883 253.988 219.963 253.988 220.056V220.672C254.371 220.037 255.024 219.72 255.948 219.72H256.494C256.588 219.72 256.662 219.753 256.718 219.818C256.784 219.874 256.816 219.949 256.816 220.042V220.616C256.816 220.709 256.784 220.784 256.718 220.84C256.662 220.896 256.588 220.924 256.494 220.924H255.654C255.15 220.924 254.754 221.073 254.464 221.372C254.175 221.661 254.03 222.058 254.03 222.562V226.678C254.03 226.771 253.998 226.851 253.932 226.916C253.867 226.972 253.788 227 253.694 227H253.008ZM258.915 218.362C258.821 218.362 258.742 218.334 258.677 218.278C258.621 218.213 258.593 218.133 258.593 218.04V217.284C258.593 217.191 258.621 217.111 258.677 217.046C258.742 216.981 258.821 216.948 258.915 216.948H259.797C259.89 216.948 259.969 216.981 260.035 217.046C260.1 217.111 260.133 217.191 260.133 217.284V218.04C260.133 218.133 260.1 218.213 260.035 218.278C259.969 218.334 259.89 218.362 259.797 218.362H258.915ZM259.027 227C258.933 227 258.854 226.972 258.789 226.916C258.733 226.851 258.705 226.771 258.705 226.678V220.042C258.705 219.949 258.733 219.874 258.789 219.818C258.854 219.753 258.933 219.72 259.027 219.72H259.699C259.792 219.72 259.867 219.753 259.923 219.818C259.988 219.874 260.021 219.949 260.021 220.042V226.678C260.021 226.771 259.988 226.851 259.923 226.916C259.867 226.972 259.792 227 259.699 227H259.027ZM265.707 227.14C264.746 227.14 263.976 226.846 263.397 226.258C262.828 225.661 262.515 224.849 262.459 223.822L262.445 223.346L262.459 222.884C262.525 221.876 262.842 221.073 263.411 220.476C263.99 219.879 264.751 219.58 265.693 219.58C266.729 219.58 267.532 219.911 268.101 220.574C268.671 221.227 268.955 222.114 268.955 223.234V223.472C268.955 223.565 268.923 223.645 268.857 223.71C268.801 223.766 268.727 223.794 268.633 223.794H263.789V223.92C263.817 224.527 263.999 225.045 264.335 225.474C264.681 225.894 265.133 226.104 265.693 226.104C266.123 226.104 266.473 226.02 266.743 225.852C267.023 225.675 267.229 225.493 267.359 225.306C267.443 225.194 267.504 225.129 267.541 225.11C267.588 225.082 267.667 225.068 267.779 225.068H268.465C268.549 225.068 268.619 225.091 268.675 225.138C268.731 225.185 268.759 225.25 268.759 225.334C268.759 225.539 268.629 225.787 268.367 226.076C268.115 226.365 267.756 226.617 267.289 226.832C266.832 227.037 266.305 227.14 265.707 227.14ZM267.625 222.828V222.786C267.625 222.142 267.448 221.619 267.093 221.218C266.748 220.807 266.281 220.602 265.693 220.602C265.105 220.602 264.639 220.807 264.293 221.218C263.957 221.619 263.789 222.142 263.789 222.786V222.828H267.625ZM271.651 227C271.558 227 271.479 226.972 271.413 226.916C271.357 226.851 271.329 226.771 271.329 226.678V220.042C271.329 219.949 271.357 219.874 271.413 219.818C271.479 219.753 271.558 219.72 271.651 219.72H272.309C272.403 219.72 272.477 219.753 272.533 219.818C272.599 219.874 272.631 219.949 272.631 220.042V220.658C272.902 220.313 273.219 220.047 273.583 219.86C273.957 219.673 274.419 219.58 274.969 219.58C275.865 219.58 276.561 219.869 277.055 220.448C277.559 221.017 277.811 221.778 277.811 222.73V226.678C277.811 226.771 277.779 226.851 277.713 226.916C277.657 226.972 277.583 227 277.489 227H276.789C276.696 227 276.617 226.972 276.551 226.916C276.495 226.851 276.467 226.771 276.467 226.678V222.8C276.467 222.137 276.304 221.624 275.977 221.26C275.66 220.896 275.198 220.714 274.591 220.714C274.003 220.714 273.537 220.901 273.191 221.274C272.846 221.638 272.673 222.147 272.673 222.8V226.678C272.673 226.771 272.641 226.851 272.575 226.916C272.519 226.972 272.445 227 272.351 227H271.651ZM283.18 227.14C282.209 227.14 281.476 226.823 280.982 226.188C280.487 225.553 280.226 224.751 280.198 223.78L280.184 223.36L280.198 222.94C280.226 221.979 280.487 221.181 280.982 220.546C281.476 219.902 282.209 219.58 283.18 219.58C284.141 219.58 284.897 219.921 285.448 220.602V217.382C285.448 217.289 285.476 217.214 285.532 217.158C285.597 217.093 285.676 217.06 285.77 217.06H286.442C286.535 217.06 286.61 217.093 286.666 217.158C286.731 217.214 286.764 217.289 286.764 217.382V226.678C286.764 226.771 286.731 226.851 286.666 226.916C286.61 226.972 286.535 227 286.442 227H285.812C285.718 227 285.639 226.972 285.574 226.916C285.518 226.851 285.49 226.771 285.49 226.678V226.09C284.948 226.79 284.178 227.14 283.18 227.14ZM283.474 226.006C284.118 226.006 284.598 225.796 284.916 225.376C285.242 224.947 285.42 224.438 285.448 223.85C285.457 223.747 285.462 223.57 285.462 223.318C285.462 223.057 285.457 222.875 285.448 222.772C285.429 222.221 285.252 221.741 284.916 221.33C284.58 220.919 284.099 220.714 283.474 220.714C282.811 220.714 282.326 220.919 282.018 221.33C281.719 221.741 281.556 222.282 281.528 222.954L281.514 223.36C281.514 225.124 282.167 226.006 283.474 226.006ZM292.066 227.14C291.412 227.14 290.862 227.037 290.414 226.832C289.975 226.617 289.644 226.375 289.42 226.104C289.205 225.833 289.098 225.609 289.098 225.432C289.098 225.339 289.13 225.269 289.196 225.222C289.27 225.166 289.345 225.138 289.42 225.138H290.05C290.143 225.138 290.227 225.185 290.302 225.278C290.526 225.539 290.768 225.745 291.03 225.894C291.291 226.043 291.641 226.118 292.08 226.118C292.565 226.118 292.957 226.025 293.256 225.838C293.564 225.642 293.718 225.376 293.718 225.04C293.718 224.816 293.652 224.634 293.522 224.494C293.4 224.345 293.186 224.219 292.878 224.116C292.579 224.004 292.131 223.883 291.534 223.752C290.722 223.575 290.143 223.318 289.798 222.982C289.462 222.646 289.294 222.212 289.294 221.68C289.294 221.325 289.396 220.989 289.602 220.672C289.816 220.345 290.124 220.084 290.526 219.888C290.936 219.683 291.426 219.58 291.996 219.58C292.593 219.58 293.102 219.678 293.522 219.874C293.942 220.07 294.254 220.303 294.46 220.574C294.674 220.835 294.782 221.055 294.782 221.232C294.782 221.316 294.749 221.386 294.684 221.442C294.628 221.498 294.558 221.526 294.474 221.526H293.886C293.774 221.526 293.68 221.479 293.606 221.386C293.456 221.209 293.326 221.073 293.214 220.98C293.111 220.877 292.957 220.789 292.752 220.714C292.556 220.639 292.304 220.602 291.996 220.602C291.548 220.602 291.202 220.7 290.96 220.896C290.717 221.083 290.596 221.33 290.596 221.638C290.596 221.834 290.647 222.002 290.75 222.142C290.852 222.273 291.048 222.394 291.338 222.506C291.636 222.618 292.066 222.735 292.626 222.856C293.512 223.043 294.138 223.313 294.502 223.668C294.875 224.013 295.062 224.457 295.062 224.998C295.062 225.399 294.945 225.763 294.712 226.09C294.478 226.417 294.133 226.673 293.676 226.86C293.228 227.047 292.691 227.14 292.066 227.14Z" fill="#FCFCFC"/>
<rect y="216.002" width="12" height="11.9963" rx="2" fill="#EA4335"/>
<path d="M24.368 227.14C23.5933 227.14 22.9213 227.019 22.352 226.776C21.792 226.533 21.3627 226.216 21.064 225.824C20.7653 225.423 20.6067 224.993 20.588 224.536C20.588 224.461 20.616 224.396 20.672 224.34C20.7373 224.275 20.812 224.242 20.896 224.242H21.61C21.7873 224.242 21.9087 224.335 21.974 224.522C22.058 224.914 22.296 225.25 22.688 225.53C23.0893 225.81 23.6493 225.95 24.368 225.95C25.1427 225.95 25.726 225.815 26.118 225.544C26.51 225.264 26.706 224.877 26.706 224.382C26.706 224.065 26.608 223.808 26.412 223.612C26.2253 223.416 25.9453 223.243 25.572 223.094C25.1987 222.945 24.6387 222.758 23.892 222.534C23.164 222.329 22.5853 222.109 22.156 221.876C21.7267 221.643 21.4047 221.353 21.19 221.008C20.9753 220.663 20.868 220.229 20.868 219.706C20.868 219.202 21.0033 218.749 21.274 218.348C21.554 217.947 21.9507 217.634 22.464 217.41C22.9773 217.177 23.5887 217.06 24.298 217.06C25.026 217.06 25.6513 217.191 26.174 217.452C26.6967 217.704 27.0933 218.026 27.364 218.418C27.6347 218.81 27.7793 219.202 27.798 219.594C27.798 219.669 27.77 219.734 27.714 219.79C27.6673 219.846 27.5973 219.874 27.504 219.874H26.762C26.566 219.874 26.4447 219.785 26.398 219.608C26.342 219.216 26.1227 218.894 25.74 218.642C25.3573 218.381 24.8767 218.25 24.298 218.25C23.6633 218.25 23.164 218.371 22.8 218.614C22.436 218.857 22.254 219.216 22.254 219.692C22.254 220.009 22.338 220.271 22.506 220.476C22.6833 220.681 22.9493 220.863 23.304 221.022C23.6587 221.171 24.1767 221.344 24.858 221.54C25.6513 221.755 26.2767 221.979 26.734 222.212C27.1913 222.436 27.532 222.721 27.756 223.066C27.98 223.402 28.092 223.831 28.092 224.354C28.092 225.222 27.756 225.903 27.084 226.398C26.412 226.893 25.5067 227.14 24.368 227.14ZM33.357 227.14C32.3957 227.14 31.6257 226.846 31.047 226.258C30.4777 225.661 30.165 224.849 30.109 223.822L30.095 223.346L30.109 222.884C30.1743 221.876 30.4917 221.073 31.061 220.476C31.6397 219.879 32.4003 219.58 33.343 219.58C34.379 219.58 35.1817 219.911 35.751 220.574C36.3203 221.227 36.605 222.114 36.605 223.234V223.472C36.605 223.565 36.5723 223.645 36.507 223.71C36.451 223.766 36.3763 223.794 36.283 223.794H31.439V223.92C31.467 224.527 31.649 225.045 31.985 225.474C32.3303 225.894 32.783 226.104 33.343 226.104C33.7723 226.104 34.1223 226.02 34.393 225.852C34.673 225.675 34.8783 225.493 35.009 225.306C35.093 225.194 35.1537 225.129 35.191 225.11C35.2377 225.082 35.317 225.068 35.429 225.068H36.115C36.199 225.068 36.269 225.091 36.325 225.138C36.381 225.185 36.409 225.25 36.409 225.334C36.409 225.539 36.2783 225.787 36.017 226.076C35.765 226.365 35.4057 226.617 34.939 226.832C34.4817 227.037 33.9543 227.14 33.357 227.14ZM35.275 222.828V222.786C35.275 222.142 35.0977 221.619 34.743 221.218C34.3977 220.807 33.931 220.602 33.343 220.602C32.755 220.602 32.2883 220.807 31.943 221.218C31.607 221.619 31.439 222.142 31.439 222.786V222.828H35.275ZM41.891 227.14C40.9296 227.14 40.1596 226.846 39.581 226.258C39.0116 225.661 38.699 224.849 38.643 223.822L38.629 223.346L38.643 222.884C38.7083 221.876 39.0256 221.073 39.595 220.476C40.1736 219.879 40.9343 219.58 41.877 219.58C42.913 219.58 43.7156 219.911 44.285 220.574C44.8543 221.227 45.139 222.114 45.139 223.234V223.472C45.139 223.565 45.1063 223.645 45.041 223.71C44.985 223.766 44.9103 223.794 44.817 223.794H39.973V223.92C40.001 224.527 40.183 225.045 40.519 225.474C40.8643 225.894 41.317 226.104 41.877 226.104C42.3063 226.104 42.6563 226.02 42.927 225.852C43.207 225.675 43.4123 225.493 43.543 225.306C43.627 225.194 43.6876 225.129 43.725 225.11C43.7716 225.082 43.851 225.068 43.963 225.068H44.649C44.733 225.068 44.803 225.091 44.859 225.138C44.915 225.185 44.943 225.25 44.943 225.334C44.943 225.539 44.8123 225.787 44.551 226.076C44.299 226.365 43.9396 226.617 43.473 226.832C43.0156 227.037 42.4883 227.14 41.891 227.14ZM43.809 222.828V222.786C43.809 222.142 43.6316 221.619 43.277 221.218C42.9316 220.807 42.465 220.602 41.877 220.602C41.289 220.602 40.8223 220.807 40.477 221.218C40.141 221.619 39.973 222.142 39.973 222.786V222.828H43.809ZM50.173 227.14C49.2023 227.14 48.4696 226.823 47.975 226.188C47.4803 225.553 47.219 224.751 47.191 223.78L47.177 223.36L47.191 222.94C47.219 221.979 47.4803 221.181 47.975 220.546C48.4696 219.902 49.2023 219.58 50.173 219.58C51.1343 219.58 51.8903 219.921 52.441 220.602V217.382C52.441 217.289 52.469 217.214 52.525 217.158C52.5903 217.093 52.6696 217.06 52.763 217.06H53.435C53.5283 217.06 53.603 217.093 53.659 217.158C53.7243 217.214 53.757 217.289 53.757 217.382V226.678C53.757 226.771 53.7243 226.851 53.659 226.916C53.603 226.972 53.5283 227 53.435 227H52.805C52.7116 227 52.6323 226.972 52.567 226.916C52.511 226.851 52.483 226.771 52.483 226.678V226.09C51.9416 226.79 51.1716 227.14 50.173 227.14ZM50.467 226.006C51.111 226.006 51.5916 225.796 51.909 225.376C52.2356 224.947 52.413 224.438 52.441 223.85C52.4503 223.747 52.455 223.57 52.455 223.318C52.455 223.057 52.4503 222.875 52.441 222.772C52.4223 222.221 52.245 221.741 51.909 221.33C51.573 220.919 51.0923 220.714 50.467 220.714C49.8043 220.714 49.319 220.919 49.011 221.33C48.7123 221.741 48.549 222.282 48.521 222.954L48.507 223.36C48.507 225.124 49.1603 226.006 50.467 226.006ZM64.0028 227.14C63.2281 227.14 62.5561 227.019 61.9868 226.776C61.4268 226.533 60.9974 226.216 60.6988 225.824C60.4001 225.423 60.2414 224.993 60.2228 224.536C60.2228 224.461 60.2508 224.396 60.3068 224.34C60.3721 224.275 60.4468 224.242 60.5308 224.242H61.2448C61.4221 224.242 61.5434 224.335 61.6088 224.522C61.6928 224.914 61.9308 225.25 62.3228 225.53C62.7241 225.81 63.2841 225.95 64.0028 225.95C64.7774 225.95 65.3608 225.815 65.7528 225.544C66.1448 225.264 66.3408 224.877 66.3408 224.382C66.3408 224.065 66.2428 223.808 66.0468 223.612C65.8601 223.416 65.5801 223.243 65.2068 223.094C64.8334 222.945 64.2734 222.758 63.5268 222.534C62.7988 222.329 62.2201 222.109 61.7908 221.876C61.3614 221.643 61.0394 221.353 60.8248 221.008C60.6101 220.663 60.5028 220.229 60.5028 219.706C60.5028 219.202 60.6381 218.749 60.9088 218.348C61.1888 217.947 61.5854 217.634 62.0988 217.41C62.6121 217.177 63.2234 217.06 63.9328 217.06C64.6608 217.06 65.2861 217.191 65.8088 217.452C66.3314 217.704 66.7281 218.026 66.9988 218.418C67.2694 218.81 67.4141 219.202 67.4328 219.594C67.4328 219.669 67.4048 219.734 67.3488 219.79C67.3021 219.846 67.2321 219.874 67.1388 219.874H66.3968C66.2008 219.874 66.0794 219.785 66.0328 219.608C65.9768 219.216 65.7574 218.894 65.3748 218.642C64.9921 218.381 64.5114 218.25 63.9328 218.25C63.2981 218.25 62.7988 218.371 62.4348 218.614C62.0708 218.857 61.8888 219.216 61.8888 219.692C61.8888 220.009 61.9728 220.271 62.1408 220.476C62.3181 220.681 62.5841 220.863 62.9388 221.022C63.2934 221.171 63.8114 221.344 64.4928 221.54C65.2861 221.755 65.9114 221.979 66.3688 222.212C66.8261 222.436 67.1668 222.721 67.3908 223.066C67.6148 223.402 67.7268 223.831 67.7268 224.354C67.7268 225.222 67.3908 225.903 66.7188 226.398C66.0468 226.893 65.1414 227.14 64.0028 227.14ZM72.1098 227.14C71.6524 227.14 71.2278 227.047 70.8358 226.86C70.4438 226.673 70.1311 226.421 69.8978 226.104C69.6738 225.777 69.5618 225.418 69.5618 225.026C69.5618 224.41 69.8138 223.906 70.3178 223.514C70.8311 223.113 71.5218 222.851 72.3898 222.73L74.4758 222.436V222.03C74.4758 221.078 73.9298 220.602 72.8378 220.602C72.4271 220.602 72.0911 220.691 71.8298 220.868C71.5684 221.036 71.3724 221.237 71.2418 221.47C71.2138 221.554 71.1764 221.615 71.1298 221.652C71.0924 221.689 71.0364 221.708 70.9618 221.708H70.3598C70.2758 221.708 70.2011 221.68 70.1358 221.624C70.0798 221.559 70.0518 221.484 70.0518 221.4C70.0611 221.176 70.1638 220.924 70.3598 220.644C70.5651 220.355 70.8778 220.107 71.2978 219.902C71.7178 219.687 72.2358 219.58 72.8518 219.58C73.8971 219.58 74.6484 219.827 75.1058 220.322C75.5631 220.807 75.7918 221.414 75.7918 222.142V226.678C75.7918 226.771 75.7591 226.851 75.6938 226.916C75.6378 226.972 75.5631 227 75.4698 227H74.8258C74.7324 227 74.6531 226.972 74.5878 226.916C74.5318 226.851 74.5038 226.771 74.5038 226.678V226.076C74.2984 226.375 73.9998 226.627 73.6078 226.832C73.2158 227.037 72.7164 227.14 72.1098 227.14ZM72.4038 226.09C73.0104 226.09 73.5051 225.894 73.8878 225.502C74.2798 225.101 74.4758 224.527 74.4758 223.78V223.388L72.8518 223.626C72.1891 223.719 71.6898 223.878 71.3538 224.102C71.0178 224.317 70.8498 224.592 70.8498 224.928C70.8498 225.301 71.0038 225.591 71.3118 225.796C71.6198 225.992 71.9838 226.09 72.4038 226.09ZM78.8404 227C78.747 227 78.6677 226.972 78.6024 226.916C78.5464 226.851 78.5184 226.771 78.5184 226.678V217.382C78.5184 217.289 78.5464 217.214 78.6024 217.158C78.6677 217.093 78.747 217.06 78.8404 217.06H79.4984C79.5917 217.06 79.6664 217.093 79.7224 217.158C79.7877 217.214 79.8204 217.289 79.8204 217.382V226.678C79.8204 226.771 79.7877 226.851 79.7224 226.916C79.6664 226.972 79.5917 227 79.4984 227H78.8404ZM85.5207 227.14C84.5593 227.14 83.7893 226.846 83.2107 226.258C82.6413 225.661 82.3287 224.849 82.2727 223.822L82.2587 223.346L82.2727 222.884C82.338 221.876 82.6553 221.073 83.2247 220.476C83.8033 219.879 84.564 219.58 85.5067 219.58C86.5427 219.58 87.3453 219.911 87.9147 220.574C88.484 221.227 88.7687 222.114 88.7687 223.234V223.472C88.7687 223.565 88.736 223.645 88.6707 223.71C88.6147 223.766 88.54 223.794 88.4467 223.794H83.6027V223.92C83.6307 224.527 83.8127 225.045 84.1487 225.474C84.494 225.894 84.9467 226.104 85.5067 226.104C85.936 226.104 86.286 226.02 86.5567 225.852C86.8367 225.675 87.042 225.493 87.1727 225.306C87.2567 225.194 87.3173 225.129 87.3547 225.11C87.4013 225.082 87.4807 225.068 87.5927 225.068H88.2787C88.3627 225.068 88.4327 225.091 88.4887 225.138C88.5447 225.185 88.5727 225.25 88.5727 225.334C88.5727 225.539 88.442 225.787 88.1807 226.076C87.9287 226.365 87.5693 226.617 87.1027 226.832C86.6453 227.037 86.118 227.14 85.5207 227.14ZM87.4387 222.828V222.786C87.4387 222.142 87.2613 221.619 86.9067 221.218C86.5613 220.807 86.0947 220.602 85.5067 220.602C84.9187 220.602 84.452 220.807 84.1067 221.218C83.7707 221.619 83.6027 222.142 83.6027 222.786V222.828H87.4387Z" fill="#FCFCFC"/>
<rect x="239" y="184.002" width="12" height="11.9963" rx="2" fill="#FBBC04"/>
<path d="M262.682 195C262.589 195 262.509 194.972 262.444 194.916C262.388 194.851 262.36 194.771 262.36 194.678V186.446H259.672C259.579 186.446 259.499 186.418 259.434 186.362C259.378 186.297 259.35 186.217 259.35 186.124V185.536C259.35 185.443 259.378 185.363 259.434 185.298C259.499 185.233 259.579 185.2 259.672 185.2H266.42C266.523 185.2 266.602 185.233 266.658 185.298C266.723 185.354 266.756 185.433 266.756 185.536V186.124C266.756 186.217 266.723 186.297 266.658 186.362C266.593 186.418 266.513 186.446 266.42 186.446H263.746V194.678C263.746 194.771 263.713 194.851 263.648 194.916C263.583 194.972 263.503 195 263.41 195H262.682ZM270.416 195.14C269.454 195.14 268.684 194.846 268.106 194.258C267.536 193.661 267.224 192.849 267.168 191.822L267.154 191.346L267.168 190.884C267.233 189.876 267.55 189.073 268.12 188.476C268.698 187.879 269.459 187.58 270.402 187.58C271.438 187.58 272.24 187.911 272.81 188.574C273.379 189.227 273.664 190.114 273.664 191.234V191.472C273.664 191.565 273.631 191.645 273.566 191.71C273.51 191.766 273.435 191.794 273.342 191.794H268.498V191.92C268.526 192.527 268.708 193.045 269.044 193.474C269.389 193.894 269.842 194.104 270.402 194.104C270.831 194.104 271.181 194.02 271.452 193.852C271.732 193.675 271.937 193.493 272.068 193.306C272.152 193.194 272.212 193.129 272.25 193.11C272.296 193.082 272.376 193.068 272.488 193.068H273.174C273.258 193.068 273.328 193.091 273.384 193.138C273.44 193.185 273.468 193.25 273.468 193.334C273.468 193.539 273.337 193.787 273.076 194.076C272.824 194.365 272.464 194.617 271.998 194.832C271.54 195.037 271.013 195.14 270.416 195.14ZM272.334 190.828V190.786C272.334 190.142 272.156 189.619 271.802 189.218C271.456 188.807 270.99 188.602 270.402 188.602C269.814 188.602 269.347 188.807 269.002 189.218C268.666 189.619 268.498 190.142 268.498 190.786V190.828H272.334ZM278.068 195.14C277.61 195.14 277.186 195.047 276.794 194.86C276.402 194.673 276.089 194.421 275.856 194.104C275.632 193.777 275.52 193.418 275.52 193.026C275.52 192.41 275.772 191.906 276.276 191.514C276.789 191.113 277.48 190.851 278.348 190.73L280.434 190.436V190.03C280.434 189.078 279.888 188.602 278.796 188.602C278.385 188.602 278.049 188.691 277.788 188.868C277.526 189.036 277.33 189.237 277.2 189.47C277.172 189.554 277.134 189.615 277.088 189.652C277.05 189.689 276.994 189.708 276.92 189.708H276.318C276.234 189.708 276.159 189.68 276.094 189.624C276.038 189.559 276.01 189.484 276.01 189.4C276.019 189.176 276.122 188.924 276.318 188.644C276.523 188.355 276.836 188.107 277.256 187.902C277.676 187.687 278.194 187.58 278.81 187.58C279.855 187.58 280.606 187.827 281.064 188.322C281.521 188.807 281.75 189.414 281.75 190.142V194.678C281.75 194.771 281.717 194.851 281.652 194.916C281.596 194.972 281.521 195 281.428 195H280.784C280.69 195 280.611 194.972 280.546 194.916C280.49 194.851 280.462 194.771 280.462 194.678V194.076C280.256 194.375 279.958 194.627 279.566 194.832C279.174 195.037 278.674 195.14 278.068 195.14ZM278.362 194.09C278.968 194.09 279.463 193.894 279.846 193.502C280.238 193.101 280.434 192.527 280.434 191.78V191.388L278.81 191.626C278.147 191.719 277.648 191.878 277.312 192.102C276.976 192.317 276.808 192.592 276.808 192.928C276.808 193.301 276.962 193.591 277.27 193.796C277.578 193.992 277.942 194.09 278.362 194.09ZM284.784 195C284.691 195 284.612 194.972 284.546 194.916C284.49 194.851 284.462 194.771 284.462 194.678V188.042C284.462 187.949 284.49 187.874 284.546 187.818C284.612 187.753 284.691 187.72 284.784 187.72H285.414C285.508 187.72 285.582 187.753 285.638 187.818C285.704 187.874 285.736 187.949 285.736 188.042V188.532C286.222 187.897 286.898 187.58 287.766 187.58C288.802 187.58 289.535 188.009 289.964 188.868C290.188 188.476 290.506 188.163 290.916 187.93C291.327 187.697 291.789 187.58 292.302 187.58C293.068 187.58 293.693 187.841 294.178 188.364C294.664 188.887 294.906 189.643 294.906 190.632V194.678C294.906 194.771 294.874 194.851 294.808 194.916C294.752 194.972 294.678 195 294.584 195H293.926C293.833 195 293.754 194.972 293.688 194.916C293.632 194.851 293.604 194.771 293.604 194.678V190.758C293.604 190.03 293.45 189.507 293.142 189.19C292.844 188.873 292.447 188.714 291.952 188.714C291.514 188.714 291.136 188.877 290.818 189.204C290.501 189.521 290.342 190.039 290.342 190.758V194.678C290.342 194.771 290.31 194.851 290.244 194.916C290.188 194.972 290.114 195 290.02 195H289.362C289.269 195 289.19 194.972 289.124 194.916C289.068 194.851 289.04 194.771 289.04 194.678V190.758C289.04 190.03 288.882 189.507 288.564 189.19C288.256 188.873 287.864 188.714 287.388 188.714C286.95 188.714 286.572 188.877 286.254 189.204C285.937 189.521 285.778 190.035 285.778 190.744V194.678C285.778 194.771 285.746 194.851 285.68 194.916C285.624 194.972 285.55 195 285.456 195H284.784Z" fill="#FCFCFC"/>
<rect y="186.002" width="12" height="11.9963" rx="2" fill="#34A853"/>
<path d="M21.54 197C21.4467 197 21.3673 196.972 21.302 196.916C21.246 196.851 21.218 196.771 21.218 196.678V187.536C21.218 187.433 21.246 187.354 21.302 187.298C21.3673 187.233 21.4467 187.2 21.54 187.2H24.718C26.1273 187.2 27.1447 187.517 27.77 188.152C28.3953 188.777 28.722 189.725 28.75 190.994C28.7593 191.265 28.764 191.629 28.764 192.086C28.764 192.543 28.7593 192.912 28.75 193.192C28.722 194.079 28.5727 194.802 28.302 195.362C28.0407 195.913 27.6253 196.323 27.056 196.594C26.4867 196.865 25.7307 197 24.788 197H21.54ZM24.718 195.81C25.362 195.81 25.8707 195.721 26.244 195.544C26.6267 195.367 26.902 195.087 27.07 194.704C27.2473 194.312 27.3453 193.789 27.364 193.136C27.3827 192.576 27.392 192.226 27.392 192.086C27.392 191.937 27.3827 191.591 27.364 191.05C27.3453 190.126 27.126 189.454 26.706 189.034C26.286 188.605 25.6 188.39 24.648 188.39H22.59V195.81H24.718ZM30.7483 197C30.6736 197 30.6083 196.972 30.5523 196.916C30.4963 196.86 30.4683 196.795 30.4683 196.72C30.4683 196.645 30.4729 196.594 30.4823 196.566L33.9543 187.508C34.0289 187.303 34.1783 187.2 34.4023 187.2H35.3543C35.5783 187.2 35.7276 187.303 35.8023 187.508L39.2603 196.566L39.2883 196.72C39.2883 196.795 39.2603 196.86 39.2043 196.916C39.1483 196.972 39.0829 197 39.0083 197H38.2943C38.1916 197 38.1123 196.977 38.0563 196.93C38.0003 196.874 37.9629 196.818 37.9443 196.762L37.1743 194.774H32.5823L31.8123 196.762C31.7936 196.818 31.7516 196.874 31.6863 196.93C31.6303 196.977 31.5556 197 31.4623 197H30.7483ZM36.7683 193.57L34.8783 188.6L32.9883 193.57H36.7683ZM44.8355 197.14C43.6128 197.14 42.6655 196.823 41.9935 196.188C41.3308 195.544 40.9808 194.578 40.9435 193.29C40.9341 193.01 40.9295 192.613 40.9295 192.1C40.9295 191.587 40.9341 191.195 40.9435 190.924C40.9808 189.664 41.3448 188.707 42.0355 188.054C42.7261 187.391 43.6595 187.06 44.8355 187.06C46.0021 187.06 46.9308 187.391 47.6215 188.054C48.3121 188.707 48.6761 189.664 48.7135 190.924C48.7321 191.465 48.7415 191.857 48.7415 192.1C48.7415 192.333 48.7321 192.73 48.7135 193.29C48.6761 194.578 48.3215 195.544 47.6495 196.188C46.9868 196.823 46.0488 197.14 44.8355 197.14ZM44.8355 195.95C45.5728 195.95 46.1608 195.726 46.5995 195.278C47.0381 194.83 47.2761 194.144 47.3135 193.22C47.3321 192.66 47.3415 192.287 47.3415 192.1C47.3415 191.895 47.3321 191.521 47.3135 190.98C47.2761 190.056 47.0335 189.37 46.5855 188.922C46.1468 188.474 45.5635 188.25 44.8355 188.25C44.0981 188.25 43.5055 188.474 43.0575 188.922C42.6188 189.37 42.3808 190.056 42.3435 190.98C42.3341 191.251 42.3295 191.624 42.3295 192.1C42.3295 192.567 42.3341 192.94 42.3435 193.22C42.3808 194.144 42.6188 194.83 43.0575 195.278C43.5055 195.726 44.0981 195.95 44.8355 195.95ZM58.4137 197.14C57.779 197.14 57.2144 197.023 56.7197 196.79C56.2344 196.557 55.8564 196.23 55.5857 195.81C55.315 195.39 55.1797 194.914 55.1797 194.382C55.1797 193.794 55.3524 193.295 55.6977 192.884C56.043 192.464 56.5284 192.072 57.1537 191.708C56.715 191.241 56.4024 190.835 56.2157 190.49C56.0384 190.135 55.9497 189.762 55.9497 189.37C55.9497 188.95 56.057 188.567 56.2717 188.222C56.4864 187.867 56.7944 187.587 57.1957 187.382C57.597 187.167 58.0544 187.06 58.5677 187.06C59.0717 187.06 59.5197 187.163 59.9117 187.368C60.3037 187.564 60.607 187.839 60.8217 188.194C61.0364 188.539 61.1437 188.927 61.1437 189.356C61.1437 189.925 60.9617 190.401 60.5977 190.784C60.2337 191.167 59.7064 191.554 59.0157 191.946L61.3957 194.284C61.769 193.659 62.021 192.949 62.1517 192.156C62.161 192.072 62.189 192.007 62.2357 191.96C62.2917 191.904 62.3617 191.876 62.4457 191.876H63.0617C63.1457 191.876 63.2157 191.904 63.2717 191.96C63.3277 192.016 63.3557 192.086 63.3557 192.17C63.3464 192.581 63.239 193.052 63.0337 193.584C62.8377 194.107 62.567 194.611 62.2217 195.096L63.6497 196.524C63.7337 196.608 63.7757 196.678 63.7757 196.734C63.7757 196.911 63.6824 197 63.4957 197H62.7117C62.5344 197 62.4084 196.953 62.3337 196.86L61.4097 195.95C60.5977 196.743 59.599 197.14 58.4137 197.14ZM58.2457 191.134C58.8057 190.826 59.2257 190.546 59.5057 190.294C59.7857 190.042 59.9257 189.734 59.9257 189.37C59.9257 189.006 59.795 188.712 59.5337 188.488C59.2724 188.255 58.9504 188.138 58.5677 188.138C58.1944 188.138 57.8724 188.255 57.6017 188.488C57.3404 188.712 57.2097 189.011 57.2097 189.384C57.2097 189.636 57.2797 189.888 57.4197 190.14C57.569 190.383 57.8444 190.714 58.2457 191.134ZM58.4137 196.02C58.7964 196.02 59.1744 195.941 59.5477 195.782C59.921 195.623 60.2617 195.39 60.5697 195.082L57.9517 192.534C57.4757 192.805 57.107 193.08 56.8457 193.36C56.5937 193.64 56.4677 193.971 56.4677 194.354C56.4677 194.867 56.659 195.273 57.0417 195.572C57.4244 195.871 57.8817 196.02 58.4137 196.02ZM70.488 197C70.3947 197 70.3154 196.972 70.25 196.916C70.194 196.851 70.166 196.771 70.166 196.678V187.536C70.166 187.433 70.194 187.354 70.25 187.298C70.3154 187.233 70.3947 187.2 70.488 187.2H73.904C74.9774 187.2 75.8174 187.452 76.424 187.956C77.0307 188.46 77.334 189.188 77.334 190.14C77.334 190.849 77.1567 191.433 76.802 191.89C76.4567 192.347 75.9667 192.665 75.332 192.842L77.488 196.566C77.516 196.622 77.53 196.673 77.53 196.72C77.53 196.795 77.4974 196.86 77.432 196.916C77.376 196.972 77.3107 197 77.236 197H76.564C76.424 197 76.312 196.967 76.228 196.902C76.1534 196.837 76.0834 196.743 76.018 196.622L73.988 193.066H71.538V196.678C71.538 196.771 71.5054 196.851 71.44 196.916C71.3747 196.972 71.2954 197 71.202 197H70.488ZM73.848 191.876C75.2387 191.876 75.934 191.293 75.934 190.126C75.934 188.959 75.2387 188.376 73.848 188.376H71.538V191.876H73.848ZM82.6878 197.14C81.7265 197.14 80.9565 196.846 80.3778 196.258C79.8085 195.661 79.4958 194.849 79.4398 193.822L79.4258 193.346L79.4398 192.884C79.5052 191.876 79.8225 191.073 80.3918 190.476C80.9705 189.879 81.7312 189.58 82.6738 189.58C83.7098 189.58 84.5125 189.911 85.0818 190.574C85.6512 191.227 85.9358 192.114 85.9358 193.234V193.472C85.9358 193.565 85.9032 193.645 85.8378 193.71C85.7818 193.766 85.7072 193.794 85.6138 193.794H80.7698V193.92C80.7978 194.527 80.9798 195.045 81.3158 195.474C81.6612 195.894 82.1138 196.104 82.6738 196.104C83.1032 196.104 83.4532 196.02 83.7238 195.852C84.0038 195.675 84.2092 195.493 84.3398 195.306C84.4238 195.194 84.4845 195.129 84.5218 195.11C84.5685 195.082 84.6478 195.068 84.7598 195.068H85.4458C85.5298 195.068 85.5998 195.091 85.6558 195.138C85.7118 195.185 85.7398 195.25 85.7398 195.334C85.7398 195.539 85.6092 195.787 85.3478 196.076C85.0958 196.365 84.7365 196.617 84.2698 196.832C83.8125 197.037 83.2852 197.14 82.6878 197.14ZM84.6058 192.828V192.786C84.6058 192.142 84.4285 191.619 84.0738 191.218C83.7285 190.807 83.2618 190.602 82.6738 190.602C82.0858 190.602 81.6192 190.807 81.2738 191.218C80.9378 191.619 80.7698 192.142 80.7698 192.786V192.828H84.6058ZM90.0504 197C89.9291 197 89.8358 196.972 89.7704 196.916C89.7051 196.86 89.6491 196.771 89.6024 196.65L87.6144 190.154L87.5864 190.014C87.5864 189.93 87.6144 189.86 87.6704 189.804C87.7358 189.748 87.8058 189.72 87.8804 189.72H88.4964C88.5898 189.72 88.6644 189.748 88.7204 189.804C88.7858 189.851 88.8278 189.902 88.8464 189.958L90.4004 195.236L92.0664 190.014C92.0851 189.939 92.1271 189.874 92.1924 189.818C92.2578 189.753 92.3464 189.72 92.4584 189.72H92.9344C93.0464 189.72 93.1351 189.753 93.2004 189.818C93.2658 189.874 93.3078 189.939 93.3264 190.014L94.9924 195.236L96.5464 189.958C96.5558 189.911 96.5884 189.86 96.6444 189.804C96.7098 189.748 96.7891 189.72 96.8824 189.72H97.5124C97.5871 189.72 97.6524 189.748 97.7084 189.804C97.7644 189.86 97.7924 189.93 97.7924 190.014L97.7644 190.154L95.7904 196.65C95.7438 196.771 95.6878 196.86 95.6224 196.916C95.5571 196.972 95.4591 197 95.3284 197H94.7824C94.5304 197 94.3764 196.883 94.3204 196.65L92.6964 191.638L91.0724 196.65C90.9978 196.883 90.8391 197 90.5964 197H90.0504ZM101.868 197.14C101.411 197.14 100.986 197.047 100.594 196.86C100.202 196.673 99.8893 196.421 99.656 196.104C99.432 195.777 99.32 195.418 99.32 195.026C99.32 194.41 99.572 193.906 100.076 193.514C100.589 193.113 101.28 192.851 102.148 192.73L104.234 192.436V192.03C104.234 191.078 103.688 190.602 102.596 190.602C102.185 190.602 101.849 190.691 101.588 190.868C101.327 191.036 101.131 191.237 101 191.47C100.972 191.554 100.935 191.615 100.888 191.652C100.851 191.689 100.795 191.708 100.72 191.708H100.118C100.034 191.708 99.9593 191.68 99.894 191.624C99.838 191.559 99.81 191.484 99.81 191.4C99.8193 191.176 99.922 190.924 100.118 190.644C100.323 190.355 100.636 190.107 101.056 189.902C101.476 189.687 101.994 189.58 102.61 189.58C103.655 189.58 104.407 189.827 104.864 190.322C105.321 190.807 105.55 191.414 105.55 192.142V196.678C105.55 196.771 105.517 196.851 105.452 196.916C105.396 196.972 105.321 197 105.228 197H104.584C104.491 197 104.411 196.972 104.346 196.916C104.29 196.851 104.262 196.771 104.262 196.678V196.076C104.057 196.375 103.758 196.627 103.366 196.832C102.974 197.037 102.475 197.14 101.868 197.14ZM102.162 196.09C102.769 196.09 103.263 195.894 103.646 195.502C104.038 195.101 104.234 194.527 104.234 193.78V193.388L102.61 193.626C101.947 193.719 101.448 193.878 101.112 194.102C100.776 194.317 100.608 194.592 100.608 194.928C100.608 195.301 100.762 195.591 101.07 195.796C101.378 195.992 101.742 196.09 102.162 196.09ZM108.585 197C108.491 197 108.412 196.972 108.347 196.916C108.291 196.851 108.263 196.771 108.263 196.678V190.056C108.263 189.963 108.291 189.883 108.347 189.818C108.412 189.753 108.491 189.72 108.585 189.72H109.229C109.322 189.72 109.401 189.753 109.467 189.818C109.532 189.883 109.565 189.963 109.565 190.056V190.672C109.947 190.037 110.601 189.72 111.525 189.72H112.071C112.164 189.72 112.239 189.753 112.295 189.818C112.36 189.874 112.393 189.949 112.393 190.042V190.616C112.393 190.709 112.36 190.784 112.295 190.84C112.239 190.896 112.164 190.924 112.071 190.924H111.231C110.727 190.924 110.33 191.073 110.041 191.372C109.751 191.661 109.607 192.058 109.607 192.562V196.678C109.607 196.771 109.574 196.851 109.509 196.916C109.443 196.972 109.364 197 109.271 197H108.585ZM116.791 197.14C115.82 197.14 115.087 196.823 114.593 196.188C114.098 195.553 113.837 194.751 113.809 193.78L113.795 193.36L113.809 192.94C113.837 191.979 114.098 191.181 114.593 190.546C115.087 189.902 115.82 189.58 116.791 189.58C117.752 189.58 118.508 189.921 119.059 190.602V187.382C119.059 187.289 119.087 187.214 119.143 187.158C119.208 187.093 119.287 187.06 119.381 187.06H120.053C120.146 187.06 120.221 187.093 120.277 187.158C120.342 187.214 120.375 187.289 120.375 187.382V196.678C120.375 196.771 120.342 196.851 120.277 196.916C120.221 196.972 120.146 197 120.053 197H119.423C119.329 197 119.25 196.972 119.185 196.916C119.129 196.851 119.101 196.771 119.101 196.678V196.09C118.559 196.79 117.789 197.14 116.791 197.14ZM117.085 196.006C117.729 196.006 118.209 195.796 118.527 195.376C118.853 194.947 119.031 194.438 119.059 193.85C119.068 193.747 119.073 193.57 119.073 193.318C119.073 193.057 119.068 192.875 119.059 192.772C119.04 192.221 118.863 191.741 118.527 191.33C118.191 190.919 117.71 190.714 117.085 190.714C116.422 190.714 115.937 190.919 115.629 191.33C115.33 191.741 115.167 192.282 115.139 192.954L115.125 193.36C115.125 195.124 115.778 196.006 117.085 196.006ZM125.677 197.14C125.023 197.14 124.473 197.037 124.025 196.832C123.586 196.617 123.255 196.375 123.031 196.104C122.816 195.833 122.709 195.609 122.709 195.432C122.709 195.339 122.741 195.269 122.807 195.222C122.881 195.166 122.956 195.138 123.031 195.138H123.661C123.754 195.138 123.838 195.185 123.913 195.278C124.137 195.539 124.379 195.745 124.641 195.894C124.902 196.043 125.252 196.118 125.691 196.118C126.176 196.118 126.568 196.025 126.867 195.838C127.175 195.642 127.329 195.376 127.329 195.04C127.329 194.816 127.263 194.634 127.133 194.494C127.011 194.345 126.797 194.219 126.489 194.116C126.19 194.004 125.742 193.883 125.145 193.752C124.333 193.575 123.754 193.318 123.409 192.982C123.073 192.646 122.905 192.212 122.905 191.68C122.905 191.325 123.007 190.989 123.213 190.672C123.427 190.345 123.735 190.084 124.137 189.888C124.547 189.683 125.037 189.58 125.607 189.58C126.204 189.58 126.713 189.678 127.133 189.874C127.553 190.07 127.865 190.303 128.071 190.574C128.285 190.835 128.393 191.055 128.393 191.232C128.393 191.316 128.36 191.386 128.295 191.442C128.239 191.498 128.169 191.526 128.085 191.526H127.497C127.385 191.526 127.291 191.479 127.217 191.386C127.067 191.209 126.937 191.073 126.825 190.98C126.722 190.877 126.568 190.789 126.363 190.714C126.167 190.639 125.915 190.602 125.607 190.602C125.159 190.602 124.813 190.7 124.571 190.896C124.328 191.083 124.207 191.33 124.207 191.638C124.207 191.834 124.258 192.002 124.361 192.142C124.463 192.273 124.659 192.394 124.949 192.506C125.247 192.618 125.677 192.735 126.237 192.856C127.123 193.043 127.749 193.313 128.113 193.668C128.486 194.013 128.673 194.457 128.673 194.998C128.673 195.399 128.556 195.763 128.323 196.09C128.089 196.417 127.744 196.673 127.287 196.86C126.839 197.047 126.302 197.14 125.677 197.14Z" fill="#FCFCFC"/>
</svg>
