<svg width="7791" height="171" viewBox="0 0 7791 171" fill="none" xmlns="http://www.w3.org/2000/svg">
    <g filter="url(#filter0_f_4316_46716)">
        <path
            d="M9 85.5C332.883 186.167 656.767 186.167 980.65 85.5C1304.53 -15.1667 1628.42 -15.1667 1952.3 85.5C2276.18 186.167 2600.07 186.167 2923.95 85.5C3247.83 -15.1667 3571.72 -15.1667 3895.6 85.5"
            stroke="url(#paint0_linear_4316_46716)" stroke-width="4" />
    </g>
    <path
        d="M9 85.5C332.883 186.167 656.767 186.167 980.65 85.5C1304.53 -15.1667 1628.42 -15.1667 1952.3 85.5C2276.18 186.167 2600.07 186.167 2923.95 85.5C3247.83 -15.1667 3571.72 -15.1667 3895.6 85.5"
        stroke="url(#paint1_linear_4316_46716)" stroke-width="2" />
    <g filter="url(#filter1_f_4316_46716)">
        <path
            d="M7781.6 85.5C7457.72 -15.1667 7133.83 -15.1667 6809.95 85.5C6486.07 186.167 6162.18 186.167 5838.3 85.5C5514.42 -15.1667 5190.53 -15.1667 4866.65 85.5C4542.77 186.167 4218.88 186.167 3895 85.5"
            stroke="url(#paint2_linear_4316_46716)" stroke-width="4" />
    </g>
    <path
        d="M7781.6 85.5C7457.72 -15.1667 7133.83 -15.1667 6809.95 85.5C6486.07 186.167 6162.18 186.167 5838.3 85.5C5514.42 -15.1667 5190.53 -15.1667 4866.65 85.5C4542.77 186.167 4218.88 186.167 3895 85.5"
        stroke="url(#paint3_linear_4316_46716)" stroke-width="2" />
    <defs>
        <filter id="filter0_f_4316_46716" x="0.40625" y="0" width="3903.79" height="171" filterUnits="userSpaceOnUse"
            color-interpolation-filters="sRGB">
            <feFlood flood-opacity="0" result="BackgroundImageFix" />
            <feBlend mode="normal" in="SourceGraphic" in2="BackgroundImageFix" result="shape" />
            <feGaussianBlur stdDeviation="4" result="effect1_foregroundBlur_4316_46716" />
        </filter>
        <filter id="filter1_f_4316_46716" x="3886.41" y="0" width="3903.79" height="171" filterUnits="userSpaceOnUse"
            color-interpolation-filters="sRGB">
            <feFlood flood-opacity="0" result="BackgroundImageFix" />
            <feBlend mode="normal" in="SourceGraphic" in2="BackgroundImageFix" result="shape" />
            <feGaussianBlur stdDeviation="4" result="effect1_foregroundBlur_4316_46716" />
        </filter>
        <linearGradient id="paint0_linear_4316_46716" x1="9.00003" y1="12.9609" x2="1049.9" y2="1809.64"
            gradientUnits="userSpaceOnUse">
            <stop stop-color="#0C3DDC" />
            <stop offset="1" stop-color="#E843C4" />
        </linearGradient>
        <linearGradient id="paint1_linear_4316_46716" x1="9.00003" y1="12.9609" x2="1049.9" y2="1809.64"
            gradientUnits="userSpaceOnUse">
            <stop stop-color="#0C3DDC" />
            <stop offset="1" stop-color="#E843C4" />
        </linearGradient>
        <linearGradient id="paint2_linear_4316_46716" x1="7781.6" y1="158.039" x2="6740.7" y2="-1638.64"
            gradientUnits="userSpaceOnUse">
            <stop stop-color="#0C3DDC" />
            <stop offset="1" stop-color="#E843C4" />
        </linearGradient>
        <linearGradient id="paint3_linear_4316_46716" x1="7781.6" y1="158.039" x2="6740.7" y2="-1638.64"
            gradientUnits="userSpaceOnUse">
            <stop stop-color="#0C3DDC" />
            <stop offset="1" stop-color="#E843C4" />
        </linearGradient>
    </defs>
</svg>