<svg  viewBox="0 0 16 16" fill="#FCFCFC" xmlns="http://www.w3.org/2000/svg">
<path fill-rule="evenodd" clip-rule="evenodd" d="M11.9998 1.33325C11.4476 1.33325 10.9998 1.78097 10.9998 2.33325V13.6666C10.9998 14.2189 11.4476 14.6666 11.9998 14.6666H13.3332C13.8855 14.6666 14.3332 14.2189 14.3332 13.6666V2.33325C14.3332 1.78097 13.8855 1.33325 13.3332 1.33325L11.9998 1.33325ZM6.33317 6.99992C6.33317 6.44763 6.78089 5.99992 7.33317 5.99992H8.6665C9.21879 5.99992 9.6665 6.44763 9.6665 6.99992V13.6666C9.6665 14.2189 9.21879 14.6666 8.6665 14.6666H7.33317C6.78089 14.6666 6.33317 14.2189 6.33317 13.6666V6.99992ZM1.6665 10.9999C1.6665 10.4476 2.11422 9.99992 2.6665 9.99992H3.99984C4.55212 9.99992 4.99984 10.4476 4.99984 10.9999V13.6666C4.99984 14.2189 4.55212 14.6666 3.99984 14.6666H2.6665C2.11422 14.6666 1.6665 14.2189 1.6665 13.6666V10.9999Z" fill="inherit"/>
</svg>
