<svg width="25" height="20" viewBox="0 0 25 20" fill="none" xmlns="http://www.w3.org/2000/svg">
<path fill-rule="evenodd" clip-rule="evenodd" d="M11.7266 5.32031L11.7789 6.18537L10.9064 6.07944C7.73045 5.6734 4.95586 4.29637 2.60008 1.98367L1.44837 0.836143L1.15172 1.68355C0.523507 3.57255 0.924862 5.56747 2.23363 6.90919C2.93164 7.65067 2.77459 7.75659 1.57052 7.31524C1.15171 7.17401 0.78526 7.06808 0.75036 7.12104C0.628208 7.24462 1.04701 8.85116 1.37857 9.48671C1.83227 10.3694 2.75714 11.2345 3.76925 11.7464L4.62431 12.1525L3.6122 12.1701C2.63498 12.1701 2.60008 12.1878 2.70479 12.5585C3.05379 13.7061 4.43236 14.9242 5.96798 15.4538L7.04989 15.8246L6.10758 16.3895C4.71156 17.2016 3.07124 17.6606 1.43092 17.6959C0.645658 17.7136 0 17.7842 0 17.8371C0 18.0137 2.12893 19.0023 3.36789 19.3907C7.08479 20.5382 11.4997 20.0439 14.8152 18.0843C17.171 16.6896 19.5268 13.9179 20.6262 11.2345C21.2195 9.80448 21.8128 7.19166 21.8128 5.93821C21.8128 5.12612 21.8651 5.02019 22.8423 4.04921C23.4182 3.48427 23.9592 2.86638 24.0639 2.68984C24.2384 2.35441 24.2209 2.35441 23.331 2.65453C21.8477 3.18415 21.6383 3.11354 22.3712 2.3191C22.9121 1.75416 23.5578 0.730218 23.5578 0.430096C23.5578 0.377134 23.2961 0.465405 22.9994 0.624293C22.6853 0.800835 21.9873 1.06565 21.4638 1.22454L20.5215 1.52466L19.6664 0.942068C19.1952 0.624293 18.5321 0.271208 18.1831 0.165283C17.2932 -0.0818758 15.9321 -0.0465674 15.1293 0.2359C12.9481 1.03034 11.5695 3.07823 11.7266 5.32031Z" fill="url(#paint0_linear_657_23659)"/>
<defs>
<linearGradient id="paint0_linear_657_23659" x1="12.0724" y1="20.0041" x2="12.0724" y2="0.00203392" gradientUnits="userSpaceOnUse">
<stop stop-color="#FFBF00"/>
<stop offset="1" stop-color="#E843C4"/>
</linearGradient>
</defs>
</svg>
