<svg width="30" height="16" viewBox="0 0 30 16" fill="none" xmlns="http://www.w3.org/2000/svg">
<path d="M16.7815 0.56968C17.1248 0.242784 17.5818 0.0620631 18.0558 0.0656502C18.5299 0.0692373 18.9841 0.256852 19.3224 0.588906C19.6608 0.92096 19.857 1.37148 19.8695 1.8454C19.882 2.31933 19.71 2.77958 19.3896 3.12906L9.66398 15.2922C9.49674 15.4723 9.2949 15.6169 9.07052 15.7172C8.84615 15.8175 8.60384 15.8716 8.35809 15.8761C8.11234 15.8807 7.8682 15.8356 7.64026 15.7437C7.41232 15.6517 7.20527 15.5147 7.03148 15.3409L0.581851 8.89131C0.40224 8.72394 0.258178 8.52212 0.15826 8.29787C0.0583422 8.07362 0.00461542 7.83154 0.000284508 7.58608C-0.0040464 7.34062 0.0411074 7.0968 0.133052 6.86916C0.224997 6.64153 0.36185 6.43475 0.535446 6.26115C0.709041 6.08755 0.915824 5.9507 1.14346 5.85876C1.37109 5.76681 1.61491 5.72166 1.86037 5.72599C2.10584 5.73032 2.34792 5.78405 2.57216 5.88396C2.79641 5.98388 2.99824 6.12794 3.1656 6.30756L8.26973 11.4092L16.7327 0.623306C16.7479 0.604487 16.7642 0.58658 16.7815 0.56968V0.56968ZM14.539 13.0984L16.7815 15.3409C16.9552 15.5144 17.1621 15.651 17.3898 15.7428C17.6176 15.8345 17.8614 15.8794 18.1069 15.8749C18.3523 15.8703 18.5943 15.8164 18.8185 15.7163C19.0426 15.6162 19.2443 15.4719 19.4115 15.2922L29.142 3.12906C29.3168 2.95648 29.4551 2.75046 29.5485 2.52328C29.6419 2.2961 29.6885 2.05242 29.6857 1.80681C29.6828 1.5612 29.6305 1.31868 29.5318 1.09374C29.4331 0.868798 29.2901 0.66605 29.1114 0.497602C28.9326 0.329153 28.7217 0.198458 28.4913 0.113322C28.2609 0.0281855 28.0157 -0.0096461 27.7703 0.00208683C27.525 0.0138198 27.2845 0.0748771 27.0633 0.181611C26.8421 0.288344 26.6446 0.438566 26.4827 0.623306L18.0173 11.4092L16.8351 10.2246L14.5365 13.0984H14.539Z" fill="url(#paint0_linear_7219_13903)"/>
<defs>
<linearGradient id="paint0_linear_7219_13903" x1="14.8429" y1="0" x2="14.8429" y2="15.8765" gradientUnits="userSpaceOnUse">
<stop stop-color="#E843C4"/>
<stop offset="1" stop-color="#FFBF00"/>
</linearGradient>
</defs>
</svg>
