<svg width="140" height="140" viewBox="0 0 140 140" fill="none" xmlns="http://www.w3.org/2000/svg">
<g filter="url(#filter0_d_5508)">
<path d="M118.973 66C118.973 93.3406 96.9267 115.5 69.7366 115.5C42.5464 115.5 20.5 93.3406 20.5 66C20.5 38.6594 42.5464 16.5 69.7366 16.5C96.9267 16.5 118.973 38.6594 118.973 66Z" fill="url(#paint0_linear_5508)" stroke="url(#paint1_linear_5508)"/>
<path d="M64.8325 75.856C64.4485 75.856 64.1125 75.736 63.8245 75.496C63.5365 75.208 63.3925 74.872 63.3925 74.488V72.832C63.7285 70.816 64.4725 69.016 65.6245 67.432C66.8245 65.848 68.4565 64.048 70.5205 62.032C72.0565 60.496 73.2085 59.248 73.9765 58.288C74.7445 57.28 75.1525 56.272 75.2005 55.264C75.3445 53.776 74.8405 52.6 73.6885 51.736C72.5845 50.824 71.2405 50.368 69.6565 50.368C65.9125 50.368 63.6085 52.168 62.7445 55.768C62.3605 56.92 61.6165 57.496 60.5125 57.496H51.7285C51.2005 57.496 50.7685 57.328 50.4325 56.992C50.1445 56.608 50.0005 56.128 50.0005 55.552C50.0965 52.912 50.9365 50.416 52.5205 48.064C54.1045 45.664 56.4325 43.72 59.5045 42.232C62.5765 40.744 66.2485 40 70.5205 40C74.8885 40 78.4405 40.696 81.1765 42.088C83.9125 43.432 85.8565 45.112 87.0085 47.128C88.2085 49.096 88.8085 51.112 88.8085 53.176C88.8085 55.528 88.2565 57.592 87.1525 59.368C86.0965 61.144 84.5125 63.184 82.4005 65.488C81.1045 66.88 80.0725 68.056 79.3045 69.016C78.5845 69.976 78.0325 70.984 77.6485 72.04C77.5045 72.472 77.3365 73.12 77.1445 73.984C76.7605 74.656 76.4245 75.136 76.1365 75.424C75.8485 75.712 75.4405 75.856 74.9125 75.856H64.8325ZM64.9765 91.12C64.4485 91.12 64.0165 90.952 63.6805 90.616C63.3445 90.28 63.1765 89.848 63.1765 89.32V81.112C63.1765 80.584 63.3445 80.152 63.6805 79.816C64.0165 79.48 64.4485 79.312 64.9765 79.312H74.1925C74.7205 79.312 75.1525 79.48 75.4885 79.816C75.8725 80.152 76.0645 80.584 76.0645 81.112V89.32C76.0645 89.848 75.8725 90.28 75.4885 90.616C75.1525 90.952 74.7205 91.12 74.1925 91.12H64.9765Z" fill="white" fill-opacity="0.35"/>
</g>
<defs>
<filter id="filter0_d_5508" x="0" y="0" width="139.473" height="140" filterUnits="userSpaceOnUse" color-interpolation-filters="sRGB">
<feFlood flood-opacity="0" result="BackgroundImageFix"/>
<feColorMatrix in="SourceAlpha" type="matrix" values="0 0 0 0 0 0 0 0 0 0 0 0 0 0 0 0 0 0 127 0" result="hardAlpha"/>
<feOffset dy="4"/>
<feGaussianBlur stdDeviation="10"/>
<feComposite in2="hardAlpha" operator="out"/>
<feColorMatrix type="matrix" values="0 0 0 0 0 0 0 0 0 0 0 0 0 0 0 0 0 0 0.26 0"/>
<feBlend mode="normal" in2="BackgroundImageFix" result="effect1_dropShadow_5508"/>
<feBlend mode="normal" in="SourceGraphic" in2="effect1_dropShadow_5508" result="shape"/>
</filter>
<linearGradient id="paint0_linear_5508" x1="69.7366" y1="16" x2="69.7366" y2="116" gradientUnits="userSpaceOnUse">
<stop stop-color="#211426"/>
<stop offset="1" stop-color="#190E1D"/>
</linearGradient>
<linearGradient id="paint1_linear_5508" x1="18.4826" y1="16" x2="83.2537" y2="135.613" gradientUnits="userSpaceOnUse">
<stop stop-color="#26DBDB"/>
<stop offset="1" stop-color="#0C3DDC"/>
</linearGradient>
</defs>
</svg>
