<svg width="40" height="35" viewBox="0 0 40 35" fill="none" xmlns="http://www.w3.org/2000/svg">
<path fill-rule="evenodd" clip-rule="evenodd" d="M25.58 14.9999H28.75C29.0815 14.9999 29.3995 15.1316 29.6339 15.366C29.8683 15.6005 30 15.9184 30 16.2499C30 16.5815 29.8683 16.8994 29.6339 17.1338C29.3995 17.3682 29.0815 17.4999 28.75 17.4999H11.25C10.9185 17.4999 10.6005 17.3682 10.3661 17.1338C10.1317 16.8994 10 16.5815 10 16.2499C10 15.9184 10.1317 15.6005 10.3661 15.366C10.6005 15.1316 10.9185 14.9999 11.25 14.9999H13.1425C12.7887 14.6074 12.5684 14.113 12.5131 13.5874C12.4579 13.0619 12.5706 12.5324 12.835 12.0749L19.085 1.24993C19.4165 0.675749 19.9626 0.256778 20.603 0.0851836C21.2434 -0.0864111 21.9258 0.00342544 22.5 0.334931L28.995 4.08493C29.5692 4.41646 29.9882 4.9625 30.1597 5.60293C30.3313 6.24337 30.2415 6.92573 29.91 7.49993L25.58 14.9999ZM27.745 6.24993L21.25 2.49993L15 13.3249L17.9 14.9999H22.695L27.745 6.24993ZM29.9 12.5L31.3425 10C31.7149 10.014 32.0794 10.1111 32.4094 10.2841C32.7395 10.4571 33.0267 10.7017 33.25 11L39.5 19.3325C39.8245 19.7653 40 20.2916 40 20.8325V32.5C40 33.1631 39.7366 33.799 39.2678 34.2678C38.7989 34.7366 38.163 35 37.5 35H2.5C1.83696 35 1.20107 34.7366 0.732233 34.2678C0.263392 33.799 0 33.1631 0 32.5L0 20.8325C0 20.2916 0.175445 19.7653 0.5 19.3325L6.75 11C6.98287 10.6895 7.28483 10.4375 7.63196 10.264C7.9791 10.0904 8.36189 10 8.75 10H11.16L9.96 12.075C9.88 12.2125 9.815 12.355 9.765 12.5H8.75L3.125 20H36.875L31.25 12.5H29.9Z" fill="url(#paint0_linear_167_26632)"/>
<defs>
<linearGradient id="paint0_linear_167_26632" x1="20" y1="0" x2="20" y2="35" gradientUnits="userSpaceOnUse">
<stop stop-color="#FFBF00"/>
<stop offset="1" stop-color="#F4900C"/>
</linearGradient>
</defs>
</svg>
