<svg width="18" height="14" viewBox="0 0 18 14" fill="none" xmlns="http://www.w3.org/2000/svg">
<path d="M15.2377 1.42433C14.0902 0.906861 12.8602 0.524386 11.574 0.3069C11.5626 0.304701 11.5507 0.306118 11.5401 0.310955C11.5295 0.315792 11.5206 0.32381 11.5148 0.333898C11.3573 0.61063 11.1818 0.971356 11.0588 1.25634C9.69465 1.05253 8.3078 1.05253 6.94366 1.25634C6.80666 0.940504 6.65218 0.632547 6.48092 0.333898C6.47512 0.323686 6.46634 0.315487 6.45575 0.310395C6.44516 0.305303 6.43328 0.30356 6.42168 0.3054C5.13621 0.522886 3.90625 0.905361 2.75803 1.42358C2.74815 1.42772 2.73978 1.43479 2.73403 1.44383C0.400099 4.87485 -0.239633 8.22113 0.0746083 11.5254C0.0754827 11.5335 0.0779949 11.5413 0.0819918 11.5484C0.0859887 11.5555 0.0913868 11.5617 0.0978576 11.5667C1.46011 12.5584 2.97953 13.3139 4.59248 13.8015C4.60372 13.805 4.61575 13.805 4.62699 13.8015C4.63823 13.798 4.64815 13.7912 4.65548 13.782C5.00197 13.317 5.31096 12.8258 5.57495 12.3099C5.5907 12.2799 5.5757 12.2439 5.5442 12.2319C5.05972 12.0494 4.59029 11.8293 4.14024 11.5734C4.13215 11.5688 4.12534 11.5622 4.12041 11.5543C4.11548 11.5464 4.11259 11.5374 4.11199 11.5282C4.1114 11.5189 4.11312 11.5096 4.117 11.5011C4.12088 11.4926 4.12681 11.4853 4.13424 11.4797C4.22874 11.4099 4.32324 11.3372 4.41323 11.2644C4.42133 11.2579 4.43109 11.2537 4.44142 11.2524C4.45175 11.2511 4.46224 11.2526 4.47173 11.2569C7.4169 12.5798 10.6066 12.5798 13.5172 11.2569C13.5267 11.2524 13.5373 11.2506 13.5478 11.2518C13.5583 11.253 13.5682 11.2571 13.5765 11.2637C13.6665 11.3372 13.7602 11.4099 13.8555 11.4797C13.863 11.4852 13.869 11.4924 13.873 11.5008C13.877 11.5092 13.8789 11.5185 13.8784 11.5277C13.878 11.537 13.8752 11.5461 13.8704 11.554C13.8656 11.562 13.859 11.5687 13.851 11.5734C13.4025 11.8314 12.936 12.0496 12.4462 12.2311C12.4387 12.2338 12.4319 12.2381 12.4262 12.2437C12.4204 12.2493 12.416 12.2561 12.413 12.2635C12.4101 12.271 12.4089 12.279 12.4093 12.287C12.4097 12.2949 12.4118 12.3028 12.4155 12.3099C12.6855 12.8251 12.9945 13.3155 13.3342 13.7813C13.3413 13.7908 13.3511 13.798 13.3624 13.8017C13.3737 13.8055 13.3858 13.8057 13.3972 13.8023C15.0129 13.316 16.5348 12.5602 17.8986 11.5667C17.9052 11.562 17.9108 11.556 17.915 11.549C17.9191 11.542 17.9217 11.5342 17.9226 11.5262C18.2976 7.70591 17.2941 4.38663 15.2609 1.44533C15.2559 1.43577 15.2477 1.42832 15.2377 1.42433ZM6.01519 9.5133C5.12871 9.5133 4.39748 8.7116 4.39748 7.72841C4.39748 6.74448 5.11446 5.94353 6.01519 5.94353C6.92266 5.94353 7.64714 6.75123 7.63289 7.72841C7.63289 8.71235 6.91591 9.5133 6.01519 9.5133ZM11.9963 9.5133C11.109 9.5133 10.3786 8.7116 10.3786 7.72841C10.3786 6.74448 11.0948 5.94353 11.9963 5.94353C12.9037 5.94353 13.6282 6.75123 13.614 7.72841C13.614 8.71235 12.9045 9.5133 11.9963 9.5133Z" fill="white"/>
</svg>
