<svg width="18" height="14" viewBox="0 0 18 14" fill="none" xmlns="http://www.w3.org/2000/svg">
<path d="M16.5 0.75H1.5C1.16848 0.75 0.850537 0.881696 0.616116 1.11612C0.381696 1.35054 0.25 1.66848 0.25 2V12C0.25 12.3315 0.381696 12.6495 0.616116 12.8839C0.850537 13.1183 1.16848 13.25 1.5 13.25H16.5C16.8315 13.25 17.1495 13.1183 17.3839 12.8839C17.6183 12.6495 17.75 12.3315 17.75 12V2C17.75 1.66848 17.6183 1.35054 17.3839 1.11612C17.1495 0.881696 16.8315 0.75 16.5 0.75ZM15.125 2L9 6.2375L2.875 2H15.125ZM1.5 12V2.56875L8.64375 7.5125C8.74837 7.58508 8.87267 7.62397 9 7.62397C9.12733 7.62397 9.25163 7.58508 9.35625 7.5125L16.5 2.56875V12H1.5Z" fill="#211426"/>
</svg>
