<svg width="16" height="16" viewBox="0 0 16 16" fill="none" xmlns="http://www.w3.org/2000/svg">
<path fill-rule="evenodd" clip-rule="evenodd" d="M9.19612 2.60005C9.19612 2.27937 9.46388 2.01941 9.79418 2.01941L13.3825 2.01941C13.7128 2.01941 13.9806 2.27937 13.9806 2.60005V6.08388C13.9806 6.40456 13.7128 6.66452 13.3825 6.66452C13.0522 6.66452 12.7845 6.40456 12.7845 6.08388V4.11795L6.62872 10.0944C6.39516 10.3212 6.01649 10.3212 5.78293 10.0944C5.54938 9.86766 5.54938 9.50002 5.78293 9.27327L12.0583 3.18069H9.79418C9.46388 3.18069 9.19612 2.92073 9.19612 2.60005ZM3.81358 5.27099C3.65497 5.27099 3.50285 5.33216 3.39069 5.44105C3.27854 5.54994 3.21553 5.69763 3.21553 5.85163V12.2387C3.21553 12.3927 3.27854 12.5403 3.39069 12.6492C3.50285 12.7581 3.65497 12.8193 3.81358 12.8193H10.3922C10.5508 12.8193 10.703 12.7581 10.8151 12.6492C10.9273 12.5403 10.9903 12.3927 10.9903 12.2387V8.75482C10.9903 8.43414 11.258 8.17418 11.5883 8.17418C11.9186 8.17418 12.1864 8.43414 12.1864 8.75482V12.2387C12.1864 12.7006 11.9974 13.1437 11.6609 13.4704C11.3244 13.797 10.8681 13.9806 10.3922 13.9806H3.81358C3.33774 13.9806 2.88138 13.797 2.54491 13.4704C2.20844 13.1437 2.01941 12.7006 2.01941 12.2387L2.01941 5.85163C2.01941 5.38964 2.20844 4.94658 2.54491 4.6199C2.88138 4.29323 3.33774 4.10971 3.81358 4.10971H7.40193C7.73223 4.10971 7.99999 4.36967 7.99999 4.69035C7.99999 5.01103 7.73223 5.27099 7.40193 5.27099H3.81358Z" fill="white"/>
</svg>
