<svg width="20" height="20" viewBox="0 0 20 20" fill="none" xmlns="http://www.w3.org/2000/svg">
<path d="M20 10C20 15.5228 15.5228 20 10 20C4.47715 20 0 15.5228 0 10C0 4.47715 4.47715 0 10 0C15.5228 0 20 4.47715 20 10Z" fill="white" fill-opacity="0.1"/>
<path d="M10.0176 12.8655C8.43446 12.8655 7.16797 11.599 7.16797 10.0159C7.16797 8.43275 8.43446 7.16626 10.0176 7.16626C11.6007 7.16626 12.8672 8.43275 12.8672 10.0159C12.8672 11.599 11.6007 12.8655 10.0176 12.8655ZM10.0176 7.79951C8.78274 7.79951 7.80121 8.78104 7.80121 10.0159C7.80121 11.2507 8.78274 12.2322 10.0176 12.2322C11.2524 12.2322 12.2339 11.2507 12.2339 10.0159C12.2339 8.78104 11.2524 7.79951 10.0176 7.79951Z" fill="white"/>
<path d="M10.8707 16.0317H9.16095L8.68602 14.5752C8.36939 14.4802 8.05277 14.3536 7.76781 14.1953L6.37467 14.8918L5.1715 13.6887L5.86807 12.2955C5.70976 12.0106 5.58311 11.6939 5.48813 11.3773L4 10.8707V9.16095L5.45646 8.68602C5.55145 8.36939 5.6781 8.05277 5.83641 7.76781L5.13984 6.37467L6.34301 5.1715L7.73615 5.86807C8.02111 5.70976 8.33773 5.58311 8.65435 5.48813L9.16095 4H10.8707L11.3456 5.45646C11.6623 5.55145 11.9789 5.6781 12.2639 5.83641L13.657 5.13984L14.8602 6.34301L14.1636 7.73615C14.3219 8.02111 14.4485 8.33773 14.5435 8.65435L16 9.12929V10.8391L14.5435 11.314C14.4485 11.6306 14.3219 11.9472 14.1636 12.2322L14.8602 13.6253L13.657 14.8285L12.2639 14.1319C11.9789 14.2902 11.6623 14.4169 11.3456 14.5119L10.8707 16.0317ZM9.60422 15.3984H10.4274L10.8707 14.0369L11.029 14.0053C11.409 13.9103 11.7573 13.752 12.1055 13.562L12.2639 13.467L13.5303 14.1003L14.1003 13.5303L13.467 12.2639L13.562 12.1055C13.752 11.7889 13.9103 11.409 14.0053 11.029L14.0369 10.8707L15.3984 10.4274V9.60422L14.0369 9.16095L14.0053 9.00264C13.9103 8.62269 13.752 8.27441 13.562 7.92612L13.467 7.76781L14.1003 6.50132L13.5303 5.9314L12.2639 6.56464L12.1055 6.46966C11.7573 6.27968 11.409 6.12137 11.029 6.02639L10.8707 5.99472L10.4274 4.63325H9.60422L9.16095 5.99472L9.00264 6.02639C8.62269 6.12137 8.27441 6.27968 7.92612 6.46966L7.76781 6.56464L6.50132 5.9314L5.9314 6.50132L6.56464 7.76781L6.46966 7.92612C6.27968 8.24274 6.12137 8.62269 6.02638 9.00264L5.99472 9.16095L4.63325 9.60422V10.4274L5.99472 10.8707L6.02638 11.029C6.12137 11.409 6.27968 11.7573 6.46966 12.1055L6.56464 12.2639L5.9314 13.5303L6.50132 14.1003L7.76781 13.467L7.92612 13.562C8.27441 13.752 8.62269 13.9103 9.00264 14.0053L9.16095 14.0369L9.60422 15.3984V15.3984Z" fill="white"/>
</svg>