<svg width="156" height="98" viewBox="0 0 156 98" fill="none" xmlns="http://www.w3.org/2000/svg">
<g filter="url(#filter0_d_5507_11905)">
<circle cx="107" cy="45" r="29" fill="white"/>
<circle cx="107" cy="45" r="28.5" stroke="white" stroke-opacity="0.05"/>
<path d="M107 64C117.493 64 126 55.4934 126 45C126 34.5066 117.493 26 107 26C96.5066 26 88 34.5066 88 45C88 55.4934 96.5066 64 107 64Z" fill="#FFC800"/>
<path d="M107 62.6428C116.744 62.6428 124.643 54.7439 124.643 45C124.643 35.2561 116.744 27.3572 107 27.3572C97.2563 27.3572 89.3574 35.2561 89.3574 45C89.3574 54.7439 97.2563 62.6428 107 62.6428Z" fill="black"/>
<path d="M115.446 35.5735H112.63L113.254 37.4993L113.465 38.148L112.912 38.5483L108.163 41.9955L112.362 45.0518L117.348 41.435L115.446 35.5735Z" fill="#FFC800"/>
<path d="M100.884 38.5376L100.333 38.1304L100.545 37.4816L101.169 35.564H98.3628L96.4546 41.4201L101.435 45.045L105.643 41.9941L100.884 38.5376Z" fill="#E1AA00"/>
<path d="M106.417 38.6719L102.156 35.5708L101.437 37.7789L106.417 41.4038V38.6733V38.6719Z" fill="#E1AA00"/>
<path d="M111.644 35.5747L107.377 38.6704V41.4009L112.36 37.7854L111.644 35.5747Z" fill="#FFC800"/>
<path d="M101.986 45.8104L101.444 46.2025L101.433 46.2337L106.413 49.8587V42.594L101.986 45.8104Z" fill="#E1AA00"/>
<path d="M112.348 46.2026L111.805 45.8078L107.381 42.5886V49.8506L112.358 46.2393L112.348 46.2026Z" fill="#FFC800"/>
<path d="M106.416 51.0179L105.865 50.6107L102.362 48.062L101.437 50.9039L106.417 54.5288V51.011L106.416 51.0179Z" fill="#E1AA00"/>
<path d="M111.437 48.0701L107.925 50.6174L107.382 51.015V54.5326L112.366 50.9186L111.437 48.0701Z" fill="#FFC800"/>
</g>
<g filter="url(#filter1_d_5507_11905)">
<circle cx="68" cy="45" r="29" fill="white"/>
<circle cx="68" cy="45" r="28.5" stroke="white" stroke-opacity="0.05"/>
<g clip-path="url(#clip0_5507_11905)">
<path d="M78.605 33.5825H57.6123V52.6623H78.605V33.5825Z" fill="white"/>
<path fill-rule="evenodd" clip-rule="evenodd" d="M85.1313 44.7727C85.1313 54.1616 77.5203 61.7727 68.1313 61.7727C58.7425 61.7727 51.1313 54.1616 51.1313 44.7727C51.1313 35.3839 58.7425 27.7727 68.1313 27.7727C77.5203 27.7727 85.1313 35.3839 85.1313 44.7727ZM63.314 51.5378H60.0148C59.3215 51.5378 58.9791 51.5378 58.7703 51.4043C58.5448 51.2581 58.407 51.0158 58.3903 50.7485C58.3777 50.5022 58.549 50.2014 58.8914 49.6L67.0376 35.2413C67.3842 34.6315 67.5596 34.3267 67.781 34.2139C68.019 34.0928 68.303 34.0928 68.541 34.2139C68.7624 34.3267 68.9378 34.6315 69.2844 35.2413L70.9591 38.1646L70.9676 38.1796C71.342 38.8337 71.5319 39.1654 71.6148 39.5135C71.7066 39.8936 71.7066 40.2945 71.6148 40.6746C71.5312 41.0253 71.3433 41.3595 70.9633 42.0235L66.6843 49.5875L66.6732 49.6069C66.2963 50.2664 66.1054 50.6007 65.8407 50.8529C65.5525 51.1286 65.2059 51.3289 64.8258 51.4419C64.4792 51.5378 64.0908 51.5378 63.314 51.5378ZM71.6457 51.5378H76.3731C77.0705 51.5378 77.4214 51.5378 77.6303 51.4002C77.8558 51.254 77.9977 51.0075 78.0104 50.7404C78.0224 50.502 77.8549 50.2129 77.5266 49.6465C77.5153 49.6272 77.504 49.6076 77.4924 49.5876L75.1244 45.5367L75.0975 45.4911C74.7647 44.9284 74.5968 44.6442 74.3811 44.5344C74.1431 44.4133 73.8631 44.4133 73.6252 44.5344C73.408 44.6471 73.2326 44.9437 72.886 45.5409L70.5264 49.5918L70.5183 49.6058C70.1729 50.202 70.0003 50.5 70.0128 50.7444C70.0295 51.0118 70.1673 51.2581 70.3928 51.4043C70.5974 51.5378 70.9482 51.5378 71.6457 51.5378Z" fill="#E84142"/>
</g>
</g>
<circle cx="29" cy="45" r="29" fill="url(#paint0_linear_5507_11905)"/>
<circle cx="29" cy="45" r="28.5" stroke="white" stroke-opacity="0.05"/>
<path fill-rule="evenodd" clip-rule="evenodd" d="M28.9948 28.7088C19.9988 28.7089 12.7083 36.0058 12.7083 45.0101C12.7083 49.9074 14.8639 54.3001 18.2817 57.2932L25.9342 50.8367H18.1899C17.3549 50.8367 16.6905 50.1577 16.6905 49.336C16.6905 48.5005 17.3689 47.8354 18.1899 47.8354H39.8101C40.6451 47.8354 41.3095 48.5144 41.3095 49.336C41.3095 50.1716 40.6311 50.8367 39.8101 50.8367H32.9935L40.0355 57.015C43.2645 54.0366 45.2917 49.7659 45.2917 45.0201C45.2917 36.0162 37.9915 28.7187 28.9948 28.7088ZM12 45.0101C12 35.6145 19.6075 28 28.995 28H28.9954C38.3822 28.0102 46 35.6241 46 45.0201C46 50.0896 43.7823 54.6402 40.2742 57.7546L40.0405 57.962L31.1111 50.1279H39.8101C40.2438 50.1279 40.6012 49.7763 40.6012 49.336C40.6012 48.9017 40.2498 48.5442 39.8101 48.5442H18.1899C17.7562 48.5442 17.3988 48.8958 17.3988 49.336C17.3988 49.7703 17.7502 50.1279 18.1899 50.1279H27.8732L18.2795 58.2222L18.0512 58.0295C14.3499 54.905 12 50.2323 12 45.0101Z" fill="url(#paint1_linear_5507_11905)"/>
<defs>
<filter id="filter0_d_5507_11905" x="58" y="0" width="98" height="98" filterUnits="userSpaceOnUse" color-interpolation-filters="sRGB">
<feFlood flood-opacity="0" result="BackgroundImageFix"/>
<feColorMatrix in="SourceAlpha" type="matrix" values="0 0 0 0 0 0 0 0 0 0 0 0 0 0 0 0 0 0 127 0" result="hardAlpha"/>
<feOffset dy="4"/>
<feGaussianBlur stdDeviation="10"/>
<feComposite in2="hardAlpha" operator="out"/>
<feColorMatrix type="matrix" values="0 0 0 0 0 0 0 0 0 0 0 0 0 0 0 0 0 0 0.26 0"/>
<feBlend mode="normal" in2="BackgroundImageFix" result="effect1_dropShadow_5507_11905"/>
<feBlend mode="normal" in="SourceGraphic" in2="effect1_dropShadow_5507_11905" result="shape"/>
</filter>
<filter id="filter1_d_5507_11905" x="19" y="0" width="98" height="98" filterUnits="userSpaceOnUse" color-interpolation-filters="sRGB">
<feFlood flood-opacity="0" result="BackgroundImageFix"/>
<feColorMatrix in="SourceAlpha" type="matrix" values="0 0 0 0 0 0 0 0 0 0 0 0 0 0 0 0 0 0 127 0" result="hardAlpha"/>
<feOffset dy="4"/>
<feGaussianBlur stdDeviation="10"/>
<feComposite in2="hardAlpha" operator="out"/>
<feColorMatrix type="matrix" values="0 0 0 0 0 0 0 0 0 0 0 0 0 0 0 0 0 0 0.26 0"/>
<feBlend mode="normal" in2="BackgroundImageFix" result="effect1_dropShadow_5507_11905"/>
<feBlend mode="normal" in="SourceGraphic" in2="effect1_dropShadow_5507_11905" result="shape"/>
</filter>
<linearGradient id="paint0_linear_5507_11905" x1="29" y1="16" x2="29" y2="74" gradientUnits="userSpaceOnUse">
<stop stop-color="#211426"/>
<stop offset="1" stop-color="#190E1D"/>
</linearGradient>
<linearGradient id="paint1_linear_5507_11905" x1="29" y1="28.3544" x2="29" y2="57.7586" gradientUnits="userSpaceOnUse">
<stop stop-color="#FFBF00"/>
<stop offset="1" stop-color="#E843C4"/>
</linearGradient>
<clipPath id="clip0_5507_11905">
<rect width="34" height="34" fill="white" transform="translate(51.1201 27.75)"/>
</clipPath>
</defs>
</svg>
