<svg width="24" height="24" viewBox="0 0 24 24" fill="none" xmlns="http://www.w3.org/2000/svg">
    <path
        d="M14.7916 10.6211L4.20187 21.2014C3.81505 21.5879 3.18821 21.5877 2.80156 21.2011V21.2011C2.41491 20.8144 2.41477 20.1876 2.80125 19.8008L13.3816 9.21109L14.7916 10.6211ZM19.2989 7.76462C19.2807 7.74229 19.2646 7.71869 19.2511 7.69327C19.1923 7.58214 19.0254 7.24887 19 7C18.9837 6.84063 19.0161 6.62532 19.0425 6.4873C19.0596 6.39776 19.1056 6.31702 19.1701 6.25256L19.5701 5.85252C19.6482 5.77441 19.6482 5.64778 19.5701 5.56967L18.433 4.43252C18.3549 4.35441 18.2282 4.35441 18.1501 4.43251L17.7512 4.83148C17.686 4.89662 17.6043 4.94292 17.5137 4.95971C17.375 4.9854 17.1595 5.0167 17 5C16.7532 4.97416 16.4226 4.81057 16.3105 4.75195C16.2844 4.73827 16.2601 4.72169 16.2371 4.70307C14.525 3.31172 12.601 2.19098 10.5411 1.39771C10.5019 1.38265 10.4579 1.40058 10.4403 1.4386V1.4386C9.99286 2.40348 10.386 3.54248 11.2869 4.10763C12.3971 4.80397 13.4491 5.5864 14.452 6.4579C14.4788 6.48122 14.4802 6.52243 14.4551 6.54757L14.2431 6.75954C14.1097 6.89294 14.1097 7.10924 14.2431 7.24265L16.76 9.75954C16.8934 9.89294 17.1097 9.89294 17.2431 9.75954L17.4551 9.54757C17.4802 9.52243 17.5214 9.52384 17.5448 9.55068C18.4163 10.5536 19.1987 11.6056 19.895 12.7157C20.4602 13.6167 21.5992 14.0098 22.5641 13.5624V13.5624C22.6021 13.5448 22.62 13.5007 22.6049 13.4616C21.8115 11.4013 20.6905 9.47701 19.2989 7.76462Z"
        fill="#FCFCFC" />
</svg>