<svg width="32" height="32" viewBox="0 0 32 32" fill="none" xmlns="http://www.w3.org/2000/svg">
<path opacity="0.1" fill-rule="evenodd" clip-rule="evenodd" d="M0 16C0 7.16344 7.16344 0 16 0C24.8366 0 32 7.16344 32 16C32 24.8366 24.8366 32 16 32C7.16344 32 0 24.8366 0 16Z" fill="white"/>
<g clip-path="url(#clip0_1279_30024)">
<path d="M18.0003 10.5003C18.0002 9.91375 18.2064 9.34583 18.5827 8.89593C18.9591 8.44602 19.4817 8.14278 20.059 8.03925C20.6364 7.93572 21.2318 8.03851 21.741 8.32962C22.2502 8.62073 22.6409 9.08162 22.8446 9.63167C23.0484 10.1817 23.0522 10.7859 22.8555 11.3385C22.6587 11.8911 22.274 12.3569 21.7685 12.6545C21.263 12.952 20.669 13.0623 20.0903 12.9662C19.5117 12.87 18.9853 12.5734 18.6033 12.1283L11.8853 15.2483C12.0397 15.7378 12.0397 16.2629 11.8853 16.7523L18.6033 19.8723C19.0071 19.4026 19.5709 19.0996 20.1855 19.022C20.8 18.9443 21.4215 19.0976 21.9294 19.452C22.4374 19.8065 22.7957 20.3369 22.9349 20.9404C23.0741 21.544 22.9843 22.1778 22.6829 22.7189C22.3814 23.26 21.8898 23.67 21.3033 23.8693C20.7169 24.0686 20.0773 24.0431 19.5085 23.7977C18.9398 23.5524 18.4824 23.1046 18.225 22.5412C17.9676 21.9778 17.9285 21.3389 18.1153 20.7483L11.3973 17.6283C11.0647 18.0159 10.6214 18.2923 10.127 18.4204C9.63267 18.5485 9.11093 18.5221 8.632 18.3448C8.15308 18.1675 7.73994 17.8477 7.44817 17.4286C7.1564 17.0095 7 16.511 7 16.0003C7 15.4896 7.1564 14.9912 7.44817 14.572C7.73994 14.1529 8.15308 13.8331 8.632 13.6558C9.11093 13.4785 9.63267 13.4521 10.127 13.5802C10.6214 13.7083 11.0647 13.9847 11.3973 14.3723L18.1153 11.2523C18.0388 11.009 18 10.7554 18.0003 10.5003Z" fill="white"/>
</g>
<defs>
<clipPath id="clip0_1279_30024">
<rect width="16" height="16" fill="white" transform="translate(7 8)"/>
</clipPath>
</defs>
</svg>
