<svg viewBox="0 0 19 20" fill="#3C4753" xmlns="http://www.w3.org/2000/svg">
<path d="M11.6579 15.5481L6.2793 12.6146C5.76301 13.1271 5.10655 13.4752 4.39267 13.6152C3.6788 13.7551 2.93947 13.6806 2.2679 13.4009C1.59632 13.1213 1.02257 12.6491 0.618973 12.0439C0.215375 11.4386 0 10.7275 0 10C0 9.27254 0.215375 8.56136 0.618973 7.95612C1.02257 7.35088 1.59632 6.87869 2.2679 6.59906C2.93947 6.31943 3.6788 6.24489 4.39267 6.38483C5.10655 6.52477 5.76301 6.87294 6.2793 7.38543L11.6579 4.45193C11.4734 3.58644 11.6067 2.68347 12.0333 1.90815C12.4598 1.13282 13.1512 0.536945 13.981 0.229493C14.8108 -0.0779591 15.7236 -0.0764448 16.5524 0.233759C17.3811 0.543963 18.0705 1.14213 18.4945 1.91886C18.9185 2.6956 19.0488 3.59901 18.8614 4.46388C18.6741 5.32875 18.1817 6.09729 17.4743 6.62895C16.7669 7.16061 15.8917 7.41987 15.0089 7.35932C14.126 7.29877 13.2945 6.92245 12.6663 6.29918L7.28766 9.23268C7.39495 9.7386 7.39495 10.2614 7.28766 10.7673L12.6663 13.7008C13.2945 13.0775 14.126 12.7012 15.0089 12.6407C15.8917 12.5801 16.7669 12.8394 17.4743 13.371C18.1817 13.9027 18.6741 14.6712 18.8614 15.5361C19.0488 16.401 18.9185 17.3044 18.4945 18.0811C18.0705 18.8579 17.3811 19.456 16.5524 19.7662C15.7236 20.0764 14.8108 20.078 13.981 19.7705C13.1512 19.4631 12.4598 18.8672 12.0333 18.0919C11.6067 17.3165 11.4734 16.4136 11.6579 15.5481Z" fill="inherit"/>
</svg>
