<svg width="16" height="16" viewBox="0 0 16 16" fill="none" xmlns="http://www.w3.org/2000/svg">
<g clip-path="url(#clip0_1279_30026)">
<path d="M11.0003 2.50031C11.0002 1.91375 11.2064 1.34583 11.5827 0.895925C11.9591 0.44602 12.4817 0.142778 13.059 0.0392511C13.6364 -0.0642752 14.2318 0.0385074 14.741 0.329616C15.2502 0.620725 15.6409 1.08162 15.8446 1.63167C16.0484 2.18172 16.0522 2.78589 15.8555 3.33849C15.6587 3.89108 15.274 4.3569 14.7685 4.65446C14.263 4.95201 13.669 5.06235 13.0903 4.96617C12.5117 4.86998 11.9853 4.5734 11.6033 4.12831L4.88527 7.24831C5.03971 7.73775 5.03971 8.26287 4.88527 8.75231L11.6033 11.8723C12.0071 11.4026 12.5709 11.0996 13.1855 11.022C13.8 10.9443 14.4215 11.0976 14.9294 11.452C15.4374 11.8065 15.7957 12.3369 15.9349 12.9404C16.0741 13.544 15.9843 14.1778 15.6829 14.7189C15.3814 15.26 14.8898 15.67 14.3033 15.8693C13.7169 16.0686 13.0773 16.0431 12.5085 15.7977C11.9398 15.5524 11.4824 15.1046 11.225 14.5412C10.9676 13.9778 10.9285 13.3389 11.1153 12.7483L4.39727 9.62831C4.0647 10.0159 3.62142 10.2923 3.12704 10.4204C2.63267 10.5485 2.11093 10.5221 1.632 10.3448C1.15308 10.1675 0.739941 9.84775 0.448173 9.4286C0.156404 9.00946 0 8.51101 0 8.00031C0 7.48962 0.156404 6.99117 0.448173 6.57203C0.739941 6.15288 1.15308 5.83315 1.632 5.65584C2.11093 5.47852 2.63267 5.45214 3.12704 5.58023C3.62142 5.70832 4.0647 5.98474 4.39727 6.37231L11.1153 3.25231C11.0388 3.00898 11 2.75538 11.0003 2.50031Z" fill="white"/>
</g>
<defs>
<clipPath id="clip0_1279_30026">
<rect width="16" height="16" fill="white"/>
</clipPath>
</defs>
</svg>
