<svg width="20" height="20" viewBox="0 0 20 20" fill="none" xmlns="http://www.w3.org/2000/svg">
<g filter="url(#filter0_f_21_20596)">
<path fill-rule="evenodd" clip-rule="evenodd" d="M3.23077 10C3.23077 6.26146 6.26146 3.23077 10 3.23077C13.7385 3.23077 16.7692 6.26146 16.7692 10C16.7692 13.7385 13.7385 16.7692 10 16.7692C6.26146 16.7692 3.23077 13.7385 3.23077 10ZM10 2C5.58172 2 2 5.58172 2 10C2 14.4183 5.58172 18 10 18C14.4183 18 18 14.4183 18 10C18 5.58172 14.4183 2 10 2ZM9.99966 5.69211C9.65979 5.69211 9.38428 5.96763 9.38428 6.30749C9.38428 6.64736 9.65979 6.92288 9.99966 6.92288H10.007C10.3469 6.92288 10.6224 6.64736 10.6224 6.30749C10.6224 5.96763 10.3469 5.69211 10.007 5.69211H9.99966ZM7.90625 9.26133C7.90625 8.92147 8.18177 8.64595 8.52163 8.64595H9.99856C10.3384 8.64595 10.6139 8.92147 10.6139 9.26133V12.3381H11.4755C11.8153 12.3381 12.0909 12.6136 12.0909 12.9535C12.0909 13.2933 11.8153 13.5688 11.4755 13.5688H10.0138C10.0087 13.569 10.0036 13.569 9.99856 13.569C9.99348 13.569 9.98841 13.569 9.98336 13.5688H8.52163C8.18177 13.5688 7.90625 13.2933 7.90625 12.9535C7.90625 12.6136 8.18177 12.3381 8.52163 12.3381H9.38317V9.87672H8.52163C8.18177 9.87672 7.90625 9.6012 7.90625 9.26133Z" fill="#FCFCFC"/>
</g>
<path fill-rule="evenodd" clip-rule="evenodd" d="M3.23077 10C3.23077 6.26146 6.26146 3.23077 10 3.23077C13.7385 3.23077 16.7692 6.26146 16.7692 10C16.7692 13.7385 13.7385 16.7692 10 16.7692C6.26146 16.7692 3.23077 13.7385 3.23077 10ZM10 2C5.58172 2 2 5.58172 2 10C2 14.4183 5.58172 18 10 18C14.4183 18 18 14.4183 18 10C18 5.58172 14.4183 2 10 2ZM9.99966 5.69211C9.65979 5.69211 9.38428 5.96763 9.38428 6.30749C9.38428 6.64736 9.65979 6.92288 9.99966 6.92288H10.007C10.3469 6.92288 10.6224 6.64736 10.6224 6.30749C10.6224 5.96763 10.3469 5.69211 10.007 5.69211H9.99966ZM7.90625 9.26133C7.90625 8.92147 8.18177 8.64595 8.52163 8.64595H9.99856C10.3384 8.64595 10.6139 8.92147 10.6139 9.26133V12.3381H11.4755C11.8153 12.3381 12.0909 12.6136 12.0909 12.9535C12.0909 13.2933 11.8153 13.5688 11.4755 13.5688H10.0138C10.0087 13.569 10.0036 13.569 9.99856 13.569C9.99348 13.569 9.98841 13.569 9.98336 13.5688H8.52163C8.18177 13.5688 7.90625 13.2933 7.90625 12.9535C7.90625 12.6136 8.18177 12.3381 8.52163 12.3381H9.38317V9.87672H8.52163C8.18177 9.87672 7.90625 9.6012 7.90625 9.26133Z" fill="#FCFCFC"/>
<defs>
<filter id="filter0_f_21_20596" x="0" y="0" width="20" height="20" filterUnits="userSpaceOnUse" color-interpolation-filters="sRGB">
<feFlood flood-opacity="0" result="BackgroundImageFix"/>
<feBlend mode="normal" in="SourceGraphic" in2="BackgroundImageFix" result="shape"/>
<feGaussianBlur stdDeviation="1" result="effect1_foregroundBlur_21_20596"/>
</filter>
</defs>
</svg>
