<svg width="40" height="53" viewBox="0 0 40 53" fill="none" xmlns="http://www.w3.org/2000/svg">
<path fill-rule="evenodd" clip-rule="evenodd" d="M20.215 2.76882L13.995 13.5421L20.4954 17.2951L26.7153 6.52181L20.215 2.76882ZM18.1749 1.30232C18.7962 0.226157 20.1723 -0.142561 21.2485 0.478759L28.1819 4.48175C29.258 5.10307 29.6267 6.47915 29.0054 7.55531L22.5354 18.7616C21.9141 19.8378 20.538 20.2065 19.4619 19.5852L12.5285 15.5822C11.4523 14.9609 11.0836 13.5848 11.7049 12.5086L18.1749 1.30232ZM8.75 27.823H31.3425C31.7149 27.837 32.0794 27.934 32.4095 28.1071C32.7395 28.2801 33.0267 28.5247 33.25 28.823L39.5 37.1555C39.8246 37.5883 40 38.1146 40 38.6555V50.323C40 50.9861 39.7366 51.6219 39.2678 52.0908C38.7989 52.5596 38.163 52.823 37.5 52.823H2.5C1.83696 52.823 1.20107 52.5596 0.732233 52.0908C0.263392 51.6219 0 50.9861 0 50.323L0 38.6555C0 38.1146 0.175445 37.5883 0.5 37.1555L6.75 28.823C6.98287 28.5125 7.28483 28.2605 7.63196 28.0869C7.9791 27.9134 8.36189 27.823 8.75 27.823ZM30.0145 30.1245L29.9 30.323C29.9069 30.303 29.9496 30.23 30.0145 30.1245ZM29.9 30.323H31.25L36.875 37.823H3.125L8.75 30.323H29.9ZM12 32.2209C11.3097 32.2209 10.75 32.7805 10.75 33.4709C10.75 34.1612 11.3097 34.7209 12 34.7209H29C29.6904 34.7209 30.25 34.1612 30.25 33.4709C30.25 32.7805 29.6904 32.2209 29 32.2209H12Z" fill="url(#paint0_linear_167_26642)"/>
<defs>
<linearGradient id="paint0_linear_167_26642" x1="20" y1="0.925053" x2="20" y2="52.0741" gradientUnits="userSpaceOnUse">
<stop stop-color="#FFBF00"/>
<stop offset="1" stop-color="#F4900C"/>
</linearGradient>
</defs>
</svg>
