<svg width="21" height="20" viewBox="0 0 21 20" fill="none" xmlns="http://www.w3.org/2000/svg">
<path fill-rule="evenodd" clip-rule="evenodd" d="M8.39775 19.8469C8.9668 19.9475 9.55247 20 10.1504 20C10.7466 20 11.3307 19.9478 11.8983 19.8478C14.9617 19.3077 17.5442 17.3732 18.9669 14.7232H19.1543V14.3561C19.7925 13.0393 20.1504 11.5615 20.1504 10C20.1504 8.43854 19.7925 6.96066 19.1543 5.64393V5.27679H18.9669C17.55 2.63745 14.9825 0.707856 11.9353 0.15883C11.3561 0.0544792 10.7596 0 10.1504 0C9.54676 0 8.95562 0.0534848 8.38146 0.15597C5.32726 0.701129 2.7533 2.63285 1.3339 5.27679H1.1543V5.62784C0.511193 6.94862 0.150391 8.43218 0.150391 10C0.150391 11.5678 0.511193 13.0514 1.1543 14.3722V14.7232H1.3339C2.75582 17.3719 5.33642 19.3057 8.39775 19.8469ZM2.24562 6.72125C1.82631 7.73104 1.59485 8.83849 1.59485 10C1.59485 11.1615 1.82631 12.269 2.24562 13.2787H5.09183C4.90666 12.1704 4.82325 11.0171 4.83628 9.87309C4.84838 8.81121 4.94369 7.7462 5.12246 6.72125H2.24562ZM6.93766 5.27679C7.07895 4.79742 7.24229 4.34015 7.42701 3.91174C7.86214 2.90261 8.39735 2.09302 9.01149 1.5196C9.38408 1.47004 9.76425 1.44446 10.1504 1.44446C10.545 1.44446 10.9334 1.47118 11.3139 1.52291C11.9539 2.10181 12.5112 2.91379 12.9647 3.91829C13.1573 4.34486 13.3281 4.79991 13.4762 5.27679H6.93766ZM6.59066 6.72125H13.8427C14.0427 7.71407 14.1549 8.76452 14.1732 9.82445C14.1935 11.0013 14.0978 12.1745 13.8856 13.2787H6.55816C6.36027 12.1957 6.26748 11.0452 6.28064 9.88955C6.29297 8.80768 6.39801 7.73445 6.59066 6.72125ZM15.3137 6.72125C15.498 7.72234 15.5995 8.76167 15.6174 9.79952C15.6376 10.9671 15.5522 12.1458 15.3541 13.2787H18.0552C18.4745 12.269 18.7059 11.1615 18.7059 10C18.7059 8.83849 18.4745 7.73104 18.0552 6.72125H15.3137ZM17.2851 5.27679C16.4048 3.94959 15.164 2.88223 13.7024 2.21434C13.9144 2.56689 14.1073 2.93862 14.2812 3.32394C14.5572 3.93518 14.7908 4.59105 14.9817 5.27679H17.2851ZM5.43786 5.27679H3.01565C3.91378 3.92283 5.18701 2.83929 6.68711 2.17442C6.4706 2.5439 6.27531 2.93464 6.10061 3.33981C5.83911 3.94626 5.61822 4.59679 5.43786 5.27679ZM17.2851 14.7232H15.0321C14.8743 15.2981 14.6838 15.8531 14.4597 16.3797C14.2536 16.864 14.0168 17.3287 13.7482 17.7646C15.1899 17.0954 16.414 16.0365 17.2851 14.7232ZM13.1306 15.814C13.2788 15.4659 13.4112 15.1012 13.5278 14.7232H6.89753C7.0192 15.1398 7.15877 15.5401 7.31617 15.9194C7.76115 16.9919 8.33237 17.8627 9.01665 18.4811C9.38759 18.5302 9.76603 18.5555 10.1504 18.5555C10.5376 18.5555 10.9188 18.5298 11.2924 18.48C12.0451 17.8279 12.6605 16.9185 13.1306 15.814ZM6.64677 17.8076C5.16418 17.1412 3.90571 16.065 3.01565 14.7232H5.39899C5.5584 15.3329 5.75239 15.9196 5.98199 16.473C6.1754 16.9392 6.39656 17.387 6.64677 17.8076Z" fill="url(#paint0_linear_657_23663)"/>
<defs>
<linearGradient id="paint0_linear_657_23663" x1="10.148" y1="20.0041" x2="10.148" y2="0.00203392" gradientUnits="userSpaceOnUse">
<stop stop-color="#FFBF00"/>
<stop offset="1" stop-color="#E843C4"/>
</linearGradient>
</defs>
</svg>
