<svg width="1000" height="1000" viewBox="0 0 1000 1000" fill="none" xmlns="http://www.w3.org/2000/svg">
<rect width="1000" height="1000" rx="500" fill="url(#paint0_linear_8127_15602)"/>
<path fill-rule="evenodd" clip-rule="evenodd" d="M200.604 724.398H272.734C278.798 724.398 284.837 724.424 290.856 724.449C308.837 724.526 326.646 724.602 344.455 723.988C380.11 723.578 407.978 708.005 425.601 677.268C466.174 608.006 506.337 539.155 545.681 469.074C554.902 452.681 564.328 436.493 573.754 420.305C583.18 404.116 592.606 387.928 601.828 371.535C620.27 339.158 620.27 305.962 602.237 273.176C595.68 261.495 589.02 249.918 582.361 238.34C575.701 226.762 569.041 215.185 562.484 203.505C561.281 201.367 560.068 199.229 558.853 197.088C552.612 186.093 546.318 175.004 541.173 163.341C536.665 152.686 531.337 142.44 523.96 133.424C509.616 115.801 489.944 115.391 475.6 133.014C473.141 136.293 470.682 139.981 468.633 143.669C439.014 195.093 409.798 246.679 380.592 298.246C343.927 362.984 307.277 427.695 269.866 492.025C242.983 538.109 216.85 584.444 190.686 630.833C183.345 643.85 176.001 656.87 168.638 669.891C165.359 675.218 162.9 680.546 161.261 686.284C156.753 703.087 164.539 717.021 181.342 722.349C187.49 724.398 194.047 724.398 200.604 724.398ZM597.418 724.392H697.826C717.088 724.392 736.35 724.391 756.022 723.982C761.174 723.982 766.326 724.049 771.479 724.115C784.359 724.283 797.239 724.45 810.119 723.572C834.299 722.342 845.774 703.49 837.168 680.95C835.529 677.261 833.889 673.573 831.84 670.294C798.234 611.279 764.628 552.263 730.612 493.248C715.039 466.199 691.269 462.101 672.826 485.051C670.777 487.92 668.728 490.789 666.679 494.067C649.671 523.165 632.766 552.365 615.861 581.565C598.955 610.765 582.049 639.966 565.041 669.065C561.763 674.392 559.304 679.72 557.664 685.458C553.156 702.671 560.943 717.015 578.156 722.342C584.303 724.392 590.86 724.392 597.418 724.392Z" fill="#211426"/>
<defs>
<linearGradient id="paint0_linear_8127_15602" x1="499.879" y1="1000.2" x2="499.879" y2="0.101696" gradientUnits="userSpaceOnUse">
<stop stop-color="#FFBF00"/>
<stop offset="1" stop-color="#E843C4"/>
</linearGradient>
</defs>
</svg>
