<svg width="56" height="56" viewBox="0 0 56 56" fill="none" xmlns="http://www.w3.org/2000/svg">
<rect width="56" height="56" rx="28" fill="#211426"/>
<rect x="12" y="12" width="32" height="32" rx="16" fill="url(#paint0_linear_9218_21320)"/>
<path fill-rule="evenodd" clip-rule="evenodd" d="M19.5467 35.0374H21.5839C21.7552 35.0374 21.9257 35.0381 22.0957 35.0389C22.6035 35.041 23.1065 35.0432 23.6095 35.0258C24.6165 35.0143 25.4036 34.5746 25.9013 33.7068C27.0473 31.7514 28.1816 29.8075 29.2928 27.8289C29.5532 27.3661 29.8195 26.9091 30.0857 26.452C30.3519 25.995 30.6181 25.5379 30.8786 25.0751C31.3994 24.1611 31.3994 23.2238 30.8901 22.2982C30.7049 21.9684 30.5169 21.6416 30.3288 21.3147C30.1407 20.9878 29.9526 20.661 29.7674 20.3312C29.7334 20.2708 29.6991 20.2105 29.6648 20.15C29.4886 19.8396 29.3108 19.5265 29.1655 19.1973C29.0382 18.8964 28.8877 18.6072 28.6793 18.3526C28.2742 17.8551 27.7186 17.8435 27.3135 18.341C27.244 18.4336 27.1746 18.5378 27.1167 18.6419C26.2802 20.0937 25.455 21.5501 24.6301 23.006C23.5946 24.8338 22.5595 26.6607 21.5029 28.4769C20.7436 29.778 20.0055 31.0862 19.2665 32.3959C19.0592 32.7634 18.8518 33.131 18.6439 33.4985C18.5513 33.6489 18.4818 33.7994 18.4355 33.9613C18.3082 34.4357 18.5281 34.8291 19.0027 34.9796C19.1763 35.0374 19.3615 35.0374 19.5467 35.0374ZM30.7482 35.0386H33.5841C34.1281 35.0386 34.6721 35.0386 35.2277 35.0271C35.3733 35.0271 35.5188 35.0289 35.6643 35.0308C36.0281 35.0356 36.3918 35.0403 36.7556 35.0155C37.4385 34.9808 37.7626 34.4485 37.5196 33.8121C37.4733 33.708 37.427 33.6039 37.3691 33.5113C36.42 31.8451 35.4708 30.179 34.5101 28.5128C34.0702 27.7492 33.3989 27.6334 32.878 28.2814C32.8202 28.3624 32.7623 28.4434 32.7044 28.536C32.224 29.3575 31.7466 30.1819 31.2691 31.0063C30.7916 31.8307 30.3142 32.6551 29.8338 33.4766C29.7412 33.627 29.6718 33.7774 29.6255 33.9394C29.4981 34.4254 29.7181 34.8304 30.2042 34.9808C30.3778 35.0386 30.563 35.0386 30.7482 35.0386Z" fill="#211426"/>
<defs>
<linearGradient id="paint0_linear_9218_21320" x1="27.9961" y1="44.0065" x2="27.9961" y2="12.0033" gradientUnits="userSpaceOnUse">
<stop stop-color="#FFBF00"/>
<stop offset="1" stop-color="#E843C4"/>
</linearGradient>
</defs>
</svg>
