<svg xmlns="http://www.w3.org/2000/svg" fill="none" viewBox="0 0 116 36"><path fill="#fff" d="M20.684.204a.39.39 0 00-.541-.148.322.322 0 00-.148.148L.053 35.284a.396.396 0 00.148.54c.065.033.13.05.196.05h40.196a.4.4 0 00.345-.59L20.684.203zm-4.33 22.747l7.15-1.952L21.57 28.1l-5.216-5.15z"/><path fill="#fff" d="M.397 35.89h8.086l7.429-28.486L.053 35.3a.396.396 0 00.148.54c.065.034.13.05.196.05z"/><path fill="#fff" d="M36.985 28.428L8.482 35.89h32.111a.4.4 0 00.345-.59l-3.953-6.872zM32.607 24.066l4.379 4.362L20.7.22a.39.39 0 00-.54-.147.322.322 0 00-.148.147l-4.084 7.2 16.679 16.63v.016zM8.482 35.89l5.872-1.541-.033-20.861L8.482 35.89z"/><path fill="#fff" d="M14.32 13.488l18.287 10.578L15.912 7.404l-1.591 6.084z"/><path fill="#fff" d="M14.354 34.349l22.631-5.92-4.378-4.363-18.253 10.283z"/><path fill="#fff" d="M14.354 34.349l3.92-2.214-3.937-14.22.017 16.434z"/><path fill="#fff" d="M32.607 24.066l-3.854-2.23-10.48 10.299 14.334-8.07zM14.337 17.916l14.416 3.92-14.432-8.348.016 4.428z"/><path fill="#fff" d="M23.505 21h2.214l-11.382-3.084.837 3.067 8.298.016h.033z"/><path fill="#fff" d="M16.322 22.918l-1.148-1.935 3.1 11.152 2.18-2.149-4.1-7.035-.032-.033zM25.719 20.999l-5.265 8.987 8.299-8.15-3.034-.837z"/><path fill="#fff" d="M23.505 21l-8.331-.017 1.18 1.968 7.15-1.952z"/><path fill="#fff" d="M21.57 28.1l-5.216-5.15 4.1 7.036L21.57 28.1zM25.719 20.999h-2.214L21.57 28.1 25.719 21z"/><path fill="url(#paint0_linear)" d="M.397 35.89h8.086l7.429-28.486L.053 35.3a.396.396 0 00.148.54c.065.034.13.05.196.05z"/><path fill="url(#paint1_linear)" d="M36.985 28.428L8.482 35.89h32.111a.4.4 0 00.345-.59l-3.953-6.872z"/><path fill="url(#paint2_linear)" d="M32.607 24.066l4.379 4.362L20.7.22a.39.39 0 00-.54-.147.322.322 0 00-.148.147l-4.084 7.2 16.679 16.63v.016z"/><path fill="url(#paint3_linear)" d="M8.482 35.89l5.872-1.541-.033-20.861L8.482 35.89z"/><path fill="url(#paint4_linear)" d="M14.32 13.488l18.287 10.578L15.912 7.404l-1.591 6.084z"/><path fill="url(#paint5_linear)" d="M14.354 34.349l22.631-5.92-4.378-4.363-18.253 10.283z"/><path fill="url(#paint6_linear)" d="M14.354 34.349l3.92-2.214-3.937-14.22.017 16.434z"/><path fill="url(#paint7_linear)" d="M32.607 24.066l-3.854-2.23-10.48 10.299 14.334-8.07z"/><path fill="url(#paint8_linear)" d="M14.337 17.916l14.416 3.92-14.432-8.348.016 4.428z"/><path fill="url(#paint9_linear)" d="M23.505 21h2.214l-11.382-3.084.837 3.067 8.298.016h.033z"/><path fill="url(#paint10_linear)" d="M16.322 22.918l-1.148-1.935 3.1 11.152 2.18-2.149-4.1-7.035-.032-.033z"/><path fill="url(#paint11_linear)" d="M25.719 20.999l-5.265 8.987 8.299-8.15-3.034-.837z"/><path fill="url(#paint12_linear)" d="M23.505 21l-8.331-.017 1.18 1.968 7.15-1.952z"/><path fill="url(#paint13_linear)" d="M21.57 28.1l-5.216-5.15 4.1 7.036L21.57 28.1z"/><path fill="url(#paint14_linear)" d="M25.719 20.999h-2.214L21.57 28.1 25.719 21z"/><path fill="#fff" d="M60.093 7.043a1.376 1.376 0 00-.837-.23 1.73 1.73 0 00-.803.213 1.37 1.37 0 00-.558.656l-9.643 21.435h1.378c.754 0 1.427-.443 1.738-1.132l2.034-4.608H65.21l2.017 4.592a1.888 1.888 0 001.738 1.132h1.345L60.667 7.666a1.612 1.612 0 00-.574-.623zm4.165 14.235H54.32l.033-.066 4.92-11.184 4.953 11.184.032.066zM87.694 8.683c-1.28-1.115-3.067-1.69-5.38-1.69h-7.38a1.293 1.293 0 00-.95.345c-.246.23-.378.558-.361.902v20.877h.656c1.05 0 1.902-.853 1.902-1.902V19.95h6.134c2.28 0 4.067-.575 5.362-1.706 1.296-1.148 1.936-2.739 1.936-4.805-.017-2.05-.656-3.641-1.92-4.756zm-5.625 9.167H76.18V9.126h5.888c3.345 0 5.018 1.443 5.018 4.33 0 2.918-1.69 4.394-5.018 4.394zM94.68 6.994h-.656V27.23c0 1.05.853 1.902 1.903 1.902h.656V8.897c0-1.05-.853-1.902-1.903-1.902zM114.934 19.72c-.689-.918-1.706-1.558-3.034-1.935a5.272 5.272 0 002.64-2.05c.64-.984.984-2.149.952-3.313 0-1.706-.591-3.05-1.755-4.067-1.181-1.017-2.755-1.509-4.756-1.509-1.279 0-2.559.23-3.756.689-.508.18-1 .41-1.476.689a1.88 1.88 0 00-.688 2.574.48.48 0 00.082.115l.196.295a10.676 10.676 0 012.739-1.672 7.653 7.653 0 012.837-.542c1.296 0 2.28.312 2.985.952.705.64 1.066 1.541 1.066 2.722 0 1.345-.443 2.378-1.312 3.1-.869.721-2.116 1.082-3.739 1.082h-1.148a1.02 1.02 0 00-1.082.984v.082c0 .279.098.558.295.77.196.23.492.345.787.329h1.656c3.362 0 5.051 1.345 5.051 4.018 0 1.328-.393 2.345-1.197 3.05-.803.705-1.968 1.066-3.509 1.066-1.001 0-2.018-.164-2.952-.525a10.783 10.783 0 01-2.805-1.672l-.196.295a1.9 1.9 0 00.508 2.64c.049.033.098.066.148.082.459.262.951.476 1.443.656 1.246.46 2.558.689 3.886.689 2.231 0 3.986-.558 5.265-1.657 1.279-1.098 1.935-2.607 1.935-4.51-.033-1.377-.377-2.525-1.066-3.427z"/><defs><linearGradient id="paint0_linear" x1="9.463" x2="6.583" y1="35.785" y2="8.379" gradientUnits="userSpaceOnUse"><stop stop-color="#C3C4C3"/><stop offset=".09" stop-color="#D8D8D8"/><stop offset=".21" stop-color="#E9EAE9"/><stop offset=".36" stop-color="#F6F6F6"/><stop offset=".55" stop-color="#FDFDFD"/><stop offset="1" stop-color="#fff"/></linearGradient><linearGradient id="paint1_linear" x1="36.261" x2="14.054" y1="27.423" y2="43.558" gradientUnits="userSpaceOnUse"><stop stop-color="#C3C4C3"/><stop offset=".09" stop-color="#D8D8D8"/><stop offset=".21" stop-color="#E9EAE9"/><stop offset=".36" stop-color="#F6F6F6"/><stop offset=".55" stop-color="#FDFDFD"/><stop offset="1" stop-color="#fff"/></linearGradient><linearGradient id="paint2_linear" x1="15.498" x2="40.894" y1="8.334" y2="19.641" gradientUnits="userSpaceOnUse"><stop stop-color="#C3C4C3"/><stop offset=".09" stop-color="#D8D8D8"/><stop offset=".21" stop-color="#E9EAE9"/><stop offset=".36" stop-color="#F6F6F6"/><stop offset=".55" stop-color="#FDFDFD"/><stop offset="1" stop-color="#fff"/></linearGradient><linearGradient id="paint3_linear" x1="12.535" x2="10.27" y1="35.463" y2="13.917" gradientUnits="userSpaceOnUse"><stop stop-color="#B7B8B8"/><stop offset=".11" stop-color="#C9CACA"/><stop offset=".3" stop-color="#E1E1E1"/><stop offset=".51" stop-color="#F2F2F2"/><stop offset=".73" stop-color="#FCFCFC"/><stop offset="1" stop-color="#fff"/></linearGradient><linearGradient id="paint4_linear" x1="14.196" x2="34.324" y1="11.248" y2="20.209" gradientUnits="userSpaceOnUse"><stop stop-color="#B7B8B8"/><stop offset=".11" stop-color="#C9CACA"/><stop offset=".3" stop-color="#E1E1E1"/><stop offset=".51" stop-color="#F2F2F2"/><stop offset=".73" stop-color="#FCFCFC"/><stop offset="1" stop-color="#fff"/></linearGradient><linearGradient id="paint5_linear" x1="34.485" x2="16.854" y1="24.98" y2="37.79" gradientUnits="userSpaceOnUse"><stop stop-color="#B7B8B8"/><stop offset=".11" stop-color="#C9CACA"/><stop offset=".3" stop-color="#E1E1E1"/><stop offset=".51" stop-color="#F2F2F2"/><stop offset=".73" stop-color="#FCFCFC"/><stop offset="1" stop-color="#fff"/></linearGradient><linearGradient id="paint6_linear" x1="16.52" x2="12.164" y1="33.729" y2="18.537" gradientUnits="userSpaceOnUse"><stop stop-color="#B7B8B8"/><stop offset=".21" stop-color="#CECFCF"/><stop offset=".52" stop-color="#E9E9E9"/><stop offset=".79" stop-color="#F9F9F9"/><stop offset="1" stop-color="#fff"/></linearGradient><linearGradient id="paint7_linear" x1="30.921" x2="19.961" y1="22.426" y2="33.773" gradientUnits="userSpaceOnUse"><stop stop-color="#B7B8B8"/><stop offset=".21" stop-color="#CECFCF"/><stop offset=".52" stop-color="#E9E9E9"/><stop offset=".79" stop-color="#F9F9F9"/><stop offset="1" stop-color="#fff"/></linearGradient><linearGradient id="paint8_linear" x1="13.766" x2="29.316" y1="15.723" y2="19.6" gradientUnits="userSpaceOnUse"><stop stop-color="#B7B8B8"/><stop offset=".21" stop-color="#CECFCF"/><stop offset=".52" stop-color="#E9E9E9"/><stop offset=".79" stop-color="#F9F9F9"/><stop offset="1" stop-color="#fff"/></linearGradient><linearGradient id="paint9_linear" x1="14.212" x2="25.768" y1="19.407" y2="20.317" gradientUnits="userSpaceOnUse"><stop stop-color="#ABACAC"/><stop offset=".19" stop-color="#BDBEBE"/><stop offset=".73" stop-color="#EDEDED"/><stop offset="1" stop-color="#fff"/></linearGradient><linearGradient id="paint10_linear" x1="19.581" x2="14.591" y1="31.503" y2="21.27" gradientUnits="userSpaceOnUse"><stop stop-color="#ABACAC"/><stop offset=".19" stop-color="#BDBEBE"/><stop offset=".73" stop-color="#EDEDED"/><stop offset="1" stop-color="#fff"/></linearGradient><linearGradient id="paint11_linear" x1="27.521" x2="21.145" y1="20.997" y2="30.448" gradientUnits="userSpaceOnUse"><stop stop-color="#ABACAC"/><stop offset=".19" stop-color="#BDBEBE"/><stop offset=".73" stop-color="#EDEDED"/><stop offset="1" stop-color="#fff"/></linearGradient><linearGradient id="paint12_linear" x1="15.692" x2="22.985" y1="22.355" y2="19.63" gradientUnits="userSpaceOnUse"><stop stop-color="#9FA0A0"/><stop offset=".17" stop-color="#A5A6A6"/><stop offset=".4" stop-color="#B5B6B6"/><stop offset=".66" stop-color="#D0D1D1"/><stop offset=".94" stop-color="#F6F6F6"/><stop offset="1" stop-color="#fff"/></linearGradient><linearGradient id="paint13_linear" x1="21.344" x2="15.47" y1="28.938" y2="24.008" gradientUnits="userSpaceOnUse"><stop stop-color="#9FA0A0"/><stop offset=".17" stop-color="#A5A6A6"/><stop offset=".4" stop-color="#B5B6B6"/><stop offset=".66" stop-color="#D0D1D1"/><stop offset=".94" stop-color="#F6F6F6"/><stop offset="1" stop-color="#fff"/></linearGradient><linearGradient id="paint14_linear" x1="24.308" x2="22.97" y1="20.758" y2="28.35" gradientUnits="userSpaceOnUse"><stop stop-color="#9FA0A0"/><stop offset=".17" stop-color="#A5A6A6"/><stop offset=".4" stop-color="#B5B6B6"/><stop offset=".66" stop-color="#D0D1D1"/><stop offset=".94" stop-color="#F6F6F6"/><stop offset="1" stop-color="#fff"/></linearGradient></defs></svg>