<svg width="342" height="109" viewBox="0 0 342 109" fill="none" xmlns="http://www.w3.org/2000/svg">
<g clip-path="url(#clip0_3880_40360)">
<path d="M122.34 46.9805H124.645L131.094 61.9502H128.049L126.654 58.5249H120.163L118.809 61.9502H115.828L122.34 46.9805ZM125.723 56.2414L123.419 50.152L121.072 56.2414H125.723Z" fill="#E84142"/>
<path d="M133.953 46.9805H137.019L141.1 58.2923L145.307 46.9805H148.183L142.136 61.9502H139.831L133.953 46.9805Z" fill="#E84142"/>
<path d="M157.707 46.9805H160.012L166.461 61.9502H163.416L162.021 58.5249H155.53L154.176 61.9502H151.195L157.707 46.9805ZM161.09 56.2414L158.786 50.152L156.439 56.2414H161.09Z" fill="#E84142"/>
<path d="M172.352 46.9805H175.016V59.5398H181.38V61.9502H172.352V46.9805Z" fill="#E84142"/>
<path d="M192.387 46.9805H194.692L201.14 61.9502H198.096L196.701 58.5249H190.209L188.856 61.9502H185.875L192.387 46.9805ZM195.77 56.2414L193.466 50.152L191.119 56.2414H195.77Z" fill="#E84142"/>
<path d="M207.031 46.9805H210.562L217.814 58.102H217.857V46.9805H220.521V61.9502H217.138L209.737 50.4692H209.696V61.9502H207.031V46.9805Z" fill="#E84142"/>
<path d="M238.364 50.4959C237.815 49.9039 237.279 49.5092 236.757 49.3118C236.25 49.1145 235.735 49.0159 235.214 49.0159C234.439 49.0159 233.734 49.1568 233.1 49.4387C232.48 49.7065 231.944 50.0871 231.493 50.5805C231.041 51.0597 230.689 51.6236 230.435 52.272C230.196 52.9204 230.076 53.6181 230.076 54.3652C230.076 55.1686 230.196 55.9087 230.435 56.5853C230.689 57.2619 231.041 57.8468 231.493 58.3402C231.944 58.8336 232.48 59.2212 233.1 59.5032C233.734 59.785 234.439 59.926 235.214 59.926C235.82 59.926 236.405 59.785 236.969 59.5032C237.547 59.2071 238.082 58.742 238.576 58.1076L240.774 59.6723C240.098 60.6026 239.274 61.2792 238.301 61.7021C237.328 62.1249 236.292 62.3364 235.193 62.3364C234.037 62.3364 232.973 62.1532 232 61.7866C231.041 61.406 230.21 60.8775 229.505 60.2009C228.814 59.5102 228.271 58.6856 227.877 57.727C227.482 56.7685 227.285 55.7043 227.285 54.5344C227.285 53.3362 227.482 52.2508 227.877 51.2782C228.271 50.2915 228.814 49.4528 229.505 48.7621C230.21 48.0714 231.041 47.5428 232 47.1764C232.973 46.7958 234.037 46.6055 235.193 46.6055C236.208 46.6055 237.145 46.7887 238.005 47.1552C238.879 47.5076 239.689 48.1137 240.437 48.9736L238.364 50.4959Z" fill="#E84142"/>
<path d="M246.793 46.9805H249.457V52.943H256.455V46.9805H259.119V61.9502H256.455V55.3533H249.457V61.9502H246.793V46.9805Z" fill="#E84142"/>
<path d="M266.691 46.9805H276.608V49.3909H269.356V53.0699H276.227V55.4802H269.356V59.5398H276.989V61.9502H266.691V46.9805Z" fill="#E84142"/>
<path d="M86.4744 71.2964C95.7671 71.2964 103.3 63.7631 103.3 54.4705C103.3 45.1778 95.7671 37.6445 86.4744 37.6445C77.1817 37.6445 69.6484 45.1778 69.6484 54.4705C69.6484 63.7631 77.1817 71.2964 86.4744 71.2964Z" fill="white"/>
<path fill-rule="evenodd" clip-rule="evenodd" d="M107.944 54.476C107.944 66.3348 98.3309 75.9482 86.4721 75.9482C74.6134 75.9482 65 66.3348 65 54.476C65 42.6173 74.6134 33.0039 86.4721 33.0039C98.3309 33.0039 107.944 42.6173 107.944 54.476ZM80.3876 63.0204H76.2205C75.3449 63.0204 74.9123 63.0204 74.6485 62.8516C74.3637 62.667 74.1896 62.3611 74.1685 62.0235C74.1527 61.7122 74.369 61.3325 74.8015 60.5729L85.0907 42.4368C85.5285 41.6666 85.75 41.2816 86.0296 41.1392C86.3303 40.9862 86.689 40.9862 86.9897 41.1392C87.2692 41.2816 87.4908 41.6666 87.9286 42.4368L90.0438 46.1292L90.0546 46.148C90.5275 46.9743 90.7673 47.3932 90.872 47.833C90.988 48.313 90.988 48.8193 90.872 49.2994C90.7665 49.7425 90.5291 50.1645 90.0491 51.0032L84.6444 60.5571L84.6304 60.5816C84.1544 61.4146 83.9132 61.8367 83.5789 62.1554C83.2149 62.5035 82.7771 62.7566 82.2971 62.8991C81.8593 63.0204 81.3687 63.0204 80.3876 63.0204ZM90.911 63.0209H96.8822C97.7631 63.0209 98.2061 63.0209 98.4699 62.8469C98.7547 62.6622 98.9341 62.351 98.9499 62.0134C98.9652 61.7124 98.7536 61.3473 98.339 60.6319C98.3248 60.6075 98.3104 60.5828 98.2958 60.5575L95.305 55.4409L95.2709 55.3834C94.8506 54.6726 94.6384 54.3137 94.366 54.175C94.0654 54.022 93.712 54.022 93.4113 54.175C93.137 54.3173 92.9154 54.6919 92.4776 55.4462L89.4973 60.5628L89.4871 60.5804C89.0508 61.3335 88.8328 61.7099 88.8485 62.0187C88.8696 62.3563 89.0437 62.6675 89.3286 62.8521C89.587 63.0209 90.0301 63.0209 90.911 63.0209Z" fill="#E84142"/>
</g>
<defs>
<clipPath id="clip0_3880_40360">
<rect width="212" height="42.9443" fill="white" transform="translate(65 33)"/>
</clipPath>
</defs>
</svg>
