<svg width="300" height="300" viewBox="0 0 300 300" fill="none" xmlns="http://www.w3.org/2000/svg">
<path d="M150 300C232.843 300 300 232.843 300 150C300 67.1573 232.843 0 150 0C67.1573 0 0 67.1573 0 150C0 232.843 67.1573 300 150 300Z" fill="black"/>
<path d="M184.92 230.221L183.75 228.648L184.92 230.221C186.139 231.716 187.473 233.114 188.908 234.402C187.473 233.114 186.139 231.716 184.92 230.221Z" fill="url(#paint0_linear_9319_21427)"/>
<path d="M190.402 235.635C190.664 235.849 190.934 236.063 191.212 236.278C190.934 236.063 190.664 235.849 190.402 235.635Z" fill="url(#paint1_linear_9319_21427)"/>
<path d="M150.233 207.146C150.166 207.146 150.104 207.146 150.038 207.146C141.988 207.144 134.03 205.444 126.683 202.158C119.335 198.872 112.763 194.073 107.395 188.075C86.3948 164.576 88.4412 128.381 111.938 107.39C122.398 98.0304 135.942 92.8568 149.978 92.8592C158.027 92.8611 165.985 94.5607 173.333 97.8469C180.681 101.133 187.253 105.932 192.62 111.931C206.74 127.734 210.423 149.281 204.192 168.084L229.872 202.584C253.175 167.248 250.837 119.354 221.3 86.2999C202.415 65.1607 176.253 54.3885 149.975 54.3907C126.48 54.3691 103.806 63.0319 86.3112 78.7142C46.9384 113.891 43.542 174.326 78.7127 213.701C97.5977 234.841 123.76 245.617 150.042 245.617C158.982 245.613 167.877 244.356 176.468 241.884C175.478 240.834 150.233 207.146 150.233 207.146Z" fill="white"/>
<path d="M244.314 245.412L211.454 201.255L193.745 177.469L192.575 175.894C192.279 175.53 191.909 175.099 191.504 174.645C190.586 173.616 189.613 172.638 188.589 171.715C188.135 171.304 187.649 170.885 187.132 170.46C186.871 170.245 186.601 170.031 186.322 169.817C186.044 169.602 185.765 169.388 185.486 169.174C184.908 168.745 184.296 168.317 183.652 167.888C177.856 164.031 169.449 160.504 158.152 160.504H133.184L133.274 160.626L133.184 160.695L166.046 204.857L183.753 228.655L184.923 230.228C185.216 230.592 185.589 231.023 185.994 231.48C186.913 232.507 187.886 233.485 188.909 234.409C189.363 234.818 189.849 235.238 190.366 235.662C190.627 235.877 190.897 236.091 191.176 236.305C191.454 236.52 191.732 236.734 192.009 236.948C192.591 237.377 193.203 237.805 193.846 238.234C199.631 242.078 208.046 245.616 219.346 245.616H244.314L244.224 245.494L244.314 245.412Z" fill="#00B2EC"/>
<defs>
<linearGradient id="paint0_linear_9319_21427" x1="135.324" y1="277.092" x2="277.911" y2="149.706" gradientUnits="userSpaceOnUse">
<stop offset="0.35" stop-color="#00B2EC"/>
<stop offset="0.43" stop-color="#2EC0EF"/>
<stop offset="0.55" stop-color="#6DD3F4"/>
<stop offset="0.66" stop-color="#A1E3F8"/>
<stop offset="0.77" stop-color="#CAEFFB"/>
<stop offset="0.86" stop-color="#E7F8FD"/>
<stop offset="0.94" stop-color="#F9FDFF"/>
<stop offset="1" stop-color="white"/>
</linearGradient>
<linearGradient id="paint1_linear_9319_21427" x1="961.448" y1="1274.4" x2="1388.97" y2="793.194" gradientUnits="userSpaceOnUse">
<stop offset="0.35" stop-color="#00B2EC"/>
<stop offset="0.43" stop-color="#2EC0EF"/>
<stop offset="0.55" stop-color="#6DD3F4"/>
<stop offset="0.66" stop-color="#A1E3F8"/>
<stop offset="0.77" stop-color="#CAEFFB"/>
<stop offset="0.86" stop-color="#E7F8FD"/>
<stop offset="0.94" stop-color="#F9FDFF"/>
<stop offset="1" stop-color="white"/>
</linearGradient>
</defs>
</svg>
