<svg width="12" height="12" viewBox="0 0 12 12" fill="none" xmlns="http://www.w3.org/2000/svg">
<circle cx="6" cy="6" r="6" fill="#211426"/>
<path fill-rule="evenodd" clip-rule="evenodd" d="M3.99821 2.62474L2.00781 3.74508V5.99747V8.24986L4.00581 9.37262L6.0038 10.4954L8.00179 9.37262L9.99978 8.24986V5.99747V3.74508L8.00939 2.62474C6.91467 2.00854 6.01215 1.50439 6.0038 1.50439C5.99544 1.50439 5.09293 2.00854 3.99821 2.62474ZM7.43202 3.61369L8.81466 4.39223V5.99738V7.6025L7.43202 8.38039C6.67157 8.80825 6.02887 9.15831 6.0038 9.15831C5.97873 9.15831 5.33603 8.80825 4.57557 8.38039L3.19293 7.6025V5.99738V4.39223L4.57557 3.61369C5.33603 3.1855 5.97873 2.83515 6.0038 2.83515C6.02887 2.83515 6.67157 3.1855 7.43202 3.61369ZM5.06938 4.42348L4.15015 4.94365V5.99679V7.0499L5.07697 7.5711L6.0038 8.09228L6.93114 7.57081C7.68883 7.14474 7.84867 7.04398 7.80479 7.02024C7.77525 7.00428 7.60371 6.90796 7.42357 6.80619L7.09605 6.62117L6.55026 6.93004L6.00444 7.23888L5.46472 6.93507L4.92503 6.63129V5.99794V5.36463L5.46445 5.05954L6.00389 4.75443L6.54999 5.06345L7.09605 5.37246L7.42357 5.18744C7.60371 5.08568 7.77525 4.98939 7.80476 4.97339C7.84857 4.94968 7.69041 4.84984 6.94162 4.42842C6.4374 4.14465 6.01668 3.91041 6.00671 3.90789C5.99675 3.90538 5.57494 4.13738 5.06938 4.42348Z" fill="white"/>
</svg>
