<svg width="12" height="12" viewBox="0 0 12 12" fill="none" xmlns="http://www.w3.org/2000/svg">
<path d="M6 12C9.31371 12 12 9.31371 12 6C12 2.68629 9.31371 0 6 0C2.68629 0 0 2.68629 0 6C0 9.31371 2.68629 12 6 12Z" fill="#13B5EC"/>
<path fill-rule="evenodd" clip-rule="evenodd" d="M6.45 4.8375L7.8 4.05V5.625L6.45 4.8375ZM7.8 8.2125L6 9.2625L4.2 8.2125V6.375L6 7.425L7.8 6.375V8.2125ZM4.2 4.05L5.55 4.8375L4.2 5.625V4.05ZM6.225 5.2125L7.575 6L6.225 6.7875V5.2125ZM5.775 6.7875L4.425 6L5.775 5.2125V6.7875ZM7.575 3.675L6 4.575L4.425 3.675L6 2.7375L7.575 3.675ZM3.75 3.525V8.4375L6 9.7125L8.25 8.4375V3.525L6 2.25L3.75 3.525Z" fill="white"/>
</svg>
