<svg width="24" height="24" viewBox="0 0 24 24" fill="none" xmlns="http://www.w3.org/2000/svg">
<path d="M11.0014 16.8081C11.0783 16.8083 11.1545 16.8235 11.2255 16.8531C11.2965 16.8826 11.3611 16.9258 11.4154 16.9803C11.4697 17.0348 11.5128 17.0994 11.5421 17.1706C11.5714 17.2417 11.5865 17.3179 11.5864 17.3948C11.5863 17.4717 11.571 17.5479 11.5415 17.6189C11.5119 17.69 11.4687 17.7545 11.4142 17.8088C11.3597 17.8631 11.2951 17.9062 11.224 17.9355C11.1528 17.9649 11.0766 17.9799 10.9997 17.9798C10.8443 17.9796 10.6954 17.9177 10.5857 17.8076C10.476 17.6976 10.4145 17.5485 10.4147 17.3931C10.4149 17.2378 10.4769 17.0889 10.5869 16.9791C10.6969 16.8694 10.846 16.8079 11.0014 16.8081ZM20.188 13.1856C20.1111 13.1856 20.0349 13.1704 19.9639 13.1409C19.8928 13.1114 19.8283 13.0682 19.7739 13.0138C19.7196 12.9593 19.6765 12.8947 19.6471 12.8236C19.6177 12.7525 19.6026 12.6763 19.6026 12.5994C19.6027 12.5225 19.6179 12.4463 19.6474 12.3752C19.6769 12.3042 19.7201 12.2396 19.7745 12.1853C19.8289 12.1309 19.8936 12.0878 19.9647 12.0584C20.0358 12.029 20.1119 12.0139 20.1889 12.014C20.3443 12.0141 20.4932 12.0759 20.603 12.1859C20.7128 12.2958 20.7744 12.4449 20.7743 12.6002C20.7742 12.7556 20.7124 12.9046 20.6024 13.0144C20.4925 13.1241 20.3434 13.1858 20.188 13.1856ZM20.188 10.789C19.7077 10.7894 19.2472 10.9804 18.9075 11.3201C18.5678 11.6597 18.3768 12.1203 18.3764 12.6006C18.3764 12.7948 18.4089 12.9881 18.4722 13.1765L12.488 16.3623C12.3221 16.1214 12.1001 15.9244 11.8411 15.7884C11.5821 15.6524 11.2939 15.5813 11.0014 15.5815C10.3105 15.5815 9.68136 15.9773 9.37636 16.5948L4.00051 13.7598C3.43218 13.4615 3.00718 12.5265 3.05218 11.6748C3.07551 11.2306 3.22884 10.8856 3.46301 10.7523C3.61134 10.669 3.78967 10.6756 3.97967 10.7748L4.01468 10.794C5.43967 11.544 10.1014 13.9998 10.298 14.0906C10.6005 14.2315 10.7689 14.2881 11.2855 14.0431L20.9222 9.03146C21.0639 8.97806 21.2289 8.84226 21.2289 8.63646C21.2289 8.35146 20.933 8.23896 20.933 8.23896C20.3847 7.97646 19.5422 7.58226 18.7205 7.19726C16.9639 6.37476 14.973 5.44311 14.0989 4.98477C13.3439 4.58977 12.7364 4.92311 12.628 4.98977L12.418 5.09394C8.48296 7.03976 3.21634 9.64806 2.91634 9.83056C2.38051 10.1573 2.04801 10.8081 2.00468 11.6156C1.93801 12.8965 2.59051 14.2323 3.52468 14.7215L9.20966 17.6531C9.27226 18.0838 9.48776 18.4775 9.81676 18.7624C10.1457 19.0473 10.5662 19.2043 11.0014 19.2048C11.4767 19.204 11.9326 19.0167 12.2713 18.6832C12.6099 18.3497 12.8041 17.8967 12.8122 17.4215L19.0739 14.0273C19.3905 14.2756 19.7847 14.4115 20.188 14.4115C20.6684 14.411 21.1289 14.22 21.4686 13.8804C21.8083 13.5407 21.9993 13.0802 21.9997 12.5998C21.9993 12.1195 21.8083 11.6589 21.4686 11.3193C21.1289 10.9796 20.6684 10.7895 20.188 10.789Z" fill="white"/>
</svg>