<svg width="142" height="142" viewBox="0 0 142 142" fill="none" xmlns="http://www.w3.org/2000/svg">
<rect width="142" height="142" rx="71" fill="#211426"/>
<path d="M113.198 70.1204C113.198 82.6658 107.707 93.9265 99.0178 101.635L78.8184 83.9254H98.4385C100.025 83.9254 101.335 82.6406 101.335 81.0284C101.335 79.4413 100.05 78.1313 98.4385 78.1313H43.7592C42.1724 78.1313 40.8627 79.4161 40.8627 81.0284C40.8627 82.6154 42.1472 83.9254 43.7592 83.9254H65.7971L43.9858 102.315C34.818 94.5815 29 83.0185 29 70.0952C29 46.8433 47.8393 28 71.0862 28C94.3331 28.0252 113.198 46.8685 113.198 70.1204Z" stroke="url(#paint0_linear_4005_45730)" stroke-width="2.70635" stroke-miterlimit="10"/>
<defs>
<linearGradient id="paint0_linear_4005_45730" x1="71.0988" y1="28" x2="71.0988" y2="102.315" gradientUnits="userSpaceOnUse">
<stop stop-color="#FFBF00"/>
<stop offset="1" stop-color="#E843C4"/>
</linearGradient>
</defs>
</svg>
