<svg width="116" height="105" viewBox="0 0 604 522" fill="none" xmlns="http://www.w3.org/2000/svg">
  <path d="M301.651 31.4728C338.118 31.4728 373.507 38.5345 406.845 52.4649C439.137 65.9611 468.132 85.2884 493.042 109.916C518.007 134.6 537.6 163.37 551.273 195.421C565.461 228.679 572.651 264.116 572.651 300.76C572.651 337.613 565.589 373.292 551.659 406.815C539.047 437.153 521.361 464.483 499.025 488.129L412.017 406.815H446.014C475.838 406.815 500.103 382.549 500.103 352.726C500.103 322.902 475.838 298.637 446.014 298.637H157.118C127.295 298.637 103.029 322.902 103.029 352.726C103.029 382.549 127.295 406.815 157.118 406.815H197.261L104.34 488.21C81.9808 464.539 64.2621 437.185 51.6346 406.815C37.7042 373.3 30.6344 337.613 30.6344 300.768C30.6344 263.923 37.8248 228.679 52.0126 195.429C65.6857 163.378 85.2784 134.608 110.244 109.924C135.153 85.2964 164.156 65.9691 196.44 52.473C229.779 38.5425 265.168 31.4808 301.635 31.4808M301.651 0.909424C136.054 0.909424 0.0791016 133.699 0.0791016 300.768C0.0791016 384.238 33.2242 460.099 87.3615 514.607C92.0104 519.288 98.0909 521.596 104.147 521.596C110.887 521.596 117.603 518.741 122.308 513.111L266.985 386.385C269.969 382.123 266.921 376.267 261.725 376.259H157.126C144.137 376.259 133.601 365.723 133.601 352.734C133.601 339.744 144.137 329.208 157.126 329.208H446.014C459.004 329.208 469.54 339.744 469.54 352.734C469.54 365.723 459.004 376.259 446.014 376.259H350.649C345.445 376.259 342.405 382.123 345.388 386.385L480.985 513.111C485.69 518.741 492.406 521.596 499.146 521.596C505.203 521.596 511.283 519.288 515.932 514.607C570.077 460.107 603.214 384.238 603.214 300.768C603.214 133.699 467.248 0.909424 301.659 0.909424L301.651 0.909424Z" fill="url(#paint0_linear_339_161)"/>
  <defs>
    <linearGradient id="paint0_linear_339_161" x1="301.643" y1="0.909424" x2="301.643" y2="521.596" gradientUnits="userSpaceOnUse">
      <stop offset="0.01" stop-color="#FFBF00"/>
      <stop offset="1" stop-color="#E843C4"/>
    </linearGradient>
  </defs>
</svg>