<svg width="58" height="58" viewBox="0 0 58 58" fill="none" xmlns="http://www.w3.org/2000/svg">
<circle cx="29" cy="29" r="29" fill="url(#paint0_linear_7700_13097)"/>
<circle cx="29" cy="29" r="28.5" stroke="white" stroke-opacity="0.05"/>
<path fill-rule="evenodd" clip-rule="evenodd" d="M28.9948 12.7088C19.9988 12.7089 12.7083 20.0058 12.7083 29.0101C12.7083 33.9074 14.8639 38.3001 18.2817 41.2932L25.9342 34.8367H18.1899C17.3549 34.8367 16.6905 34.1577 16.6905 33.336C16.6905 32.5005 17.3689 31.8354 18.1899 31.8354H39.8101C40.6451 31.8354 41.3095 32.5144 41.3095 33.336C41.3095 34.1716 40.6311 34.8367 39.8101 34.8367H32.9935L40.0355 41.015C43.2645 38.0366 45.2917 33.7659 45.2917 29.0201C45.2917 20.0162 37.9915 12.7187 28.9948 12.7088ZM12 29.0101C12 19.6145 19.6075 12 28.995 12H28.9954C38.3822 12.0102 46 19.6241 46 29.0201C46 34.0896 43.7823 38.6402 40.2742 41.7546L40.0405 41.962L31.1111 34.1279H39.8101C40.2438 34.1279 40.6012 33.7763 40.6012 33.336C40.6012 32.9017 40.2498 32.5442 39.8101 32.5442H18.1899C17.7562 32.5442 17.3988 32.8958 17.3988 33.336C17.3988 33.7703 17.7502 34.1279 18.1899 34.1279H27.8732L18.2795 42.2222L18.0512 42.0295C14.3499 38.905 12 34.2323 12 29.0101Z" fill="url(#paint1_linear_7700_13097)"/>
<defs>
<linearGradient id="paint0_linear_7700_13097" x1="29" y1="0" x2="29" y2="58" gradientUnits="userSpaceOnUse">
<stop stop-color="#211426"/>
<stop offset="1" stop-color="#190E1D"/>
</linearGradient>
<linearGradient id="paint1_linear_7700_13097" x1="29" y1="12.3544" x2="29" y2="41.7586" gradientUnits="userSpaceOnUse">
<stop stop-color="#FFBF00"/>
<stop offset="1" stop-color="#E843C4"/>
</linearGradient>
</defs>
</svg>
