<svg width="148" height="148" viewBox="0 0 148 148" fill="none" xmlns="http://www.w3.org/2000/svg">
<path d="M116.198 73.1204C116.198 85.6658 110.707 96.9265 102.018 104.635L81.8184 86.9254H101.439C103.025 86.9254 104.335 85.6406 104.335 84.0284C104.335 82.4413 103.05 81.1313 101.439 81.1313H46.7592C45.1724 81.1313 43.8627 82.4161 43.8627 84.0284C43.8627 85.6154 45.1472 86.9254 46.7592 86.9254H68.7971L46.9858 105.315C37.818 97.5815 32 86.0185 32 73.0952C32 49.8433 50.8393 31 74.0862 31C97.3331 31.0252 116.198 49.8685 116.198 73.1204Z" stroke="url(#paint0_linear_6952_76121)" stroke-width="2.70635" stroke-miterlimit="10"/>
<g filter="url(#filter0_f_6952_76121)">
<circle cx="74" cy="74" r="71" stroke="url(#paint1_linear_6952_76121)" stroke-width="0.854749"/>
</g>
<circle cx="74" cy="74" r="71" fill="url(#paint2_linear_6952_76121)" fill-opacity="0.08"/>
<defs>
<filter id="filter0_f_6952_76121" x="0.863256" y="0.863256" width="146.273" height="146.273" filterUnits="userSpaceOnUse" color-interpolation-filters="sRGB">
<feFlood flood-opacity="0" result="BackgroundImageFix"/>
<feBlend mode="normal" in="SourceGraphic" in2="BackgroundImageFix" result="shape"/>
<feGaussianBlur stdDeviation="0.854749" result="effect1_foregroundBlur_6952_76121"/>
</filter>
<linearGradient id="paint0_linear_6952_76121" x1="74.0988" y1="31" x2="74.0988" y2="105.315" gradientUnits="userSpaceOnUse">
<stop stop-color="#FFBF00"/>
<stop offset="1" stop-color="#E843C4"/>
</linearGradient>
<linearGradient id="paint1_linear_6952_76121" x1="177.327" y1="74" x2="74" y2="74" gradientUnits="userSpaceOnUse">
<stop stop-color="white"/>
<stop offset="0.759236" stop-color="white" stop-opacity="0"/>
</linearGradient>
<linearGradient id="paint2_linear_6952_76121" x1="145" y1="74" x2="74" y2="74" gradientUnits="userSpaceOnUse">
<stop stop-color="#FCFCFC"/>
<stop offset="1" stop-color="#FCFCFC" stop-opacity="0"/>
</linearGradient>
</defs>
</svg>
