<svg width="186" height="20" viewBox="0 0 186 20" fill="none" xmlns="http://www.w3.org/2000/svg">
<path d="M15.1629 4.22257L11.5299 4.22257L2.37158 13.0872L2.37158 0L0 0L0 19.5748H2.37158V16.6106L7.72023 11.4373L14.1033 19.5748H17.2318L9.51153 9.67555L15.1629 4.22257Z" fill="white"/>
<path d="M31.123 4.22257H18.5082V6.85118H31.123C32.5611 6.85118 33.7216 8.16549 33.7216 9.75944V10.5704L22.5449 10.5704C20.2995 10.5704 18.5082 12.5838 18.5082 15.0726C18.5082 17.5614 20.2995 19.5748 22.5449 19.5748H36.1184V9.75944C36.1184 6.71136 33.8982 4.22257 31.123 4.22257ZM33.7216 16.9182H22.5449C21.6115 16.9182 20.8798 16.1073 20.8798 15.0726C20.8798 14.0659 21.6115 13.227 22.5449 13.227L33.7216 13.227V16.9182Z" fill="white"/>
<path d="M53.4726 10.5704H43.9358C43.0276 10.5704 42.2959 9.73148 42.2959 8.69681C42.2959 7.6901 43.0276 6.85118 43.9358 6.85118H57.5093V4.22257H43.9358C41.7156 4.22257 39.8991 6.20801 39.8991 8.69681C39.8991 11.2136 41.7156 13.227 43.9358 13.227H53.4726C54.4061 13.227 55.1377 14.0659 55.1377 15.0726C55.1377 16.1073 54.4061 16.9182 53.4726 16.9182H39.8991V19.5748H53.4726C55.718 19.5748 57.5093 17.5614 57.5093 15.0726C57.5093 12.5838 55.718 10.5704 53.4726 10.5704Z" fill="white"/>
<path d="M74.8635 10.5704H65.3267C64.4185 10.5704 63.6868 9.73148 63.6868 8.69681C63.6868 7.6901 64.4185 6.85118 65.3267 6.85118L78.9002 6.85118V4.22257L65.3267 4.22257C63.1065 4.22257 61.29 6.20801 61.29 8.69681C61.29 11.2136 63.1065 13.227 65.3267 13.227H74.8635C75.797 13.227 76.5286 14.0659 76.5286 15.0726C76.5286 16.1073 75.797 16.9182 74.8635 16.9182H61.29V19.5748H74.8635C77.1089 19.5748 78.9002 17.5614 78.9002 15.0726C78.9002 12.5838 77.1089 10.5704 74.8635 10.5704Z" fill="white"/>
<path d="M95.2957 4.22257H82.6809V6.85118H95.2957C96.7337 6.85118 97.8943 8.16549 97.8943 9.75944V10.5704H86.7176C84.4722 10.5704 82.6809 12.5838 82.6809 15.0726C82.6809 17.5614 84.4722 19.5748 86.7176 19.5748H100.291V9.75944C100.291 6.71136 98.0709 4.22257 95.2957 4.22257ZM97.8943 16.9182H86.7176C85.7841 16.9182 85.0525 16.1073 85.0525 15.0726C85.0525 14.0659 85.7841 13.227 86.7176 13.227H97.8943V16.9182Z" fill="white"/>
<path d="M116.712 4.22257H104.072V19.5748H106.443V6.85118H116.712C118.125 6.85118 119.31 8.16549 119.31 9.75944V19.5748H121.682V9.75944C121.682 6.71136 119.437 4.22257 116.712 4.22257Z" fill="white"/>
<path d="M140.701 4.22257H130.458C127.708 4.22257 125.463 6.71136 125.463 9.75944V14.01C125.463 17.086 127.708 19.5748 130.458 19.5748H143.098V0L140.701 0V4.22257ZM140.701 16.9182H130.458C129.02 16.9182 127.834 15.6039 127.834 14.01V9.75944C127.834 8.16549 129.02 6.85118 130.458 6.85118H140.701V16.9182Z" fill="white"/>
<path d="M146.878 9.75944V19.5748H149.25V9.75944C149.25 8.16549 150.41 6.85118 151.874 6.85118L164.514 6.85118V4.22257L151.874 4.22257C149.098 4.22257 146.878 6.71136 146.878 9.75944Z" fill="white"/>
<path d="M180.908 4.22257H168.294V6.85118H180.908C182.347 6.85118 183.507 8.16549 183.507 9.75944V10.5704H172.33C170.085 10.5704 168.294 12.5838 168.294 15.0726C168.294 17.5614 170.085 19.5748 172.33 19.5748L185.904 19.5748V9.75944C185.904 6.71136 183.684 4.22257 180.908 4.22257ZM183.507 16.9182L172.33 16.9182C171.397 16.9182 170.665 16.1073 170.665 15.0726C170.665 14.0659 171.397 13.227 172.33 13.227H183.507V16.9182Z" fill="white"/>
</svg>
