<svg width="220" height="42" viewBox="0 0 220 42" fill="none" xmlns="http://www.w3.org/2000/svg">
<g id="Group 48095639">
<g id="Vector (Stroke)" filter="url(#filter0_f_18931_2309)">
<path fill-rule="evenodd" clip-rule="evenodd" d="M21.8743 9.15392C14.955 9.15405 9.34751 15.1532 9.34751 22.5561C9.34751 26.5399 10.9705 30.1174 13.5514 32.5764L19.1429 27.5338H13.4781C12.7572 27.5338 12.184 26.9071 12.184 26.1493C12.184 25.3783 12.7696 24.7648 13.4781 24.7648H30.2787C30.9996 24.7648 31.5729 25.3915 31.5729 26.1493C31.5729 26.9203 30.9873 27.5338 30.2787 27.5338H25.3245L30.4513 32.3416C32.8857 29.8969 34.4093 26.4215 34.4093 22.5644C34.4093 15.1619 28.7944 9.16206 21.8743 9.15392ZM8.53906 22.5561C8.53906 14.6757 14.5085 8.28918 21.8745 8.28918H21.875C29.2403 8.29772 35.2178 14.6836 35.2178 22.5644C35.2178 26.8164 33.4775 30.6332 30.7249 33.2451L30.4583 33.4982L23.1761 26.669H30.2787C30.5452 26.669 30.7644 26.438 30.7644 26.1493C30.7644 25.864 30.5484 25.6296 30.2787 25.6296H13.4781C13.2116 25.6296 12.9924 25.8606 12.9924 26.1493C12.9924 26.4346 13.2085 26.669 13.4781 26.669H21.356L13.5477 33.7108L13.2871 33.4757C10.3831 30.8554 8.53906 26.9362 8.53906 22.5561Z" fill="url(#paint0_linear_18931_2309)"/>
</g>
<path id="Vector (Stroke)_2" fill-rule="evenodd" clip-rule="evenodd" d="M22.035 10.1216C14.891 10.1217 9.10156 15.9163 9.10156 23.0668C9.10156 26.9558 10.8134 30.4441 13.5275 32.821L19.6045 27.6938H13.4546C12.7915 27.6938 12.2639 27.1545 12.2639 26.502C12.2639 25.8385 12.8026 25.3103 13.4546 25.3103H30.6235C31.2867 25.3103 31.8142 25.8496 31.8142 26.502C31.8142 27.1656 31.2756 27.6938 30.6235 27.6938H25.2104L30.8025 32.6C33.3668 30.2349 34.9766 26.8434 34.9766 23.0747C34.9766 15.9245 29.1794 10.1294 22.035 10.1216ZM8.53906 23.0668C8.53906 15.6055 14.5803 9.55872 22.0351 9.55872H22.0354C29.4897 9.5668 35.5391 15.6131 35.5391 23.0747C35.5391 27.1005 33.778 30.7142 30.9921 33.1874L30.8065 33.3521L23.7156 27.1309H30.6235C30.968 27.1309 31.2517 26.8517 31.2517 26.502C31.2517 26.1572 30.9727 25.8732 30.6235 25.8732H13.4546C13.1102 25.8732 12.8264 26.1524 12.8264 26.502C12.8264 26.8469 13.1054 27.1309 13.4546 27.1309H21.1443L13.5257 33.5587L13.3444 33.4057C10.4052 30.9245 8.53906 27.2138 8.53906 23.0668Z" fill="url(#paint1_linear_18931_2309)"/>
<g id="kassandra">
<path d="M64.2451 16.6108H60.9424L52.6169 23.4037V13.3751H50.4609V28.3751H52.6169V26.1037L57.4792 22.1394L63.2819 28.3751H66.1258L59.1076 20.7894L64.2451 16.6108Z" fill="url(#paint2_linear_18931_2309)"/>
<path d="M78.754 16.6108H67.2862V18.6251H78.754C80.0613 18.6251 81.1163 19.6323 81.1163 20.8537V21.4751H70.9559C68.9147 21.4751 67.2862 23.018 67.2862 24.9251C67.2862 26.8323 68.9147 28.3751 70.9559 28.3751H83.2952V20.8537C83.2952 18.518 81.2769 16.6108 78.754 16.6108ZM81.1163 26.3394H70.9559C70.1073 26.3394 69.4422 25.718 69.4422 24.9251C69.4422 24.1537 70.1073 23.5108 70.9559 23.5108H81.1163V26.3394Z" fill="url(#paint3_linear_18931_2309)"/>
<path d="M99.0714 21.4751H90.4018C89.5761 21.4751 88.911 20.8323 88.911 20.0394C88.911 19.268 89.5761 18.6251 90.4018 18.6251H102.741V16.6108H90.4018C88.3834 16.6108 86.7321 18.1323 86.7321 20.0394C86.7321 21.968 88.3834 23.5108 90.4018 23.5108H99.0714C99.92 23.5108 100.585 24.1537 100.585 24.9251C100.585 25.718 99.92 26.3394 99.0714 26.3394H86.7321V28.3751H99.0714C101.113 28.3751 102.741 26.8323 102.741 24.9251C102.741 23.018 101.113 21.4751 99.0714 21.4751Z" fill="url(#paint4_linear_18931_2309)"/>
<path d="M118.517 21.4751H109.848C109.022 21.4751 108.357 20.8323 108.357 20.0394C108.357 19.268 109.022 18.6251 109.848 18.6251H122.187V16.6108H109.848C107.829 16.6108 106.178 18.1323 106.178 20.0394C106.178 21.968 107.829 23.5108 109.848 23.5108H118.517C119.366 23.5108 120.031 24.1537 120.031 24.9251C120.031 25.718 119.366 26.3394 118.517 26.3394H106.178V28.3751H118.517C120.558 28.3751 122.187 26.8323 122.187 24.9251C122.187 23.018 120.558 21.4751 118.517 21.4751Z" fill="url(#paint5_linear_18931_2309)"/>
<path d="M137.092 16.6108H125.624V18.6251H137.092C138.399 18.6251 139.454 19.6323 139.454 20.8537V21.4751H129.293C127.252 21.4751 125.624 23.018 125.624 24.9251C125.624 26.8323 127.252 28.3751 129.293 28.3751H141.633V20.8537C141.633 18.518 139.614 16.6108 137.092 16.6108ZM139.454 26.3394H129.293C128.445 26.3394 127.78 25.718 127.78 24.9251C127.78 24.1537 128.445 23.5108 129.293 23.5108H139.454V26.3394Z" fill="url(#paint6_linear_18931_2309)"/>
<path d="M156.56 16.6108H145.07V28.3751H147.226V18.6251H156.56C157.845 18.6251 158.923 19.6323 158.923 20.8537V28.3751H161.079V20.8537C161.079 18.518 159.037 16.6108 156.56 16.6108Z" fill="url(#paint7_linear_18931_2309)"/>
<path d="M178.369 16.6108H169.057C166.557 16.6108 164.516 18.518 164.516 20.8537V24.1108C164.516 26.468 166.557 28.3751 169.057 28.3751H180.547V13.3751H178.369V16.6108ZM178.369 26.3394H169.057C167.749 26.3394 166.671 25.3323 166.671 24.1108V20.8537C166.671 19.6323 167.749 18.6251 169.057 18.6251H178.369V26.3394Z" fill="url(#paint8_linear_18931_2309)"/>
<path d="M183.984 20.8537V28.3751H186.14V20.8537C186.14 19.6323 187.195 18.6251 188.525 18.6251H200.016V16.6108H188.525C186.002 16.6108 183.984 18.518 183.984 20.8537Z" fill="url(#paint9_linear_18931_2309)"/>
<path d="M214.92 16.6108H203.452V18.6251H214.92C216.227 18.6251 217.282 19.6323 217.282 20.8537V21.4751H207.122C205.08 21.4751 203.452 23.018 203.452 24.9251C203.452 26.8323 205.08 28.3751 207.122 28.3751H219.461V20.8537C219.461 18.518 217.443 16.6108 214.92 16.6108ZM217.282 26.3394H207.122C206.273 26.3394 205.608 25.718 205.608 24.9251C205.608 24.1537 206.273 23.5108 207.122 23.5108H217.282V26.3394Z" fill="url(#paint10_linear_18931_2309)"/>
</g>
</g>
<defs>
<filter id="filter0_f_18931_2309" x="0.539062" y="0.289185" width="42.6787" height="41.4216" filterUnits="userSpaceOnUse" color-interpolation-filters="sRGB">
<feFlood flood-opacity="0" result="BackgroundImageFix"/>
<feBlend mode="normal" in="SourceGraphic" in2="BackgroundImageFix" result="shape"/>
<feGaussianBlur stdDeviation="4" result="effect1_foregroundBlur_18931_2309"/>
</filter>
<linearGradient id="paint0_linear_18931_2309" x1="21.8987" y1="-2.60255" x2="21.8987" y2="41.6979" gradientUnits="userSpaceOnUse">
<stop stop-color="#FFBF00"/>
<stop offset="1" stop-color="#E843C4"/>
</linearGradient>
<linearGradient id="paint1_linear_18931_2309" x1="22.0391" y1="9.84016" x2="22.0391" y2="33.1905" gradientUnits="userSpaceOnUse">
<stop stop-color="#FFBF00"/>
<stop offset="1" stop-color="#E843C4"/>
</linearGradient>
<linearGradient id="paint2_linear_18931_2309" x1="140.291" y1="12.3037" x2="140.291" y2="33.7323" gradientUnits="userSpaceOnUse">
<stop stop-color="#E843C4"/>
<stop offset="1" stop-color="#FFBF00"/>
</linearGradient>
<linearGradient id="paint3_linear_18931_2309" x1="140.291" y1="12.3037" x2="140.291" y2="33.7323" gradientUnits="userSpaceOnUse">
<stop stop-color="#E843C4"/>
<stop offset="1" stop-color="#FFBF00"/>
</linearGradient>
<linearGradient id="paint4_linear_18931_2309" x1="140.291" y1="12.3037" x2="140.291" y2="33.7323" gradientUnits="userSpaceOnUse">
<stop stop-color="#E843C4"/>
<stop offset="1" stop-color="#FFBF00"/>
</linearGradient>
<linearGradient id="paint5_linear_18931_2309" x1="140.291" y1="12.3037" x2="140.291" y2="33.7323" gradientUnits="userSpaceOnUse">
<stop stop-color="#E843C4"/>
<stop offset="1" stop-color="#FFBF00"/>
</linearGradient>
<linearGradient id="paint6_linear_18931_2309" x1="140.291" y1="12.3037" x2="140.291" y2="33.7323" gradientUnits="userSpaceOnUse">
<stop stop-color="#E843C4"/>
<stop offset="1" stop-color="#FFBF00"/>
</linearGradient>
<linearGradient id="paint7_linear_18931_2309" x1="140.291" y1="12.3037" x2="140.291" y2="33.7323" gradientUnits="userSpaceOnUse">
<stop stop-color="#E843C4"/>
<stop offset="1" stop-color="#FFBF00"/>
</linearGradient>
<linearGradient id="paint8_linear_18931_2309" x1="140.291" y1="12.3037" x2="140.291" y2="33.7323" gradientUnits="userSpaceOnUse">
<stop stop-color="#E843C4"/>
<stop offset="1" stop-color="#FFBF00"/>
</linearGradient>
<linearGradient id="paint9_linear_18931_2309" x1="140.291" y1="12.3037" x2="140.291" y2="33.7323" gradientUnits="userSpaceOnUse">
<stop stop-color="#E843C4"/>
<stop offset="1" stop-color="#FFBF00"/>
</linearGradient>
<linearGradient id="paint10_linear_18931_2309" x1="140.291" y1="12.3037" x2="140.291" y2="33.7323" gradientUnits="userSpaceOnUse">
<stop stop-color="#E843C4"/>
<stop offset="1" stop-color="#FFBF00"/>
</linearGradient>
</defs>
</svg>
