<svg width="219" height="42" viewBox="0 0 219 42" fill="none" xmlns="http://www.w3.org/2000/svg">
<g filter="url(#filter0_f_3552_40250)">
<path fill-rule="evenodd" clip-rule="evenodd" d="M21.3352 9.1538C14.4159 9.15393 8.80845 15.1531 8.80845 22.556C8.80845 26.5398 10.4314 30.1173 13.0123 32.5763L18.6038 27.5337H12.9391C12.2182 27.5337 11.6449 26.907 11.6449 26.1492C11.6449 25.3782 12.2305 24.7647 12.9391 24.7647H29.7396C30.4605 24.7647 31.0338 25.3913 31.0338 26.1492C31.0338 26.9202 30.4482 27.5337 29.7396 27.5337H24.7854L29.9122 32.3415C32.3467 29.8967 33.8703 26.4214 33.8703 22.5643C33.8703 15.1618 28.2553 9.16194 21.3352 9.1538ZM8 22.556C8 14.6756 13.9694 8.28906 21.3355 8.28906H21.3359C28.7013 8.2976 34.6787 14.6834 34.6787 22.5643C34.6787 26.8163 32.9384 30.6331 30.1859 33.245L29.9192 33.4981L22.637 26.6689H29.7396C30.0061 26.6689 30.2254 26.4379 30.2254 26.1492C30.2254 25.8638 30.0093 25.6294 29.7396 25.6294H12.9391C12.6726 25.6294 12.4533 25.8605 12.4533 26.1492C12.4533 26.4345 12.6694 26.6689 12.9391 26.6689H20.8169L13.0086 33.7107L12.7481 33.4756C9.84408 30.8553 8 26.936 8 22.556Z" fill="url(#paint0_linear_3552_40250)"/>
</g>
<path fill-rule="evenodd" clip-rule="evenodd" d="M21.4959 10.1215C14.352 10.1216 8.5625 15.9162 8.5625 23.0666C8.5625 26.9557 10.2743 30.444 12.9884 32.8209L19.0654 27.6936H12.9155C12.2524 27.6936 11.7248 27.1544 11.7248 26.5019C11.7248 25.8384 12.2635 25.3102 12.9155 25.3102H30.0845C30.7476 25.3102 31.2752 25.8495 31.2752 26.5019C31.2752 27.1655 30.7365 27.6936 30.0845 27.6936H24.6713L30.2635 32.5999C32.8277 30.2347 34.4375 26.8432 34.4375 23.0746C34.4375 15.9244 28.6403 10.1293 21.4959 10.1215ZM8 23.0666C8 15.6054 14.0413 9.55859 21.496 9.55859H21.4963C28.9506 9.56668 35 15.613 35 23.0746C35 27.1004 33.2389 30.7141 30.453 33.1872L30.2675 33.352L23.1765 27.1308H30.0845C30.4289 27.1308 30.7127 26.8515 30.7127 26.5019C30.7127 26.157 30.4336 25.8731 30.0845 25.8731H12.9155C12.5711 25.8731 12.2873 26.1523 12.2873 26.5019C12.2873 26.8468 12.5664 27.1308 12.9155 27.1308H20.6052L12.9866 33.5586L12.8053 33.4055C9.8661 30.9244 8 27.2137 8 23.0666Z" fill="url(#paint1_linear_3552_40250)"/>
<path d="M63.7061 16.6107H60.4034L52.0778 23.4036V13.375H49.9219V28.375H52.0778V26.1036L56.9401 22.1393L62.7428 28.375H65.5868L58.5685 20.7893L63.7061 16.6107Z" fill="url(#paint2_linear_3552_40250)"/>
<path d="M78.2149 16.6107H66.7472V18.625H78.2149C79.5222 18.625 80.5772 19.6321 80.5772 20.8536V21.475H70.4168C68.3756 21.475 66.7472 23.0179 66.7472 24.925C66.7472 26.8321 68.3756 28.375 70.4168 28.375H82.7561V20.8536C82.7561 18.5179 80.7378 16.6107 78.2149 16.6107ZM80.5772 26.3393H70.4168C69.5682 26.3393 68.9031 25.7179 68.9031 24.925C68.9031 24.1536 69.5682 23.5107 70.4168 23.5107H80.5772V26.3393Z" fill="url(#paint3_linear_3552_40250)"/>
<path d="M98.5323 21.475H89.8627C89.037 21.475 88.3719 20.8321 88.3719 20.0393C88.3719 19.2679 89.037 18.625 89.8627 18.625H102.202V16.6107H89.8627C87.8444 16.6107 86.193 18.1321 86.193 20.0393C86.193 21.9679 87.8444 23.5107 89.8627 23.5107H98.5323C99.3809 23.5107 100.046 24.1536 100.046 24.925C100.046 25.7179 99.3809 26.3393 98.5323 26.3393H86.193V28.375H98.5323C100.574 28.375 102.202 26.8321 102.202 24.925C102.202 23.0179 100.574 21.475 98.5323 21.475Z" fill="url(#paint4_linear_3552_40250)"/>
<path d="M117.978 21.475H109.309C108.483 21.475 107.818 20.8321 107.818 20.0393C107.818 19.2679 108.483 18.625 109.309 18.625H121.648V16.6107H109.309C107.29 16.6107 105.639 18.1321 105.639 20.0393C105.639 21.9679 107.29 23.5107 109.309 23.5107H117.978C118.827 23.5107 119.492 24.1536 119.492 24.925C119.492 25.7179 118.827 26.3393 117.978 26.3393H105.639V28.375H117.978C120.019 28.375 121.648 26.8321 121.648 24.925C121.648 23.0179 120.019 21.475 117.978 21.475Z" fill="url(#paint5_linear_3552_40250)"/>
<path d="M136.552 16.6107H125.085V18.625H136.552C137.86 18.625 138.915 19.6321 138.915 20.8536V21.475H128.754C126.713 21.475 125.085 23.0179 125.085 24.925C125.085 26.8321 126.713 28.375 128.754 28.375H141.094V20.8536C141.094 18.5179 139.075 16.6107 136.552 16.6107ZM138.915 26.3393H128.754C127.906 26.3393 127.241 25.7179 127.241 24.925C127.241 24.1536 127.906 23.5107 128.754 23.5107H138.915V26.3393Z" fill="url(#paint6_linear_3552_40250)"/>
<path d="M156.021 16.6107H144.531V28.375H146.687V18.625H156.021C157.306 18.625 158.384 19.6321 158.384 20.8536V28.375H160.54V20.8536C160.54 18.5179 158.498 16.6107 156.021 16.6107Z" fill="url(#paint7_linear_3552_40250)"/>
<path d="M177.829 16.6107H168.518C166.018 16.6107 163.976 18.5179 163.976 20.8536V24.1107C163.976 26.4679 166.018 28.375 168.518 28.375H180.008V13.375H177.829V16.6107ZM177.829 26.3393H168.518C167.21 26.3393 166.132 25.3321 166.132 24.1107V20.8536C166.132 19.6321 167.21 18.625 168.518 18.625H177.829V26.3393Z" fill="url(#paint8_linear_3552_40250)"/>
<path d="M183.445 20.8536V28.375H185.601V20.8536C185.601 19.6321 186.656 18.625 187.986 18.625H199.477V16.6107H187.986C185.463 16.6107 183.445 18.5179 183.445 20.8536Z" fill="url(#paint9_linear_3552_40250)"/>
<path d="M214.381 16.6107H202.913V18.625H214.381C215.688 18.625 216.743 19.6321 216.743 20.8536V21.475H206.583C204.541 21.475 202.913 23.0179 202.913 24.925C202.913 26.8321 204.541 28.375 206.583 28.375H218.922V20.8536C218.922 18.5179 216.904 16.6107 214.381 16.6107ZM216.743 26.3393H206.583C205.734 26.3393 205.069 25.7179 205.069 24.925C205.069 24.1536 205.734 23.5107 206.583 23.5107H216.743V26.3393Z" fill="url(#paint10_linear_3552_40250)"/>
<defs>
<filter id="filter0_f_3552_40250" x="0" y="0.289062" width="42.6787" height="41.4216" filterUnits="userSpaceOnUse" color-interpolation-filters="sRGB">
<feFlood flood-opacity="0" result="BackgroundImageFix"/>
<feBlend mode="normal" in="SourceGraphic" in2="BackgroundImageFix" result="shape"/>
<feGaussianBlur stdDeviation="4" result="effect1_foregroundBlur_3552_40250"/>
</filter>
<linearGradient id="paint0_linear_3552_40250" x1="21.3596" y1="-2.60267" x2="21.3596" y2="41.6977" gradientUnits="userSpaceOnUse">
<stop stop-color="#FFBF00"/>
<stop offset="1" stop-color="#E843C4"/>
</linearGradient>
<linearGradient id="paint1_linear_3552_40250" x1="21.5" y1="9.84004" x2="21.5" y2="33.1904" gradientUnits="userSpaceOnUse">
<stop stop-color="#FFBF00"/>
<stop offset="1" stop-color="#E843C4"/>
</linearGradient>
<linearGradient id="paint2_linear_3552_40250" x1="139.752" y1="12.3036" x2="139.752" y2="33.7321" gradientUnits="userSpaceOnUse">
<stop stop-color="#E843C4"/>
<stop offset="1" stop-color="#FFBF00"/>
</linearGradient>
<linearGradient id="paint3_linear_3552_40250" x1="139.752" y1="12.3036" x2="139.752" y2="33.7321" gradientUnits="userSpaceOnUse">
<stop stop-color="#E843C4"/>
<stop offset="1" stop-color="#FFBF00"/>
</linearGradient>
<linearGradient id="paint4_linear_3552_40250" x1="139.752" y1="12.3036" x2="139.752" y2="33.7321" gradientUnits="userSpaceOnUse">
<stop stop-color="#E843C4"/>
<stop offset="1" stop-color="#FFBF00"/>
</linearGradient>
<linearGradient id="paint5_linear_3552_40250" x1="139.752" y1="12.3036" x2="139.752" y2="33.7321" gradientUnits="userSpaceOnUse">
<stop stop-color="#E843C4"/>
<stop offset="1" stop-color="#FFBF00"/>
</linearGradient>
<linearGradient id="paint6_linear_3552_40250" x1="139.752" y1="12.3036" x2="139.752" y2="33.7321" gradientUnits="userSpaceOnUse">
<stop stop-color="#E843C4"/>
<stop offset="1" stop-color="#FFBF00"/>
</linearGradient>
<linearGradient id="paint7_linear_3552_40250" x1="139.752" y1="12.3036" x2="139.752" y2="33.7321" gradientUnits="userSpaceOnUse">
<stop stop-color="#E843C4"/>
<stop offset="1" stop-color="#FFBF00"/>
</linearGradient>
<linearGradient id="paint8_linear_3552_40250" x1="139.752" y1="12.3036" x2="139.752" y2="33.7321" gradientUnits="userSpaceOnUse">
<stop stop-color="#E843C4"/>
<stop offset="1" stop-color="#FFBF00"/>
</linearGradient>
<linearGradient id="paint9_linear_3552_40250" x1="139.752" y1="12.3036" x2="139.752" y2="33.7321" gradientUnits="userSpaceOnUse">
<stop stop-color="#E843C4"/>
<stop offset="1" stop-color="#FFBF00"/>
</linearGradient>
<linearGradient id="paint10_linear_3552_40250" x1="139.752" y1="12.3036" x2="139.752" y2="33.7321" gradientUnits="userSpaceOnUse">
<stop stop-color="#E843C4"/>
<stop offset="1" stop-color="#FFBF00"/>
</linearGradient>
</defs>
</svg>
