<svg width="3314" height="372" viewBox="0 0 3314 372" fill="none" xmlns="http://www.w3.org/2000/svg">
<path d="M877.918 110.81H826.101L695.478 217.386V60.0439H661.653V295.384H695.478V259.747L771.765 197.55L862.805 295.384H907.425L797.313 176.369L877.918 110.81Z" fill="url(#paint0_linear_339_197)"/>
<path d="M1105.55 110.81H925.631V142.413H1105.55C1126.06 142.413 1142.62 158.214 1142.62 177.378V187.128H983.206C951.18 187.128 925.631 211.334 925.631 241.256C925.631 271.178 951.18 295.384 983.206 295.384H1176.8V177.378C1176.8 140.732 1145.13 110.81 1105.55 110.81ZM1142.62 263.445H983.206C969.891 263.445 959.456 253.695 959.456 241.256C959.456 229.153 969.891 219.067 983.206 219.067H1142.62V263.445Z" fill="url(#paint1_linear_339_197)"/>
<path d="M1424.32 187.128H1288.3C1275.34 187.128 1264.91 177.042 1264.91 164.602C1264.91 152.499 1275.34 142.413 1288.3 142.413H1481.89V110.81H1288.3C1256.63 110.81 1230.72 134.68 1230.72 164.602C1230.72 194.86 1256.63 219.067 1288.3 219.067H1424.32C1437.63 219.067 1448.07 229.153 1448.07 241.256C1448.07 253.695 1437.63 263.445 1424.32 263.445H1230.72V295.384H1424.32C1456.34 295.384 1481.89 271.178 1481.89 241.256C1481.89 211.334 1456.34 187.128 1424.32 187.128Z" fill="url(#paint2_linear_339_197)"/>
<path d="M1729.41 187.128H1593.39C1580.44 187.128 1570 177.042 1570 164.602C1570 152.499 1580.44 142.413 1593.39 142.413H1786.99V110.81H1593.39C1561.72 110.81 1535.82 134.68 1535.82 164.602C1535.82 194.86 1561.72 219.067 1593.39 219.067H1729.41C1742.73 219.067 1753.16 229.153 1753.16 241.256C1753.16 253.695 1742.73 263.445 1729.41 263.445H1535.82V295.384H1729.41C1761.44 295.384 1786.99 271.178 1786.99 241.256C1786.99 211.334 1761.44 187.128 1729.41 187.128Z" fill="url(#paint3_linear_339_197)"/>
<path d="M2020.83 110.81H1840.91V142.413H2020.83C2041.34 142.413 2057.89 158.214 2057.89 177.378V187.128H1898.48C1866.46 187.128 1840.91 211.334 1840.91 241.256C1840.91 271.178 1866.46 295.384 1898.48 295.384H2092.08V177.378C2092.08 140.732 2060.41 110.81 2020.83 110.81ZM2057.89 263.445H1898.48C1885.17 263.445 1874.73 253.695 1874.73 241.256C1874.73 229.153 1885.17 219.067 1898.48 219.067H2057.89V263.445Z" fill="url(#paint4_linear_339_197)"/>
<path d="M2326.28 110.81H2146V295.384H2179.83V142.413H2326.28C2346.43 142.413 2363.35 158.214 2363.35 177.378V295.384H2397.17V177.378C2397.17 140.732 2365.15 110.81 2326.28 110.81Z" fill="url(#paint5_linear_339_197)"/>
<path d="M2668.44 110.81H2522.34C2483.12 110.81 2451.09 140.732 2451.09 177.378V228.48C2451.09 265.462 2483.12 295.384 2522.34 295.384H2702.62V60.0439H2668.44V110.81ZM2668.44 263.445H2522.34C2501.83 263.445 2484.92 247.644 2484.92 228.48V177.378C2484.92 158.214 2501.83 142.413 2522.34 142.413H2668.44V263.445Z" fill="url(#paint6_linear_339_197)"/>
<path d="M2756.54 177.378V295.384H2790.36V177.378C2790.36 158.214 2806.92 142.413 2827.79 142.413H3008.07V110.81H2827.79C2788.2 110.81 2756.54 140.732 2756.54 177.378Z" fill="url(#paint7_linear_339_197)"/>
<path d="M3241.9 110.81H3061.98V142.413H3241.9C3262.41 142.413 3278.97 158.214 3278.97 177.378V187.128H3119.56C3087.53 187.128 3061.98 211.334 3061.98 241.256C3061.98 271.178 3087.53 295.384 3119.56 295.384H3313.15V177.378C3313.15 140.732 3281.49 110.81 3241.9 110.81ZM3278.97 263.445H3119.56C3106.24 263.445 3095.81 253.695 3095.81 241.256C3095.81 229.153 3106.24 219.067 3119.56 219.067H3278.97V263.445Z" fill="url(#paint8_linear_339_197)"/>
<path d="M215.74 21.9642C241.766 21.9642 267.022 27.0039 290.815 36.9458C313.861 46.5776 334.554 60.371 352.331 77.9471C370.148 95.5634 384.131 116.096 393.889 138.97C404.015 162.705 409.146 187.996 409.146 214.148C409.146 240.449 404.107 265.912 394.165 289.836C385.164 311.488 372.542 330.993 356.602 347.869L294.506 289.836H318.769C340.053 289.836 357.371 272.519 357.371 251.234C357.371 229.95 340.053 212.632 318.769 212.632H112.591C91.3069 212.632 73.9891 229.95 73.9891 251.234C73.9891 272.519 91.3069 289.836 112.591 289.836H141.24L74.9247 347.926C58.9673 331.033 46.3219 311.511 37.31 289.836C27.3682 265.917 22.3227 240.449 22.3227 214.153C22.3227 187.858 27.4543 162.705 37.5798 138.976C47.3379 116.101 61.3208 95.5692 79.138 77.9529C96.915 60.3768 117.614 46.5833 140.654 36.9515C164.447 27.0097 189.703 21.9699 215.729 21.9699M215.74 0.151855C97.5579 0.151855 0.516113 94.9205 0.516113 214.153C0.516113 273.724 24.171 327.864 62.8074 366.765C66.1252 370.106 70.4647 371.753 74.787 371.753C79.5972 371.753 84.3901 369.715 87.7481 365.697L191.001 275.257C193.13 272.214 190.955 268.036 187.247 268.03H112.597C103.327 268.03 95.8071 260.51 95.8071 251.24C95.8071 241.97 103.327 234.45 112.597 234.45H318.769C328.039 234.45 335.559 241.97 335.559 251.24C335.559 260.51 328.039 268.03 318.769 268.03H250.709C246.995 268.03 244.825 272.214 246.955 275.257L343.727 365.697C347.085 369.715 351.878 371.753 356.688 371.753C361.01 371.753 365.35 370.106 368.667 366.765C407.31 327.87 430.959 273.724 430.959 214.153C430.959 94.9205 333.923 0.151855 215.746 0.151855L215.74 0.151855Z" fill="url(#paint9_linear_339_197)"/>
<defs>
<linearGradient id="paint0_linear_339_197" x1="2071.03" y1="43.2339" x2="2071.03" y2="379.434" gradientUnits="userSpaceOnUse">
<stop stop-color="#E843C4"/>
<stop offset="1" stop-color="#FFBF00"/>
</linearGradient>
<linearGradient id="paint1_linear_339_197" x1="2071.03" y1="43.2339" x2="2071.03" y2="379.434" gradientUnits="userSpaceOnUse">
<stop stop-color="#E843C4"/>
<stop offset="1" stop-color="#FFBF00"/>
</linearGradient>
<linearGradient id="paint2_linear_339_197" x1="2071.03" y1="43.2339" x2="2071.03" y2="379.434" gradientUnits="userSpaceOnUse">
<stop stop-color="#E843C4"/>
<stop offset="1" stop-color="#FFBF00"/>
</linearGradient>
<linearGradient id="paint3_linear_339_197" x1="2071.03" y1="43.2339" x2="2071.03" y2="379.434" gradientUnits="userSpaceOnUse">
<stop stop-color="#E843C4"/>
<stop offset="1" stop-color="#FFBF00"/>
</linearGradient>
<linearGradient id="paint4_linear_339_197" x1="2071.03" y1="43.2339" x2="2071.03" y2="379.434" gradientUnits="userSpaceOnUse">
<stop stop-color="#E843C4"/>
<stop offset="1" stop-color="#FFBF00"/>
</linearGradient>
<linearGradient id="paint5_linear_339_197" x1="2071.03" y1="43.2339" x2="2071.03" y2="379.434" gradientUnits="userSpaceOnUse">
<stop stop-color="#E843C4"/>
<stop offset="1" stop-color="#FFBF00"/>
</linearGradient>
<linearGradient id="paint6_linear_339_197" x1="2071.03" y1="43.2339" x2="2071.03" y2="379.434" gradientUnits="userSpaceOnUse">
<stop stop-color="#E843C4"/>
<stop offset="1" stop-color="#FFBF00"/>
</linearGradient>
<linearGradient id="paint7_linear_339_197" x1="2071.03" y1="43.2339" x2="2071.03" y2="379.434" gradientUnits="userSpaceOnUse">
<stop stop-color="#E843C4"/>
<stop offset="1" stop-color="#FFBF00"/>
</linearGradient>
<linearGradient id="paint8_linear_339_197" x1="2071.03" y1="43.2339" x2="2071.03" y2="379.434" gradientUnits="userSpaceOnUse">
<stop stop-color="#E843C4"/>
<stop offset="1" stop-color="#FFBF00"/>
</linearGradient>
<linearGradient id="paint9_linear_339_197" x1="215.735" y1="0.151855" x2="215.735" y2="371.753" gradientUnits="userSpaceOnUse">
<stop offset="0.01" stop-color="#FFBF00"/>
<stop offset="1" stop-color="#E843C4"/>
</linearGradient>
</defs>
</svg>
