<svg width="307" height="51" viewBox="0 0 307 51" fill="none" xmlns="http://www.w3.org/2000/svg">
<g filter="url(#filter0_f_6016)">
<path d="M50.3192 27.6712C50.3192 34.4237 47.3638 40.4847 42.6869 44.6339L31.8146 35.1017H42.3751C43.2291 35.1017 43.9341 34.4102 43.9341 33.5424C43.9341 32.6881 43.2427 31.9831 42.3751 31.9831H12.9441C12.09 31.9831 11.3851 32.6746 11.3851 33.5424C11.3851 34.3966 12.0765 35.1017 12.9441 35.1017H24.8059L13.0661 45C8.13154 40.8373 5 34.6136 5 27.6576C5 15.1424 15.1402 5 27.6528 5C40.1654 5.01356 50.3192 15.1559 50.3192 27.6712Z" stroke="url(#paint0_linear_6016)" stroke-width="2" stroke-miterlimit="10"/>
</g>
<path d="M50.3192 27.6712C50.3192 34.4237 47.3638 40.4847 42.6869 44.6339L31.8146 35.1017H42.3751C43.2291 35.1017 43.9341 34.4102 43.9341 33.5424C43.9341 32.6881 43.2427 31.983 42.3751 31.983H12.9441C12.09 31.983 11.3851 32.6746 11.3851 33.5424C11.3851 34.3966 12.0765 35.1017 12.9441 35.1017H24.8059L13.0661 45C8.13153 40.8373 5 34.6136 5 27.6576C5 15.1424 15.1402 5 27.6528 5C40.1654 5.01356 50.3192 15.1559 50.3192 27.6712Z" stroke="url(#paint1_linear_6016)" stroke-miterlimit="10"/>
<path d="M87.232 19.432H82.624L71.008 29.576V14.6H68V37H71.008V33.608L77.792 27.688L85.888 37H89.856L80.064 25.672L87.232 19.432ZM107.475 19.432H91.475V22.44H107.475C109.299 22.44 110.771 23.944 110.771 25.768V26.696H96.595C93.747 26.696 91.475 29 91.475 31.848C91.475 34.696 93.747 37 96.595 37H113.811V25.768C113.811 22.28 110.995 19.432 107.475 19.432ZM110.771 33.96H96.595C95.411 33.96 94.483 33.032 94.483 31.848C94.483 30.696 95.411 29.736 96.595 29.736H110.771V33.96ZM135.822 26.696H123.726C122.574 26.696 121.646 25.736 121.646 24.552C121.646 23.4 122.574 22.44 123.726 22.44H140.942V19.432H123.726C120.91 19.432 118.606 21.704 118.606 24.552C118.606 27.432 120.91 29.736 123.726 29.736H135.822C137.006 29.736 137.934 30.696 137.934 31.848C137.934 33.032 137.006 33.96 135.822 33.96H118.606V37H135.822C138.67 37 140.942 34.696 140.942 31.848C140.942 29 138.67 26.696 135.822 26.696ZM162.954 26.696H150.858C149.706 26.696 148.778 25.736 148.778 24.552C148.778 23.4 149.706 22.44 150.858 22.44H168.074V19.432H150.858C148.042 19.432 145.738 21.704 145.738 24.552C145.738 27.432 148.042 29.736 150.858 29.736H162.954C164.138 29.736 165.066 30.696 165.066 31.848C165.066 33.032 164.138 33.96 162.954 33.96H145.738V37H162.954C165.802 37 168.074 34.696 168.074 31.848C168.074 29 165.802 26.696 162.954 26.696ZM188.869 19.432H172.869V22.44H188.869C190.693 22.44 192.165 23.944 192.165 25.768V26.696H177.989C175.141 26.696 172.869 29 172.869 31.848C172.869 34.696 175.141 37 177.989 37H195.205V25.768C195.205 22.28 192.389 19.432 188.869 19.432ZM192.165 33.96H177.989C176.805 33.96 175.877 33.032 175.877 31.848C175.877 30.696 176.805 29.736 177.989 29.736H192.165V33.96ZM216.032 19.432H200V37H203.008V22.44H216.032C217.824 22.44 219.328 23.944 219.328 25.768V37H222.336V25.768C222.336 22.28 219.488 19.432 216.032 19.432ZM246.459 19.432H233.467C229.979 19.432 227.131 22.28 227.131 25.768V30.632C227.131 34.152 229.979 37 233.467 37H249.499V14.6H246.459V19.432ZM246.459 33.96H233.467C231.643 33.96 230.139 32.456 230.139 30.632V25.768C230.139 23.944 231.643 22.44 233.467 22.44H246.459V33.96ZM254.294 25.768V37H257.302V25.768C257.302 23.944 258.774 22.44 260.63 22.44H276.662V19.432H260.63C257.11 19.432 254.294 22.28 254.294 25.768ZM297.456 19.432H281.456V22.44H297.456C299.28 22.44 300.752 23.944 300.752 25.768V26.696H286.576C283.728 26.696 281.456 29 281.456 31.848C281.456 34.696 283.728 37 286.576 37H303.792V25.768C303.792 22.28 300.976 19.432 297.456 19.432ZM300.752 33.96H286.576C285.392 33.96 284.464 33.032 284.464 31.848C284.464 30.696 285.392 29.736 286.576 29.736H300.752V33.96Z" fill="url(#paint2_linear_6016)"/>
<defs>
<filter id="filter0_f_6016" x="0" y="0" width="55.3193" height="50.3086" filterUnits="userSpaceOnUse" color-interpolation-filters="sRGB">
<feFlood flood-opacity="0" result="BackgroundImageFix"/>
<feBlend mode="normal" in="SourceGraphic" in2="BackgroundImageFix" result="shape"/>
<feGaussianBlur stdDeviation="2" result="effect1_foregroundBlur_6016"/>
</filter>
<linearGradient id="paint0_linear_6016" x1="27.695" y1="-13.5461" x2="27.695" y2="59.0071" gradientUnits="userSpaceOnUse">
<stop stop-color="#FFBF00"/>
<stop offset="1" stop-color="#E843C4"/>
</linearGradient>
<linearGradient id="paint1_linear_6016" x1="27.6596" y1="5" x2="27.6596" y2="45" gradientUnits="userSpaceOnUse">
<stop stop-color="#FFBF00"/>
<stop offset="1" stop-color="#E843C4"/>
</linearGradient>
<linearGradient id="paint2_linear_6016" x1="187.471" y1="13.0065" x2="187.471" y2="45.0098" gradientUnits="userSpaceOnUse">
<stop stop-color="#FFBF00"/>
<stop offset="1" stop-color="#E843C4"/>
</linearGradient>
</defs>
</svg>
