<svg width="40" height="36" viewBox="0 0 40 36" fill="none" xmlns="http://www.w3.org/2000/svg">
<path fill-rule="evenodd" clip-rule="evenodd" d="M11.4453 32.7459L16.6861 34.1326V32.3192L17.1139 31.8926H20.1086V34.0258V35.5191H16.9L12.9426 33.8125L11.4453 32.7459Z" fill="#CDBDB2"/>
<path fill-rule="evenodd" clip-rule="evenodd" d="M28.5547 32.7459L23.421 34.1326V32.3192L22.9932 31.8926H19.9985V34.0258V35.5191H23.2071L27.1642 33.8125L28.5547 32.7459Z" fill="#CDBDB2"/>
<path fill-rule="evenodd" clip-rule="evenodd" d="M17.1153 28.799L16.6875 32.3188L17.2222 31.8921H22.7837L23.4254 32.3188L22.9976 28.799L22.142 28.2656L17.8639 28.3724L17.1153 28.799Z" fill="#393939"/>
<path fill-rule="evenodd" clip-rule="evenodd" d="M14.2266 5.01172L16.7934 10.9848L17.97 28.3707H22.141L23.4245 10.9848L25.7774 5.01172H14.2266Z" fill="#F89C35"/>
<path fill-rule="evenodd" clip-rule="evenodd" d="M2.99467 18.1334L0 26.7729L7.48667 26.3463H12.2994V22.6132L12.0855 14.9336L11.016 15.7869L2.99467 18.1334Z" fill="#F89D35"/>
<path fill-rule="evenodd" clip-rule="evenodd" d="M8.66406 19.0918L17.4342 19.3051L16.4717 23.7849L12.3004 22.7183L8.66406 19.0918Z" fill="#D87C30"/>
<path fill-rule="evenodd" clip-rule="evenodd" d="M8.66406 19.1992L12.3004 22.6124V26.0255L8.66406 19.1992Z" fill="#EA8D3A"/>
<path fill-rule="evenodd" clip-rule="evenodd" d="M12.2969 22.7188L16.575 23.7854L17.9654 28.3719L17.0028 28.9051L12.2969 26.1319V22.7188Z" fill="#F89D35"/>
<path fill-rule="evenodd" clip-rule="evenodd" d="M12.3009 26.1328L11.4453 32.7458L17.1139 28.7994L12.3009 26.1328Z" fill="#EB8F35"/>
<path fill-rule="evenodd" clip-rule="evenodd" d="M17.4289 19.3047L17.9638 28.371L16.3594 23.7312L17.4289 19.3047Z" fill="#EA8E3A"/>
<path fill-rule="evenodd" clip-rule="evenodd" d="M7.38281 26.2396L12.3026 26.1328L11.447 32.7458L7.38281 26.2396Z" fill="#D87C30"/>
<path fill-rule="evenodd" clip-rule="evenodd" d="M2.35295 35.6245L11.4438 32.7445L7.37962 26.2383L0 26.7715L2.35295 35.6245Z" fill="#EB8F35"/>
<path fill-rule="evenodd" clip-rule="evenodd" d="M16.7924 10.9863L12.1936 14.8261L8.66406 19.0926L17.4342 19.4127L16.7924 10.9863Z" fill="#E8821E"/>
<path fill-rule="evenodd" clip-rule="evenodd" d="M11.4453 32.7452L17.1139 28.7988L16.6861 32.212V34.1319L12.8358 33.3852L11.4453 32.7452Z" fill="#DFCEC3"/>
<path fill-rule="evenodd" clip-rule="evenodd" d="M28.5547 32.7452L22.9932 28.7988L23.421 32.212V34.1319L27.2713 33.3852L28.5547 32.7452Z" fill="#DFCEC3"/>
<path fill-rule="evenodd" clip-rule="evenodd" d="M15.0812 21.2266L16.2578 23.6799L12.0866 22.6133L15.0812 21.2266Z" fill="#393939"/>
<path fill-rule="evenodd" clip-rule="evenodd" d="M2.24609 0L16.7916 10.986L14.3318 5.01299L2.24609 0Z" fill="#E88F35"/>
<path fill-rule="evenodd" clip-rule="evenodd" d="M2.24546 0L0.320312 5.86638L1.38984 12.2661L0.64117 12.6927L1.71069 13.6527L0.855074 14.3993L2.03155 15.4659L1.28288 16.1059L2.99412 18.2391L11.0156 15.7859C14.9371 12.6572 16.8623 11.0572 16.791 10.9861C16.7197 10.915 11.8712 7.25298 2.24546 0Z" fill="#8E5A30"/>
<path fill-rule="evenodd" clip-rule="evenodd" d="M37.0053 18.1334L40 26.7729L32.5133 26.3463H27.7006V22.6132L27.9145 14.9336L28.984 15.7869L37.0053 18.1334Z" fill="#F89D35"/>
<path fill-rule="evenodd" clip-rule="evenodd" d="M31.3359 19.0918L22.5658 19.3051L23.5283 23.7849L27.6996 22.7183L31.3359 19.0918Z" fill="#D87C30"/>
<path fill-rule="evenodd" clip-rule="evenodd" d="M31.3359 19.1992L27.6996 22.6124V26.0255L31.3359 19.1992Z" fill="#EA8D3A"/>
<path fill-rule="evenodd" clip-rule="evenodd" d="M27.7031 22.7188L23.425 23.7854L22.0346 28.3719L22.9972 28.9051L27.7031 26.1319V22.7188Z" fill="#F89D35"/>
<path fill-rule="evenodd" clip-rule="evenodd" d="M27.6991 26.1328L28.5547 32.7458L22.9932 28.906L27.6991 26.1328Z" fill="#EB8F35"/>
<path fill-rule="evenodd" clip-rule="evenodd" d="M22.5711 19.3047L22.0362 28.371L23.6406 23.7312L22.5711 19.3047Z" fill="#EA8E3A"/>
<path fill-rule="evenodd" clip-rule="evenodd" d="M32.6172 26.2396L27.6974 26.1328L28.553 32.7458L32.6172 26.2396Z" fill="#D87C30"/>
<path fill-rule="evenodd" clip-rule="evenodd" d="M37.647 35.6245L28.5562 32.7445L32.6204 26.2383L40 26.7715L37.647 35.6245Z" fill="#EB8F35"/>
<path fill-rule="evenodd" clip-rule="evenodd" d="M23.2076 10.9863L27.8064 14.8261L31.3359 19.0926L22.5658 19.4127L23.2076 10.9863Z" fill="#E8821E"/>
<path fill-rule="evenodd" clip-rule="evenodd" d="M24.9188 21.2266L23.7422 23.6799L27.9134 22.6133L24.9188 21.2266Z" fill="#393939"/>
<path fill-rule="evenodd" clip-rule="evenodd" d="M37.7539 0L23.2084 10.986L25.6682 5.01299L37.7539 0Z" fill="#E88F35"/>
<path fill-rule="evenodd" clip-rule="evenodd" d="M37.7545 0L39.6797 5.86638L38.6102 12.2661L39.3588 12.6927L38.2893 13.6527L39.1449 14.3993L37.9684 15.4659L38.7171 16.1059L37.0059 18.2391L28.9844 15.7859C25.0629 12.6572 23.1377 11.0572 23.209 10.9861C23.2803 10.915 28.1288 7.25298 37.7545 0Z" fill="#8E5A30"/>
</svg>
