<svg width="342" height="111" viewBox="0 0 342 111" fill="none" xmlns="http://www.w3.org/2000/svg">
<path d="M141.849 49.8903C141.257 50.9215 140.376 51.7564 139.314 52.2919C138.175 52.9017 136.761 53.2058 135.073 53.2041H131.951V60.6282H126.911V39.9487H135.07C136.72 39.9487 138.115 40.2335 139.254 40.803C140.326 41.3116 141.22 42.133 141.817 43.1593C142.399 44.2133 142.694 45.4024 142.671 46.6067C142.684 47.7537 142.401 48.8848 141.849 49.8903ZM136.839 48.5219C137.311 48.0708 137.548 47.4307 137.548 46.6067C137.548 45.7826 137.311 45.1425 136.839 44.6914C136.368 44.2404 135.653 44.0136 134.69 44.0136H131.951V49.1998H134.69C135.653 49.1998 136.369 48.9738 136.839 48.5219Z" fill="#FCFCFC"/>
<path d="M158.17 56.9766H150.451L149.214 60.6282H143.942L151.424 39.9487H157.255L164.737 60.6282H159.407L158.17 56.9766ZM156.872 53.0882L154.309 45.5155L151.789 53.0882H156.872Z" fill="#FCFCFC"/>
<path d="M185.505 60.6282H180.465L172.04 47.8717V60.6282H167V39.9487H172.04L180.465 52.7631V39.9487H185.505V60.6282Z" fill="#FCFCFC"/>
<path d="M202.888 46.48C202.526 45.8032 201.966 45.2535 201.282 44.905C200.519 44.5262 199.675 44.3385 198.823 44.3581C197.191 44.3581 195.885 44.8932 194.904 45.9634C193.923 47.0336 193.431 48.4658 193.43 50.26C193.43 52.1652 193.946 53.6529 194.977 54.723C196.009 55.7932 197.425 56.3283 199.226 56.3283C200.347 56.3649 201.448 56.0339 202.363 55.3858C203.256 54.7021 203.911 53.7541 204.233 52.6768H197.85V48.9647H208.802V53.6495C208.412 54.9344 207.766 56.1269 206.902 57.1549C205.97 58.263 204.809 59.157 203.5 59.7757C202.046 60.4629 200.453 60.8077 198.845 60.7837C196.938 60.8168 195.055 60.3549 193.379 59.4431C191.81 58.574 190.518 57.2806 189.65 55.7109C188.769 54.0267 188.309 52.1543 188.309 50.2537C188.309 48.3531 188.769 46.4808 189.65 44.7966C190.515 43.2239 191.806 41.9269 193.374 41.0543C195.044 40.1425 196.923 39.6813 198.825 39.7162C201.3 39.7162 203.386 40.3151 205.085 41.513C206.777 42.7017 207.975 44.4685 208.454 46.48H202.888Z" fill="#FCFCFC"/>
<path d="M216.037 59.4742C214.433 58.5864 213.099 57.28 212.179 55.6941C211.242 54.0278 210.75 52.1485 210.75 50.237C210.75 48.3254 211.242 46.4461 212.179 44.7798C213.101 43.1949 214.434 41.8888 216.037 40.9998C217.679 40.11 219.517 39.644 221.385 39.644C223.252 39.644 225.09 40.11 226.732 40.9998C228.332 41.8836 229.656 43.1916 230.56 44.7798C231.482 46.4516 231.964 48.3298 231.962 50.2386C231.959 52.1474 231.473 54.0245 230.548 55.6941C229.638 57.2785 228.314 58.5853 226.717 59.4742C225.078 60.3639 223.242 60.83 221.377 60.83C219.512 60.83 217.677 60.3639 216.037 59.4742ZM225.346 54.5853C226.339 53.4832 226.836 52.03 226.836 50.2256C226.836 48.4213 226.339 46.963 225.346 45.8508C224.357 44.7588 223.036 44.2137 221.385 44.2153C219.733 44.217 218.403 44.7571 217.393 45.8357C216.402 46.916 215.906 48.3793 215.906 50.2256C215.906 52.072 216.402 53.5302 217.393 54.6004C218.386 55.6891 219.717 56.2334 221.385 56.2334C223.053 56.2334 224.374 55.684 225.346 54.5853Z" fill="#FCFCFC"/>
<path d="M239.798 56.7397H246.396V60.6282H234.758V39.9487H239.798V56.7397Z" fill="#FCFCFC"/>
<path d="M253.849 39.9487V60.6282H248.809V39.9487H253.849Z" fill="#FCFCFC"/>
<path d="M276 60.6282H270.96L262.533 47.8717V60.6282H257.493V39.9487H262.533L270.96 52.7631V39.9487H276V60.6282Z" fill="#FCFCFC"/>
<path d="M90.9886 40.4098L100.739 33.3159L102.384 38.3661L90.9886 46.6595V40.4098Z" fill="#FFC800"/>
<path d="M92.7621 48.0226L104.906 39.1848L102.993 33.3131L109.415 33.3081L113.779 46.7097L102.384 55.0006L92.7621 48.0226Z" fill="#FFC800"/>
<path d="M90.9808 49.3784L102.356 57.6341L90.9859 65.9981L90.9808 49.3784Z" fill="#FFC800"/>
<path d="M90.9873 68.6662L100.261 61.9175L102.38 68.4192L90.9847 76.7126L90.9873 68.6662Z" fill="#FFC800"/>
<path d="M88.7944 40.4098L79.0444 33.3159L77.3988 38.3661L88.7944 46.6595V40.4098Z" fill="#E1AA00"/>
<path d="M87.0175 48.0226L74.8709 39.1848L76.7836 33.3131L70.3651 33.3081L66.0004 46.7097L77.396 55.0006L87.0175 48.0226Z" fill="#E1AA00"/>
<path d="M88.8002 49.3784L77.4222 57.6341L88.7952 65.9981L88.8002 49.3784Z" fill="#E1AA00"/>
<path d="M88.7919 68.6662L79.5156 61.9175L77.3988 68.4192L88.7944 76.7126L88.7919 68.6662Z" fill="#E1AA00"/>
<path d="M127.283 68.9069C127.524 68.4948 127.873 68.1559 128.291 67.9266C128.741 67.6836 129.246 67.5622 129.757 67.5746C130.268 67.587 130.767 67.7327 131.205 67.9972C131.651 68.2784 131.992 68.6992 132.175 69.1942H131.114C130.991 68.9274 130.789 68.7054 130.534 68.5592C130.27 68.415 129.973 68.3429 129.672 68.35C129.338 68.3485 129.01 68.4355 128.72 68.602C128.44 68.7645 128.214 69.0043 128.067 69.2925C127.911 69.6191 127.83 69.9764 127.83 70.3383C127.83 70.7002 127.911 71.0576 128.067 71.3841C128.214 71.6726 128.441 71.9131 128.72 72.0771C129.009 72.2457 129.338 72.3328 129.672 72.3291C129.973 72.3351 130.27 72.263 130.534 72.12C130.788 71.9723 130.99 71.7507 131.114 71.4849H132.175C131.993 71.9789 131.651 72.3983 131.205 72.6769C130.744 72.9598 130.213 73.1049 129.672 73.0952C129.187 73.1009 128.71 72.9792 128.286 72.7424C127.867 72.5137 127.519 72.1747 127.278 71.7621C127.037 71.3286 126.911 70.8407 126.911 70.3446C126.911 69.8485 127.037 69.3606 127.278 68.9271L127.283 68.9069Z" fill="#FCFCFC"/>
<path d="M133.953 72.8161C133.63 72.6347 133.364 72.3668 133.184 72.0424C132.994 71.6861 132.899 71.2869 132.907 70.8832C132.9 70.4802 132.998 70.0823 133.192 69.729C133.375 69.4021 133.646 69.1339 133.976 68.9554C134.317 68.7765 134.697 68.6831 135.083 68.6831C135.469 68.6831 135.849 68.7765 136.191 68.9554C136.52 69.1339 136.792 69.4021 136.974 69.729C137.164 70.0842 137.263 70.4806 137.263 70.8832C137.263 71.2858 137.164 71.6822 136.974 72.0374C136.785 72.3676 136.507 72.6376 136.171 72.8161C135.827 73.001 135.442 73.0956 135.052 73.0907C134.668 73.0979 134.288 73.0032 133.953 72.8161ZM135.684 72.1608C135.89 72.0476 136.058 71.878 136.171 71.672C136.301 71.429 136.365 71.1562 136.357 70.8807C136.365 70.6076 136.304 70.337 136.178 70.0944C136.07 69.891 135.905 69.723 135.704 69.6106C135.511 69.504 135.295 69.4481 135.074 69.4481C134.854 69.4481 134.637 69.504 134.444 69.6106C134.246 69.723 134.086 69.8913 133.983 70.0944C133.863 70.3385 133.804 70.6085 133.812 70.8807C133.788 71.2681 133.915 71.6498 134.165 71.9467C134.277 72.0686 134.415 72.1652 134.568 72.23C134.721 72.2947 134.886 72.3261 135.052 72.3221C135.274 72.3237 135.492 72.2681 135.687 72.1608H135.684Z" fill="#FCFCFC"/>
<path d="M144.212 68.9001C144.478 69.0398 144.696 69.2556 144.839 69.52C144.998 69.8263 145.076 70.1681 145.066 70.5129V73.033H144.192V70.6465C144.213 70.3272 144.11 70.012 143.904 69.767C143.691 69.5691 143.411 69.4592 143.121 69.4592C142.83 69.4592 142.55 69.5691 142.337 69.767C142.128 70.0107 142.023 70.3264 142.045 70.6465V73.033H141.17V70.6465C141.192 70.3272 141.089 70.012 140.883 69.767C140.67 69.5691 140.39 69.4592 140.099 69.4592C139.808 69.4592 139.528 69.5691 139.315 69.767C139.107 70.0107 139.002 70.3264 139.023 70.6465V73.033H138.141V68.7539H139.023V69.2403C139.172 69.0622 139.361 68.9215 139.575 68.8295C139.799 68.7321 140.041 68.6823 140.286 68.6834C140.604 68.678 140.918 68.7525 141.2 68.9001C141.466 69.0419 141.682 69.2606 141.82 69.5276C141.953 69.2649 142.165 69.0501 142.425 68.9127C142.694 68.7603 142.998 68.6812 143.307 68.6834C143.622 68.6808 143.932 68.7552 144.212 68.9001Z" fill="#FCFCFC"/>
<path d="M147.684 68.8849C147.956 68.7481 148.257 68.6789 148.561 68.6833C148.92 68.679 149.273 68.7745 149.581 68.9591C149.889 69.1438 150.139 69.4103 150.305 69.7291C150.481 70.0824 150.567 70.4736 150.557 70.8682C150.566 71.2667 150.48 71.6616 150.305 72.0198C150.14 72.3445 149.889 72.6174 149.579 72.8086C149.276 72.9948 148.927 73.0926 148.571 73.0908C148.27 73.0963 147.971 73.0288 147.702 72.8943C147.462 72.7707 147.251 72.5991 147.082 72.3903V75.0388H146.2V68.7387H147.082V69.3662C147.246 69.1644 147.451 69.0003 147.684 68.8849ZM149.486 70.1046C149.374 69.9015 149.208 69.7332 149.007 69.6182C148.859 69.5303 148.695 69.4735 148.525 69.4513C148.354 69.4292 148.181 69.4421 148.016 69.4893C147.851 69.5365 147.697 69.617 147.564 69.7258C147.431 69.8347 147.322 69.9696 147.243 70.1222C147.118 70.3544 147.055 70.6147 147.059 70.8782C147.053 71.1468 147.117 71.4123 147.243 71.6494C147.322 71.802 147.431 71.9369 147.564 72.0458C147.697 72.1546 147.851 72.2351 148.016 72.2823C148.181 72.3295 148.354 72.3425 148.525 72.3203C148.695 72.2981 148.859 72.2413 149.007 72.1534C149.21 72.0327 149.376 71.8583 149.486 71.6494C149.611 71.411 149.673 71.1448 149.667 70.8757C149.676 70.6072 149.613 70.3412 149.486 70.1046Z" fill="#FCFCFC"/>
<path d="M152.203 72.8161C151.88 72.6347 151.614 72.3668 151.434 72.0424C151.244 71.6861 151.149 71.2869 151.157 70.8832C151.15 70.4802 151.248 70.0823 151.442 69.729C151.625 69.4021 151.896 69.1339 152.226 68.9554C152.567 68.7765 152.947 68.6831 153.333 68.6831C153.719 68.6831 154.099 68.7765 154.441 68.9554C154.77 69.1339 155.042 69.4021 155.224 69.729C155.414 70.0842 155.513 70.4806 155.513 70.8832C155.513 71.2858 155.414 71.6822 155.224 72.0374C155.035 72.3676 154.757 72.6376 154.421 72.8161C154.077 73.001 153.692 73.0956 153.302 73.0907C152.918 73.0979 152.538 73.0032 152.203 72.8161ZM153.934 72.1608C154.139 72.0472 154.307 71.8776 154.418 71.672C154.548 71.429 154.613 71.1562 154.605 70.8807C154.613 70.6076 154.551 70.337 154.426 70.0944C154.318 69.8917 154.154 69.7239 153.954 69.6106C153.759 69.5021 153.54 69.4457 153.317 69.4468C153.096 69.4452 152.879 69.5017 152.687 69.6106C152.489 69.723 152.328 69.8913 152.226 70.0944C152.105 70.3385 152.046 70.6085 152.054 70.8807C152.031 71.2681 152.157 71.6498 152.407 71.9467C152.52 72.0686 152.657 72.1652 152.81 72.23C152.963 72.2947 153.128 72.3261 153.294 72.3221C153.518 72.3246 153.738 72.269 153.934 72.1608Z" fill="#FCFCFC"/>
<path d="M160.251 68.7635V73.0324H159.369V72.5284C159.223 72.7082 159.035 72.85 158.822 72.9417C158.596 73.0429 158.351 73.0944 158.104 73.0929C157.79 73.0988 157.481 73.0269 157.202 72.8838C156.936 72.7441 156.717 72.5282 156.574 72.2638C156.414 71.9587 156.335 71.6178 156.345 71.2735V68.7534H157.222V71.1323C157.2 71.4509 157.303 71.7654 157.509 72.0093C157.61 72.1137 157.731 72.1952 157.866 72.2482C158.001 72.3013 158.146 72.3247 158.29 72.3168C158.436 72.3238 158.581 72.3 158.716 72.247C158.852 72.194 158.975 72.113 159.077 72.0093C159.285 71.7667 159.39 71.4517 159.369 71.1323V68.7534L160.251 68.7635Z" fill="#FCFCFC"/>
<path d="M164.469 68.8998C164.735 69.0385 164.952 69.2548 165.091 69.5198C165.25 69.8261 165.328 70.1678 165.318 70.5127V73.0327H164.446V70.6462C164.468 70.3269 164.365 70.0117 164.159 69.7667C164.059 69.6624 163.937 69.5809 163.802 69.5278C163.667 69.4748 163.522 69.4514 163.378 69.4593C163.232 69.4523 163.087 69.4761 162.952 69.529C162.816 69.582 162.694 69.663 162.592 69.7667C162.383 70.0104 162.278 70.3261 162.299 70.6462V73.0327H161.422V68.7537H162.304V69.24C162.455 69.0622 162.645 68.9216 162.859 68.8293C163.086 68.7321 163.33 68.6824 163.577 68.6831C163.887 68.6825 164.193 68.7568 164.469 68.8998Z" fill="#FCFCFC"/>
<path d="M166.415 69.7319C166.583 69.4106 166.836 69.1424 167.148 68.9577C167.46 68.7729 167.817 68.6788 168.179 68.6861C168.464 68.6871 168.745 68.749 169.003 68.8675C169.255 68.974 169.477 69.1401 169.651 69.3514V67.2925H170.543V73.0256H169.651V72.3804C169.495 72.5949 169.289 72.7679 169.051 72.8844C168.779 73.0233 168.477 73.0926 168.172 73.086C167.816 73.0885 167.466 72.9907 167.164 72.8038C166.853 72.6127 166.601 72.3398 166.435 72.015C166.252 71.6592 166.159 71.2636 166.166 70.8634C166.153 70.4713 166.239 70.0824 166.415 69.7319ZM169.459 70.12C169.35 69.9112 169.185 69.7367 168.983 69.616C168.791 69.5068 168.574 69.4494 168.353 69.4494C168.132 69.4494 167.915 69.5068 167.723 69.616C167.523 69.7321 167.359 69.9002 167.247 70.1023C167.122 70.3345 167.059 70.5949 167.065 70.8583C167.059 71.1274 167.122 71.3937 167.247 71.632C167.358 71.841 167.524 72.0154 167.728 72.136C167.919 72.2501 168.138 72.3101 168.361 72.3099C168.584 72.31 168.803 72.2509 168.996 72.1385C169.198 72.0184 169.363 71.8438 169.472 71.6345C169.597 71.3972 169.66 71.1317 169.653 70.8634C169.652 70.6032 169.586 70.3475 169.459 70.12Z" fill="#FCFCFC"/>
<path d="M177.699 67.644L175.918 71.0763V73.0294H175.033V71.0763L173.246 67.644H174.229L175.489 70.285L176.749 67.644H177.699Z" fill="#FCFCFC"/>
<path d="M179.154 72.8161C178.835 72.6332 178.573 72.3654 178.398 72.0424C178.206 71.6867 178.109 71.2873 178.118 70.8832C178.11 70.4799 178.21 70.0817 178.405 69.729C178.587 69.4022 178.858 69.1339 179.187 68.9554C179.529 68.7765 179.909 68.6831 180.295 68.6831C180.682 68.6831 181.062 68.7765 181.404 68.9554C181.733 69.1339 182.004 69.4022 182.185 69.729C182.381 70.0817 182.48 70.4799 182.473 70.8832C182.48 71.2875 182.379 71.6863 182.178 72.0374C181.989 72.3667 181.711 72.6364 181.376 72.8161C181.033 73.001 180.648 73.0956 180.258 73.0907C179.872 73.0984 179.491 73.0036 179.154 72.8161ZM180.885 72.1608C181.089 72.047 181.258 71.8786 181.371 71.6745C181.501 71.4313 181.564 71.1585 181.555 70.8832C181.564 70.6104 181.504 70.3398 181.379 70.0969C181.27 69.8941 181.106 69.7263 180.905 69.6131C180.711 69.5049 180.492 69.4485 180.27 69.4493C180.049 69.4483 179.831 69.5047 179.638 69.6131C179.441 69.727 179.281 69.8949 179.177 70.0969C179.057 70.3413 178.999 70.6112 179.008 70.8832C178.984 71.2706 179.11 71.6523 179.36 71.9492C179.473 72.0714 179.61 72.1682 179.763 72.2329C179.916 72.2977 180.081 72.329 180.248 72.3247C180.471 72.3263 180.69 72.2699 180.885 72.1608Z" fill="#FCFCFC"/>
<path d="M187.204 68.7635V73.0324H186.32V72.5284C186.174 72.7093 185.987 72.8514 185.773 72.9417C185.548 73.0426 185.304 73.0941 185.057 73.0929C184.744 73.0991 184.434 73.0272 184.155 72.8838C183.888 72.7454 183.669 72.5292 183.528 72.2638C183.366 71.9592 183.287 71.6179 183.298 71.2735V68.7534H184.173V71.1323C184.151 71.4509 184.254 71.7654 184.46 72.0093C184.674 72.2068 184.954 72.3164 185.245 72.3164C185.536 72.3164 185.816 72.2068 186.03 72.0093C186.238 71.7663 186.342 71.4513 186.32 71.1323V68.7534L187.204 68.7635Z" fill="#FCFCFC"/>
<path d="M189.767 68.8649C189.999 68.7401 190.26 68.6776 190.523 68.6835V69.5983H190.299C190.014 69.5752 189.731 69.6658 189.513 69.8503C189.307 70.1085 189.212 70.4369 189.246 70.765V73.0129H188.364V68.754H189.246V69.374C189.371 69.1609 189.551 68.9852 189.767 68.8649Z" fill="#FCFCFC"/>
<path d="M193.43 68.9069C193.67 68.4946 194.019 68.1557 194.438 67.9266C194.887 67.6836 195.393 67.5622 195.904 67.5746C196.415 67.587 196.914 67.7327 197.351 67.9972C197.798 68.2783 198.14 68.699 198.324 69.1942H197.263C197.14 68.9268 196.936 68.7046 196.681 68.5592C196.418 68.415 196.121 68.3429 195.821 68.35C195.487 68.3485 195.158 68.4355 194.869 68.602C194.588 68.7643 194.361 69.0041 194.213 69.2925C194.057 69.6191 193.977 69.9764 193.977 70.3383C193.977 70.7002 194.057 71.0576 194.213 71.3841C194.362 71.6727 194.589 71.9131 194.869 72.0771C195.158 72.2457 195.487 72.3328 195.821 72.3291C196.121 72.3351 196.417 72.263 196.681 72.12C196.935 71.9732 197.139 71.7515 197.263 71.4849H198.324C198.141 71.9791 197.798 72.3984 197.351 72.6769C196.892 72.9601 196.361 73.1053 195.821 73.0952C195.336 73.1009 194.858 72.9792 194.435 72.7424C194.016 72.5137 193.668 72.1747 193.427 71.7621C193.183 71.3259 193.055 70.8342 193.055 70.3342C193.055 69.8342 193.185 69.3427 193.43 68.9069Z" fill="#FCFCFC"/>
<path d="M200.107 72.8161C199.788 72.6332 199.526 72.3654 199.351 72.0424C199.159 71.6867 199.063 71.2873 199.071 70.8832C199.064 70.4799 199.163 70.0817 199.358 69.729C199.54 69.4015 199.812 69.1331 200.142 68.9554C200.484 68.7765 200.864 68.6831 201.25 68.6831C201.636 68.6831 202.016 68.7765 202.357 68.9554C202.686 69.1339 202.957 69.4022 203.139 69.729C203.334 70.0817 203.433 70.4799 203.426 70.8832C203.434 71.2875 203.332 71.6863 203.131 72.0374C202.942 72.3667 202.664 72.6364 202.33 72.8161C201.986 73.001 201.601 73.0956 201.211 73.0907C200.825 73.0984 200.444 73.0036 200.107 72.8161ZM201.838 72.1608C202.042 72.047 202.211 71.8786 202.325 71.6745C202.454 71.4313 202.517 71.1585 202.509 70.8832C202.518 70.6104 202.457 70.3398 202.332 70.0969C202.224 69.8935 202.059 69.7255 201.858 69.6131C201.664 69.5049 201.446 69.4485 201.223 69.4493C201.003 69.4478 200.785 69.5043 200.593 69.6131C200.395 69.7255 200.235 69.8938 200.132 70.0969C200.01 70.3406 199.951 70.6109 199.961 70.8832C199.937 71.2706 200.064 71.6523 200.314 71.9492C200.426 72.0714 200.563 72.1682 200.716 72.2329C200.869 72.2977 201.035 72.329 201.201 72.3247C201.424 72.3267 201.644 72.2702 201.838 72.1608Z" fill="#FCFCFC"/>
<path d="M210.359 68.9001C210.626 69.0385 210.845 69.2546 210.987 69.52C211.147 69.8256 211.226 70.1677 211.216 70.5129V73.0329H210.341V70.6464C210.368 70.3248 210.267 70.0056 210.062 69.7569C209.848 69.5594 209.568 69.4497 209.277 69.4497C208.986 69.4497 208.705 69.5594 208.492 69.7569C208.284 70.0008 208.18 70.3166 208.202 70.6364V73.0228H207.327V70.6364C207.348 70.3167 207.244 70.0015 207.038 69.7569C206.824 69.5594 206.544 69.4497 206.253 69.4497C205.962 69.4497 205.681 69.5594 205.468 69.7569C205.26 70.0008 205.156 70.3166 205.178 70.6364V73.0228H204.293V68.7539H205.178V69.2402C205.326 69.0622 205.515 68.9215 205.727 68.8295C205.952 68.7323 206.195 68.6826 206.44 68.6833C206.759 68.6785 207.073 68.7529 207.355 68.9001C207.62 69.0429 207.835 69.2614 207.975 69.5275C208.108 69.2649 208.319 69.05 208.58 68.9126C208.849 68.7603 209.153 68.6812 209.462 68.6833C209.774 68.6816 210.082 68.7559 210.359 68.9001Z" fill="#FCFCFC"/>
<path d="M218.407 68.9001C218.674 69.0385 218.893 69.2547 219.034 69.52C219.195 69.8256 219.274 70.1677 219.264 70.5129V73.033H218.389V70.6465C218.411 70.3272 218.308 70.012 218.102 69.767C218.001 69.6626 217.88 69.5811 217.745 69.5281C217.61 69.475 217.465 69.4516 217.321 69.4595C217.175 69.4523 217.029 69.476 216.893 69.529C216.758 69.582 216.634 69.6631 216.532 69.767C216.325 70.0116 216.221 70.3268 216.242 70.6465V73.033H215.368V70.6465C215.389 70.3272 215.286 70.012 215.08 69.767C214.98 69.6626 214.858 69.5811 214.723 69.5281C214.588 69.475 214.444 69.4516 214.299 69.4595C214.153 69.4523 214.008 69.476 213.872 69.529C213.736 69.582 213.613 69.6631 213.51 69.767C213.304 70.0116 213.2 70.3268 213.221 70.6465V73.033H212.328V68.7539H213.211V69.2403C213.359 69.0623 213.547 68.9216 213.76 68.8295C213.985 68.7326 214.228 68.6829 214.473 68.6834C214.791 68.6782 215.106 68.7527 215.388 68.9001C215.653 69.0418 215.869 69.2606 216.008 69.5276C216.141 69.2649 216.352 69.05 216.613 68.9127C216.881 68.7603 217.186 68.6812 217.495 68.6834C217.812 68.6791 218.125 68.7536 218.407 68.9001Z" fill="#FCFCFC"/>
<path d="M224.252 68.7635V73.0324H223.37V72.5284C223.224 72.7082 223.036 72.85 222.824 72.9417C222.598 73.0429 222.353 73.0944 222.105 73.0929C221.792 73.0988 221.482 73.0269 221.203 72.8838C220.937 72.7441 220.719 72.5282 220.576 72.2638C220.417 71.9585 220.339 71.6175 220.349 71.2735V68.7534H221.223V71.1323C221.202 71.4509 221.305 71.7654 221.511 72.0093C221.611 72.1137 221.733 72.1952 221.868 72.2482C222.003 72.3013 222.147 72.3247 222.292 72.3168C222.437 72.3238 222.582 72.3 222.718 72.247C222.853 72.194 222.976 72.113 223.078 72.0093C223.287 71.7667 223.392 71.4517 223.37 71.1323V68.7534L224.252 68.7635Z" fill="#FCFCFC"/>
<path d="M228.474 68.8998C228.74 69.0385 228.957 69.2548 229.097 69.5198C229.256 69.8261 229.334 70.1678 229.324 70.5127V73.0327H228.459V70.6462C228.481 70.3269 228.378 70.0117 228.172 69.7667C228.071 69.6623 227.95 69.5809 227.815 69.5278C227.68 69.4748 227.535 69.4514 227.391 69.4593C227.245 69.4523 227.1 69.4761 226.965 69.529C226.829 69.582 226.706 69.663 226.604 69.7667C226.396 70.0107 226.292 70.3264 226.315 70.6462V73.0327H225.43V68.7537H226.315V69.24C226.463 69.0614 226.653 68.9206 226.866 68.8293C227.093 68.7323 227.338 68.6826 227.585 68.6831C227.894 68.6829 228.199 68.7572 228.474 68.8998Z" fill="#FCFCFC"/>
<path d="M230.489 68.0205C230.409 67.9412 230.354 67.8398 230.332 67.7292C230.31 67.6186 230.321 67.5039 230.364 67.3997C230.407 67.2955 230.481 67.2066 230.575 67.1444C230.669 67.0822 230.779 67.0494 230.892 67.0503C231.036 67.0599 231.17 67.1237 231.269 67.2287C231.367 67.3338 231.421 67.4722 231.421 67.6161C231.421 67.7599 231.367 67.8984 231.269 68.0034C231.17 68.1085 231.036 68.1722 230.892 68.1818C230.818 68.184 230.743 68.1709 230.674 68.1431C230.605 68.1154 230.542 68.0737 230.489 68.0205ZM231.326 68.7488V73.0178H230.441V68.7488H231.326Z" fill="#FCFCFC"/>
<path d="M233.521 69.4829V71.8442C233.516 71.9063 233.522 71.9688 233.542 72.0282C233.561 72.0875 233.592 72.1424 233.632 72.1894C233.743 72.271 233.881 72.3087 234.018 72.2953H234.56V73.0311H233.862C233.533 73.0533 233.207 72.9537 232.947 72.7514C232.832 72.632 232.744 72.4891 232.689 72.3325C232.634 72.1759 232.614 72.0094 232.629 71.8442V69.4829H232.125V68.7622H232.629V67.6987H233.521V68.7622H234.56V69.4829H233.521Z" fill="#FCFCFC"/>
<path d="M239.215 68.7612L236.594 75.0361H235.682L236.548 72.9596L234.868 68.7612H235.85L237.052 72.0146L238.3 68.7612H239.215Z" fill="#FCFCFC"/>
</svg>
