<svg width="40" height="40" viewBox="0 0 40 40" fill="none" xmlns="http://www.w3.org/2000/svg">
<path d="M20 40C31.0456 40 40 31.0456 40 20C40 8.95435 31.0456 0 20 0C8.95435 0 0 8.95435 0 20C0 31.0456 8.95435 40 20 40Z" fill="#FFC800"/>
<path d="M19.999 38.5724C30.2557 38.5724 38.5704 30.2578 38.5704 20.0011C38.5704 9.74439 30.2557 1.42969 19.999 1.42969C9.74232 1.42969 1.42773 9.74439 1.42773 20.0011C1.42773 30.2578 9.74232 38.5724 19.999 38.5724Z" fill="black"/>
<path d="M28.8917 10.0781H25.9274L26.5845 12.1053L26.8059 12.7881L26.2245 13.2095L21.2246 16.8381L25.6446 20.0553L30.8931 16.2481L28.8917 10.0781Z" fill="#FFC800"/>
<path d="M13.5653 13.1965L12.9853 12.7679L13.2081 12.085L13.8653 10.0664H10.9109L8.90234 16.2308L14.1453 20.0464L18.5739 16.835L13.5653 13.1965Z" fill="#E1AA00"/>
<path d="M19.3892 13.3386L14.9035 10.0742L14.1465 12.3986L19.3892 16.2142V13.34V13.3386Z" fill="#E1AA00"/>
<path d="M24.8879 10.0781L20.3965 13.3367V16.2109L25.6423 12.4052L24.8879 10.0781Z" fill="#FFC800"/>
<path d="M14.7255 20.8505L14.1541 21.2633L14.1426 21.2961L19.3855 25.1119V17.4648L14.7255 20.8505Z" fill="#E1AA00"/>
<path d="M25.6312 21.2652L25.0596 20.8495L20.4023 17.4609V25.1052L25.641 21.3038L25.6312 21.2652Z" fill="#FFC800"/>
<path d="M19.3878 26.3341L18.8078 25.9055L15.1207 23.2227L14.1465 26.2141L19.3892 30.0298V26.3269L19.3878 26.3341Z" fill="#E1AA00"/>
<path d="M24.6767 23.2305L20.9795 25.9119L20.4082 26.3303V30.0332L25.6539 26.2289L24.6767 23.2305Z" fill="#FFC800"/>
</svg>
