<svg width="342" height="111" viewBox="0 0 342 111" fill="none" xmlns="http://www.w3.org/2000/svg">
<path d="M161.698 52.713V29.8091H170.26C171.733 29.8091 173.069 29.9743 174.268 30.3047C175.453 30.6351 176.47 31.1308 177.305 31.8066C178.14 32.4825 178.793 33.3385 179.233 34.3749C179.689 35.4112 179.916 36.6277 179.916 38.0245C179.916 39.3912 179.673 40.5927 179.188 41.584C178.702 42.5902 178.064 43.4163 177.259 44.0471C176.455 44.6929 175.513 45.1735 174.451 45.4889C173.388 45.8043 172.264 45.9695 171.095 45.9695H167.725V52.713H161.698ZM170.002 41.2836C171.262 41.2836 172.219 41.0133 172.887 40.4876C173.555 39.9469 173.874 39.1359 173.874 38.0245C173.874 37.0032 173.54 36.1621 172.887 35.5013C172.219 34.8404 171.186 34.525 169.774 34.525H167.725V41.2986H170.002V41.2836Z" fill="white"/>
<path d="M189.009 46.0884C188.568 46.0884 188.174 46.0734 187.824 46.0433C187.475 46.0133 187.156 45.9682 186.898 45.9232C186.595 45.8781 186.306 45.8181 186.033 45.758V45.788C186.033 46.0734 186.109 46.3587 186.261 46.6741C186.412 46.9745 186.64 47.2599 186.929 47.5152C187.217 47.7705 187.551 47.9658 187.961 48.131C188.356 48.2962 188.781 48.3713 189.251 48.3713C189.844 48.3713 190.375 48.2812 190.846 48.0859C191.301 47.9057 191.696 47.6954 191.999 47.4551C192.379 47.1998 192.683 46.8844 192.926 46.5089L195.704 49.3926C195.309 50.0534 194.763 50.6392 194.079 51.1648C193.502 51.6004 192.759 52.0059 191.832 52.3663C190.906 52.7268 189.768 52.907 188.432 52.907C187.202 52.907 186.094 52.7118 185.107 52.3213C184.12 51.9308 183.285 51.3901 182.571 50.6842C181.873 49.9933 181.326 49.1373 180.947 48.146C180.567 47.1547 180.385 46.0584 180.385 44.8568C180.385 43.7004 180.537 42.634 180.84 41.6278C181.144 40.6365 181.63 39.7804 182.283 39.0595C182.936 38.3386 183.771 37.7679 184.773 37.3624C185.79 36.9418 187.004 36.7466 188.447 36.7466C189.722 36.7466 190.8 36.9268 191.665 37.3023C192.531 37.6778 193.229 38.1283 193.761 38.669C194.292 39.2097 194.672 39.7954 194.884 40.4262C195.097 41.042 195.218 41.6127 195.218 42.1084C195.218 42.8894 195.081 43.5502 194.793 44.0608C194.505 44.5715 194.095 44.977 193.548 45.2924C193.001 45.5928 192.349 45.8181 191.574 45.9232C190.815 46.0433 189.965 46.0884 189.009 46.0884ZM186.139 42.9945C186.245 43.0546 186.397 43.1146 186.595 43.1597C186.929 43.2648 187.414 43.3249 188.082 43.3249C188.675 43.3249 189.16 43.2648 189.525 43.1297C189.889 42.9945 190.071 42.7542 190.071 42.3787C190.071 42.0032 189.904 41.6878 189.555 41.4175C189.206 41.1471 188.735 41.012 188.113 41.012C187.521 41.012 187.035 41.1772 186.67 41.5076C186.321 41.808 186.139 42.3186 186.139 42.9945Z" fill="white"/>
<path d="M214.349 52.606C214.167 52.6661 213.97 52.7262 213.727 52.7713C213.499 52.8163 213.241 52.8463 212.953 52.8764C212.649 52.8914 212.315 52.9064 211.905 52.9064C208.929 52.9064 207.441 51.3294 207.441 48.1604V43.8049C207.441 43.1441 207.274 42.6484 206.925 42.303C206.576 41.9576 206.166 41.7773 205.65 41.7773C205.27 41.7773 204.967 41.8374 204.724 41.9576C204.481 42.0777 204.284 42.2429 204.147 42.4382C204.01 42.6334 203.904 42.8437 203.828 43.054C203.767 43.2792 203.722 43.4745 203.691 43.6697V52.6962H198.074V42.5283C198.074 42.1078 197.983 41.7924 197.816 41.5821C197.634 41.3718 197.3 41.2517 196.783 41.2517V37.0313C196.966 36.9863 197.163 36.9412 197.406 36.8962C197.603 36.8511 197.861 36.8211 198.165 36.776C198.469 36.746 198.833 36.731 199.228 36.731C200.048 36.731 200.7 36.8361 201.186 37.0614C201.672 37.2867 202.052 37.5119 202.31 37.7823C202.568 38.0376 202.75 38.2929 202.826 38.5182C202.902 38.7435 202.947 38.8787 202.947 38.8937V38.9237C203.054 38.6684 203.206 38.4131 203.403 38.1578C203.6 37.9024 203.874 37.6772 204.223 37.4519C204.572 37.2416 205.012 37.0614 205.513 36.9262C206.014 36.791 206.637 36.731 207.366 36.731C208.383 36.731 209.248 36.8962 209.962 37.2416C210.675 37.587 211.267 38.0376 211.738 38.5933C212.193 39.164 212.543 39.8249 212.74 40.5908C212.953 41.3568 213.059 42.1678 213.059 43.0389V47.0941C213.059 47.5146 213.15 47.83 213.317 48.0403C213.499 48.2656 213.833 48.3707 214.349 48.3707V52.606Z" fill="white"/>
<path d="M225.997 51.0741C225.693 51.5097 225.207 51.9302 224.539 52.3207C223.871 52.7112 222.945 52.9064 221.761 52.9064C221.017 52.9064 220.258 52.7412 219.499 52.4258C218.739 52.1104 218.041 51.6148 217.434 50.9539C216.811 50.2931 216.31 49.4521 215.931 48.4308C215.551 47.4095 215.354 46.223 215.354 44.8412C215.354 43.3844 215.551 42.1378 215.931 41.1015C216.31 40.0652 216.826 39.2241 217.449 38.5783C218.071 37.9325 218.8 37.4669 219.62 37.1665C220.44 36.8661 221.275 36.731 222.14 36.731C223.203 36.731 224.084 36.9112 224.782 37.2566C225.48 37.6021 226.012 37.9325 226.376 38.2329V36.9262H231.31V52.7262C231.31 53.9277 231.113 55.0241 230.733 56.0154C230.354 57.0066 229.807 57.8477 229.094 58.5536C228.395 59.2444 227.53 59.8001 226.528 60.1906C225.526 60.5811 224.418 60.7764 223.203 60.7764C221.852 60.7764 220.728 60.5961 219.802 60.2357C218.876 59.8752 218.132 59.4847 217.555 59.0342C216.872 58.5085 216.325 57.9228 215.931 57.2619L218.815 54.2882C219.058 54.5735 219.362 54.8289 219.711 55.0692C220.015 55.2644 220.394 55.4446 220.819 55.5948C221.244 55.745 221.776 55.8201 222.383 55.8201C222.808 55.8201 223.233 55.76 223.674 55.6549C224.114 55.5498 224.509 55.3695 224.843 55.1142C225.177 54.8589 225.465 54.5435 225.693 54.138C225.921 53.7325 226.027 53.2368 226.027 52.6511V51.0741H225.997ZM225.663 43.91C225.663 43.7148 225.617 43.4895 225.526 43.2342C225.435 42.9789 225.298 42.7386 225.116 42.5133C224.934 42.288 224.691 42.0927 224.402 41.9275C224.114 41.7623 223.765 41.6872 223.34 41.6872C222.641 41.6872 222.049 41.9425 221.594 42.4532C221.138 42.9638 220.895 43.7448 220.895 44.7962C220.895 45.3819 220.971 45.8775 221.123 46.283C221.275 46.6886 221.472 47.019 221.715 47.2593C221.958 47.5146 222.231 47.6948 222.52 47.8C222.823 47.9051 223.097 47.9652 223.37 47.9652C223.871 47.9652 224.281 47.86 224.585 47.6348C224.888 47.4095 225.101 47.1842 225.268 46.9289C225.42 46.6735 225.526 46.4482 225.587 46.253C225.647 46.0578 225.663 45.9827 225.663 46.0277V43.91Z" fill="white"/>
<path d="M250.191 52.6145C250.009 52.6746 249.812 52.7347 249.569 52.7797C249.341 52.8248 249.083 52.8548 248.794 52.8849C248.491 52.8999 248.157 52.9149 247.747 52.9149C246.912 52.9149 246.244 52.7948 245.728 52.5394C245.227 52.2841 244.832 52.0138 244.574 51.6984C244.316 51.398 244.134 51.1126 244.058 50.8423C243.982 50.587 243.936 50.4368 243.936 50.4218V50.3917C243.799 50.647 243.617 50.9324 243.374 51.2328C243.131 51.5332 242.813 51.8035 242.433 52.0438C242.054 52.2991 241.568 52.4944 240.991 52.6596C240.414 52.8248 239.731 52.8999 238.941 52.8999C237.954 52.8999 237.134 52.7497 236.482 52.4643C235.829 52.164 235.313 51.7584 234.933 51.2328C234.553 50.7071 234.28 50.1064 234.128 49.4155C233.977 48.7246 233.901 47.9887 233.901 47.2077V36.9497H239.518V45.7208C239.518 46.4417 239.655 46.9824 239.928 47.3429C240.201 47.7033 240.566 47.8835 241.006 47.8835C241.583 47.8835 242.023 47.7634 242.327 47.5081C242.63 47.2527 242.858 46.9824 243.01 46.697C243.147 46.3967 243.238 46.1263 243.253 45.856C243.268 45.6007 243.283 45.4354 243.283 45.4054V36.9497H248.901V47.1176C248.901 47.5381 248.992 47.8535 249.159 48.0638C249.341 48.2891 249.675 48.3942 250.191 48.3942V52.6145Z" fill="white"/>
<path d="M258.363 31.2341C258.363 32.1653 258.029 32.9312 257.377 33.517C256.708 34.1027 255.904 34.4031 254.963 34.4031C254.021 34.4031 253.217 34.1027 252.564 33.517C251.911 32.9312 251.592 32.1653 251.592 31.2341C251.592 30.3029 251.911 29.5219 252.564 28.9212C253.217 28.3204 254.006 28.02 254.963 28.02C255.904 28.02 256.708 28.3204 257.377 28.9212C258.045 29.5369 258.363 30.3029 258.363 31.2341ZM259.092 52.6061C258.91 52.6662 258.713 52.7263 258.47 52.7713C258.242 52.8164 257.984 52.8464 257.695 52.8765C257.392 52.8915 257.058 52.9065 256.648 52.9065C253.672 52.9065 252.184 51.3295 252.184 48.1605V36.9413H257.802V47.1092C257.802 47.5297 257.893 47.8451 258.06 48.0554C258.242 48.2806 258.576 48.3858 259.092 48.3858V52.6061Z" fill="white"/>
<path d="M278.084 52.606C277.902 52.6661 277.704 52.7262 277.461 52.7713C277.234 52.8163 276.975 52.8463 276.687 52.8764C276.383 52.8914 276.049 52.9064 275.639 52.9064C272.664 52.9064 271.176 51.3294 271.176 48.1604V43.8049C271.176 43.1441 271.009 42.6484 270.66 42.303C270.31 41.9576 269.9 41.7773 269.384 41.7773C269.005 41.7773 268.701 41.8374 268.458 41.9576C268.215 42.0777 268.018 42.2429 267.881 42.4382C267.745 42.6334 267.638 42.8437 267.562 43.054C267.502 43.2792 267.456 43.4745 267.426 43.6697V52.6962H261.808V42.5283C261.808 42.1078 261.717 41.7924 261.55 41.5821C261.368 41.3718 261.034 41.2517 260.518 41.2517V37.0313C260.7 36.9863 260.897 36.9412 261.14 36.8962C261.338 36.8511 261.596 36.8211 261.899 36.776C262.203 36.746 262.567 36.731 262.962 36.731C263.782 36.731 264.435 36.8361 264.921 37.0614C265.407 37.2867 265.786 37.5119 266.044 37.7823C266.302 38.0376 266.484 38.2929 266.56 38.5182C266.636 38.7435 266.682 38.8787 266.682 38.8937V38.9237C266.788 38.6684 266.94 38.4131 267.137 38.1578C267.335 37.9024 267.608 37.6772 267.957 37.4519C268.306 37.2416 268.747 37.0614 269.248 36.9262C269.749 36.791 270.371 36.731 271.1 36.731C272.117 36.731 272.982 36.8962 273.696 37.2416C274.41 37.587 275.002 38.0376 275.472 38.5933C275.928 39.164 276.277 39.8249 276.474 40.5908C276.687 41.3568 276.793 42.1678 276.793 43.0389V47.0941C276.793 47.5146 276.884 47.83 277.051 48.0403C277.234 48.2656 277.568 48.3707 278.084 48.3707V52.606Z" fill="white"/>
<path d="M161.698 78.804V56.606H176.546V61.1717H167.543V65.8877H174.177V70.3634H167.543V78.804H161.698Z" fill="white"/>
<path d="M183.85 57.9961C183.85 58.9123 183.531 59.6482 182.893 60.219C182.256 60.7897 181.466 61.075 180.555 61.075C179.629 61.075 178.855 60.7897 178.233 60.219C177.595 59.6482 177.291 58.9123 177.291 57.9961C177.291 57.08 177.61 56.3441 178.233 55.7583C178.855 55.1726 179.644 54.8872 180.555 54.8872C181.466 54.8872 182.256 55.1726 182.893 55.7583C183.531 56.3441 183.85 57.08 183.85 57.9961ZM184.548 78.6923C184.381 78.7524 184.169 78.8125 183.941 78.8575C183.728 78.9026 183.47 78.9326 183.182 78.9476C182.893 78.9627 182.559 78.9777 182.165 78.9777C179.28 78.9777 177.838 77.4457 177.838 74.3819V63.5081H183.288V73.3756C183.288 73.7811 183.379 74.0815 183.546 74.2918C183.713 74.502 184.047 74.6072 184.533 74.6072V78.6923H184.548Z" fill="white"/>
<path d="M202.947 78.6963C202.78 78.7564 202.568 78.8165 202.34 78.8616C202.127 78.9066 201.869 78.9367 201.581 78.9517C201.292 78.9667 200.958 78.9817 200.564 78.9817C197.679 78.9817 196.237 77.4498 196.237 74.3859V70.1656C196.237 69.5348 196.07 69.0391 195.736 68.7087C195.402 68.3783 194.992 68.1981 194.506 68.1981C194.142 68.1981 193.838 68.2581 193.61 68.3783C193.367 68.4985 193.185 68.6486 193.048 68.8439C192.912 69.0391 192.806 69.2344 192.745 69.4446C192.684 69.6549 192.639 69.8502 192.623 70.0454V78.8015H187.173V68.934C187.173 68.5285 187.082 68.2281 186.915 68.0178C186.748 67.8076 186.414 67.7024 185.928 67.7024V63.6173C186.095 63.5722 186.308 63.5272 186.535 63.4971C186.733 63.4521 186.976 63.422 187.279 63.392C187.583 63.362 187.917 63.3469 188.312 63.3469C189.101 63.3469 189.739 63.4521 190.209 63.6623C190.68 63.8726 191.044 64.1129 191.303 64.3532C191.561 64.6085 191.728 64.8488 191.804 65.0591C191.879 65.2844 191.91 65.4045 191.91 65.4196V65.4496C192.016 65.1943 192.168 64.954 192.365 64.6986C192.563 64.4583 192.821 64.2331 193.17 64.0228C193.504 63.8125 193.929 63.6473 194.415 63.5121C194.901 63.392 195.508 63.3169 196.206 63.3169C197.193 63.3169 198.028 63.4821 198.727 63.8125C199.425 64.1429 199.987 64.5785 200.442 65.1342C200.898 65.6899 201.217 66.3357 201.414 67.0716C201.611 67.8076 201.718 68.6036 201.718 69.4446V73.3796C201.718 73.7851 201.809 74.0855 201.976 74.2958C202.143 74.5061 202.477 74.6112 202.963 74.6112V78.6963H202.947Z" fill="white"/>
<path d="M220.608 78.6957C220.441 78.7558 220.228 78.8159 220 78.8609C219.788 78.906 219.53 78.936 219.241 78.9511C218.953 78.9661 218.619 78.9811 218.224 78.9811C217.389 78.9811 216.736 78.8609 216.25 78.6206C215.764 78.3803 215.4 78.11 215.157 77.8246C214.914 77.5393 214.717 77.1488 214.565 76.6682V76.6381C214.459 76.8484 214.307 77.0887 214.11 77.359C213.912 77.6294 213.639 77.8847 213.29 78.125C212.941 78.3653 212.5 78.5756 211.969 78.7408C211.438 78.906 210.815 78.9961 210.086 78.9961C209.358 78.9961 208.629 78.8459 207.885 78.5305C207.141 78.2301 206.473 77.7495 205.881 77.1037C205.289 76.4579 204.803 75.6469 204.423 74.6556C204.044 73.6794 203.862 72.5079 203.862 71.1862C203.862 69.7745 204.044 68.5579 204.423 67.5516C204.803 66.5454 205.289 65.7343 205.896 65.1035C206.503 64.4878 207.202 64.0222 207.991 63.7368C208.781 63.4515 209.6 63.3013 210.42 63.3013C211.453 63.3013 212.303 63.4665 212.986 63.8119C213.669 64.1574 214.186 64.4727 214.52 64.7581V63.4965H219.302V73.364C219.302 73.7695 219.393 74.0699 219.56 74.2801C219.727 74.4904 220.061 74.5955 220.547 74.5955V78.6957H220.608ZM213.912 70.2701C213.912 70.0748 213.867 69.8646 213.791 69.6243C213.7 69.384 213.578 69.1437 213.396 68.9334C213.214 68.7081 212.986 68.5279 212.713 68.3627C212.44 68.1975 212.09 68.1224 211.68 68.1224C210.997 68.1224 210.436 68.3777 209.98 68.8733C209.525 69.3689 209.312 70.1199 209.312 71.1412C209.312 71.7119 209.388 72.1925 209.54 72.583C209.692 72.9735 209.874 73.2889 210.117 73.5292C210.344 73.7695 210.618 73.9497 210.906 74.0549C211.195 74.16 211.468 74.2201 211.726 74.2201C212.212 74.2201 212.607 74.1149 212.895 73.9047C213.184 73.6944 213.396 73.4691 213.548 73.2288C213.7 72.9885 213.806 72.7632 213.852 72.583C213.897 72.3878 213.927 72.3127 213.927 72.3577V70.2701H213.912Z" fill="white"/>
<path d="M239.006 78.6963C238.839 78.7564 238.626 78.8165 238.399 78.8616C238.186 78.9066 237.928 78.9367 237.64 78.9517C237.351 78.9667 237.017 78.9817 236.622 78.9817C233.738 78.9817 232.295 77.4498 232.295 74.3859V70.1656C232.295 69.5348 232.128 69.0391 231.794 68.7087C231.46 68.3783 231.05 68.1981 230.565 68.1981C230.2 68.1981 229.897 68.2581 229.669 68.3783C229.426 68.4985 229.244 68.6486 229.107 68.8439C228.97 69.0391 228.864 69.2344 228.803 69.4446C228.743 69.6549 228.697 69.8502 228.682 70.0454V78.8015H223.232V68.934C223.232 68.5285 223.14 68.2281 222.973 68.0178C222.806 67.8076 222.472 67.7024 221.987 67.7024V63.6173C222.154 63.5722 222.366 63.5272 222.594 63.4971C222.791 63.4521 223.034 63.422 223.338 63.392C223.641 63.362 223.975 63.3469 224.37 63.3469C225.16 63.3469 225.797 63.4521 226.268 63.6623C226.739 63.8726 227.103 64.1129 227.361 64.3532C227.619 64.6085 227.786 64.8488 227.862 65.0591C227.938 65.2844 227.968 65.4045 227.968 65.4196V65.4496C228.075 65.1943 228.226 64.954 228.424 64.6986C228.621 64.4583 228.879 64.2331 229.229 64.0228C229.563 63.8125 229.988 63.6473 230.473 63.5121C230.959 63.392 231.567 63.3169 232.265 63.3169C233.252 63.3169 234.087 63.4821 234.785 63.8125C235.484 64.1429 236.045 64.5785 236.501 65.1342C236.956 65.6899 237.275 66.3357 237.473 67.0716C237.67 67.8076 237.776 68.6036 237.776 69.4446V73.3796C237.776 73.7851 237.867 74.0855 238.034 74.2958C238.201 74.5061 238.535 74.6112 239.021 74.6112V78.6963H239.006Z" fill="white"/>
<path d="M254.812 75.5868C254.432 76.2176 253.901 76.7883 253.248 77.299C252.686 77.7195 251.973 78.11 251.062 78.4554C250.166 78.8009 249.058 78.9811 247.767 78.9811C246.568 78.9811 245.49 78.7859 244.549 78.4104C243.592 78.0349 242.787 77.5092 242.089 76.8184C241.406 76.1425 240.875 75.3165 240.525 74.3552C240.161 73.394 239.979 72.3277 239.979 71.1712C239.979 70.0448 240.131 69.0085 240.434 68.0473C240.738 67.0861 241.193 66.26 241.831 65.5541C242.453 64.8632 243.273 64.3075 244.245 63.902C245.232 63.4965 246.416 63.3013 247.798 63.3013C248.891 63.3013 249.847 63.4364 250.667 63.7368C251.487 64.0222 252.185 64.3977 252.747 64.8783C253.309 65.3589 253.734 65.9146 254.007 66.5604C254.28 67.2062 254.417 67.8821 254.417 68.5729C254.417 68.8883 254.402 69.1737 254.372 69.429C254.341 69.6843 254.296 69.8946 254.265 70.0598C254.205 70.2701 254.144 70.4353 254.098 70.5705L249.453 70.6005C249.468 70.4954 249.498 70.4053 249.544 70.3151C249.635 70.1049 249.665 69.8796 249.665 69.6543C249.665 69.5041 249.65 69.3389 249.604 69.1587C249.559 68.9784 249.483 68.8132 249.346 68.648C249.225 68.4828 249.027 68.3627 248.784 68.2575C248.542 68.1524 248.208 68.0923 247.767 68.0923C246.917 68.0923 246.295 68.3477 245.915 68.8433C245.535 69.3389 245.338 70.0899 245.338 71.1111C245.338 71.6819 245.429 72.1625 245.611 72.553C245.794 72.9435 246.021 73.2589 246.31 73.4992C246.598 73.7395 246.932 73.9197 247.327 74.0248C247.707 74.13 248.116 74.19 248.542 74.19C249.119 74.19 249.62 74.1149 250.045 73.9648C250.47 73.8146 250.834 73.6494 251.138 73.4541C251.487 73.2288 251.775 72.9735 252.003 72.6881L254.812 75.5868Z" fill="white"/>
<path d="M264.164 72.3884C263.739 72.3884 263.344 72.3733 263.01 72.3433C262.661 72.3133 262.373 72.2682 262.114 72.2382C261.811 72.1931 261.538 72.1481 261.279 72.073V72.103C261.279 72.3733 261.355 72.6587 261.507 72.9591C261.659 73.2595 261.872 73.5298 262.145 73.7701C262.418 74.0104 262.752 74.2207 263.132 74.3709C263.511 74.5361 263.936 74.6112 264.377 74.6112C264.954 74.6112 265.47 74.5211 265.91 74.3408C266.365 74.1606 266.73 73.9503 267.034 73.7251C267.398 73.4697 267.702 73.1694 267.929 72.8089L270.617 75.6024C270.237 76.2332 269.706 76.804 269.053 77.3146C268.491 77.7351 267.777 78.1256 266.866 78.4711C265.956 78.8165 264.862 78.9967 263.572 78.9967C262.373 78.9967 261.295 78.8015 260.353 78.426C259.397 78.0505 258.592 77.5249 257.894 76.834C257.211 76.1581 256.679 75.3321 256.33 74.3709C255.966 73.4097 255.783 72.3433 255.783 71.1868C255.783 70.0604 255.935 69.0241 256.239 68.0629C256.543 67.1017 256.998 66.2756 257.636 65.5697C258.258 64.8789 259.078 64.3232 260.05 63.9177C261.037 63.5121 262.221 63.3169 263.602 63.3169C264.847 63.3169 265.88 63.4971 266.73 63.8576C267.58 64.218 268.248 64.6536 268.764 65.1943C269.28 65.7199 269.645 66.2907 269.857 66.8914C270.07 67.4922 270.176 68.0329 270.176 68.5285C270.176 69.2945 270.04 69.9253 269.766 70.4209C269.493 70.9165 269.083 71.307 268.567 71.6074C268.036 71.9078 267.413 72.103 266.654 72.2232C265.925 72.3283 265.09 72.3884 264.164 72.3884ZM261.386 69.3846C261.492 69.4446 261.644 69.5047 261.841 69.5498C262.16 69.6549 262.646 69.715 263.283 69.715C263.86 69.715 264.331 69.6549 264.68 69.5197C265.029 69.3996 265.212 69.1443 265.212 68.7838C265.212 68.4234 265.045 68.108 264.711 67.8526C264.377 67.5823 263.921 67.4621 263.314 67.4621C262.737 67.4621 262.266 67.6273 261.917 67.9427C261.553 68.2431 261.386 68.7237 261.386 69.3846Z" fill="white"/>
<path d="M271.948 75.9751C271.948 75.1341 272.236 74.4131 272.828 73.8124C273.42 73.2266 274.134 72.9263 274.999 72.9263C275.849 72.9263 276.578 73.2266 277.185 73.8124C277.778 74.3981 278.081 75.119 278.081 75.9751C278.081 76.8162 277.778 77.5371 277.185 78.1228C276.593 78.7086 275.865 78.9939 274.999 78.9939C274.149 78.9939 273.42 78.7086 272.828 78.1228C272.251 77.5371 271.948 76.8162 271.948 75.9751Z" fill="#9A95C7"/>
<path d="M92.7086 72.522C98.0091 67.2785 98.0091 58.7771 92.7086 53.5336C87.4081 48.2901 78.8142 48.2901 73.5137 53.5336C68.2132 58.7771 68.2132 67.2785 73.5137 72.522C78.8142 77.7656 87.4081 77.7656 92.7086 72.522Z" fill="white"/>
<path d="M105.732 34.9476C125.211 35.0077 140.955 50.6725 140.894 69.9419L140.879 73.5164C140.864 76.4602 143.278 78.8482 146.239 78.8632C149.214 78.8782 151.628 76.4902 151.644 73.5615L151.674 66.3073C151.719 46.6625 135.9 30.7123 116.345 28.8349C113.248 28.3994 110.105 28.3994 107.008 28.8049C96.6837 29.7361 88.5308 34.6473 82.7312 41.9315C82.6249 42.0667 82.7919 42.2319 82.9286 42.1417C85.5703 40.3695 94.5582 34.9176 105.732 34.9476Z" fill="#4D3097"/>
<path d="M128.673 72.5221C133.974 67.2785 133.974 58.7771 128.673 53.5336C123.373 48.2901 114.779 48.2901 109.479 53.5336C104.178 58.7771 104.178 67.2785 109.479 72.5221C114.779 77.7656 123.373 77.7656 128.673 72.5221Z" fill="white"/>
<path d="M82.0938 58.0514C82.4856 55.7445 80.9128 53.5603 78.5809 53.1727C76.2489 52.7851 74.0409 54.341 73.6491 56.6478C73.2573 58.9546 74.8301 61.1389 77.162 61.5265C79.4939 61.9141 81.702 60.3582 82.0938 58.0514Z" fill="#130F21"/>
<path d="M118.273 58.0514C118.665 55.7445 117.092 53.5603 114.761 53.1727C112.429 52.7851 110.221 54.341 109.829 56.6478C109.437 58.9546 111.01 61.1389 113.342 61.5265C115.674 61.9141 117.882 60.3582 118.273 58.0514Z" fill="#130F21"/>
<path d="M81.0947 64.2645C80.9884 64.1293 81.0795 63.9341 81.2465 63.9341H100.619C100.786 63.9341 100.923 64.0542 100.953 64.2194C101.242 65.9466 103.367 75.2884 93.696 78.4124C93.5746 78.4424 93.4531 78.3974 93.3772 78.3073L81.0947 64.2645Z" fill="#4D3097"/>
</svg>
