<svg width="1374" height="340" viewBox="0 0 1374 340" fill="none" xmlns="http://www.w3.org/2000/svg">
<g clip-path="url(#clip0_7788_12317)">
<path d="M607 164.301V11.8008H663.4C673.1 11.8008 681.9 12.9008 689.8 15.1008C697.6 17.3008 704.3 20.6008 709.8 25.1008C715.3 29.6008 719.6 35.3008 722.5 42.2008C725.5 49.1008 727 57.2008 727 66.5008C727 75.6008 725.4 83.6008 722.2 90.2008C719 96.9008 714.8 102.401 709.5 106.601C704.2 110.901 698 114.101 691 116.201C684 118.301 676.6 119.401 668.9 119.401H646.7V164.301H607V164.301ZM661.7 88.2008C670 88.2008 676.3 86.4008 680.7 82.9008C685.1 79.3008 687.2 73.9008 687.2 66.5008C687.2 59.7008 685 54.1008 680.7 49.7008C676.3 45.3008 669.5 43.2008 660.2 43.2008H646.7V88.3008H661.7V88.2008Z" fill="white"/>
<path d="M786.9 120.2C784 120.2 781.4 120.1 779.1 119.9C776.8 119.7 774.7 119.4 773 119.1C771 118.8 769.1 118.4 767.3 118V118.2C767.3 120.1 767.8 122 768.8 124.1C769.8 126.1 771.3 128 773.2 129.7C775.1 131.4 777.3 132.7 780 133.8C782.6 134.9 785.4 135.4 788.5 135.4C792.4 135.4 795.9 134.8 799 133.5C802 132.3 804.6 130.9 806.6 129.3C809.1 127.6 811.1 125.5 812.7 123L831 142.2C828.4 146.6 824.8 150.5 820.3 154C816.5 156.9 811.6 159.6 805.5 162C799.4 164.4 791.9 165.6 783.1 165.6C775 165.6 767.7 164.3 761.2 161.7C754.7 159.1 749.2 155.5 744.5 150.8C739.9 146.2 736.3 140.5 733.8 133.9C731.3 127.3 730.1 120 730.1 112C730.1 104.3 731.1 97.2 733.1 90.5C735.1 83.9 738.3 78.2 742.6 73.4C746.9 68.6 752.4 64.8 759 62.1C765.7 59.3 773.7 58 783.2 58C791.6 58 798.7 59.2 804.4 61.7C810.1 64.2 814.7 67.2 818.2 70.8C821.7 74.4 824.2 78.3 825.6 82.5C827 86.6 827.8 90.4 827.8 93.7C827.8 98.9 826.9 103.3 825 106.7C823.1 110.1 820.4 112.8 816.8 114.9C813.2 116.9 808.9 118.4 803.8 119.1C798.8 119.9 793.2 120.2 786.9 120.2ZM768 99.6C768.7 100 769.7 100.4 771 100.7C773.2 101.4 776.4 101.8 780.8 101.8C784.7 101.8 787.9 101.4 790.3 100.5C792.7 99.6 793.9 98 793.9 95.5C793.9 93 792.8 90.9 790.5 89.1C788.2 87.3 785.1 86.4 781 86.4C777.1 86.4 773.9 87.5 771.5 89.7C769.2 91.7 768 95.1 768 99.6Z" fill="white"/>
<path d="M953.8 163.6C952.6 164 951.3 164.4 949.7 164.7C948.2 165 946.5 165.2 944.6 165.4C942.6 165.5 940.4 165.6 937.7 165.6C918.1 165.6 908.3 155.1 908.3 134V105C908.3 100.6 907.2 97.3004 904.9 95.0004C902.6 92.7004 899.9 91.5004 896.5 91.5004C894 91.5004 892 91.9004 890.4 92.7004C888.8 93.5004 887.5 94.6004 886.6 95.9004C885.7 97.2004 885 98.6004 884.5 100C884.1 101.5 883.8 102.8 883.6 104.1V164.2H846.6V96.5004C846.6 93.7004 846 91.6004 844.9 90.2004C843.7 88.8004 841.5 88.0004 838.1 88.0004V59.9004C839.3 59.6004 840.6 59.3004 842.2 59.0004C843.5 58.7004 845.2 58.5004 847.2 58.2004C849.2 58.0004 851.6 57.9004 854.2 57.9004C859.6 57.9004 863.9 58.6004 867.1 60.1004C870.3 61.6004 872.8 63.1004 874.5 64.9004C876.2 66.6004 877.4 68.3004 877.9 69.8004C878.4 71.3004 878.7 72.2004 878.7 72.3004V72.5004C879.4 70.8004 880.4 69.1004 881.7 67.4004C883 65.7004 884.8 64.2004 887.1 62.7004C889.4 61.3004 892.3 60.1004 895.6 59.2004C898.9 58.3004 903 57.9004 907.8 57.9004C914.5 57.9004 920.2 59.0004 924.9 61.3004C929.6 63.6004 933.5 66.6004 936.6 70.3004C939.6 74.1004 941.9 78.5004 943.2 83.6004C944.6 88.7004 945.3 94.1004 945.3 99.9004V126.9C945.3 129.7 945.9 131.8 947 133.2C948.2 134.7 950.4 135.4 953.8 135.4V163.6V163.6Z" fill="white"/>
<path d="M1030.5 153.4C1028.5 156.3 1025.3 159.1 1020.9 161.7C1016.5 164.3 1010.4 165.6 1002.6 165.6C997.7 165.6 992.7 164.5 987.7 162.4C982.7 160.3 978.1 157 974.1 152.6C970 148.2 966.7 142.6 964.2 135.8C961.7 129 960.4 121.1 960.4 111.9C960.4 102.2 961.7 93.9004 964.2 87.0004C966.7 80.1004 970.1 74.5004 974.2 70.2004C978.3 65.9004 983.1 62.8004 988.5 60.8004C993.9 58.8004 999.4 57.9004 1005.1 57.9004C1012.1 57.9004 1017.9 59.1004 1022.5 61.4004C1027.1 63.7004 1030.6 65.9004 1033 67.9004V59.2004H1065.5V164.4C1065.5 172.4 1064.2 179.7 1061.7 186.3C1059.2 192.9 1055.6 198.5 1050.9 203.2C1046.3 207.8 1040.6 211.5 1034 214.1C1027.4 216.7 1020.1 218 1012.1 218C1003.2 218 995.8 216.8 989.7 214.4C983.6 212 978.7 209.4 974.9 206.4C970.4 202.9 966.8 199 964.2 194.6L983.2 174.8C984.8 176.7 986.8 178.4 989.1 180C991.1 181.3 993.6 182.5 996.4 183.5C999.2 184.5 1002.7 185 1006.7 185C1009.5 185 1012.3 184.6 1015.2 183.9C1018.1 183.2 1020.7 182 1022.9 180.3C1025.1 178.6 1027 176.5 1028.5 173.8C1030 171.1 1030.7 167.8 1030.7 163.9V153.4H1030.5ZM1028.3 105.7C1028.3 104.4 1028 102.9 1027.4 101.2C1026.8 99.5004 1025.9 97.9004 1024.7 96.4004C1023.5 94.9004 1021.9 93.6004 1020 92.5004C1018.1 91.4004 1015.8 90.9004 1013 90.9004C1008.4 90.9004 1004.5 92.6004 1001.5 96.0004C998.5 99.4004 996.9 104.6 996.9 111.6C996.9 115.5 997.4 118.8 998.4 121.5C999.4 124.2 1000.7 126.4 1002.3 128C1003.9 129.7 1005.7 130.9 1007.6 131.6C1009.6 132.3 1011.4 132.7 1013.2 132.7C1016.5 132.7 1019.2 132 1021.2 130.5C1023.2 129 1024.6 127.5 1025.7 125.8C1026.7 124.1 1027.4 122.6 1027.8 121.3C1028.2 120 1028.3 119.5 1028.3 119.8V105.7V105.7Z" fill="white"/>
<path d="M1189.9 163.601C1188.7 164.001 1187.4 164.401 1185.8 164.701C1184.3 165.001 1182.6 165.201 1180.7 165.401C1178.7 165.501 1176.5 165.601 1173.8 165.601C1168.3 165.601 1163.9 164.801 1160.5 163.101C1157.2 161.401 1154.6 159.601 1152.9 157.501C1151.2 155.501 1150 153.601 1149.5 151.801C1149 150.101 1148.7 149.101 1148.7 149.001V148.801C1147.8 150.501 1146.6 152.401 1145 154.401C1143.4 156.401 1141.3 158.201 1138.8 159.801C1136.3 161.501 1133.1 162.801 1129.3 163.901C1125.5 165.001 1121 165.501 1115.8 165.501C1109.3 165.501 1103.9 164.501 1099.6 162.601C1095.3 160.601 1091.9 157.901 1089.4 154.401C1086.9 150.901 1085.1 146.901 1084.1 142.301C1083.1 137.701 1082.6 132.801 1082.6 127.601V59.3008H1119.6V117.701C1119.6 122.501 1120.5 126.101 1122.3 128.501C1124.1 130.901 1126.5 132.101 1129.4 132.101C1133.2 132.101 1136.1 131.301 1138.1 129.601C1140.1 127.901 1141.6 126.101 1142.6 124.201C1143.5 122.201 1144.1 120.401 1144.2 118.601C1144.3 116.901 1144.4 115.801 1144.4 115.601V59.3008H1181.4V127.001C1181.4 129.801 1182 131.901 1183.1 133.301C1184.3 134.801 1186.5 135.501 1189.9 135.501V163.601Z" fill="white"/>
<path d="M1243.7 21.3004C1243.7 27.5004 1241.5 32.6004 1237.2 36.5004C1232.8 40.4004 1227.5 42.4004 1221.3 42.4004C1215.1 42.4004 1209.8 40.4004 1205.5 36.5004C1201.2 32.6004 1199.1 27.5004 1199.1 21.3004C1199.1 15.1004 1201.2 9.90039 1205.5 5.90039C1209.8 1.90039 1215 -0.0996094 1221.3 -0.0996094C1227.5 -0.0996094 1232.8 1.90039 1237.2 5.90039C1241.6 10.0004 1243.7 15.1004 1243.7 21.3004ZM1248.5 163.6C1247.3 164 1246 164.4 1244.4 164.7C1242.9 165 1241.2 165.2 1239.3 165.4C1237.3 165.5 1235.1 165.6 1232.4 165.6C1212.8 165.6 1203 155.1 1203 134V59.3004H1240V127C1240 129.8 1240.6 131.9 1241.7 133.3C1242.9 134.8 1245.1 135.5 1248.5 135.5V163.6Z" fill="white"/>
<path d="M1373.6 163.6C1372.4 164 1371.1 164.4 1369.5 164.7C1368 165 1366.3 165.2 1364.4 165.4C1362.4 165.5 1360.2 165.6 1357.5 165.6C1337.9 165.6 1328.1 155.1 1328.1 134V105C1328.1 100.6 1327 97.3004 1324.7 95.0004C1322.4 92.7004 1319.7 91.5004 1316.3 91.5004C1313.8 91.5004 1311.8 91.9004 1310.2 92.7004C1308.6 93.5004 1307.3 94.6004 1306.4 95.9004C1305.5 97.2004 1304.8 98.6004 1304.3 100C1303.9 101.5 1303.6 102.8 1303.4 104.1V164.2H1266.4V96.5004C1266.4 93.7004 1265.8 91.6004 1264.7 90.2004C1263.5 88.8004 1261.3 88.0004 1257.9 88.0004V59.9004C1259.1 59.6004 1260.4 59.3004 1262 59.0004C1263.3 58.7004 1265 58.5004 1267 58.2004C1269 58.0004 1271.4 57.9004 1274 57.9004C1279.4 57.9004 1283.7 58.6004 1286.9 60.1004C1290.1 61.6004 1292.6 63.1004 1294.3 64.9004C1296 66.6004 1297.2 68.3004 1297.7 69.8004C1298.2 71.3004 1298.5 72.2004 1298.5 72.3004V72.5004C1299.2 70.8004 1300.2 69.1004 1301.5 67.4004C1302.8 65.7004 1304.6 64.2004 1306.9 62.7004C1309.2 61.3004 1312.1 60.1004 1315.4 59.2004C1318.7 58.3004 1322.8 57.9004 1327.6 57.9004C1334.3 57.9004 1340 59.0004 1344.7 61.3004C1349.4 63.6004 1353.3 66.6004 1356.4 70.3004C1359.4 74.1004 1361.7 78.5004 1363 83.6004C1364.4 88.7004 1365.1 94.1004 1365.1 99.9004V126.9C1365.1 129.7 1365.7 131.8 1366.8 133.2C1368 134.7 1370.2 135.4 1373.6 135.4V163.6Z" fill="white"/>
<path d="M607 338V190.2H704.8V220.6H645.5V252H689.2V281.8H645.5V338H607Z" fill="white"/>
<path d="M752.9 199.501C752.9 205.601 750.8 210.501 746.6 214.301C742.4 218.101 737.2 220.001 731.2 220.001C725.1 220.001 720 218.101 715.9 214.301C711.7 210.501 709.7 205.601 709.7 199.501C709.7 193.401 711.8 188.501 715.9 184.601C720 180.701 725.2 178.801 731.2 178.801C737.2 178.801 742.4 180.701 746.6 184.601C750.8 188.501 752.9 193.401 752.9 199.501ZM757.5 337.301C756.4 337.701 755 338.101 753.5 338.401C752.1 338.701 750.4 338.901 748.5 339.001C746.6 339.101 744.4 339.201 741.8 339.201C722.8 339.201 713.3 329.001 713.3 308.601V236.201H749.2V301.901C749.2 304.601 749.8 306.601 750.9 308.001C752 309.401 754.2 310.101 757.4 310.101V337.301H757.5Z" fill="white"/>
<path d="M878.7 337.3C877.6 337.7 876.2 338.1 874.7 338.4C873.3 338.7 871.6 338.9 869.7 339C867.8 339.1 865.6 339.2 863 339.2C844 339.2 834.5 329 834.5 308.6V280.5C834.5 276.3 833.4 273 831.2 270.8C829 268.6 826.3 267.4 823.1 267.4C820.7 267.4 818.7 267.8 817.2 268.6C815.6 269.4 814.4 270.4 813.5 271.7C812.6 273 811.9 274.3 811.5 275.7C811.1 277.1 810.8 278.4 810.7 279.7V338H774.8V272.3C774.8 269.6 774.2 267.6 773.1 266.2C772 264.8 769.8 264.1 766.6 264.1V236.9C767.7 236.6 769.1 236.3 770.6 236.1C771.9 235.8 773.5 235.6 775.5 235.4C777.5 235.2 779.7 235.1 782.3 235.1C787.5 235.1 791.7 235.8 794.8 237.2C797.9 238.6 800.3 240.2 802 241.8C803.7 243.5 804.8 245.1 805.3 246.5C805.8 248 806 248.8 806 248.9V249.1C806.7 247.4 807.7 245.8 809 244.1C810.3 242.5 812 241 814.3 239.6C816.5 238.2 819.3 237.1 822.5 236.2C825.7 235.4 829.7 234.9 834.3 234.9C840.8 234.9 846.3 236 850.9 238.2C855.5 240.4 859.2 243.3 862.2 247C865.2 250.7 867.3 255 868.6 259.9C869.9 264.8 870.6 270.1 870.6 275.7V301.9C870.6 304.6 871.2 306.6 872.3 308C873.4 309.4 875.6 310.1 878.8 310.1V337.3H878.7Z" fill="white"/>
<path d="M995 337.301C993.9 337.701 992.5 338.101 991 338.401C989.6 338.701 987.9 338.901 986 339.001C984.1 339.101 981.9 339.201 979.3 339.201C973.8 339.201 969.5 338.401 966.3 336.801C963.1 335.201 960.7 333.401 959.1 331.501C957.5 329.601 956.2 327.001 955.2 323.801V323.601C954.5 325.001 953.5 326.601 952.2 328.401C950.9 330.201 949.1 331.901 946.8 333.501C944.5 335.101 941.6 336.501 938.1 337.601C934.6 338.701 930.5 339.301 925.7 339.301C920.9 339.301 916.1 338.301 911.2 336.201C906.3 334.201 901.9 331.001 898 326.701C894.1 322.401 890.9 317.001 888.4 310.401C885.9 303.901 884.7 296.101 884.7 287.301C884.7 277.901 885.9 269.801 888.4 263.101C890.9 256.401 894.1 251.001 898.1 246.801C902.1 242.701 906.7 239.601 911.9 237.701C917.1 235.801 922.5 234.801 927.9 234.801C934.7 234.801 940.3 235.901 944.8 238.201C949.3 240.501 952.7 242.601 954.9 244.501V236.101H986.4V301.801C986.4 304.501 987 306.501 988.1 307.901C989.2 309.301 991.4 310.001 994.6 310.001V337.301H995ZM950.9 281.201C950.9 279.901 950.6 278.501 950.1 276.901C949.5 275.301 948.7 273.701 947.5 272.301C946.3 270.801 944.8 269.601 943 268.501C941.2 267.401 938.9 266.901 936.2 266.901C931.7 266.901 928 268.601 925 271.901C922 275.201 920.6 280.201 920.6 287.001C920.6 290.801 921.1 294.001 922.1 296.601C923.1 299.201 924.3 301.301 925.9 302.901C927.4 304.501 929.2 305.701 931.1 306.401C933 307.101 934.8 307.501 936.5 307.501C939.7 307.501 942.3 306.801 944.2 305.401C946.1 304.001 947.5 302.501 948.5 300.901C949.5 299.301 950.2 297.801 950.5 296.601C950.8 295.301 951 294.801 951 295.101V281.201H950.9Z" fill="white"/>
<path d="M1116.2 337.3C1115.1 337.7 1113.7 338.1 1112.2 338.4C1110.8 338.7 1109.1 338.9 1107.2 339C1105.3 339.1 1103.1 339.2 1100.5 339.2C1081.5 339.2 1072 329 1072 308.6V280.5C1072 276.3 1070.9 273 1068.7 270.8C1066.5 268.6 1063.8 267.4 1060.6 267.4C1058.2 267.4 1056.2 267.8 1054.7 268.6C1053.1 269.4 1051.9 270.4 1051 271.7C1050.1 273 1049.4 274.3 1049 275.7C1048.6 277.1 1048.3 278.4 1048.2 279.7V338H1012.3V272.3C1012.3 269.6 1011.7 267.6 1010.6 266.2C1009.5 264.8 1007.3 264.1 1004.1 264.1V236.9C1005.2 236.6 1006.6 236.3 1008.1 236.1C1009.4 235.8 1011 235.6 1013 235.4C1015 235.2 1017.2 235.1 1019.8 235.1C1025 235.1 1029.2 235.8 1032.3 237.2C1035.4 238.6 1037.8 240.2 1039.5 241.8C1041.2 243.5 1042.3 245.1 1042.8 246.5C1043.3 248 1043.5 248.8 1043.5 248.9V249.1C1044.2 247.4 1045.2 245.8 1046.5 244.1C1047.8 242.5 1049.5 241 1051.8 239.6C1054 238.2 1056.8 237.1 1060 236.2C1063.2 235.4 1067.2 234.9 1071.8 234.9C1078.3 234.9 1083.8 236 1088.4 238.2C1093 240.4 1096.7 243.3 1099.7 247C1102.7 250.7 1104.8 255 1106.1 259.9C1107.4 264.8 1108.1 270.1 1108.1 275.7V301.9C1108.1 304.6 1108.7 306.6 1109.8 308C1110.9 309.4 1113.1 310.1 1116.3 310.1V337.3H1116.2Z" fill="white"/>
<path d="M1220.3 316.601C1217.8 320.801 1214.3 324.601 1210 328.001C1206.3 330.801 1201.6 333.401 1195.6 335.701C1189.7 338.001 1182.4 339.201 1173.9 339.201C1166 339.201 1158.9 337.901 1152.7 335.401C1146.4 332.901 1141.1 329.401 1136.5 324.801C1132 320.301 1128.5 314.801 1126.2 308.401C1123.8 302.001 1122.6 294.901 1122.6 287.201C1122.6 279.701 1123.6 272.801 1125.6 266.401C1127.6 260.001 1130.6 254.501 1134.8 249.801C1138.9 245.201 1144.3 241.501 1150.7 238.801C1157.2 236.101 1165 234.801 1174.1 234.801C1181.3 234.801 1187.6 235.701 1193 237.701C1198.4 239.601 1203 242.101 1206.7 245.301C1210.4 248.501 1213.2 252.201 1215 256.501C1216.8 260.801 1217.7 265.301 1217.7 269.901C1217.7 272.001 1217.6 273.901 1217.4 275.601C1217.2 277.301 1216.9 278.701 1216.7 279.801C1216.3 281.201 1215.9 282.301 1215.6 283.201L1185 283.401C1185.1 282.701 1185.3 282.101 1185.6 281.501C1186.2 280.101 1186.4 278.601 1186.4 277.101C1186.4 276.101 1186.3 275.001 1186 273.801C1185.7 272.601 1185.2 271.501 1184.3 270.401C1183.5 269.301 1182.2 268.501 1180.6 267.801C1179 267.101 1176.8 266.701 1173.9 266.701C1168.3 266.701 1164.2 268.401 1161.7 271.701C1159.2 275.001 1157.9 280.001 1157.9 286.801C1157.9 290.601 1158.5 293.801 1159.7 296.401C1160.9 299.001 1162.4 301.101 1164.3 302.701C1166.2 304.301 1168.4 305.501 1171 306.201C1173.5 306.901 1176.2 307.301 1179 307.301C1182.8 307.301 1186.1 306.801 1188.9 305.801C1191.7 304.801 1194.1 303.701 1196.1 302.401C1198.4 300.901 1200.3 299.201 1201.8 297.301L1220.3 316.601Z" fill="white"/>
<path d="M1281.9 295.3C1279.1 295.3 1276.5 295.2 1274.3 295C1272 294.8 1270.1 294.5 1268.4 294.3C1266.4 294 1264.6 293.7 1262.9 293.2V293.4C1262.9 295.2 1263.4 297.1 1264.4 299.1C1265.4 301.1 1266.8 302.9 1268.6 304.5C1270.4 306.1 1272.6 307.5 1275.1 308.5C1277.6 309.6 1280.4 310.1 1283.3 310.1C1287.1 310.1 1290.5 309.5 1293.4 308.3C1296.4 307.1 1298.8 305.7 1300.8 304.2C1303.2 302.5 1305.2 300.5 1306.7 298.1L1324.4 316.7C1321.9 320.9 1318.4 324.7 1314.1 328.1C1310.4 330.9 1305.7 333.5 1299.7 335.8C1293.7 338.1 1286.5 339.3 1278 339.3C1270.1 339.3 1263 338 1256.8 335.5C1250.5 333 1245.2 329.5 1240.6 324.9C1236.1 320.4 1232.6 314.9 1230.3 308.5C1227.9 302.1 1226.7 295 1226.7 287.3C1226.7 279.8 1227.7 272.9 1229.7 266.5C1231.7 260.1 1234.7 254.6 1238.9 249.9C1243 245.3 1248.4 241.6 1254.8 238.9C1261.3 236.2 1269.1 234.9 1278.2 234.9C1286.4 234.9 1293.2 236.1 1298.8 238.5C1304.4 240.9 1308.8 243.8 1312.2 247.4C1315.6 250.9 1318 254.7 1319.4 258.7C1320.8 262.7 1321.5 266.3 1321.5 269.6C1321.5 274.7 1320.6 278.9 1318.8 282.2C1317 285.5 1314.3 288.1 1310.9 290.1C1307.4 292.1 1303.3 293.4 1298.3 294.2C1293.5 294.9 1288 295.3 1281.9 295.3ZM1263.6 275.3C1264.3 275.7 1265.3 276.1 1266.6 276.4C1268.7 277.1 1271.9 277.5 1276.1 277.5C1279.9 277.5 1283 277.1 1285.3 276.2C1287.6 275.4 1288.8 273.7 1288.8 271.3C1288.8 268.9 1287.7 266.8 1285.5 265.1C1283.3 263.3 1280.3 262.5 1276.3 262.5C1272.5 262.5 1269.4 263.6 1267.1 265.7C1264.7 267.7 1263.6 270.9 1263.6 275.3Z" fill="white"/>
<path d="M1333.2 319.2C1333.2 313.6 1335.1 308.8 1339 304.8C1342.9 300.9 1347.6 298.9 1353.3 298.9C1358.9 298.9 1363.7 300.9 1367.7 304.8C1371.6 308.7 1373.6 313.5 1373.6 319.2C1373.6 324.8 1371.6 329.6 1367.7 333.5C1363.8 337.4 1359 339.3 1353.3 339.3C1347.7 339.3 1342.9 337.4 1339 333.5C1335.2 329.6 1333.2 324.8 1333.2 319.2Z" fill="#9A95C7"/>
<path d="M152.587 296.227C187.499 261.315 187.499 204.71 152.587 169.798C117.674 134.885 61.0698 134.885 26.1572 169.798C-8.75529 204.71 -8.7553 261.315 26.1572 296.227C61.0698 331.14 117.674 331.14 152.587 296.227Z" fill="white"/>
<path d="M238.4 46.0003C366.7 46.4003 470.4 150.7 470 279L469.9 302.8C469.8 322.4 485.7 338.3 505.2 338.4C524.8 338.5 540.7 322.6 540.8 303.1L541 254.8C541.3 124 437.1 17.8003 308.3 5.30028C287.9 2.40028 267.2 2.40028 246.8 5.10028C178.8 11.3003 125.1 44.0003 86.9 92.5003C86.2 93.4003 87.3 94.5003 88.2 93.9003C105.6 82.1003 164.8 45.8003 238.4 46.0003Z" fill="#4D3097"/>
<path d="M389.481 296.219C424.393 261.306 424.393 204.702 389.481 169.789C354.568 134.877 297.964 134.877 263.051 169.789C228.139 204.702 228.139 261.306 263.051 296.219C297.964 331.131 354.568 331.131 389.481 296.219Z" fill="white"/>
<path d="M82.6588 199.876C85.2395 184.517 74.8802 169.974 59.5207 167.393C44.1612 164.812 29.6178 175.171 27.0371 190.531C24.4564 205.89 34.8157 220.434 50.1752 223.015C65.5347 225.595 80.0781 215.236 82.6588 199.876Z" fill="#130F21"/>
<path d="M320.971 199.877C323.552 184.518 313.193 169.975 297.833 167.394C282.474 164.813 267.93 175.172 265.35 190.532C262.769 205.891 273.128 220.435 288.488 223.016C303.847 225.596 318.391 215.237 320.971 199.877Z" fill="#130F21"/>
<path d="M76.1001 241.2C75.4001 240.3 76.0001 239 77.1001 239H204.7C205.8 239 206.7 239.8 206.9 240.9C208.8 252.4 222.8 314.6 159.1 335.4C158.3 335.6 157.5 335.3 157 334.7L76.1001 241.2Z" fill="#4D3097"/>
</g>
<defs>
<clipPath id="clip0_7788_12317">
<rect width="1373.6" height="339.2" fill="white"/>
</clipPath>
</defs>
</svg>
