<svg width="342" height="111" viewBox="0 0 342 111" fill="none" xmlns="http://www.w3.org/2000/svg">
<path fill-rule="evenodd" clip-rule="evenodd" d="M99.2308 35.954C96.9744 45.5058 96.7284 46.9471 97.3153 47.1829C97.6857 47.3323 98.1126 47.3323 98.2641 47.1829C98.4156 47.0339 99.6794 42.1235 101.073 36.2707C103.543 25.8922 103.635 25.0123 102.245 25C102.011 24.9979 100.655 29.927 99.2308 35.954ZM76.5226 31.127C76.1178 31.6148 77.2922 33.3378 82.6862 40.1723C90.7597 50.4 89.982 49.5674 90.7461 48.8034C91.2973 48.2526 90.5444 47.122 84.4646 39.3729C80.6656 34.5301 77.437 30.5583 77.2897 30.5459C77.1428 30.534 76.7976 30.7954 76.5226 31.127ZM89.5389 30.8473C89.4129 31.0512 90.1297 34.8447 91.1317 39.2779C92.7633 46.4938 93.0391 47.3225 93.7687 47.191C94.2169 47.1101 94.6128 47.0143 94.6486 46.9782C94.6843 46.942 93.9028 43.2728 92.9119 38.8246C91.5617 32.7645 90.9419 30.7043 90.4388 30.6072C90.0697 30.5357 89.6645 30.6438 89.5389 30.8473ZM106.96 39.5819C100.223 47.7712 99.8991 48.2266 100.432 48.76C100.704 49.0315 101.055 49.2533 101.212 49.2533C101.611 49.2533 111.581 36.9802 111.737 36.2966C111.807 35.9901 111.566 35.6249 111.202 35.4853C110.732 35.3048 109.499 36.4958 106.96 39.5819ZM112.674 45.8944C107.172 48.4922 102.619 50.6665 102.554 50.7261C102.317 50.9466 102.988 52.2329 103.341 52.2329C103.693 52.2329 123.297 43.0289 123.608 42.7173C123.834 42.4921 123.27 41.1653 122.951 41.1683C122.8 41.1696 118.176 43.2966 112.674 45.8944ZM73.3715 43.578C72.4661 44.4829 73.6801 45.3432 80.5877 48.6931C86.5057 51.5634 88.1657 52.2083 88.456 51.7498C88.6582 51.4301 88.8268 51.0705 88.8306 50.9504C88.8362 50.7619 74.17 43.2941 73.7937 43.2941C73.7175 43.2941 73.5273 43.4218 73.3715 43.578ZM144.917 44.3212C140.754 45.4411 138.974 48.7263 140.521 52.4313C141.278 54.2421 142.7 54.9861 147.523 56.0967C151.797 57.0808 152.521 57.4877 152.916 59.1286C153.361 60.9722 151.591 62.4488 148.938 62.4488C145.205 62.4488 143.322 61.3161 143.322 59.0716C143.322 58.3293 143.056 58.1922 141.619 58.1922C140.043 58.1922 139.916 58.2799 139.916 59.3696C139.916 61.2897 141.334 63.4065 143.327 64.4601C144.768 65.222 145.848 65.4284 148.397 65.4284C153.64 65.4284 156.255 63.4627 156.255 59.5211C156.255 55.7727 154.278 54.1693 148.318 53.0843C145.041 52.4879 143.322 51.3782 143.322 49.8607C143.322 48.0415 144.716 47.1242 147.472 47.1314C150.706 47.1395 151.947 47.8048 152.442 49.796C152.797 51.222 152.976 51.3816 154.226 51.3816C155.988 51.3816 156.238 50.9517 155.679 48.8762C155.071 46.6189 152.899 44.7783 150.145 44.1879C147.537 43.6286 147.487 43.6299 144.917 44.3212ZM264.609 44.2846C261.755 45.078 260.151 46.4227 258.825 49.1324C257.878 51.0679 257.644 52.1384 257.638 54.549C257.629 58.1509 258.308 60.2984 260.1 62.3394C261.896 64.3847 264.291 65.4076 267.309 65.4191C271.584 65.4352 274.216 63.8203 275.967 60.1077C277.1 57.7065 277.34 53.3218 276.493 50.4971C275.065 45.7297 269.63 42.8888 264.609 44.2846ZM159.071 54.8124V65.4799L160.667 65.3476L162.264 65.2156L162.382 59.5969C162.498 54.1131 162.527 53.9573 163.61 53.1055C165.199 51.8558 167.752 51.9358 169.093 53.2779C170.096 54.2804 170.138 54.5473 170.138 59.8757V65.4284H171.88H173.621L173.476 59.1499C173.343 53.4073 173.247 52.7544 172.352 51.4987C170.529 48.9426 166.374 48.6038 163.766 50.798L162.476 51.883V48.0142V44.1454H160.774H159.071V54.8124ZM176.523 45.848V47.5507H178.226H179.928V45.848V44.1454H178.226H176.523V45.848ZM217.812 54.7878V65.531L223.027 65.339C228.694 65.13 230.713 64.5546 232.872 62.5327C236.927 58.7362 236.881 50.618 232.785 46.8215C230.744 44.9303 229.005 44.4612 223.239 44.2467L217.812 44.0449V54.7878ZM244.083 44.6775C241.748 50.558 236.116 65.1126 236.116 65.2675C236.116 65.3829 236.903 65.4186 237.866 65.3463C239.584 65.2182 239.635 65.1671 240.683 62.542L241.75 59.8689L246.681 59.9881L251.612 60.1077L252.627 62.768C253.633 65.405 253.657 65.4284 255.307 65.4284C256.327 65.4284 256.973 65.2284 256.973 64.9134C256.973 64.6303 255.202 59.8416 253.037 54.2719L249.1 44.1454H246.698C245.172 44.1454 244.217 44.3395 244.083 44.6775ZM229.717 48.3117C231.426 49.5632 232.283 51.694 232.284 54.6941C232.286 60.2107 230.421 62.0189 224.729 62.0214L221.218 62.0231V54.5106V46.9986L224.928 47.2604C227.552 47.4455 228.954 47.7533 229.717 48.3117ZM270.367 47.7299C272.577 48.6531 273.353 50.4852 273.357 54.7869C273.363 60.4205 271.714 62.3007 266.873 62.1806C262.757 62.0789 261.229 60.0515 261.231 54.6941C261.231 52.596 261.471 51.113 261.975 50.1046C263.301 47.4519 267.117 46.372 270.367 47.7299ZM248.527 52.3032C249.427 54.6873 250.163 56.7003 250.163 56.7769C250.163 57.0131 243.507 56.9284 243.268 56.6892C243.143 56.5645 243.818 54.4625 244.768 52.0171C245.717 49.5721 246.584 47.6609 246.693 47.7699C246.802 47.8793 247.627 49.919 248.527 52.3032ZM189.426 49.7007C188.68 49.9288 187.675 50.6176 187.192 51.2314L186.313 52.3479V51.0134C186.313 49.739 186.236 49.679 184.601 49.679H182.889L183.005 57.4473L183.121 65.2156H184.824H186.526L186.645 59.5969C186.761 54.1131 186.79 53.9573 187.873 53.1055C189.296 51.9865 191.839 51.958 193.183 53.0464C194.135 53.8168 194.196 54.1659 194.337 59.6671L194.486 65.4748L196.039 65.345L197.593 65.2156V59.4692C197.593 53.2315 197.178 51.4787 195.425 50.3307C194.123 49.4776 191.172 49.1678 189.426 49.7007ZM205.379 49.6505C202.051 50.7223 200.36 53.429 200.36 57.6848C200.36 62.6936 202.956 65.4284 207.71 65.4284C210.857 65.4284 212.884 64.575 213.97 62.7936C215.328 60.5674 215.133 59.8948 213.13 59.8948C211.988 59.8948 211.427 60.083 211.427 60.4674C211.427 61.6328 209.912 62.4492 207.776 62.4352C205.553 62.4207 204.637 61.9606 203.835 60.455C202.678 58.2833 202.889 58.1922 209.086 58.1922H214.833V56.2346C214.833 53.6951 213.819 51.614 212.05 50.5205C210.449 49.5313 207.104 49.095 205.379 49.6505ZM176.62 57.4473L176.736 65.2156L178.332 65.3476L179.928 65.4799V57.5792V49.679H178.216H176.504L176.62 57.4473ZM210.134 52.6497C210.948 53.0851 211.965 55.3841 211.535 55.8149C211.398 55.9519 209.485 56.0639 207.284 56.0639C203.336 56.0639 203.286 56.0511 203.558 55.1061C204.036 53.4473 205.765 52.2329 207.648 52.2329C208.587 52.2329 209.706 52.4207 210.134 52.6497ZM65 54.7869C65 55.6101 65.2839 55.6382 73.6635 55.6382C78.4288 55.6382 83.5048 55.7612 84.9435 55.9115C87.5575 56.1848 87.56 56.1839 87.56 55.0602V53.9356H76.28C65.2839 53.9356 65 53.9569 65 54.7869ZM103.735 55.2126C103.735 56.0354 104.019 56.0639 112.248 56.0639C120.478 56.0639 120.762 56.0354 120.762 55.2126C120.762 54.3898 120.478 54.3612 112.248 54.3612C104.019 54.3612 103.735 54.3898 103.735 55.2126ZM79.9871 61.4174C73.2467 64.6929 72.6645 65.0636 73.0714 65.8234C73.4907 66.6075 73.9338 66.4526 81.0619 63.0337C85.2129 61.0424 88.6646 59.3577 88.7327 59.2895C89.023 58.9997 88.2785 57.7695 87.8337 57.8036C87.566 57.824 84.0351 59.4504 79.9871 61.4174ZM102.706 58.4659C102.559 58.8507 102.491 59.2168 102.554 59.2793C102.986 59.7007 122.281 68.8337 122.74 68.8337C123.056 68.8337 123.316 68.4881 123.316 68.0658C123.316 67.4844 120.912 66.1414 113.411 62.5322C107.963 59.911 103.387 57.7665 103.241 57.7665C103.095 57.7665 102.854 58.0811 102.706 58.4659ZM83.1587 69.0359C79.4823 73.5947 76.3741 77.5866 76.2515 77.9063C76.1289 78.2259 76.2911 78.7056 76.612 78.9717C77.4416 79.6604 91.6021 62.1517 90.8998 61.3059C90.6444 60.9981 90.3021 60.7462 90.1395 60.7462C89.9765 60.7462 86.8355 64.4767 83.1587 69.0359ZM100.413 61.2846C100.048 61.7243 101.044 63.232 104.851 68.0028C107.55 71.3864 109.904 74.3043 110.081 74.4878C110.427 74.8453 111.823 74.4563 111.822 74.0025C111.822 73.6488 101.611 60.9977 101.197 60.8385C101.025 60.7721 100.672 60.973 100.413 61.2846ZM92.8587 63.0141C92.2134 64.7721 89.2801 78.7337 89.4857 79.0662C89.7194 79.4446 90.9653 79.663 90.9653 79.3263C90.9653 79.0887 94.3753 64.4392 94.609 63.6721C94.8559 62.8625 93.1494 62.2211 92.8587 63.0141ZM97.2259 62.7808C96.7505 62.8825 96.5389 63.2107 96.6637 63.6538C96.7739 64.0446 97.8448 68.6741 99.0431 73.9417C100.242 79.2092 101.322 83.854 101.443 84.2639C101.675 85.0467 102.67 85.2732 103.066 84.6334C103.299 84.2563 98.8984 64.5154 98.3054 63.278C98.1313 62.9149 97.6456 62.691 97.2259 62.7808Z" fill="white"/>
</svg>
