<svg width="176" height="141" viewBox="0 0 176 141" fill="none" xmlns="http://www.w3.org/2000/svg">
<circle cx="105.5" cy="70.5" r="70.5" fill="#FADA5E"/>
<path d="M67 78.5L9 108" stroke="black" stroke-width="4" stroke-linecap="round"/>
<path d="M73 86L2.5 122" stroke="black" stroke-width="4" stroke-linecap="round"/>
<path d="M69.5 98.5L23 122.5" stroke="black" stroke-width="4" stroke-linecap="round"/>
<path fill-rule="evenodd" clip-rule="evenodd" d="M113.982 48.7235L103.999 18L91.4266 56.695H50.7402L78.3465 76.7522C78.6981 75.8958 79.2391 75.1284 79.9984 74.5C92.577 64.0893 109.674 51.797 113.982 48.7235ZM117.736 56.695C115.643 58.2422 101.47 68.6874 89.0012 77C87.5033 77.9986 88.3275 80.337 90.0012 81C91.9538 81.7735 93.9748 80.7432 96.2077 79.6049C96.9473 79.2279 97.71 78.8391 98.5012 78.5C102.001 77 107.048 74.9471 112.001 77C118.302 79.6114 120.972 85.4708 119.001 92C117.878 95.7199 113.011 99.1239 110.94 100.433L136.915 119.305L124.343 80.6099L157.259 56.695H117.736ZM103.081 96.0572L103.001 96C103.001 96 106.499 93.5 109.001 90.5C110.331 88.9061 107.358 85.5721 105.501 86.5C100.499 89 94.9979 91 86.9985 91C84.918 91 82.8862 89.7775 81.2663 87.9653L71.0834 119.305L103.081 96.0572Z" fill="black"/>
</svg>
