<svg width="342" height="109" viewBox="0 0 342 109" fill="none" xmlns="http://www.w3.org/2000/svg">
<path d="M138.702 64.4019H143.093V49.0072H149.164V45.4295H132.631V49.0072H138.702V64.4019ZM153.865 51.7446V49.8203H149.827V64.4019H154.055V57.5176C154.055 54.726 155.6 53.4521 157.931 53.4521C158.256 53.4521 158.527 53.4792 158.879 53.5063V49.6034C156.63 49.6034 154.895 50.3352 153.865 51.7446ZM166.296 49.6034C163.966 49.6034 161.608 50.2268 160.008 51.3652L161.526 54.3194C162.583 53.4792 164.182 52.9642 165.727 52.9642C168.004 52.9642 169.088 54.0213 169.088 55.8372H165.727C161.282 55.8372 159.466 57.626 159.466 60.2008C159.466 62.7214 161.499 64.6187 164.914 64.6187C167.055 64.6187 168.573 63.914 169.359 62.5859V64.4019H173.316V56.0811C173.316 51.6633 170.741 49.6034 166.296 49.6034ZM165.971 61.7728C164.481 61.7728 163.586 61.0681 163.586 60.0111C163.586 59.0354 164.209 58.3036 166.188 58.3036H169.088V59.7943C168.6 61.1224 167.381 61.7728 165.971 61.7728ZM185.193 49.6034C183.214 49.6034 181.506 50.281 180.368 51.5278V49.8203H176.33V64.4019H180.558V57.1924C180.558 54.5091 182.021 53.2624 184.054 53.2624C185.924 53.2624 187.008 54.3465 187.008 56.7045V64.4019H191.237V56.054C191.237 51.6091 188.635 49.6034 185.193 49.6034ZM199.162 64.6187C203.525 64.6187 206.046 62.6943 206.046 59.984C206.046 54.2381 197.237 56.6503 197.237 54.1568C197.237 53.3979 198.051 52.8016 199.948 52.8016C201.276 52.8016 202.712 53.0727 204.149 53.8858L205.558 50.8773C204.176 50.0642 201.953 49.6034 199.948 49.6034C195.693 49.6034 193.199 51.5549 193.199 54.3194C193.199 60.1466 202.008 57.7073 202.008 60.0924C202.008 60.9055 201.276 61.4205 199.324 61.4205C197.536 61.4205 195.557 60.8513 194.256 60.0111L192.847 63.0467C194.202 63.9411 196.695 64.6187 199.162 64.6187ZM212.476 49.5221C212.476 48.0856 213.154 47.4081 214.401 47.4081C215.051 47.4081 215.647 47.5978 216.108 47.923L217.219 44.8604C216.433 44.3183 215.187 44.0744 213.994 44.0744C210.362 44.0744 208.357 46.2155 208.357 49.495V50.1455H206.107V53.3979H208.357V64.4019H212.585V53.3979H216.217V50.1455H212.476V49.5221ZM231.608 57.1653C231.608 52.4764 228.301 49.6034 224.019 49.6034C219.574 49.6034 216.24 52.7474 216.24 57.1111C216.24 61.4476 219.52 64.6187 224.561 64.6187C227.19 64.6187 229.223 63.8056 230.578 62.2607L228.329 59.8214C227.326 60.77 226.214 61.2308 224.67 61.2308C222.447 61.2308 220.902 60.1195 220.496 58.3036H231.527C231.554 57.9513 231.608 57.4905 231.608 57.1653ZM224.046 52.8016C225.943 52.8016 227.326 53.9942 227.624 55.8372H220.441C220.74 53.9671 222.122 52.8016 224.046 52.8016ZM237.648 51.7446V49.8203H233.61V64.4019H237.838V57.5176C237.838 54.726 239.383 53.4521 241.714 53.4521C242.039 53.4521 242.31 53.4792 242.662 53.5063V49.6034C240.413 49.6034 238.678 50.3352 237.648 51.7446ZM251.169 64.6187C255.804 64.6187 259.165 61.5018 259.165 57.1111C259.165 52.7203 255.804 49.6034 251.169 49.6034C246.535 49.6034 243.147 52.7203 243.147 57.1111C243.147 61.5018 246.535 64.6187 251.169 64.6187ZM251.169 61.1495C249.055 61.1495 247.429 59.6317 247.429 57.1111C247.429 54.5904 249.055 53.0727 251.169 53.0727C253.284 53.0727 254.883 54.5904 254.883 57.1111C254.883 59.6317 253.284 61.1495 251.169 61.1495Z" fill="white"/>
<g clip-path="url(#clip0_3880_40424)">
<path d="M110.456 62.0516L102.851 54.519L95.2455 62.0516L102.851 69.5841L110.456 62.0516Z" fill="white"/>
<path d="M125.558 47.0203L117.952 39.4878L110.347 47.0203L117.952 54.5529L125.558 47.0203Z" fill="white"/>
<path d="M95.5304 47.0907L87.925 39.5581L80.3197 47.0907L87.925 54.6232L95.5304 47.0907Z" fill="white"/>
<path d="M102.888 54.527L87.9407 39.5661L102.888 39.4878L117.835 54.527H102.888Z" fill="url(#paint0_linear_3880_40424)"/>
</g>
<defs>
<linearGradient id="paint0_linear_3880_40424" x1="91.6671" y1="35.9056" x2="113.718" y2="58.1697" gradientUnits="userSpaceOnUse">
<stop stop-color="#81FEEF"/>
<stop offset="0.5382" stop-color="#3D3DFF"/>
<stop offset="1" stop-color="#170636"/>
</linearGradient>
<clipPath id="clip0_3880_40424">
<rect width="45" height="30" fill="white" transform="translate(80.3469 39.4878)"/>
</clipPath>
</defs>
</svg>
