<svg width="342" height="111" viewBox="0 0 342 111" fill="none" xmlns="http://www.w3.org/2000/svg">
<path fill-rule="evenodd" clip-rule="evenodd" d="M115.805 30.8395C115.966 31.2846 116.099 32.7826 116.099 34.168C116.099 36.4338 115.979 36.8591 114.907 38.4032C114.251 39.3474 113.207 41.2073 112.584 42.5362C111.624 44.5879 111.462 45.3335 111.507 47.4767C111.566 50.3186 112.318 52.8043 113.502 54.0727C115.038 55.7171 115.94 55.9377 121.13 55.9377C128.117 55.9377 127.71 55.6635 131.497 62.9253L134.63 68.9323V73.9109C134.63 78.1191 134.718 78.9237 135.199 79.1083C135.512 79.2285 137.936 79.3267 140.584 79.3267C144.977 79.3267 145.433 79.2655 145.772 78.6308C145.977 78.2479 146.145 75.8989 146.145 73.4107V68.8869L151.385 58.4119C154.266 52.6507 156.537 47.7087 156.43 47.4299C156.272 47.0186 155.228 46.9416 150.92 47.0222L145.605 47.1219L142.947 52.3268L140.29 57.5314L137.853 52.6683C136.513 49.9937 135.187 47.6145 134.906 47.3809C134.558 47.0927 131.986 46.9258 126.866 46.8595L119.337 46.762L119.221 45.9387C119.156 45.4861 119.44 43.6848 119.85 41.9363C120.261 40.1876 120.597 38.0588 120.597 37.2057C120.597 35.196 119.477 32.9215 117.696 31.3124C116.046 29.8219 115.374 29.6539 115.805 30.8395ZM223.982 31.5592C221.109 34.5375 220.767 36.5364 222.121 42.4308C222.546 44.2788 222.794 46.0499 222.672 46.3666C222.479 46.8696 221.46 46.9419 214.548 46.9419H206.645L205.955 47.9315C205.575 48.4759 204.228 50.7831 202.962 53.0591L200.659 57.1971L200.479 52.1595L200.299 47.1219H194.902H189.504V63.1343V79.1468L194.58 79.2464C198.488 79.3231 199.748 79.2346 200.057 78.8621C200.3 78.5692 200.498 76.3369 200.559 73.2106L200.659 68.0431L203.511 73.1829C205.08 76.0098 206.589 78.5484 206.865 78.8247C207.255 79.2144 208.722 79.3267 213.42 79.3267C218.569 79.3267 219.505 79.2428 219.688 78.7661C219.821 78.4203 218.101 75.1721 215.2 70.2899L210.496 62.3747L211.927 59.9649C214.125 56.2659 213.854 56.3868 220.27 56.2421C227.059 56.0888 227.806 55.7887 229.42 52.5665C230.314 50.7785 230.477 50.021 230.499 47.5324C230.528 44.2364 229.923 42.5801 227.129 38.306C225.646 36.0373 225.605 35.897 225.774 33.6282C225.869 32.3418 226.063 31.0058 226.206 30.6596C226.68 29.502 225.509 29.9759 223.982 31.5592ZM162.356 47.459C161.699 48.2503 151.243 78.3465 151.443 78.8686C151.655 79.4213 161.114 79.5203 161.97 78.9787C162.264 78.7934 162.763 77.8647 163.081 76.9151L163.659 75.1886H168.834H174.009L174.675 76.982C175.041 77.9683 175.532 78.8967 175.766 79.0453C175.999 79.1939 178.422 79.318 181.149 79.3213C184.946 79.3252 186.151 79.2148 186.292 78.8485C186.448 78.4426 177.453 52.0278 175.864 48.2258L175.328 46.9419H169.056C164.043 46.9419 162.699 47.0456 162.356 47.459ZM170.719 63.0444L171.634 66.013H168.965C167.497 66.013 166.295 65.8708 166.295 65.6974C166.295 65.3577 168.318 58.6296 168.689 57.7369C168.838 57.3781 169.062 57.6796 169.358 58.6364C169.603 59.4281 170.215 61.4118 170.719 63.0444Z" fill="url(#paint0_linear_3880_40433)"/>
<defs>
<linearGradient id="paint0_linear_3880_40433" x1="111.5" y1="69.7793" x2="230.604" y2="69.7793" gradientUnits="userSpaceOnUse">
<stop stop-color="#22BB60"/>
<stop offset="1" stop-color="#45D680"/>
</linearGradient>
</defs>
</svg>
