<svg width="24" height="24" viewBox="0 0 24 24" fill="none" xmlns="http://www.w3.org/2000/svg">
<path fill-rule="evenodd" clip-rule="evenodd" d="M1.84615 12C1.84615 6.39219 6.39219 1.84615 12 1.84615C17.6078 1.84615 22.1538 6.39219 22.1538 12C22.1538 17.6078 17.6078 22.1538 12 22.1538C6.39219 22.1538 1.84615 17.6078 1.84615 12ZM12 0C5.37258 0 0 5.37258 0 12C0 18.6274 5.37258 24 12 24C18.6274 24 24 18.6274 24 12C24 5.37258 18.6274 0 12 0ZM8.39363 7.64551C8.19786 7.45077 7.88128 7.4516 7.68653 7.64738C7.49178 7.84316 7.49262 8.15974 7.6884 8.35449L11.3532 12L7.6884 15.6455C7.49262 15.8403 7.49178 16.1568 7.68653 16.3526C7.88128 16.5484 8.19786 16.5492 8.39363 16.3545L12.0622 12.7052L15.7308 16.3545C15.9265 16.5492 16.2431 16.5484 16.4379 16.3526C16.6326 16.1568 16.6318 15.8403 16.436 15.6455L12.7712 12L16.436 8.35449C16.6318 8.15974 16.6326 7.84316 16.4379 7.64738C16.2431 7.4516 15.9265 7.45077 15.7308 7.64551L12.0622 11.2948L8.39363 7.64551Z" fill="#E3362B"/>
</svg>
