<svg width="28" height="28" viewBox="0 0 28 28" fill="none" xmlns="http://www.w3.org/2000/svg">
<g filter="url(#filter0_f_21_20579)">
<path fill-rule="evenodd" clip-rule="evenodd" d="M3.84615 14C3.84615 8.39219 8.39219 3.84615 14 3.84615C19.6078 3.84615 24.1538 8.39219 24.1538 14C24.1538 19.6078 19.6078 24.1538 14 24.1538C8.39219 24.1538 3.84615 19.6078 3.84615 14ZM14 2C7.37258 2 2 7.37258 2 14C2 20.6274 7.37258 26 14 26C20.6274 26 26 20.6274 26 14C26 7.37258 20.6274 2 14 2ZM17.1868 19.2526C17.5207 19.5865 18.0621 19.5865 18.396 19.2526C18.7297 18.9189 18.73 18.378 18.3966 18.044L14.7143 14.3543V7.85714C14.7143 7.38376 14.3305 7 13.8571 7C13.3838 7 13 7.38376 13 7.85714V14.4444C13 14.8422 13.158 15.2237 13.4393 15.5051L17.1868 19.2526Z" fill="#E843C4"/>
</g>
<path fill-rule="evenodd" clip-rule="evenodd" d="M3.84615 14C3.84615 8.39219 8.39219 3.84615 14 3.84615C19.6078 3.84615 24.1538 8.39219 24.1538 14C24.1538 19.6078 19.6078 24.1538 14 24.1538C8.39219 24.1538 3.84615 19.6078 3.84615 14ZM14 2C7.37258 2 2 7.37258 2 14C2 20.6274 7.37258 26 14 26C20.6274 26 26 20.6274 26 14C26 7.37258 20.6274 2 14 2ZM17.1868 19.2526C17.5207 19.5865 18.0621 19.5865 18.396 19.2526C18.7297 18.9189 18.73 18.378 18.3966 18.044L14.7143 14.3543V7.85714C14.7143 7.38376 14.3305 7 13.8571 7C13.3838 7 13 7.38376 13 7.85714V14.4444C13 14.8422 13.158 15.2237 13.4393 15.5051L17.1868 19.2526Z" fill="#E843C4"/>
<defs>
<filter id="filter0_f_21_20579" x="0" y="0" width="28" height="28" filterUnits="userSpaceOnUse" color-interpolation-filters="sRGB">
<feFlood flood-opacity="0" result="BackgroundImageFix"/>
<feBlend mode="normal" in="SourceGraphic" in2="BackgroundImageFix" result="shape"/>
<feGaussianBlur stdDeviation="1" result="effect1_foregroundBlur_21_20579"/>
</filter>
</defs>
</svg>
