<svg width="122" height="150" viewBox="0 0 122 150" fill="none" xmlns="http://www.w3.org/2000/svg">
<path d="M54.4602 119.979L54.4511 119.954L54.441 119.928C54.2548 119.467 54.5308 118.722 55.1688 118.454L61.4135 116.31L62.2576 116.02V115.128V113.93V113.141L61.5449 112.802L55.5091 109.928L55.4715 109.91L55.4327 109.895C54.9831 109.717 54.6666 109.098 54.9108 108.445L61.1664 95.5587L61.1851 95.5201L61.2012 95.4803C61.3774 95.0433 62.0085 94.7141 62.6865 94.9647L68.679 97.8176L69.4726 98.1954L70.0966 97.5765L70.8209 96.8581L71.3806 96.303L71.1208 95.5587L68.9479 89.3327L68.9381 89.3046L68.927 89.2771C68.7406 88.8148 69.0173 88.0688 69.6568 87.8018L83.3889 83.0228L83.4142 83.014L83.439 83.0042C83.9275 82.8104 84.6828 83.1037 84.948 83.724L87.1094 89.917L87.4019 90.7551H88.2896H89.4967H90.2805L90.6219 90.0496L93.5191 84.063L93.5375 84.0251L93.5532 83.986C93.7294 83.5492 94.3602 83.22 95.038 83.4702L108.031 89.6752L108.07 89.6935L108.109 89.7092C108.559 89.8876 108.875 90.5067 108.631 91.1596L105.755 97.1024L105.366 97.9058L106 98.5344L106.724 99.2528L107.275 99.7998L108.01 99.5475L114.287 97.3923L114.315 97.3828L114.342 97.372C114.831 97.178 115.588 97.4722 115.852 98.0938L120.67 111.713L120.679 111.739L120.69 111.764C120.876 112.226 120.6 112.971 119.962 113.238L113.717 115.382L112.873 115.672V116.564V117.762V118.551L113.586 118.89L119.621 121.764L119.659 121.782L119.698 121.797C120.147 121.976 120.464 122.594 120.22 123.247L113.964 136.134L113.945 136.172L113.929 136.212C113.753 136.649 113.122 136.978 112.444 136.728L106.452 133.875L105.658 133.497L105.034 134.116L104.31 134.834L103.75 135.389L104.01 136.133L106.183 142.36L106.192 142.388L106.204 142.415C106.39 142.877 106.113 143.623 105.474 143.89L91.7417 148.669L91.7164 148.678L91.6915 148.688C91.2031 148.882 90.4478 148.589 90.1825 147.968L88.0212 141.775L87.7287 140.937H86.841H85.6338H84.8501L84.5086 141.643L81.6114 147.629L81.5931 147.667L81.5773 147.706C81.4012 148.143 80.7703 148.472 80.0926 148.222L67.0992 142.017L67.061 141.999L67.0215 141.983C66.5717 141.805 66.2552 141.186 66.4998 140.533L69.3758 134.59L69.7646 133.786L69.1309 133.158L68.4066 132.439L67.8551 131.892L67.1204 132.145L60.8431 134.3L60.8154 134.309L60.7881 134.32C60.2991 134.514 59.5427 134.22 59.2782 133.598L54.4602 119.979Z" stroke="#FCFCFC" stroke-width="2.5"/>
<path d="M87.5653 125.981C82.4025 125.981 78.3805 121.977 78.3805 116.881C78.3805 111.785 82.4025 107.781 87.5653 107.781C92.7205 107.781 96.7382 111.774 96.75 116.859C96.5534 122.004 92.4881 125.981 87.5653 125.981Z" stroke="#FCFCFC" stroke-width="2.5"/>
<path d="M97.7836 77.4416V15.1891C97.7836 7.8032 91.9302 2 84.4803 2H25.9459C25.1477 2 24.6156 2.26378 24.0834 2.79135L2.7982 23.8939C2.26607 24.4214 2 24.949 2 25.7404V115.426C2 122.812 7.85344 128.615 15.3033 128.615H48.0293" stroke="#FCFCFC" stroke-width="2.5"/>
<path d="M8.26099 26.8392H14.9392C20.6158 26.8392 24.9566 23.2513 24.9566 18.5594V2" stroke="#FCFCFC" stroke-width="2.5"/>
<path d="M68.7826 44.4336H31.2174V46.5035H68.7826V44.4336Z" fill="white"/>
<path d="M62.5215 62.028H24.9563V64.0979H62.5215V62.028Z" fill="white"/>
<path d="M68.7826 79.6223H31.2174V81.6922H68.7826V79.6223Z" fill="white"/>
</svg>
