<svg width="148" height="148" viewBox="0 0 148 148" fill="none" xmlns="http://www.w3.org/2000/svg">
<path d="M140.73 14.0601L140.74 14.0709L140.751 14.0814C148.696 21.6803 148.746 34.8703 140.921 43.1232L122.763 61.3591C118.779 65.36 113.455 67.276 108.306 67.276C103.733 67.276 99.1639 65.7434 95.5568 62.8835L94.6821 62.19L93.8945 62.981L80.8895 76.0416V59.3251L85.7566 54.6252L86.5905 53.8199L85.8503 52.9278C79.3758 45.1252 79.739 33.6924 86.6152 26.214L98.427 31.0592L95.3076 34.192C93.6763 35.8302 92.7227 37.9664 92.7227 40.3452C92.7227 41.6806 92.9411 43.1506 93.7072 44.4329L94.4372 45.6548L95.5545 44.7731C97.9355 42.8943 101.252 42.9397 103.383 45.0792L103.4 45.097L103.419 45.1139C105.535 47.0755 105.737 50.3916 103.89 52.753L102.949 53.9553L104.313 54.6404C107.6 56.291 111.62 55.8182 114.44 52.9861L132.609 34.7395L132.624 34.7243L132.639 34.7085C135.87 31.2318 135.973 25.7704 132.377 22.6055L125.746 15.9454C124.101 14.2939 121.765 13.3473 119.611 13.3473C117.457 13.3473 115.121 14.2939 113.476 15.9454L114.362 16.8274L113.476 15.9454L111.168 18.2634L103.172 9.56334L105.356 7.36967L105.377 7.34859L105.397 7.32654C109.163 3.16581 114.459 1.25 119.611 1.25C124.756 1.25 130.069 3.16263 134.048 7.34884L134.058 7.35937L134.068 7.36966L140.73 14.0601Z" stroke="#FCFCFC" stroke-width="2.5"/>
<path d="M62.6042 94.0003L61.8022 94.8057L62.528 95.6805C69.1634 103.677 68.632 115.119 60.9838 122.998L58.2058 125.787L49.7461 117.958L52.8688 114.822L52.8865 114.804L52.9034 114.786C55.6756 111.77 56.1774 107.532 54.2808 104.198L53.8111 103.373L52.8899 103.604C52.053 103.814 51.3978 103.972 50.7718 103.972C49.2368 103.972 47.7558 103.463 46.6107 102.313C44.9354 100.63 44.4459 98.3109 45.2772 96.1403L45.6338 95.2092L44.8053 94.6545C43.38 93.7003 41.723 93.2268 40.0724 93.2268C37.9185 93.2268 35.5823 94.1734 33.9378 95.8249L15.769 114.071C14.1377 115.71 13.1841 117.846 13.1841 120.225C13.1841 122.604 14.1377 124.74 15.769 126.378L22.4309 133.068C25.7458 136.397 31.3851 136.397 34.7 133.068L36.3151 131.446L45.0869 138.76L43.0223 140.833C39.0343 144.838 33.9102 146.75 28.5655 146.75C23.2316 146.75 18.0907 144.844 13.8856 141.015L7.24486 134.345L7.23955 134.34L7.23417 134.335C-0.738787 126.518 -0.754224 113.529 7.24486 105.496L25.4137 87.2492C32.8208 79.8104 44.6121 79.4176 52.6077 85.9179L53.4846 86.6308L54.282 85.83L66.0756 73.9859V90.514L62.6042 94.0003Z" stroke="#FCFCFC" stroke-width="2.5"/>
<path d="M64.8031 61.8587L44.7318 69.0465L46.9101 57.4835L64.8031 61.8587Z" stroke="#FCFCFC" stroke-width="2.5"/>
<path d="M70.4375 47.0197L59.0598 30.3564L71.0696 27.1824L70.4375 47.0197Z" stroke="#FCFCFC" stroke-width="2.5"/>
<path d="M72.7009 94.6144L92.5873 101.712L81.4115 113.926L72.7009 94.6144Z" stroke="#FCFCFC" stroke-width="2.5"/>
<path d="M87.4518 83.4823L97.5895 79.5456L96.9136 86.8759L87.4518 83.4823Z" stroke="#FCFCFC" stroke-width="2.5"/>
</svg>
