<svg width="106" height="148" viewBox="0 0 106 148" fill="none" xmlns="http://www.w3.org/2000/svg">
<mask id="path-1-inside-1" fill="white">
<path d="M53 148C23.7743 148 7.80851e-06 124.379 7.80851e-06 95.3481C-0.00511904 85.9678 2.51445 76.7568 7.2977 68.6692C7.68927 68.0078 8.32928 67.5281 9.07692 67.3355C9.82456 67.1429 10.6186 67.2532 11.2843 67.6422C11.9501 68.0312 12.433 68.667 12.6269 69.4097C12.8208 70.1525 12.7097 70.9413 12.3181 71.6027C8.06007 78.8008 5.81698 86.9991 5.82127 95.3481C5.82127 121.191 26.9834 142.214 52.9971 142.214C79.0108 142.214 100.173 121.191 100.173 95.3481C100.173 69.5053 79.0078 48.4821 52.9971 48.4821C44.8581 48.4821 36.8576 50.574 29.7732 54.5544C29.1027 54.9112 28.3184 54.9933 27.5879 54.7831C26.8573 54.5728 26.2386 54.087 25.8639 53.4295C25.4892 52.772 25.3883 51.9949 25.5828 51.2644C25.7774 50.534 26.2518 49.9081 26.9048 49.5207C35.1326 44.9005 44.4548 42.551 53.9046 42.7158C63.3544 42.8806 72.5878 45.5538 80.6473 50.458L83.8332 38.646C84.3824 36.7462 84.5452 34.7568 84.3121 32.7938C84.079 30.8308 83.4546 28.9336 82.4755 27.2129C81.4964 25.4922 80.1821 23.9825 78.6093 22.7718C77.0365 21.5612 75.2367 20.6739 73.315 20.1617C71.3933 19.6495 69.3881 19.5227 67.4165 19.7886C65.445 20.0546 63.5465 20.708 61.8318 21.7108C60.1172 22.7135 58.6208 24.0455 57.4299 25.6289C56.239 27.2124 55.3776 29.0156 54.8958 30.9334C54.6958 31.674 54.208 32.3054 53.5397 32.6889C52.8713 33.0724 52.077 33.1767 51.3314 32.9787L37.5019 29.296C36.7564 29.0973 36.1208 28.6128 35.7347 27.9488C35.3487 27.2848 35.2438 26.4958 35.443 25.755C37.8773 16.8425 43.7689 9.25209 51.8266 4.6473C59.8844 0.0424976 69.4511 -1.20114 78.4302 1.18893C87.4093 3.57899 95.0685 9.4078 99.7292 17.398C104.39 25.3882 105.672 34.8881 103.295 43.8158L97.2084 66.3404C102.952 74.9379 106.01 85.0295 106 95.3481C106 124.382 82.2257 148 53 148Z"/>
</mask>
<path d="M53 148C23.7743 148 7.80851e-06 124.379 7.80851e-06 95.3481C-0.00511904 85.9678 2.51445 76.7568 7.2977 68.6692C7.68927 68.0078 8.32928 67.5281 9.07692 67.3355C9.82456 67.1429 10.6186 67.2532 11.2843 67.6422C11.9501 68.0312 12.433 68.667 12.6269 69.4097C12.8208 70.1525 12.7097 70.9413 12.3181 71.6027C8.06007 78.8008 5.81698 86.9991 5.82127 95.3481C5.82127 121.191 26.9834 142.214 52.9971 142.214C79.0108 142.214 100.173 121.191 100.173 95.3481C100.173 69.5053 79.0078 48.4821 52.9971 48.4821C44.8581 48.4821 36.8576 50.574 29.7732 54.5544C29.1027 54.9112 28.3184 54.9933 27.5879 54.7831C26.8573 54.5728 26.2386 54.087 25.8639 53.4295C25.4892 52.772 25.3883 51.9949 25.5828 51.2644C25.7774 50.534 26.2518 49.9081 26.9048 49.5207C35.1326 44.9005 44.4548 42.551 53.9046 42.7158C63.3544 42.8806 72.5878 45.5538 80.6473 50.458L83.8332 38.646C84.3824 36.7462 84.5452 34.7568 84.3121 32.7938C84.079 30.8308 83.4546 28.9336 82.4755 27.2129C81.4964 25.4922 80.1821 23.9825 78.6093 22.7718C77.0365 21.5612 75.2367 20.6739 73.315 20.1617C71.3933 19.6495 69.3881 19.5227 67.4165 19.7886C65.445 20.0546 63.5465 20.708 61.8318 21.7108C60.1172 22.7135 58.6208 24.0455 57.4299 25.6289C56.239 27.2124 55.3776 29.0156 54.8958 30.9334C54.6958 31.674 54.208 32.3054 53.5397 32.6889C52.8713 33.0724 52.077 33.1767 51.3314 32.9787L37.5019 29.296C36.7564 29.0973 36.1208 28.6128 35.7347 27.9488C35.3487 27.2848 35.2438 26.4958 35.443 25.755C37.8773 16.8425 43.7689 9.25209 51.8266 4.6473C59.8844 0.0424976 69.4511 -1.20114 78.4302 1.18893C87.4093 3.57899 95.0685 9.4078 99.7292 17.398C104.39 25.3882 105.672 34.8881 103.295 43.8158L97.2084 66.3404C102.952 74.9379 106.01 85.0295 106 95.3481C106 124.382 82.2257 148 53 148Z" stroke="#FCFCFC" stroke-width="3" mask="url(#path-1-inside-1)"/>
<text transform="matrix(0.97336 -0.229281 0.23216 0.972678 24.4352 62.0182)" fill="#FCFCFC" xml:space="preserve" style="white-space: pre" font-family="Myriad Pro" font-size="74.4832" letter-spacing="0em"><tspan x="0" y="63.1208">$</tspan></text>
</svg>
