<svg width="11" height="11" viewBox="0 0 11 11" fill="none" xmlns="http://www.w3.org/2000/svg">
<path d="M7.98356 0.549805C9.88044 0.549805 11 1.64133 11 3.50979H8.67289V3.52886C7.59287 3.52886 6.71733 4.38247 6.71733 5.43546C6.71733 6.48844 7.59287 7.34205 8.67289 7.34205H11V7.51365C11 9.35828 9.88044 10.4498 7.98356 10.4498H3.01644C1.11956 10.4498 0 9.35828 0 7.51365V3.48596C0 1.64133 1.11956 0.549805 3.01644 0.549805H7.98356ZM10.5893 4.32963C10.8161 4.32963 11 4.50889 11 4.73002V6.12183C10.9974 6.34188 10.815 6.51964 10.5893 6.52222H8.71689C8.17013 6.52939 7.69202 6.16441 7.568 5.64518C7.50589 5.32286 7.59308 4.99027 7.80619 4.73652C8.0193 4.48278 8.33654 4.33385 8.67289 4.32963H10.5893ZM8.93689 4.97311H8.756C8.64494 4.97183 8.53798 5.01396 8.45899 5.09008C8.38 5.16619 8.33556 5.26997 8.33556 5.37826C8.33554 5.60543 8.52301 5.79033 8.756 5.79294H8.93689C9.16909 5.79294 9.35733 5.60942 9.35733 5.38303C9.35733 5.15663 9.16909 4.97311 8.93689 4.97311ZM5.71022 2.68996H2.60578C2.37547 2.68994 2.18801 2.87058 2.18533 3.09511C2.18533 3.32229 2.37278 3.50718 2.60578 3.50979H5.71022C5.94243 3.50979 6.13067 3.32627 6.13067 3.09988C6.13067 2.87349 5.94243 2.68996 5.71022 2.68996Z" fill="white"/>
</svg>
