<svg width="16" height="12" viewBox="0 0 16 12" fill="none" xmlns="http://www.w3.org/2000/svg">
<rect width="16" height="12" rx="1" fill="white"/>
<mask id="mask0_241_7676" style="mask-type:alpha" maskUnits="userSpaceOnUse" x="0" y="0" width="16" height="12">
<rect width="16" height="12" rx="1" fill="white"/>
</mask>
<g mask="url(#mask0_241_7676)">
<path fill-rule="evenodd" clip-rule="evenodd" d="M16 0H0V0.8H16V0ZM16 1.6H0V2.4H16V1.6ZM0 3.2H16V4H0V3.2ZM16 4.8H0V5.6H16V4.8ZM0 6.4H16V7.2H0V6.4ZM16 8H0V8.8H16V8ZM0 9.6H16V10.4H0V9.6ZM16 11.2H0V12H16V11.2Z" fill="#D02F44"/>
<rect width="6.85714" height="5.6" fill="#46467F"/>
<g filter="url(#filter0_d_241_7676)">
<path fill-rule="evenodd" clip-rule="evenodd" d="M1.52381 1.20005C1.52381 1.42096 1.35325 1.60005 1.14285 1.60005C0.93246 1.60005 0.761902 1.42096 0.761902 1.20005C0.761902 0.979135 0.93246 0.800049 1.14285 0.800049C1.35325 0.800049 1.52381 0.979135 1.52381 1.20005ZM3.04762 1.20005C3.04762 1.42096 2.87706 1.60005 2.66666 1.60005C2.45627 1.60005 2.28571 1.42096 2.28571 1.20005C2.28571 0.979135 2.45627 0.800049 2.66666 0.800049C2.87706 0.800049 3.04762 0.979135 3.04762 1.20005ZM4.19047 1.60005C4.40087 1.60005 4.57143 1.42096 4.57143 1.20005C4.57143 0.979135 4.40087 0.800049 4.19047 0.800049C3.98008 0.800049 3.80952 0.979135 3.80952 1.20005C3.80952 1.42096 3.98008 1.60005 4.19047 1.60005ZM6.09523 1.20005C6.09523 1.42096 5.92468 1.60005 5.71428 1.60005C5.50389 1.60005 5.33333 1.42096 5.33333 1.20005C5.33333 0.979135 5.50389 0.800049 5.71428 0.800049C5.92468 0.800049 6.09523 0.979135 6.09523 1.20005ZM1.90476 2.40005C2.11515 2.40005 2.28571 2.22096 2.28571 2.00005C2.28571 1.77913 2.11515 1.60005 1.90476 1.60005C1.69436 1.60005 1.52381 1.77913 1.52381 2.00005C1.52381 2.22096 1.69436 2.40005 1.90476 2.40005ZM3.80952 2.00005C3.80952 2.22096 3.63896 2.40005 3.42857 2.40005C3.21817 2.40005 3.04762 2.22096 3.04762 2.00005C3.04762 1.77913 3.21817 1.60005 3.42857 1.60005C3.63896 1.60005 3.80952 1.77913 3.80952 2.00005ZM4.95238 2.40005C5.16277 2.40005 5.33333 2.22096 5.33333 2.00005C5.33333 1.77913 5.16277 1.60005 4.95238 1.60005C4.74198 1.60005 4.57143 1.77913 4.57143 2.00005C4.57143 2.22096 4.74198 2.40005 4.95238 2.40005ZM6.09523 2.80005C6.09523 3.02096 5.92468 3.20005 5.71428 3.20005C5.50389 3.20005 5.33333 3.02096 5.33333 2.80005C5.33333 2.57914 5.50389 2.40005 5.71428 2.40005C5.92468 2.40005 6.09523 2.57914 6.09523 2.80005ZM4.19047 3.20005C4.40087 3.20005 4.57143 3.02096 4.57143 2.80005C4.57143 2.57914 4.40087 2.40005 4.19047 2.40005C3.98008 2.40005 3.80952 2.57914 3.80952 2.80005C3.80952 3.02096 3.98008 3.20005 4.19047 3.20005ZM3.04762 2.80005C3.04762 3.02096 2.87706 3.20005 2.66666 3.20005C2.45627 3.20005 2.28571 3.02096 2.28571 2.80005C2.28571 2.57914 2.45627 2.40005 2.66666 2.40005C2.87706 2.40005 3.04762 2.57914 3.04762 2.80005ZM1.14285 3.20005C1.35325 3.20005 1.52381 3.02096 1.52381 2.80005C1.52381 2.57914 1.35325 2.40005 1.14285 2.40005C0.93246 2.40005 0.761902 2.57914 0.761902 2.80005C0.761902 3.02096 0.93246 3.20005 1.14285 3.20005ZM2.28571 3.60005C2.28571 3.82096 2.11515 4.00005 1.90476 4.00005C1.69436 4.00005 1.52381 3.82096 1.52381 3.60005C1.52381 3.37913 1.69436 3.20005 1.90476 3.20005C2.11515 3.20005 2.28571 3.37913 2.28571 3.60005ZM3.42857 4.00005C3.63896 4.00005 3.80952 3.82096 3.80952 3.60005C3.80952 3.37913 3.63896 3.20005 3.42857 3.20005C3.21817 3.20005 3.04762 3.37913 3.04762 3.60005C3.04762 3.82096 3.21817 4.00005 3.42857 4.00005ZM5.33333 3.60005C5.33333 3.82096 5.16277 4.00005 4.95238 4.00005C4.74198 4.00005 4.57143 3.82096 4.57143 3.60005C4.57143 3.37913 4.74198 3.20005 4.95238 3.20005C5.16277 3.20005 5.33333 3.37913 5.33333 3.60005ZM5.71428 4.80005C5.92468 4.80005 6.09523 4.62096 6.09523 4.40005C6.09523 4.17914 5.92468 4.00005 5.71428 4.00005C5.50389 4.00005 5.33333 4.17914 5.33333 4.40005C5.33333 4.62096 5.50389 4.80005 5.71428 4.80005ZM4.57143 4.40005C4.57143 4.62096 4.40087 4.80005 4.19047 4.80005C3.98008 4.80005 3.80952 4.62096 3.80952 4.40005C3.80952 4.17914 3.98008 4.00005 4.19047 4.00005C4.40087 4.00005 4.57143 4.17914 4.57143 4.40005ZM2.66666 4.80005C2.87706 4.80005 3.04762 4.62096 3.04762 4.40005C3.04762 4.17914 2.87706 4.00005 2.66666 4.00005C2.45627 4.00005 2.28571 4.17914 2.28571 4.40005C2.28571 4.62096 2.45627 4.80005 2.66666 4.80005ZM1.52381 4.40005C1.52381 4.62096 1.35325 4.80005 1.14285 4.80005C0.93246 4.80005 0.761902 4.62096 0.761902 4.40005C0.761902 4.17914 0.93246 4.00005 1.14285 4.00005C1.35325 4.00005 1.52381 4.17914 1.52381 4.40005Z" fill="url(#paint0_linear_241_7676)"/>
</g>
</g>
<defs>
<filter id="filter0_d_241_7676" x="0.761902" y="0.800049" width="5.33334" height="5" filterUnits="userSpaceOnUse" color-interpolation-filters="sRGB">
<feFlood flood-opacity="0" result="BackgroundImageFix"/>
<feColorMatrix in="SourceAlpha" type="matrix" values="0 0 0 0 0 0 0 0 0 0 0 0 0 0 0 0 0 0 127 0" result="hardAlpha"/>
<feOffset dy="1"/>
<feColorMatrix type="matrix" values="0 0 0 0 0 0 0 0 0 0 0 0 0 0 0 0 0 0 0.06 0"/>
<feBlend mode="normal" in2="BackgroundImageFix" result="effect1_dropShadow_241_7676"/>
<feBlend mode="normal" in="SourceGraphic" in2="effect1_dropShadow_241_7676" result="shape"/>
</filter>
<linearGradient id="paint0_linear_241_7676" x1="0.761902" y1="0.800049" x2="0.761902" y2="4.80005" gradientUnits="userSpaceOnUse">
<stop stop-color="white"/>
<stop offset="1" stop-color="#F0F0F0"/>
</linearGradient>
</defs>
</svg>
