<svg width="28" height="28" viewBox="0 0 28 28" fill="none" xmlns="http://www.w3.org/2000/svg">
<g filter="url(#filter0_f_21_20568)">
<path fill-rule="evenodd" clip-rule="evenodd" d="M3.84615 14C3.84615 8.39219 8.39219 3.84615 14 3.84615C19.6078 3.84615 24.1538 8.39219 24.1538 14C24.1538 19.6078 19.6078 24.1538 14 24.1538C8.39219 24.1538 3.84615 19.6078 3.84615 14ZM14 2C7.37258 2 2 7.37258 2 14C2 20.6274 7.37258 26 14 26C20.6274 26 26 20.6274 26 14C26 7.37258 20.6274 2 14 2ZM20.165 11.6718C20.5361 11.2628 20.5052 10.6303 20.0962 10.2593C19.6871 9.88826 19.0547 9.91909 18.6836 10.3282L12.5968 17.0388L9.38801 14.0065C8.9866 13.6272 8.35369 13.6451 7.97436 14.0465C7.59503 14.4479 7.61293 15.0808 8.01434 15.4601L11.5941 18.843C12.2049 19.4202 13.1707 19.383 13.7354 18.7605L20.165 11.6718Z" fill="#26DBDB"/>
</g>
<path fill-rule="evenodd" clip-rule="evenodd" d="M3.84615 14C3.84615 8.39219 8.39219 3.84615 14 3.84615C19.6078 3.84615 24.1538 8.39219 24.1538 14C24.1538 19.6078 19.6078 24.1538 14 24.1538C8.39219 24.1538 3.84615 19.6078 3.84615 14ZM14 2C7.37258 2 2 7.37258 2 14C2 20.6274 7.37258 26 14 26C20.6274 26 26 20.6274 26 14C26 7.37258 20.6274 2 14 2ZM20.165 11.6718C20.5361 11.2628 20.5052 10.6303 20.0962 10.2593C19.6871 9.88826 19.0547 9.91909 18.6836 10.3282L12.5968 17.0388L9.38801 14.0065C8.9866 13.6272 8.35369 13.6451 7.97436 14.0465C7.59503 14.4479 7.61293 15.0808 8.01434 15.4601L11.5941 18.843C12.2049 19.4202 13.1707 19.383 13.7354 18.7605L20.165 11.6718Z" fill="#26DBDB"/>
<defs>
<filter id="filter0_f_21_20568" x="0" y="0" width="28" height="28" filterUnits="userSpaceOnUse" color-interpolation-filters="sRGB">
<feFlood flood-opacity="0" result="BackgroundImageFix"/>
<feBlend mode="normal" in="SourceGraphic" in2="BackgroundImageFix" result="shape"/>
<feGaussianBlur stdDeviation="1" result="effect1_foregroundBlur_21_20568"/>
</filter>
</defs>
</svg>
