<svg width="24" height="24" viewBox="0 0 24 24" fill="none" xmlns="http://www.w3.org/2000/svg">
<g id="24 / Cancelled">
<g id="Group 48096293">
<g id="Group 48096108" filter="url(#filter0_f_1114_29196)">
<g id="Group">
<path id="Union" fill-rule="evenodd" clip-rule="evenodd" d="M3.53846 12C3.53846 7.32682 7.32682 3.53846 12 3.53846C16.6732 3.53846 20.4615 7.32682 20.4615 12C20.4615 16.6732 16.6732 20.4615 12 20.4615C7.32682 20.4615 3.53846 16.6732 3.53846 12ZM12 2C6.47715 2 2 6.47715 2 12C2 17.5228 6.47715 22 12 22C17.5228 22 22 17.5228 22 12C22 6.47715 17.5228 2 12 2ZM9.05379 8.31202C8.85801 8.11727 8.54143 8.11811 8.34669 8.31389C8.15194 8.50966 8.15278 8.82624 8.34855 9.02099L11.3432 11.9998L8.34855 14.9787C8.15278 15.1734 8.15194 15.49 8.34669 15.6858C8.54143 15.8816 8.85801 15.8824 9.05379 15.6877L12.0522 12.7051L15.0505 15.6877C15.2463 15.8824 15.5629 15.8816 15.7576 15.6858C15.9524 15.49 15.9515 15.1734 15.7558 14.9787L12.7611 11.9998L15.7558 9.02099C15.9515 8.82624 15.9524 8.50966 15.7576 8.31389C15.5629 8.11811 15.2463 8.11727 15.0505 8.31202L12.0522 11.2946L9.05379 8.31202Z" fill="#BDBDBD"/>
</g>
</g>
<g id="Group 48096109">
<g id="Group_2">
<path id="Union_2" fill-rule="evenodd" clip-rule="evenodd" d="M3.53846 12C3.53846 7.32682 7.32682 3.53846 12 3.53846C16.6732 3.53846 20.4615 7.32682 20.4615 12C20.4615 16.6732 16.6732 20.4615 12 20.4615C7.32682 20.4615 3.53846 16.6732 3.53846 12ZM12 2C6.47715 2 2 6.47715 2 12C2 17.5228 6.47715 22 12 22C17.5228 22 22 17.5228 22 12C22 6.47715 17.5228 2 12 2ZM9.40641 7.95753C9.01485 7.56804 8.38169 7.56971 7.9922 7.96127C7.60271 8.35282 7.60438 8.98598 7.99594 9.37548L10.6342 11.9998L7.99594 14.6242C7.60438 15.0137 7.60271 15.6469 7.9922 16.0384C8.38169 16.43 9.01485 16.4316 9.40641 16.0421L12.0522 13.4103L14.6979 16.0421C15.0895 16.4316 15.7226 16.43 16.1121 16.0384C16.5016 15.6469 16.4999 15.0137 16.1084 14.6242L13.4701 11.9998L16.1084 9.37548C16.4999 8.98598 16.5016 8.35282 16.1121 7.96127C15.7226 7.56971 15.0895 7.56804 14.6979 7.95753L12.0522 10.5893L9.40641 7.95753Z" fill="#BDBDBD"/>
</g>
</g>
</g>
</g>
<defs>
<filter id="filter0_f_1114_29196" x="0" y="0" width="24" height="24" filterUnits="userSpaceOnUse" color-interpolation-filters="sRGB">
<feFlood flood-opacity="0" result="BackgroundImageFix"/>
<feBlend mode="normal" in="SourceGraphic" in2="BackgroundImageFix" result="shape"/>
<feGaussianBlur stdDeviation="1" result="effect1_foregroundBlur_1114_29196"/>
</filter>
</defs>
</svg>