<svg width="24" height="24" viewBox="0 0 24 24" fill="none" xmlns="http://www.w3.org/2000/svg">
<g id="24 / Executed and Succeeded">
<g id="Group 48096112">
<g id="Group 48096108" filter="url(#filter0_f_1114_29192)">
<g id="Group">
<path id="Union" fill-rule="evenodd" clip-rule="evenodd" d="M3.53846 12C3.53846 7.32682 7.32682 3.53846 12 3.53846C16.6732 3.53846 20.4615 7.32682 20.4615 12C20.4615 16.6732 16.6732 20.4615 12 20.4615C7.32682 20.4615 3.53846 16.6732 3.53846 12ZM12 2C6.47715 2 2 6.47715 2 12C2 17.5228 6.47715 22 12 22C17.5228 22 22 17.5228 22 12C22 6.47715 17.5228 2 12 2ZM17.2607 10.1718C17.6317 9.76276 17.6009 9.13035 17.1918 8.7593C16.7827 8.38826 16.1503 8.41909 15.7793 8.82816L10.8212 14.2944L8.27082 11.8843C7.86941 11.505 7.2365 11.5229 6.85717 11.9243C6.47784 12.3257 6.49574 12.9586 6.89715 13.3379L9.81844 16.0985C10.4293 16.6758 11.3951 16.6386 11.9597 16.0161L17.2607 10.1718Z" fill="#2CE878"/>
</g>
</g>
<g id="Group 48096109">
<g id="Group_2">
<path id="Union_2" fill-rule="evenodd" clip-rule="evenodd" d="M3.53846 12C3.53846 7.32682 7.32682 3.53846 12 3.53846C16.6732 3.53846 20.4615 7.32682 20.4615 12C20.4615 16.6732 16.6732 20.4615 12 20.4615C7.32682 20.4615 3.53846 16.6732 3.53846 12ZM12 2C6.47715 2 2 6.47715 2 12C2 17.5228 6.47715 22 12 22C17.5228 22 22 17.5228 22 12C22 6.47715 17.5228 2 12 2ZM17.2607 10.1718C17.6317 9.76276 17.6009 9.13035 17.1918 8.7593C16.7827 8.38826 16.1503 8.41909 15.7793 8.82816L10.8212 14.2944L8.27082 11.8843C7.86941 11.505 7.2365 11.5229 6.85717 11.9243C6.47784 12.3257 6.49574 12.9586 6.89715 13.3379L9.81844 16.0985C10.4293 16.6758 11.3951 16.6386 11.9597 16.0161L17.2607 10.1718Z" fill="#2CE878"/>
</g>
</g>
</g>
</g>
<defs>
<filter id="filter0_f_1114_29192" x="0" y="0" width="24" height="24" filterUnits="userSpaceOnUse" color-interpolation-filters="sRGB">
<feFlood flood-opacity="0" result="BackgroundImageFix"/>
<feBlend mode="normal" in="SourceGraphic" in2="BackgroundImageFix" result="shape"/>
<feGaussianBlur stdDeviation="1" result="effect1_foregroundBlur_1114_29192"/>
</filter>
</defs>
</svg>