<svg width="28" height="28" viewBox="0 0 28 28" fill="none" xmlns="http://www.w3.org/2000/svg">
<g filter="url(#filter0_f_21_20553)">
<path fill-rule="evenodd" clip-rule="evenodd" d="M3.84615 14C3.84615 8.39219 8.39219 3.84615 14 3.84615C19.6078 3.84615 24.1538 8.39219 24.1538 14C24.1538 19.6078 19.6078 24.1538 14 24.1538C8.39219 24.1538 3.84615 19.6078 3.84615 14ZM14 2C7.37258 2 2 7.37258 2 14C2 20.6274 7.37258 26 14 26C20.6274 26 26 20.6274 26 14C26 7.37258 20.6274 2 14 2ZM13.9992 7.53854C13.4894 7.53854 13.0762 7.95182 13.0762 8.46162C13.0762 8.97142 13.4894 9.3847 13.9992 9.3847H14.0103C14.5201 9.3847 14.9334 8.97142 14.9334 8.46162C14.9334 7.95182 14.5201 7.53854 14.0103 7.53854H13.9992ZM10.8613 12.8923C10.8613 12.3825 11.2746 11.9692 11.7844 11.9692H13.9998C14.5096 11.9692 14.9229 12.3825 14.9229 12.8923V17.5077H16.2152C16.725 17.5077 17.1383 17.921 17.1383 18.4308C17.1383 18.9406 16.725 19.3538 16.2152 19.3538H11.7844C11.2746 19.3538 10.8613 18.9406 10.8613 18.4308C10.8613 17.921 11.2746 17.5077 11.7844 17.5077H13.0767V13.8153H11.7844C11.2746 13.8153 10.8613 13.4021 10.8613 12.8923Z" fill="#FFBF00"/>
</g>
<path fill-rule="evenodd" clip-rule="evenodd" d="M3.84615 14C3.84615 8.39219 8.39219 3.84615 14 3.84615C19.6078 3.84615 24.1538 8.39219 24.1538 14C24.1538 19.6078 19.6078 24.1538 14 24.1538C8.39219 24.1538 3.84615 19.6078 3.84615 14ZM14 2C7.37258 2 2 7.37258 2 14C2 20.6274 7.37258 26 14 26C20.6274 26 26 20.6274 26 14C26 7.37258 20.6274 2 14 2ZM13.9992 7.53854C13.4894 7.53854 13.0762 7.95182 13.0762 8.46162C13.0762 8.97142 13.4894 9.3847 13.9992 9.3847H14.0103C14.5201 9.3847 14.9334 8.97142 14.9334 8.46162C14.9334 7.95182 14.5201 7.53854 14.0103 7.53854H13.9992ZM10.8613 12.8923C10.8613 12.3825 11.2746 11.9692 11.7844 11.9692H13.9998C14.5096 11.9692 14.9229 12.3825 14.9229 12.8923V17.5077H16.2152C16.725 17.5077 17.1383 17.921 17.1383 18.4308C17.1383 18.9406 16.725 19.3538 16.2152 19.3538H11.7844C11.2746 19.3538 10.8613 18.9406 10.8613 18.4308C10.8613 17.921 11.2746 17.5077 11.7844 17.5077H13.0767V13.8153H11.7844C11.2746 13.8153 10.8613 13.4021 10.8613 12.8923Z" fill="#FFBF00"/>
<defs>
<filter id="filter0_f_21_20553" x="0" y="0" width="28" height="28" filterUnits="userSpaceOnUse" color-interpolation-filters="sRGB">
<feFlood flood-opacity="0" result="BackgroundImageFix"/>
<feBlend mode="normal" in="SourceGraphic" in2="BackgroundImageFix" result="shape"/>
<feGaussianBlur stdDeviation="1" result="effect1_foregroundBlur_21_20553"/>
</filter>
</defs>
</svg>
