<svg width="24" height="24" viewBox="0 0 24 24" fill="none" xmlns="http://www.w3.org/2000/svg">
<g id="24 / Warning and Queued">
<g id="Group 48096111">
<g id="Group 48096108" filter="url(#filter0_f_1114_28666)">
<g id="Group">
<path id="Union" fill-rule="evenodd" clip-rule="evenodd" d="M3.53846 12C3.53846 7.32682 7.32682 3.53846 12 3.53846C16.6732 3.53846 20.4615 7.32682 20.4615 12C20.4615 16.6732 16.6732 20.4615 12 20.4615C7.32682 20.4615 3.53846 16.6732 3.53846 12ZM12 2C6.47715 2 2 6.47715 2 12C2 17.5228 6.47715 22 12 22C17.5228 22 22 17.5228 22 12C22 6.47715 17.5228 2 12 2ZM11.9997 6.61523C11.5749 6.61523 11.2305 6.95963 11.2305 7.38447C11.2305 7.8093 11.5749 8.1537 11.9997 8.1537H12.0089C12.4338 8.1537 12.7782 7.8093 12.7782 7.38447C12.7782 6.95963 12.4338 6.61523 12.0089 6.61523H11.9997ZM9.38477 11.0768C9.38477 10.652 9.72916 10.3076 10.154 10.3076H12.0002C12.425 10.3076 12.7694 10.652 12.7694 11.0768V14.9233H13.8463C14.2711 14.9233 14.6155 15.2677 14.6155 15.6926C14.6155 16.1174 14.2711 16.4618 13.8463 16.4618H10.154C9.72916 16.4618 9.38477 16.1174 9.38477 15.6926C9.38477 15.2677 9.72916 14.9233 10.154 14.9233H11.2309V11.8461H10.154C9.72916 11.8461 9.38477 11.5017 9.38477 11.0768Z" fill="#FFBF00"/>
</g>
</g>
<g id="Group 48096109">
<g id="Group_2">
<path id="Union_2" fill-rule="evenodd" clip-rule="evenodd" d="M3.53846 12C3.53846 7.32682 7.32682 3.53846 12 3.53846C16.6732 3.53846 20.4615 7.32682 20.4615 12C20.4615 16.6732 16.6732 20.4615 12 20.4615C7.32682 20.4615 3.53846 16.6732 3.53846 12ZM12 2C6.47715 2 2 6.47715 2 12C2 17.5228 6.47715 22 12 22C17.5228 22 22 17.5228 22 12C22 6.47715 17.5228 2 12 2ZM11.9997 6.61523C11.5749 6.61523 11.2305 6.95963 11.2305 7.38447C11.2305 7.8093 11.5749 8.1537 11.9997 8.1537H12.0089C12.4338 8.1537 12.7782 7.8093 12.7782 7.38447C12.7782 6.95963 12.4338 6.61523 12.0089 6.61523H11.9997ZM9.38477 11.0768C9.38477 10.652 9.72916 10.3076 10.154 10.3076H12.0002C12.425 10.3076 12.7694 10.652 12.7694 11.0768V14.9233H13.8463C14.2711 14.9233 14.6155 15.2677 14.6155 15.6926C14.6155 16.1174 14.2711 16.4618 13.8463 16.4618H10.154C9.72916 16.4618 9.38477 16.1174 9.38477 15.6926C9.38477 15.2677 9.72916 14.9233 10.154 14.9233H11.2309V11.8461H10.154C9.72916 11.8461 9.38477 11.5017 9.38477 11.0768Z" fill="#FFBF00"/>
</g>
</g>
</g>
</g>
<defs>
<filter id="filter0_f_1114_28666" x="0" y="0" width="24" height="24" filterUnits="userSpaceOnUse" color-interpolation-filters="sRGB">
<feFlood flood-opacity="0" result="BackgroundImageFix"/>
<feBlend mode="normal" in="SourceGraphic" in2="BackgroundImageFix" result="shape"/>
<feGaussianBlur stdDeviation="1" result="effect1_foregroundBlur_1114_28666"/>
</filter>
</defs>
</svg>