<svg width="24" height="24" viewBox="0 0 24 24" fill="none" xmlns="http://www.w3.org/2000/svg">
<g id="24 / Voting open">
<g id="Group 48096293">
<g id="Group 48096108" filter="url(#filter0_f_1114_29194)">
<g id="Group">
<path id="Union" fill-rule="evenodd" clip-rule="evenodd" d="M3.53846 12C3.53846 7.32682 7.32682 3.53846 12 3.53846C16.6732 3.53846 20.4615 7.32682 20.4615 12C20.4615 16.6732 16.6732 20.4615 12 20.4615C7.32682 20.4615 3.53846 16.6732 3.53846 12ZM12 2C6.47715 2 2 6.47715 2 12C2 17.5228 6.47715 22 12 22C17.5228 22 22 17.5228 22 12C22 6.47715 17.5228 2 12 2ZM14.656 16.377C14.9343 16.6552 15.3854 16.6552 15.6637 16.377C15.9417 16.0989 15.942 15.6482 15.6642 15.3698L12.5956 12.2951V6.88079C12.5956 6.4863 12.2758 6.1665 11.8813 6.1665C11.4868 6.1665 11.167 6.4863 11.167 6.88079V12.2666C11.167 12.6644 11.325 13.046 11.6063 13.3273L14.656 16.377Z" fill="#E843C4"/>
</g>
</g>
<g id="Group 48096109">
<g id="Group_2">
<path id="Union_2" fill-rule="evenodd" clip-rule="evenodd" d="M3.53846 12C3.53846 7.32682 7.32682 3.53846 12 3.53846C16.6732 3.53846 20.4615 7.32682 20.4615 12C20.4615 16.6732 16.6732 20.4615 12 20.4615C7.32682 20.4615 3.53846 16.6732 3.53846 12ZM12 2C6.47715 2 2 6.47715 2 12C2 17.5228 6.47715 22 12 22C17.5228 22 22 17.5228 22 12C22 6.47715 17.5228 2 12 2ZM14.656 16.377C14.9343 16.6552 15.3854 16.6552 15.6637 16.377C15.9417 16.0989 15.942 15.6482 15.6642 15.3698L12.5956 12.2951V6.88079C12.5956 6.4863 12.2758 6.1665 11.8813 6.1665C11.4868 6.1665 11.167 6.4863 11.167 6.88079V12.2666C11.167 12.6644 11.325 13.046 11.6063 13.3273L14.656 16.377Z" fill="#E843C4"/>
</g>
</g>
</g>
</g>
<defs>
<filter id="filter0_f_1114_29194" x="0" y="0" width="24" height="24" filterUnits="userSpaceOnUse" color-interpolation-filters="sRGB">
<feFlood flood-opacity="0" result="BackgroundImageFix"/>
<feBlend mode="normal" in="SourceGraphic" in2="BackgroundImageFix" result="shape"/>
<feGaussianBlur stdDeviation="1" result="effect1_foregroundBlur_1114_29194"/>
</filter>
</defs>
</svg>